<svg width="257" height="257" viewBox="0 0 257 257" fill="none"
  xmlns="http://www.w3.org/2000/svg">
  <g clip-path="url(#clip0_81_1464)">
    <g opacity="0.7">
      <path d="M84.3152 23.5354C81.0481 28.3474 78.4516 33.9298 76.7407 40.283C71.8222 58.5517 57.5521 72.8218 39.2832 77.741C32.9299 79.4513 27.3472 82.0478 22.5352 85.3154C15.715 49.6415 48.6414 16.7152 84.3152 23.5354Z" fill="#FFD819"/>
      <path d="M22.5359 85.3145C23.6281 91.0274 25.7397 96.8111 29.0224 102.513C38.4623 118.909 38.4623 139.09 29.0224 155.487C25.7396 161.189 23.628 166.972 22.5359 172.685C-7.512 152.282 -7.51194 105.718 22.5359 85.3145Z" fill="#FFE029"/>
      <path d="M84.3152 234.465C81.0481 229.653 78.4516 224.07 76.7407 217.717C71.8222 199.448 57.5521 185.178 39.2832 180.26C32.9299 178.549 27.3472 175.952 22.5352 172.685C15.715 208.359 48.6414 241.285 84.3152 234.465Z" fill="#FFC141"/>
      <path d="M171.686 234.464C165.973 233.371 160.19 231.26 154.488 227.977C138.092 218.537 117.91 218.537 101.515 227.977C95.8126 231.26 90.0289 233.372 84.3159 234.464C104.718 264.512 151.284 264.512 171.686 234.464Z" fill="#FFB655"/>
      <path d="M233.466 172.685C228.654 175.952 223.072 178.548 216.718 180.259C198.45 185.178 184.18 199.448 179.26 217.717C177.55 224.07 174.954 229.653 171.686 234.464C207.36 241.284 240.286 208.358 233.466 172.685Z" fill="#FFB35B"/>
      <path d="M233.466 85.3145C232.373 91.0274 230.262 96.8105 226.979 102.513C217.54 118.908 217.54 139.09 226.979 155.486C230.262 161.188 232.373 166.971 233.466 172.684C263.513 152.282 263.513 105.718 233.466 85.3145Z" fill="#FFB656"/>
      <path d="M171.686 23.5353C174.954 28.3473 177.55 33.9298 179.26 40.2831C184.18 58.5518 198.45 72.8219 216.718 77.741C223.072 79.4513 228.654 82.0478 233.466 85.3149C240.286 49.6415 207.36 16.7156 171.686 23.5353Z" fill="#FFC042"/>
      <path d="M84.3159 23.5354C90.0289 24.6276 95.812 26.7391 101.514 30.0219C117.911 39.4618 138.092 39.4618 154.487 30.0219C160.19 26.7392 165.973 24.6277 171.686 23.5355C151.283 -6.51183 104.718 -6.51183 84.3159 23.5354Z" fill="#FFCE2A"/>
    </g>
    <path fill-rule="evenodd" clip-rule="evenodd" d="M76.7425 40.2819C78.4528 33.9288 81.0494 28.3463 84.317 23.5343C90.0294 24.6265 95.8131 26.738 101.515 30.0207C117.911 39.4606 138.092 39.4606 154.488 30.0207C160.19 26.7379 165.974 24.6263 171.687 23.5342C174.954 28.3462 177.551 33.9287 179.261 40.2819C184.18 58.5509 198.45 72.8209 216.719 77.7395C223.072 79.4504 228.655 82.0464 233.466 85.314C232.374 91.0269 230.263 96.8106 226.98 102.512C217.54 118.909 217.54 139.09 226.98 155.486C230.263 161.188 232.374 166.971 233.466 172.684C228.655 175.952 223.072 178.548 216.719 180.259C198.45 185.177 184.18 199.447 179.261 217.716C177.551 224.069 174.954 229.652 171.687 234.464C165.974 233.372 160.19 231.26 154.488 227.977C138.092 218.538 117.911 218.538 101.515 227.977C95.8131 231.26 90.0294 233.372 84.317 234.464C81.0494 229.652 78.4528 224.069 76.7425 217.716C71.8234 199.447 57.5533 185.177 39.2846 180.259C32.9313 178.548 27.3487 175.951 22.5366 172.684C23.6288 166.971 25.7403 161.188 29.023 155.486C38.4629 139.09 38.4629 118.909 29.023 102.512C25.7403 96.8106 23.6288 91.0275 22.5366 85.3146C27.3486 82.0469 32.9313 79.4504 39.2846 77.7395C57.5533 72.8209 71.8234 58.5509 76.7425 40.2819Z" fill="url(#paint0_radial_81_1464)"/>
    <path d="M185.142 156.518L180.676 148.783C179.443 146.647 176.712 145.916 174.576 147.149L174.576 147.149C172.44 148.382 171.708 151.113 172.942 153.249L177.407 160.983C178.64 163.119 181.371 163.851 183.507 162.618L183.507 162.618C185.643 161.385 186.375 158.654 185.142 156.518Z" fill="#FFA17A"/>
    <path d="M173.979 156.518L169.513 148.783C168.28 146.647 165.549 145.916 163.413 147.149L163.413 147.149C161.277 148.382 160.546 151.113 161.779 153.249L166.244 160.983C167.477 163.119 170.208 163.851 172.344 162.618L172.344 162.618C174.48 161.385 175.212 158.654 173.979 156.518Z" fill="#FFA17A"/>
    <path d="M94.7149 156.518L90.2494 148.783C89.0163 146.647 86.2852 145.916 84.1493 147.149L84.1493 147.149C82.0135 148.382 81.2817 151.113 82.5148 153.249L86.9804 160.983C88.2135 163.119 90.9446 163.851 93.0804 162.618L93.0804 162.618C95.2163 161.385 95.9481 158.654 94.7149 156.518Z" fill="#FFAB89"/>
    <path d="M83.5509 156.518L79.0853 148.783C77.8522 146.647 75.1211 145.916 72.9853 147.149L72.9852 147.149C70.8494 148.382 70.1176 151.113 71.3507 153.249L75.8163 160.983C77.0494 163.119 79.7805 163.851 81.9164 162.618L81.9164 162.618C84.0522 161.385 84.784 158.654 83.5509 156.518Z" fill="#FFAB89"/>
    <path d="M181.497 98.146L172.87 95.8345C170.488 95.1962 168.039 96.6099 167.401 98.9921L167.401 98.9921C166.762 101.374 168.176 103.823 170.558 104.461L179.185 106.773C181.567 107.411 184.016 105.997 184.654 103.615C185.293 101.233 183.879 98.7843 181.497 98.146Z" fill="#FFA17A"/>
    <path d="M83.1753 95.8344L74.5485 98.146C72.1663 98.7843 70.7526 101.233 71.3909 103.615L71.3909 103.615C72.0292 105.997 74.4778 107.411 76.86 106.773L85.4868 104.461C87.8691 103.823 89.2828 101.374 88.6444 98.9921C88.0061 96.6098 85.5575 95.1961 83.1753 95.8344Z" fill="#FFAB89"/>
    <path d="M118.24 144.916C120.595 147.525 124.772 149.381 128.287 149.381C131.802 149.381 135.98 147.525 138.335 144.916" stroke="#8B2C0C" stroke-opacity="0.05" stroke-width="6.848" stroke-linecap="round"/>
    <path d="M118.24 143.8C120.595 146.409 124.772 148.265 128.287 148.265C131.802 148.265 135.98 146.409 138.335 143.8" stroke="#D05B34" stroke-width="6.848" stroke-linecap="round"/>
    <path d="M80.4414 119.78L74.1261 113.465C72.3822 111.721 69.5548 111.721 67.8109 113.465L67.8109 113.465C66.067 115.209 66.067 118.037 67.8109 119.78L74.1261 126.096C75.87 127.84 78.6975 127.84 80.4414 126.096C82.1853 124.352 82.1853 121.524 80.4414 119.78Z" fill="black"/>
    <path d="M100.377 129.287C100.377 120.038 92.8798 112.541 83.6313 112.541C74.3829 112.541 66.8855 120.038 66.8855 129.287C66.8855 138.535 74.3829 146.033 83.6313 146.033C92.8798 146.033 100.377 138.535 100.377 129.287Z" fill="black"/>
    <path d="M100.377 130.402C100.377 121.154 92.8798 113.656 83.6313 113.656C74.3829 113.656 66.8855 121.154 66.8855 130.402C66.8855 139.651 74.3829 147.148 83.6313 147.148C92.8798 147.148 100.377 139.651 100.377 130.402Z" fill="black" fill-opacity="0.05"/>
    <path fill-rule="evenodd" clip-rule="evenodd" d="M70.9966 133.751C72.8358 128.548 77.7978 124.82 83.6306 124.82C89.4639 124.82 94.4259 128.548 96.2651 133.752C94.4259 138.955 89.4634 142.682 83.6311 142.682C77.7978 142.682 72.8353 138.954 70.9966 133.751Z" fill="#784012"/>
    <path fill-rule="evenodd" clip-rule="evenodd" d="M94.819 136.66C96.216 134.545 97.0292 132.011 97.0292 129.287C97.0292 121.888 91.0309 115.89 83.6322 115.89C76.2335 115.89 70.2358 121.888 70.2358 129.287C70.2358 131.729 70.8893 134.019 72.0312 135.991C74.4285 132.362 78.5436 129.967 83.2179 129.967C88.1742 129.967 92.5021 132.659 94.819 136.66Z" fill="black" fill-opacity="0.35"/>
    <path d="M91.4458 129.286C91.4458 124.97 87.9471 121.472 83.6311 121.472C79.3152 121.472 75.8164 124.97 75.8164 129.286C75.8164 133.602 79.3152 137.101 83.6311 137.101C87.9471 137.101 91.4458 133.602 91.4458 129.286Z" fill="black"/>
    <path d="M79.972 128.07C83.6714 128.07 86.6703 125.072 86.6703 121.372C86.6703 117.673 83.6714 114.674 79.972 114.674C76.2726 114.674 73.2737 117.673 73.2737 121.372C73.2737 125.072 76.2726 128.07 79.972 128.07Z" fill="#EBEBEB"/>
    <path d="M92.5462 133.869C94.3959 133.869 95.8953 132.37 95.8953 130.52C95.8953 128.67 94.3959 127.171 92.5462 127.171C90.6965 127.171 89.197 128.67 89.197 130.52C89.197 132.37 90.6965 133.869 92.5462 133.869Z" fill="#EBEBEB"/>
    <path d="M88.367 139.722C89.6002 139.722 90.5998 138.723 90.5998 137.49C90.5998 136.256 89.6002 135.257 88.367 135.257C87.1339 135.257 86.1343 136.256 86.1343 137.49C86.1343 138.723 87.1339 139.722 88.367 139.722Z" fill="#EBEBEB"/>
    <path d="M182.559 126.097L188.875 119.782C190.619 118.038 190.619 115.21 188.875 113.466L188.875 113.466C187.131 111.722 184.303 111.722 182.559 113.466L176.244 119.782C174.5 121.526 174.5 124.353 176.244 126.097C177.988 127.841 180.815 127.841 182.559 126.097Z" fill="black"/>
    <path d="M189.688 130.403C189.688 121.155 182.191 113.657 172.942 113.657C163.694 113.657 156.197 121.155 156.197 130.403C156.197 139.652 163.694 147.149 172.942 147.149C182.191 147.149 189.688 139.652 189.688 130.403Z" fill="black" fill-opacity="0.05"/>
    <path d="M189.688 129.287C189.688 120.038 182.191 112.541 172.942 112.541C163.694 112.541 156.197 120.038 156.197 129.287C156.197 138.535 163.694 146.033 172.942 146.033C182.191 146.033 189.688 138.535 189.688 129.287Z" fill="black"/>
    <path fill-rule="evenodd" clip-rule="evenodd" d="M160.331 133.813C162.063 128.419 167.119 124.517 173.088 124.517C178.898 124.517 183.844 128.216 185.701 133.387C183.969 138.78 178.911 142.683 172.943 142.683C167.133 142.683 162.186 138.984 160.331 133.813Z" fill="#784012"/>
    <path fill-rule="evenodd" clip-rule="evenodd" d="M184.431 136.18C185.642 134.166 186.339 131.808 186.339 129.288C186.339 121.889 180.34 115.891 172.942 115.891C165.543 115.891 159.545 121.889 159.545 129.288C159.545 131.906 160.297 134.349 161.596 136.414C163.938 132.516 168.207 129.91 173.085 129.91C177.865 129.91 182.061 132.413 184.431 136.18Z" fill="black" fill-opacity="0.35"/>
    <path d="M180.757 129.287C180.757 124.971 177.258 121.473 172.942 121.473C168.626 121.473 165.127 124.971 165.127 129.287C165.127 133.603 168.626 137.102 172.942 137.102C177.258 137.102 180.757 133.603 180.757 129.287Z" fill="black"/>
    <path d="M169.284 128.07C172.983 128.07 175.982 125.072 175.982 121.372C175.982 117.673 172.983 114.674 169.284 114.674C165.584 114.674 162.585 117.673 162.585 121.372C162.585 125.072 165.584 128.07 169.284 128.07Z" fill="#EBEBEB"/>
    <path d="M181.858 133.87C183.707 133.87 185.207 132.371 185.207 130.521C185.207 128.671 183.707 127.172 181.858 127.172C180.008 127.172 178.509 128.671 178.509 130.521C178.509 132.371 180.008 133.87 181.858 133.87Z" fill="#EBEBEB"/>
    <path d="M177.679 139.722C178.912 139.722 179.912 138.723 179.912 137.49C179.912 136.256 178.912 135.257 177.679 135.257C176.446 135.257 175.446 136.256 175.446 137.49C175.446 138.723 176.446 139.722 177.679 139.722Z" fill="#EBEBEB"/>
  </g>
  <defs>
    <radialGradient id="paint0_radial_81_1464" cx="0" cy="0" r="1" gradientUnits="userSpaceOnUse" gradientTransform="translate(22.4429 23.441) rotate(45) scale(298.395)">
      <stop stop-color="#FFE600"/>
      <stop offset="1" stop-color="#FFA573"/>
    </radialGradient>
    <clipPath id="clip0_81_1464">
      <rect width="256" height="256" fill="#EBEBEB" transform="translate(0.213135 0.5)"/>
    </clipPath>
  </defs>
</svg>
