<svg width="256" height="212" viewBox="0 0 256 212" fill="none"
  xmlns="http://www.w3.org/2000/svg">
  <g clip-path="url(#clip0_20_1412)">
    <path fill-rule="evenodd" clip-rule="evenodd" d="M213.937 15.685L219.328 22.7822C220.743 24.6554 220.389 27.3402 218.516 28.7555L212.792 33.1054C213.833 35.8735 214.499 38.829 214.77 41.8468L221.284 42.7418C223.615 43.054 225.239 45.2185 224.926 47.5496L223.719 56.395C223.407 58.7261 221.242 60.3703 218.911 60.0373L211.793 59.0591C210.524 61.8272 208.9 64.3664 206.986 66.635L210.982 71.8799C212.397 73.753 212.022 76.4379 210.149 77.8532L203.052 83.2437C201.179 84.659 198.494 84.2843 197.079 82.432L192.729 76.7084C189.94 77.7491 187.005 78.4151 183.967 78.6857L183.072 85.2001C182.759 87.5312 180.595 89.1546 178.264 88.8424L169.418 87.6352C167.087 87.323 165.464 85.1585 165.776 82.8274L166.754 75.7094C164.007 74.4398 161.447 72.8164 159.178 70.9225L153.934 74.8977C152.06 76.313 149.375 75.9592 147.96 74.086L142.57 66.9888C141.154 65.1157 141.508 62.4308 143.381 61.0155L149.105 56.6656C148.064 53.8767 147.398 50.9421 147.128 47.9242L140.613 47.0292C138.282 46.717 136.638 44.5525 136.971 42.2215L138.178 33.376C138.511 31.0449 140.655 29.4215 142.986 29.7337L150.104 30.7119C151.374 27.9646 152.997 25.4046 154.891 23.136L150.916 17.8912C149.5 16.0388 149.854 13.354 151.727 11.9387L158.825 6.54814C160.698 5.13287 163.383 5.48669 164.798 7.35985L169.148 13.0834C171.916 12.0428 174.871 11.3767 177.889 11.1062L178.784 4.59173C179.096 2.26069 181.261 0.616466 183.592 0.92866L192.437 2.13581C194.768 2.448 196.413 4.61254 196.08 6.94359L195.101 14.0616C197.87 15.3312 200.409 16.9546 202.698 18.8694L207.943 14.8941C209.816 13.458 212.501 13.8118 213.937 15.685ZM61.7532 140.583V106.242H79.4441C82.7326 106.242 85.2301 106.513 86.9576 107.095C88.6851 107.657 90.1003 108.698 91.141 110.217C92.2024 111.757 92.7436 113.61 92.7436 115.795C92.7436 117.689 92.3273 119.354 91.5156 120.728C90.7039 122.122 89.58 123.246 88.1647 124.099C87.2698 124.641 86.021 125.098 84.4392 125.452C85.7088 125.889 86.6246 126.285 87.1865 126.722C87.582 127.013 88.1439 127.617 88.8724 128.533C89.6008 129.448 90.1003 130.177 90.3501 130.676L95.5117 140.604H83.5235L77.8623 130.135C77.1339 128.782 76.5095 127.887 75.9476 127.492C75.1775 126.972 74.3033 126.701 73.3459 126.701H72.4094V140.604H61.7532V140.583ZM99.1748 200.379H79.3609L76.5095 209.703H58.652L79.9436 153.113H99.0915L120.3 209.703H101.985L99.1748 200.379ZM95.4701 188.12L89.2886 167.765L83.0864 188.12H95.4701ZM124.421 153.113H153.517C159.865 153.113 164.611 154.611 167.753 157.629C170.896 160.647 172.478 164.955 172.478 170.512C172.478 176.236 170.75 180.711 167.316 183.937C163.882 187.163 158.616 188.765 151.561 188.765H141.966V209.703H124.421V153.113ZM141.966 177.297H146.274C149.667 177.297 152.06 176.714 153.434 175.528C154.808 174.363 155.494 172.843 155.494 171.033C155.494 169.263 154.891 167.744 153.705 166.516C152.518 165.288 150.27 164.664 146.982 164.664H141.966V177.297ZM179.554 153.113H197.099V209.703H179.554V153.113ZM72.4094 120.187H76.8841C77.3628 120.187 78.2994 120.02 79.6939 119.708C80.4015 119.562 80.9843 119.208 81.4213 118.626C81.8792 118.043 82.0874 117.377 82.0874 116.628C82.0874 115.525 81.7335 114.65 81.0259 114.068C80.3183 113.464 79.0071 113.173 77.0715 113.173H72.4094V120.187ZM97.5514 106.242H125.961V113.568H108.208V119.042H124.671V126.035H108.208V132.799H126.481V140.562H97.5514V106.242ZM129 129.219L139.073 128.595C139.281 130.239 139.739 131.467 140.405 132.321C141.508 133.694 143.069 134.402 145.088 134.402C146.587 134.402 147.773 134.048 148.585 133.34C149.396 132.633 149.813 131.8 149.813 130.864C149.813 129.969 149.417 129.178 148.647 128.47C147.877 127.763 146.066 127.117 143.215 126.472C138.574 125.431 135.264 124.037 133.266 122.31C131.268 120.582 130.269 118.376 130.269 115.691C130.269 113.922 130.79 112.257 131.809 110.696C132.829 109.135 134.369 107.886 136.43 106.991C138.49 106.096 141.3 105.659 144.88 105.659C149.271 105.659 152.601 106.471 154.912 108.115C157.201 109.759 158.575 112.34 159.012 115.92L149.042 116.524C148.772 114.963 148.21 113.818 147.377 113.131C146.524 112.423 145.338 112.07 143.86 112.07C142.632 112.07 141.696 112.34 141.071 112.86C140.447 113.381 140.135 114.026 140.135 114.775C140.135 115.316 140.405 115.795 140.905 116.253C141.404 116.69 142.57 117.127 144.443 117.523C149.084 118.522 152.414 119.541 154.412 120.561C156.41 121.581 157.888 122.851 158.783 124.37C159.699 125.869 160.157 127.575 160.157 129.448C160.157 131.655 159.553 133.673 158.325 135.526C157.118 137.378 155.411 138.793 153.226 139.751C151.041 140.708 148.293 141.187 144.963 141.187C139.136 141.187 135.077 140.063 132.829 137.815C130.581 135.526 129.312 132.674 129 129.219ZM161.697 106.242H193.978V114.734H183.155V140.583H172.54V114.734H161.697V106.242ZM125.982 24.7386C122.173 24.4472 118.323 24.4889 114.514 24.8635C102.796 25.9874 91.4115 30.254 82.0041 37.5594C71.119 45.9886 62.8562 58.6012 59.6719 75.314L58.6728 80.538L53.4696 81.4538C48.3705 82.3487 43.8124 83.5767 39.8163 85.1377C35.9451 86.6362 32.4902 88.4886 29.4723 90.6739C27.058 92.4222 24.9768 94.3786 23.2077 96.5015C17.7339 103.058 15.1947 111.279 15.2571 119.604C15.3196 128.054 18.0669 136.587 23.1452 143.601C25.0392 146.203 27.2245 148.596 29.7221 150.678C32.2613 152.78 35.1126 154.528 38.3178 155.839C40.1285 156.588 42.0641 157.213 44.083 157.712V173.301C39.9204 172.552 36.0908 171.428 32.511 169.95C27.7865 167.994 23.6031 165.475 19.9192 162.395C16.4226 159.481 13.3631 156.172 10.7615 152.571C3.83084 142.998 0.0845164 131.301 0.00126477 119.645C-0.0819868 107.865 3.58108 96.1477 11.49 86.657C14.05 83.5767 17.0678 80.7461 20.5228 78.2486C24.5397 75.3348 29.1393 72.8789 34.3426 70.86C37.9224 69.4656 41.752 68.3 45.7897 67.3635C50.3685 49.173 60.1297 35.1659 72.6799 25.4463C84.4184 16.351 98.5504 11.0437 113.099 9.64927C120.737 8.92082 128.479 9.25382 136.055 10.6691C135.889 11.3559 135.743 12.0428 135.66 12.7504L135.639 12.8753C135.493 14.0616 135.431 15.2479 135.493 16.4551C133.891 17.0795 132.392 17.9328 131.039 18.9734L130.977 19.0151C128.958 20.5344 127.251 22.4908 125.982 24.7386ZM236.103 64.6994C237.268 65.7609 238.392 66.8639 239.495 68.0503C241.722 70.4438 243.824 73.1494 245.802 76.1673C252.462 86.4073 255.875 100.081 255.729 113.464C255.584 126.597 252.046 139.667 244.803 149.283C240.078 155.548 234.022 160.668 226.758 164.726C221.784 167.515 216.185 169.825 210.087 171.699V155.569C213.375 154.341 216.435 152.967 219.244 151.406C224.718 148.346 229.193 144.621 232.544 140.146C237.747 133.215 240.307 123.413 240.411 113.36C240.536 102.808 237.955 92.2141 232.939 84.5133C231.503 82.2863 229.921 80.2883 228.256 78.4984C227.611 77.8115 226.966 77.1663 226.3 76.5419C226.404 75.5013 226.446 74.4398 226.383 73.3784C227.986 72.754 229.484 71.9007 230.837 70.86L230.9 70.8184C233.043 69.1742 234.833 67.0929 236.103 64.6994ZM183.321 27.5276C192.916 28.8388 199.618 37.6842 198.307 47.279C196.995 56.8737 188.15 63.5963 178.555 62.2851C168.96 60.9739 162.238 52.1284 163.57 42.5337C164.902 32.9389 173.727 26.2163 183.321 27.5276Z" fill="#EBEBEB"/>
  </g>
  <defs>
    <clipPath id="clip0_20_1412">
      <rect width="256" height="210.21" fill="#EBEBEB" transform="translate(0 0.886719)"/>
    </clipPath>
  </defs>
</svg>
