<svg xmlns="http://www.w3.org/2000/svg" width="257" height="227" fill="none" viewBox="0 0 257 227">
  <g clip-path="url(#a)">
    <path fill="#034947" d="M161.818 149.699h-17.553l-1.468-1.466v-41.089c0-7.311-2.871-12.977-11.687-13.175-4.537-.12-9.727 0-15.275.22l-.832.85v53.174l-1.465 1.466H95.983l-1.466-1.466v-70.19l1.466-1.466h39.503c15.353 0 27.796 12.439 27.796 27.793v43.883z"/>
    <path fill="#05bdbb" d="M118.785 224.287v-52.656l1.466-1.468h17.592l1.466 1.466v52.658l-1.466 1.465h-17.59zm0-169.663V1.968L120.251.5h17.592l1.466 1.466v52.658l-1.466 1.466h-17.59zm136.659 68.764h-70.21l-1.466-1.465v-17.591l1.466-1.466h70.21l1.466 1.466v17.593zm-182.857 0H2.376L.91 121.923v-17.591l1.466-1.466h70.21l1.466 1.466v17.593zm-16.98-71.26V49.71l12.068-12.065h2.416L88.535 56.09v12.779l-1.704 1.704H74.052zm14.484 136.459h-2.416L55.61 176.522v-2.418l18.444-18.442h12.78l1.701 1.702v12.779z"/>
  </g>
  <defs>
    <clipPath id="a">
      <path fill="#ebebeb" d="M.91.5h256v226H.91z"/>
    </clipPath>
  </defs>
</svg>
