<svg xmlns="http://www.w3.org/2000/svg" width="257" height="254" fill="none" viewBox="0 0 257 254"><g fill-rule="evenodd" clip-path="url(#a)" clip-rule="evenodd"><path fill="#f7f7f7" d="M100.521 93.66c-2.982 0-5.219 2.237-5.219 5.22v57.662c0 2.983 2.237 5.22 5.219 5.22h57.663c2.982 0 5.219-2.237 5.219-5.22V98.88c0-2.983-2.237-5.22-5.219-5.22zM59.015 52.403c-2.734 0-4.723 2.237-4.723 4.723V197.8c0 2.734 2.237 4.723 4.723 4.723H199.69c2.734 0 4.723-2.237 4.723-4.723V57.125c0-2.734-2.237-4.723-4.723-4.723z"/><path fill="url(#b)" d="M2.595 129.946v91.464c0 6.214 1.74 11.93 4.722 16.652l33.057-33.056v-75.06zM17.756 248.75l32.808-32.808h72.823v37.779H34.906c-6.214 0-12.179-1.989-17.15-4.971m120.047 4.971h85.25c17.896 0 32.311-14.416 32.311-32.311V33.014c0-17.895-14.415-32.31-32.311-32.31h-91.215v37.778h75.309c5.965 0 10.687 4.722 10.687 10.687v156.086c0 5.965-4.722 10.687-10.687 10.687h-69.344z"/></g><defs><linearGradient id="b" x1="217.039" x2="92.583" y1="94.576" y2="218.184" gradientUnits="userSpaceOnUse"><stop stop-color="#0096ff"/><stop offset="1" stop-color="#ff1e56"/></linearGradient><clipPath id="a"><path fill="#ebebeb" d="M.344.242h256v253.515h-256z"/></clipPath></defs></svg>
