<svg xmlns="http://www.w3.org/2000/svg" width="226" height="256" fill="none" viewBox="0 0 226 256"><g clip-path="url(#a)"><path fill="#ebebeb" d="M209.82 52.162 129.183 4.287a30.37 30.37 0 0 0-31.114 0L17.416 52.162a32.17 32.17 0 0 0-15.55 27.707v95.734a32.16 32.16 0 0 0 15.55 27.691l80.637 47.859a30.39 30.39 0 0 0 31.114 0l80.637-47.859a32.16 32.16 0 0 0 15.565-27.707V79.869a32.16 32.16 0 0 0-15.549-27.707"/><path fill="#2f3a3e" d="m210.278 52.277-80.814-47.98a30.44 30.44 0 0 0-31.183 0l-80.83 47.98A32.24 32.24 0 0 0 1.867 80.045v95.945a32.24 32.24 0 0 0 15.584 27.752l80.813 47.964a30.46 30.46 0 0 0 31.184 0l80.814-47.964a32.24 32.24 0 0 0 15.6-27.769V80.045a32.24 32.24 0 0 0-15.584-27.768M101.096 246.803l-80.814-47.964A26.6 26.6 0 0 1 7.466 175.99V80.045a26.59 26.59 0 0 1 12.816-22.849l80.814-47.98a24.92 24.92 0 0 1 25.536 0l80.749 47.98a26.42 26.42 0 0 1 12.412 18.48c-2.686-5.712-8.722-7.282-15.762-3.236l-76.396 47.316c-9.531 5.551-16.554 11.813-16.57 23.303v94.213c0 6.877 2.767 11.327 7.039 12.638a25 25 0 0 1-4.24.405 25.05 25.05 0 0 1-12.768-3.512"/><path fill="#3ab14a" d="m188.873 185.06-20.086 12.013a1.47 1.47 0 0 0-.92 1.308v5.279c0 .646.436.905.968.598l20.394-12.401a1.61 1.61 0 0 0 .613-1.614v-4.634c-.016-.598-.484-.856-.969-.549"/><path fill="#ebebeb" d="M146.129 140.832c.646-.323 1.179 0 1.195.92l.065 7.008a12.9 12.9 0 0 1 7.718-.937c.5.13.71.808.516 1.615l-1.533 6.152a2.66 2.66 0 0 1-.695 1.227 1.7 1.7 0 0 1-.403.291.93.93 0 0 1-.598.097 10.23 10.23 0 0 0-7.443 1.194 9.35 9.35 0 0 0-5.506 8.284c0 3.229 1.614 4.117 7.249 4.214 7.444.129 10.673 3.375 10.754 10.883a26.69 26.69 0 0 1-9.882 20.135l.129 6.878a2.52 2.52 0 0 1-1.178 2.099l-4.069 2.341c-.646.323-1.179 0-1.195-.904v-6.765c-3.488 1.453-7.024 1.792-9.284.888-.42-.162-.614-.791-.436-1.518l1.469-6.216c.112-.492.364-.941.727-1.292a1.6 1.6 0 0 1 .387-.275.81.81 0 0 1 .662 0c2.879.781 5.949.392 8.542-1.082a11.17 11.17 0 0 0 6.313-9.687c0-3.488-1.921-4.941-6.459-4.974-5.861 0-11.302-1.13-11.415-9.688a25.03 25.03 0 0 1 9.462-19.15l-.291-7.039a2.5 2.5 0 0 1 1.179-2.132z"/></g><defs><clipPath id="a"><path fill="#ebebeb" d="M.932 0h225v256h-225z"/></clipPath></defs></svg>
