<svg xmlns="http://www.w3.org/2000/svg" width="256" height="234" fill="none" viewBox="0 0 256 234"><g clip-path="url(#a)"><path fill="#fcc72b" d="m191.895 71.38-60.963 88.144a5.24 5.24 0 0 1-2.662 1.994 5.27 5.27 0 0 1-3.329-.005 5.196 5.196 0 0 1-3.55-5.192l2.44-48.665-39.389-8.353a5.24 5.24 0 0 1-2.283-1.113 5.2 5.2 0 0 1-1.822-4.564 5.2 5.2 0 0 1 .891-2.373l60.964-88.144a5.26 5.26 0 0 1 5.992-1.988 5.22 5.22 0 0 1 2.65 2.003c.641.937.956 2.057.899 3.19l-2.44 48.665 39.388 8.352a5.24 5.24 0 0 1 2.284 1.113 5.19 5.19 0 0 1 1.822 4.564 5.2 5.2 0 0 1-.892 2.373"/><path fill="#729b1b" d="M128.054 233.475a12.3 12.3 0 0 1-8.729-3.615l-57.603-57.599a12.34 12.34 0 0 1 .023-17.431 12.35 12.35 0 0 1 8.712-3.617 12.35 12.35 0 0 1 8.72 3.592l48.877 48.871L234.531 97.204a12.34 12.34 0 0 1 17.383.07 12.34 12.34 0 0 1 .071 17.385L136.78 229.86a12.3 12.3 0 0 1-8.726 3.615"/><path fill="#729b1b" fill-opacity=".5" d="M128.004 233.475a12.3 12.3 0 0 0 8.729-3.615l57.603-57.599a12.34 12.34 0 0 0 3.591-8.719 12.34 12.34 0 0 0-3.615-8.712 12.35 12.35 0 0 0-8.711-3.617 12.36 12.36 0 0 0-8.722 3.592l-48.875 48.871L21.528 97.204a12.343 12.343 0 0 0-17.456 17.455L119.277 229.86a12.3 12.3 0 0 0 8.727 3.615"/></g><defs><clipPath id="a"><path fill="#ebebeb" d="M0 .455h256v233.09H0z"/></clipPath></defs></svg>
