<svg width="207" height="256" viewBox="0 0 207 256" fill="none" xmlns="http://www.w3.org/2000/svg">
<mask id="mask0_18_1563" style="mask-type:luminance" maskUnits="userSpaceOnUse" x="0" y="0" width="207" height="256">
<path d="M206.731 118.128L137.82 187.063L206.731 255.998H127.987L59.0518 187.063L127.987 118.128H206.731ZM127.987 0L0 127.987L39.3843 167.371L206.731 0H127.987Z" fill="white"/>
</mask>
<g mask="url(#mask0_18_1563)">
<path d="M59.0764 187.064L98.4361 226.448L206.731 118.129H127.987L59.0764 187.064Z" fill="#39CEFD"/>
</g>
<mask id="mask1_18_1563" style="mask-type:luminance" maskUnits="userSpaceOnUse" x="0" y="0" width="207" height="256">
<path d="M206.731 118.128L137.82 187.063L206.731 255.998H127.987L59.0518 187.063L127.987 118.128H206.731ZM127.987 0L0 127.987L39.3843 167.371L206.731 0H127.987Z" fill="white"/>
</mask>
<g mask="url(#mask1_18_1563)">
<path d="M127.987 0H206.731L39.3843 167.371L0 127.987L127.987 0Z" fill="#39CEFD"/>
</g>
<mask id="mask2_18_1563" style="mask-type:luminance" maskUnits="userSpaceOnUse" x="0" y="0" width="207" height="256">
<path d="M206.731 118.128L137.82 187.063L206.731 255.998H127.987L59.0518 187.063L127.987 118.128H206.731ZM127.987 0L0 127.987L39.3843 167.371L206.731 0H127.987Z" fill="white"/>
</mask>
<g mask="url(#mask2_18_1563)">
<path d="M98.436 226.447L127.987 255.973H206.731L137.82 187.062L98.436 226.447Z" fill="#03569B"/>
</g>
<mask id="mask3_18_1563" style="mask-type:luminance" maskUnits="userSpaceOnUse" x="0" y="0" width="207" height="256">
<path d="M206.731 118.128L137.82 187.063L206.731 255.998H127.987L59.0518 187.063L127.987 118.128H206.731ZM127.987 0L0 127.987L39.3843 167.371L206.731 0H127.987Z" fill="white"/>
</mask>
<g mask="url(#mask3_18_1563)">
<path d="M156.847 206.212L137.82 187.062L98.436 226.447L156.847 206.212Z" fill="url(#paint0_linear_18_1563)"/>
</g>
<mask id="mask4_18_1563" style="mask-type:luminance" maskUnits="userSpaceOnUse" x="0" y="0" width="207" height="256">
<path d="M206.731 118.128L137.82 187.063L206.731 255.998H127.987L59.0518 187.063L127.987 118.128H206.731ZM127.987 0L0 127.987L39.3843 167.371L206.731 0H127.987Z" fill="white"/>
</mask>
<g mask="url(#mask4_18_1563)">
<path d="M59.072 187.05L98.4573 147.664L137.845 187.05L98.4573 226.435L59.072 187.05Z" fill="#16B9FD"/>
</g>
<path d="M206.731 118.128L137.82 187.063L206.731 255.998H127.987L59.0518 187.063L127.987 118.128H206.731ZM127.987 0L0 127.987L39.3843 167.371L206.731 0H127.987Z" fill="url(#paint1_radial_18_1563)"/>
<defs>
<linearGradient id="paint0_linear_18_1563" x1="109.93" y1="234.047" x2="139.262" y2="204.715" gradientUnits="userSpaceOnUse">
<stop stop-color="#1A237E" stop-opacity="0.4"/>
<stop offset="1" stop-color="#1A237E" stop-opacity="0"/>
</linearGradient>
<radialGradient id="paint1_radial_18_1563" cx="0" cy="0" r="1" gradientUnits="userSpaceOnUse" gradientTransform="translate(5.80777 17.4481) scale(313.182 313.182)">
<stop stop-color="white" stop-opacity="0.1"/>
<stop offset="1" stop-color="white" stop-opacity="0"/>
</radialGradient>
</defs>
</svg>
