<svg width="256" height="256" viewBox="0 0 256 256" fill="none" xmlns="http://www.w3.org/2000/svg">
<g clip-path="url(#clip0_18_1022)">
<mask id="mask0_18_1022" style="mask-type:luminance" maskUnits="userSpaceOnUse" x="0" y="0" width="256" height="256">
<path d="M0 0H256V256H0V0Z" fill="white"/>
</mask>
<g mask="url(#mask0_18_1022)">
<path d="M0 0H256V256H0V0Z" stroke="white" stroke-width="6.44025"/>
</g>
<path fill-rule="evenodd" clip-rule="evenodd" d="M35.65 184.687C32.0853 184.687 29.7379 186.6 29.7379 189.15C29.7379 191.411 31.129 192.918 34.2879 193.787C37.157 194.599 37.7656 195.004 37.7656 196.28C37.7656 197.439 36.6933 198.134 35.0414 198.134C33.4764 198.134 32.0564 197.526 30.8681 196.627L29.0133 198.714C30.4334 199.989 32.4911 200.888 35.1284 200.888C38.6351 200.888 41.5912 199.207 41.5912 196.019C41.5912 193.295 39.8233 192.019 36.6933 191.179C34.085 190.454 33.4764 189.991 33.4764 188.976C33.4764 188.049 34.3169 187.44 35.7949 187.44C37.157 187.44 38.3742 187.875 39.6494 188.687L41.0985 186.513C39.6494 185.383 37.8526 184.687 35.65 184.687ZM52.0823 197.352L53.3865 199.728C52.2852 200.511 50.8941 200.888 49.532 200.888C46.5179 200.859 44.924 199.149 44.924 195.874V187.788H42.5185V185.122H44.924V181.731L48.6336 181.296V185.122H52.1982L51.8215 187.788H48.6336V195.787C48.6336 197.294 49.1262 197.903 50.2565 197.903C50.8361 197.903 51.4158 197.729 52.0823 197.352ZM67.877 185.122L62.8923 200.511C61.733 204.105 59.4725 206.423 54.9225 206.771L54.5457 204.076C57.5887 203.612 58.5741 202.626 59.4435 200.453H58.1684L53.2995 185.122H57.241L60.5738 197.989L64.0515 185.122H67.877ZM73.7602 200.888C74.6088 200.888 75.4479 200.71 76.2236 200.366L75.4411 197.758C75.1803 197.845 74.9195 197.903 74.5717 197.903C73.9631 197.903 73.7022 197.555 73.7022 196.83V178.572L69.9927 178.978V196.946C69.9927 199.468 71.4127 200.888 73.7602 200.888ZM91.2648 192.425C91.2648 192.918 91.2069 193.526 91.1779 193.932H81.5561C81.817 197.062 83.295 198.076 85.3237 198.076C86.6858 198.076 87.8161 197.642 89.1492 196.714L90.6852 198.83C89.1782 200.047 87.3234 200.888 85.0049 200.888C80.252 200.888 77.7016 197.729 77.7016 192.889C77.7016 188.223 80.165 184.687 84.5122 184.687C88.8014 184.687 91.2648 187.585 91.2648 192.425ZM87.5842 191.527V191.353C87.5842 188.831 86.6858 187.324 84.5991 187.324C82.8603 187.324 81.759 188.484 81.5561 191.527H87.5842ZM103.785 178.572L107.494 178.978V200.453H104.219L103.959 198.511C103.031 199.902 101.553 200.888 99.5824 200.888C95.7569 200.888 93.7572 197.671 93.7572 192.802C93.7572 188.078 96.1336 184.687 99.9302 184.687C101.553 184.687 102.828 185.383 103.785 186.339V178.572ZM100.626 198.076C101.988 198.076 102.915 197.41 103.785 196.106V189.092C102.973 188.107 102.104 187.469 100.858 187.469C98.9448 187.469 97.6696 189.092 97.6696 192.773C97.6696 196.714 98.7999 198.076 100.626 198.076ZM35.7756 213.668C31.3705 213.668 28.6173 217.001 28.6173 221.899C28.6173 226.797 31.3705 229.869 35.8046 229.869C37.7753 229.869 39.3693 229.231 40.7604 228.101L39.1084 225.753C37.9782 226.478 37.1667 226.855 36.0075 226.855C33.9208 226.855 32.5587 225.551 32.5587 221.841C32.5587 218.16 33.8628 216.595 36.0075 216.595C37.1667 216.595 38.0941 216.943 39.1084 217.697L40.7604 215.465C39.3113 214.219 37.7753 213.668 35.7756 213.668ZM49.7155 213.668C54.2366 213.668 56.9028 216.74 56.9028 221.754C56.9028 226.594 54.2076 229.869 49.6865 229.869C45.1655 229.869 42.4702 226.797 42.4702 221.754C42.4702 216.943 45.1655 213.668 49.7155 213.668ZM49.7155 216.479C47.5419 216.479 46.3827 218.131 46.3827 221.754C46.3827 225.435 47.513 227.058 49.6865 227.058C51.8601 227.058 52.9904 225.406 52.9904 221.754C52.9904 218.102 51.8601 216.479 49.7155 216.479ZM76.639 213.668C74.6103 213.668 73.1902 214.654 72.031 216.248C71.4514 214.625 70.1182 213.668 68.3214 213.668C66.3797 213.668 64.9886 214.567 63.8873 216.103L63.5975 214.103H60.3806V229.434H64.0902V218.769C64.9306 217.349 65.7131 216.45 67.0173 216.45C67.9157 216.45 68.6982 217.001 68.6982 218.914V229.434H72.4078V218.769C73.2482 217.349 74.0307 216.45 75.3059 216.45C76.2333 216.45 76.9868 217.001 76.9868 218.914V229.434H80.6964V218.334C80.6964 215.436 79.0734 213.668 76.639 213.668ZM92.9554 213.668C96.9548 213.668 98.6357 216.827 98.6357 221.725C98.6357 226.42 96.4621 229.869 92.5786 229.869C91.0136 229.869 89.6805 229.318 88.7241 228.188V235.346L85.0145 235.752V214.103H88.2604L88.4633 215.987C89.6805 214.393 91.3035 213.668 92.9554 213.668ZM91.5353 227.029C93.564 227.029 94.7522 225.464 94.7522 221.754C94.7522 217.871 93.7089 216.45 91.8541 216.45C90.5499 216.45 89.4487 217.349 88.7241 218.537V225.435C89.4487 226.507 90.3761 227.029 91.5353 227.029ZM108.547 213.668C113.068 213.668 115.735 216.74 115.735 221.754C115.735 226.594 113.039 229.869 108.518 229.869C103.997 229.869 101.302 226.797 101.302 221.754C101.302 216.943 103.997 213.668 108.547 213.668ZM108.547 216.479C106.374 216.479 105.214 218.131 105.214 221.754C105.214 225.435 106.345 227.058 108.518 227.058C110.692 227.058 111.822 225.406 111.822 221.754C111.822 218.102 110.692 216.479 108.547 216.479ZM127.385 213.668C125.443 213.668 123.907 214.567 122.719 216.103L122.429 214.103H119.212V229.434H122.922V218.769C123.82 217.349 124.806 216.45 126.139 216.45C127.298 216.45 128.023 217.001 128.023 218.914V229.434H131.732V218.334C131.732 215.407 130.138 213.668 127.385 213.668ZM148.628 221.406C148.628 221.899 148.57 222.508 148.541 222.913H138.919C139.18 226.043 140.658 227.058 142.687 227.058C144.049 227.058 145.179 226.623 146.513 225.695L148.049 227.811C146.541 229.028 144.687 229.869 142.368 229.869C137.615 229.869 135.065 226.71 135.065 221.87C135.065 217.204 137.528 213.668 141.876 213.668C146.165 213.668 148.628 216.566 148.628 221.406ZM144.948 220.508V220.334C144.948 217.813 144.049 216.306 141.962 216.306C140.224 216.306 139.122 217.465 138.919 220.508H144.948ZM160.134 213.668C158.192 213.668 156.656 214.567 155.468 216.103L155.178 214.103H151.961V229.434H155.671V218.769C156.569 217.349 157.554 216.45 158.887 216.45C160.047 216.45 160.771 217.001 160.771 218.914V229.434H164.481V218.334C164.481 215.407 162.887 213.668 160.134 213.668ZM176.276 226.333C175.61 226.71 175.03 226.884 174.45 226.884C173.32 226.884 172.827 226.275 172.827 224.768V216.769H176.015L176.392 214.103H172.827V210.277L169.118 210.712V214.103H166.712V216.769H169.118V224.855C169.118 228.13 170.712 229.84 173.726 229.869C175.088 229.869 176.479 229.492 177.58 228.709L176.276 226.333ZM184.507 213.668C180.942 213.668 178.595 215.581 178.595 218.131C178.595 220.392 179.986 221.899 183.145 222.768C186.014 223.58 186.622 223.986 186.622 225.261C186.622 226.42 185.55 227.116 183.898 227.116C182.333 227.116 180.913 226.507 179.725 225.608L177.87 227.695C179.29 228.97 181.348 229.869 183.985 229.869C187.492 229.869 190.448 228.188 190.448 225C190.448 222.276 188.68 221.001 185.55 220.16C182.942 219.436 182.333 218.972 182.333 217.957C182.333 217.03 183.174 216.421 184.652 216.421C186.014 216.421 187.231 216.856 188.506 217.668L189.955 215.494C188.506 214.364 186.709 213.668 184.507 213.668ZM64.2415 70.1988L35.0994 88.312L64.2415 106.747L61.2629 110.45L30.9132 91.4516V85.0919L61.5849 66.0931M213.977 84.3673V90.6466L183.628 109.645L180.649 105.701L209.711 87.507L180.649 69.2327L183.225 65.2881" fill="white"/>
</g>
<defs>
<clipPath id="clip0_18_1022">
<rect width="256" height="256" fill="white"/>
</clipPath>
</defs>
</svg>
