<svg width="258" height="94" viewBox="0 0 258 94" fill="none" xmlns="http://www.w3.org/2000/svg">
<g clip-path="url(#clip0_18_1160)">
<path d="M76.0234 43.9111V43.9518L72.655 58.5689C72.4733 59.3961 71.6461 60.004 70.6935 60.004H66.6233C66.477 60.0044 66.3347 60.0519 66.2173 60.1393C66.1 60.2267 66.0139 60.3496 65.9716 60.4896C62.2178 73.2236 57.1355 81.9781 50.4239 87.2328C44.7149 91.7072 37.6774 93.7909 28.2743 93.7909C19.8268 93.7909 14.1303 91.0742 9.29871 85.7131C2.91608 78.6192 0.277797 67.0195 1.8758 53.0385C4.75535 26.7905 18.3697 0.304273 44.5833 0.304273C52.5577 0.232206 58.8181 2.69189 63.1735 7.60498C67.7795 12.7969 70.117 20.6209 70.1295 30.8576C70.1181 31.3064 69.9319 31.7331 69.6106 32.0468C69.2894 32.3605 68.8583 32.5364 68.4093 32.537H49.2019C48.8653 32.5267 48.5455 32.3878 48.3083 32.1488C48.0711 31.9098 47.9345 31.589 47.9266 31.2524C47.77 24.1741 45.6706 20.7243 41.497 20.7243C34.1336 20.7243 29.7908 30.7197 27.4878 36.2626C24.2698 44.002 22.6311 52.4056 22.9538 60.7779C23.1074 64.6758 23.734 70.1591 27.4345 72.4277C30.7151 74.4424 35.3964 73.1076 38.232 70.8767C41.0646 68.6489 43.3457 64.7917 44.3045 61.273C44.4392 60.7842 44.4486 60.405 44.3201 60.2327C44.1854 60.0604 43.8125 60.0196 43.5274 60.0196H38.5955C38.3345 60.0204 38.0764 59.9642 37.8393 59.8549C37.6023 59.7456 37.392 59.5858 37.2231 59.3867C37.0935 59.2313 37.0015 59.0481 36.9543 58.8514C36.907 58.6547 36.9057 58.4497 36.9505 58.2524L40.322 43.6072C40.4881 42.8551 41.168 42.2911 42.0046 42.1877V42.1533H74.3721C74.4473 42.1533 74.5256 42.1533 74.5977 42.1689C75.4374 42.2755 76.0296 43.0588 76.014 43.9111H76.0234Z" fill="#0AE448"/>
<path d="M131.747 27.1054C131.733 27.5515 131.546 27.9747 131.225 28.2853C130.905 28.5959 130.476 28.7694 130.03 28.7692H112.339C111.18 28.7692 110.211 27.8292 110.211 26.6855C110.211 21.5218 108.425 19.0088 104.772 19.0088C101.118 19.0088 98.7621 21.2555 98.6932 25.1753C98.6148 29.5463 101.087 33.5162 108.125 40.3407C117.39 49.0326 121.103 56.7344 120.924 66.9115C120.633 83.3647 109.444 94.0024 92.4171 94.0024C83.722 94.0024 77.0793 91.6743 72.6613 87.0871C68.1775 82.4309 66.122 75.594 66.5513 66.7673C66.5659 66.3212 66.7537 65.8984 67.0748 65.5884C67.3959 65.2784 67.8251 65.1056 68.2715 65.1067H86.5702C86.8254 65.1111 87.0763 65.1722 87.305 65.2854C87.5337 65.3987 87.7343 65.5613 87.8925 65.7615C88.0308 65.9266 88.132 66.1195 88.1893 66.3271C88.2466 66.5346 88.2586 66.7521 88.2246 66.9647C88.021 70.1482 88.5756 72.5264 89.8289 73.8424C90.631 74.6947 91.7497 75.1271 93.144 75.1271C96.5249 75.1271 98.5052 72.7364 98.5804 68.5784C98.643 64.9813 97.5056 61.826 91.3078 55.4497C83.3021 47.6288 76.1236 39.5479 76.3461 26.8422C76.4777 19.4757 79.4043 12.7359 84.59 7.86666C90.0733 2.7217 97.5714 0.00195312 106.276 0.00195312C114.996 0.0646201 121.604 2.54937 125.919 7.39352C130.005 11.987 131.972 18.6172 131.753 27.1023L131.747 27.1054Z" fill="#0AE448"/>
<path d="M186.587 90.9076L186.703 3.38692C186.706 3.16774 186.665 2.95009 186.584 2.74678C186.502 2.54347 186.38 2.35859 186.225 2.203C186.071 2.04741 185.887 1.92426 185.684 1.84077C185.482 1.75728 185.264 1.71515 185.045 1.71685H157.666C156.745 1.71685 156.34 2.50645 156.077 3.03285L116.434 90.3749V90.3906L116.418 90.4094C115.98 91.4842 116.813 92.6341 117.976 92.6341H137.114C138.148 92.6341 138.831 92.3207 139.17 91.669L142.97 82.5353C143.437 81.3196 143.525 81.2068 144.854 81.2068H163.14C164.412 81.2068 164.44 81.2318 164.418 82.4758L164.008 90.9671C164.005 91.1861 164.046 91.4034 164.128 91.6063C164.21 91.8093 164.332 91.9938 164.486 92.149C164.641 92.3043 164.824 92.4272 165.027 92.5104C165.229 92.5937 165.446 92.6358 165.665 92.6341H184.998C185.237 92.6372 185.475 92.5878 185.693 92.4893C185.911 92.3907 186.105 92.2455 186.261 92.0638C186.395 91.9061 186.494 91.721 186.551 91.5214C186.607 91.3219 186.619 91.1124 186.587 90.9076ZM152.715 61.686C152.537 61.686 152.396 61.6829 152.283 61.6703C152.216 61.6652 152.151 61.6454 152.092 61.6124C152.034 61.5794 151.984 61.5339 151.945 61.4791C151.906 61.4244 151.879 61.3618 151.868 61.2957C151.856 61.2297 151.858 61.1618 151.875 61.0969C151.913 60.9685 151.966 60.7993 152.042 60.5862L165.756 26.6614C165.875 26.3262 166.026 25.9972 166.182 25.6776C166.405 25.2232 166.674 25.1919 166.759 25.5303C166.831 25.8123 165.186 60.3669 165.186 60.3669C165.057 61.6609 164.998 61.7142 163.723 61.8207L152.728 61.6923H152.703L152.715 61.686Z" fill="#0AE448"/>
<path d="M225.594 1.71643H211.058C210.29 1.71643 209.429 2.12377 209.225 3.0387L188.999 90.8633C188.955 91.0619 188.956 91.268 189.004 91.4658C189.052 91.6636 189.144 91.8477 189.275 92.0039C189.443 92.2025 189.653 92.3621 189.89 92.4714C190.126 92.5807 190.384 92.6372 190.644 92.6368H208.811C209.786 92.6368 210.456 92.1574 210.638 91.3271C210.638 91.3271 212.841 81.4006 212.844 81.3693C213.001 80.5954 212.731 79.9937 212.036 79.6303C211.707 79.4611 211.381 79.2919 211.058 79.1195L207.909 77.4839L204.776 75.8483L203.563 75.2185C203.465 75.1689 203.383 75.0926 203.326 74.9983C203.27 74.9041 203.241 74.7957 203.243 74.6859C203.247 74.5238 203.315 74.3696 203.43 74.2561C203.546 74.1426 203.702 74.0788 203.864 74.078L213.822 74.1219C216.798 74.1375 219.778 73.9276 222.708 73.3886C243.325 69.5816 257.018 53.0689 257.413 30.5996C257.748 11.4235 247.044 1.70703 225.609 1.70703L225.594 1.71643ZM220.646 53.9807H220.257C219.386 53.9807 219.23 53.8867 219.202 53.8554C219.189 53.8334 224.945 28.5598 224.948 28.5254C225.095 27.7953 225.089 27.3754 224.638 27.1279C224.061 26.8083 215.658 22.3777 215.658 22.3777C215.56 22.3266 215.478 22.249 215.422 22.1537C215.366 22.0584 215.338 21.9493 215.341 21.8388C215.345 21.6778 215.412 21.5248 215.527 21.4124C215.643 21.3 215.797 21.2371 215.959 21.2372H229.247C233.383 21.3625 235.689 25.063 235.58 31.3798C235.388 42.3215 230.187 53.5953 220.646 53.9838V53.9807Z" fill="#0AE448"/>
</g>
<defs>
<clipPath id="clip0_18_1160">
<rect width="257" height="94.0005" fill="white" transform="translate(0.5 0.00195312)"/>
</clipPath>
</defs>
</svg>
