<svg width="215" height="256" viewBox="0 0 215 256" fill="none"
  xmlns="http://www.w3.org/2000/svg">
  <g clip-path="url(#clip0_74_1100)">
    <path d="M200.658 34.0779C189.368 17.7007 172.266 6.2589 152.843 2.08828C133.421 -2.08234 113.142 1.33274 96.1463 11.6363L36.4254 49.0389C28.4164 54.0987 21.5499 60.7782 16.2652 68.6501C10.9805 76.5219 7.39408 85.4126 5.73547 94.7532C2.96523 110.668 5.59333 127.055 13.2006 141.299C7.86916 149.049 4.19771 157.822 2.41764 167.065C0.775547 176.579 1.02954 186.325 3.16496 195.74C5.30039 205.155 9.27499 214.054 14.8595 221.922C38.9138 256 85.3634 265.974 119.371 244.364L179.092 206.13C187.101 201.07 193.968 194.391 199.252 186.519C204.537 178.647 208.123 169.756 209.782 160.416C212.363 144.769 209.74 128.707 202.317 114.701C207.648 106.951 211.32 98.1778 213.1 88.935C214.742 79.4209 214.488 69.6752 212.352 60.2599C210.217 50.8446 206.242 41.9462 200.658 34.0779Z" fill="#FF3E00"/>
    <path d="M90.34 225.247C71.2625 230.234 50.526 222.753 39.7431 206.13C36.3577 201.363 33.954 195.967 32.6723 190.259C31.3906 184.551 31.2565 178.644 32.278 172.883C32.4532 171.206 32.7302 169.54 33.1074 167.896L34.7663 164.571L38.0842 166.234C45.1055 171.414 52.9608 175.349 61.309 177.87L62.9679 178.701V181.195C62.8466 184.166 63.7227 187.093 65.4562 189.507C67.0619 191.88 69.35 193.707 72.0168 194.747C74.6835 195.786 77.6027 195.987 80.3865 195.325C81.8527 195.009 83.255 194.447 84.5338 193.662L143.425 156.26C144.92 155.36 146.21 154.154 147.21 152.723C148.21 151.291 148.899 149.664 149.231 147.948C149.498 146.203 149.415 144.423 148.988 142.71C148.561 140.998 147.798 139.388 146.743 137.974C145.137 135.601 142.849 133.773 140.183 132.734C137.516 131.695 134.597 131.493 131.813 132.156C130.635 132.552 129.518 133.111 128.495 133.818L105.27 147.948C101.715 150.464 97.7994 152.425 93.6578 153.766C74.5803 158.753 53.8438 150.442 43.0609 134.649C39.6756 129.882 37.2719 124.487 35.9902 118.779C34.7084 113.07 34.5744 107.163 35.5958 101.403C36.5618 95.8088 38.6841 90.4791 41.8267 85.7556C44.9692 81.0321 49.0625 77.0191 53.8438 73.9741L113.565 35.7403C117.17 33.5158 121.083 31.8355 125.177 30.7533C144.255 25.7663 164.991 33.2468 175.774 49.039C179.159 53.8062 181.563 59.2015 182.845 64.9097C184.127 70.618 184.261 76.525 183.239 82.2858C183.097 84.2421 182.82 86.1861 182.41 88.104L180.751 91.4286L177.433 88.9351C170.412 83.7553 162.556 79.8195 154.208 77.2988H152.549V74.8052C152.868 71.5548 151.983 68.3004 150.061 65.6624C148.455 63.2892 146.167 61.4616 143.5 60.4224C140.834 59.3832 137.914 59.1816 135.131 59.8442C133.664 60.1595 132.262 60.7216 130.983 61.5065L72.0919 99.7403C70.5968 100.641 69.3072 101.846 68.3069 103.278C67.3066 104.709 66.618 106.336 66.2857 108.052C66.0192 109.797 66.1019 111.577 66.5291 113.29C66.9564 115.002 67.7195 116.612 68.7741 118.026C70.3797 120.399 72.6679 122.227 75.3346 123.266C78.0013 124.305 80.9205 124.507 83.7043 123.844C84.8825 123.448 85.9993 122.889 87.0221 122.182L110.247 108.052C113.803 105.537 117.718 103.575 121.859 102.234C140.937 97.2468 161.673 104.727 172.456 121.351C175.842 126.118 178.245 131.513 179.527 137.221C180.809 142.93 180.943 148.837 179.921 154.597C178.955 160.191 176.833 165.521 173.69 170.245C170.548 174.968 166.455 178.981 161.673 182.026L101.952 219.429C98.3967 221.944 94.4816 223.906 90.34 225.247Z" fill="#EBEBEB"/>
  </g>
  <defs>
    <clipPath id="clip0_74_1100">
      <rect width="214" height="256" fill="#EBEBEB" transform="translate(0.758789)"/>
    </clipPath>
  </defs>
</svg>
