<svg xmlns="http://www.w3.org/2000/svg" width="256" height="257" fill="none" viewBox="0 0 256 257">
  <g clip-path="url(#a)">
    <path fill="#155dfc" d="M127.787 1.001c70.692 0 128 57.307 128 127.999s-57.308 128-128 128h-9.846v-19.692h9.846c59.816-.001 108.308-48.492 108.308-108.308-.001-59.817-48.492-108.307-108.308-108.308C67.971 20.692 19.48 69.183 19.48 129v128H-.212V129c0-70.692 57.307-127.999 127.999-127.999m0 39.384c49.124 0 88.614 40.564 88.614 90.19s-39.49 90.19-88.614 90.191h-9.847v-19.693h9.847c37.882 0 68.923-31.379 68.923-70.498s-31.041-70.499-68.923-70.499-68.924 31.379-68.924 70.499v126.424H39.172V130.575c0-49.626 39.492-90.19 88.615-90.19m0 39.596c27.189 0 49.23 22.041 49.231 49.23 0 27.189-22.042 49.23-49.231 49.23s-49.23-22.041-49.23-49.23 22.041-49.23 49.23-49.23"/>
  </g>
  <defs>
    <clipPath id="a">
      <path fill="#ebebeb" d="M0 .5h256v256H0z"/>
    </clipPath>
  </defs>
</svg>
