<svg xmlns="http://www.w3.org/2000/svg" width="257" height="250" fill="none" viewBox="0 0 257 250">
  <g clip-path="url(#a)">
    <path fill="#300" d="M45.74 0h164.955c25.003 0 45.224 20.221 45.224 45.223v158.581c0 25.002-20.221 45.223-45.224 45.223H45.74c-25.003 0-45.224-20.221-45.224-45.223V45.224C.516 20.22 20.737 0 45.74 0"/>
    <path fill="#ff9a00" d="M125.217 158.458h-39.67l-8.072 25.073a2.02 2.02 0 0 1-2.06 1.545H55.32q-1.718 0-1.202-1.889l34.347-98.918q.516-1.546 1.03-3.52c.45-2.292.68-4.62.688-6.956a1.063 1.063 0 0 1 1.202-1.202h27.305q1.2 0 1.374.859l38.984 109.909q.514 1.719-1.031 1.717h-22.326a1.59 1.59 0 0 1-1.717-1.202zm-33.488-21.639h27.134l-.386-1.277-.622-2.022-.443-1.419-.707-2.236-1.503-4.708-1.322-4.173-3.432-10.869a336 336 0 0 1-2.46-8.138l-.629-2.21-.734-2.614-1.12-4.049-.209-.764h-.172a139 139 0 0 1-3.136 12.231l-2.548 8.195-1.402 4.528-1.415 4.584q-.383 1.242-.764 2.456l-.76 2.399-.757 2.341-.752 2.285-.747 2.227q-.374 1.1-.744 2.17zm90.501-46.024a12.46 12.46 0 0 1-9.445-3.778 13.6 13.6 0 0 1-3.607-9.79 12.6 12.6 0 0 1 3.864-9.53A13.27 13.27 0 0 1 182.208 64l.366.004q6.182 0 9.703 3.693a13.26 13.26 0 0 1 3.52 9.53 13.4 13.4 0 0 1-3.692 9.79 13.18 13.18 0 0 1-9.508 3.79zm-11.85 92.564V101.27q0-1.545 1.374-1.545h21.124q1.373 0 1.374 1.545v82.089q0 1.719-1.374 1.717h-20.952q-1.464 0-1.541-1.541z"/>
  </g>
  <defs>
    <clipPath id="a">
      <path fill="#ebebeb" d="M.516 0h256v250h-256z"/>
    </clipPath>
  </defs>
</svg>
