<svg width="257" height="257" viewBox="0 0 257 257" fill="none"
  xmlns="http://www.w3.org/2000/svg">
  <g clip-path="url(#clip0_81_1565)">
    <path d="M196.156 104.547C195.563 108.63 192.871 114.178 189.782 119.001C185.884 125.088 179.699 129.35 172.62 130.83L141.438 137.351C136.427 138.399 131.882 141.021 128.47 144.836L108.025 167.689C104.182 171.984 101.497 170.96 101.497 165.199C101.45 165.413 91.3494 191.462 118.118 206.901C128.402 212.834 143.208 210.702 153.493 204.77L207.987 173.337C228.367 161.581 242.757 141.694 247.54 118.675C247.729 117.764 247.875 116.85 248.033 115.937L196.156 104.547Z" fill="url(#paint0_linear_81_1565)"/>
    <path d="M182.023 73.146C192.308 79.0785 196.51 87.9106 196.51 99.7754C196.51 101.386 196.384 102.977 196.156 104.544L218.113 113.976L248.033 115.935C251.864 93.7626 244.356 70.9403 230.897 52.7997C220.768 39.148 207.734 27.3011 192.065 18.263C179.337 10.9212 166.109 6.08399 152.82 3.42969L137.889 22.7658L133.172 44.9687L182.023 73.146Z" fill="url(#paint1_linear_81_1565)"/>
    <path d="M6.26877 89.4147C6.26319 89.4323 6.27865 89.4371 6.28448 89.4195C7.43667 85.9643 8.88145 82.1082 10.6851 77.9898C20.1068 56.4746 38.263 42.1251 60.5995 34.8087C82.9362 27.4926 107.324 30.0571 127.681 41.7992L133.172 44.9664L152.82 3.42731C90.3282 -9.05415 26.4583 27.6603 6.34822 89.1739C6.33861 89.2035 6.30365 89.3059 6.26877 89.4147Z" fill="url(#paint2_linear_81_1565)"/>
    <path d="M151.36 204.765C141.075 210.697 128.403 210.697 118.118 204.765C116.722 203.959 115.406 203.054 114.161 202.073L96.0731 214.509L80.4827 239.702C97.7867 254.103 120.257 258.733 142.712 256.158C159.611 254.22 176.397 248.867 192.066 239.829C204.794 232.487 215.601 223.461 224.546 213.29L215.251 190.704L200.21 176.587L151.36 204.765Z" fill="url(#paint3_linear_81_1565)"/>
    <path d="M114.161 202.07C106.237 195.829 101.498 186.255 101.498 176.001V174.978V89.5765C101.498 84.7469 102.92 83.9261 107.108 86.3413C100.659 82.6212 85.7628 69.8533 67.3698 80.462C57.0849 86.3949 48.6155 99.4901 48.6155 111.354V174.221C48.6155 197.731 60.7928 222.256 78.3562 237.904C79.0509 238.523 79.7701 239.107 80.4828 239.699L114.161 202.07Z" fill="url(#paint4_linear_81_1565)"/>
    <path d="M223.284 43.4984C223.272 43.4848 223.26 43.4958 223.272 43.5095C225.691 46.2343 228.311 49.412 230.98 53.032C244.919 71.9413 250.127 95.8906 245.302 118.875C240.475 141.858 226.059 161.677 205.701 173.419L200.21 176.586L224.547 213.289C266.612 165.461 266.721 91.8434 223.453 43.6875C223.433 43.6645 223.361 43.583 223.284 43.4984Z" fill="url(#paint5_linear_81_1565)"/>
    <path d="M50.7486 111.352C50.7485 99.4867 57.0843 88.5227 67.3692 82.5907C68.7654 81.7851 70.2083 81.0995 71.6804 80.5123L69.9445 58.6444L57.7491 33.625C36.6138 41.3965 19.5177 57.4575 10.5223 78.1731C3.75279 93.7619 7.83362e-05 110.963 0 129.038C0 143.722 2.4204 157.584 6.76428 170.41L30.9914 173.661L50.7486 167.706V111.352Z" fill="url(#paint6_linear_81_1565)"/>
    <path d="M71.6815 80.5123C81.0541 76.7774 91.7229 77.4635 100.612 82.5907L101.498 83.1019L172.662 124.149C177.654 127.028 177.2 129.862 171.558 131.042L175.663 130.184C181.065 129.054 186 126.293 189.774 122.27C196.263 115.353 198.646 107.008 198.646 99.7667C198.645 87.9019 192.31 76.9382 182.025 71.0058L127.529 39.5729C107.149 27.8175 82.7165 25.3108 60.37 32.6828C59.486 32.9743 58.6207 33.3049 57.7502 33.625L71.6815 80.5123Z" fill="url(#paint7_linear_81_1565)"/>
    <path d="M154.577 254.219C154.596 254.215 154.592 254.199 154.574 254.203C151.002 254.935 146.938 255.612 142.466 256.111C119.104 258.717 95.7403 251.249 78.2296 235.581C60.7193 219.914 50.7482 197.53 50.7482 174.046L50.7481 167.712L6.76392 170.416C27.1908 230.726 90.9515 267.629 154.329 254.271C154.36 254.265 154.466 254.243 154.577 254.219Z" fill="url(#paint8_linear_81_1565)"/>
  </g>
  <defs>
    <linearGradient id="paint0_linear_81_1565" x1="160.48" y1="191.165" x2="185.661" y2="103.46" gradientUnits="userSpaceOnUse">
      <stop stop-color="#1724C9"/>
      <stop offset="1" stop-color="#1C64F2"/>
    </linearGradient>
    <linearGradient id="paint1_linear_81_1565" x1="218.475" y1="84.2049" x2="152.238" y2="18.2009" gradientUnits="userSpaceOnUse">
      <stop stop-color="#1C64F2"/>
      <stop offset="1" stop-color="#0092FF"/>
    </linearGradient>
    <linearGradient id="paint2_linear_81_1565" x1="129.316" y1="41.1693" x2="29.3946" y2="47.4833" gradientUnits="userSpaceOnUse">
      <stop stop-color="#0092FF"/>
      <stop offset="1" stop-color="#45B2FF"/>
    </linearGradient>
    <linearGradient id="paint3_linear_81_1565" x1="122.559" y1="230.302" x2="212.293" y2="206.089" gradientUnits="userSpaceOnUse">
      <stop stop-color="#1C64F2"/>
      <stop offset="1" stop-color="#0092FF"/>
    </linearGradient>
    <linearGradient id="paint4_linear_81_1565" x1="58.1508" y1="126.459" x2="121.86" y2="192.475" gradientUnits="userSpaceOnUse">
      <stop stop-color="#1724C9"/>
      <stop offset="1" stop-color="#1C64F2"/>
    </linearGradient>
    <linearGradient id="paint5_linear_81_1565" x1="203.604" y1="174.085" x2="248.056" y2="84.4761" gradientUnits="userSpaceOnUse">
      <stop stop-color="#0092FF"/>
      <stop offset="1" stop-color="#45B2FF"/>
    </linearGradient>
    <linearGradient id="paint6_linear_81_1565" x1="42.9111" y1="74.0416" x2="19.1244" y2="163.447" gradientUnits="userSpaceOnUse">
      <stop stop-color="#1C64F2"/>
      <stop offset="1" stop-color="#0092FF"/>
    </linearGradient>
    <linearGradient id="paint7_linear_81_1565" x1="164.346" y1="69.7892" x2="77.4227" y2="91.4315" gradientUnits="userSpaceOnUse">
      <stop stop-color="#1724C9"/>
      <stop offset="1" stop-color="#1C64F2"/>
    </linearGradient>
    <linearGradient id="paint8_linear_81_1565" x1="51.2537" y1="171.854" x2="106.66" y2="255.197" gradientUnits="userSpaceOnUse">
      <stop stop-color="#0092FF"/>
      <stop offset="1" stop-color="#45B2FF"/>
    </linearGradient>
    <clipPath id="clip0_81_1565">
      <rect width="256" height="256" fill="#EBEBEB" transform="translate(0.212891 0.5)"/>
    </clipPath>
  </defs>
</svg>
