<svg width="207" height="256" viewBox="0 0 207 256" fill="none" xmlns="http://www.w3.org/2000/svg">
<g clip-path="url(#clip0_20_673)">
<path d="M9.15712 235.407L1.26832 25.2066C1.00779 18.2645 6.33075 12.3812 13.2642 11.9478L192.055 0.773415C199.112 0.332325 205.191 5.69594 205.632 12.7534C205.649 13.0193 205.657 13.2856 205.657 13.552V242.603C205.657 249.674 199.925 255.406 192.853 255.406C192.662 255.406 192.47 255.402 192.279 255.394L21.3772 247.718C14.7213 247.419 9.40699 242.065 9.15712 235.407Z" fill="#FF4785"/>
<mask id="mask0_20_673" style="mask-type:luminance" maskUnits="userSpaceOnUse" x="1" y="0" width="205" height="256">
<path d="M9.15712 235.407L1.26832 25.2066C1.00779 18.2645 6.33075 12.3812 13.2642 11.9478L192.055 0.773415C199.112 0.332325 205.191 5.69594 205.632 12.7534C205.649 13.0193 205.657 13.2856 205.657 13.552V242.603C205.657 249.674 199.925 255.406 192.853 255.406C192.662 255.406 192.47 255.402 192.279 255.394L21.3772 247.718C14.7213 247.419 9.40699 242.065 9.15712 235.407Z" fill="white"/>
</mask>
<g mask="url(#mask0_20_673)">
<path d="M152.191 32.0496L153.413 2.67724L177.966 0.748047L179.024 31.0388C179.061 32.093 178.236 32.9774 177.182 33.0142C176.73 33.03 176.288 32.8853 175.933 32.6058L166.465 25.1468L155.254 33.6506C154.414 34.2881 153.216 34.1236 152.578 33.2833C152.31 32.9295 152.173 32.4933 152.191 32.0496ZM120.79 96.7323C120.79 101.714 154.344 99.3262 158.848 95.8272C158.848 61.9055 140.646 44.0802 107.316 44.0802C73.986 44.0802 55.3117 62.1828 55.3117 89.3368C55.3117 136.63 119.135 137.535 119.135 163.331C119.135 170.572 115.59 174.872 107.789 174.872C97.6245 174.872 93.6059 169.681 94.0787 152.031C94.0787 148.202 55.3117 147.008 54.1298 152.031C51.1201 194.803 77.7682 207.14 108.262 207.14C137.81 207.14 160.975 191.391 160.975 162.879C160.975 112.191 96.2062 113.549 96.2062 88.4317C96.2062 78.2489 103.77 76.8912 108.262 76.8912C112.989 76.8912 121.499 77.7245 120.79 96.7323Z" fill="white"/>
</g>
</g>
<defs>
<clipPath id="clip0_20_673">
<rect width="205.6" height="256" fill="white" transform="translate(0.575684 -0.00390625)"/>
</clipPath>
</defs>
</svg>
