<svg xmlns="http://www.w3.org/2000/svg" width="243" height="256" fill="none" viewBox="0 0 243 256"><g clip-path="url(#a)"><path fill="#18b6f6" d="m212.69 256-45.967-45.707-.703.1v-.501l-97.755-96.526 24.088-23.254L78.2 8.922 11.057 92.117C-.384 103.644-2.492 122.388 5.738 136.22l41.952 69.563c6.424 10.725 18.066 17.14 30.612 17.039l20.775-.2z"/><path fill="#ac7ef4" d="m237.778 90.513-9.234-17.04-4.818-8.72-1.907-3.409-.2.201-25.293-43.802C190.004 6.717 178.161-.1 165.314 0l-22.181.601-66.14.2C64.447.904 53.006 7.52 46.683 18.245L6.437 98.03 78.398 8.721l94.343 103.643-16.761 16.939 10.036 81.09.101-.201v.201h-.201l.201.2 7.828 7.618 38.039 37.187c1.606 1.504 4.215-.3 3.111-2.205l-23.485-46.208 40.949-75.677 1.304-1.503c.502-.602 1.004-1.203 1.405-1.805 8.03-10.925 9.133-25.559 2.51-37.487"/><path fill="#ebebeb" d="M173.041 111.963 78.397 8.822 91.846 89.61l-24.088 23.354 98.057 97.328-8.832-80.789z"/></g><defs><clipPath id="a"><path fill="#ebebeb" d="M.759 0h242v256h-242z"/></clipPath></defs></svg>
