<svg xmlns="http://www.w3.org/2000/svg" width="116" height="256" fill="none" viewBox="0 0 116 256"><path fill="#eb4a4b" fill-rule="evenodd" d="M2.337 69.07c1.81 19.06 3.606 38.012 5.444 57.389 2.995-5.151 5.163-10.091 8.433-14.138 3.046-3.769 6.883-7.248 11.06-9.657 5.452-3.147 12.602-.184 14.369 5.396.475 1.497-.659 3.504-1.055 5.277-1.334-.704-3.053-1.092-3.925-2.17-3.701-4.577-5.931-5.118-10.025-1.162-7.637 7.383-11.93 16.632-13.57 27.027-.316 2.01.941 4.267 1.472 6.41 2.087-.719 4.511-.983 6.198-2.238 5.483-4.082 8.881-9.633 10.756-16.268.407-1.437 2.611-2.364 3.99-3.527.661 1.359 2.168 2.959 1.852 4.034a771 771 0 0 1-9.364 29.789c-.335 1-2.17 1.497-3.312 2.228-.46-1.313-1.428-2.688-1.273-3.925.346-2.803 1.249-5.539 1.878-8.107l-14.947 6.881c.836 9.542 1.703 20.247 2.731 30.937.79 8.163 2.125 10.277 10.164 11.825 9.381 1.807 18.938 2.961 28.474 3.663a124.7 124.7 0 0 0 41.765-3.931c5.103-1.371 7.139-4.728 7.505-9.738.334-4.615 1.081-9.2 1.6-13.802 1.017-9.065 2.006-18.132 3.047-27.577-3.442 2.18-6.148 4.62-9.313 5.654-2.304.754-5.211-.349-7.852-.625.506-2.424.475-5.155 1.644-7.199 1.903-3.341 4.591-6.237 6.945-9.322l-1.014-1.22c-1.687.997-3.782 1.652-4.982 3.066-2.44 2.878-4.828 5.958-6.462 9.332-2.733 5.646-4.816 11.606-7.262 17.395-1.064 2.511-1.98 6.351-5.542 4.885-3.809-1.571-1.129-4.926-.235-7.313 1.422-3.806 3.301-7.444 4.573-10.244-3.605.43-7.259.948-10.93 1.268-1.552.132-3.398-.718-4.668-.145-4.221 1.908-6.897 1.142-7.775-3.532-1.955 1.27-3.61 2.989-5.561 3.452-2.368.564-5.58.933-7.315-.25-1.39-.947-1.895-4.509-1.42-6.598.943-4.154 2.706-8.147 4.38-12.096 1.037-2.446 2.08-6.353 5.577-4.651 3.456 1.678.318 4.511-.48 6.784-1.236 3.513-2.495 7.021-3.742 10.531l1.982 1.197c1.887-1.639 4.238-2.975 5.56-4.986 2.163-3.286 3.47-7.126 5.518-10.5.849-1.398 2.676-2.199 4.061-3.27.28 1.78.954 3.609.73 5.326-.22 1.737-1.44 3.324-2.025 5.042-.877 2.572-1.585 5.203-2.477 8.194 4.218.161 6.024-1.614 7.216-4.746 3.77-9.896 7.58-19.78 11.724-29.523.708-1.668 3.115-2.609 4.74-3.889.188 2.01 1.084 4.29.446 5.985-3.396 8.978-7.21 17.796-10.793 26.704-.605 1.501-.8 3.167-1.181 4.757 6.315-2.839 11.586-5.977 13.51-12.689.47-1.631 2.399-2.843 3.656-4.248l2.924 3.096c.887-.747 1.7-1.598 2.665-2.219 3.035-1.955 6.303-3.679 9.503-.65 3.311 3.131.805 6.183-.925 8.891-1.883 2.955-4.189 5.637-6.311 8.436 4.773-3.076 11.291-4.455 12.158-11.103 2.114-16.237 3.972-32.508 5.857-48.774.559-4.814.859-9.66 1.294-14.677-37.595 9.103-74.382 9.159-111.665-.142m16.136 126.697c1.81 4.784 4.56 9.482 5.281 14.474 1.521 10.626 1.908 21.414 2.985 32.112.157 1.559 1.167 3.7 2.426 4.385 18.54 10.075 37.258 11.821 56.174.803 2.822-1.643 3.344-3.813 3.71-6.864 1.769-14.826-2.17-30.551 7.308-44.511-26.542 6.583-52.445 6.788-77.884-.399M82.454 71.731c9.006-.87 17.902-2.983 26.808-4.73 1.679-.328 3.169-1.606 4.746-2.446-2.079-1.827-3.877-2.707-5.755-2.928-9.353-1.104-18.738-1.955-28.084-3.113-1.412-.175-3.933-1.918-3.828-2.236 2.728-8.217 2.593-17.517 8.783-24.442 7.822-8.753 15.725-17.43 23.568-26.112-5.834-6.276-5.912-6.284-11.2-.79-2.99 3.105-5.72 6.503-8.964 9.315-12 10.4-20.43 22.72-22.074 38.961-.377 3.727-2.423 5.073-6.336 5.13-12.915.188-25.845.543-38.732 1.392-6.386.42-12.693 2.058-19.037 3.144l-.058 2.372c3.97 1.225 7.864 2.833 11.919 3.611 22.594 4.332 45.4 5.075 68.244 2.872m-7.217-5.673c-5.114 4.129-9.34 4.129-13.422 0z" clip-rule="evenodd"/></svg>