<svg xmlns="http://www.w3.org/2000/svg" width="216" height="257" fill="none" viewBox="0 0 216 257">
  <path fill="#ebebeb" d="m209.174 195.276-84.521-179.49c-2.119-4.487-6.543-7.447-11.556-7.722-5.144-.3-9.752 2.182-12.352 6.404L9.077 162.94c-2.84 4.627-2.784 10.334.161 14.905l44.81 69.413c2.67 4.143 7.298 6.541 12.106 6.541 1.364 0 2.734-.193 4.083-.591l130.068-38.47c3.984-1.178 7.241-3.997 8.946-7.734a13.92 13.92 0 0 0-.077-11.729m-18.924 7.7-110.36 32.64c-3.37.998-6.603-1.918-5.894-5.319l39.425-188.811c.737-3.531 5.618-4.092 7.158-.822l72.999 155.013c1.376 2.924-.195 6.373-3.328 7.299"/>
</svg>
