<svg width="257" height="256" viewBox="0 0 257 256" fill="none"
  xmlns="http://www.w3.org/2000/svg">
  <g clip-path="url(#clip0_20_719)">
    <path d="M127.711 255.615C198.129 255.615 255.213 198.531 255.213 128.113C255.213 57.6959 198.129 0.611328 127.711 0.611328C57.2939 0.611328 0.209351 57.6959 0.209351 128.113C0.209351 198.531 57.2939 255.615 127.711 255.615Z" fill="#FFCF00"/>
    <path d="M69.225 59.0977L138.241 128.113L69.225 197.129L52.3205 180.224L104.431 128.113L52.3205 76.0022L69.225 59.0977ZM145.726 59.0977L214.742 128.113L145.726 197.129L128.822 180.224L180.932 128.113L128.822 76.0022L145.726 59.0977Z" fill="#191919"/>
  </g>
  <defs>
    <clipPath id="clip0_20_719">
      <rect width="256" height="256" fill="#EBEBEB" transform="translate(0.0812988 -0.00488281)"/>
    </clipPath>
  </defs>
</svg>
