<svg xmlns="http://www.w3.org/2000/svg" width="119" height="256" fill="none" viewBox="0 0 119 256"><path fill="#439934" fill-rule="evenodd" d="M109.91 83.54c3.368 9.742 5.794 19.688 6.591 29.997.99 12.79.537 25.489-2.159 38.069-.074.346-.229.671-.344 1.007-.846.002-1.709-.103-2.535.025-6.986 1.098-13.965 2.235-20.944 3.366-7.214 1.169-14.439 2.291-21.64 3.54-2.552.44-5.71-.086-6.74 3.443-.03.097-.324.114-.493.168l.348-21.091-.355-50.889 3.362-.577c5.498-.9 10.995-1.813 16.497-2.688 6.566-1.043 13.138-2.056 19.708-3.074 2.898-.451 5.8-.865 8.704-1.297" clip-rule="evenodd"/><path fill="#45a538" fill-rule="evenodd" d="M54.704 224.639c-3.546-3.049-7.216-5.964-10.615-9.17-18.292-17.253-31.671-37.559-38.26-62.04-1.815-6.738-3.026-13.585-3.414-20.547-.273-4.873-.667-9.789-.323-14.637.917-12.892 2.78-25.66 6.562-38.079l.207-.289c.367.489.896.921 1.083 1.473a8102 8102 0 0 1 11 32.632c11.453 34.203 22.89 68.415 34.362 102.609.225.668.806 1.215 1.224 1.818z" clip-rule="evenodd"/><path fill="#46a037" fill-rule="evenodd" d="M109.91 83.54c-2.904.433-5.808.846-8.706 1.293-6.57 1.018-13.142 2.032-19.708 3.074-5.502.876-11 1.788-16.497 2.688l-3.362.578-.025-2.193c-.111-1.803-.302-3.603-.323-5.406-.145-11.495-.235-22.99-.378-34.484-.088-7.195-.22-14.389-.367-21.582-.09-4.47-.187-8.94-.388-13.404-.11-2.398-.495-4.784-.653-7.183-.088-1.378.034-2.768.061-4.152 1.714 3.321 3.39 6.668 5.154 9.965 2.784 5.212 7.22 9.052 11.213 13.242 15.786 16.56 26.994 35.815 33.979 57.565" clip-rule="evenodd"/><path fill="#409433" fill-rule="evenodd" d="M61.644 163.153c.17-.055.465-.071.493-.168 1.03-3.529 4.188-3.003 6.74-3.443 7.201-1.247 14.426-2.372 21.64-3.54 6.98-1.131 13.958-2.269 20.944-3.366.826-.13 1.689-.023 2.534-.025-1.305 4.658-2.333 9.417-3.989 13.948-1.88 5.138-4.154 10.153-6.569 15.07a103 103 0 0 1-13.331 20.486c-4.027 4.843-8.515 9.319-13.014 13.74-2.487 2.445-5.418 4.436-8.146 6.633l-.707-.482-2.548-2.179-2.635-5.776a87 87 0 0 1-2.925-20.644l.048-1.177.359-5.091c.12-1.737.279-3.473.352-5.214.27-6.258.506-12.515.754-18.772" clip-rule="evenodd"/><path fill="#4faa41" fill-rule="evenodd" d="M61.644 163.153c-.248 6.257-.483 12.515-.75 18.774-.073 1.742-.233 3.477-.352 5.215l-1.605.606c-3.566-10.496-7.133-20.881-10.622-31.293-5.77-17.225-11.472-34.478-17.234-51.708a9450 9450 0 0 0-14.06-41.688c-.22-.65-.853-1.158-1.294-1.733l10.274-18.89c.352.613.818 1.186 1.04 1.845q7.138 21.095 14.202 42.215c6.119 18.318 12.2 36.652 18.315 54.973.243.732.646 1.408 1.03 2.228l1.406-1.637z" clip-rule="evenodd"/><path fill="#4aa73c" fill-rule="evenodd" d="M15.73 61.328c.44.575 1.072 1.083 1.294 1.733a9459 9459 0 0 1 14.059 41.688c5.762 17.23 11.463 34.483 17.234 51.708 3.487 10.41 7.054 20.797 10.622 31.293l1.605-.606-.359 5.09-.325 1.173c-.558 5.574-1.028 11.159-1.708 16.72-.342 2.787-1.068 5.523-1.62 8.282-.416-.602-.999-1.15-1.223-1.817-11.472-34.197-22.91-68.406-34.363-102.61a8141 8141 0 0 0-11-32.631c-.187-.552-.713-.984-1.083-1.473z" clip-rule="evenodd"/><path fill="#57ae47" fill-rule="evenodd" d="m61.992 142.063-1.406 1.637c-.384-.821-.787-1.499-1.03-2.229-6.113-18.321-12.196-36.654-18.315-54.973q-7.064-21.12-14.202-42.215c-.22-.658-.686-1.233-1.04-1.844l12.705-16.713c.401.535.972 1.011 1.18 1.613a6397 6397 0 0 1 10.498 31.01c3.246 9.66 6.444 19.336 9.728 28.985.22.646.986 1.103 1.498 1.649l.025 2.193c.122 16.958.241 33.924.359 50.887" clip-rule="evenodd"/><path fill="#60b24f" fill-rule="evenodd" d="M61.612 88.978c-.512-.545-1.278-1.003-1.498-1.65-3.284-9.648-6.482-19.323-9.728-28.984a6490 6490 0 0 0-10.498-31.01c-.208-.602-.779-1.078-1.18-1.613 4.132-4.046 8.136-8.236 12.433-12.095 3.821-3.429 6.893-7.105 7.034-12.523.006-.225.124-.45.304-1.079l1.09 2.74c-.028 1.388-.152 2.775-.062 4.154.158 2.398.544 4.784.653 7.182.201 4.463.298 8.935.388 13.405.145 7.193.277 14.386.367 21.581.14 11.495.233 22.99.378 34.485.017 1.806.206 3.605.319 5.407" clip-rule="evenodd"/><path fill="#a9aa88" fill-rule="evenodd" d="M56.528 218.408c.552-2.76 1.278-5.498 1.62-8.283.681-5.558 1.15-11.146 1.708-16.719l.138-.021.139.023a87 87 0 0 0 2.925 20.644c-.37.486-.892.921-1.087 1.47-1.526 4.302-2.963 8.637-4.497 12.939-.21.587-.793 1.045-1.204 1.561l-1.568-5.384z" clip-rule="evenodd"/><path fill="#b6b598" fill-rule="evenodd" d="M56.272 230.024c.41-.516.996-.973 1.204-1.561 1.534-4.301 2.974-8.635 4.497-12.938.195-.55.715-.984 1.087-1.471l2.633 5.779c-.52.738-1.238 1.403-1.527 2.226l-5.045 14.812c-.208.594-.917 1.014-1.391 1.515z" clip-rule="evenodd"/><path fill="#c2c1a7" fill-rule="evenodd" d="M57.73 238.384c.476-.5 1.184-.921 1.391-1.515l5.045-14.813c.287-.82 1.007-1.487 1.527-2.226l2.55 2.176c-1.232 1.217-1.916 2.623-1.505 4.4l-.774 2.535c-.352.435-.862.812-1.037 1.31-1.76 5.042-3.44 10.112-5.214 15.154-.225.64-.848 1.141-1.288 1.704-.23-2.911-.462-5.815-.695-8.725" clip-rule="evenodd"/><path fill="#cecdb7" fill-rule="evenodd" d="M58.427 247.11c.438-.564 1.061-1.066 1.288-1.704 1.773-5.04 3.454-10.11 5.215-15.154.174-.495.681-.875 1.036-1.31l-1.068 11.636c-.285.329-.699.617-.835 1.001-1.207 3.386-2.344 6.798-3.555 10.185-.25.699-.728 1.316-1.101 1.968-.332-.434-.926-.854-.953-1.307-.107-1.765-.034-3.542-.027-5.315" clip-rule="evenodd"/><path fill="#dbdac7" fill-rule="evenodd" d="M59.405 253.733c.373-.655.851-1.272 1.101-1.969 1.213-3.384 2.348-6.796 3.555-10.185.136-.384.552-.669.835-1.001l.025 7.638-2.556 6.555z" clip-rule="evenodd"/><path fill="#ebe9dc" fill-rule="evenodd" d="m62.365 254.772 2.556-6.555.527 7.755z" clip-rule="evenodd"/><path fill="#cecdb7" fill-rule="evenodd" d="M66.738 226.408c-.411-1.777.271-3.185 1.505-4.4l.707.482z" clip-rule="evenodd"/><path fill="#4faa41" fill-rule="evenodd" d="m60.133 193.41-.139-.023-.138.021.325-1.173z" clip-rule="evenodd"/></svg>