<svg width="257" height="256" viewBox="0 0 257 256" fill="none" xmlns="http://www.w3.org/2000/svg">
<path d="M128.911 3.99902C60.4208 3.99902 4.91077 59.509 4.91077 127.999C4.91077 196.489 60.4208 251.999 128.911 251.999C197.401 251.999 252.911 196.489 252.911 127.999C252.911 59.509 197.401 3.99902 128.911 3.99902ZM193.091 44.251L193.137 44.105L194.735 38.099L195.461 38.631C198.794 41.108 201.98 43.7772 205.003 46.625L204.809 47.253L204.765 47.399C204.296 48.807 203.327 49.994 202.041 50.735C200.755 51.476 199.242 51.7194 197.789 51.419C197.008 51.2593 196.267 50.9468 195.608 50.4995C194.949 50.0521 194.385 49.4789 193.948 48.8126C193.512 48.1464 193.211 47.4003 193.064 46.6175C192.917 45.8346 192.926 45.0303 193.091 44.251ZM165.385 55.683L165.431 55.537C166.351 52.437 169.645 50.597 172.841 51.419C175.989 52.291 177.879 55.537 177.103 58.733V58.879L170.613 82.855L170.081 82.419C166.873 80.0408 163.452 77.9652 159.861 76.219L165.385 55.683ZM143.879 28.993L143.925 28.847L146.831 18.047L147.703 18.191C151.383 18.821 155.065 19.645 158.649 20.613L155.597 31.995L155.553 32.141C155.084 33.549 154.115 34.736 152.829 35.477C151.543 36.218 150.03 36.4614 148.577 36.161C147.796 36.0013 147.055 35.6888 146.396 35.2415C145.737 34.7941 145.173 34.2209 144.736 33.5546C144.3 32.8884 143.999 32.1423 143.852 31.3595C143.705 30.5766 143.714 29.7723 143.879 28.993ZM98.9288 47.399L98.9748 47.253L106.627 18.821L107.451 18.677C111.263 17.9348 115.111 17.3848 118.979 17.029C119.173 17.901 119.173 18.869 118.933 19.741L118.889 19.887L110.655 50.403L110.609 50.549C110.14 51.957 109.171 53.144 107.885 53.885C106.599 54.626 105.086 54.8694 103.633 54.569C102.852 54.4093 102.111 54.0968 101.452 53.6495C100.793 53.2021 100.229 52.6289 99.7922 51.9626C99.3555 51.2964 99.055 50.5503 98.9078 49.7675C98.7607 48.9846 98.7698 48.1803 98.9348 47.401L98.9288 47.399ZM28.5968 112.789C27.6768 115.889 24.3828 117.729 21.2348 116.905C20.0652 116.622 19.0142 115.978 18.2308 115.065C19.8818 100.827 24.274 87.0434 31.1648 74.475C31.6488 74.475 32.1328 74.521 32.6168 74.669C34.147 75.0856 35.4541 76.0833 36.2595 77.4495C37.065 78.8157 37.3051 80.4424 36.9288 81.983L36.8828 82.129L28.6488 112.645L28.5968 112.789ZM53.3968 129.449V129.597L45.1628 160.113L45.1168 160.257C44.1968 163.309 41.0488 165.101 37.9008 164.375C34.6548 163.599 32.6688 160.307 33.4428 157.061V156.915L41.6788 126.399L41.7228 126.253C42.6428 123.153 45.9368 121.313 49.1348 122.137C52.2828 123.009 54.1728 126.251 53.3968 129.449ZM55.7708 87.889C52.5248 87.115 50.5388 83.821 51.3148 80.577L51.3588 80.431L59.5928 49.915L59.6388 49.769C60.5588 46.669 63.8528 44.829 67.0008 45.653C68.5245 46.0636 69.8278 47.0527 70.6332 48.4098C71.4386 49.7669 71.6824 51.3848 71.3128 52.919L71.2668 53.111L63.0328 83.627L62.9868 83.773C62.0668 86.825 58.9188 88.615 55.7708 87.889ZM71.7548 192.081L71.7088 192.225C70.7888 195.277 67.6408 197.069 64.4928 196.345C61.2468 195.569 59.2608 192.275 60.0368 189.029L60.0808 188.883L68.3148 158.367L68.3608 158.173L68.7488 157.253C71.9474 160.025 75.4585 162.415 79.2108 164.373L71.7548 192.081ZM96.7008 210.729L96.6548 210.875L90.7948 232.721L89.9708 232.381C86.42 231.071 82.9435 229.567 79.5568 227.877L84.9808 207.727L85.0268 207.581C85.4705 206.068 86.4902 204.789 87.8668 204.019C89.2435 203.249 90.8671 203.05 92.3888 203.465C95.5868 204.289 97.4748 207.531 96.7008 210.729ZM130.559 195.277L130.413 195.957V196.101L122.179 226.617L122.133 226.763C121.664 228.171 120.695 229.357 119.41 230.098C118.124 230.839 116.612 231.083 115.159 230.783C113.585 230.455 112.207 229.516 111.325 228.172C110.444 226.828 110.132 225.189 110.459 223.615V223.469L118.695 192.953L118.739 192.807C119.188 191.286 120.217 190.003 121.603 189.233C122.989 188.463 124.622 188.268 126.151 188.689C126.959 188.904 127.713 189.288 128.364 189.813C129.015 190.339 129.548 190.996 129.929 191.741L130.123 192.613L130.413 194.017L130.607 195.037L130.559 195.277ZM211.111 203.173C193.867 222.015 170.229 234.899 143.637 238.435L143.395 236.835L142.959 233.639L142.571 231.315L142.135 228.263L141.555 224.533L141.313 223.081L140.781 219.545L140.441 217.461L140.005 214.749L139.569 212.133L139.133 209.613L138.697 207.145L138.309 204.723L137.873 202.397L137.485 200.169L137.195 198.523L136.855 196.923L136.663 195.907L136.275 193.873L135.983 192.419L135.645 190.627L135.355 189.367L135.115 188.157L134.871 186.995L134.725 186.219L134.385 184.767L134.145 183.701L133.903 182.635L133.709 181.957L133.469 180.989L133.273 180.069L133.033 179.149L132.791 178.275L132.645 177.743L132.403 176.919L132.209 176.145L132.063 175.613L131.869 175.127L131.725 174.691L131.531 174.013L131.385 173.529L131.287 173.239C131.048 172.462 130.757 171.701 130.417 170.963L130.271 170.673L131.385 167.765L126.977 167.911L125.767 167.957C85.7548 168.781 59.9368 151.777 59.9368 125.139C59.9368 96.899 88.0308 74.183 124.069 74.183C141.409 74.183 156.279 78.979 168.001 88.133C177.979 95.933 185.293 106.685 189.071 118.843L189.167 119.133L189.263 119.473L189.457 120.101L189.747 121.265L190.523 123.977L191.345 127.077L192.751 132.211L194.979 140.349L198.563 153.717L202.633 168.927L209.171 193.387L211.641 202.589L211.111 203.173ZM217.215 81.983L217.169 82.129L208.935 112.645L208.889 112.791C207.969 115.841 204.821 117.633 201.671 116.907C198.427 116.133 196.441 112.839 197.215 109.593L197.261 109.447L205.495 78.931V78.787C205.967 77.2819 206.999 76.0156 208.378 75.2493C209.757 74.483 211.377 74.2753 212.905 74.669C214.429 75.0945 215.73 76.0939 216.534 77.4575C217.338 78.821 217.581 80.443 217.215 81.983ZM238.043 122.671L229.759 153.187V153.333C228.887 156.579 225.545 158.467 222.299 157.595C219.055 156.723 217.165 153.381 218.039 150.135L218.083 149.991L226.317 119.475L226.363 119.329C227.283 116.229 230.577 114.389 233.725 115.211C235.249 115.622 236.552 116.611 237.357 117.968C238.163 119.325 238.406 120.943 238.037 122.477L238.043 122.671ZM139.569 102.327C139.569 104.382 138.752 106.354 137.299 107.807C135.845 109.261 133.874 110.077 131.819 110.077C129.763 110.077 127.792 109.261 126.339 107.807C124.885 106.354 124.069 104.382 124.069 102.327C124.069 100.272 124.885 98.3004 126.339 96.8469C127.792 95.3935 129.763 94.577 131.819 94.577C133.874 94.577 135.845 95.3935 137.299 96.8469C138.752 98.3004 139.569 100.272 139.569 102.327Z" fill="white"/>
</svg>
