<svg xmlns="http://www.w3.org/2000/svg" width="256" height="256" fill="none" viewBox="0 0 256 256"><g clip-path="url(#a)"><path fill="url(#b)" d="M56.578 0h141.958c6.908 0 13.615 1.1 20.122 3.4 9.411 3.4 17.92 9.4 24.328 17.2 6.507 7.8 10.812 17.4 12.313 27.4.601 3.7.701 7.4.701 11.1v138.3c0 4.4-.2 8.9-1.101 13.2-2.002 9.9-6.708 19.2-13.515 26.7-6.708 7.5-15.518 13.1-25.028 16.1-5.807 1.8-11.813 2.6-17.92 2.6-2.703 0-142.258 0-144.36-.1-10.212-.5-20.323-3.8-28.833-9.5-8.31-5.6-15.117-13.4-19.522-22.4-3.804-7.7-5.706-16.3-5.706-24.9V56.9c-.2-8.5 1.602-16.9 5.306-24.5 4.305-9 11.012-16.9 19.321-22.5C33.152 4.1 43.163.7 53.374.2c1.002-.2 2.103-.2 3.204-.2"/><path fill="url(#c)" d="M215.914 209.4c-.9-1.4-1.9-2.8-2.999-4.1-2.499-3-5.398-5.6-8.597-7.8-3.998-2.7-8.696-4.4-13.494-4.6-3.399-.2-6.798.4-9.996 1.6-3.199 1.1-6.298 2.7-9.297 4.3-3.498 1.8-6.997 3.6-10.695 5.1a80.4 80.4 0 0 1-13.695 4.2c-5.898 1.101-11.895 1.5-17.793 1.4-10.695-.2-21.391-1.8-31.587-4.8-8.996-2.7-17.593-6.4-25.69-11.1-7.097-4.1-13.694-8.8-19.892-14.1-5.098-4.4-9.796-9.1-14.194-14.1-2.999-3.5-5.898-7.2-8.597-11-1.1-1.5-2.099-3.1-2.999-4.7L0 121.2V56.7C0 25.4 25.29 0 56.577 0h50.48l37.385 38c84.366 57.4 57.077 120.7 57.077 120.7s23.991 27 14.395 50.7"/><path fill="#000" d="M144.642 38c84.366 57.4 57.077 120.7 57.077 120.7s23.991 27.1 14.295 50.8c0 0-9.896-16.6-26.49-16.6-15.993 0-25.39 16.6-57.577 16.6-71.671 0-105.558-59.9-105.558-59.9C90.964 192.1 135.046 162 135.046 162c-29.088-16.9-90.964-97.7-90.964-97.7 53.879 45.9 77.169 58 77.169 58-13.894-11.5-52.878-67.7-52.878-67.7 31.187 31.6 93.162 75.7 93.162 75.7C179.128 81.5 144.642 38 144.642 38"/></g><defs><linearGradient id="b" x1="128" x2="128.098" y1="0" y2="256" gradientUnits="userSpaceOnUse"><stop stop-color="#00d5ff"/><stop offset="1" stop-color="#006afd"/></linearGradient><linearGradient id="c" x1="65.5" x2="68.523" y1="168" y2=".001" gradientUnits="userSpaceOnUse"><stop stop-color="#0062fd"/><stop offset="1" stop-color="#00c1ff"/></linearGradient><clipPath id="a"><path fill="#ebebeb" d="M0 0h256v256H0z"/></clipPath></defs></svg>
