<svg width="256" height="256" viewBox="0 0 256 256" fill="none" xmlns="http://www.w3.org/2000/svg">
<g clip-path="url(#clip0_21_1996)">
<path fill-rule="evenodd" clip-rule="evenodd" d="M255.833 25.0166C255.833 11.2321 244.643 0.0410156 230.858 0.0410156H25.0607C11.2762 0.0410156 0.0851135 11.2321 0.0851135 25.0166V230.816C0.0851135 244.6 11.2762 255.791 25.0607 255.791H230.858C244.643 255.791 255.834 244.6 255.834 230.816L255.833 25.0166Z" fill="#4E3188"/>
<path fill-rule="evenodd" clip-rule="evenodd" d="M237.108 162.403V227.068C237.108 232.515 232.74 236.95 227.318 237.056L161.277 237.056L118.159 162.403H237.108ZM151.452 237.056H34.6209L93.0689 135.976L151.452 237.056ZM25.2401 236.399C21.706 235.045 19.1361 231.741 18.8489 227.809L18.8214 183.236L66.3174 101.004H103.441L25.2401 236.399ZM137.393 100.85C140.627 100.864 143.722 102.764 145.393 105.579C145.41 105.608 145.443 105.665 145.443 105.665L155.258 122.662L155.343 122.803C156.946 125.608 157.009 129.144 155.405 132C152.116 137.755 148.774 143.482 145.458 149.224C143.829 152.016 140.747 153.837 137.47 153.878C131.219 153.904 118.684 153.89 118.666 153.89C115.432 153.876 112.288 152.152 110.614 149.336C110.577 149.275 110.507 149.15 110.507 149.15C110.507 149.15 100.686 132.152 100.666 132.113C99.0605 129.307 99.063 125.682 100.666 122.826C100.689 122.784 100.739 122.7 100.739 122.7C100.739 122.7 107.31 111.301 110.599 105.602C112.228 102.81 115.317 100.889 118.591 100.848C118.646 100.848 118.756 100.846 118.756 100.846L137.281 100.85H137.393ZM230.337 19.3025L152.601 153.89H237.108V28.7617C237.108 24.3745 234.273 20.6439 230.337 19.3025ZM113.814 18.7715H220.817L162.948 118.963L109.448 26.3331L113.814 18.7715ZM137.835 92.4972H71.2302L104.533 34.8398L137.835 92.4972Z" fill="url(#paint0_radial_21_1996)"/>
</g>
<defs>
<radialGradient id="paint0_radial_21_1996" cx="0" cy="0" r="1" gradientUnits="userSpaceOnUse" gradientTransform="translate(185.666 -22.2532) scale(259.309 259.309)">
<stop stop-color="#F9A6FF"/>
<stop offset="1" stop-color="#EA73FF"/>
</radialGradient>
<clipPath id="clip0_21_1996">
<rect width="256" height="256" fill="white"/>
</clipPath>
</defs>
</svg>
