<svg xmlns="http://www.w3.org/2000/svg" width="256" height="246" fill="none" viewBox="0 0 256 246">
  <g clip-path="url(#a)">
    <path fill="#ebebeb" d="M232.749 245.5h-41.442l2.892-35h-20.36l-2.891 35H85.052l-2.891-35H61.8l2.892 35H23.25L0 93.793 58.187.5h139.626L256 93.793zM186.127 47.207h-37.346l2.53 17.5h-46.622l2.53-17.5H69.873L46.502 93.793l11.685 93.293h139.626l11.685-93.293zm-87.944 89.069c0-16.661-4.834-27.131-8.68-18.8s-3.846 29.27 0 37.601 8.68-2.14 8.68-18.801m73.367-1.811c0-16.661-4.834-27.131-8.68-18.8s-3.847 29.27 0 37.601 8.68-2.139 8.68-18.801"/>
  </g>
  <defs>
    <clipPath id="a">
      <path fill="#ebebeb" d="M0 .5h256v245H0z"/>
    </clipPath>
  </defs>
</svg>
