<svg xmlns="http://www.w3.org/2000/svg" width="204" height="256" fill="none" viewBox="0 0 204 256"><g clip-path="url(#a)"><path fill="#ff9100" d="M63.95 248.525c10.683 4.312 22.29 6.862 34.467 7.281a101.46 101.46 0 0 0 46.17-9.302 143.4 143.4 0 0 1-44.997-28.265c-8.414 13.479-20.875 24.123-35.62 30.286z"/><path fill="#ffc400" d="M99.565 218.239c-29.647-27.412-47.622-67.099-46.11-110.619.055-1.417.135-2.82.21-4.237a75.8 75.8 0 0 0-16.563-2.4 76.4 76.4 0 0 0-23.54 2.834C5.644 117.675.878 133.574.275 150.631c-1.532 43.974 25.07 82.394 63.635 97.914a76.9 76.9 0 0 0 35.62-30.286l.04-.02z"/><path fill="#ff9100" d="M99.565 218.239c6.901-11.023 11.078-23.953 11.552-37.886 1.288-36.638-23.35-68.176-57.458-76.964-.094 1.417-.17 2.819-.21 4.236-1.511 43.52 16.469 83.208 46.11 110.619z"/><path fill="#dd2c00" d="M107.32.364C87.903 15.924 72.572 36.44 63.286 60.068a143 143 0 0 0-9.622 43.315c34.109 8.793 58.741 40.326 57.458 76.965-.494 13.933-4.671 26.847-11.552 37.886a144.2 144.2 0 0 0 44.997 28.265c33.729-15.6 57.642-49.14 59.044-88.802.889-25.71-8.982-48.625-22.935-67.947C165.925 69.295 107.335.384 107.335.384z"/></g><defs><clipPath id="a"><path fill="#ebebeb" d="M0 0h204v256H0z"/></clipPath></defs></svg>
