<svg xmlns="http://www.w3.org/2000/svg" width="256" height="244" fill="none" viewBox="0 0 256 244">
  <g clip-path="url(#a)">
    <path fill="#606060" d="M31.84 98.287c2.908 0 5.26.398 7.046 1.198q2.678 1.194 2.678 2.989c0 1.462-.367 3.121-1.092 4.98q-1.094 2.789-2.084 4.582-.398.398-.992.1-.596-.298-.596-1.096.596-1.39.596-3.986 0-2.789-1.488-4.581-1.49-1.794-4.067-1.793-3.375 0-5.457 2.092-2.083 2.093-2.083 5.875-.002 3.19 1.686 6.077a70 70 0 0 0 3.77 5.779 57 57 0 0 1 3.87 6.177q1.785 3.288 1.785 7.471 0 7.17-5.753 11.154-5.756 3.988-15.08 3.986-6.746 0-10.615-2.191-3.87-2.189-3.87-4.781 0-.794.595-2.192c.397-.927.924-1.923 1.589-2.99a46 46 0 0 1 2.183-3.188q1.188-1.591 2.578-2.587.595-.401 1.093.197.494.599.1 1.196c-.795.795-1.388 1.628-1.787 2.491q-.595 1.296-.595 3.486c0 2.389.793 4.352 2.382 5.875q2.38 2.293 6.15 2.292 5.157 0 8.036-2.888 2.876-2.887 2.877-7.074 0-3.784-1.687-7.071a77 77 0 0 0-3.67-6.377 84 84 0 0 1-3.671-6.277 14.24 14.24 0 0 1-1.686-6.774c0-3.45 1.453-6.341 4.365-8.664 2.906-2.319 7.205-3.487 12.895-3.487m54.167 1q.991.399.796 1.096-.201.698-1.787 1.095-2.977.002-6.845.199-3.873.201-8.235.597c-2.649 6.511-4.83 12.849-6.548 19.027q-2.58 9.263-2.579 15.042-.002 6.771 5.158 6.771 5.156.001 11.51-8.962.594-.4 1.09 0 .493.398.299 1.394a36 36 0 0 1-8.533 9.664q-5.162 4.083-10.119 4.082c-3.442 0-5.987-.825-7.64-2.49q-2.48-2.49-2.48-6.875c0-3.848.924-9.164 2.776-15.937 1.853-6.774 4.233-13.677 7.146-20.72-3.443.399-6.616.935-9.524 1.595q-.996-.195-.497-.996c.328-.529.924-1.096 1.786-1.693.857-.6 1.884-1.128 3.074-1.595q1.786-.696 3.373-.697h1.588q.793 0 1.588-.198 2.519-5.656 5.357-11.158c1.851-3.587 3.702-6.838 5.556-9.763q1.19-1.392 3.273-2.491 2.083-1.092 4.067-1.693 1.98-.597 3.276-.698 1.285-.095 1.092.698c-2.252 3.456-4.465 7.306-6.649 11.555a209 209 0 0 0-6.25 13.349q3.77-.198 7.638-.199z"/>
    <path fill="#b3d107" d="M206.392-.394c1.984 0 3.601.5 4.861 1.495q1.883 1.494 2.579 3.985.693 2.49.198 5.678-.496 3.19-2.281 6.375-.398.399-.993 0-.594-.399-.793-.996.398-2.39-1.687-3.985c-1.388-1.06-3.54-1.594-6.448-1.594q-8.137 0-16.369 6.077-8.236 6.08-15.973 16.037-7.74 9.965-14.485 22.913a217 217 0 0 0-11.708 26.696c-3.306 9.164-5.921 18.263-7.836 27.294q-2.876 13.549-2.875 24.707-.002 5.973 3.373 5.975 2.38 0 4.661-1.994c1.52-1.326 3.276-3.317 5.26-5.976q.594-.394 1.089.1.494.502.3 1.294c-2.649 3.985-5.755 7.306-9.327 9.961-3.571 2.659-6.815 3.986-9.723 3.986q-3.77 0-5.256-2.194-1.489-2.187-1.489-5.575c0-6.244 1.32-14.049 3.97-23.409 2.644-9.365 6.179-19.259 10.615-29.687q6.646-15.638 15.377-31.178 8.73-15.54 18.157-27.99c6.281-8.301 12.6-15.042 18.948-20.224q9.517-7.772 17.856-7.771zM30.22 244.417q-2.976 0-4.863-1.494-1.883-1.493-2.579-3.986-.691-2.49-.198-5.677.498-3.19 2.281-6.375.4-.402.992 0 .595.396.793.996-.395 2.39 1.688 3.985 2.083 1.591 6.448 1.592 8.138 0 16.37-6.077 8.235-6.075 15.974-16.034 7.739-9.965 14.484-22.913a217 217 0 0 0 11.705-26.697q4.963-13.747 7.839-27.294 2.876-13.55 2.875-24.705.001-5.977-3.373-5.976-2.382-.002-4.661 1.991c-1.52 1.325-3.276 3.321-5.26 5.978q-.594.394-1.09-.101-.492-.5-.298-1.297 3.97-5.975 9.326-9.961 5.358-3.982 9.723-3.982c2.514 0 4.265.727 5.256 2.19q1.49 2.192 1.49 5.58.002 9.363-3.97 23.409c-2.644 9.365-6.181 19.257-10.615 29.686q-6.646 15.638-15.377 31.178t-18.157 27.99c-6.28 8.301-12.6 15.043-18.95 20.222q-9.519 7.772-17.853 7.772"/>
    <path fill="#606060" d="M164.256 149.291q-8.335 0-8.334-9.164c0-2.124.228-4.582.693-7.37.462-2.792 1.193-5.676 2.184-8.667s2.147-6.008 3.471-9.067a56 56 0 0 1 4.762-8.764 66 66 0 0 0-4.165 2.889 33 33 0 0 0-3.572 3.087q-.596.404-1.092-.298-.496-.697-.099-1.294c2.248-2.393 5.457-4.847 9.624-7.374 4.165-2.519 8.166-4.514 12.005-5.976q.99.001 1.487.5.494.501.101 1.293a76.5 76.5 0 0 0-10.22 18.13q-3.869 9.766-3.869 18.927c0 3.855 1.193 5.777 3.572 5.777q2.577 0 6.349-3.485 3.77-3.486 7.939-9.166 4.163-5.678 8.432-12.848a194 194 0 0 0 7.839-14.547q.594-1.192 3.47-2.39t5.854-1.197c1.985 0 2.579.535 1.786 1.596a192 192 0 0 0-4.861 9.662 74 74 0 0 0-3.472 8.866 59 59 0 0 0-2.084 8.864c-.466 2.99-.694 6.275-.694 9.86 0 4.255 1.122 6.376 3.374 6.376q3.371.001 7.539-5.977.597-.393 1.19 0 .595.405.398 1.197-3.377 5.18-7.441 7.87-4.07 2.688-7.44 2.688-8.335 0-8.334-9.761-.001-10.16 3.571-20.124-7.542 13.746-15.873 21.817-8.338 8.072-14.09 8.07m81.943-51.004c2.907 0 5.26.398 7.045 1.198q2.679 1.194 2.679 2.989-.002 2.192-1.091 4.98c-.731 1.86-1.423 3.386-2.085 4.582-.267.266-.594.298-.992.1q-.594-.298-.595-1.096.596-1.39.596-3.986 0-2.789-1.488-4.581-1.49-1.794-4.068-1.793-3.372 0-5.456 2.092-2.084 2.094-2.083 5.875 0 3.19 1.686 6.077a71 71 0 0 0 3.77 5.779 57 57 0 0 1 3.87 6.177q1.785 3.288 1.786 7.471 0 7.17-5.754 11.154-5.758 3.988-15.08 3.986-6.748 0-10.616-2.191-3.87-2.189-3.869-4.781 0-.794.595-2.192.593-1.39 1.587-2.99a46 46 0 0 1 2.183-3.188q1.189-1.591 2.58-2.587.595-.401 1.09.197.494.599.101 1.196-1.19 1.194-1.787 2.491-.595 1.296-.595 3.486c0 2.389.794 4.352 2.382 5.875q2.379 2.293 6.15 2.292 5.157 0 8.038-2.888c1.914-1.924 2.876-4.284 2.876-7.074 0-2.522-.565-4.88-1.686-7.071a77 77 0 0 0-3.671-6.377 85 85 0 0 1-3.672-6.277 14.2 14.2 0 0 1-1.686-6.774c0-3.45 1.453-6.341 4.364-8.664 2.907-2.319 7.206-3.487 12.896-3.487"/>
  </g>
  <defs>
    <clipPath id="a">
      <path fill="#ebebeb" d="M0 .005h256v243.99H0z"/>
    </clipPath>
  </defs>
</svg>
