<svg xmlns="http://www.w3.org/2000/svg" width="207" height="256" fill="none" viewBox="0 0 207 256">
  <path fill="#ff4785" d="M9.157 235.411 1.27 25.211c-.26-6.943 5.062-12.826 11.996-13.26L192.055.778c7.057-.44 13.136 4.923 13.577 11.98q.025.4.025.799v229.051c0 7.071-5.732 12.803-12.803 12.803q-.288 0-.575-.013l-170.901-7.675a12.804 12.804 0 0 1-12.22-12.311"/>
  <mask id="a" width="205" height="256" x="1" y="0" maskUnits="userSpaceOnUse" style="mask-type:luminance">
    <path fill="#ebebeb" d="M9.157 235.411 1.27 25.211c-.26-6.943 5.062-12.826 11.996-13.26L192.055.778c7.057-.44 13.136 4.923 13.577 11.98q.025.4.025.799v229.051c0 7.071-5.732 12.803-12.803 12.803q-.288 0-.575-.013l-170.901-7.675a12.804 12.804 0 0 1-12.22-12.311"/>
  </mask>
  <g mask="url(#a)">
    <path fill="#ebebeb" d="m152.192 32.054 1.221-29.373L177.966.752l1.058 30.29a1.91 1.91 0 0 1-3.091 1.568l-9.468-7.46-11.211 8.505a1.91 1.91 0 0 1-3.062-1.602M120.79 96.736c0 4.982 33.554 2.594 38.058-.905 0-33.922-18.201-51.747-51.532-51.747S55.312 62.187 55.312 89.341c0 47.293 63.824 48.198 63.824 73.994 0 7.241-3.546 11.541-11.347 11.541-10.164 0-14.183-5.191-13.71-22.841 0-3.829-38.767-5.023-39.949 0-3.01 42.772 23.638 55.109 54.132 55.109 29.548 0 52.714-15.75 52.714-44.261 0-50.688-64.77-49.33-64.77-74.447 0-10.183 7.565-11.54 12.056-11.54 4.728 0 13.237.832 12.528 19.84"/>
  </g>
</svg>
