<svg width="257" height="210" viewBox="0 0 257 210" fill="none"
  xmlns="http://www.w3.org/2000/svg">
  <g clip-path="url(#clip0_20_544)">
    <path d="M254.74 2.1476C254.084 1.60726 253.251 1.32906 252.402 1.36665C250.075 1.36665 247.062 2.94648 245.439 3.79317L244.797 4.12189C242.079 5.4389 239.119 6.18472 236.101 6.31333C233.005 6.41094 230.34 6.59224 226.867 6.95482C206.294 9.06657 197.118 24.835 188.278 40.0854C183.465 48.381 178.496 56.9973 171.683 63.5796C170.273 64.9471 168.774 66.2202 167.196 67.3907C160.144 72.6323 151.289 76.3756 144.399 79.0253C137.767 81.5614 130.526 83.8405 123.533 86.0459C117.12 88.062 111.072 89.9705 105.507 92.0385C103.346 92.8344 101.171 93.5915 98.9829 94.3096C93.9127 95.9532 90.2609 97.2142 84.9178 100.892C83.0038 102.192 81.1403 103.565 79.3316 105.008C75.0923 108.39 71.3401 112.342 68.1812 116.75C65.4645 120.816 62.3252 124.584 58.8158 127.99C57.6882 129.094 55.688 129.636 52.6917 129.636C49.1854 129.636 44.932 128.912 40.4316 128.147C35.7897 127.325 30.9924 126.544 26.8785 126.544C23.5376 126.544 20.9776 127.088 19.069 128.189C19.069 128.189 15.8476 130.066 14.4909 132.492L15.8257 133.094C17.8934 134.215 19.8078 135.597 21.5214 137.208C23.3083 138.859 25.2987 140.275 27.4443 141.422C28.1301 141.672 28.7538 142.068 29.2732 142.581C28.7134 143.404 27.8906 144.466 27.0239 145.601C22.2745 151.815 19.5053 155.742 21.0931 157.879C21.8544 158.274 22.7044 158.466 23.5615 158.437C33.913 158.437 39.4773 155.748 46.5118 152.341C48.5519 151.355 50.6277 150.341 53.0961 149.297C57.21 147.512 61.6387 144.665 66.3384 141.651C72.4824 137.646 78.9093 133.53 85.1489 131.546C90.2751 129.983 95.6147 129.234 100.973 129.325C107.557 129.325 114.486 130.203 121.17 131.062C126.149 131.704 131.309 132.361 136.371 132.666C138.335 132.779 140.156 132.837 141.923 132.837C144.29 132.845 146.656 132.722 149.009 132.469L149.575 132.269C153.123 130.09 154.789 125.408 156.399 120.88C157.435 117.967 158.311 115.351 159.69 113.688C159.771 113.608 159.859 113.535 159.953 113.469C160.017 113.433 160.092 113.42 160.165 113.431C160.238 113.443 160.305 113.478 160.355 113.533V113.664C159.534 131.365 152.406 142.605 145.198 152.598L140.385 157.758C140.385 157.758 147.125 157.758 150.958 156.276C164.951 152.094 175.51 142.878 183.194 128.179C185.09 124.406 186.785 120.536 188.272 116.585C188.402 116.256 189.613 115.648 189.499 117.35C189.457 117.852 189.424 118.411 189.382 118.997C189.382 119.342 189.382 119.694 189.316 120.049C189.117 122.519 188.535 127.737 188.535 127.737L192.856 125.422C203.273 118.84 211.304 105.56 217.396 84.8944C219.93 76.286 221.789 67.7354 223.427 60.2068C225.385 51.1522 227.073 43.3925 229.007 40.3803C232.043 35.6587 236.677 32.4652 241.161 29.3633C241.771 28.9429 242.389 28.5385 242.988 28.0942C248.626 24.1377 254.23 19.5695 255.466 11.0508V10.8616C256.362 4.50838 255.605 2.88671 254.74 2.1476ZM240.231 208.794H219.657V172.956H238.215C245.307 172.956 252.065 174.291 251.965 182.24C251.965 187.844 248.485 189.392 244.815 189.982C250.025 190.428 253.159 193.751 253.159 199.118C253.192 207.157 246.14 208.796 240.231 208.796V208.794ZM238.693 188.593C245.795 188.593 247.383 185.86 247.383 182.388C247.383 177.17 244.206 175.985 238.693 175.985H223.947V188.591L238.693 188.593ZM238.89 191.621H223.947V205.766H239.532C243.903 205.766 248.519 204.326 248.519 198.821C248.519 192.466 243.209 191.621 238.89 191.621ZM176.141 172.954H192.328C205.931 172.954 212.729 180.453 212.629 190.872C212.729 201.702 205.226 208.796 193.522 208.796H176.139L176.141 172.954ZM180.608 176.134V205.669H192.954C203.776 205.669 207.897 198.367 207.897 190.773C207.897 182.188 202.738 176.134 192.956 176.134H180.608ZM159.016 186.806V182.633H165.798V208.794H159.04V204.583C157.255 207.611 153.584 209.346 149.115 209.346C139.783 209.346 134.566 202.762 134.566 195.192C134.566 187.892 139.505 182.025 148.121 182.025C153.01 182.083 157.082 183.728 159.016 186.806ZM141.734 195.546C141.734 200.359 144.762 204.481 150.623 204.481C156.283 204.481 159.361 200.457 159.361 195.694C159.361 190.928 156.175 186.856 150.308 186.856C144.674 186.856 141.742 190.92 141.742 195.546H141.734ZM121.786 175.73C121.772 175.255 121.858 174.782 122.036 174.342C122.215 173.902 122.483 173.504 122.823 173.173C123.164 172.842 123.569 172.585 124.014 172.419C124.459 172.253 124.933 172.181 125.408 172.207C125.891 172.191 126.372 172.274 126.822 172.45C127.273 172.626 127.682 172.891 128.027 173.231C128.371 173.57 128.642 173.976 128.825 174.424C129.007 174.872 129.096 175.352 129.087 175.835C129.097 176.312 129.007 176.785 128.823 177.225C128.638 177.664 128.364 178.061 128.018 178.388C127.671 178.715 127.26 178.966 126.81 179.125C126.361 179.284 125.883 179.347 125.408 179.31C124.93 179.33 124.453 179.252 124.007 179.08C123.561 178.908 123.155 178.646 122.815 178.31C122.475 177.974 122.208 177.571 122.031 177.127C121.854 176.683 121.771 176.207 121.786 175.73ZM122.085 182.633H128.838V201.75C128.838 202.935 129.087 203.782 130.073 203.782C130.507 203.772 130.939 203.723 131.364 203.637L132.41 208.573C130.989 209.134 129.472 209.415 127.944 209.398C125.113 209.398 122.083 208.573 122.083 202.146L122.085 182.633ZM104.758 208.796H98.0126V182.635H104.758V188.496C105.53 186.621 106.836 185.014 108.513 183.874C110.189 182.735 112.164 182.112 114.191 182.085C115.628 182.065 117.057 182.299 118.413 182.776L116.973 187.715C115.807 187.405 114.607 187.238 113.401 187.219C108.53 187.219 104.758 190.89 104.758 196.273V208.796ZM82.7702 186.808V182.635H89.5278V208.796H82.7702V204.585C80.9852 207.613 77.3155 209.348 72.845 209.348C63.5054 209.348 58.2958 202.764 58.2958 195.194C58.2958 187.894 63.2345 182.027 71.8508 182.027C76.7637 182.085 80.8357 183.73 82.7702 186.808ZM65.4877 195.548C65.4877 200.361 68.5159 204.483 74.377 204.483C80.0309 204.483 83.1089 200.459 83.1089 195.696C83.1089 190.932 79.9313 186.858 74.0562 186.858C68.4262 186.858 65.4977 190.922 65.4977 195.548H65.4877ZM47.0796 172.956L56.3454 208.796H49.3527L43.1788 182.977L31.5443 208.796H25.6374L14.0666 183.131L7.71139 208.796H0.864136L10.0483 172.956H16.1046L28.6157 200.708L41.0731 172.956H47.0796Z" fill="#D5D5D5"/>
  </g>
  <defs>
    <clipPath id="clip0_20_544">
      <rect width="256" height="209.183" fill="#D5D5D5" transform="translate(0.269043 0.40625)"/>
    </clipPath>
  </defs>
</svg>
