<svg xmlns="http://www.w3.org/2000/svg" width="240" height="257" fill="none" viewBox="0 0 240 257"><g clip-path="url(#a)"><path fill="#020617" d="M119.767.241.129 42.737l18.248 157.568 101.39 55.936 101.391-55.936 18.248-157.568z"/><mask id="b" width="240" height="257" x="0" y="0" maskUnits="userSpaceOnUse" style="mask-type:luminance"><path fill="#0f172a" d="M119.767.241.129 42.737l18.248 157.568 101.39 55.936 101.391-55.936 18.248-157.568z"/></mask><g mask="url(#b)"><path fill="#020617" fill-rule="evenodd" d="M119.767.241v28.416-.128 227.712l101.39-55.936 18.248-157.568z" clip-rule="evenodd"/></g><path fill="#f8fafc" d="m154.871 121.64-11.478-2.549 8.928 12.748v39.521l30.606-25.498v-43.344l-14.028 5.099zM83.453 121.64l11.477-2.549-8.927 12.748v39.521l-30.607-25.498v-43.344l14.028 5.099z"/><path fill="#f8fafc" fill-rule="evenodd" d="m89.704 134.236 10.173-15.329 6.358 3.832h25.433l6.357-3.832 10.173 15.329v57.484l-7.629 11.497-8.901 8.943h-25.433l-8.901-8.943-7.63-11.497z" clip-rule="evenodd"/><path fill="#f8fafc" d="M152.321 195.583 168.9 179.01v-16.573l-16.579 14.023zM86.004 195.583 69.425 179.01v-16.573l16.579 14.023z"/><path fill="#f8fafc" fill-rule="evenodd" d="M102.583 45.158 92.381 69.38l16.578 48.445h7.652V45.158zm19.129 0v72.667h8.928l15.303-48.445-10.203-24.222z" clip-rule="evenodd"/><path fill="#f8fafc" d="M108.96 117.81 54.122 97.412 46.47 65.541l47.186 3.825 16.579 48.444zM130.641 117.81l54.838-20.398 7.652-31.871-48.461 3.825-15.304 48.444zM148.495 65.556l26.781-2.55-17.854-17.848h-17.855zM89.83 65.556l-26.78-2.55 17.854-17.848h17.854z"/></g><defs><clipPath id="a"><path fill="#ebebeb" d="M0 0h240v257H0z"/></clipPath></defs></svg>
