<svg xmlns="http://www.w3.org/2000/svg" width="227" height="256" fill="none" viewBox="0 0 227 256"><path fill="#ebebeb" d="m111.533 213.883-73.821-42.585c-.896-.537-1.494-1.493-1.494-2.568v-65.818c0-1.135 1.255-1.851 2.21-1.314l85.707 49.453c1.194.717 2.687-.179 2.687-1.553v-32.073a3.58 3.58 0 0 0-1.791-3.105L21.944 54.833a2.97 2.97 0 0 0-2.986 0L5.46 62.657c-.896.537-1.494 1.493-1.494 2.568v122.259c0 1.075.598 2.03 1.494 2.568l105.893 61.159a2.97 2.97 0 0 0 2.987 0l88.931-51.364a1.794 1.794 0 0 0 0-3.106l-27.712-16.006a3.5 3.5 0 0 0-3.584 0l-57.396 33.148a2.97 2.97 0 0 1-2.987 0zM220.233 62.596l-105.894-61.1a2.97 2.97 0 0 0-2.986 0L55.39 33.81a1.794 1.794 0 0 0 0 3.105l27.474 15.887a3.5 3.5 0 0 0 3.583 0l25.085-14.453a2.97 2.97 0 0 1 2.987 0l73.821 42.584c.895.538 1.493 1.493 1.493 2.568v66.117c0 1.254.657 2.449 1.791 3.106l27.474 15.827c1.195.717 2.688-.179 2.688-1.553V65.224c0-1.075-.597-2.03-1.493-2.568z"/></svg>
