<svg xmlns="http://www.w3.org/2000/svg" width="257" height="100" fill="none" viewBox="0 0 257 100"><path fill="#000" d="M175.224 9.573v-.54h-.88v.54zm5.88 14.16v.26h.62c.006-.296.067-.588.18-.86v-.54c-.26 0-.52.42-.76 1.16zm-22.96 17.84a28 28 0 0 0-4.7-6c0-.64 1-1.58 3.18-2.84l6.22-5.42a15.57 15.57 0 0 0 2.46-8.62v-.92c-.24-2.76-2.24-4.98-6-6.68q-3.36-2.26-12-2.5a71.2 71.2 0 0 0-18.96 5.28 77 77 0 0 1-7.26 4.58v.46c.262-.05.508-.16.72-.32a.42.42 0 0 1 .52.42l.46-.24h.22v.2a25.6 25.6 0 0 1-5.06 4l.26.48h-.22l-.56-.2c0 .16-.22.28-.68.32v.2l.54.68a2 2 0 0 1-.78-.18c-.9.125-1.724.573-2.32 1.26l.32-1.38a113 113 0 0 0 2.32-13v-.24a9.5 9.5 0 0 1-2.26-2.1 7 7 0 0 0 0-.98v-.2h-.22q-3.68 5.54-14.22 18.9-8 9.5-8.28 10.56c-2.18 2.26-3.22 3.62-3.12 4-.58.38-.82.74-.72 1.16a.24.24 0 0 1-.32-.18 6.34 6.34 0 0 1-4.16 2.9l-2 .44a.46.46 0 0 0-.38.56v.24l.72-.16v.2l-1.64.64-2.9.68h-1.52c-.22.22 1.22 0 .66.12l-2 .44c-1.16.26-1.78.16-2-.3h-.22c.036.158.036.322 0 .48l.24-.32-1.52.36q-.159-1.06-6.18-7.72c0-.86 1.34-2.1 4.24-3.72l8.16-7.18q2.74-3.52 3.26-11.3l-.1-1.18c-.32-3.66-2.96-6.6-8-8.88-2.94-2-8.24-3.06-15.88-3.22a95.7 95.7 0 0 0-24.74 6.84 95 95 0 0 1-9.56 6v.64a2.5 2.5 0 0 0 .96-.38.54.54 0 0 1 .68.52l.64-.36h.32v.3a37.3 37.3 0 0 1-6.68 5.2l.36.56h-.3l-.68-.24c0 .18-.3.32-.96.38v.34l.74.82a2.7 2.7 0 0 1-1-.2 6.34 6.34 0 0 0-4.26 3.14l.36.56a9 9 0 0 1 2.12-1.7v.92c-.339.071-.663.2-.96.38l.84 1.12a25.2 25.2 0 0 1 4.86-4c.88.22 1.34.5 1.36.8h.68a52 52 0 0 1 14.28-7.72v.64q-1.32 2-1.78 2a2 2 0 0 0 .46 1.18q.12 1.2-6.42 16.2-14.7 34.66-24.76 51.32c.062.327.199.635.4.9a8.3 8.3 0 0 0 3.14-1.2h.36v.64h.62l.64-.36c0 .18.22.28.66.24v.64a5.66 5.66 0 0 1-.96 2.72 14.7 14.7 0 0 0-2.16 4.8v.3h.62a39 39 0 0 0 6.12-8.82 97.7 97.7 0 0 0 18-6.76 16.8 16.8 0 0 0 9.48-3.26v-.34l-1.56.46h-.36v-.34a14.14 14.14 0 0 0 6.34-2q8.92-6.88 13.48-9.74 9.36-6.88 12.14-13.4l1.04-.24q.75.04 1.5 0c0-.16 0-.26.2-.3 1.4-.14.72 0 1.62-.12l2.34-.54c-.14 0-.2.12-.16.26l.36-.22h-.18.4l-.18.12c.284.054.576.054.86 0l.16.68-10.84 16.66-2.36 2.96-1.16 3.84h.22l1.16-.48-.38 1.5.12.44.32.4c-.14 0-.2.14-.16.3v.24l.48-.12q1.06-.921.9-1.68c.496.127 1.01.168 1.52.12v.24c-.46.12-.7.48-.74 1.12v.24h.26c3.88-4.24 13.38-18.7 21-28.54q-.36-1.6 12-4.44h.26q.44 2-2 9.34a25 25 0 0 0-1.42 4.88 37.4 37.4 0 0 0-1.84 6.44l-2.9 9.52a87 87 0 0 0-4.32 15.42 1.9 1.9 0 0 1 .8 0l.4-.36a.24.24 0 0 0 .32.18l.02-.76h1.26c.38 0 .68-.56.96-1.42 0-1.28.2-2 .78-2.12a20.6 20.6 0 0 1 1.44-4.64 20.6 20.6 0 0 1 1.62-5.2c1.1-4 2-6 2.42-6.12l.12.48-.8 2c-1.04 5-2.458 9.913-4.24 14.7l.42 1.78h.26q5.2-11.181 14.96-44.28a5.79 5.79 0 0 1 2.78-4.5l-.38-.4v-.2a2.54 2.54 0 0 0 1.56-.88c0-.16-.68-.42-2-.74l3.24-14c.358-.386.777-.71 1.24-.96v.7c-.261.05-.508.159-.72.32l.62.88a20 20 0 0 1 3.66-3.14c.68.18 1 .42 1.04.64h.48a39.5 39.5 0 0 1 10.86-5.82v.46q-.98 1.479-1.34 1.5c.027.32.13.628.3.9a85 85 0 0 1-4.82 12.32 335 335 0 0 1-18.88 39.1c.062.249.178.48.34.68a6 6 0 0 0 2.36-.92h.22v.46h.52l.46-.24q0 .2.5.16v.5a4.2 4.2 0 0 1-.8 2.12 10.6 10.6 0 0 0-1.7 3.64v.24h.48a29.4 29.4 0 0 0 4.64-6.7 75 75 0 0 0 13.6-5.12 12.78 12.78 0 0 0 7.24-2.48v-.24l-1.22.36h-.26v-.24c1.7-.125 3.346-.653 4.8-1.54 4.5-3.46 8-6 10.24-7.4 7.2-5.24 10.54-10.26 10.14-15.1zm-1.22.32.16 1.88c-.22.46-.46.7-.68.72l-.28-3.2c.52.18.78.38.8.6m-141.12-15.16h-.32v-.58l1.24-.16v.3a2.5 2.5 0 0 0-.94.38zm-6.28 62.82a4 4 0 0 0-2-.42v-.92c0-.36.16-.6.62-.68s.66.26.68.86a13.6 13.6 0 0 1 1.78-2l.68.28c-.22 1.86-.8 2.82-1.72 2.88zm67.1-70.2c-.32 0-.96-.96-1.86-2.9v-.58c.6 0 1.22.92 1.86 2.9zm-.88-6.96-.26.62-9.14-3.8q9.12.3 9.38 3.18zm-38.48 33.04-1.28.12v-.58l1.28-.12zm-1.04-19.84h.32v.92c-.3 0-.68.46-1.18 1.32v-.64c.58-.68.88-1.22.84-1.58zm-2.72 6.4.12 1.22h-.32l-.12-1.22zm-1.42 2.28h.62c0 1-.34 1.54-.84 1.58h-.32a2.9 2.9 0 0 0 .54-1.54zm-1.06 3.16h.36v.3l-.58.96h-.62v-.3a.8.8 0 0 0 .84-.98zm-1.04 2.86-.18 1.52h-.32l-.14-1.5h.64zm-10.46 29.7c-.42 2-.86 3.14-1.32 3.18v-.3a3.34 3.34 0 0 1 1.32-2.88m-2 4.16v.3a.54.54 0 0 1-.56.68v-.3q0-.54.56-.68m-.56 8.62h.96v.34a2.5 2.5 0 0 0-.96.38h-.62c0-.32.16-.56.56-.68zm27.58-8.52a51 51 0 0 0-9.6 5.46q-8.74 3.06-8.6 3.82a96 96 0 0 0-10.4 4.46 3.7 3.7 0 0 1-1.7-.44 2.74 2.74 0 0 1 1.42-2.6 5.5 5.5 0 0 1 2.62.4 25.6 25.6 0 0 1 5.06-1.66v-.64l-2 .16a26.3 26.3 0 0 1 5.6-2.62h.96v.3c-1.66.14-2.58.64-2.78 1.5 0 .4.26.56.68.52 1.24-.78 1.86-1.24 1.84-1.38q3.561-.681 19.62-10.26v.58c0 .28-.9 1.06-2.74 2.4zm-16.44 5.4a6.34 6.34 0 0 0 4-1.86c.44 0 .68.14.7.52a14.3 14.3 0 0 0-4.38 2h-.32v-.66m26.62-20.38-8.22 6.52a84 84 0 0 1-9.86 6q-14.6 8-18.14 8.34h-.36q.44-1.64 13-26.62a71 71 0 0 0 17.42-5.16l2-.16a11.18 11.18 0 0 1 8.98 2.3l.12 1.22q-2.24 6.42-4.9 7.52zm-16-9.04 1.32-.12v.3l-1.32.12zm18.58-3.14h.96c.9.42 1.36.8 1.4 1.14v.3a2.72 2.72 0 0 1-2.38-1.34zm2.62-14.96a38 38 0 0 1-7.04 5.24c-1.26.12-6 2-14.14 5.52a2.6 2.6 0 0 0-1.3-.22v-.58a7.62 7.62 0 0 1 1.58-4.44c.64-3.36 1.32-5.28 2-5.74l6.8-15.3q-.12-1.42 4.36-2.18h.96v.88c2.92-.44 4.76-.7 5.46-.76 5.4-.46 8.22.64 8.44 3.26h.62l-.14-1.54.82-.28a4.24 4.24 0 0 1 2.56 3.18 4.96 4.96 0 0 1-1.38 3.18c-.4 0-.66-.26-.68-.86h-.68l-.14 1.86q-4.1 6.14-6 6.32c-1.12 1.54-1.8 2.32-2 2.32zm4.18 10.72a2.4 2.4 0 0 0-1.34-.52v-.92h.62l1.36.8a.54.54 0 0 1-.56.68zm4.24 5.14c.6.24.96.5 1.02.74h-.48l-.44.36zm.42 2.58v-.24l.78-.18v.24zm1.88 2.1c.8-.14 1.2-.18 2.68-.52v.24l-2.84.66a4 4 0 0 0 0-.38zm2.76 1.18c-.959.02-1.912.154-2.84.4v-.24l2.36-.76 1.14-.26.12.44c-.5.12-.14.12-.72.42zm2.52-.6a.52.52 0 0 1-.64-.38l.72-.16a.44.44 0 0 1 .6.38zm6.82-7.34v-.24l1.18-.28.12.44h-1.24zm7.28 44.68a1.8 1.8 0 0 0 0-.74h.26a.42.42 0 0 1 .58.34v.24l-.96.22zm5.12-42.78h-.52q-1.033.43-2.12.7l-.48.12a.48.48 0 0 1-.62-.34l3.42-.78 1.12-.52.38.42c-.421.057-.82.223-1.16.48zm2.62-.84v-.24a1.4 1.4 0 0 0 .64-.42l2.42-.56v.24a19 19 0 0 0-3.06.96zm.38-4.98a2 2 0 0 0-.68.42c0-.16-.38-.16-1 0-.12-.46 1.68-1.12 5.38-2l.52-.12.12.44c-2.6.76-4 1.2-4.34 1.24zm6.52-7.04c-.32 3.04-1.3 4.7-3.16 5.04v-.24l-1.64.64-.72.16a1.84 1.84 0 0 1-1 0l-.22-.56a99 99 0 0 1 7.12-9.82h.56a10.2 10.2 0 0 1-.96 4.78zm11.54-9.88h-.22v-.46h.96v.24q-.378.105-.72.3zm-4.76 47.8a3 3 0 0 0-1.5-.34v-.7q0-.36.44-.5c.32 0 .5.18.54.68a8.2 8.2 0 0 1 1.34-1.54l.5.2c-.18 1.42-.62 2.16-1.28 2.22zm50.9-53.3c-.24 0-.7-.72-1.44-2.24v-.46c.46 0 .96.68 1.44 2.18zm-.68-5.32-.22.48-6.9-2.88c4.6.14 6.98.96 7.12 2.4m-29.18 25.08h-.96v-.46h.96v.46m-.8-15.08h.26v.7q-.36 0-.9 1v-.46c.338-.334.556-.77.62-1.24zm-2 4.84v.92h-.26v-.92zm-1.1 1.74h.48q0 1.18-.62 1.24h-.26c.237-.366.375-.786.4-1.22zm-.78 2.38h.22v.24l-.42.74h-.48v-.2c.5 0 .72-.3.68-.76zm-.78 2.16-.16 1.2h-.22v-1.18h.48zm-8 22.6q-.48 2.34-1 2.4v-.2a2.67 2.67 0 0 1 1.02-2.2zm-1.48 3.14v.2a.42.42 0 0 1-.44.54v-.24q0-.36.44-.5m-.42 6.56h.74v.24a2.1 2.1 0 0 0-.72.28h-.48q0-.4.44-.5zm20.92-6.46a43.5 43.5 0 0 0-7.3 4.12c-4.48 1.56-6.68 2.54-6.66 2.92a71 71 0 0 0-7.74 3.48 2.9 2.9 0 0 1-1.28-.36 2 2 0 0 1 1.08-2 4.2 4.2 0 0 1 2 .3 21.7 21.7 0 0 1 3.86-1.24v-.46l-1.52.12a20 20 0 0 1 4.28-2h.74v.2c-1.26.12-2 .48-2.12 1.16a.43.43 0 0 0 .156.338.43.43 0 0 0 .364.082c.94-.62 1.38-.96 1.38-1.08q2.68-.48 14.88-7.8v.46c0 .2-.68.8-2 1.82zm-12.48 4a5 5 0 0 0 3.1-1.4.42.42 0 0 1 .52.42c-1.172.3-2.292.78-3.32 1.42h-.26v-.44zm20.18-15.36-6.2 5a60 60 0 0 1-7.54 4.6q-11.06 6-13.78 6.32h-.26q.34-1.26 9.9-20.2a54.5 54.5 0 0 0 13.22-4l1.5-.14a8.4 8.4 0 0 1 6.8 1.78v.92c-1.14 3.2-2.36 5.08-3.7 5.66zm-12.18-6.86h.96v.24h-.96zm14.1-2.4h.74c.68.34 1.04.64 1.06.88v.2a2 2 0 0 1-1.82-1.02zm2-11.34a28.5 28.5 0 0 1-5.32 4 71.3 71.3 0 0 0-10.74 4.16 2.4 2.4 0 0 0-.98-.14v-.46a5.87 5.87 0 0 1 1.18-3.38c.48-2.58 1.02-4 1.58-4.34l5.2-11.62c0-.68 1.04-1.24 3.28-1.68h.74v.7q3.3-.54 4.14-.62c4-.36 6.24.46 6.42 2.48h.48v-1.12h.48a3.1 3.1 0 0 1 2 2.36c-.1.917-.525 1.769-1.2 2.4-.32 0-.5-.18-.54-.68h-.48l-.14 1.4c-2 3.14-3.58 4.78-4.52 4.84-.84 1.14-1.36 1.72-1.6 1.74zm2.18 7.76v-.7h.48l1.04.64a.437.437 0 0 1-.44.5 2 2 0 0 0-1.02-.4zm-86.78 45.24-.48.12-.42.36a.42.42 0 0 0 .58.34c.32 0 .44-.26.38-.56v-.24zm-1.84-3.68v.24c.32 0 .44-.26.38-.56v-.24a.44.44 0 0 0-.38.56m13.12-31.2.56-.14-.12-.48-.56.14zm169.1 14.2a31.5 31.5 0 0 1-7.56 1.14v.46h.8l.62-.24c5.6-.62 6.26-.4 6.2-1.02v-.22zm-34-8.28-.5-.16a8.5 8.5 0 0 0-.6 2v.2c.4 0 .74-.68 1.08-2zm35.16 8.14v.46l.82.14v-.46zm-38.58 4.76-1.26-.14-.22.48v.24l7.54-.64v-.46l-6 .52zm-3.42-16.52v-.24h-.26l-.46.3.26.44c.36 0 .52-.2.48-.52zm45.56 8.32h.36c.2 0 .3-.18.28-.48l-.2-.44a6 6 0 0 0-2.92.74v-.22l-1.54.14c0-.46-.16-.7-.38-.68h-.8c-.94 0-1.38 0-1.84.4 0-.16 0-.24-.16-.24h-.9l-.52.3c0-.16 0-.24-.16-.24l-.32.28v-.24h-1.54v.46l.64.16h.6c.205.12.445.169.68.14l.52-.26v.18a38 38 0 0 1-4.92.94.84.84 0 0 0-.5-.2.4.4 0 0 1-.357-.266.4.4 0 0 1-.023-.154l1.04-.14q.346.109.7.18c.84-.42.88-.58 1.32-.62v-.46c-1.755.322-3.535.49-5.32.5h-.16v-.46c4.62-.56 3.08-.24 4.66-.68 0 .16 0 .24.16.24.171-.177.397-.29.64-.32h.32a16.9 16.9 0 0 0 5.36-.7v.2l.52-.26h.48c0-.46.68-.54.92-.56v-.5c-5.62 1.14-7.1.82-8.66 1.26v-.2a6.8 6.8 0 0 1-2 .16 1 1 0 0 0-.46.3c0-.16 0-.24-.18-.24l-4.78.78c0-.14 0-.2-.18-.18a24.3 24.3 0 0 1-5.12.92c-.223.04-.434.129-.62.26 0-.14 0-.2-.26-.18l-2 .16-1.36.34c0-.14 0-.2-.26-.18q-.981.284-2 .38c-.34 0 .16 0 0-.2l-.42.24h-2.32c-3.6.44-3.2.5-3.6.52h-1.34a.2.2 0 0 1 0 .086.2.2 0 0 1-.041.076.2.2 0 0 1-.072.049.2.2 0 0 1-.087.009c-1.52-.2-2.32-.44-2.32-.72q.3-2.18 1.06-2.24h.26l-.22.48h.26c.48-.26.7-.5.68-.72v-.5h-.48v-.46c-.044-.32.004-.647.14-.94l1.1-1.78v.46h.52v-.46l-.3-.42c.258-.264.583-.45.94-.54v-.24h-.7v-.7a20 20 0 0 0 2-5.14l.5.2c.32 0 .46-.2.44-.54h-.48v-.2a1.8 1.8 0 0 1 .18-.98 3.13 3.13 0 0 0 1.04-2.44c.14 0 .22 0 .24.22.66-.38 1.16-1.36 1.52-3a94 94 0 0 0 4.54-12.44c4-11.04 4-12.2 4.5-14.82h-.48c.037.33-.026.665-.18.96a2 2 0 0 0-.78-.18v-.2a5.66 5.66 0 0 1 1.22-3.42h.1l.42 1.6h.48q.122-1.014.38-2c0-.24-.2-.4-.58-.42l-.46.3v-2.6h-.24a1.83 1.83 0 0 1-.64-1.02l-2.66.26a2.4 2.4 0 0 0-.3-.82c0-.24.58-.48 1.8-.72l.54.2.5-.3c0 .16.12.24.3.22l.5-.3c0 .16.12.24.3.22h.24v-.54h-2.92l-.5.34v-.36q-18.759 1.54-21.3 1.78h-2.64c0 .2-.16.32-.54.36l-.54-.24-1.82.46a12 12 0 0 1-2.16 0 1.86 1.86 0 0 1-1.02.4l5.34-.34c-.384.26-.835.406-1.3.42a1.8 1.8 0 0 1-1.06-.18c-1.31.403-2.647.717-4 .94l-.54-.2-8.72 1.34a2.2 2.2 0 0 0-1.18-.18 14.6 14.6 0 0 0-2.32.5l-4.22 1.76.32.52c.307-.055.599-.17.86-.34l1.5.14-.18 1.4a3.76 3.76 0 0 0-2.4 2.68c-2 .92-3.1 1.56-3.1 2v.24h.32l.56-.3.66.78v1.08q0 .5-10.42 22c-6 13.8-9.2 21.34-9.5 22.7-2 .58-3.26 1.42-3.62 2.54 0 .36.66.6 1.84.68v.54l-.54.9v1.08q0 .84 4.52 1.28c0-.18 0-.3.28-.32a16.2 16.2 0 0 1-.56 4h.32a6.93 6.93 0 0 0 2-3.84h.26c.3 0 .62.32.98 1.04q-.56.22-4 8.9l.32.52h.44q4.101-10.4 5.16-11.5 5.4-.48 18.66-2l.56-.34a.3.3 0 0 0 .024.122.265.265 0 0 0 .316.138h.58l.56-.34a.3.3 0 0 0 .024.122.265.265 0 0 0 .316.138l6.7-.58c1.78-.14 2.6-.68 2.54-1.6 0-.24 1.02-.52 3.14-.82.314-.004.626.05.92.16 0-.16 1.04-.34 3.16-.52 0-1.12.42-1.72 1.04-1.78v-.54a9.3 9.3 0 0 0-2 .46 12.6 12.6 0 0 1-2.66-.32 2.5 2.5 0 0 1-.86.34l-4.66.14-.56.3q0-.26-.34-.22h-.26l-.6.3c0-.16-.5-.3-1.48-.42l-.6.36h-1.16v-.3q9-.98 8.88-2.44a.524.524 0 0 1 .6.302.5.5 0 0 1 .04.238l1.76-.44v-.54l-14.36.4c0 .18 0 .3-.28.32l-1.76-.14a2.1 2.1 0 0 0-1.12.4l-.66-.24a20 20 0 0 0-4 .66 25.5 25.5 0 0 0-4 0l-3.22.28-1.5-.16c0-.96 1.78-5.62 5.58-14a12.2 12.2 0 0 1 3.08-5.28c.32.004.634.08.92.22l2.3-.78 1.18.18c2.365-.26 4.686-.831 6.9-1.7a3.2 3.2 0 0 1 1.5.14l1.76-.42 5.22-.44c2.46-.234 4.887-.73 7.24-1.48v-.54c-.96 0-1.48 0-1.5-.46 0-.72-.76-1.02-2.12-.92v-.54l1.44-.42 3.76-.32v-.54h-2.32v-.58l1.46-.14c.4 0 .56-.22.52-.6-2 0-2.94 0-2.96-.3q-20.46 1-20.52.38a2.3 2.3 0 0 0-.86.38l-.36-.56q5.421-11.52 6.36-11.6a3.2 3.2 0 0 1-.46 1.44v.24h.58c1.44-3.42 2.64-5.2 3.66-5.28 4.28-.38-.6-.66 8.58-2 .252.137.533.213.82.22q5.4-1.08 15.04-2.28v-.54l-3.42.32v-.54a1.86 1.86 0 0 0 1.02-.4v.3c.285-.069.551-.198.78-.38.46-.078.932-.023 1.36.16a20 20 0 0 1 2.86-.58l2.14-.2c.52-.34.76-.64.74-.92v-.24a6.8 6.8 0 0 1-1.88-.12.54.54 0 0 1 .48-.6l4-.38 1.82-.46c0 .2.12.28.26.28.285-.068.551-.198.78-.38h.3q-.485 1.058-.8 2.18h-.52a2.3 2.3 0 0 0-.3-.96h-.26c-4.84 13.5-7 19.78-11.48 30.14-.82 2.64-1.5 4.12-2.1 4.44a.43.43 0 0 0 .156.338.43.43 0 0 0 .364.082 6.5 6.5 0 0 1-.92 3.86c-2 6-3.44 9.22-4.16 9.82l.46 2.82a.437.437 0 0 1-.44.5h-.48c0-.78-.36-1.16-.86-1.1h-.26a11.1 11.1 0 0 0-1.44 3.44h.48a1.62 1.62 0 0 0 .9-1.5h.96l.56.2a3 3 0 0 0-.62 1.7l.26.44-.64 1.5v.24a3.02 3.02 0 0 1 1.82.52 3.26 3.26 0 0 0 1.48-.6h6.24l1.8-.62a42 42 0 0 0 3.86-.16h.78l.42-.28v.24a12.2 12.2 0 0 1 3.8.04v.24h-1.1v.46c.322-.022.629-.14.88-.34.28 0 .44.14.46.46a6.6 6.6 0 0 0-1.5.34l-.48-.16c-.76.2-.6.26-1.12.3l-.76-.14a.2.2 0 0 1 0 .08.2.2 0 0 1-.036.074.18.18 0 0 1-.144.066.402.402 0 0 0 .46.42h.78l4-.36 1.54-.34c0 .14 0 .2.2.18l.74-.28 1.4-.12c1.08 0 1.06-.16 3.4-.54 0-.14 0-.2.14-.22v.2a34 34 0 0 0 4.68-.9v.12c.96-.22.42-.16.68-.36 0 .16 0 .24.16.24h.68v-.5h-1.68a7.2 7.2 0 0 1-1.52.12l-3.42.18v-.24l2-.26h.68l.4-.28v.24c2.68-.22 3.64.44 16-2.2.68 0 .62-.62 1.04-1.78a1.16 1.16 0 0 1-.66-.14 19.4 19.4 0 0 1-3.54.52c-.16 0-.3-.14-.36-.42v-.2h2a4.8 4.8 0 0 0 2-.68c0 .16-.38.26-.14.24zm-91.82 1.54h-.88a16.6 16.6 0 0 1 1.4-4h.58a15.2 15.2 0 0 1-1.1 4m1.06-4.24v-.24c0-.3.16-.5.58-.6v.24c0 .36-.16.56-.58.6m11.64 9v.24l-1.46.14v-.24zm-1.76-.14c0 .3-.42.64-1.4.96l-1.78-.14h-.58v-.54l3.82-.36zm11.86-54.16h-.8v-.3c0-.3.14-.5.52-.6h.32l.6.24a.52.52 0 0 1-.54.6zm13.32-2.6h.28v.54h-.8a.54.54 0 0 1 .48-.6zm-3.36 1.18-1.32-.14v-.44a14.3 14.3 0 0 0 3.38-.64c0 .2.2.28.54.24v.54h-.52a1.8 1.8 0 0 1-1.06-.18 2.3 2.3 0 0 1-1.02.38zm1.66 4.82v-.24l2.14-.2v.24zm2.3-1.86v-.3h1.04v.3zm.24-3.66h-.28l.24-.58 2.38-.22v.3a14.4 14.4 0 0 0-2.36.48zm1.22 5.14v-.54h1.04q.54 0 .56.5l-1.56.14zm6.32-8.6-1.34.38h-.24q-1.21.106-2.42 0c1.74-.12 3.4-.24 4-.34zm-1.44 6v.24l-1.84.16v-.24zm3.02 1.44c0-.22-.38-.38-1.1-.44l-1.84.52h-1.42c-.32-.22-.48-.38-.5-.48h1.64l3.68-.6h1.88v.3c-.802.07-1.594.23-2.36.48zm18.98-4.9h.42a7.2 7.2 0 0 1 2.22-1.5 13.1 13.1 0 0 1-3.14 6.54l-1.04-.64a34 34 0 0 0 1.54-4.44zm-3.2 5.5h.26c-.36.68-.68 1.02-.94 1.04v-.7c.263-.045.511-.155.72-.32zm-2 4.94a7 7 0 0 1 1.44-3.44v.04c-.26 1.86-.68 2.86-1.22 2.92v1.18c-.366.42-.59.945-.64 1.5h-.26l-.14-1.62c.3 0 .54-.3.7-.78zm-.8 2.68a6.8 6.8 0 0 1-.54 2h-.26v-.7c.36-.82.66-1.24.86-1.24zm-15.06 43.52v-.2h.48v.7c-.26 0-.44-.14-.52-.46zm21.48.56c0-.16 0-.24-.26-.22l-1.22.06v-.2l2.86-.24v.24a2.52 2.52 0 0 0-1.5.36zm-1.44-.6c.12 0 0 .12 0 .14s-.14 0 0-.14m.14-3.36-1.6.14v-.34h1.42l1.26-.32c0 .14 0 .2.26.18 1.5-.26 1.36-.34 2-.4.24 0 .4.14.42.42l-3.86.34zm5.6-.48a6.4 6.4 0 0 0-1.58-.12v-.2l1.44-.14v.2c-.14 0 .4 0 .14.24zm.12-.26v-.2h.78v.2zm1.74-.14v-.2c.208-.055.4-.158.56-.3a.56.56 0 0 1 .64.52zm2.22-.28v-.24h.96v.24zm1.32-.12c0-.28 0-.44.34-.48l.32.42a.2.2 0 0 1-.003-.073.18.18 0 0 1 .143-.147l.24.44-1.04-.14zm-14 6v-.46h-.14v.46zm32.74-8.48c.14 0 .22-.18-.14-.24s.18.24-.18.26v.16l.2-.14-.2.16-.4.5.78-.28v-.46zm1.36 1.06h-.14v.46h1.1c0-.3-.74-.4-.98-.4z"/><path fill="#f9dc3e" d="M180.344 22.253v.3h.62c.006-.296.067-.587.18-.86v-.54c-.26 0-.52.42-.76 1.16zm-6-14.26v-.54h-.88v.54zm-17.04 32a28.1 28.1 0 0 0-4.7-6c0-.64 1-1.58 3.18-2.84l6.24-5.16a15.6 15.6 0 0 0 2.46-8.62v-.92c-.24-2.76-2.24-4.98-6-6.68q-3.36-2.26-12-2.5a71.2 71.2 0 0 0-18.82 5.16 77 77 0 0 1-7.26 4.58v.46c.261-.05.508-.16.72-.32a.42.42 0 0 1 .482.232q.04.09.038.188l.46-.24h.22v.2a25.6 25.6 0 0 1-5.04 4l.26.48h-.22l-.56-.2c0 .16-.22.28-.68.32v.2l.54.68a2 2 0 0 1-.78-.18c-.9.126-1.724.573-2.32 1.26l.32-1.38a113 113 0 0 0 2.32-13v-.24a9.5 9.5 0 0 1-2.26-2.1 7 7 0 0 0 0-.98v-.2h-.22q-3.7 5.54-14.22 18.9-8 9.5-8.28 10.56c-2.18 2.26-3.22 3.62-3.12 4-.58.38-.82.74-.72 1.16a.24.24 0 0 1-.32-.18 6.34 6.34 0 0 1-4.16 2.9l-2 .44a.46.46 0 0 0-.38.56v.24l.72-.16v.2l-1.64.64-2.9.68h-1.52c-.22.22 1.22 0 .66.12l-2 .44c-1.16.26-1.78.16-2-.3h-.22a1.1 1.1 0 0 1 0 .48l-.12-.46-1.52.36q-.16-1.06-6.18-7.72c0-.86 1.34-2.1 4.24-3.72l8.34-7.06q2.74-3.52 3.26-11.3l-.12-1.22c-.32-3.66-2.96-6.6-8-8.88-2.94-2-8.24-3.06-15.88-3.22a95.6 95.6 0 0 0-24.72 6.74 95 95 0 0 1-9.56 6v.64a2.5 2.5 0 0 0 .96-.38.54.54 0 0 1 .68.52l.64-.36h.32v.3a37.3 37.3 0 0 1-6.68 5.2l.36.56h-.28l-.68-.24c0 .18-.3.32-.96.38v.34l.74.82a2.7 2.7 0 0 1-1-.2 6.34 6.34 0 0 0-4.26 3.14l.36.56a9 9 0 0 1 2.14-1.68v.92c-.34.071-.664.2-.96.38l.76 1.16a25.3 25.3 0 0 1 4.86-4c.88.22 1.34.5 1.36.8h.68a52 52 0 0 1 14.28-7.72v.64q-1.32 2-1.78 2a2 2 0 0 0 .46 1.18q.12 1.2-6.42 16.2-14.56 34.7-24.72 51.38c.062.326.2.634.4.9a8.3 8.3 0 0 0 3.14-1.2h.36v.64h.62l.64-.36c0 .18.22.28.66.24v.64a5.66 5.66 0 0 1-1.04 2.84 14.7 14.7 0 0 0-2.16 4.8v.3h.62a39 39 0 0 0 6.12-8.82 97.7 97.7 0 0 0 18-6.76 16.8 16.8 0 0 0 9.48-3.26v-.34l-1.56.46h-.36v-.34a14.14 14.14 0 0 0 6.34-2q8.92-6.88 13.48-9.74 9.36-6.88 12.16-13.4l1.04-.24q.75.04 1.5 0c0-.16 0-.26.2-.3 1.4-.14.72 0 1.62-.12l2.28-.88h.4l-.18.12c.284.054.576.054.86 0l.16.68-10.62 16.9-2.36 2.96-1.16 3.88h.22l1.16-.48-.38 1.5.12.44.32.4c-.14 0-.2.14-.16.3v.24l.48-.12q1.06-.921.9-1.68c.496.127 1.01.168 1.52.12v.24c-.46.12-.7.48-.74 1.12v.24h.26c3.88-4.24 13.38-18.7 21-28.54q-.36-1.6 12-4.44h.26q.44 2-2 9.34a25 25 0 0 0-1.3 4.78 37.4 37.4 0 0 0-1.84 6.44l-2.92 9.56a87 87 0 0 0-4.32 15.42c.264-.054.536-.054.8 0l.42-.36a.24.24 0 0 0 .32.18l-.16-.68h1.26c.38 0 .68-.56.96-1.42 0-1.28.2-2 .78-2.12a20.6 20.6 0 0 1 1.44-4.64 20.6 20.6 0 0 1 1.62-5.2c1.1-4 2-6 2.42-6.12l.12.48-.8 2a101.4 101.4 0 0 1-4.24 14.74l.42 1.78h.26q5.2-11.181 14.96-44.28a5.79 5.79 0 0 1 2.78-4.5l-.38-.4v-.2a2.54 2.54 0 0 0 1.56-.88c0-.16-.68-.42-2-.74l3.24-14c.358-.386.777-.71 1.24-.96v.7c-.261.05-.508.16-.72.32l.64.88a20 20 0 0 1 3.66-3.14c.68.18 1 .42 1.04.64h.48a39.5 39.5 0 0 1 10.82-5.8v.46q-.98 1.479-1.34 1.5c.026.32.129.628.3.9a85 85 0 0 1-4.82 12.32 335 335 0 0 1-18.82 39.12c.062.249.178.48.34.68a6 6 0 0 0 2.34-.92h.22v.46h.52l.46-.24q0 .2.5.16v.5a4.24 4.24 0 0 1-.8 2.12 10.6 10.6 0 0 0-1.7 3.64v.24h.48a29.4 29.4 0 0 0 4.64-6.7 75 75 0 0 0 13.68-5.22 12.78 12.78 0 0 0 7.24-2.48v-.24l-1.22.36h-.22v-.24a10.7 10.7 0 0 0 4.8-1.54c4.5-3.46 8-6 10.24-7.4 7.16-5.18 10.52-10.26 10.12-15.18m-1.24.32.16 1.88c-.22.46-.46.7-.68.72l-.28-3.2c.52.18.78.38.8.6m-141.1-15.08h-.32v-.58l1.28-.12v.3a2.5 2.5 0 0 0-.94.38zm-6.28 62.76a4 4 0 0 0-2-.42v-.92c0-.36.16-.6.62-.68s.66.26.68.86a13.6 13.6 0 0 1 1.78-2l.68.28c-.22 1.86-.8 2.82-1.72 2.88zm67.1-70.2c-.32 0-.96-.96-1.86-2.9v-.58c.6 0 1.22.92 1.86 2.9zm-.9-6.96-.26.62-9.12-3.8q9.12.3 9.38 3.18m-38.54 33.16-1.28.12v-.58l1.28-.12zm-1.04-19.84h.32v.92c-.3 0-.68.46-1.18 1.32v-.64c.58-.68.88-1.22.84-1.58zm-2.7 6.38.12 1.22h-.32l-.06-1.26zm-1.42 2.28h.62c0 1-.34 1.54-.84 1.58h-.32a2.9 2.9 0 0 0 .54-1.54zm-1 3.18h.36v.3l-.58.96h-.62v-.3a.8.8 0 0 0 .84-.98zm-1.04 2.86-.18 1.52h-.32l-.14-1.5h.64zm-10.46 29.64c-.42 2-.86 3.14-1.32 3.18v-.3a3.34 3.34 0 0 1 1.34-2.88zm-2 4.16v.3a.54.54 0 0 1-.56.68v-.3q0-.54.56-.68m-.56 8.62h.96v.34c-.343.058-.67.188-.96.38h-.62c0-.32.16-.56.56-.68zm27.58-8.52a51 51 0 0 0-9.6 5.46q-8.74 3.08-8.66 3.78a96 96 0 0 0-10.34 4.6 3.7 3.7 0 0 1-1.7-.44 2.74 2.74 0 0 1 1.42-2.6 5.5 5.5 0 0 1 2.62.44 25.6 25.6 0 0 1 5.06-1.66v-.64l-2 .16a26.3 26.3 0 0 1 5.6-2.62h.96v.3c-1.66.14-2.58.64-2.78 1.5 0 .4.26.56.68.52 1.24-.78 1.86-1.24 1.84-1.38q3.54-.681 19.62-10.26v.58c0 .28-.9 1.06-2.74 2.4zm-16.44 5.4a6.34 6.34 0 0 0 4-1.86c.44 0 .68.14.7.52a14.3 14.3 0 0 0-4.38 2h-.32v-.66m26.62-20.36-8.22 6.52a81 81 0 0 1-9.88 6q-14.6 8-18.14 8.34h-.36q.44-1.64 13-26.62a71 71 0 0 0 17.42-5.16l2-.16a11.18 11.18 0 0 1 8.98 2.3l.12 1.22c-1.48 4.26-3.12 6.76-4.88 7.5zm-16-9.04 1.32-.12v.3l-1.32.12zm18.46-3.14h.96c.9.42 1.36.8 1.4 1.14v.3a2.72 2.72 0 0 1-2.36-1.44m2.62-14.96a38 38 0 0 1-7.04 5.24c-1.26.12-6 2-14.14 5.52a2.6 2.6 0 0 0-1.3-.22v-.58a7.62 7.62 0 0 1 1.58-4.44c.64-3.36 1.32-5.28 2-5.74l6.8-15.3q-.12-1.42 4.36-2.18h.96v.88c2.92-.44 4.76-.7 5.46-.76 5.4-.46 8.22.64 8.44 3.26h.62l-.14-1.54h.68a4.24 4.24 0 0 1 2.56 3.18 4.96 4.96 0 0 1-1.38 3.18c-.42 0-.66-.26-.68-.86h-.68l-.14 1.86q-4.1 6.14-6 6.32c-1.12 1.54-1.8 2.32-2 2.32zm4.18 10.72a2.4 2.4 0 0 0-1.34-.52v-.92h.62l1.36.8a.54.54 0 0 1-.56.68zm4.32 5.12c.6.24.96.5 1.02.74h-.48l-.44.36-.12-1.24zm.4 2.58v-.24l.78-.18v.24zm1.88 2.1c.8-.14 1.2-.18 2.68-.52v.24l-2.84.66a4 4 0 0 0 0-.38zm2.76 1.18c-.96.02-1.912.154-2.84.4v-.24l2.38-.76 1.14-.26.12.44c-.52.12-.14.12-.74.42zm2.52-.6a.52.52 0 0 1-.64-.38l.72-.16a.44.44 0 0 1 .6.38zm6.82-7.34v-.24l1.18-.28.12.44h-1.24zm7.28 44.68a1.8 1.8 0 0 0 0-.74h.26a.42.42 0 0 1 .58.34v.24l-.96.22zm5.22-42.78h-.52q-1.034.43-2.12.7l-.48.12a.48.48 0 0 1-.62-.34l3.36-.8 1.12-.52.38.42c-.421.059-.82.224-1.16.48zm2.62-.84v-.24a1.4 1.4 0 0 0 .64-.42l2.42-.56v.24c-1.046.232-2.07.553-3.06.96zm.38-4.9a2 2 0 0 0-.68.42c0-.16-.38-.16-1 0-.12-.46 1.68-1.12 5.38-2l.52-.12.12.44c-2.6.76-4 1.2-4.34 1.24zm6.52-7.04c-.26 2.96-1.3 4.64-3.14 5.06v-.24l-1.64.64-.72.16a1.8 1.8 0 0 1-1 0l-.14-.66a99 99 0 0 1 7.12-9.82h.56a10.2 10.2 0 0 1-.96 4.78zm11.54-9.88h-.22v-.46h.96v.24a3.2 3.2 0 0 0-.72.3zm-4.8 47.72a3 3 0 0 0-1.5-.34v-.7q0-.36.44-.5c.32 0 .5.18.54.68a8.2 8.2 0 0 1 1.34-1.54l.5.2c-.18 1.42-.62 2.16-1.28 2.22zm50.94-53.38c-.24 0-.7-.72-1.44-2.24v-.46c.46 0 .96.68 1.44 2.18zm-.68-5.32-.22.48-6.9-2.88c4.6.14 6.98.96 7.12 2.4m-29.22 25.18h-.96v-.46h.96zm-.8-15.08h.26v.7q-.36 0-.9 1v-.46c.337-.334.555-.77.62-1.24zm-2 4.84v.92h-.26v-.92zm-1.1 1.74h.48q0 1.18-.62 1.22h-.26c.237-.366.374-.786.4-1.22m-.78 2.38h.22v.26l-.42.74h-.48v-.24c.5 0 .72-.3.68-.76m-.82 2.26-.16 1.2h-.24v-1.18h.48zm-8 22.6q-.48 2.34-1 2.4v-.2a2.66 2.66 0 0 1 1.02-2.2zm-1.48 3.14v.2a.423.423 0 0 1-.239.509.4.4 0 0 1-.201.03v-.24q0-.36.44-.5m-.32 6.48h.74v.24a2.1 2.1 0 0 0-.72.28h-.48q0-.4.44-.5zm20.92-6.46a43.5 43.5 0 0 0-7.3 4.12c-4.48 1.56-6.68 2.54-6.66 2.92a71 71 0 0 0-7.8 3.44 2.9 2.9 0 0 1-1.28-.36 2 2 0 0 1 1.08-2 4.2 4.2 0 0 1 2 .3 21.7 21.7 0 0 1 3.86-1.24v-.46l-1.5.14a20 20 0 0 1 4.28-2h.74v.2c-1.26.12-2 .48-2.12 1.16a.418.418 0 0 0 .52.42c.94-.62 1.38-.96 1.38-1.08q2.68-.48 14.88-7.8v.46c0 .18-.68.78-2 1.8zm-12.48 4a5 5 0 0 0 3.1-1.4c.32 0 .5.12.52.42-1.173.3-2.292.78-3.32 1.42h-.26v-.44zm20.16-15.48-6.2 5a60 60 0 0 1-7.58 4.72q-11.06 6-13.78 6.32h-.26q.34-1.26 9.9-20.2a54.5 54.5 0 0 0 13.22-4l1.5-.12a8.4 8.4 0 0 1 6.8 1.78v.92c-1.06 3.3-2.2 5.1-3.64 5.66zm-12.18-6.86h.96v.24h-.96zm14.1-2.4h.74c.68.34 1.04.64 1.06.88v.2a2 2 0 0 1-1.82-1.02zm2-11.34a28.5 28.5 0 0 1-5.32 4 71.3 71.3 0 0 0-10.8 4.32 2.5 2.5 0 0 0-.98-.14v-.46a5.84 5.84 0 0 1 1.12-3.4c.48-2.58 1.02-4 1.58-4.34l5.22-11.66c0-.68 1.04-1.24 3.28-1.68h.74v.7q3.3-.54 4.14-.62c4-.36 6.24.46 6.42 2.48h.48v-1.12h.48a3.1 3.1 0 0 1 2 2.36 3.86 3.86 0 0 1-.98 2.44c-.32 0-.5-.18-.54-.68h-.48l-.14 1.4c-2.24 3.04-3.74 4.72-4.74 4.72-.84 1.14-1.36 1.72-1.6 1.74zm2.18 7.76v-.7h.48l1.04.64a.437.437 0 0 1-.44.5 2 2 0 0 0-1.02-.4zm-86.82 45.34-.48.12-.42.36a.42.42 0 0 0 .58.34c.32 0 .44-.26.38-.56v-.24zm-1.88-3.68v.24c.32 0 .44-.26.38-.56v-.24a.442.442 0 0 0-.38.56m13.2-24.78.36-.22h-.18a.22.22 0 0 0-.16.26zm0-6.42.56-.14-.12-.48-.56.14zm131.7 18.82-1.26-.14-.22.48v.24l7.54-.64v-.46l-6 .52zm38.5-4.72v.46l.82.14v-.46zm-1.16 0a31.4 31.4 0 0 1-7.56 1.14v.46h.8l.62-.24c5.6-.62 6.26-.4 6.2-1.02v-.34zm-34-8.24-.5-.16a8.4 8.4 0 0 0-.6 2v.2c.4 0 .74-.68 1.08-2zm-6.82-3.68v-.08h-.26l-.46.3.26.44c.36 0 .52-.2.48-.52zm14.82 15.32v-.46h-.24v.46zm30.74-6.94h.36c.2 0 .3-.18.28-.48l-.2-.44a6 6 0 0 0-2.92.74v-.24l-1.54.14c0-.46-.16-.7-.38-.68h-.8c-.94 0-1.38 0-1.84.4 0-.16 0-.24-.16-.24h-.9l-.52.3c0-.16 0-.24-.16-.24l-.32.28h-1.54v.46l.64.16h.6c.205.12.444.17.68.14l.52-.26v.2a38 38 0 0 1-4.92.94.86.86 0 0 0-.5-.2.4.4 0 0 1-.277-.131.4.4 0 0 1-.103-.29l1.04-.14q.345.111.7.18c.84-.42.88-.58 1.32-.62v-.46c-1.755.323-3.535.49-5.32.5h-.16v-.46c4.62-.56 3.08-.24 4.66-.68 0 .16 0 .24.16.24.171-.176.397-.288.64-.32h.32a16.9 16.9 0 0 0 5.36-.7v.2l.52-.26h.48c0-.46.68-.54.92-.56v-.5c-5.62 1.14-7.1.82-8.66 1.26v-.2a6.8 6.8 0 0 1-2 .16 1 1 0 0 0-.46.3c0-.16 0-.24-.18-.24l-4.78.78c0-.14 0-.2-.18-.18a24.3 24.3 0 0 1-5.12.92 1.6 1.6 0 0 0-.62.26c0-.14 0-.2-.26-.18l-2 .16-1.36.34c0-.14 0-.2-.26-.18a11 11 0 0 1-2 .38c-.34 0 .16 0 0-.2l-.42.24h-2.32c-3.6.44-3.2.5-3.6.52h-1.34a.2.2 0 0 1-.001.087.178.178 0 0 1-.199.133c-1.52-.2-2.32-.44-2.32-.72q.3-2.18 1.06-2.24h.26l-.22.48h.26c.48-.26.7-.5.68-.72v-.5h-.48v-.46a1.7 1.7 0 0 1 .14-.94l1.1-1.78v.46h.52v-.46l-.3-.42c.258-.262.583-.45.94-.54v-.24h-.7v-.7a20 20 0 0 0 2-5.14l.5.2c.32 0 .46-.2.44-.54h-.48v-.2a1.8 1.8 0 0 1 .18-.98 3.11 3.11 0 0 0 1.04-2.44c.14 0 .22 0 .24.22.66-.38 1.16-1.36 1.52-3a94 94 0 0 0 4.94-12.5c4.1-11.04 4-12.2 4.5-14.82h-.48c.036.332-.026.666-.18.96a2 2 0 0 0-.78-.18v-.2a5.66 5.66 0 0 1 1.22-3.42h.22l.42 1.6h.48q.12-1.012.38-2c0-.24-.2-.4-.58-.42l-.46.3v-2.6h-.24a1.82 1.82 0 0 1-.64-1.02l-2.66.26a2.4 2.4 0 0 0-.3-.82c0-.24.58-.48 1.8-.72l.54.2.5-.3c0 .16.12.24.3.22l.5-.3c0 .16.12.24.3.22h.24v-.54h-2.92l-.5.34v-.3q-18.76 1.54-21.3 1.78h-2.64c0 .2-.16.32-.54.36l-.54-.24-1.82.46c-.718.065-1.441.065-2.16 0a1.86 1.86 0 0 1-1.02.4l5.34-.34c-.384.262-.835.407-1.3.42a1.8 1.8 0 0 1-1.06-.18c-1.31.404-2.647.718-4 .94l-.54-.2-8.72 1.34a2.2 2.2 0 0 0-1.18-.18c-.786.104-1.562.27-2.32.5l-4.22 1.76.32.52c.307-.054.599-.17.86-.34l1.5.14-.18 1.4a3.77 3.77 0 0 0-2.84 2.36c-2 .92-3.1 1.56-3.1 2v.24h.32l.56-.3.66.78v1.08q0 .5-10.42 22c-6 13.8-9.2 21.34-9.5 22.7-2 .58-3.26 1.42-3.62 2.54 0 .36.66.6 1.84.68v.54l-.54.9v1.08q0 .84 4.52 1.28c0-.18 0-.3.28-.32a16.3 16.3 0 0 1-.56 4h.32a6.94 6.94 0 0 0 1.76-3.46h.26c.3 0 .62.32.98 1.04q-.56.22-4 8.9l.32.52h.32q4.1-10.4 5.16-11.5 5.4-.48 18.66-2l.56-.34a.26.26 0 0 0 .102.22.26.26 0 0 0 .238.04h.58l.56-.34a.26.26 0 0 0 .102.22.26.26 0 0 0 .238.04l6.92-.8c1.78-.14 2.6-.68 2.54-1.6 0-.24 1.02-.52 3.14-.82.314-.003.626.051.92.16 0-.16 1.04-.34 3.16-.52 0-1.12.4-1.72 1.04-1.78v-.54a9.3 9.3 0 0 0-2 .46 12.5 12.5 0 0 1-2.66-.32 2.5 2.5 0 0 1-.86.34l-4.66.14-.56.3q0-.26-.34-.22h-.26l-.6.3c0-.16-.5-.3-1.48-.42l-.6.36h-1.16v-.18q9-.98 8.88-2.44a.52.52 0 0 1 .64.54l1.76-.44v-.54l-14.36.4c0 .18 0 .3-.28.32l-1.76-.14a2.1 2.1 0 0 0-1.12.4l-.66-.24a20 20 0 0 0-4 .66 25.5 25.5 0 0 0-4 0l-3.22.28-1.7-.2c0-.96 1.78-5.62 5.58-14a12.2 12.2 0 0 1 3.08-5.28c.319.005.633.08.92.22l2.3-.78 1.18.18a27 27 0 0 0 6.9-1.7 3.24 3.24 0 0 1 1.5.14l1.76-.42 5.16-.36a34.6 34.6 0 0 0 7.24-1.48v-.54c-.96 0-1.48 0-1.5-.46 0-.72-.76-1.02-2.12-.92v-.54l1.44-.42 3.76-.32v-.54h-2.32v-.58l1.46-.14c.4 0 .56-.22.52-.6-2 0-2.94 0-2.96-.3q-20.46 1-20.52.38a2.3 2.3 0 0 0-.86.38l-.36-.56q5.42-11.52 6.36-11.6c-.036.508-.187 1-.44 1.44v.24h.58c1.44-3.42 2.64-5.2 3.66-5.28 4.28-.38-.6-.66 8.58-2 .252.14.533.215.82.22q5.4-1.1 15.04-2.28v-.54l-3.42.32v-.54a1.86 1.86 0 0 0 1.02-.4v.3c.285-.067.551-.197.78-.38a2.46 2.46 0 0 1 1.36.16 20 20 0 0 1 2.88-.58l2.14-.2c.52-.34.76-.64.74-.92v-.24a6.8 6.8 0 0 1-1.88-.12.54.54 0 0 1 .48-.6l4-.38 1.82-.46c0 .2.12.28.26.28.285-.067.551-.197.78-.38h.3q-.485 1.06-.8 2.18h-.52a2.3 2.3 0 0 0-.3-.96h-.26c-4.84 13.5-7 19.78-11.48 30.14-.82 2.64-1.5 4.12-2.1 4.44a.42.42 0 0 0 .52.42 6.5 6.5 0 0 1-.92 3.86c-2 6-3.44 9.22-4.16 9.82l.2 2.68a.437.437 0 0 1-.44.5h-.48c0-.78-.36-1.16-.86-1.1h-.26a11.1 11.1 0 0 0-1.44 3.44h.48a1.62 1.62 0 0 0 .9-1.5h.96l.56.2a3 3 0 0 0-.62 1.7l.26.44-.64 1.5v.24a3.02 3.02 0 0 1 1.82.52 3.26 3.26 0 0 0 1.48-.6h6.24l1.8-.62a42 42 0 0 0 4.46-.14h.78l.42-.28v.24a12.2 12.2 0 0 1 3.68.14v.24h-1.1v.46a1.6 1.6 0 0 0 .88-.34c.28 0 .44.14.46.46a6.6 6.6 0 0 0-1.5.34l-.48-.16c-.76.2-.6.26-1.12.3l-.76-.14a.182.182 0 0 1-.1.204.2.2 0 0 1-.08.017q-.006.091.029.174a.394.394 0 0 0 .431.245h.78l4-.36 1.54-.34c0 .14 0 .2.2.18l.74-.28 1.4-.12c1.08 0 1.06-.16 3.42-.54 0-.14 0-.2.14-.22v.2a34.4 34.4 0 0 0 4.82-1v.12c.96-.22.42-.16.68-.36 0 .16 0 .24.16.24h.68v-.5h-1.68a7 7 0 0 1-1.52.12l-3.42.18v-.24l2-.26h.68l.4-.28v.24c2.68-.22 3.64.44 16-2.2.68 0 .62-.62 1.04-1.78a1.16 1.16 0 0 1-.66-.14 19.4 19.4 0 0 1-3.54.52c-.16 0-.3-.14-.36-.42v-.2h2a4.8 4.8 0 0 0 2-.68c0 .16-.4.26-.16.24zm-91.76 1.54h-.88a16.5 16.5 0 0 1 1.4-4h.58a15.3 15.3 0 0 1-1.1 4m1.06-4.24v-.24c0-.3.16-.5.58-.6v.24c0 .36-.16.56-.58.6m11.72 9.04v.24l-1.46.14v-.24zm-1.76-.14c0 .3-.42.64-1.4.96l-1.78-.14h-.58v-.54l3.82-.36zm11.76-54.22h-.88v-.3c0-.3.14-.5.52-.6h.32l.6.24a.52.52 0 0 1-.54.6zm13.32-2.6h.28v.54h-.8a.54.54 0 0 1 .48-.6zm-3.32 1.16-1.32-.14v-.26a14.3 14.3 0 0 0 3.32-.6c0 .2.2.28.54.24v.54h-.52a1.8 1.8 0 0 1-1.06-.18 2.3 2.3 0 0 1-1.02.38zm1.66 4.82v-.24l2.14-.2v.24zm2.22-1.82v-.3h1.04v.3zm.24-3.66h-.28l.24-.58 2.38-.22v.3q-1.2.141-2.36.48zm1.22 5.14v-.54h1.04q.54 0 .56.5l-1.56.14zm6.32-8.6-1.34.38h-.32c-.805.071-1.615.071-2.42 0 1.74-.12 3.4-.24 4-.34zm-1.44 6v.24l-1.84.16v-.24zm3.02 1.44c0-.22-.38-.38-1.1-.44l-1.84.52h-1.42c-.32-.22-.48-.38-.5-.48h1.64l3.68-.6h1.88v.3c-.802.07-1.594.23-2.36.48zm18.98-4.9h.42a7.1 7.1 0 0 1 2.22-1.5 13.1 13.1 0 0 1-3.14 6.54l-1.04-.64a34 34 0 0 0 1.54-4.44zm-3.2 5.5h.26c-.36.68-.68 1.02-.94 1.04v-.7a1.6 1.6 0 0 0 .72-.32zm-2 4.94a7 7 0 0 1 1.44-3.44v.24c-.26 1.86-.68 2.86-1.22 2.92v1.18c-.366.42-.59.945-.64 1.5h-.26l-.14-1.62c.3 0 .54-.3.7-.78zm-.8 2.68a6.8 6.8 0 0 1-.54 2h-.26v-.7c.36-.82.66-1.24.86-1.24zm-15.04 43.64v-.2h.48v.7c-.26 0-.44-.14-.52-.46zm21.48.56c0-.16 0-.24-.26-.22l-1.22.12v-.24h.12l2.7-.4v.24a2.52 2.52 0 0 0-1.5.36zm-1.44-.6c.12 0 0 .12 0 .14s-.14 0 0-.14m.14-3.36-1.6.14v-.32l1.46-.14 1.26-.32c0 .14 0 .2.26.18 1.5-.26 1.36-.34 2-.4.24 0 .4.14.42.42l-3.86.34zm5.6-.48a6.4 6.4 0 0 0-1.58-.12v-.18l1.44-.14v.14c-.14 0 .4 0 .14.24zm.12-.26v-.2h.78v.2zm1.74-.14v-.2c.208-.055.4-.157.56-.3a.56.56 0 0 1 .579.298.6.6 0 0 1 .061.222zm2.22-.28v-.24h.96v.24zm1.32-.12c0-.28 0-.44.34-.48l.32.42a.18.18 0 0 1 .023-.14.18.18 0 0 1 .117-.08l.24.44-1.04-.14zm18.68-2.4c.14 0 .22-.18-.14-.24s.18.24-.18.26v.16l.2-.14-.2.16-.4.5.78-.28v-.46zm1.36 1.06h-.14v.46h1.1c0-.3-.74-.4-.98-.4z"/></svg>