<svg xmlns="http://www.w3.org/2000/svg" width="228" height="256" fill="none" viewBox="0 0 228 256">
  <g fill="#e434aa" clip-path="url(#a)">
    <path d="m21.11 194.745-9.346-5.398L115.89 9.007l9.34 5.396z"/>
    <path d="M9.618 174.943h208.246v10.789H9.618z"/>
    <path d="M117.904 241.143 13.747 181.007l5.396-9.35 104.16 60.144zm90.484-156.74L104.231 24.26l5.396-9.34 104.159 60.134z"/>
    <path d="m19.168 84.364-5.399-9.349L117.937 14.88l5.396 9.342z"/>
    <path d="M206.468 194.745 102.349 14.403l9.342-5.396 104.127 180.34zM17.879 67.855h10.795v120.287H17.881z"/>
    <path d="M198.882 67.856h10.792v120.288h-10.792z"/>
    <path d="m116.072 236.577-4.714-8.167 90.587-52.307 4.714 8.167z"/>
    <path d="M223.976 191.649c-6.238 10.858-20.151 14.563-31.007 8.326-10.857-6.246-14.563-20.159-8.326-31.017 6.246-10.857 20.159-14.563 31.017-8.324 10.92 6.309 14.626 20.157 8.316 31.015M42.85 87.039c-6.246 10.857-20.16 14.563-31.017 8.323C.975 89.117-2.731 75.206 3.509 64.348c6.245-10.858 20.157-14.564 31.014-8.326 10.858 6.31 14.564 20.159 8.326 31.016M3.58 191.648c-6.248-10.858-2.54-24.706 8.316-31.017 10.857-6.237 24.706-2.531 31.017 8.326 6.237 10.858 2.531 24.706-8.327 31.017-10.92 6.237-24.769 2.532-31.006-8.326m181.126-104.61c-6.237-10.858-2.531-24.707 8.326-31.017 10.858-6.238 24.706-2.532 31.015 8.326 6.237 10.858 2.533 24.706-8.324 31.017-10.858 6.237-24.771 2.531-31.017-8.327m-70.928 168.26a22.67 22.67 0 0 1-22.69-22.69 22.68 22.68 0 0 1 6.64-16.051 22.67 22.67 0 0 1 16.05-6.64 22.67 22.67 0 0 1 22.69 22.691c0 12.485-10.142 22.69-22.69 22.69m0-209.22a22.67 22.67 0 0 1-20.969-14.005 22.7 22.7 0 0 1-1.722-8.686A22.67 22.67 0 0 1 113.778.698a22.67 22.67 0 0 1 22.69 22.69 22.67 22.67 0 0 1-22.69 22.69"/>
  </g>
  <defs>
    <clipPath id="a">
      <path fill="#ebebeb" d="M0 0h227.556v256H0z"/>
    </clipPath>
  </defs>
</svg>
