<svg width="257" height="254" viewBox="0 0 257 254" fill="none"
  xmlns="http://www.w3.org/2000/svg">
  <g clip-path="url(#clip0_20_1020)">
    <path fill-rule="evenodd" clip-rule="evenodd" d="M100.521 93.6567C97.539 93.6567 95.3021 95.8936 95.3021 98.8761V156.538C95.3021 159.521 97.539 161.758 100.521 161.758H158.184C161.166 161.758 163.403 159.521 163.403 156.538V98.8761C163.403 95.8936 161.166 93.6567 158.184 93.6567H100.521ZM59.0147 52.3984C56.2807 52.3984 54.2924 54.6353 54.2924 57.1208V197.796C54.2924 200.53 56.5293 202.519 59.0147 202.519H199.69C202.424 202.519 204.413 200.282 204.413 197.796V57.1208C204.413 54.3868 202.176 52.3984 199.69 52.3984H59.0147Z" fill="#F7F7F7"/>
    <path fill-rule="evenodd" clip-rule="evenodd" d="M2.59515 129.942V221.406C2.59515 227.62 4.33496 233.336 7.31748 238.058L40.3738 205.002V129.942H2.59515ZM17.7563 248.746L50.5641 215.938H123.387V253.717H34.9058C28.6922 253.717 22.7272 251.728 17.7563 248.746ZM137.803 253.717H223.053C240.949 253.717 255.364 239.301 255.364 221.406V33.0099C255.364 15.1148 240.949 0.699219 223.053 0.699219H131.838V38.4779H207.147C213.112 38.4779 217.834 43.2002 217.834 49.1652V205.251C217.834 211.216 213.112 215.938 207.147 215.938H137.803V253.717Z" fill="url(#paint0_linear_20_1020)"/>
  </g>
  <defs>
    <linearGradient id="paint0_linear_20_1020" x1="217.039" y1="94.5717" x2="92.5829" y2="218.18" gradientUnits="userSpaceOnUse">
      <stop stop-color="#0096FF"/>
      <stop offset="1" stop-color="#FF1E56"/>
    </linearGradient>
    <clipPath id="clip0_20_1020">
      <rect width="256" height="253.515" fill="#EBEBEB" transform="translate(0.344238 0.238281)"/>
    </clipPath>
  </defs>
</svg>
