<svg xmlns="http://www.w3.org/2000/svg" width="257" height="214" fill="none" viewBox="0 0 257 214">
  <g clip-path="url(#a)">
    <path fill="#ebebeb" fill-rule="evenodd" d="m149.404 44.085 12.677 13.008-.021.02-81.265 83.485c-8.888 9.139-20.746 14.179-33.362 14.179-12.615 0-24.473-5.04-33.362-14.179-18.39-18.905-18.39-49.648 0-68.553L84.195 0l12.677 13.008-70.123 72.045c-11.408 11.712-11.408 30.784 0 42.516s29.982 11.732 41.39 0zM134.74 29.32l-80.896 83.61-12.595-13.029 80.896-83.61c8.847-9.16 20.643-14.2 33.198-14.2s24.35 5.04 33.198 14.2l6.308 6.504-12.616 13.029-6.308-6.504c-5.489-5.688-12.779-8.804-20.582-8.804s-15.115 3.116-20.603 8.804m107.745 43.416c-8.888-9.14-20.746-14.18-33.362-14.18-12.615 0-24.473 5.04-33.362 14.18L94.496 156.22l12.657 13.007 81.265-83.485c11.407-11.732 29.983-11.71 41.39 0 5.509 5.668 8.561 13.217 8.561 21.269s-3.031 15.601-8.561 21.268l-70.124 72.045 12.678 13.009 70.123-72.046c18.391-18.905 18.391-49.647 0-68.553m-39.762 27.657.01-.011h-.02zm0 0-80.886 83.6c-11.366 11.732-29.84 11.753-41.206 0l-6.308-6.504-12.615 13.028 6.308 6.504c8.847 9.16 20.643 14.2 33.197 14.2s24.351-5.04 33.199-14.2l80.896-83.609z" clip-rule="evenodd"/>
  </g>
  <defs>
    <clipPath id="a">
      <path fill="#ebebeb" d="M.278 0h256v214h-256z"/>
    </clipPath>
  </defs>
</svg>
