<svg xmlns="http://www.w3.org/2000/svg" width="256" height="256" fill="none" viewBox="0 0 256 256">
  <g clip-path="url(#a)">
    <path fill="#ebebeb" d="M31.284 45.087A127.8 127.8 0 0 1 128.393.5C199.156.5 256.5 57.844 256.5 128.596c0 38.827-17.28 73.632-44.587 97.12L31.295 45.086zM19.881 60.51 196.48 237.108a126 126 0 0 1-17.6 9.237L10.644 78.121a128.5 128.5 0 0 1 9.237-17.61M3.935 98.239 158.76 253.065a128.3 128.3 0 0 1-23.413 3.435L.5 121.652c.42-7.894 1.57-15.732 3.435-23.413M2.12 150.1 106.9 254.889A128.21 128.21 0 0 1 2.11 150.1z"/>
  </g>
  <defs>
    <clipPath id="a">
      <path fill="#ebebeb" d="M0 0h256v256H0z"/>
    </clipPath>
  </defs>
</svg>
