<svg xmlns="http://www.w3.org/2000/svg" width="256" height="250" fill="none" viewBox="0 0 256 250"><g clip-path="url(#a)"><path fill="#00005b" d="M45.223 0H210.18c25.002 0 45.223 20.221 45.223 45.223v158.581c0 25.002-20.221 45.223-45.223 45.223H45.223C20.221 249.027 0 228.806 0 203.804V45.224C0 20.22 20.221 0 45.223 0"/><path fill="#99f" d="M105.128 153.087H65.464L57.36 178.25c-.213.959-1.066 1.599-2.025 1.492H35.29c-1.173 0-1.493-.639-1.173-1.919L68.45 79.409c.32-1.067.64-2.026 1.066-3.305.427-2.239.64-4.585.64-6.931-.106-.533.32-1.067.853-1.173h27.615c.747 0 1.28.32 1.386.853l38.918 108.756c.321 1.173 0 1.706-1.066 1.706h-22.285c-.746.107-1.492-.426-1.706-1.173l-8.744-25.589v.533zm-33.48-21.218h27.083c-.64-2.239-1.493-4.905-2.453-7.677-.96-2.878-1.919-5.971-2.878-9.169-1.067-3.305-2.026-6.504-3.092-9.809-1.067-3.306-2.026-6.398-2.879-9.49-.852-2.986-1.599-5.758-2.346-8.317h-.213c-.96 4.585-2.132 9.17-3.625 13.755-1.6 5.118-3.199 10.449-4.905 15.781-1.386 5.437-3.093 10.449-4.691 14.927zm130.082 11.622h-33.8c.426 3.305 1.492 6.61 3.305 9.49 1.919 2.878 4.584 5.117 7.783 6.397 4.265 1.813 8.957 2.772 13.648 2.665 3.732-.106 7.464-.426 11.088-1.173a40 40 0 0 0 9.49-2.452c.533-.427.853-.213.853.853v16.313c0 .427-.107.853-.213 1.28-.213.32-.427.533-.747.746a45.6 45.6 0 0 1-10.662 3.199 72 72 0 0 1-15.141 1.279c-8.104 0-14.927-1.279-20.472-3.732-5.224-2.239-9.809-5.757-13.435-10.129a39.1 39.1 0 0 1-7.356-13.968c-1.493-5.011-2.24-10.236-2.24-15.567 0-5.757.853-11.409 2.666-16.954a43.5 43.5 0 0 1 7.996-14.607c3.519-4.265 7.89-7.677 12.901-10.13 5.012-2.452 10.982-3.305 17.807-3.305 5.651-.106 11.302.96 16.527 3.305 4.371 1.92 8.21 4.799 11.196 8.53 2.771 3.626 5.011 7.677 6.397 12.155 1.386 4.265 2.026 8.636 2.026 13.008 0 2.559-.107 4.798-.213 6.824-.213 2.026-.321 3.519-.427 4.478-.107.747-.746 1.386-1.492 1.386-.64 0-1.813.107-3.52.213-1.706.213-3.732.321-6.184.321s-5.012-.427-7.783-.427zm-33.8-15.567h22.497c2.772 0 4.799 0 6.077-.106.853-.107 1.706-.321 2.453-.853v-1.067c0-1.386-.213-2.665-.64-3.945-1.919-5.97-7.571-10.023-13.862-9.809a15.01 15.01 0 0 0-14.18 8.104c-1.28 2.453-2.026 5.012-2.346 7.677z"/></g><defs><clipPath id="a"><path fill="#ebebeb" d="M0 0h256v250H0z"/></clipPath></defs></svg>
