<svg width="256" height="256" viewBox="0 0 256 256" fill="none"
  xmlns="http://www.w3.org/2000/svg">
  <g clip-path="url(#clip0_18_1607)">
    <rect x="17" y="25" width="221" height="207" rx="30" fill="#EBEBEB"/>
    <path d="M237.248 18.7517C249.289 30.792 255.539 45.8744 255.996 63.9989V192.001C255.539 210.121 249.289 225.208 237.248 237.248C225.208 249.289 210.121 255.539 191.997 256H63.9988C45.8743 255.539 30.7919 249.289 18.7516 237.248C6.71123 225.208 0.46067 210.121 -0.00012207 192.001V63.9989C0.46067 45.8744 6.71123 30.792 18.7516 18.7517C30.7919 6.71136 45.8743 0.460792 63.9988 0H191.997C210.121 0.460792 225.208 6.71136 237.248 18.7517ZM219.593 121.752C215.57 117.75 213.479 112.728 213.313 106.686V63.9989C213.185 57.9574 211.111 52.9271 207.092 48.908C203.073 44.8846 198.038 42.8153 191.997 42.6873H170.685V149.314L85.3147 42.6873H63.9988C57.9573 42.8153 52.927 44.8846 48.9079 48.908C44.8845 52.9271 42.8152 57.9574 42.6872 63.9989V106.686C42.5208 112.728 40.4301 117.75 36.4067 121.752C32.3876 125.749 27.3573 127.831 21.3158 127.998C27.3573 128.169 32.3876 130.251 36.4067 134.248C40.4301 138.25 42.5208 143.272 42.6872 149.314V192.001C42.8152 198.038 44.8845 203.073 48.9079 207.092C52.927 211.111 57.9573 213.185 63.9988 213.313H85.3147V106.686L170.685 213.313H191.997C198.038 213.185 203.073 211.111 207.092 207.092C211.111 203.073 213.185 198.038 213.313 192.001V149.314C213.479 143.272 215.57 138.25 219.593 134.248C223.612 130.251 228.642 128.169 234.684 127.998C228.642 127.831 223.612 125.749 219.593 121.752Z" fill="#3C5AFD"/>
  </g>
  <defs>
    <clipPath id="clip0_18_1607">
      <rect width="256" height="256" fill="#EBEBEB"/>
    </clipPath>
  </defs>
</svg>
