<svg xmlns="http://www.w3.org/2000/svg" width="256" height="256" fill="none" viewBox="0 0 256 256"><path fill="#efefef" d="M201.735 0H62.197v256h191.177V53.833L202.366.658z"/><path fill="#2e1915" d="M2 13.65h185.664v71.716H2z"/><path fill="#e5e5e5" d="M201.735 0v53.833h51.639z"/><path fill="#fd3316" d="M83.042 27.748H72.31a.457.457 0 0 0-.457.448l-.12 3.374-.008.091-8.906 38.684a.46.46 0 0 0 .458.567h7.634a.46.46 0 0 0 .448-.366l1.865-8.933a.46.46 0 0 1 .448-.365h8.384a.47.47 0 0 1 .448.347l2.258 8.969a.47.47 0 0 0 .448.348h8.311a.457.457 0 0 0 .448-.577L83.49 28.095a.466.466 0 0 0-.448-.347m-8.036 25.106 2.898-16.21 3.054 16.21zm45.458-24.43v7.69a.33.33 0 0 1-.475.292c-1.253-.621-4.764-2.24-7.772-2.313-3.739-.082-5.568 1.993-5.568 4.124 0 6.418 15.808 7.259 15.808 20.224 0 11.382-9.271 12.48-13.678 12.48-7.104 0-10.294-2.195-10.925-2.698a.31.31 0 0 1-.12-.255v-8.412c0-.256.284-.411.504-.274 1.48.96 5.988 3.657 10.039 3.657 4.489 0 4.571-2.057 4.571-3.584 0-6.309-15.113-7.232-15.113-20.8 0-12.069 11.812-12.069 13.934-12.069 5.056 0 7.917 1.29 8.621 1.655a.33.33 0 0 1 .174.284"/><path fill="#989898" d="M169.58 104.448c26.605 0 29.814 13.769 29.814 21.029 0 9.938-2.221 18.112-2.221 24.338 0 8.412 11.227 6.482 11.227 6.482v15.095c-8.037 0-11.026 2.158-11.026 8.211 0 3.108 2.075 17.453 2.075 23.67 0 18.314-14.08 22.117-22.939 22.117h-6.994l-.046-14.601c13.303 0 12.873-5.44 12.873-9.765 0-5.531-1.554-12.617-1.554-22.29s8.118-14.683 8.118-14.683-8.466-5.358-8.466-13.651 2.076-16.247 2.076-24.192c0-9.161-12.919-7.232-12.919-7.232z"/><path fill="#6a6a6a" d="M171.317 106.204c10.212.247 17.572 2.669 21.897 7.232 2.953 3.117 4.452 7.168 4.452 12.05 0 5.431-.685 10.368-1.289 14.729-.503 3.621-.932 6.738-.932 9.609 0 3.173 1.371 5.605 3.949 7.013 1.683.923 3.831 1.39 6.373 1.39l.905-.019v11.502c-3.611.155-6.062.832-7.826 2.139-2.185 1.619-3.2 4.078-3.2 7.763 0 1.38.347 4.507.786 8.457.576 5.193 1.289 11.666 1.289 15.214 0 7.515-2.496 13.065-7.415 16.512-4.818 3.373-10.715 3.876-13.796 3.876h-5.276l-.027-11.191c5.111-.192 8.484-1.261 10.542-3.328 2.34-2.349 2.331-5.339 2.322-7.744v-.393c0-2.478-.293-5.166-.631-8.274-.576-4.651-.888-9.33-.933-14.016 0-3.566 1.207-6.857 3.594-9.783 1.828-2.249 3.693-3.429 3.712-3.438l2.349-1.453-2.34-1.482c-.073-.045-7.662-4.928-7.662-12.187 0-4.078.53-8.174 1.042-12.133.512-3.94 1.033-8.018 1.033-12.059 0-5.806-4.342-9.134-11.922-9.134l-.996.019zm-1.738-1.756.019 14.519s1.124-.164 2.715-.164c3.785 0 10.194.95 10.194 7.405 0 7.945-2.075 15.9-2.075 24.192s8.466 13.651 8.466 13.651-8.119 5.01-8.119 14.683 1.555 16.759 1.555 22.29c0 4.316.429 9.765-12.873 9.765l.045 14.601h6.995c8.859 0 22.939-3.803 22.939-22.117 0-6.217-2.075-20.562-2.075-23.67 0-6.044 2.998-8.211 11.026-8.211v-15.095s-1.116.192-2.633.192c-3.319 0-8.595-.905-8.595-6.674 0-6.217 2.222-14.4 2.222-24.338.009-7.25-3.191-21.029-29.806-21.029"/><path fill="#989898" d="M139.07 104.448c-26.606 0-29.815 13.769-29.815 21.029 0 9.938 2.222 18.112 2.222 24.338 0 8.412-11.228 6.482-11.228 6.482v15.095c8.037 0 11.026 2.158 11.026 8.211 0 3.108-2.075 17.453-2.075 23.67 0 18.314 14.08 22.117 22.939 22.117h6.995l.045-14.601c-13.302 0-12.873-5.44-12.873-9.765 0-5.531 1.555-12.617 1.555-22.29s-8.119-14.683-8.119-14.683 8.466-5.358 8.466-13.651-2.075-16.247-2.075-24.192c0-9.161 12.918-7.232 12.918-7.232z"/><path fill="#6a6a6a" d="m137.342 106.204-.019 10.889a33 33 0 0 0-.996-.018c-7.58 0-11.922 3.328-11.922 9.133 0 4.041.53 8.119 1.033 12.06.512 3.959 1.042 8.055 1.042 12.132 0 7.26-7.589 12.142-7.662 12.188l-2.34 1.481 2.349 1.454c.019.009 1.884 1.188 3.712 3.437 2.387 2.926 3.594 6.217 3.594 9.783 0 5.422-.494 9.984-.933 14.016-.338 3.109-.631 5.797-.631 8.274v.394c-.009 2.404-.018 5.394 2.322 7.744 2.058 2.066 5.431 3.136 10.542 3.328l-.036 11.172h-5.276c-3.081 0-8.978-.503-13.796-3.876-4.919-3.447-7.415-8.997-7.415-16.512 0-3.548.713-10.012 1.289-15.214.439-3.95.786-7.077.786-8.457 0-3.676-1.015-6.144-3.2-7.763-1.764-1.307-4.215-1.984-7.826-2.139v-11.502l.905.019c2.542 0 4.69-.467 6.373-1.39 2.587-1.408 3.949-3.84 3.949-7.013 0-2.871-.429-5.988-.932-9.609-.604-4.361-1.289-9.298-1.289-14.729 0-4.882 1.499-8.933 4.452-12.05 4.352-4.563 11.712-6.995 21.925-7.232m1.728-1.756c-26.606 0-29.815 13.769-29.815 21.029 0 9.938 2.222 18.112 2.222 24.338 0 5.76-5.276 6.674-8.595 6.674-1.527 0-2.633-.192-2.633-.192v15.095c8.037 0 11.026 2.158 11.026 8.211 0 3.108-2.075 17.453-2.075 23.67 0 18.314 14.08 22.117 22.939 22.117h6.995l.045-14.601c-13.302 0-12.873-5.44-12.873-9.765 0-5.531 1.555-12.617 1.555-22.29s-8.119-14.683-8.119-14.683 8.466-5.358 8.466-13.651-2.075-16.247-2.075-24.192c0-6.445 6.409-7.405 10.194-7.405 1.591 0 2.715.164 2.715.164z"/></svg>