<svg xmlns="http://www.w3.org/2000/svg" width="256" height="256" fill="none" viewBox="0 0 256 256">
  <g clip-path="url(#a)">
    <mask id="b" width="256" height="256" x="0" y="0" maskUnits="userSpaceOnUse" style="mask-type:luminance">
      <path fill="#ebebeb" d="M256 0H0v256h256z"/>
    </mask>
    <g mask="url(#b)">
      <path fill="#00ddb3" d="M191.227 0H64.774C29 0 0 29 0 64.774v126.453C0 227 29 256 64.774 256h126.453C227 256 256 227 256 191.227V64.774C256 29 227 0 191.227 0"/>
      <path fill="#00ddb3" d="M191.227 0H64.774C29 0 0 29 0 64.774v126.453C0 227 29 256 64.774 256h126.453C227 256 256 227 256 191.227V64.774C256 29 227 0 191.227 0"/>
      <path fill="#ebebeb" d="M194.566 57.336c-44.066 0-60.395 31.464-73.525 56.74l-8.579 16.172c-13.903 26.806-24.292 43.1-51.062 43.1a12.64 12.64 0 0 0-11.692 7.812 12.65 12.65 0 0 0 2.747 13.788 12.68 12.68 0 0 0 8.945 3.713c44.084 0 60.414-31.465 73.544-56.741l8.561-16.171c13.92-26.808 24.309-43.1 51.061-43.1a12.66 12.66 0 0 0 8.962-3.702 12.65 12.65 0 0 0 3.712-8.955 12.68 12.68 0 0 0-12.674-12.656"/>
    </g>
  </g>
  <defs>
    <clipPath id="a">
      <path fill="#ebebeb" d="M0 0h256v256H0z"/>
    </clipPath>
  </defs>
</svg>
