<svg width="254" height="256" viewBox="0 0 254 256" fill="none" xmlns="http://www.w3.org/2000/svg">
<path d="M3.05925 1.91248C2.63378 1.9201 2.21549 2.02344 1.83543 2.21484C1.45537 2.40624 1.12329 2.68079 0.863862 3.0181C0.60443 3.35541 0.424303 3.74682 0.336851 4.16327C0.249398 4.57973 0.256866 5.01053 0.358701 5.4237L61.5829 253.247C61.7017 253.73 61.9458 254.173 62.2905 254.532C62.6352 254.891 63.0684 255.153 63.5464 255.292C64.0245 255.43 64.5305 255.44 65.0137 255.321C65.4969 255.202 65.9401 254.957 66.2988 254.612L250.483 77.445C250.842 77.1001 251.104 76.6668 251.242 76.1886C251.38 75.7105 251.39 75.2043 251.27 74.7212C251.151 74.238 250.906 73.7949 250.561 73.4363C250.216 73.0778 249.782 72.8166 249.304 72.6789L3.88999 2.02291C3.62008 1.94513 3.34011 1.90791 3.05925 1.91248ZM7.03478 8.82449L243.017 76.7649L65.9098 247.123L7.03478 8.82449Z" fill="white"/>
<path d="M125.834 37.2448C125.46 37.2367 125.09 37.3024 124.742 37.4381C124.394 37.5738 124.077 37.7768 123.808 38.0354L31.7585 126.644C31.4003 126.989 31.1392 127.422 31.0016 127.9C30.8639 128.378 30.8545 128.884 30.9743 129.367C31.0942 129.85 31.3389 130.293 31.6841 130.651C32.0293 131.009 32.4626 131.27 32.9407 131.408L155.567 166.751C156.045 166.888 156.55 166.898 157.033 166.779C157.515 166.659 157.958 166.415 158.316 166.07C158.675 165.726 158.936 165.293 159.074 164.816C159.212 164.338 159.222 163.833 159.103 163.35L128.527 39.3982C128.377 38.793 128.032 38.254 127.545 37.8647C127.058 37.4754 126.457 37.2575 125.834 37.2448ZM124.2 45.5272L152.43 159.949L39.2277 127.322L124.2 45.5272Z" fill="white"/>
<path d="M80.0978 81.098C79.6724 81.1056 79.2541 81.209 78.874 81.4004C78.4939 81.5918 78.1619 81.8663 77.9024 82.2036C77.643 82.541 77.4629 82.9324 77.3754 83.3488C77.288 83.7653 77.2954 84.1961 77.3973 84.6093L92.5916 146.177C92.7106 146.661 92.9549 147.104 93.2999 147.464C93.6449 147.823 94.0785 148.084 94.5569 148.223C95.0353 148.361 95.5417 148.371 96.025 148.251C96.5084 148.131 96.9516 147.886 97.3101 147.54L143.044 103.46C143.402 103.115 143.663 102.682 143.8 102.203C143.938 101.725 143.947 101.219 143.827 100.736C143.707 100.254 143.462 99.811 143.116 99.4529C142.771 99.0949 142.337 98.8341 141.859 98.6968L80.9286 81.2085C80.6587 81.1307 80.3787 81.0935 80.0978 81.098ZM84.0708 88.0025L135.577 102.785L96.9135 140.046L84.0708 88.0025Z" fill="white"/>
<path d="M65.0085 19.6002C64.6353 19.5924 64.2642 19.6585 63.9166 19.7946C63.5691 19.9307 63.2518 20.1342 62.9831 20.3933L17.2494 64.4704C16.8912 64.8157 16.6302 65.2493 16.4927 65.7274C16.3552 66.2056 16.3461 66.7115 16.4661 67.1943C16.5862 67.6772 16.8313 68.1199 17.1767 68.4779C17.5222 68.836 17.9558 69.0968 18.434 69.234L79.3545 86.7249C79.8323 86.8622 80.3377 86.8715 80.8202 86.7518C81.3026 86.632 81.7451 86.3874 82.1032 86.0426C82.4612 85.6978 82.7222 85.2648 82.8601 84.7872C82.9979 84.3096 83.0076 83.8042 82.8883 83.3216L67.7015 21.7561C67.5529 21.15 67.2085 20.6099 66.7215 20.2196C66.2346 19.8293 65.6324 19.6132 65.0085 19.6002ZM63.3771 27.8825L76.2122 79.9258L24.7186 65.1431L63.3771 27.8825ZM186.862 54.6973C186.489 54.6899 186.119 54.7561 185.771 54.8922C185.424 55.0283 185.107 55.2316 184.839 55.4904L139.1 99.565C138.742 99.9103 138.48 100.344 138.342 100.822C138.204 101.301 138.195 101.807 138.315 102.291C138.435 102.774 138.68 103.217 139.026 103.575C139.372 103.933 139.806 104.194 140.285 104.331L201.208 121.819C201.686 121.957 202.191 121.966 202.674 121.846C203.156 121.727 203.599 121.482 203.957 121.137C204.315 120.792 204.576 120.359 204.714 119.882C204.851 119.404 204.861 118.899 204.742 118.416L189.557 56.8507C189.408 56.2446 189.063 55.7048 188.576 55.3149C188.088 54.9251 187.486 54.7096 186.862 54.6973ZM185.231 62.9796L198.066 115.025L146.572 100.243L185.231 62.9821V62.9796ZM95.2315 142.719C94.5364 142.745 93.8753 143.027 93.3743 143.509L47.6406 187.589C47.2824 187.934 47.0214 188.368 46.884 188.846C46.7465 189.324 46.7373 189.83 46.8574 190.313C46.9774 190.796 47.2225 191.238 47.568 191.596C47.9134 191.954 48.347 192.215 48.8253 192.352L109.758 209.841C110.236 209.977 110.74 209.986 111.222 209.866C111.704 209.746 112.146 209.502 112.504 209.158C112.861 208.813 113.122 208.381 113.26 207.904C113.398 207.427 113.408 206.922 113.29 206.44L98.0927 144.872C97.9366 144.239 97.5667 143.678 97.0454 143.286C96.5241 142.894 95.8835 142.693 95.2315 142.719ZM93.7708 151.001L106.616 203.047L55.1098 188.264L93.7708 151.001Z" fill="white"/>
</svg>
