<svg width="256" height="210" viewBox="0 0 256 210" fill="none"
  xmlns="http://www.w3.org/2000/svg">
  <path d="M100.142 115.858C101.069 99.3173 109.169 84.7448 121.389 74.4146C133.372 64.268 149.501 58.0664 167.1 58.0664C184.682 58.0664 200.811 64.268 212.804 74.4146C225.014 84.7448 233.114 99.3173 234.05 115.84C234.977 132.836 228.146 148.624 216.162 160.328C203.943 172.232 186.562 179.702 167.1 179.702C147.638 179.702 130.223 172.232 118.012 160.328C106.02 148.624 99.2061 132.836 100.142 115.858Z" fill="#EBEBEB"/>
  <path d="M132.752 117.333C133.228 108.846 137.384 101.369 143.654 96.0681C149.803 90.8618 158.079 87.6797 167.109 87.6797C176.13 87.6797 184.406 90.8618 190.56 96.0681C196.825 101.369 200.981 108.846 201.461 117.324C201.937 126.045 198.432 134.146 192.283 140.151C186.013 146.259 177.095 150.092 167.109 150.092C157.123 150.092 148.187 146.259 141.921 140.151C135.768 134.146 132.272 126.045 132.752 117.333Z" fill="#265787"/>
  <path d="M78.2082 134.768C78.2667 138.097 79.3282 144.565 80.9204 149.616C84.2667 160.307 89.9429 170.197 97.841 178.914C105.946 187.874 115.927 195.07 127.454 200.18C139.571 205.545 152.7 208.28 166.338 208.258C179.952 208.24 193.081 205.451 205.198 200.045C216.726 194.886 226.698 187.658 234.789 178.694C242.683 169.941 248.35 160.032 251.705 149.341C253.392 143.939 254.458 138.457 254.885 132.956C255.304 127.536 255.128 122.107 254.359 116.683C252.857 106.113 249.2 96.1955 243.569 87.1549C238.419 78.8475 231.78 71.5746 223.887 65.4532L223.905 65.4397L144.245 4.2744C144.173 4.22043 144.114 4.16196 144.038 4.11248C138.811 0.100468 130.023 0.113961 124.274 4.13497C118.463 8.20096 117.798 14.9251 122.97 19.1665L122.948 19.189L156.173 46.2072L54.9052 46.3151H54.7703C46.3999 46.3241 38.3534 51.8159 36.7612 58.756C35.124 65.8265 40.8092 71.6916 49.5124 71.7231L49.4989 71.7546L100.828 71.6556L9.2348 141.96C9.11786 142.046 8.99192 142.136 8.88397 142.221C0.243744 148.837 -2.54938 159.839 2.89293 166.802C8.4162 173.881 20.1599 173.895 28.8901 166.842L78.8784 125.93C78.8784 125.93 78.1497 131.454 78.2082 134.768ZM206.66 153.263C196.36 163.757 181.94 169.707 166.338 169.739C150.712 169.766 136.293 163.869 125.993 153.394C120.96 148.289 117.262 142.415 114.982 136.158C112.747 130.01 111.879 123.483 112.454 116.899C112.999 110.462 114.915 104.323 117.973 98.7682C120.978 93.3079 125.116 88.3738 130.225 84.1999C140.237 76.0409 152.984 71.6241 166.315 71.6061C179.66 71.5881 192.398 75.9645 202.419 84.0965C207.519 88.2524 211.653 93.1685 214.657 98.6198C217.729 104.17 219.632 110.287 220.199 116.741C220.765 123.317 219.897 129.834 217.662 135.987C215.377 142.262 211.693 148.136 206.66 153.263Z" fill="#EA7600"/>
</svg>
