<svg xmlns="http://www.w3.org/2000/svg" width="257" height="256" fill="none" viewBox="0 0 257 256">
  <g clip-path="url(#a)">
    <path fill="#1c4913" d="M1.942.194h254.863v254.862H1.942zm32.85 31.257v184.347H66.46v-80.236Q78 175.685 89.542 215.798h31.621V31.451H89.306v75.348a46966 46966 0 0 0-23.111-75.348zm157.059 43.69v108.681h-23.01v-33.451c-10.65 2.494-21.318 4.934-31.976 7.41v33.569c-.209 3.353.027 6.72.7 10.012a19.9 19.9 0 0 0 7.856 11.096 18.9 18.9 0 0 0 10.859 3.377h43.354c3.294.197 6.6-.048 9.83-.729a20.17 20.17 0 0 0 11.35-8.474 19.44 19.44 0 0 0 3.059-11.004V75.168z"/>
    <path fill="#fefffc" d="M34.792 31.45h31.403a82667 82667 0 0 1 23.101 75.358c-.064-25.113 0-50.226 0-75.348h31.858v184.347H89.533a92899 92899 0 0 1-23.083-80.236v80.236H34.792zM191.86 75.132h31.985v120.459a19.44 19.44 0 0 1-3.058 11.005 20.17 20.17 0 0 1-11.35 8.474c-3.23.681-6.536.926-9.831.728h-43.354a18.9 18.9 0 0 1-10.859-3.377 19.9 19.9 0 0 1-7.828-11.068 38.2 38.2 0 0 1-.701-10.013v-33.569c10.659-2.485 21.327-4.924 31.977-7.409v33.451h23.019z"/>
  </g>
  <defs>
    <clipPath id="a">
      <path fill="#ebebeb" d="M.932 0h256v256h-256z"/>
    </clipPath>
  </defs>
</svg>
