<svg width="256" height="250" viewBox="0 0 256 250" fill="none"
  xmlns="http://www.w3.org/2000/svg">
  <g clip-path="url(#clip0_21_2017)">
    <path d="M45.2233 0H210.179C235.181 0 255.402 20.221 255.402 45.2233V203.804C255.402 228.806 235.181 249.027 210.179 249.027H45.2233C20.221 249.027 0 228.806 0 203.804V45.2233C0 20.221 20.221 0 45.2233 0Z" fill="#00005B"/>
    <path d="M55 180.139V70.8063C55 70.0625 55.3188 69.6375 56.0625 69.6375L57.6046 69.635L58.7985 69.6242L59.6401 69.6093L60.5357 69.586L61.5 69.5524L62.0126 69.5313C62.9689 69.4914 63.9401 69.4665 64.9318 69.4453L67.9743 69.3818C68.3205 69.3735 68.6695 69.3644 69.0217 69.354L70.0877 69.3188C71.044 69.2833 72.0239 69.2597 73.0274 69.24L76.1087 69.185L78.2416 69.138L79.3316 69.1063C81.5275 69.0354 83.6761 69.0118 85.809 69.0039L89.0005 69C97.7132 69 104.938 70.0625 110.888 72.2938C116.201 74.1001 121.089 77.0751 125.126 81.0064C128.526 84.4065 131.182 88.5503 132.882 93.1191C134.476 97.5817 135.326 102.151 135.326 106.932C135.326 116.069 133.201 123.613 128.951 129.563C124.701 135.514 118.751 139.976 111.845 142.526C104.86 145.094 97.1811 146.073 88.8068 146.135L85.7698 146.135L84.587 146.123L83.8294 146.105L83.3832 146.086L82.9824 146.063L82.6254 146.032C82.4129 146.011 82.1834 145.994 81.9361 145.981L81.4173 145.958L80.8494 145.942L79.9022 145.93L78.0566 145.926V180.033C78.1629 180.777 77.6316 181.414 76.8878 181.52H56.275C55.425 181.52 55 181.095 55 180.139ZM78.1629 90.1441V125.845L79.4119 125.933C80.431 126.003 81.3959 126.057 82.3067 126.057H87.938C92.0818 126.057 96.2256 125.42 100.157 124.145C103.557 123.188 106.532 121.17 108.87 118.513C111.101 115.857 112.163 112.244 112.163 107.569C112.27 104.276 111.42 100.982 109.72 98.1129C107.989 95.4655 105.574 93.4036 102.664 92.2077L102.282 92.0566C98.3507 90.4628 94.1006 89.8253 89.7443 89.9316L87.2879 89.9347L86.1334 89.942L85.0311 89.9563L83.9834 89.9799C83.4735 89.9944 82.985 90.0133 82.5192 90.0378C82.2831 90.026 82.0548 90.0168 81.8346 90.01L81.1981 89.9961C81.0961 89.9949 80.9961 89.9942 80.8982 89.9939L80.3355 89.9978L79.823 90.0113C79.7419 90.0142 79.6628 90.0175 79.586 90.0211L79.1506 90.0457L78.7677 90.0756C78.7083 90.0809 78.6512 90.0864 78.5962 90.0919L78.2937 90.1264L78.1629 90.1441ZM150.201 96.3067H168.795C169.799 96.3067 170.613 96.9701 170.969 97.8494L171.027 98.0067C171.346 98.8567 171.558 99.7067 171.664 100.663C171.877 101.725 172.089 102.894 172.196 103.957L172.284 104.985C172.354 105.863 172.408 106.795 172.408 107.782C175.451 104.232 179.074 101.263 183.186 98.9676L183.777 98.6442C188.665 95.8817 194.296 94.5004 199.927 94.5004C200.671 94.3941 201.308 94.9254 201.415 95.6692V116.813C201.415 117.663 200.883 117.982 199.715 117.982C196.145 117.883 192.482 118.154 188.986 118.882L188.24 119.045C185.158 119.682 182.183 120.638 179.314 121.913C177.296 122.87 175.383 124.145 173.896 125.845V180.033C173.896 181.095 173.471 181.52 172.514 181.52H151.583C150.733 181.627 149.989 181.095 149.883 180.245V120.957C149.883 118.407 149.883 115.751 149.776 112.988L149.713 110.916L149.627 106.772C149.61 106.082 149.591 105.391 149.564 104.701C149.564 102.257 149.351 99.9192 149.139 97.4754C149.033 96.9442 149.351 96.4129 149.883 96.3067C149.883 96.2156 150.039 96.2026 150.15 96.2676L150.201 96.3067Z" fill="#9999FF"/>
  </g>
  <defs>
    <clipPath id="clip0_21_2017">
      <rect width="256" height="250" fill="#EBEBEB"/>
    </clipPath>
  </defs>
</svg>
