<svg width="256" height="256" viewBox="0 0 256 256" fill="none"
  xmlns="http://www.w3.org/2000/svg">
  <g clip-path="url(#clip0_17_87)">
    <path d="M61.5764 -0.000244141C27.4647 -0.000244141 0 27.4644 0 61.5762V194.423C0 228.535 27.4647 256 61.5764 256H194.424C228.535 256 256 228.535 256 194.423V61.5762C256 27.4644 228.535 -0.000244141 194.424 -0.000244141H61.5764ZM127.453 35.9087C151.556 35.9118 174.67 45.4899 191.711 62.5357C208.752 79.5816 218.323 102.699 218.319 126.802H147.909L101.316 63.8697L110.645 126.802H36.5856C36.5817 102.699 46.153 79.5816 63.1938 62.5357C80.2346 45.4899 103.35 35.9118 127.453 35.9087Z" fill="#F57F17"/>
  </g>
  <defs>
    <clipPath id="clip0_17_87">
      <rect width="256" height="256" fill="#EBEBEB"/>
    </clipPath>
  </defs>
</svg>
