<svg width="256" height="256" viewBox="0 0 256 256" fill="none" xmlns="http://www.w3.org/2000/svg">
<path d="M198 128C198 166.66 166.66 198 128 198C89.3401 198 58 166.66 58 128C58 89.3401 89.3401 58 128 58C166.66 58 198 89.3401 198 128ZM88.996 128C88.996 149.541 106.459 167.004 128 167.004C149.541 167.004 167.004 149.541 167.004 128C167.004 106.459 149.541 88.996 128 88.996C106.459 88.996 88.996 106.459 88.996 128Z" fill="#3B5BDB"/>
<path d="M58 128H89V226H58V128Z" fill="#3B5BDB"/>
<path d="M256 128C256 198.692 198.692 256 128 256C57.3075 256 0 198.692 0 128C0 57.3075 57.3075 0 128 0C198.692 0 256 57.3075 256 128ZM30.1001 128C30.1001 182.069 73.9314 225.9 128 225.9C182.069 225.9 225.9 182.069 225.9 128C225.9 73.9314 182.069 30.1001 128 30.1001C73.9314 30.1001 30.1001 73.9314 30.1001 128Z" fill="#5C7CFA"/>
</svg>
