<svg xmlns="http://www.w3.org/2000/svg" width="214" height="256" fill="none" viewBox="0 0 214 256"><path fill="#654bf6" d="M128 168c22.091 0 40-17.909 40-40s-17.909-40-40-40-40 17.909-40 40 17.909 40 40 40M200.07 222.705c3.403 3.403 3.062 9.037-.938 11.716-20.345 13.628-44.815 21.575-71.142 21.575s-50.798-7.947-71.143-21.575c-3.999-2.679-4.34-8.313-.937-11.716l29.231-29.232c2.642-2.641 6.74-3.06 10.066-1.356 9.833 5.038 20.976 7.879 32.783 7.879s22.95-2.841 32.784-7.879c3.325-1.704 7.422-1.285 10.065 1.356z"/><path fill="#654bf6" fill-opacity=".5" d="M199.142 21.576c4 2.678 4.341 8.313.938 11.716l-29.231 29.232c-2.643 2.641-6.742 3.059-10.067 1.355C150.949 58.842 139.806 56 127.999 56c-39.764 0-72 32.236-72 72 0 11.807 2.843 22.95 7.88 32.784 1.703 3.325 1.286 7.422-1.356 10.065l-29.231 29.232c-3.403 3.402-9.038 3.061-11.716-.937C7.948 178.798 0 154.327 0 128 0 57.308 57.307 0 127.999 0c26.328 0 50.799 7.948 71.143 21.576"/></svg>