<svg xmlns="http://www.w3.org/2000/svg" width="257" height="117" fill="none" viewBox="0 0 257 117">
  <g clip-path="url(#a)">
    <path fill="#fbad41" d="M206.43 50.813c-.858 0-1.705.03-2.551.058q-.207.012-.398.094a1.42 1.42 0 0 0-.92.994l-3.628 12.672c-1.564 5.449-.983 10.48 1.646 14.174 2.411 3.416 6.421 5.421 11.289 5.655l19.679 1.194c.585.03 1.092.312 1.401.776.327.502.4 1.128.199 1.692a2.5 2.5 0 0 1-2.134 1.662l-20.448 1.193c-11.109.515-23.061 9.579-27.255 20.633l-1.474 3.9a1.092 1.092 0 0 0 .967 1.49h70.425a1.87 1.87 0 0 0 1.81-1.365 51.2 51.2 0 0 0 1.872-13.807c0-28.16-22.582-50.984-50.449-50.984"/>
    <path fill="#f6821f" d="m175.692 115.362 1.303-4.583c1.568-5.449.987-10.48-1.638-14.173-2.419-3.417-6.425-5.422-11.297-5.656l-92.312-1.193a1.82 1.82 0 0 1-1.459-.776 1.92 1.92 0 0 1-.203-1.693 2.5 2.5 0 0 1 2.154-1.662l93.173-1.193c11.063-.511 23.015-9.58 27.208-20.633l5.313-14.04c.214-.596.27-1.238.156-1.86C192.036 20.511 167.82 0 138.869 0 112.18 0 89.536 17.403 81.41 41.596a27 27 0 0 0-19.156-5.359C49.459 37.524 39.16 47.946 37.89 60.88c-.33 3.23-.092 6.493.702 9.642C17.684 71.145.91 88.454.91 109.726c0 1.923.137 3.818.414 5.667a1.795 1.795 0 0 0 1.782 1.568h170.48a2.22 2.22 0 0 0 2.106-1.63"/>
  </g>
  <defs>
    <clipPath id="a">
      <path fill="#ebebeb" d="M.91 0h256v117H.91z"/>
    </clipPath>
  </defs>
</svg>
