<svg width="257" height="84" viewBox="0 0 257 84" fill="none" xmlns="http://www.w3.org/2000/svg">
<g clip-path="url(#clip0_18_1372)">
<path d="M44.0553 82.2336L13.0693 42.6327V82.2336H0.333252V1.06657H13.0693V39.5033L42.8845 1.06657H57.8447L26.7771 40.4799L60.0647 82.2336H44.0553ZM63.4934 82.2336V23.7993H75.5262V82.2336H63.4934ZM69.5098 14.622C65.4793 14.622 62.3221 11.5162 62.3221 7.55161C62.3221 3.52053 65.4793 0.363281 69.5098 0.363281C73.5403 0.363281 76.5808 3.45341 76.5808 7.55161C76.5808 11.5168 73.475 14.622 69.5098 14.622ZM122.083 82.2336V48.7979C122.083 39.9266 116.187 33.4881 108.062 33.4881C99.7375 33.4881 93.9237 39.7839 93.9237 48.7979V82.2336H81.8909V23.7993H90.7688L93.3407 30.9658H93.7598L94.347 30.1845C96.3075 27.4893 102.235 22.3927 110.639 22.3927C124.611 22.3927 133.998 32.6276 133.998 47.8606V82.2336H122.083H122.083ZM165.363 83.6396C150.294 83.6396 138.489 70.1881 138.489 53.0158C138.489 35.8435 150.294 22.3921 165.363 22.3921C174.305 22.3921 180.584 27.9102 181.754 29.8036C182.016 30.1866 182.249 30.5882 182.452 31.0052H183.133V1.06657H195.166V82.2336H186.29L183.738 74.9497H183.275L182.712 75.7292C181.2 77.7816 174.766 83.6396 165.363 83.6396ZM166.77 33.4875C157.441 33.4875 150.405 41.8829 150.405 53.0158C150.405 64.1488 157.441 72.5447 166.77 72.5447C176.099 72.5447 183.135 64.1488 183.135 53.0158C183.135 41.8829 176.099 33.4875 166.77 33.4875ZM228.639 83.6396C212.387 83.6396 199.656 70.1881 199.656 53.0158C199.656 36.1296 212.606 22.3921 228.522 22.3921C244.117 22.3921 256.334 35.2775 256.334 51.7272C256.334 53.889 256.109 56.0612 255.727 57.6256H211.604L211.696 58.1312C213.351 67.2389 219.799 72.8961 228.522 72.8961C235.898 72.8961 239.794 69.0899 241.517 66.6856H254.02C250.47 75.2061 240.763 83.6389 228.639 83.6389V83.6396ZM228.522 33.1356C220.102 33.1356 213.34 39.2106 211.696 48.2518L211.604 48.7574H244.727L244.648 48.2609C243.2 39.2143 236.72 33.1356 228.522 33.1356Z" fill="white"/>
</g>
<defs>
<clipPath id="clip0_18_1372">
<rect width="256" height="84" fill="white" transform="translate(0.333252)"/>
</clipPath>
</defs>
</svg>
