<svg xmlns="http://www.w3.org/2000/svg" width="207" height="256" fill="none" viewBox="0 0 207 256">
  <mask id="a" width="207" height="256" x="0" y="0" maskUnits="userSpaceOnUse" style="mask-type:luminance">
    <path fill="#ebebeb" d="m206.731 118.128-68.911 68.935 68.911 68.935h-78.744l-68.935-68.935 68.935-68.935zM127.987 0 0 127.987l39.384 39.384L206.731 0z"/>
  </mask>
  <g mask="url(#a)">
    <path fill="#39cefd" d="m59.076 187.064 39.36 39.384 108.295-108.319h-78.744z"/>
  </g>
  <mask id="b" width="207" height="256" x="0" y="0" maskUnits="userSpaceOnUse" style="mask-type:luminance">
    <path fill="#ebebeb" d="m206.731 118.128-68.911 68.935 68.911 68.935h-78.744l-68.935-68.935 68.935-68.935zM127.987 0 0 127.987l39.384 39.384L206.731 0z"/>
  </mask>
  <g mask="url(#b)">
    <path fill="#39cefd" d="M127.987 0h78.744L39.384 167.371 0 127.987z"/>
  </g>
  <mask id="c" width="207" height="256" x="0" y="0" maskUnits="userSpaceOnUse" style="mask-type:luminance">
    <path fill="#ebebeb" d="m206.731 118.128-68.911 68.935 68.911 68.935h-78.744l-68.935-68.935 68.935-68.935zM127.987 0 0 127.987l39.384 39.384L206.731 0z"/>
  </mask>
  <g mask="url(#c)">
    <path fill="#03569b" d="m98.436 226.447 29.551 29.526h78.744l-68.911-68.911z"/>
  </g>
  <mask id="d" width="207" height="256" x="0" y="0" maskUnits="userSpaceOnUse" style="mask-type:luminance">
    <path fill="#ebebeb" d="m206.731 118.128-68.911 68.935 68.911 68.935h-78.744l-68.935-68.935 68.935-68.935zM127.987 0 0 127.987l39.384 39.384L206.731 0z"/>
  </mask>
  <g mask="url(#d)">
    <path fill="url(#e)" d="m156.847 206.212-19.027-19.15-39.384 39.385z"/>
  </g>
  <mask id="f" width="207" height="256" x="0" y="0" maskUnits="userSpaceOnUse" style="mask-type:luminance">
    <path fill="#ebebeb" d="m206.731 118.128-68.911 68.935 68.911 68.935h-78.744l-68.935-68.935 68.935-68.935zM127.987 0 0 127.987l39.384 39.384L206.731 0z"/>
  </mask>
  <g mask="url(#f)">
    <path fill="#16b9fd" d="m59.072 187.05 39.385-39.386 39.388 39.386-39.388 39.385z"/>
  </g>
  <path fill="url(#g)" d="m206.731 118.128-68.911 68.935 68.911 68.935h-78.744l-68.935-68.935 68.935-68.935zM127.987 0 0 127.987l39.384 39.384L206.731 0z"/>
  <defs>
    <radialGradient id="g" cx="0" cy="0" r="1" gradientTransform="translate(5.808 17.448)scale(313.182)" gradientUnits="userSpaceOnUse">
      <stop stop-color="#ebebeb" stop-opacity=".1"/>
      <stop offset="1" stop-color="#ebebeb" stop-opacity="0"/>
    </radialGradient>
    <linearGradient id="e" x1="109.93" x2="139.262" y1="234.047" y2="204.715" gradientUnits="userSpaceOnUse">
      <stop stop-color="#1a237e" stop-opacity=".4"/>
      <stop offset="1" stop-color="#1a237e" stop-opacity="0"/>
    </linearGradient>
  </defs>
</svg>
