<svg xmlns="http://www.w3.org/2000/svg" width="256" height="248" fill="none" viewBox="0 0 256 248"><path fill="#e24329" d="m251.439 98.362-.36-.919L216.32 6.73a9.06 9.06 0 0 0-3.578-4.31 9.31 9.31 0 0 0-10.638.571 9.3 9.3 0 0 0-3.084 4.682l-23.469 71.806H80.516L57.046 7.673a9.13 9.13 0 0 0-3.085-4.694 9.31 9.31 0 0 0-10.638-.57 9.15 9.15 0 0 0-3.578 4.309L4.921 97.39l-.346.919c-10.278 26.857-1.55 57.279 21.409 74.597l.12.094.319.225 52.95 39.652 26.194 19.826 15.958 12.048a10.734 10.734 0 0 0 12.979 0l15.957-12.048 26.195-19.826 53.269-39.891.132-.106c22.903-17.323 31.618-47.689 21.382-74.518"/><path fill="#fc6d26" d="m251.439 98.364-.36-.919a117.4 117.4 0 0 0-46.74 21.011L128 176.18a69623 69623 0 0 0 48.628 36.754l53.268-39.891.132-.106c22.941-17.325 31.667-47.722 21.411-74.573"/><path fill="#fca326" d="m79.372 212.932 26.195 19.826 15.958 12.048a10.73 10.73 0 0 0 12.978 0l15.958-12.048 26.195-19.826s-22.658-17.14-48.654-36.754a36864 36864 0 0 0-48.63 36.754"/><path fill="#fc6d26" d="M51.647 118.456A117.3 117.3 0 0 0 4.921 97.393l-.346.918c-10.278 26.858-1.55 57.279 21.409 74.598l.12.093.319.225 52.95 39.652L128 176.125z"/></svg>