<svg width="257" height="236" viewBox="0 0 257 236" fill="none" xmlns="http://www.w3.org/2000/svg">
<path d="M199.266 124.453C184.673 124.453 170.677 130.25 160.358 140.569C150.039 150.888 144.242 164.883 144.242 179.477C144.242 194.07 150.039 208.066 160.358 218.385C170.677 228.704 184.673 234.501 199.266 234.501C213.859 234.501 227.855 228.704 238.174 218.385C248.493 208.066 254.29 194.07 254.29 179.477C254.29 164.883 248.493 150.888 238.174 140.569C227.855 130.25 213.859 124.453 199.266 124.453ZM56.3221 124.463C49.0332 124.362 41.7967 125.71 35.0332 128.429C28.2698 131.148 22.114 135.184 16.9237 140.303C11.7334 145.421 7.61204 151.52 4.799 158.245C1.98596 164.97 0.537354 172.187 0.537354 179.477C0.537354 186.766 1.98596 193.983 4.799 200.708C7.61204 207.433 11.7334 213.532 16.9237 218.651C22.114 223.769 28.2698 227.805 35.0332 230.524C41.7967 233.244 49.0332 234.591 56.3221 234.49C70.7798 234.289 84.5773 228.404 94.73 218.109C104.883 207.814 110.575 193.936 110.575 179.477C110.575 165.018 104.883 151.14 94.73 140.844C84.5773 130.549 70.7798 124.665 56.3221 124.463ZM182.807 55.6847C182.807 70.2765 177.011 84.2707 166.693 94.5887C156.375 104.907 142.381 110.703 127.789 110.703C113.197 110.703 99.2027 104.907 88.8847 94.5887C78.5667 84.2707 72.7701 70.2765 72.7701 55.6847C72.7701 41.0928 78.5667 27.0986 88.8847 16.7806C99.2027 6.46261 113.197 0.666016 127.789 0.666016C142.381 0.666016 156.375 6.46261 166.693 16.7806C177.011 27.0986 182.807 41.0928 182.807 55.6847Z" fill="#FF584A"/>
</svg>
