<svg xmlns="http://www.w3.org/2000/svg" width="227" height="257" fill="none" viewBox="0 0 227 257"><g clip-path="url(#a)"><path fill="#83cd29" d="M217.433 57.273 124.137 3.1c-5.884-3.35-13.545-3.35-19.475 0L10.369 57.273C4.297 60.766 0 67.33 0 74.353v108.201c0 7.022 4.41 13.589 10.481 17.101l24.913 14.15c11.907 5.865 16.115 5.865 21.533 5.865 17.63 0 27.701-10.661 27.701-29.256V83.592c0-1.508-.785-3.753-2.266-3.753H70.466c-1.507 0-4.88 2.245-4.88 3.751v106.822c0 8.243-7.455 16.445-21.389 9.478l-25.742-14.837c-.897-.487-1.53-1.466-1.53-2.499V74.353c0-1.02 1.175-2.044 2.078-2.566l93.988-54.08c.878-.497 2.169-.497 3.045 0l92.841 54.067c.889.535.576 1.528.576 2.579v108.201c0 1.033.387 2.038-.491 2.535L115.689 239.2c-.8.48-1.792.48-2.668 0l-23.922-14.279c-.722-.419-1.579-.569-2.27-.182-6.656 3.773-7.884 4.274-14.127 6.438-1.536.536-3.802 1.464.868 4.081l31.308 18.521a19.66 19.66 0 0 0 9.831 2.637 19.7 19.7 0 0 0 9.874-2.637l92.848-54.124c6.072-3.537 8.949-10.079 8.949-17.101V74.353c0-7.022-2.877-13.57-8.947-17.08m-73.756 108.136c-24.808 0-30.273-6.845-32.095-19.181-.211-1.329-1.339-2.918-2.691-2.918H96.766c-1.5 0-2.706 1.82-2.706 3.313 0 15.796 8.588 34.935 49.62 34.935 29.702 0 46.731-11.541 46.731-31.966 0-20.252-13.682-25.567-42.487-29.379-29.117-3.849-32.074-5.793-32.074-12.614 0-5.623 2.505-13.124 24.064-13.124 19.263 0 26.363 4.135 29.285 17.119.25 1.22 1.365 2.096 2.624 2.096h12.173c.749 0 1.464-.302 1.989-.838.508-.575.777-1.296.709-2.071-1.885-22.359-16.739-32.778-46.782-32.778-26.724 0-42.666 11.285-42.666 30.201 0 20.518 15.862 26.188 41.515 28.725 30.688 3.009 33.074 7.494 33.074 13.53 0 10.483-8.416 14.95-28.158 14.95"/></g><defs><clipPath id="a"><path fill="#ebebeb" d="M0 .5h226.38v256H0z"/></clipPath></defs></svg>
