<svg width="256" height="236" viewBox="0 0 256 236" fill="none"
  xmlns="http://www.w3.org/2000/svg">
  <g clip-path="url(#clip0_20_1462)">
    <path d="M44.5087 69.5559L0.999756 1.25781H32.3781L60.0456 45.2351L87.9363 1.25781H117.975L72.4282 69.5559V112.856H44.5087V69.5559Z" fill="#EBEBEB"/>
    <path d="M164.856 88.2976H114.324L104.046 113.114H81.6702L128.988 1.51758H151.876L197.274 113.114H173.362L164.856 88.2976ZM156.462 66.0176L140.971 25.0656L123.688 66.0176H156.462Z" fill="#CB171E"/>
    <path d="M44.5081 125.372V234.747H67.9731V159.3L92.535 210.012H111.005L136.405 157.519V234.722H158.918V125.372H128.18L100.904 174.833L74.9284 125.372H44.5081Z" fill="#EBEBEB"/>
    <path d="M255.003 210.979H197.277V125.342H173.365V234.251H255.003V210.979Z" fill="#EBEBEB"/>
  </g>
  <defs>
    <clipPath id="clip0_20_1462">
      <rect width="256" height="236" fill="#EBEBEB" transform="translate(-0.000244141)"/>
    </clipPath>
  </defs>
</svg>
