<svg width="256" height="256" viewBox="0 0 256 256" fill="none" xmlns="http://www.w3.org/2000/svg">
<g clip-path="url(#clip0_18_739)">
<path d="M255.902 121.097C255.816 117.813 255.642 114.443 255.47 111.159C255.297 107.789 255.21 104.419 254.865 101.049C254.26 96.4673 253.655 91.8013 252.618 87.3073C251.84 83.5913 250.544 80.0483 249.248 76.5053C247.606 72.3563 245.964 68.1223 243.89 64.1473C240.519 57.7523 236.112 52.0483 232.05 46.0853C229.37 42.2823 225.915 39.1713 223.322 35.2833C221.852 33.0363 219.692 31.1343 217.532 29.4063C214.075 26.6413 210.445 24.1343 206.816 21.7163C204.05 19.8133 201.285 17.9993 198.346 16.3573C196.013 15.0603 193.506 14.0233 191.086 12.9003C188.322 11.6033 185.643 10.0483 182.532 9.44334C181.754 9.27034 181.062 9.01134 180.285 8.75334C178.297 8.06034 176.395 7.28334 174.408 6.67834C171.384 5.72834 168.446 4.60334 165.334 3.82634C162.31 3.04834 159.199 2.52934 156.088 2.09734C152.631 1.57934 149.088 1.40734 145.631 1.06034C143.384 0.801344 141.137 0.542344 138.976 0.455344C135.693 0.283344 132.322 0.283344 129.038 0.196344C127.396 0.110344 125.668 -0.0626565 124.026 0.0233435C121.52 0.110344 119.014 0.369344 116.506 0.715344C114.088 0.975344 111.668 1.40634 109.334 1.75234C106.483 2.09734 103.631 2.27034 100.779 2.61634C98.099 2.96234 95.335 3.48034 92.656 3.91234C91.705 4.08534 90.754 4.43234 89.804 4.60334C87.73 5.03634 85.569 5.20934 83.494 5.90034C79.779 7.02334 76.063 8.32034 72.433 9.70234C69.063 11.0853 65.779 12.5543 62.582 14.2833C59.298 16.0973 56.187 18.2583 53.075 20.3333C50.137 22.3193 47.199 24.3943 44.347 26.6413C41.582 28.8013 38.989 31.2213 36.483 33.6413C35.1 35.0233 33.977 36.6653 32.68 38.2213C30.52 40.7273 28.359 43.1473 26.285 45.7393C24.557 47.9003 23 50.1473 21.36 52.3943C18.42 56.3693 15.915 60.6043 13.582 64.8383C12.631 66.5663 11.767 68.2953 10.902 70.0233C9.60601 72.6163 8.22401 75.1233 7.01401 77.8013C6.15001 79.6163 5.45801 81.6033 4.94001 83.5913C3.71851 87.8434 2.53746 92.1069 1.39701 96.3813C0.360013 100.183 0.100013 104.16 0.0140134 108.048C-0.0729866 111.504 0.273013 114.875 0.619013 118.332C0.705013 119.196 0.187013 120.233 1.22401 120.924C1.31001 120.924 1.22401 121.27 1.13701 121.356C0.877013 121.876 1.13701 122.393 1.65601 122.566C1.65601 122.566 1.74201 122.653 1.74201 122.739H1.31001C1.05001 123.517 1.91501 124.122 1.56901 124.986C1.48301 125.159 1.82901 125.504 2.00101 125.764C2.00101 126.024 1.91501 126.369 2.00101 126.628C2.08801 127.406 2.43401 128.183 2.43401 129.048C2.43401 129.653 2.95201 130.344 3.12401 130.949C3.21101 131.209 3.12401 131.64 2.95201 131.813C2.43401 132.418 2.52001 132.937 3.29801 133.283C3.47101 133.369 3.73001 133.714 3.73001 133.887C3.73001 134.407 3.55701 134.924 3.47001 135.443C3.64301 135.616 3.73001 135.788 3.64301 135.961C3.64301 136.221 3.38301 136.481 3.47101 136.653C4.16101 138.035 4.42101 139.591 4.50801 141.146C4.50801 141.492 4.68101 141.838 4.85301 142.27C4.94001 142.27 5.19901 142.27 5.37201 142.356L4.85201 143.912C5.28501 143.652 5.63101 143.566 6.06201 143.393C6.32201 144.517 6.58201 145.554 6.92701 146.504C7.01401 146.677 7.18701 146.85 7.44601 147.024C7.35901 147.196 7.35901 147.541 7.18601 147.628C7.53201 149.183 7.70501 150.653 8.31001 152.122C8.39701 152.122 8.48301 152.035 8.56901 152.035C8.30901 150.48 8.13701 148.838 7.87801 147.282V146.764C7.87801 146.764 8.05101 146.677 8.13701 146.677C8.22401 147.023 8.39701 147.455 8.39701 147.714C9.08701 147.714 10.125 148.146 10.816 148.146C10.903 147.887 10.989 147.541 11.076 147.369C10.556 146.85 10.125 146.072 9.60601 145.554C9.77901 146.245 9.60601 146.504 9.60601 146.764C9.26101 146.591 8.82901 146.418 8.39601 146.245C8.74201 145.813 9.08801 145.381 9.60601 144.862C9.60601 144.085 9.17401 143.393 7.96401 143.48C8.48301 143.307 9.00201 143.048 9.60601 142.875C9.69301 143.135 9.77901 143.393 9.86601 143.566C10.556 142.356 9.52001 141.406 9.52001 140.196C9.60601 138.727 8.74201 137.258 8.48301 135.702C8.05101 133.282 8.13701 129.653 7.87801 127.233C7.87801 127.06 7.61801 126.887 7.44601 126.714C7.35901 126.801 6.92601 127.924 6.84101 128.011C7.10001 130.085 7.35901 132.159 7.53101 134.233C7.44601 134.233 7.35901 134.233 7.35901 134.319C7.01401 132.504 6.66801 130.603 6.23601 128.529C6.15001 129.134 6.06301 129.393 6.06301 129.739C5.80301 129.653 5.71801 129.566 5.28501 129.393C5.63101 130.171 5.97701 130.69 6.23501 131.295C5.63101 131.035 4.94001 131.122 4.94001 131.122V133.542C4.07601 132.677 3.81601 131.986 3.38401 131.382C3.21101 130.69 3.12401 129.998 2.95201 129.307L3.21101 129.22C3.12501 128.875 2.95101 128.615 2.95101 128.356C2.85434 127.666 2.76833 126.975 2.69301 126.282C2.77901 126.196 3.12501 126.109 3.29801 125.937L2.60601 124.9C3.29801 124.986 3.73001 125.072 4.16201 125.072C4.16201 124.9 4.24801 124.813 4.16201 124.727C3.29801 123.949 3.90201 123.257 4.24801 122.567C4.42101 122.22 5.02601 122.134 5.19801 121.788C5.89001 120.492 7.01401 119.455 7.01401 117.813C7.01401 117.035 7.27301 116.171 7.35901 115.393C7.53201 113.924 7.70501 112.455 7.79201 110.986C7.96401 109.086 7.79201 107.183 8.22401 105.369C8.91401 102.344 9.77901 99.3193 10.73 96.2953C11.42 94.1353 12.199 92.0603 13.063 89.9003C14.36 86.5303 15.569 83.1603 17.211 79.9613C19.545 75.2953 22.224 70.8013 24.816 66.2213C26.458 63.3693 28.186 60.6913 30.001 57.9243C31.73 55.2453 33.458 52.4803 35.446 49.9743C38.211 46.4313 41.236 43.1473 44.606 40.2083C48.063 37.0983 51.346 33.9003 55.063 31.0483C59.903 27.3323 65.001 24.0483 70.446 21.1963C74.853 18.8633 79.433 17.0483 84.014 15.3193C86.952 14.1963 90.149 13.6793 93.174 12.7273C96.631 11.6033 100.088 11.0853 103.717 10.9983C106.051 10.9123 108.297 10.6533 110.631 10.3943C112.705 10.2213 114.779 10.0483 117.026 9.78934C116.858 10.0036 116.713 10.2352 116.594 10.4803C115.643 11.8633 114.606 13.2453 113.656 14.6283C112.878 15.7523 112.014 16.9613 111.236 18.0853C109.853 19.9003 108.384 21.7153 107.088 23.6163C105.1 26.4683 103.285 29.4063 101.211 32.2583C99.137 35.0233 96.89 37.6163 94.73 40.2953C91.878 44.0113 89.199 47.8133 86.347 51.5293C83.754 55.0733 80.989 58.4433 78.483 61.9863C76.236 65.0973 74.248 68.3813 72.088 71.5793C68.89 76.3323 65.693 80.9993 62.495 85.7513C59.9891 89.3728 57.4541 92.9739 54.89 96.5543C54.717 96.8143 54.458 96.9003 54.199 97.0723C54.026 97.2453 53.679 97.4183 53.679 97.5923C53.508 98.1963 53.508 98.8023 53.248 99.3193C52.557 100.616 51.866 101.912 51.088 103.122C50.656 103.813 50.051 104.418 49.532 105.109C49.359 105.023 49.272 104.937 49.1 104.937C49.446 104.072 50.915 103.554 50.224 102.258C49.792 102.949 49.359 103.554 48.927 104.245L47.89 106.319C48.236 106.579 48.84 106.751 48.236 107.27C47.976 107.702 47.716 108.22 47.458 108.653C47.545 108.653 47.545 108.739 47.631 108.739C47.89 108.393 48.15 108.134 48.409 107.789C48.495 107.789 48.582 107.875 48.668 107.875C48.408 108.739 47.89 109.517 47.458 110.295C47.112 110.986 46.248 111.505 45.643 112.023C45.73 112.109 46.335 112.369 46.421 112.455C46.68 112.109 46.767 112.282 47.026 111.937C47.199 112.197 47.458 111.764 47.545 112.023C47.804 111.677 48.063 111.418 48.15 111.159C48.495 110.295 49.014 109.603 49.878 109.259C50.224 109.085 50.483 108.825 50.742 108.566C53.335 105.887 56.014 103.296 58.347 100.443C61.977 96.0353 65.261 91.4553 68.717 86.9613C70.187 85.0613 71.915 83.1593 73.47 81.3443C73.643 81.4313 73.816 81.4313 73.903 81.5173C73.73 83.3323 73.557 85.2333 73.47 87.0483C73.21 90.2453 73.038 93.4433 72.779 96.7283C72.693 98.0233 72.779 99.3193 72.693 100.616C72.693 100.961 72.433 101.22 72.433 101.566C72.433 102.43 72.693 103.381 72.693 104.246C72.433 107.443 72.088 110.554 71.828 113.751C71.742 114.443 72.088 115.134 72.261 115.739C72.174 115.653 72.088 115.566 71.828 115.393C71.828 120.406 72.778 125.333 72.001 130.258C72.347 130.171 72.52 130.085 72.52 129.912C72.606 129.307 72.779 128.702 72.779 128.097C72.866 127.579 72.779 127.06 72.779 126.455V125.591C72.866 124.035 73.211 122.393 73.038 120.838C72.866 119.109 72.866 117.468 73.211 115.825C73.384 115.135 73.125 114.27 73.557 113.406V114.702C73.47 119.628 73.643 124.554 72.952 129.48C72.866 129.912 73.211 130.69 72.261 130.603C72.174 130.603 72.088 131.035 71.915 131.295C71.483 132.159 72.433 133.282 71.569 134.146C71.396 134.319 71.742 135.097 71.828 135.616C71.828 135.788 71.915 135.961 71.828 136.048C71.483 136.653 71.483 136.653 72.001 136.739C72.088 138.64 72.261 140.369 72.347 142.183H72.606C73.73 138.899 73.038 135.529 73.643 132.159C73.73 133.541 73.816 134.924 73.73 136.393C73.73 138.64 73.643 140.801 73.557 143.048C73.557 143.48 73.47 143.912 73.384 144.344C73.124 145.554 73.038 146.764 72.606 147.887C72.261 148.751 72.433 150.048 72.433 151.085V154.368C72.433 154.455 72.693 154.714 72.693 155.06C72.779 155.838 72.347 156.616 72.606 157.48C72.693 157.653 72.52 157.912 72.433 158.085C72.347 158.345 72.261 158.603 72.347 158.862L72.606 160.159C72.606 160.245 72.693 160.332 72.779 160.504C72.866 160.159 72.866 159.899 72.866 159.814C74.335 159.986 73.556 161.282 74.248 161.974C73.903 162.146 73.643 162.234 73.643 162.319C73.73 162.665 73.903 162.924 73.903 163.27C73.903 164.047 73.816 164.74 73.73 165.517C73.73 167.504 73.643 169.492 73.643 171.393C73.643 171.653 73.73 171.913 73.73 172.171C73.73 172.344 73.643 172.517 73.643 172.776V174.591H73.989C73.816 174.851 73.643 175.109 73.384 175.368C73.298 175.368 73.038 175.368 73.038 175.282V164.393H71.742C71.569 169.578 72.001 174.245 71.051 179.084C70.014 179.171 69.668 179.344 68.545 179.344C65.865 179.344 63.187 179.344 60.508 179.43C57.31 179.43 54.198 179.517 51.001 179.517C49.446 179.517 47.804 179.689 46.248 179.689C44.174 179.689 42.014 179.43 39.94 179.43C36.742 179.43 33.63 179.69 30.434 179.776C28.1 179.862 25.767 179.862 23.434 179.949C21.878 180.035 20.322 180.122 18.767 180.294C18.076 180.381 17.471 180.64 16.606 180.899C16.346 180.899 15.742 180.813 15.224 180.899C14.36 181.072 13.582 181.591 12.718 181.763C11.421 182.023 11.076 182.368 11.248 183.665V184.529C11.0682 184.357 10.8644 184.211 10.643 184.097C10.557 184.097 10.471 184.183 10.471 184.183C10.557 184.443 10.73 184.615 10.816 184.875C11.162 184.702 11.594 184.27 11.94 184.27H13.15C12.977 184.27 12.89 184.788 12.63 185.22C13.1515 185.025 13.6706 184.824 14.187 184.615C14.273 184.875 14.273 185.22 14.273 185.307C15.483 185.22 16.606 184.875 17.643 185.134C21.013 185.998 24.471 186.344 27.927 186.689C30.174 186.862 32.335 186.949 34.582 187.035C37.779 187.208 40.977 187.381 44.174 187.381C46.853 187.381 49.446 187.122 52.124 187.122C55.841 187.122 59.557 187.294 63.273 187.382C64.051 187.382 64.915 187.294 65.779 187.294H72.088C77.705 187.122 83.322 187.035 88.94 186.862C92.137 186.776 95.42 186.603 98.619 186.517L108.469 186.257C112.273 186.171 116.075 186.171 119.791 186.084C122.643 186.084 125.409 185.998 128.26 185.912C131.458 185.825 134.742 185.566 137.939 185.393C139.668 185.307 141.396 185.134 143.125 184.961C145.199 184.788 147.359 184.529 149.433 184.442C152.543 184.27 155.742 184.183 158.853 184.01C162.742 183.751 166.631 183.405 170.606 183.32C174.236 183.146 177.952 183.233 181.581 183.146C184.779 183.06 187.976 182.887 191.26 182.801L196.705 182.541C196.705 182.541 200.334 182.455 202.149 182.282C205.259 182.109 208.371 181.763 211.482 181.677C213.47 181.591 215.458 181.677 217.445 181.591C220.643 181.504 223.927 181.331 227.124 181.331C228.334 181.331 229.631 181.504 231.186 181.591C230.495 182.196 230.063 182.541 229.544 182.973C229.89 183.06 230.234 183.233 230.581 183.405C230.581 183.492 230.495 183.578 230.495 183.751C230.063 183.751 229.631 183.838 229.198 183.838C229.026 184.27 228.853 184.442 228.68 185.308H230.235C229.631 185.308 229.112 186.084 228.507 186.603C228.594 186.689 228.68 186.689 228.766 186.776C227.816 186.43 227.211 186.603 226.865 187.554C227.124 187.64 227.297 187.64 227.555 187.64C227.47 187.9 227.384 188.16 227.297 188.504C227.211 188.677 227.124 188.85 227.124 189.109L226.864 188.85C226.864 188.677 226.864 188.504 226.779 188.331C226.259 188.851 225.482 189.196 225.914 190.319C225.569 190.492 225.137 190.665 224.704 190.924C224.791 191.097 224.964 191.27 225.05 191.529C224.273 191.615 223.495 191.789 223.668 192.739C224.013 192.825 224.358 192.999 224.618 193.084C224.186 193.257 223.754 193.516 223.322 193.689C223.235 193.862 223.149 194.294 222.976 194.381C221.766 194.641 222.458 195.072 222.803 195.504C222.543 195.677 222.285 195.85 222.026 195.936C222.285 196.023 222.458 196.109 222.631 196.282C222.371 196.455 222.198 196.542 222.026 196.628C222.198 196.714 222.458 196.888 222.544 196.888C222.198 197.146 221.766 197.492 221.248 197.924C221.248 198.097 221.248 198.184 221.334 198.356C220.989 198.702 220.643 199.047 220.297 199.566C219.952 200.084 219.779 200.776 219.347 201.294C217.532 203.282 216.235 205.615 213.902 207.171C213.038 207.776 212.26 208.553 211.482 209.331C209.927 210.801 208.544 212.442 206.902 213.825C204.742 215.64 202.495 217.282 200.161 218.925C197.31 220.911 194.458 222.899 191.606 224.8C190.05 225.837 188.322 226.615 186.68 227.566C185.038 228.516 183.483 229.381 181.84 230.331C180.803 231.023 179.853 231.973 178.729 232.492C175.877 233.702 172.853 234.739 169.915 235.862C169.655 235.948 169.483 236.035 169.223 236.122C167.063 237.072 164.989 238.109 162.828 238.887C160.84 239.578 158.767 240.097 156.692 240.529C156.001 240.702 155.222 240.529 154.446 240.615C152.976 240.875 151.506 241.22 150.038 241.393C146.236 241.913 142.433 242.257 138.631 242.776C136.384 243.036 134.223 243.467 131.976 243.726C130.421 243.813 128.779 243.64 127.223 243.64C126.1 243.64 124.89 243.9 123.766 243.726C121.952 243.467 120.136 243.036 118.322 242.689C117.89 242.603 117.285 242.43 116.939 242.603C116.248 242.948 115.643 242.43 114.952 242.603C114.52 242.689 114.088 242.344 113.655 242.344C113.31 242.257 112.878 242.43 112.445 242.344C111.495 242.084 110.631 241.739 109.594 241.825C108.557 241.912 107.52 241.393 106.396 241.135C104.841 240.788 103.372 240.442 101.816 240.097C101.211 239.924 100.693 239.665 100.088 239.319C99.915 239.405 99.655 239.579 99.31 239.579C97.84 239.319 96.372 239.233 94.989 238.714C93.779 238.282 92.656 237.677 91.359 237.85C91.014 237.936 90.754 237.763 90.409 237.763C90.149 237.418 89.889 236.726 89.631 236.726C87.901 236.813 86.865 235.344 85.396 234.912C84.618 234.652 84.014 233.788 83.236 233.529C81.335 232.751 79.779 231.109 77.619 230.85C76.927 230.763 76.236 230.418 75.458 230.158C75.717 230.504 75.89 230.763 76.148 231.023L75.976 231.195C73.643 229.813 71.31 228.43 68.976 227.135C68.631 227.047 68.372 226.702 68.112 226.529L65.779 224.973C65.519 224.8 65.001 224.541 65.001 224.627C64.483 225.233 63.964 224.714 63.619 224.541C61.285 222.899 58.606 221.862 56.359 220.047C55.409 219.27 54.285 218.751 53.594 217.8C52.384 216.331 50.914 215.294 49.273 214.43C47.977 213.74 46.767 212.961 45.557 212.183C44.952 211.751 44.347 211.233 44.347 210.283C44.347 209.677 44.087 209.073 43.31 209.418C42.964 208.899 42.619 208.294 42.187 208.121C41.15 207.689 40.457 206.912 39.68 206.221C38.903 205.529 38.298 204.578 37.347 204.233C35.619 203.541 34.582 202.073 33.545 200.863C31.125 198.01 28.964 194.899 26.717 191.874C26.545 191.615 26.199 191.442 25.94 191.184L25.853 191.27C26.285 192.134 26.717 192.912 27.15 193.776C27.063 193.862 26.89 193.949 26.804 194.036C26.284 193.43 25.68 192.826 25.162 192.22C25.075 192.307 24.989 192.393 24.902 192.393L31.125 202.245C31.643 203.023 32.075 203.8 32.594 204.578C32.4959 204.686 32.3785 204.774 32.248 204.838C31.298 204.665 30.434 203.973 30.001 203.195C29.224 201.813 28.359 200.949 26.631 201.121C26.458 200.516 26.285 199.825 26.199 199.221C25.853 199.221 25.594 199.221 24.989 199.134C26.199 201.035 27.236 202.677 28.359 204.578C27.927 204.319 27.668 204.146 27.495 204.06C29.051 205.702 30.174 207.776 32.162 208.813C32.594 210.8 34.841 211.751 35.359 213.653C34.927 213.566 34.582 213.479 34.149 213.393C33.458 212.529 32.679 211.665 31.903 210.714C32.075 211.319 32.335 211.837 32.68 212.27C33.717 213.566 34.668 214.862 35.878 215.986C36.31 216.418 36.915 216.591 36.915 217.368C37.088 217.195 37.261 217.109 37.605 216.936C37.433 217.282 37.347 217.456 37.261 217.714C37.606 217.714 37.866 217.8 38.125 217.8C38.298 218.32 38.038 219.097 39.075 218.924C39.162 218.924 39.248 219.01 39.335 219.097C39.767 220.22 40.458 220.22 41.409 219.788C41.582 219.702 42.014 219.788 42.099 219.961C42.532 220.911 43.137 220.998 43.915 220.307C43.915 220.739 44.001 221.171 44.001 221.517H44.347C44.347 221.344 44.261 221.084 44.261 220.652C44.693 220.998 44.951 221.172 45.125 221.344C45.989 222.554 46.767 223.677 47.977 224.627C49.619 226.01 51.087 227.479 52.643 228.777C55.668 231.282 59.038 233.357 62.409 235.257C66.557 237.59 70.532 240.097 74.767 242.343C79.865 245.023 85.31 246.837 90.927 248.134C93.001 248.566 94.989 248.998 97.063 249.516C98.878 250.036 100.693 250.813 102.507 251.246C105.273 251.85 108.125 252.368 110.89 252.887C111.495 252.973 112.1 253.06 112.79 253.147V253.319C113.569 253.319 114.52 252.973 114.693 253.232C115.125 253.924 115.47 253.578 115.989 253.492C116.594 253.319 117.285 253.319 117.976 253.319C120.396 253.405 122.729 253.924 125.149 253.751C125.668 253.751 126.446 253.319 126.878 254.183C127.051 254.096 127.137 254.01 127.31 253.924C127.655 253.837 128.088 253.837 128.433 253.751V253.924C128.26 254.01 128.088 254.01 127.742 254.097C128.174 254.183 128.432 254.269 128.692 254.357C128.52 254.529 128.432 254.529 128.26 254.615C128.088 254.701 127.828 254.788 127.483 255.047C130.593 255.652 133.532 255.739 136.125 255.047V254.529H136.47C136.47 254.701 136.557 254.874 136.643 255.047C140.618 255.393 144.507 254.874 148.223 253.578C148.569 254.01 148.828 254.615 149.347 253.751C149.52 253.492 149.952 253.405 150.297 253.319C151.075 253.146 152.026 252.8 152.717 253.06C153.495 253.32 153.754 252.627 154.359 252.627C155.344 252.631 156.328 252.544 157.297 252.368C157.816 252.282 158.334 252.022 158.939 251.85C158.939 251.763 158.939 251.677 158.853 251.59C158.248 251.504 157.557 251.418 157.038 251.418C158.075 250.899 159.026 250.468 159.976 250.035C159.976 250.121 160.063 250.121 160.063 250.208C159.803 250.294 159.631 250.64 159.285 250.64H160.495C160.235 250.64 159.89 251.418 159.458 251.936C162.568 251.158 165.421 250.467 168.186 249.776V249.603C167.841 249.689 167.581 249.689 167.322 249.776C167.236 247.961 169.222 248.566 169.915 247.529C169.05 247.789 168.185 248.047 167.322 248.22V248.047C170.26 246.751 173.285 245.455 176.222 244.158C176.222 244.245 176.31 244.245 176.31 244.331C175.79 244.677 175.273 244.936 174.495 245.368C175.013 245.455 175.359 245.455 175.618 245.541C175.618 245.801 175.618 245.973 175.532 246.061C177.001 245.973 176.655 244.677 177.087 243.899C177.347 243.985 177.692 244.159 177.952 244.072C178.729 243.899 179.421 243.64 180.198 243.382C181.063 243.122 181.927 242.862 182.791 242.516C184.174 241.911 185.47 241.134 186.853 240.442C187.112 240.356 187.543 240.442 187.89 240.442C188.149 240.442 188.322 240.269 188.495 240.097C188.84 239.837 189.185 239.319 189.445 239.405C190.655 239.578 191.519 239.146 191.865 238.023C191.952 238.023 191.952 237.936 192.038 237.936C192.47 237.591 192.902 237.246 193.334 236.986C195.236 235.948 197.05 234.912 198.952 233.874C199.038 233.788 199.211 233.874 199.384 233.874C199.643 233.874 199.989 233.874 200.161 233.788C201.285 233.269 202.321 232.665 203.359 232.06C203.099 231.973 203.359 231.887 202.495 231.8V231.627C203.359 231.455 203.618 231.368 204.137 231.195L203.964 231.023C206.211 228.776 209.063 227.134 211.223 225.233C211.655 225.319 211.828 225.405 212.087 225.405C212.174 225.146 212.174 224.887 212.174 224.715C212.519 224.282 212.864 223.763 213.297 223.418C215.197 221.689 217.273 220.22 219.001 218.405C221.507 215.899 223.927 213.307 226.174 210.628C228.248 208.208 230.322 205.788 232.05 203.109C234.47 199.393 236.544 195.591 238.704 191.702C240.26 188.936 241.643 186.172 243.198 183.405C243.371 183.146 243.717 182.801 243.976 182.801C246.309 182.541 248.643 182.368 250.89 182.109C251.408 182.023 252.013 181.677 252.532 181.419C252.272 180.986 252.099 180.467 251.84 180.035C251.495 179.516 250.976 179.085 250.63 178.566C250.285 178.134 250.026 177.616 249.766 177.097C249.506 176.665 249.248 176.319 248.988 175.887C248.47 174.937 247.951 173.987 247.518 172.949C247.433 172.689 247.26 172.257 247.346 171.999C248.902 168.629 249.506 164.999 250.976 161.629C252.445 158.171 252.876 154.282 253.569 150.566C254.174 147.023 254.519 143.48 254.951 139.936C255.211 137.43 255.556 135.01 255.643 132.504C256.161 128.529 255.988 124.814 255.902 121.097ZM38.642 217.541C38.039 216.851 37.52 216.072 36.915 215.381L37.174 215.121C38.124 216.159 39.076 217.195 40.026 218.319C39.508 218.06 38.903 217.887 38.643 217.541H38.642ZM40.026 218.319C40.285 218.233 40.545 218.233 40.804 218.146C41.063 218.578 41.236 219.097 41.494 219.616C40.284 219.529 39.68 219.01 40.026 218.319ZM129.902 254.01V253.751C131.544 253.578 133.1 253.405 134.742 253.233V253.493C133.139 253.751 131.523 253.924 129.902 254.01ZM151.68 251.763C150.47 252.023 149.174 252.195 147.964 252.368C147.532 252.455 147.014 252.888 146.841 252.109C146.668 252.195 146.495 252.195 146.321 252.282C146.754 253.578 147.791 252.542 148.655 253.06C146.754 253.32 144.939 253.492 143.125 253.751V253.578C143.643 253.492 144.248 253.405 144.767 253.319V253.06C143.902 252.973 143.037 252.887 142.174 252.887C141.914 252.887 141.569 253.233 141.31 253.319C140.964 253.405 140.618 253.492 140.186 253.492C138.716 253.578 137.248 253.578 135.865 253.665C135.779 253.665 135.605 253.578 135.52 253.578V253.319C141.31 252.541 147.014 251.763 152.804 250.986C152.89 251.158 152.89 251.331 152.976 251.504C152.458 251.504 152.112 251.677 151.68 251.764V251.763ZM152.976 250.899C154.964 250.64 156.779 250.467 158.68 250.209C154.705 251.331 153.409 251.504 152.976 250.899ZM77.705 76.4203C80.471 72.6173 83.322 68.8143 86.088 64.9253C86.952 63.8023 87.643 62.5923 88.508 61.4693C88.767 61.1233 89.112 60.9503 89.545 60.6043L89.458 60.4323C89.804 59.9993 90.148 59.6543 90.322 59.3083C90.754 58.6183 91.014 57.8393 91.359 57.0613C91.446 56.8883 91.705 56.7163 91.705 56.7163C92.915 57.3203 92.915 56.0243 93.347 55.5923C94.1214 54.7209 94.8707 53.8276 95.594 52.9133C96.112 52.2233 96.631 51.6173 97.063 50.8393C97.149 50.5803 96.89 50.1493 96.803 49.8023H96.545C96.804 49.6293 97.063 49.3703 97.322 49.1973C97.409 49.1973 97.409 49.1973 97.495 49.1113C98.014 48.3333 98.532 47.5553 99.051 46.8643C100.088 45.4813 101.211 44.0983 102.421 42.8883C102.248 43.3203 102.075 43.7533 101.903 44.0983C101.989 44.0983 101.989 44.1853 102.075 44.1853C103.112 42.8023 104.235 41.5063 105.273 40.1233C105.186 40.0373 105.1 39.9503 105.013 39.9503C104.582 40.3823 104.236 40.8143 103.803 41.2463C103.717 41.1603 103.631 41.0743 103.543 41.0743C104.409 39.9503 105.273 38.8273 106.137 37.5303C106.31 37.7903 106.483 38.1353 106.827 38.8273C107.174 37.9623 107.52 37.3573 107.779 36.7533C107.519 37.0133 107.174 37.2713 106.915 37.5303L106.655 37.2713L108.211 34.9383C109.853 32.6043 111.495 30.1853 113.137 27.8513C113.742 26.9873 114.52 26.2963 115.037 25.4323C116.68 22.1483 119.273 19.5553 121.26 16.5303C121.693 15.9263 122.297 15.4073 122.816 14.8883C123.248 14.3703 123.594 14.5433 123.94 14.9753C126.273 17.9133 128.606 20.9383 130.939 23.8763C132.668 26.0373 134.396 28.1113 136.038 30.3573C138.026 33.1233 139.927 35.8883 141.915 38.6543C144.162 41.8513 146.409 45.0493 148.569 48.3343C151.853 53.1723 154.964 58.0123 158.248 62.8513C160.668 66.3953 163.088 69.8513 165.421 73.3953H161.013C156.952 73.3083 152.803 72.9623 148.742 73.1353C143.211 73.3953 137.594 73.9993 132.062 74.4313C125.062 75.0363 117.976 75.1233 110.977 75.1233C108.47 75.1233 105.964 75.4683 103.457 75.6413C100.433 75.8143 97.495 75.9873 94.47 76.0743C90.927 76.2463 87.47 76.3343 83.927 76.4193C81.94 76.5063 79.865 76.4203 77.705 76.4203ZM176.828 116.172V116.95C176.742 116.95 176.655 117.036 176.482 117.036C176.137 115.826 175.791 114.53 175.359 113.32C174.495 110.814 173.544 108.308 171.989 106.061C170.259 103.641 168.705 101.135 166.976 98.6293C166.544 98.0243 165.939 97.5053 165.421 96.9873C163.606 94.9993 161.791 92.9253 159.458 91.4573C156.001 89.2973 152.458 87.4813 148.655 85.9253C147.618 85.4933 146.668 84.9753 145.631 84.3703H147.705L162.483 84.1113C165.68 84.0243 168.791 84.0243 171.989 83.8513C172.767 83.8513 173.199 84.1113 173.631 84.8023C174.409 86.0983 175.186 87.3943 176.05 88.6923C176.137 88.8633 176.31 89.1233 176.31 89.3823C176.31 91.2833 176.31 93.2723 176.396 95.1723C176.483 97.1603 176.655 99.0623 176.742 101.049C176.742 103.036 176.569 105.11 176.655 107.184C176.742 110.124 176.828 113.147 176.828 116.172ZM83.84 87.2213C87.902 87.0483 91.79 86.7883 95.766 86.6163C98.876 86.4433 102.074 86.3563 105.185 86.1843C106.482 86.0973 107.692 86.0113 108.988 86.1843C107.605 86.8753 106.223 87.5663 105.013 88.4313C103.457 89.4673 101.988 90.8513 100.432 91.9743C98.877 93.0973 97.494 94.4803 96.198 95.9493C94.556 97.9373 92.741 99.6653 91.013 101.566C89.803 102.949 88.42 104.246 87.383 105.714C85.913 107.616 84.618 109.69 83.235 111.85C83.667 103.64 84.185 95.5173 83.84 87.2213ZM140.272 170.356C137.506 171.047 134.655 171.826 131.802 172.171C129.382 172.517 126.877 172.431 124.371 172.431C122.124 172.431 119.963 172.344 117.716 172.171C115.21 171.912 112.704 171.652 110.284 170.529C108.21 169.579 106.05 168.714 103.976 167.677C101.902 166.64 99.826 165.43 98.272 163.529C97.148 162.146 95.592 161.023 94.21 159.813C94.4618 160.855 95.1139 161.755 96.025 162.319C95.593 162.839 94.988 162.579 94.124 161.196C93.864 161.368 93.604 161.456 93.432 161.541C93.692 160.936 93.951 160.332 94.21 159.813C93.865 159.123 93.432 158.344 93.087 157.653C92.392 156.52 91.7291 155.367 91.099 154.196C90.926 153.936 90.926 153.677 90.753 153.418C90.321 152.899 89.889 152.381 89.543 151.862C88.852 150.825 88.247 149.702 87.383 148.665C87.383 148.925 87.469 149.183 87.469 149.529C87.383 149.529 87.297 149.615 87.297 149.615L85.482 145.208C85.395 145.208 85.395 145.208 85.309 145.295L86.865 150.998C86.778 150.998 86.692 151.085 86.605 151.085C86.345 150.739 86.087 150.393 85.914 149.961C85.741 149.271 85.223 149.271 84.79 149.529C84.53 149.702 84.358 150.307 84.445 150.566C85.05 152.036 85.741 153.504 86.432 154.974C86.605 155.492 86.778 155.924 87.037 156.444C87.124 156.616 87.383 156.788 87.383 157.048C87.729 157.739 87.988 158.43 88.42 159.035C89.198 160.072 90.062 161.109 90.84 162.146C91.618 163.183 92.309 164.307 93 165.344C93.087 165.517 93.346 165.517 93.432 165.604C93.865 166.899 95.334 167.85 96.371 167.332C96.63 169.319 98.79 170.012 99.655 171.912C98.8067 171.567 97.9705 171.192 97.148 170.788C97.062 170.875 97.062 170.961 96.976 171.134C98.013 171.652 99.05 172.171 100 172.776C100.864 173.294 101.729 173.813 102.506 174.418C103.544 175.368 104.753 175.888 106.223 176.233C106.136 175.973 106.05 175.887 106.05 175.887C108.34 176.951 110.616 178.046 112.877 179.171C103.889 179.344 94.297 179.517 84.357 179.689C84.357 178.047 84.272 176.492 84.272 174.85C84.272 174.16 84.445 173.554 84.358 172.862C84.098 168.887 84.098 164.912 83.581 161.023C83.061 156.875 83.061 152.813 83.149 148.665C83.235 146.418 83.062 144.085 82.976 141.838C82.976 138.813 82.976 135.875 83.062 132.85C83.062 132.418 83.235 132.072 83.408 131.64H83.667C83.753 131.813 83.667 132.072 83.84 132.16C84.099 132.418 84.53 132.85 84.704 132.764C85.223 132.418 86 132.072 86.173 131.554C86.605 130.517 86.778 129.394 86.778 128.356C86.778 127.579 87.124 127.06 87.468 126.541C87.642 126.282 87.728 126.023 87.902 125.677C87.556 125.418 87.21 125.245 86.778 124.9C87.124 123.95 87.037 122.825 88.334 122.307C88.507 122.22 88.507 121.788 88.593 121.529C88.679 120.839 88.766 120.06 88.852 119.369C89.025 119.629 89.111 119.714 89.284 119.887C89.371 119.714 89.457 119.628 89.457 119.628C89.457 119.282 89.371 118.591 89.457 118.591C90.494 118.418 90.062 117.295 90.581 116.776C90.667 116.69 90.494 116.43 90.494 116.258C90.494 116.085 90.494 115.825 90.581 115.825C91.79 115.566 91.618 114.27 92.395 113.665C92.655 113.492 92.741 113.233 93.087 112.801C93.777 114.011 92.567 114.616 92.482 115.481C93.951 114.616 94.382 112.542 93.519 111.937C93.865 111.677 94.209 111.332 94.469 110.987C95.419 109.949 96.457 108.998 97.321 107.961C97.926 107.183 98.271 106.233 98.877 105.455C99.223 105.023 99.914 104.677 100.432 104.418C101.988 103.554 103.457 102.603 104.408 101.134C104.581 100.961 104.84 100.788 105.098 100.616C105.358 100.443 105.877 100.443 105.963 100.183C106.05 100.011 105.79 99.5793 105.617 99.3193C105.963 99.1463 106.309 98.8013 107 98.4553C106.74 98.9753 106.655 99.3193 106.482 99.6653L106.914 100.097C107.692 99.4923 108.902 98.8013 109.679 98.2823C109.679 98.1963 109.247 97.8503 109.247 97.8503C108.729 98.1103 107.951 98.5423 107.173 98.8873C107.346 98.6283 107.346 98.4553 107.432 98.3693C108.642 97.5913 109.852 96.8133 111.148 96.2093C114.173 94.8253 117.198 93.4433 120.222 92.1463C120.741 91.8873 121.432 92.0603 122.037 92.0603C122.296 92.0603 122.469 92.0603 122.729 91.9743C124.111 91.5423 125.494 91.1103 126.877 90.7643C127.496 90.5936 128.135 90.5065 128.777 90.5053C131.371 90.5913 133.963 90.5913 136.556 90.7653C137.679 90.8503 138.716 91.1103 139.753 91.4553C141.05 91.8873 142.432 92.4923 143.642 93.0973C145.103 93.8789 146.517 94.7447 147.877 95.6903C150.383 97.3323 152.716 99.1463 155.222 100.616C157.642 102.086 159.542 104.072 161.099 106.319C162.999 108.999 165.161 111.419 166.025 114.702L167.321 120.406C167.58 121.443 168.185 122.48 167.926 123.69C167.494 125.85 167.148 128.097 166.803 130.258C166.63 131.122 166.457 131.986 166.543 132.85C166.716 135.53 165.679 137.862 164.642 140.282C164.296 141.06 163.778 141.838 163.346 142.702C163.432 142.788 163.951 143.048 164.036 143.048L164.815 141.492C164.901 141.492 164.901 141.492 164.988 141.579C164.556 142.789 164.21 144.085 163.778 145.295C162.741 147.975 161.704 150.739 160.408 153.332C159.716 154.802 158.506 156.012 157.642 157.393C156.778 158.603 156.087 159.899 155.222 161.023C154.445 161.974 153.667 162.924 152.63 163.616C150.296 165.344 147.877 167.072 145.37 168.456C143.815 169.406 142 169.924 140.272 170.356ZM94.21 165.776L94.124 165.862C93.951 165.776 93.692 165.689 93.519 165.517L91.445 162.407C91.272 162.147 91.185 161.887 91.272 161.541C92.2015 162.987 93.1815 164.399 94.21 165.776ZM147.963 177.616C151.852 175.973 155.05 173.64 157.988 170.961C158.42 170.529 158.852 170.097 159.371 169.751C163 167.504 165.679 164.393 168.099 160.936C170.864 156.961 172.679 152.467 174.926 148.233C175.099 147.887 175.272 147.541 175.445 147.283C175.272 157.134 176.395 166.813 177.691 176.578C167.926 176.924 157.988 177.271 147.963 177.616ZM235.593 175.023C235.506 175.196 235.333 175.368 235.247 175.541C235.16 175.368 235.16 175.109 235.074 174.764C234.554 176.146 233.432 175.455 232.654 175.455C227.988 175.541 223.234 175.541 218.568 175.541C214.074 175.541 209.494 175.541 205 175.628C203.53 175.628 201.975 175.973 200.506 176.06C196.963 176.233 193.42 176.32 189.876 176.405C189.616 176.405 189.358 175.973 188.926 175.628C188.84 175.801 188.666 176.06 188.406 176.405C188.321 176.233 188.148 176.06 187.975 175.801C187.903 176.037 187.816 176.268 187.715 176.492H187.457C187.284 175.282 186.937 174.159 186.937 172.949C186.937 170.356 187.197 167.764 187.284 165.171C187.37 163.961 187.284 162.838 187.284 161.714C187.63 161.974 187.889 162.146 188.234 162.406C188.407 162.06 188.58 161.801 188.753 161.541C188.753 161.541 188.58 161.455 188.407 161.282C188.58 161.196 188.753 161.023 188.753 160.937C188.84 160.677 189.012 160.418 189.012 160.245C189.012 159.64 188.84 159.122 188.752 158.603C188.84 158.603 188.926 158.603 189.012 158.517L189.531 161.109H189.79C189.445 160.504 190.568 159.986 189.617 159.294C189.531 159.208 189.704 158.689 189.704 158.43C189.444 157.912 189.272 157.393 189.012 156.702C189.099 156.616 189.358 156.529 189.617 156.443C189.272 156.27 189.012 156.097 188.753 156.01C189.617 155.233 189.617 154.801 188.84 153.936C189.012 153.85 189.185 153.85 189.185 153.764C189.185 152.986 189.185 152.208 189.012 151.43C188.84 150.566 189.272 149.53 187.975 149.011C188.055 149.258 188.172 149.491 188.321 149.702C188.321 149.702 188.061 149.788 187.801 149.962C186.679 148.924 187.37 147.542 187.111 145.986C187.716 146.159 188.148 146.332 188.58 146.504C188.407 145.9 187.975 145.208 187.716 144.43H187.37V138.727C187.37 138.813 187.975 138.813 188.32 138.899C188.32 138.813 188.407 138.727 188.407 138.64C188.147 138.294 187.802 137.95 187.457 137.517L187.63 137.344C186.938 136.48 187.284 135.27 187.284 135.011V128.961C188.148 129.825 186.852 130.949 188.148 131.467V130.603H188.062C187.975 129.307 187.975 128.011 187.889 126.714H187.716C187.63 126.887 187.63 126.974 187.543 127.146H187.37C187.543 120.319 187.716 113.492 187.889 106.492C188.753 107.616 189.704 108.653 190.309 109.776C192.296 113.406 194.889 116.517 197.309 119.801C199.383 122.653 201.284 125.764 203.185 128.702C205.518 132.245 207.765 135.788 210.099 139.332C211.835 142.016 213.621 144.666 215.457 147.282C217.099 149.615 218.827 151.862 220.556 154.109C222.025 156.097 223.58 158.085 225.049 160.072C226.778 162.492 228.506 164.912 230.235 167.245C231.099 168.455 232.049 169.665 233 170.875C233.518 171.566 234.296 172.085 234.815 172.517C234.728 172.517 234.642 172.517 234.469 172.43C234.728 172.776 234.901 173.035 235.074 173.208C236.024 173.726 236.111 174.245 235.593 175.023ZM240 153.418V152.813C240 152.986 240.086 153.245 240 153.418ZM242.938 115.308C242.852 115.308 242.333 114.788 242.247 114.702C242.16 114.962 242.247 115.22 242.074 115.566C241.988 115.307 241.383 115.393 241.383 115.134C241.296 116.344 241.901 117.554 241.815 118.764C242.074 118.591 243.111 118.504 243.37 118.245C243.457 118.332 243.629 118.418 243.716 118.418C241.988 119.714 242.42 121.011 243.196 122.48C243.37 122.825 243.889 123.517 243.37 124.208C243.197 124.381 243.457 124.9 243.543 125.332H243.802V125.504L243.025 125.764C242.852 125.504 241.815 124.986 241.815 124.554V128.961C242.679 129.221 242.679 130.431 243.025 131.035C243.197 130.776 243.284 130.603 243.37 130.345L243.457 130.43C243.37 130.95 243.284 131.467 243.111 131.986C242.938 132.764 242.765 133.456 242.679 134.233C242.679 134.319 242.852 134.493 242.852 134.578C241.901 136.739 242.42 139.159 242.074 141.406C241.814 143.048 242.074 144.776 241.901 146.504C241.728 147.974 241.383 149.529 241.037 150.998C240.951 151.258 240.777 151.344 240.346 151.518C240.518 150.48 240.432 149.788 240.259 148.838C240.173 148.838 239.049 148.233 238.963 148.233C238.963 149.443 239.653 151.085 239.913 152.467C239.653 152.381 238.617 151.777 238.531 151.777C238.358 152.813 238.358 154.197 238.271 155.319C238.185 156.183 237.407 156.961 237.321 157.912C237.321 158.43 237.926 158.776 237.839 159.64H238.531C238.531 157.912 239.309 156.356 239.309 154.541H239.568C239.654 154.714 239.914 154.887 239.827 154.974C239.654 155.924 239.309 156.961 239.395 157.912C239.395 158.43 239.827 158.949 239.654 159.554C239.481 160.072 239.394 160.591 239.309 161.368C239.222 160.936 239.136 160.764 239.136 160.504C239.049 160.504 238.272 160.418 238.185 160.418C238.099 160.936 238.79 161.455 238.704 161.888C238.617 161.974 238.531 161.974 238.358 162.06L235.506 157.912C233.259 154.628 231.012 151.344 228.765 147.974C228.184 147.149 227.664 146.283 227.21 145.381C224.53 140.801 221.593 136.393 218.309 132.159C215.802 128.961 213.815 125.504 211.481 122.134C209.321 118.937 207.16 115.825 205 112.628C204.222 111.591 203.272 110.64 202.58 109.518C200.333 105.974 198.346 102.344 196.099 98.8013C194.198 95.8623 192.123 93.0113 190.136 90.1593C189.425 89.1649 188.733 88.1563 188.062 87.1343C187.975 86.9613 187.889 86.7883 187.889 86.5293C187.716 84.6293 187.543 82.7273 187.457 80.9123C187.457 79.1833 187.63 77.4553 187.63 75.6403V74.0853C187.63 73.6533 187.716 73.3073 187.716 72.8753C187.802 72.7883 187.889 72.6163 187.975 72.5293C185.469 72.5293 182.877 72.4433 180.37 72.5293C178.729 72.6163 177.864 71.9243 176.74 70.7153C173.457 66.9983 171.037 62.7653 168.185 58.7893C165.505 54.9863 162.741 51.2703 159.975 47.5543C157.729 44.5293 155.482 41.5913 153.235 38.5663C150.729 35.1103 148.309 31.6533 145.715 28.1963C142.605 24.0483 139.408 19.9003 136.21 15.7523C134.74 13.8503 133.099 12.0363 131.457 10.0483C132.58 10.2213 133.617 10.3943 134.655 10.4803L138.803 10.7403C141.913 11.0003 145.025 11.1713 148.136 11.6033C150.729 11.9493 153.321 12.4683 156 12.9003C161.704 13.8503 167.32 15.4063 172.766 17.2213C175.963 18.2583 179.074 19.6413 182.185 20.9373C189.185 23.7893 195.84 27.2453 202.407 30.8753C204.482 31.9983 205.691 33.8133 207.247 35.4553C209.494 37.7893 211.741 40.1223 213.901 42.5423C216.407 45.3943 218.741 48.3323 221.16 51.2703C223.32 53.8633 225.568 56.4553 227.728 59.0483C228.42 59.8263 228.938 60.7763 229.543 61.6403C230.926 63.7143 232.481 65.7023 233.691 67.9503C234.556 69.5913 235.074 71.4923 235.679 73.3073C236.543 75.9873 237.407 78.5793 238.272 81.2583C238.881 83.2792 239.4 85.3262 239.827 87.3933C240.173 88.7763 240.086 90.2453 240.517 91.6283C241.037 93.4433 240.517 95.4303 241.037 97.2453C241.123 97.4183 241.21 97.6773 241.296 97.8503C241.642 98.1963 241.901 98.5413 241.383 99.0603C241.296 99.1463 241.296 99.4923 241.383 99.7513C241.555 99.5793 241.642 99.4063 241.815 99.1463C241.815 99.3193 241.901 99.4063 241.901 99.4923C241.901 99.8383 241.815 100.183 241.901 100.529C241.901 100.702 242.074 100.961 242.16 101.134C242.333 100.961 242.506 100.875 242.852 100.616C243.629 103.554 243.716 106.492 243.716 109.517C243.716 112.369 244.234 115.22 243.025 117.987C243.284 117.035 242.679 116.172 242.938 115.308Z" fill="#DD3735"/>
<path d="M188.001 149.198C188.087 149.198 188.174 149.285 188.174 149.285L188.087 149.198C188.087 149.112 188.087 149.112 188.001 149.198ZM201.655 234.581C200.705 235.272 199.754 235.877 198.544 236.136C198.458 236.05 198.458 235.963 198.371 235.877C199.322 235.272 200.359 234.667 201.31 234.062C201.396 234.235 201.569 234.408 201.655 234.581ZM39.619 117.482C40.569 116.272 41.52 115.062 42.557 113.853C42.643 113.939 43.335 114.112 43.421 114.198C42.471 115.408 41.174 117.05 40.224 118.346C40.051 118.174 39.792 117.569 39.619 117.482ZM15.076 159.828C14.384 158.359 13.693 156.803 13.002 155.334C13.088 155.248 13.693 154.988 13.779 154.988C14.73 156.371 15.162 158.013 15.853 159.482C15.853 159.482 15.162 159.828 15.076 159.828ZM37.113 118.346C36.594 119.124 36.076 119.988 35.557 120.766C35.471 120.68 34.52 121.112 34.434 121.025C34.952 120.248 36.248 118.865 36.767 118.087C36.853 118.174 36.94 118.26 37.113 118.346ZM192.408 238.124C192.495 238.124 192.495 238.037 192.581 238.037C193.186 238.124 193.878 238.21 194.569 238.21C193.445 238.988 192.754 238.902 192.408 238.124ZM37.285 121.976C37.372 121.717 37.545 121.457 37.717 121.198C37.89 121.198 38.15 121.112 38.15 121.112C38.495 120.507 38.495 120.075 38.841 119.556C38.755 119.47 38.668 119.47 38.582 119.383C38.063 119.729 37.545 120.161 37.026 120.507C37.199 120.68 37.199 120.766 37.199 120.939C36.508 120.853 36.248 121.198 35.903 122.149C35.816 122.408 35.384 122.494 34.952 122.84C34.866 123.013 34.779 123.445 34.606 123.877L34.693 123.964C34.5675 124.078 34.4207 124.166 34.261 124.223C33.742 124.741 33.137 125.174 32.619 125.692C32.532 125.951 32.446 126.211 32.446 126.47C33.051 125.865 34.088 124.741 34.866 124.05L34.952 124.136C35.298 123.618 35.557 123.099 35.903 122.581C35.989 122.667 35.989 122.754 36.076 122.84C35.816 123.531 35.557 124.309 35.298 125.001C35.125 125.087 34.866 125.26 34.866 125.174C34.52 125.433 34.261 125.778 33.915 126.038L32.36 127.075C31.495 127.853 30.631 128.544 29.681 129.322C29.076 130.272 28.471 131.136 27.779 132.26C28.816 132.001 29.076 132.433 28.989 133.297C30.199 133.47 30.285 132.519 30.631 131.828C30.718 131.655 30.804 131.309 30.977 131.223C31.755 130.532 32.619 129.927 33.483 129.235C33.656 129.062 33.656 128.717 33.656 128.457C33.656 128.371 33.224 128.371 32.965 128.285C33.742 127.42 34.866 125.951 35.644 125.001C36.076 124.741 36.508 124.396 36.508 124.136C36.421 123.186 37.026 122.927 37.717 122.581C37.372 122.322 37.285 122.062 37.285 121.976Z" fill="#DD3735"/>
<path d="M39.014 121.025C38.668 121.63 38.323 122.149 37.977 122.754L37.458 122.494C37.113 124.482 35.903 126.211 34.693 126.556C35.039 126.729 35.384 126.902 35.644 126.815C35.903 126.729 36.076 126.297 36.248 126.038L38.582 122.667L39.36 121.371L39.014 121.025ZM10.236 158.963C10.668 158.963 11.1 159.05 11.619 159.05C11.619 158.704 12.051 158.791 12.051 158.445H12.31C12.31 158.877 12.397 159.223 12.397 159.655H10.582C10.495 159.568 10.15 159.05 10.236 158.963ZM9.545 154.988C9.286 154.729 8.853 154.47 8.853 154.21C8.767 153.865 9.026 153.433 9.286 153.001C9.458 153.605 9.545 154.124 9.718 154.729C9.631 154.815 9.545 154.902 9.545 154.988ZM11.705 149.457C12.051 150.322 12.397 151.272 12.742 152.136C12.656 152.136 12.137 152.396 12.051 152.482C11.705 151.618 11.273 150.667 10.928 149.803C11.014 149.717 11.532 149.457 11.705 149.457ZM204.075 232.075C204.507 231.902 205.026 231.815 205.717 231.642C204.939 232.247 204.334 232.679 203.816 233.198C203.729 233.111 203.643 233.025 203.557 233.025C203.729 232.679 203.902 232.42 204.075 232.074V232.075ZM97.866 49.4696C98.384 49.1236 98.816 48.8646 99.335 48.5186L99.508 48.6916C98.989 49.3836 98.557 50.0746 97.952 50.9386C97.866 50.3336 97.866 49.9876 97.779 49.5556C97.693 49.5556 97.779 49.5556 97.866 49.4696ZM123.186 93.1976C123.964 92.8526 124.742 92.5065 125.693 92.0746C125.606 92.5926 125.606 92.9385 125.606 93.2845C125.347 93.1975 125.001 93.1116 124.742 93.1116C124.224 93.1976 123.273 93.8896 122.841 93.9756C122.754 93.9756 123.186 93.2846 123.186 93.1976ZM188.001 166.482C188.174 167.346 189.816 167.778 188.174 168.642C188.433 168.815 188.692 168.902 188.952 169.075C188.952 169.161 188.865 169.334 188.779 169.42C188.606 169.507 188.26 169.68 188.087 169.593C188.001 169.593 187.828 169.247 187.828 169.075C187.828 168.297 187.915 167.519 188.001 166.482Z" fill="#DD3735"/>
</g>
<defs>
<clipPath id="clip0_18_739">
<rect width="256" height="256" fill="white"/>
</clipPath>
</defs>
</svg>
