<svg width="257" height="250" viewBox="0 0 257 250" fill="none" xmlns="http://www.w3.org/2000/svg">
<g clip-path="url(#clip0_21_1848)">
<path d="M45.7397 0H210.695C235.698 0 255.919 20.221 255.919 45.2233V203.804C255.919 228.806 235.698 249.027 210.695 249.027H45.7397C20.7374 249.027 0.516357 228.806 0.516357 203.804V45.2233C0.516357 20.221 20.7374 0 45.7397 0Z" fill="#330000"/>
<path d="M125.217 158.458H85.5465L77.4752 183.531C77.2482 184.474 76.3831 185.123 75.4142 185.076H55.3215C54.1757 185.076 53.775 184.447 54.1194 183.187L88.4658 84.2687C88.8095 83.2385 89.1531 82.065 89.4965 80.7481C89.9458 78.4569 90.1758 76.1281 90.1835 73.7932C90.1362 73.4621 90.2476 73.1281 90.484 72.8916C90.7205 72.6551 91.0545 72.5437 91.3856 72.5908H118.691C119.491 72.5908 119.949 72.8771 120.065 73.4497L159.049 183.359C159.392 184.505 159.048 185.077 158.018 185.076H135.692C134.899 185.164 134.164 184.65 133.975 183.874L125.217 158.458ZM91.7288 136.819H118.863L118.477 135.542L117.855 133.52L117.412 132.101L116.705 129.865L115.202 125.157L113.88 120.984L110.448 110.115C109.565 107.318 108.745 104.605 107.988 101.977L107.359 99.7673L106.625 97.1535L105.505 93.1041C105.434 92.847 105.365 92.5924 105.296 92.3403H105.124C104.265 96.463 103.218 100.544 101.988 104.571L99.4399 112.766L98.0381 117.294L96.6231 121.878C96.3676 122.706 96.1128 123.525 95.8586 124.334L95.0983 126.733L94.3422 129.074L93.5903 131.359L92.8426 133.586C92.594 134.319 92.3462 135.042 92.099 135.756L91.7288 136.819ZM182.23 90.7948C178.688 90.937 175.252 89.5628 172.785 87.0166C170.328 84.3637 169.03 80.8407 169.178 77.2278C169.052 73.6458 170.457 70.1795 173.042 67.6966C175.511 65.3272 178.795 64.0062 182.208 64L182.574 64.0044C186.695 64.0044 189.93 65.2351 192.277 67.6966C194.669 70.2801 195.936 73.7093 195.797 77.2278C195.942 80.856 194.61 84.388 192.105 87.0166C189.572 89.513 186.143 90.8762 182.597 90.807L182.23 90.7948ZM170.38 183.359V101.27C170.38 100.24 170.837 99.7247 171.754 99.7247H192.878C193.793 99.7247 194.251 100.24 194.252 101.27V183.359C194.252 184.505 193.794 185.077 192.878 185.076H171.926C170.95 185.076 170.436 184.562 170.385 183.535L170.38 183.359Z" fill="#FF9A00"/>
</g>
<defs>
<clipPath id="clip0_21_1848">
<rect width="256" height="250" fill="white" transform="translate(0.516357)"/>
</clipPath>
</defs>
</svg>
