<svg width="118" height="256" viewBox="0 0 118 256" fill="none" xmlns="http://www.w3.org/2000/svg">
<g clip-path="url(#clip0_20_482)">
<path fill-rule="evenodd" clip-rule="evenodd" d="M109.441 83.5371C112.808 93.2798 115.234 103.226 116.032 113.535C117.022 126.325 116.569 139.024 113.872 151.604C113.799 151.95 113.644 152.275 113.528 152.611C112.683 152.613 111.82 152.508 110.993 152.636C104.008 153.734 97.0288 154.871 90.0496 156.002C82.8355 157.171 75.6108 158.293 68.4092 159.542C65.8576 159.982 62.6996 159.456 61.6693 162.985C61.6399 163.082 61.3462 163.099 61.1762 163.153L61.5245 142.062L61.1699 91.173L64.5315 90.596C70.0292 89.6958 75.5269 88.783 81.0288 87.908C87.5946 86.8651 94.1666 85.8516 100.737 84.8339C103.634 84.3827 106.536 83.9694 109.441 83.5371Z" fill="#439934"/>
<path fill-rule="evenodd" clip-rule="evenodd" d="M54.2348 224.637C50.6886 221.588 47.0186 218.673 43.6192 215.467C25.3278 198.214 11.9487 177.908 5.3598 153.427C3.54472 146.689 2.33396 139.842 1.94577 132.88C1.67298 128.007 1.27848 123.091 1.62261 118.244C2.5396 105.351 4.40295 92.5827 8.18419 80.1646L8.39193 79.875C8.75914 80.3639 9.28793 80.7962 9.47468 81.348C13.1657 92.2176 16.8294 103.095 20.4743 113.98C31.9271 148.183 43.3653 182.395 54.837 216.589C55.0616 217.257 55.6428 217.804 56.0604 218.407L54.2348 224.637Z" fill="#45A538"/>
<path fill-rule="evenodd" clip-rule="evenodd" d="M109.441 83.5388C106.536 83.9711 103.632 84.3844 100.734 84.8314C94.1645 85.8491 87.5925 86.8626 81.0267 87.9055C75.5248 88.7805 70.0271 89.6933 64.5294 90.5935L61.1678 91.1705L61.1426 88.9778C61.0314 87.1753 60.8404 85.3749 60.8195 83.5724C60.6747 72.0776 60.5844 60.5827 60.4418 49.0879C60.3536 41.8926 60.2214 34.6995 60.0746 27.5063C59.9843 23.0368 59.8878 18.5652 59.6864 14.1019C59.5772 11.7035 59.1911 9.31768 59.0338 6.91926C58.9456 5.54063 59.0673 4.15152 59.0946 2.7666C60.809 6.08831 62.4856 9.43519 64.2482 12.7317C67.0327 17.944 71.4687 21.784 75.4618 25.9745C91.2478 42.5347 102.455 61.7893 109.441 83.5388Z" fill="#46A037"/>
<path fill-rule="evenodd" clip-rule="evenodd" d="M61.1741 163.151C61.3441 163.096 61.6399 163.08 61.6672 162.983C62.6975 159.454 65.8555 159.98 68.4071 159.54C75.6087 158.293 82.8334 157.168 90.0475 156C97.0267 154.869 104.006 153.731 110.991 152.634C111.818 152.504 112.68 152.611 113.526 152.609C112.221 157.267 111.193 162.026 109.537 166.557C107.657 171.695 105.382 176.711 102.967 181.627C99.3514 188.96 94.8763 195.837 89.6363 202.113C85.6095 206.956 81.1211 211.432 76.6222 215.853C74.1357 218.298 71.2043 220.289 68.4764 222.486L67.7692 222.004L65.2218 219.826L62.5863 214.049C60.7861 207.31 59.804 200.379 59.6612 193.405L59.7094 192.228L60.0683 187.137C60.1879 185.4 60.3473 183.664 60.4208 181.923C60.6915 175.666 60.9265 169.408 61.1741 163.151Z" fill="#409433"/>
<path fill-rule="evenodd" clip-rule="evenodd" d="M61.1741 163.151C60.9265 169.408 60.6915 175.666 60.425 181.925C60.3515 183.667 60.1921 185.402 60.0725 187.14L58.4672 187.746C54.9021 177.25 51.3349 166.865 47.8453 156.453C42.0748 139.228 36.3736 121.975 30.6115 104.745C25.9575 90.8384 21.2712 76.9424 16.5525 63.0573C16.3321 62.4068 15.6984 61.899 15.2578 61.324L25.5313 42.4346C25.8839 43.0473 26.3497 43.6201 26.5721 44.279C31.3302 58.3425 36.0641 72.4141 40.7738 86.4939C46.8926 104.813 52.9737 123.146 59.0883 141.467C59.3317 142.199 59.7346 142.875 60.1186 143.695L61.5245 142.058L61.1741 163.151Z" fill="#4FAA41"/>
<path fill-rule="evenodd" clip-rule="evenodd" d="M15.2599 61.3262C15.7005 61.9011 16.3321 62.4089 16.5545 63.0594C21.2733 76.9445 25.9596 90.8406 30.6136 104.748C36.3757 121.977 42.0769 139.23 47.8474 156.455C51.3349 166.865 54.9021 177.252 58.4693 187.748L60.0745 187.142L59.7157 192.232L59.3905 193.405C58.8323 198.979 58.3623 204.564 57.6824 210.125C57.3404 212.912 56.6143 215.648 56.0625 218.407C55.647 217.805 55.0637 217.257 54.8391 216.59C43.3674 182.393 31.9292 148.184 20.4764 113.98C16.8328 103.095 13.1662 92.2182 9.47677 81.3487C9.29001 80.7969 8.76333 80.3646 8.39402 79.8757L15.2599 61.3262Z" fill="#4AA73C"/>
<path fill-rule="evenodd" clip-rule="evenodd" d="M61.5224 142.061L60.1165 143.698C59.7325 142.877 59.3296 142.199 59.0862 141.469C52.9737 123.148 46.8905 104.815 40.7717 86.4964C36.062 72.4166 31.3281 58.345 26.57 44.2815C26.3497 43.6226 25.8839 43.0477 25.5292 42.4371L38.2348 25.7236C38.6356 26.2587 39.2063 26.735 39.4141 27.3373C42.9414 37.6633 46.4373 48.0019 49.9122 58.3468C53.1583 68.0077 56.3562 77.6832 59.6402 87.3315C59.8605 87.9778 60.6264 88.4352 61.1384 88.9808L61.1636 91.1736C61.2853 108.133 61.4049 125.098 61.5224 142.061Z" fill="#57AE47"/>
<path fill-rule="evenodd" clip-rule="evenodd" d="M61.1426 88.9762C60.6306 88.4306 59.8647 87.9732 59.6444 87.3269C56.3605 77.6786 53.1626 68.0031 49.9164 58.3422C46.4415 47.9973 42.9456 37.6608 39.4183 27.3326C39.2106 26.7304 38.6398 26.2541 38.239 25.719C42.3707 21.6733 46.3744 17.4829 50.6718 13.624C54.4929 10.1953 57.5649 6.51899 57.7055 1.10102C57.7118 0.876494 57.8293 0.651969 58.0098 0.0224609L59.0988 2.76292C59.0715 4.14994 58.9477 5.53695 59.038 6.91558C59.1953 9.314 59.5814 11.6998 59.6906 14.0983C59.892 18.5615 59.9885 23.0331 60.0788 27.5026C60.2235 34.6958 60.3557 41.889 60.446 49.0842C60.5866 60.5791 60.6789 72.0739 60.8237 83.5687C60.8405 85.3754 61.0293 87.1737 61.1426 88.9762Z" fill="#60B24F"/>
<path fill-rule="evenodd" clip-rule="evenodd" d="M56.0583 218.406C56.6101 215.646 57.3362 212.908 57.6782 210.124C58.3602 204.565 58.8281 198.977 59.3863 193.404L59.5248 193.383L59.6633 193.406C59.806 200.38 60.7882 207.311 62.5884 214.05C62.2191 214.536 61.6966 214.971 61.5014 215.521C59.9759 219.822 58.5385 224.157 57.0046 228.459C56.7948 229.047 56.2115 229.504 55.8002 230.02L54.2327 224.636L56.0583 218.406Z" fill="#A9AA88"/>
<path fill-rule="evenodd" clip-rule="evenodd" d="M55.8023 230.022C56.2136 229.506 56.799 229.049 57.0067 228.461C58.5406 224.16 59.9801 219.826 61.5035 215.523C61.6987 214.973 62.2191 214.539 62.5905 214.052L65.2239 219.831C64.7035 220.569 63.9859 221.234 63.6963 222.057L58.6519 236.869C58.4441 237.463 57.7349 237.883 57.2606 238.384L55.8023 230.022Z" fill="#B6B598"/>
<path fill-rule="evenodd" clip-rule="evenodd" d="M57.2607 238.382C57.737 237.882 58.4441 237.461 58.6519 236.867L63.6963 222.054C63.9838 221.234 64.7036 220.567 65.2239 219.828L67.7734 222.004C66.5417 223.221 65.8576 224.627 66.2689 226.404L65.4946 228.939C65.1421 229.374 64.6322 229.751 64.458 230.249C62.6975 235.291 61.0167 240.361 59.2436 245.403C59.0191 246.043 58.3959 246.544 57.9552 247.107C57.7265 244.196 57.4936 241.292 57.2607 238.382Z" fill="#C2C1A7"/>
<path fill-rule="evenodd" clip-rule="evenodd" d="M57.9573 247.108C58.3959 246.544 59.0191 246.042 59.2457 245.404C61.0188 240.364 62.6996 235.294 64.4601 230.25C64.6343 229.755 65.1421 229.375 65.4967 228.94L64.4286 240.576C64.1433 240.905 63.7299 241.193 63.5935 241.577C62.3869 244.964 61.2496 248.375 60.0389 251.762C59.7892 252.461 59.3107 253.078 58.9372 253.73C58.6057 253.296 58.0119 252.876 57.9846 252.423C57.8776 250.658 57.951 248.881 57.9573 247.108Z" fill="#CECDB7"/>
<path fill-rule="evenodd" clip-rule="evenodd" d="M58.9351 253.731C59.3087 253.076 59.7871 252.459 60.0368 251.763C61.2496 248.378 62.3849 244.966 63.5914 241.577C63.7278 241.193 64.1433 240.908 64.4265 240.576L64.4517 248.214L61.8959 254.769L58.9351 253.731Z" fill="#DBDAC7"/>
<path fill-rule="evenodd" clip-rule="evenodd" d="M61.8959 254.77L64.4517 248.215L64.9784 255.97L61.8959 254.77Z" fill="#EBE9DC"/>
<path fill-rule="evenodd" clip-rule="evenodd" d="M66.2689 226.406C65.8576 224.629 66.5396 223.221 67.7734 222.006L68.4806 222.488L66.2689 226.406Z" fill="#CECDB7"/>
<path fill-rule="evenodd" clip-rule="evenodd" d="M59.6633 193.408L59.5248 193.385L59.3863 193.406L59.7115 192.233L59.6633 193.408Z" fill="#4FAA41"/>
</g>
<defs>
<clipPath id="clip0_20_482">
<rect width="117.508" height="256" fill="white" transform="translate(0.246094 -0.00195312)"/>
</clipPath>
</defs>
</svg>
