<svg xmlns="http://www.w3.org/2000/svg" width="256" height="206" fill="none" viewBox="0 0 256 206"><g clip-path="url(#a)"><path fill="url(#b)" d="M28.24 28.16C27.759 14.29 38.565 1.5 53.172 1.5h149.677c14.606 0 25.413 12.79 24.93 26.66-.464 13.324.138 30.583 4.482 44.655C236.617 86.931 243.965 95.854 256 97v13c-12.035 1.146-19.383 10.069-23.74 24.185-4.344 14.072-4.946 31.331-4.482 44.655.483 13.87-10.324 26.66-24.93 26.66H53.171c-14.607 0-25.413-12.79-24.93-26.66.463-13.324-.139-30.583-4.483-44.655C19.401 120.069 12.035 111.146 0 110V97c12.035-1.147 19.401-10.069 23.758-24.185 4.344-14.072 4.947-31.331 4.483-44.655"/><g filter="url(#c)"><path fill="url(#d)" d="M131.515 156.896c23.602 0 37.825-11.568 37.825-30.648 0-14.423-10.148-24.864-25.217-26.517v-.601c11.071-1.803 19.759-12.094 19.759-23.587 0-16.376-12.916-27.043-32.598-27.043H87v108.396zm-27.293-94.65h22.911c12.455 0 19.527 5.56 19.527 15.625 0 10.743-8.226 16.752-23.141 16.752h-19.297zm0 80.904v-35.682h22.756c16.299 0 24.756 6.01 24.756 17.728s-8.226 17.954-23.756 17.954z"/><path stroke="#ebebeb" stroke-width=".499" d="M131.515 156.896c23.602 0 37.825-11.568 37.825-30.648 0-14.423-10.148-24.864-25.217-26.517v-.601c11.071-1.803 19.759-12.094 19.759-23.587 0-16.376-12.916-27.043-32.598-27.043H87v108.396zm-27.293-94.65h22.911c12.455 0 19.527 5.56 19.527 15.625 0 10.743-8.226 16.752-23.141 16.752h-19.297zm0 80.904v-35.682h22.756c16.299 0 24.756 6.01 24.756 17.728s-8.226 17.954-23.756 17.954z"/></g></g><defs><linearGradient id="b" x1="38.039" x2="261.74" y1="6.899" y2="184.473" gradientUnits="userSpaceOnUse"><stop stop-color="#9013fe"/><stop offset="1" stop-color="#6610f2"/></linearGradient><linearGradient id="d" x1="94.788" x2="144.767" y1="55.635" y2="140.077" gradientUnits="userSpaceOnUse"><stop stop-color="#ebebeb"/><stop offset="1" stop-color="#f1e5fc"/></linearGradient><clipPath id="a"><path fill="#ebebeb" d="M0 .5h256v205H0z"/></clipPath><filter id="c" width="98.808" height="124.865" x="78.766" y="42.262" color-interpolation-filters="sRGB" filterUnits="userSpaceOnUse"><feFlood flood-opacity="0" result="BackgroundImageFix"/><feColorMatrix in="SourceAlpha" result="hardAlpha" values="0 0 0 0 0 0 0 0 0 0 0 0 0 0 0 0 0 0 127 0"/><feOffset dy="1.996"/><feGaussianBlur stdDeviation="3.992"/><feColorMatrix values="0 0 0 0 0 0 0 0 0 0 0 0 0 0 0 0 0 0 0.15 0"/><feBlend in2="BackgroundImageFix" result="effect1_dropShadow_18_768"/><feBlend in="SourceGraphic" in2="effect1_dropShadow_18_768" result="shape"/></filter></defs></svg>
