<svg xmlns="http://www.w3.org/2000/svg" width="257" height="251" fill="none" viewBox="0 0 257 251"><g clip-path="url(#a)"><path fill="#2088ff" d="M54.243-2.602C24.85-2.602.91 21.338.91 50.73c0 25.74 18.362 47.302 42.668 52.26v75.74c0 23.54 19.36 42.668 42.664 42.668h.39c2.604 18.046 18.2 32 36.946 32 20.556 0 37.332-16.776 37.332-37.332s-16.776-37.336-37.332-37.336c-18.744 0-34.34 13.954-36.946 32h-.39c-17.474 0-32-14.304-32-32v-53.774a37.03 37.03 0 0 0 26.48 11.11h5.91c2.606 18.046 18.2 32 36.946 32 18.744 0 34.338-13.954 36.94-32h22.114c2.606 18.046 18.2 32 36.946 32 20.556 0 37.332-16.78 37.332-37.336s-16.776-37.332-37.332-37.332c-18.746 0-34.342 13.954-36.946 32h-22.112c-2.602-18.046-18.196-32-36.942-32s-34.342 13.954-36.946 32h-5.91c-12.866 0-23.586-9.178-25.976-21.344 29.16-.272 52.832-24.1 52.832-53.324 0-29.392-23.944-53.332-53.336-53.332m0 10.668A42.584 42.584 0 0 1 96.91 50.73a42.59 42.59 0 0 1-42.668 42.668A42.583 42.583 0 0 1 11.579 50.73 42.583 42.583 0 0 1 54.243 8.066m-10.43 15.082c-5.562.028-10.902 4.496-10.902 10.582v34.086c0 8.086 9.418 13.326 16.29 9.066l27.268-16.91c6.514-4.04 6.548-14.004.064-18.09l-27.27-17.18a10.05 10.05 0 0 0-5.45-1.554m-.234 10.582 27.27 17.176-27.27 16.91zm80 70.336a26.588 26.588 0 0 1 24.657 16.447 26.6 26.6 0 0 1 2.007 10.217 26.58 26.58 0 0 1-16.447 24.659 26.6 26.6 0 0 1-10.217 2.009 26.59 26.59 0 0 1-26.668-26.668 26.59 26.59 0 0 1 16.45-24.656 26.6 26.6 0 0 1 10.218-2.008m96 0a26.588 26.588 0 0 1 24.657 16.447 26.6 26.6 0 0 1 2.007 10.217 26.58 26.58 0 0 1-16.447 24.659 26.6 26.6 0 0 1-10.217 2.009 26.59 26.59 0 0 1-26.668-26.668 26.57 26.57 0 0 1 7.788-18.878 26.58 26.58 0 0 1 18.88-7.786m-85.136 13.902a5.34 5.34 0 0 0-3.774 1.56l-12.6 12.588-4.186-4.168a5.34 5.34 0 0 0-7.542.012 5.34 5.34 0 0 0-1.555 3.776 5.329 5.329 0 0 0 1.571 3.768l7.948 7.92a5.333 5.333 0 0 0 7.532-.002l16.37-16.348a5.33 5.33 0 0 0 1.564-3.771 5.34 5.34 0 0 0-1.56-3.773 5.34 5.34 0 0 0-3.768-1.562m96 0a5.34 5.34 0 0 0-3.774 1.56l-12.6 12.588-4.186-4.168a5.34 5.34 0 0 0-7.542.012 5.34 5.34 0 0 0-1.555 3.776 5.329 5.329 0 0 0 1.571 3.768l7.948 7.92a5.333 5.333 0 0 0 7.532-.002l16.37-16.348a5.33 5.33 0 0 0 1.564-3.771 5.34 5.34 0 0 0-1.56-3.773 5.34 5.34 0 0 0-3.768-1.562m-106.864 71.43a26.582 26.582 0 0 1 24.656 16.451 26.6 26.6 0 0 1 2.008 10.217 26.58 26.58 0 0 1-26.664 26.664 26.587 26.587 0 0 1-26.668-26.664 26.585 26.585 0 0 1 16.45-24.659 26.6 26.6 0 0 1 10.218-2.009m-10.668 18.668c-4.386 0-8 3.614-8 8 0 4.39 3.616 8 8 8s8-3.61 8-8c0-4.386-3.614-8-8-8m21.332 0c-4.386 0-8 3.614-8 8 0 4.39 3.616 8 8 8s8-3.61 8-8c0-4.386-3.614-8-8-8m-21.332 5.332c1.5 0 2.668 1.17 2.668 2.668 0 1.506-1.166 2.664-2.668 2.664-1.5 0-2.668-1.16-2.668-2.664 0-1.5 1.17-2.668 2.668-2.668m21.332 0c1.5 0 2.668 1.17 2.668 2.668 0 1.506-1.166 2.664-2.668 2.664-1.5 0-2.664-1.16-2.664-2.664 0-1.5 1.166-2.668 2.664-2.668"/><path fill="#79b8ff" d="M219.579 178.73c-18.766 0-34.376 13.986-36.954 32.062a6 6 0 0 0-.53-.022l-5.4.18a5.335 5.335 0 0 0-5.156 5.502 5.33 5.33 0 0 0 5.504 5.156l5.4-.174q.097-.003.194-.012c2.614 18.034 18.204 31.976 36.942 31.976 20.556 0 37.332-16.776 37.332-37.332s-16.776-37.336-37.332-37.336m0 10.668a26.585 26.585 0 0 1 24.656 16.451 26.6 26.6 0 0 1 2.008 10.217 26.58 26.58 0 0 1-26.664 26.664 26.58 26.58 0 0 1-26.668-26.664 26.58 26.58 0 0 1 16.45-24.659 26.6 26.6 0 0 1 10.218-2.009"/></g><defs><clipPath id="a"><path fill="#ebebeb" d="M.91.5h256v250H.91z"/></clipPath></defs></svg>
