<svg xmlns="http://www.w3.org/2000/svg" width="257" height="130" fill="none" viewBox="0 0 257 130">
  <path fill="#ebebeb" d="M50.584 108.512v15.844h-1.857l-8.634-12.44h-.154v12.44h-1.92v-15.844h1.858l8.664 12.471h.155v-12.471zm7.765 16.092q-1.609 0-2.823-.766-1.207-.766-1.888-2.143-.673-1.377-.673-3.218 0-1.857.673-3.242.68-1.385 1.888-2.15 1.214-.766 2.823-.766 1.61 0 2.817.766 1.214.765 1.887 2.15.681 1.385.681 3.242 0 1.84-.68 3.218-.675 1.377-1.889 2.143-1.206.766-2.816.766m0-1.64q1.223 0 2.012-.627t1.168-1.648q.38-1.02.38-2.212 0-1.191-.38-2.221-.38-1.029-1.168-1.663-.79-.634-2.012-.634t-2.011.634-1.168 1.663a6.4 6.4 0 0 0-.38 2.221q0 1.191.38 2.212.378 1.021 1.168 1.648t2.011.627m12.006 1.64q-1.486 0-2.623-.75-1.137-.759-1.78-2.136-.642-1.385-.642-3.272 0-1.872.642-3.249.643-1.378 1.788-2.128t2.645-.75q1.16 0 1.834.386.681.38 1.037.867.363.48.564.789h.155v-5.849h1.826v15.844h-1.764v-1.825h-.217q-.2.324-.572.82-.371.487-1.06.874-.688.38-1.834.379m.247-1.64q1.099 0 1.857-.573.758-.58 1.153-1.601.394-1.03.394-2.375 0-1.33-.387-2.329-.387-1.005-1.145-1.563-.758-.564-1.872-.564-1.16 0-1.934.595-.766.588-1.153 1.602-.379 1.005-.379 2.259 0 1.269.387 2.305.395 1.03 1.16 1.64.774.604 1.92.604m13.125 1.64q-1.718 0-2.963-.758-1.238-.767-1.91-2.135-.666-1.377-.666-3.203t.665-3.219q.674-1.4 1.872-2.181 1.208-.789 2.816-.789.929 0 1.834.309a4.5 4.5 0 0 1 1.648 1.006q.743.688 1.183 1.826.441 1.137.441 2.8v.774h-9.16v-1.578h7.304q0-1.006-.403-1.795a3.03 3.03 0 0 0-1.13-1.246q-.726-.456-1.717-.456-1.09 0-1.887.541a3.56 3.56 0 0 0-1.215 1.393 4.1 4.1 0 0 0-.425 1.841v1.052q0 1.347.464 2.282.471.928 1.307 1.416.836.48 1.942.48.72 0 1.3-.201.588-.21 1.013-.619.426-.418.658-1.037l1.764.495a3.9 3.9 0 0 1-.936 1.579q-.658.672-1.625 1.052-.968.37-2.174.371m11.899-14.39v-1.702h11.883v1.702h-4.982v14.142h-1.919v-14.142zm17.202 14.39q-1.718 0-2.963-.758-1.238-.767-1.911-2.135-.665-1.377-.665-3.203t.665-3.219q.673-1.4 1.872-2.181 1.208-.789 2.816-.789.928 0 1.834.309a4.55 4.55 0 0 1 1.648 1.006q.742.688 1.183 1.826.441 1.137.441 2.8v.774h-9.16v-1.578h7.304q0-1.006-.403-1.795a3.03 3.03 0 0 0-1.129-1.246q-.728-.456-1.718-.456-1.09 0-1.887.541-.789.534-1.215 1.393a4.1 4.1 0 0 0-.425 1.841v1.052q0 1.347.464 2.282.471.928 1.307 1.416.835.48 1.942.48.72 0 1.3-.201a2.8 2.8 0 0 0 1.013-.619q.426-.418.658-1.037l1.764.495a3.9 3.9 0 0 1-.936 1.579 4.6 4.6 0 0 1-1.625 1.052q-.967.37-2.174.371m7.044-.248v-11.883h1.764v1.857h.155a3 3 0 0 1 1.199-1.478q.828-.533 1.988-.533 1.177 0 1.957.533.79.527 1.231 1.478h.123a3.46 3.46 0 0 1 1.37-1.462q.912-.549 2.189-.549 1.594 0 2.607.998 1.014.99 1.014 3.086v7.953h-1.826v-7.953q0-1.314-.72-1.88-.719-.564-1.694-.564-1.253 0-1.942.758-.688.75-.688 1.903v7.736h-1.857v-8.138q0-1.014-.658-1.633-.657-.626-1.694-.626-.712 0-1.33.379a2.86 2.86 0 0 0-.991 1.052q-.37.666-.371 1.54v7.426zm18.281 4.457v-16.34h1.764v1.888h.217q.201-.309.557-.789.363-.487 1.037-.867.68-.386 1.841-.386 1.5 0 2.646.75t1.787 2.128q.642 1.377.642 3.249 0 1.887-.642 3.272-.642 1.377-1.78 2.136-1.137.75-2.622.75-1.145 0-1.834-.379-.688-.387-1.06-.874a12 12 0 0 1-.572-.82h-.155v6.282zm1.795-10.398q0 1.346.395 2.375.394 1.022 1.153 1.601.758.573 1.856.573 1.146 0 1.911-.604.774-.61 1.161-1.64.394-1.036.394-2.305 0-1.254-.387-2.259-.379-1.014-1.152-1.602-.766-.595-1.927-.595-1.113 0-1.872.564-.758.558-1.145 1.563-.387.999-.387 2.329m12.653-9.903v15.844h-1.825v-15.844zm6.188 16.123q-1.13 0-2.051-.426a3.5 3.5 0 0 1-1.462-1.245q-.541-.82-.541-1.981 0-1.02.402-1.655a2.84 2.84 0 0 1 1.075-1.006 5.7 5.7 0 0 1 1.486-.541 18 18 0 0 1 1.648-.294 71 71 0 0 1 1.756-.209q.681-.078.99-.256.318-.177.317-.619v-.061q0-1.146-.626-1.78-.62-.634-1.88-.634-1.308 0-2.05.572-.744.573-1.045 1.223l-1.733-.619q.464-1.084 1.238-1.687a4.65 4.65 0 0 1 1.702-.851 7 7 0 0 1 1.826-.247q.572 0 1.315.139.75.132 1.447.549.703.418 1.168 1.261t.464 2.259v7.829h-1.826v-1.609h-.093q-.185.387-.618.828-.434.441-1.153.75-.72.31-1.756.31m.278-1.64q1.083 0 1.826-.426.75-.425 1.129-1.098a2.8 2.8 0 0 0 .387-1.416v-1.671q-.115.14-.51.255a9 9 0 0 1-.898.194q-.503.077-.982.139-.472.054-.766.093a7 7 0 0 0-1.331.301 2.3 2.3 0 0 0-.99.612q-.371.402-.371 1.098 0 .952.704 1.439.711.48 1.802.48m13.015-10.522v1.548h-6.158v-1.548zm-4.363-2.847h1.825v11.326q0 .774.225 1.161.231.38.588.51.363.124.766.124.302 0 .495-.031l.309-.062.371 1.641a4 4 0 0 1-.518.139 4 4 0 0 1-.843.077 3.7 3.7 0 0 1-1.516-.332 3 3 0 0 1-1.223-1.014q-.48-.68-.479-1.717zm11.31 14.978q-1.717 0-2.963-.758-1.237-.767-1.911-2.135-.665-1.377-.665-3.203t.665-3.219q.673-1.4 1.873-2.181 1.206-.789 2.816-.789.928 0 1.833.309a4.5 4.5 0 0 1 1.648 1.006q.743.688 1.184 1.826.441 1.137.441 2.8v.774h-9.16v-1.578h7.303q0-1.006-.402-1.795a3.03 3.03 0 0 0-1.13-1.246q-.727-.456-1.717-.456-1.092 0-1.888.541-.789.534-1.215 1.393a4.1 4.1 0 0 0-.425 1.841v1.052q0 1.347.464 2.282.472.928 1.307 1.416.836.48 1.942.48.72 0 1.3-.201a2.8 2.8 0 0 0 1.013-.619q.426-.418.658-1.037l1.764.495a3.9 3.9 0 0 1-.936 1.579 4.6 4.6 0 0 1-1.625 1.052q-.966.37-2.174.371m12.766-.248v-15.844h9.562v1.702h-7.644v5.354h7.149v1.702h-7.149v5.384h7.768v1.702zm13.945-7.148v7.148h-1.826v-11.883h1.764v1.857h.155a3.4 3.4 0 0 1 1.268-1.454q.852-.558 2.197-.557 1.207 0 2.112.495.906.487 1.409 1.485.502.99.502 2.507v7.55h-1.825v-7.426q0-1.4-.728-2.182-.727-.789-1.996-.789-.873 0-1.562.379a2.7 2.7 0 0 0-1.076 1.106q-.394.728-.394 1.764m15.061 11.852q-1.323 0-2.275-.34-.951-.333-1.586-.882a4.8 4.8 0 0 1-.998-1.161l1.455-1.021q.248.325.626.743.38.426 1.037.735.666.317 1.741.317 1.439 0 2.375-.696t.936-2.182v-2.414h-.155a10 10 0 0 1-.572.805q-.364.472-1.053.843-.68.364-1.841.364-1.438 0-2.584-.681-1.137-.68-1.802-1.981-.658-1.299-.658-3.156 0-1.826.642-3.18.642-1.361 1.787-2.104 1.146-.75 2.646-.75 1.161 0 1.841.386.689.38 1.053.867.37.48.572.789h.186v-1.888h1.764v12.224q0 1.531-.697 2.491-.689.968-1.856 1.416-1.16.456-2.584.456m-.062-6.529q1.098 0 1.857-.503.757-.503 1.152-1.447t.395-2.259q0-1.284-.387-2.267t-1.145-1.539q-.758-.558-1.872-.557-1.161 0-1.934.588-.766.588-1.153 1.578-.38.99-.379 2.197 0 1.238.387 2.189.395.945 1.16 1.486.773.534 1.919.534m7.887 1.825v-11.883h1.826v11.883zm.929-13.863q-.534 0-.921-.364a1.17 1.17 0 0 1-.379-.874q0-.51.379-.874.387-.364.921-.364.533 0 .912.364.387.364.387.874t-.387.874a1.27 1.27 0 0 1-.912.364m5.413 6.715v7.148h-1.826v-11.883h1.764v1.857h.155a3.4 3.4 0 0 1 1.269-1.454q.851-.558 2.197-.557 1.207 0 2.112.495.905.487 1.408 1.485.503.99.503 2.507v7.55h-1.826v-7.426q0-1.4-.727-2.182-.727-.789-1.996-.789-.874 0-1.563.379a2.7 2.7 0 0 0-1.075 1.106q-.395.728-.395 1.764m15.247 7.396q-1.718 0-2.963-.758-1.237-.767-1.911-2.135-.666-1.377-.665-3.203 0-1.825.665-3.219.674-1.4 1.872-2.181 1.207-.789 2.816-.789.928 0 1.834.309a4.55 4.55 0 0 1 1.648 1.006q.742.688 1.183 1.826.441 1.137.441 2.8v.774h-9.16v-1.578h7.304q0-1.006-.403-1.795a3.03 3.03 0 0 0-1.129-1.246q-.728-.456-1.718-.456-1.09 0-1.887.541-.789.534-1.215 1.393a4.1 4.1 0 0 0-.426 1.841v1.052q0 1.347.465 2.282.471.928 1.307 1.416.835.48 1.942.48.72 0 1.3-.201.588-.21 1.013-.619.426-.418.658-1.037l1.764.495a3.9 3.9 0 0 1-.936 1.579 4.6 4.6 0 0 1-1.625 1.052q-.967.37-2.174.371M13.03 22.452q-5.337 0-8.777-3.084Q.932 16.167.932 11.54q0-4.744 3.32-7.828Q7.694.509 13.03.509q5.22 0 8.54 3.203 3.44 3.084 3.44 7.828 0 4.626-3.44 7.829-3.32 3.083-8.54 3.083m10.2 102.465H2.948V29.332h20.283zm6.992-62.611q0-10.2 3.796-17.91 3.914-7.71 10.556-11.862 6.642-4.15 14.826-4.151 6.999 0 12.217 2.847 5.338 2.846 8.185 7.472v-9.37h20.282v66.185H79.802v-9.37q-2.966 4.625-8.303 7.472-5.22 2.847-12.217 2.847-8.066 0-14.708-4.152-6.642-4.27-10.556-11.98-3.795-7.828-3.796-18.028m49.58.118q0-7.59-4.27-11.98-4.152-4.388-10.201-4.388t-10.32 4.389q-4.15 4.27-4.15 11.86 0 7.591 4.15 12.099 4.27 4.389 10.32 4.389t10.2-4.389q4.27-4.389 4.27-11.98m27.365-.118q0-10.2 3.796-17.91 3.914-7.71 10.556-11.862 6.643-4.15 14.827-4.151 6.524 0 11.861 2.728 5.456 2.728 8.54 7.354V7.745h20.282v87.772h-20.282v-9.49q-2.847 4.746-8.184 7.592-5.22 2.847-12.217 2.847-8.184 0-14.827-4.152-6.642-4.27-10.556-11.98-3.796-7.828-3.796-18.028m49.58.118q0-7.59-4.27-11.98-4.152-4.388-10.201-4.388-6.048 0-10.319 4.389-4.15 4.27-4.151 11.86 0 7.591 4.151 12.099 4.27 4.389 10.319 4.389t10.201-4.389q4.27-4.389 4.27-11.98m93.787-1.067q0 2.847-.356 5.93h-45.902q.474 6.168 3.914 9.49 3.558 3.201 8.658 3.202 7.592 0 10.557-6.405h21.587q-1.66 6.524-6.049 11.742-4.27 5.22-10.794 8.184-6.523 2.966-14.589 2.966-9.726 0-17.317-4.152-7.592-4.151-11.861-11.86-4.27-7.71-4.27-18.03t4.151-18.029q4.27-7.71 11.861-11.86 7.591-4.152 17.436-4.152 9.607 0 17.08 4.033 7.472 4.032 11.624 11.505 4.27 7.473 4.27 17.436m-20.757-5.338q0-5.219-3.558-8.302-3.558-3.084-8.896-3.084-5.1 0-8.659 2.965-3.44 2.965-4.27 8.421z"/>
</svg>
