<svg xmlns="http://www.w3.org/2000/svg" width="221" height="256" fill="none" viewBox="0 0 221 256">
  <g clip-path="url(#a)">
    <path fill="#673ab8" d="M110.5 0 221 64v128l-110.5 64L0 192V64z"/>
    <path fill="#ebebeb" d="M30.326 190.829c14.718 18.837 61.49 4.484 105.647-30.015s69.401-76.408 54.683-95.246-61.49-4.484-105.648 30.015-69.4 76.408-54.682 95.246m6.287-4.912c-4.88-6.248-2.748-18.511 6.55-33.95 9.793-16.258 26.416-34.204 46.758-50.097 20.341-15.892 41.777-27.68 59.92-33.247 17.231-5.288 29.646-4.39 34.527 1.857 4.882 6.248 2.749 18.511-6.55 33.95-9.792 16.258-26.415 34.204-46.757 50.096-20.342 15.893-41.777 27.68-59.92 33.248-17.231 5.287-29.647 4.39-34.528-1.857"/>
    <path fill="#ebebeb" d="M190.656 190.829c14.718-18.838-10.525-60.747-54.683-95.246-44.157-34.499-90.93-48.852-105.647-30.015-14.718 18.838 10.525 60.747 54.682 95.246s90.93 48.852 105.648 30.015m-6.288-4.912c-4.881 6.247-17.296 7.144-34.527 1.857-18.143-5.568-39.579-17.355-59.92-33.248s-36.965-33.838-46.757-50.096c-9.3-15.439-11.432-27.702-6.55-33.95 4.88-6.247 17.296-7.145 34.526-1.857 18.144 5.568 39.579 17.355 59.921 33.247 20.342 15.893 36.965 33.839 46.757 50.097 9.299 15.439 11.432 27.702 6.55 33.95"/>
    <path fill="#ebebeb" d="M110.491 145.154c9.364 0 16.955-7.591 16.955-16.955s-7.591-16.955-16.955-16.955-16.955 7.591-16.955 16.955 7.591 16.955 16.955 16.955"/>
  </g>
  <defs>
    <clipPath id="a">
      <path fill="#ebebeb" d="M0 0h221v256H0z"/>
    </clipPath>
  </defs>
</svg>
