<svg xmlns="http://www.w3.org/2000/svg" width="256" height="250" fill="none" viewBox="0 0 256 250">
  <g clip-path="url(#a)">
    <path fill="#00005b" d="M45.223 0H210.18c25.002 0 45.223 20.221 45.223 45.223v158.581c0 25.002-20.221 45.223-45.223 45.223H45.223C20.221 249.027 0 228.806 0 203.804V45.224C0 20.22 20.221 0 45.223 0"/>
    <path fill="#99f" d="M55 180.139V70.806c0-.743.319-1.168 1.063-1.168l1.542-.003 1.194-.01.841-.016.896-.023.964-.034.513-.02c.956-.04 1.927-.066 2.919-.087l3.042-.063 1.048-.028 1.066-.035q1.434-.052 2.94-.079l3.08-.055 2.134-.047 1.09-.032c2.196-.07 4.344-.094 6.477-.102L89.001 69c8.712 0 15.937 1.063 21.887 3.294a37.9 37.9 0 0 1 14.238 8.712 33.8 33.8 0 0 1 7.756 12.113c1.594 4.463 2.444 9.032 2.444 13.813q0 13.706-6.375 22.631c-4.25 5.951-10.2 10.413-17.106 12.963-6.985 2.568-14.664 3.547-23.038 3.609H85.77l-1.183-.012-.758-.018-.446-.019-.4-.023-.358-.031a15 15 0 0 0-.689-.051l-.519-.023-.568-.016-.947-.012-1.845-.004v34.107c.106.744-.425 1.381-1.17 1.487H56.276c-.85 0-1.275-.425-1.275-1.381m23.163-89.995v35.701l1.249.088c1.019.07 1.984.124 2.895.124h5.631a39.7 39.7 0 0 0 12.219-1.912c3.4-.957 6.375-2.975 8.713-5.632 2.231-2.656 3.293-6.269 3.293-10.944a17.5 17.5 0 0 0-2.443-9.456c-1.731-2.647-4.146-4.71-7.056-5.905l-.382-.151c-3.931-1.594-8.181-2.232-12.538-2.125l-2.456.003-1.155.007-1.102.014-1.048.024q-.765.02-1.464.058a36 36 0 0 0-.684-.028l-.637-.014-.3-.002-.562.004-.513.013-.237.01-.435.025-.383.03-.172.016-.302.034zm72.038 6.163h18.594c1.004 0 1.818.663 2.174 1.542l.058.158c.319.85.531 1.7.637 2.656.213 1.062.425 2.231.532 3.294l.088 1.028c.07.878.124 1.81.124 2.797a39.5 39.5 0 0 1 10.778-8.814l.591-.324c4.888-2.762 10.519-4.144 16.15-4.144.744-.106 1.381.425 1.488 1.17v21.143c0 .85-.532 1.169-1.7 1.169-3.57-.099-7.233.172-10.729.9l-.746.163a43.7 43.7 0 0 0-8.926 2.868c-2.018.957-3.931 2.232-5.418 3.932v54.188c0 1.062-.425 1.487-1.382 1.487h-20.931c-.85.107-1.594-.425-1.7-1.275v-59.288c0-2.55 0-5.206-.107-7.969l-.063-2.072-.086-4.144q-.024-1.035-.063-2.071c0-2.444-.213-4.782-.425-7.226-.106-.53.212-1.062.744-1.168 0-.091.156-.104.267-.04z"/>
  </g>
  <defs>
    <clipPath id="a">
      <path fill="#ebebeb" d="M0 0h256v250H0z"/>
    </clipPath>
  </defs>
</svg>
