<svg width="234" height="256" viewBox="0 0 234 256" fill="none"
  xmlns="http://www.w3.org/2000/svg">
  <g clip-path="url(#clip0_19_8)">
    <path d="M222.428 36.743C221.67 16.9386 204.278 12.7845 204.278 12.7845C204.278 12.7845 143.999 3.69264 117.592 0.392218C91.1765 -2.9257 92.8206 22.6959 92.8206 22.6959C92.8206 22.6959 98.8193 209.436 99.4421 232.567C100.15 260.124 125.849 255.689 125.849 255.689L216.667 239.97C233.182 236.661 234 216.02 234 216.02C234 216.02 223.272 58.3633 222.428 36.743C223.271 58.3633 221.67 16.9386 222.428 36.743ZM202.113 195.372L134.583 202.374C134.583 202.374 114.916 205.376 114.474 181.461C114.15 163.841 110.255 62.9097 110.255 62.9097C110.255 62.9097 108.9 44.4019 129.138 45.9195C149.793 47.4546 199.285 51.2247 199.285 51.2247C199.285 51.2247 212.535 54.3805 213.114 69.494C213.736 85.9206 219.454 177.146 219.454 177.146C219.454 177.146 220.945 192.139 202.113 195.372ZM36.7947 168.164L24.3189 169.052C24.3189 169.052 11.7327 170.757 11.4439 156.975C11.2396 146.817 9.97823 89.1612 9.97823 89.1612C9.97823 89.1612 9.10879 78.4919 22.0528 79.3621C25.3337 79.5748 29.9854 79.8732 35.1239 80.1808C34.9454 70.6193 34.7927 62.2605 34.6731 55.8991C27.5492 55.3613 20.8853 54.7811 16.1223 54.2783C-0.980386 52.3933 0.0675425 66.7645 0.0675425 66.7645C0.0675425 66.7645 2.1312 172.506 2.51485 185.47C2.98407 200.924 19.6083 198.417 19.6083 198.417L37.3577 196.515C37.2041 188.847 36.9989 179.074 36.7956 168.165L36.7947 168.164ZM86.4134 72.0522C86.3642 70.8052 86.1552 69.5697 85.7915 68.376C80.3292 67.9331 66.6178 64.3592 62.2218 69.0078C59.435 71.9334 60.5851 78.0996 60.6532 81.6054L70.5979 82.1671C70.5979 82.1671 79.0761 83.984 79.4432 92.6835C79.8351 102.169 79.7836 155.294 79.7836 155.294C79.7836 155.294 80.7377 163.959 68.7063 165.794L62.3921 166.264C62.4261 168.148 62.4601 169.666 62.4767 170.791C62.7417 185.94 78.8378 181.087 88.9352 180.105C89.8047 164.037 88.2618 147.482 87.9048 131.406C87.4696 111.627 87.3077 91.8142 86.4134 72.0522C86.9581 84.1461 86.3536 70.7049 86.4134 72.0522Z" fill="#EBEBEB"/>
    <path d="M91.7198 186.314L73.5103 188.072C73.5103 188.072 56.5293 190.51 56.1628 170.945C55.8985 156.506 54.1921 74.6617 54.1921 74.6617C54.1921 74.6617 53.0153 59.5317 70.4401 60.7426C74.9174 61.0502 81.0762 61.553 87.7802 62.0908C87.2765 46.3889 86.875 34.004 86.6706 27.6251C77.494 26.7291 68.8451 25.8257 62.4487 25.0927C39.4194 22.4811 40.8707 42.8399 40.8707 42.8399C40.8707 42.8399 43.6085 192.966 44.1454 211.312C44.7679 233.24 67.1738 229.717 67.1738 229.717L92.9565 226.416C92.7005 217.879 92.2658 203.541 91.7198 186.314V186.314ZM128.769 52.2991C125.546 52.0431 121.631 52.2568 119.243 54.7726C116.718 57.4164 116.676 61.169 116.821 64.5634C125.955 65.3572 132.582 65.9447 132.582 65.9447C132.582 65.9447 143.993 68.513 144.514 80.8795C145.042 94.3298 148.31 167.414 148.31 167.414C148.31 167.414 149.589 179.704 133.366 182.357L121.085 183.533C122.715 202.732 147.542 194.63 160.24 193.317C158.936 164.446 154.894 75.1571 153.981 54.1924C145.579 53.5337 137.175 52.9026 128.769 52.2991C135.158 52.7503 128.139 52.2485 128.769 52.2991Z" fill="#EBEBEB"/>
  </g>
  <defs>
    <clipPath id="clip0_19_8">
      <rect width="234" height="256" fill="#EBEBEB"/>
    </clipPath>
  </defs>
</svg>
