<svg xmlns="http://www.w3.org/2000/svg" width="257" height="256" fill="none" viewBox="0 0 257 256"><g clip-path="url(#a)"><path fill="#00007d" d="M226.836 128.018c0-54.056-43.872-97.928-97.928-97.928S30.98 73.962 30.98 128.018s43.872 97.928 97.928 97.928 97.928-43.872 97.928-97.928"/><path fill="#ebebeb" d="M198.165 87.444c0-15.832-12.85-28.682-28.683-28.682S140.8 71.612 140.8 87.444c0 15.833 12.85 28.683 28.682 28.683 15.833 0 28.683-12.85 28.683-28.683"/><path fill="#00007d" d="M255.519 30.09c0-15.833-12.849-28.683-28.682-28.683s-28.683 12.85-28.683 28.683 12.85 28.682 28.683 28.682 28.682-12.85 28.682-28.682"/><path fill="#ebebeb" d="M62.137 113.741h8.564v55.687h31.717v7.531h-40.28zM117.868 130.869v30.598q0 3.529 1.09 5.766 2.01 4.132 7.502 4.132 7.879 0 10.729-7.23 1.55-3.873 1.55-10.63v-22.636h7.747v46.09h-7.316l.086-6.799q-1.479 2.625-3.675 4.432-4.35 3.615-10.557 3.615-9.67 0-13.175-6.584-1.9-3.528-1.9-9.425v-31.329zM183.841 149.066q2.667-.344 3.571-2.234.516-1.036.516-2.981 0-3.973-2.813-5.767-2.814-1.793-8.052-1.793-6.057 0-8.591 3.287-1.416 1.818-1.846 5.406h-7.23q.215-8.544 5.524-11.89 5.307-3.344 12.314-3.344 8.124 0 13.196 3.098 5.03 3.1 5.029 9.641v26.554q0 1.205.495 1.936t2.087.73q.517 0 1.162-.065a19 19 0 0 0 1.378-.193v5.723q-1.809.517-2.755.646-.947.129-2.582.129-4.002 0-5.81-2.84-.946-1.505-1.334-4.259-2.367 3.098-6.799 5.378t-9.769 2.28q-6.412 0-10.479-3.89-4.067-3.889-4.067-9.735 0-6.404 4.003-9.928 4.002-3.525 10.5-4.342zm-16.311 20.926q2.453 1.933 5.81 1.932 4.087 0 7.918-1.89 6.455-3.137 6.455-10.269v-6.23q-1.417.906-3.651 1.511t-4.38.862l-4.682.602q-4.209.558-6.33 1.761-3.593 2.018-3.593 6.44 0 3.35 2.453 5.281"/><path fill="#929292" d="m133.463 255.997-.103-2.937a126 126 0 0 0 10.88-.851l.356 2.916a129 129 0 0 1-11.133.872m-11.169-.091c-3.709-.19-7.45-.544-11.118-1.053l.404-2.91c3.584.497 7.239.843 10.864 1.029zm33.32-2.618-.61-2.874a125 125 0 0 0 10.565-2.732l.86 2.809a128 128 0 0 1-10.815 2.797m-55.424-.455a127 127 0 0 1-10.767-2.975l.906-2.794a125 125 0 0 0 10.518 2.906zm76.766-6.078-1.103-2.722a125 125 0 0 0 9.922-4.536l1.337 2.616a128 128 0 0 1-10.156 4.642m-98.003-.809a128 128 0 0 1-10.085-4.814l1.38-2.594a125 125 0 0 0 9.853 4.704zm117.873-9.346-1.561-2.489a126 126 0 0 0 8.987-6.194l1.771 2.345a130 130 0 0 1-9.197 6.338m-137.583-1.144a129 129 0 0 1-9.094-6.491l1.81-2.315a126 126 0 0 0 8.885 6.343zm155.393-12.306-1.967-2.182a126 126 0 0 0 7.784-7.654l2.149 2.004a130 130 0 0 1-7.966 7.832m-172.982-1.44a130 130 0 0 1-7.836-7.962l2.181-1.968a127 127 0 0 0 7.657 7.781zm188.206-14.884-2.313-1.81a127 127 0 0 0 6.347-8.883l2.462 1.602a129 129 0 0 1-6.496 9.091m-203.158-1.688a129 129 0 0 1-6.343-9.194l2.489-1.561c1.924 3.067 4.01 6.09 6.197 8.983zm215.335-17.024-2.593-1.382a125 125 0 0 0 4.708-9.851l2.704 1.15a128 128 0 0 1-4.819 10.083m-227.195-1.88a128 128 0 0 1-4.648-10.154l2.722-1.104a125 125 0 0 0 4.541 9.919zm235.931-18.671-2.794-.908a125 125 0 0 0 2.912-10.517l2.863.659a128 128 0 0 1-2.981 10.766m-244.32-2.009a128 128 0 0 1-2.802-10.814l2.874-.611a125 125 0 0 0 2.737 10.564zm249.326-19.742-2.91-.405c.499-3.583.847-7.238 1.034-10.864l2.934.151c-.192 3.71-.548 7.451-1.058 11.118m-253.97-2.088c-.451-3.674-.746-7.419-.877-11.133l2.936-.104c.128 3.629.416 7.289.856 10.879zm252.186-20.096a125 125 0 0 0-.856-10.883l2.916-.359c.452 3.684.747 7.432.877 11.139zM3.951 121.571l-2.934-.149c.188-3.71.54-7.45 1.047-11.118l2.91.402a126 126 0 0 0-1.023 10.865m247.386-19.594a126 126 0 0 0-2.734-10.569l2.81-.86a129 129 0 0 1 2.798 10.818zM6.942 99.973l-2.863-.656c.828-3.617 1.827-7.24 2.97-10.769l2.795.905a125 125 0 0 0-2.902 10.52M244.96 81.117a126 126 0 0 0-4.528-9.934l2.618-1.334a129 129 0 0 1 4.634 10.167zm-231.3-1.894-2.705-1.147a128 128 0 0 1 4.81-10.087l2.593 1.379a125 125 0 0 0-4.698 9.855M23.9 59.961l-2.464-1.6a129 129 0 0 1 6.487-9.097l2.315 1.808a126 126 0 0 0-6.338 8.889m13.424-17.194-2.15-2.002a130 130 0 0 1 7.957-7.84l1.97 2.18a127 127 0 0 0-7.777 7.662M53.51 28.148l-1.772-2.343c2.96-2.24 6.052-4.375 9.19-6.346l1.563 2.488a126 126 0 0 0-8.98 6.201m143.581-5.102-.161-.104 1.598-2.466.155.101zm-9.574-5.63a126 126 0 0 0-9.86-4.686l1.144-2.705a128 128 0 0 1 10.091 4.794zM71.976 16.55l-1.34-2.614a128 128 0 0 1 10.152-4.653l1.106 2.722a125 125 0 0 0-9.918 4.545m95.45-7.627a126 126 0 0 0-10.523-2.902l.656-2.864c3.616.83 7.24 1.829 10.771 2.97zm-75.251-.577-.863-2.809a128 128 0 0 1 10.812-2.807l.613 2.873c-3.546.757-7.1 1.68-10.562 2.743m53.99-4.3a126 126 0 0 0-10.868-1.03l.149-2.934c3.705.189 7.448.544 11.124 1.055zm-32.666-.248L113.14.882C116.812.43 120.558.133 124.273 0l.105 2.936c-3.631.13-7.291.42-10.879.862"/></g><defs><clipPath id="a"><path fill="#ebebeb" d="M.932 0h256v256h-256z"/></clipPath></defs></svg>
