<svg xmlns="http://www.w3.org/2000/svg" width="256" height="256" fill="none" viewBox="0 0 256 256"><g fill="#2c8ebb" clip-path="url(#a)"><path d="M200.754 162.498c-8.96.103-16.806 4.727-23.433 8.856-12.387 7.66-18.58 7.164-18.58 7.164l-.207-.351c-.846-1.383 3.964-13.791-1.424-28.573-5.822-16.165-15.071-20.067-14.328-21.305 3.159-5.347 11.066-13.833 14.225-29.647 1.878-9.58 1.383-25.352-2.87-33.61-.785-1.528-7.804 2.56-7.804 2.56s-6.565-14.637-8.403-15.814c-5.925-3.799-12.387 15.71-12.387 15.71a28.9 28.9 0 0 0-24.175 9.291 19.9 19.9 0 0 1-7.949 4.686c-.846.29-1.878.248-4.438 7.164-3.923 10.467 6.689 22.318 6.689 22.318s-12.656 8.939-17.342 20.067a51.16 51.16 0 0 0-3.613 24.113s-9.001 7.804-9.58 15.856a26.57 26.57 0 0 0 3.655 16.165 4 4 0 0 0 2.317 2.087 4 4 0 0 0 3.112-.208s-5.987 6.978-.392 9.93c5.1 2.663 13.688 4.129 18.23-.392 3.303-3.303 3.964-10.674 5.182-13.688.289-.702 1.28 1.177 2.23 2.065a21 21 0 0 0 2.807 2.064s-8.051 3.468-4.748 11.375c1.094 2.622 4.996 4.295 11.375 4.253 2.374 0 28.408-1.486 35.345-3.158a8.94 8.94 0 0 0 5.388-3.015 130 130 0 0 0 31.98-14.451c9.785-6.379 13.791-8.114 21.698-9.992 6.523-1.549 6.09-11.665-2.56-11.52"/><path d="M128 0a128 128 0 1 0 0 255.999A128 128 0 0 0 128 0m77.006 181.326c-6.916 1.673-10.136 2.973-19.427 9.002a138.4 138.4 0 0 1-32.123 14.823 18 18 0 0 1-7.515 3.654c-7.866 1.92-34.849 3.365-36.976 3.365h-.495c-8.258 0-12.945-2.56-15.463-5.244-7.02 3.51-16.104 2.065-22.71-1.424a11.47 11.47 0 0 1-6.194-8.052 12.4 12.4 0 0 1 0-4.253 13.7 13.7 0 0 1-1.63-2.064 33.8 33.8 0 0 1-4.666-20.769c.598-7.701 5.925-14.576 9.393-18.23A59 59 0 0 1 71.453 128a55.4 55.4 0 0 1 14.08-18.581c-3.407-5.739-6.875-14.575-3.51-23.576 2.416-6.421 4.398-9.993 8.754-11.52a14.1 14.1 0 0 0 5.182-2.767 36.44 36.44 0 0 1 24.485-11.685c.392-.991.846-2.065 1.342-3.014 3.303-7.02 6.813-10.963 10.921-12.387a10.07 10.07 0 0 1 9.084 1.032c1.342.888 3.055 2.064 8.052 12.387a9.7 9.7 0 0 1 5.883-.206 7.87 7.87 0 0 1 4.935 4.005c5.099 9.785 5.78 27.23 3.551 38.441a69.8 69.8 0 0 1-12.057 27.479 53.1 53.1 0 0 1 11.912 19.468 52.5 52.5 0 0 1 2.911 21.492 59 59 0 0 0 6.441-3.593c6.318-3.901 15.856-9.785 27.231-9.93a13.667 13.667 0 0 1 14.452 11.768 13.11 13.11 0 0 1-10.096 14.513"/></g><defs><clipPath id="a"><path fill="#ebebeb" d="M0 0h256v256H0z"/></clipPath></defs></svg>
