<svg width="256" height="90" viewBox="0 0 256 90" fill="none" xmlns="http://www.w3.org/2000/svg">
<g clip-path="url(#clip0_18_1208)">
<path d="M96.7586 0L46.1265 90H0L39.5353 19.7246C45.6639 8.83104 60.9577 0 73.6953 0H96.7586ZM209.874 22.5C209.874 10.0735 220.199 0 232.937 0C245.674 0 256 10.0735 256 22.5C256 34.9263 245.674 45 232.937 45C220.199 45 209.874 34.9263 209.874 22.5ZM105.407 0H151.534L100.902 90H54.7752L105.407 0ZM159.886 0H206.013L166.477 70.2754C160.349 81.169 145.055 90 132.318 90H109.254L159.886 0Z" fill="#FFF312"/>
</g>
<defs>
<clipPath id="clip0_18_1208">
<rect width="256" height="90" fill="white"/>
</clipPath>
</defs>
</svg>
