<svg width="232" height="256" viewBox="0 0 232 256" fill="none"
  xmlns="http://www.w3.org/2000/svg">
  <g clip-path="url(#clip0_21_2277)">
    <path d="M216.698 125.698C216.698 112.573 206.059 101.934 192.934 101.934C192.09 101.934 191.257 101.979 190.436 102.065L223.076 5.79883H84.3686L116.963 101.982C116.485 101.953 116.004 101.934 115.519 101.934C102.394 101.934 91.7547 112.573 91.7547 125.698C91.7547 136.307 98.7072 145.288 108.303 148.343C103.235 157.122 96.8575 165.029 89.6171 171.86C79.7719 181.148 68.5042 188.191 56.3172 192.531C41.808 185.077 34.9559 168.5 41.1388 153.966C41.8364 152.324 42.5497 150.661 43.2305 149.004C53.7426 146.551 61.5749 137.128 61.5749 125.868C61.5749 112.744 50.9358 102.105 37.8108 102.105C24.6865 102.105 14.0467 112.744 14.0467 125.868C14.0467 133.917 18.0514 141.025 24.1722 145.324C18.2905 158.716 9.64446 172.731 6.95087 188.975C3.72273 208.443 6.94042 229.107 23.7776 240.777C62.9899 267.954 105.555 223.929 150.433 212.862C166.698 208.851 184.552 209.497 198.881 201.198C209.643 194.965 216.737 184.636 218.75 173.04C220.739 161.584 217.839 150.179 211.171 140.93C214.62 136.805 216.698 131.495 216.698 125.698Z" fill="#99425B"/>
    <path d="M213.032 172.048C211.284 182.115 205.066 190.909 195.973 196.176C187.496 201.086 177.338 202.551 166.583 204.102C160.822 204.933 154.864 205.792 149.044 207.228C133.655 211.022 118.749 218.426 104.335 225.586C75.4875 239.915 50.5748 252.287 27.084 236.007C9.87718 224.082 10.6717 202.017 12.6764 189.926C14.5342 178.723 19.5569 168.407 24.4142 158.429C25.2535 156.705 26.0759 155.012 26.8762 153.333C29.2837 154.295 31.8444 154.951 34.5136 155.25C29.5693 171.567 37.3448 189.31 53.6653 197.694L55.8987 198.842L58.2644 197.999C71.1665 193.404 83.0552 186.031 93.6003 176.082C100.416 169.651 106.277 162.537 111.094 154.935C112.538 155.153 114.015 155.267 115.519 155.267C130.497 155.267 142.902 144.069 144.821 129.606C150.952 129.381 157.465 129.38 163.631 129.604C165.55 144.068 177.954 155.267 192.934 155.267C199.197 155.267 205.006 153.304 209.792 149.97C213.115 156.771 214.355 164.424 213.032 172.048ZM37.8108 107.909C47.7146 107.909 55.771 115.966 55.771 125.87C55.771 129.427 54.7275 132.744 52.9352 135.537C49.9491 140.193 44.8759 143.385 39.0447 143.783C38.6367 143.811 38.2258 143.83 37.8108 143.83C35.6042 143.83 33.4898 143.427 31.535 142.696C27.5808 141.216 24.286 138.379 22.2134 134.756C20.7131 132.134 19.8506 129.101 19.8506 125.87C19.8506 115.966 27.9076 107.909 37.8108 107.909ZM97.5586 125.699C97.5586 116.701 104.21 109.23 112.853 107.938C113.723 107.807 114.613 107.739 115.519 107.739C121.276 107.739 126.402 110.467 129.69 114.693C130.507 115.743 131.216 116.882 131.787 118.099C132.87 120.409 133.479 122.983 133.479 125.699C133.479 127.135 133.305 128.531 132.985 129.87C131.235 137.197 124.987 142.797 117.331 143.568C116.735 143.628 116.131 143.659 115.519 143.659C111.933 143.659 108.592 142.599 105.785 140.781C100.84 137.578 97.5586 132.016 97.5586 125.699ZM172.518 104.342C168.67 108.024 165.809 112.727 164.384 118.016C157.734 117.767 150.681 117.767 144.069 118.016C142.55 112.379 139.4 107.406 135.162 103.628L153.746 66.0492L172.518 104.342ZM92.4639 11.6039H214.979L186.043 96.9481C184.788 97.2493 183.565 97.6283 182.377 98.0839L153.792 39.7709L125.126 97.7357C123.887 97.3091 122.61 96.9655 121.303 96.7049L92.4639 11.6039ZM210.894 125.699C210.894 127.5 210.625 129.238 210.129 130.879C208.95 134.784 206.475 138.13 203.207 140.418C200.294 142.458 196.752 143.659 192.934 143.659C184.641 143.659 177.646 138.008 175.589 130.355C175.19 128.869 174.973 127.309 174.973 125.699C174.973 123.244 175.47 120.903 176.365 118.77C176.827 117.671 177.402 116.632 178.063 115.656C181.296 110.886 186.75 107.739 192.934 107.739C193.501 107.739 194.06 107.768 194.614 107.82C203.732 108.67 210.894 116.362 210.894 125.699ZM222.502 125.699C222.502 111.263 212.101 99.2191 198.402 96.6457L231.172 -0.00390625H76.2739L109.093 96.8424C95.8696 99.785 85.9508 111.602 85.9508 125.699C85.9508 136.284 91.5451 145.583 99.9289 150.807C95.8963 156.815 91.1139 162.469 85.6344 167.639C76.9431 175.838 67.261 182.056 56.8227 186.147C46.3089 179.543 41.8643 167.088 46.4801 156.238L46.8417 155.388C47.068 154.857 47.2944 154.324 47.5202 153.792C59.0682 149.764 67.3788 138.773 67.3788 125.87C67.3788 109.565 54.1146 96.3015 37.8108 96.3015C21.507 96.3015 8.24279 109.565 8.24279 125.87C8.24279 134.099 11.6253 141.551 17.0694 146.917C16.0827 149.02 15.0438 151.158 13.9776 153.348C9.0002 163.572 3.3588 175.159 1.22529 188.027C-3.01215 213.581 3.82312 234.009 20.4716 245.548C30.5745 252.55 40.8335 255.302 51.1581 255.302C70.5988 255.302 90.2642 245.536 109.498 235.982C123.351 229.102 137.675 221.987 151.823 218.498C157.088 217.199 162.505 216.418 168.24 215.591C179.613 213.95 191.374 212.254 201.79 206.221C213.865 199.227 222.131 187.495 224.469 174.034C226.475 162.478 224.061 150.903 218.171 141.087C220.917 136.602 222.502 131.332 222.502 125.699Z" fill="#EBEBEB"/>
  </g>
  <defs>
    <clipPath id="clip0_21_2277">
      <rect width="231.576" height="256" fill="#EBEBEB" transform="translate(0 -0.00390625)"/>
    </clipPath>
  </defs>
</svg>
