<svg width="256" height="160" viewBox="0 0 256 160" fill="none" xmlns="http://www.w3.org/2000/svg">
<g clip-path="url(#clip0_20_1549)">
<path d="M39.4602 0.638672L95.2067 94.4917L95.2555 52.0093L127.602 102.571L94.3198 154.877L39.1483 65.3417L39.0216 159.078H0.242676V0.638672H39.4602ZM133.986 44.9338L150.125 70.2731L150.33 70.624C160.876 54.5774 178.794 44.9205 197.997 44.9338C229.123 44.9338 254.431 71.2781 255.048 102.293L255.059 103.341H255.03L255.029 103.735C254.973 106.31 253.597 108.685 251.375 110.013C249.073 111.388 246.212 111.431 243.87 110.125C241.609 108.864 240.163 106.531 240.03 103.959L240.021 103.682L240.017 103.326C239.893 98.421 237.195 96.4305 233.652 94.9628L233.128 94.7514L232.593 94.5459L232.048 94.3445L229.221 93.3411L228.644 93.1295L228.065 92.9104L227.487 92.6821C227.39 92.6432 227.294 92.6038 227.198 92.564L226.621 92.3187L226.048 92.0601C223.761 90.9969 221.576 89.573 219.837 87.309L219.633 87.0364L219.431 86.7525L219.127 86.307L218.721 85.6798L217.436 83.6235L216.968 82.8983L216.599 82.3472L216.343 81.9776L215.941 81.4218L215.661 81.0512L215.371 80.6815C215.322 80.62 215.272 80.5585 215.222 80.4971L214.914 80.1299C211.885 76.5915 207.146 73.4113 197.977 73.4113C190.395 73.4087 183.123 76.4195 177.762 81.7807C172.401 87.142 169.39 94.4141 169.393 101.996C169.413 103.077 169.669 104.139 170.141 105.109L170.289 105.397L204.4 159.078H166.781L150.125 133.943L133.761 159.078H96.1521L132.056 102.552L95.2652 44.9338H133.986ZM255.098 111.43C255.48 114.102 255.102 116.828 254.006 119.295C252.69 122.341 250.833 122.892 249.596 122.864L249.39 122.853L249.198 122.834L249.02 122.807L248.784 122.759L248.589 122.707L248.337 122.62L248.245 122.578L248.134 122.515L247.968 122.412L247.834 122.319L247.686 122.209L247.53 122.081C247.503 122.058 247.477 122.034 247.45 122.01L247.289 121.854C246.594 121.141 245.971 119.922 247.077 118.223C247.895 116.96 249.027 116.252 250.212 115.616L251.409 114.983C252.842 114.21 254.224 113.307 255.098 111.43ZM134.083 0.638672V40.9185L133.995 41.3668H95.2652L95.2555 40.9185L95.3042 0.638672H134.083Z" fill="white"/>
<path d="M193.855 85.2911C184.577 85.1152 176.194 90.8038 172.93 99.4908C178.363 91.3658 188.709 88.101 197.821 91.6357C202.032 93.3509 207.567 96.1188 211.953 94.6374C207.782 88.7839 201.042 85.3034 193.855 85.2911Z" fill="white"/>
<path d="M237.799 104.353C237.799 99.607 235.216 98.5058 229.856 96.5566C225.88 95.1727 221.367 93.6133 218.083 89.3251C217.44 88.4772 216.845 87.5221 216.212 86.5086C214.793 83.8834 212.868 81.5649 210.55 79.6864C207.421 77.3864 203.318 76.2656 197.997 76.2656C187.319 76.2731 177.7 82.718 173.632 92.59C178.775 85.4539 187.322 81.5874 196.077 82.4362C204.832 83.285 212.477 88.7214 216.153 96.7125C217.99 99.7433 221.612 101.191 225.032 100.26C230.265 99.1392 229.905 104.09 237.809 105.766L237.799 104.353Z" fill="white"/>
</g>
<defs>
<clipPath id="clip0_20_1549">
<rect width="256" height="159.377" fill="white" transform="translate(0 0.298828)"/>
</clipPath>
</defs>
</svg>
