<svg xmlns="http://www.w3.org/2000/svg" width="264" height="264" fill="none" viewBox="0 0 264 264"><path fill="#ebebeb" fill-rule="evenodd" stroke="#ebebeb" stroke-width="6.848" d="M248.213 248.214c10.657-10.655 12.665-25.069 11.49-37.517-1.19-12.609-5.821-26.299-12.396-39.955-5.925-12.306-13.825-25.395-23.386-38.742 9.561-13.347 17.461-26.436 23.386-38.741 6.575-13.657 11.206-27.347 12.396-39.956 1.175-12.448-.833-26.861-11.49-37.517-10.655-10.655-25.067-12.664-37.517-11.489-12.607 1.19-26.298 5.821-39.954 12.396-12.307 5.926-25.396 13.825-38.741 23.386-13.347-9.56-26.436-17.46-38.743-23.386C79.6 10.118 65.91 5.487 53.304 4.297c-12.45-1.175-26.862.834-37.518 11.49C5.131 26.441 3.122 40.854 4.297 53.302c1.19 12.609 5.821 26.3 12.396 39.956C22.62 105.564 30.518 118.653 40.08 132c-9.56 13.347-17.46 26.436-23.386 38.742-6.575 13.656-11.206 27.346-12.396 39.955-1.175 12.448.834 26.862 11.49 37.517 10.655 10.655 25.068 12.665 37.517 11.49 12.607-1.191 26.297-5.823 39.954-12.397 12.307-5.926 25.396-13.826 38.743-23.385 13.345 9.559 26.434 17.459 38.741 23.385 13.656 6.574 27.347 11.206 39.954 12.397 12.45 1.175 26.862-.835 37.517-11.49Zm-116.212-48.447c11.906-9.307 24.014-20.004 35.888-31.877 11.875-11.874 22.571-23.984 31.879-35.89-9.308-11.906-20.004-24.016-31.879-35.89-11.874-11.873-23.982-22.57-35.888-31.877-11.908 9.307-24.016 20.004-35.89 31.877C84.236 107.984 73.54 120.094 64.23 132c9.309 11.906 20.005 24.016 31.88 35.89 11.874 11.873 23.982 22.57 35.89 31.877Zm16.15 11.868c11.206-9.021 22.443-19.106 33.411-30.073 10.966-10.967 21.052-22.206 30.074-33.412 26.482 38.523 36.672 72.626 22.906 86.391-13.767 13.768-47.869 3.578-86.391-22.906ZM52.364 148.15c9.023 11.206 19.108 22.445 30.074 33.412 10.968 10.967 22.205 21.052 33.412 30.073-38.523 26.484-72.625 36.674-86.391 22.906-13.767-13.765-3.577-47.868 22.905-86.391Zm0-32.3c9.023-11.206 19.108-22.445 30.074-33.411 10.968-10.968 22.205-21.052 33.412-30.074C77.327 25.882 43.225 15.692 29.459 29.46c-13.767 13.766-3.577 47.868 22.905 86.391Zm95.787-63.485c11.206 9.022 22.443 19.106 33.411 30.074 10.966 10.966 21.052 22.205 30.074 33.411 26.482-38.523 36.672-72.625 22.906-86.391-13.767-13.767-47.869-3.577-86.391 22.906Z" clip-rule="evenodd"/></svg>
