<svg width="243" height="256" viewBox="0 0 243 256" fill="none"
  xmlns="http://www.w3.org/2000/svg">
  <g clip-path="url(#clip0_74_1026)">
    <path d="M212.69 256L166.723 210.293L166.02 210.393V209.892L68.2651 113.366L92.3527 90.1119L78.2014 8.92212L11.0573 92.1167C-0.384283 103.644 -2.49193 122.388 5.73798 136.22L47.6904 205.783C54.1137 216.508 65.7559 222.923 78.3017 222.822L99.0774 222.622L212.69 256Z" fill="#18B6F6"/>
    <path d="M237.778 90.5125L228.544 73.4728L223.726 64.7526L221.819 61.3444L221.619 61.5451L196.326 17.7426C190.004 6.7168 178.161 -0.0991516 165.314 0.0010907L143.133 0.60244L76.9927 0.802925C64.4474 0.903168 53.0059 7.51864 46.6828 18.2437L6.43652 98.0301L78.3981 8.72144L172.741 112.364L155.98 129.303L166.016 210.393L166.117 210.192V210.393H165.916L166.117 210.593L173.945 218.211L211.984 255.398C213.59 256.902 216.199 255.098 215.095 253.193L191.61 206.985L232.559 131.308L233.863 129.805C234.365 129.203 234.867 128.602 235.268 128C243.298 117.075 244.401 102.441 237.778 90.5125Z" fill="#AC7EF4"/>
    <path d="M173.041 111.963L78.397 8.82153L91.8459 89.6105L67.7583 112.965L165.815 210.293L156.983 129.504L173.041 111.963Z" fill="#EBEBEB"/>
  </g>
  <defs>
    <clipPath id="clip0_74_1026">
      <rect width="242" height="256" fill="#EBEBEB" transform="translate(0.758789)"/>
    </clipPath>
  </defs>
</svg>
