<svg width="256" height="230" viewBox="0 0 256 230" fill="none" xmlns="http://www.w3.org/2000/svg">
<g clip-path="url(#clip0_18_1530)">
<path d="M121.765 84.7293C123.85 81.6553 126.133 81.2648 127.984 81.2648C129.837 81.2648 132.922 81.6553 135.008 84.7293C151.446 107.308 178.579 152.284 198.595 185.462C211.647 207.097 221.672 223.715 223.729 225.83C231.449 233.769 242.039 228.821 248.193 219.817C254.25 210.951 255.932 204.726 255.932 198.084C255.932 193.562 168.169 30.3397 159.331 16.7538C150.832 3.68685 148.063 0.385742 133.515 0.385742H122.629C108.125 0.385742 106.028 3.68685 97.5274 16.7538C88.6909 30.3407 0.927734 193.561 0.927734 198.085C0.927734 204.726 2.60917 210.951 8.6675 219.817C14.8205 228.821 25.4091 233.769 33.1309 225.83C35.1879 223.715 45.2127 207.098 58.2658 185.462C78.2806 152.284 105.327 107.307 121.765 84.7293Z" fill="white"/>
</g>
<defs>
<clipPath id="clip0_18_1530">
<rect width="256" height="230" fill="white"/>
</clipPath>
</defs>
</svg>
