<svg width="257" height="256" viewBox="0 0 257 256" fill="none" xmlns="http://www.w3.org/2000/svg">
<g clip-path="url(#clip0_21_1830)">
<path d="M255.863 25.4299C255.863 11.6815 244.701 0.519531 230.952 0.519531H25.6873C11.938 0.519531 0.77417 11.6815 0.77417 25.4299V230.695C0.77417 244.445 11.938 255.608 25.6873 255.608H230.953C244.701 255.608 255.863 244.445 255.863 230.695V25.4299Z" fill="#134881"/>
<path d="M237.182 227.039C237.139 232.501 232.69 236.926 227.218 236.926H126.655L83.6708 162.474H237.182V227.039ZM19.4603 226.96V183.246L114.169 19.2031H151.182L71.1705 157.792L116.856 236.925H29.4243C23.9244 236.925 19.4603 232.46 19.4603 226.96ZM140.819 153.983H103.398C99.2194 153.983 95.3593 151.791 93.273 148.172C91.1813 144.555 91.1813 140.096 93.273 136.479L111.992 104.052L140.819 153.983ZM227.218 19.2031C232.691 19.2031 237.14 23.6271 237.183 29.0915V153.983H150.623L116.892 95.5677L160.98 19.2031H227.218Z" fill="url(#paint0_radial_21_1830)"/>
</g>
<defs>
<radialGradient id="paint0_radial_21_1830" cx="0" cy="0" r="1" gradientUnits="userSpaceOnUse" gradientTransform="translate(185.966 -21.8523) scale(258.624)">
<stop stop-color="#6BE1FB"/>
<stop offset="1" stop-color="#38BDFA"/>
</radialGradient>
<clipPath id="clip0_21_1830">
<rect width="256" height="256" fill="white" transform="translate(0.516357)"/>
</clipPath>
</defs>
</svg>
