<svg width="257" height="112" viewBox="0 0 257 112" fill="none"
  xmlns="http://www.w3.org/2000/svg">
  <g clip-path="url(#clip0_21_1916)">
    <path d="M217.188 72.3093C124.247 64.9037 47.5991 87.4908 30.1959 96.0073C20.5686 100.451 19.828 106.005 21.3092 108.967C22.42 111.189 27.2337 112.67 32.0473 110.078C69.0754 90.0828 143.502 74.1607 217.188 78.6041C219.039 78.6041 220.52 77.123 220.52 75.2716C220.52 73.7904 219.039 72.3093 217.188 72.3093ZM240.145 44.1679C236.072 48.6113 230.518 51.9438 228.667 50.4627C226.815 48.9816 228.667 43.4274 228.667 43.4274C237.924 37.5029 255.697 22.3214 255.697 10.4724C255.697 -0.265794 246.07 -3.59832 236.072 6.39927C227.926 15.286 222.002 26.3945 218.669 38.2434C213.485 43.4274 204.969 50.0924 197.563 50.0924C193.49 50.0924 192.749 47.1302 193.12 43.4274C199.414 43.4274 217.188 38.2434 217.188 23.4322C217.188 20.8402 216.077 18.6185 214.226 16.7671C212.374 14.9157 210.153 14.1752 207.561 14.5455C199.414 14.5455 189.417 22.6916 184.233 34.5406C183.122 34.1704 181.641 33.8001 180.53 33.0595C182.011 30.0973 182.752 27.135 183.863 24.1728C184.973 17.878 182.381 14.1752 177.568 14.9157C174.235 14.9157 170.532 17.878 169.422 24.1728C169.051 27.5053 169.792 30.8378 170.903 33.4298C168.681 40.4651 159.794 48.9816 156.832 48.6113C153.87 48.241 157.202 36.0218 160.165 26.7647C162.016 24.9133 163.127 23.0619 164.238 20.47C164.978 18.6185 164.608 16.3969 162.757 15.6563C158.313 13.8049 153.129 16.0266 151.278 20.47C150.167 22.6916 149.056 24.9133 147.945 27.5053C145.353 30.4675 141.651 34.5406 140.54 34.1704C139.059 33.0595 144.613 25.6539 143.872 21.2105C143.502 17.878 140.169 15.286 136.837 15.6563C131.653 16.3969 125.358 26.0242 125.358 26.0242C126.099 24.1728 126.469 22.3214 126.839 20.47C126.469 16.7671 119.804 15.286 116.471 21.9511C114.25 28.2459 112.398 34.9109 111.658 41.576C110.177 44.5382 104.622 53.425 100.179 53.7953C96.4762 54.1655 100.92 37.8732 101.66 37.1326C103.512 34.1704 106.104 27.8756 105.733 24.9133C105.733 23.4322 105.363 22.3214 104.252 21.5808C103.141 20.8402 101.66 20.47 100.549 20.8402C98.3276 21.5808 96.4762 23.0619 95.3654 24.9133C93.8843 23.0619 91.2923 21.9511 88.7003 22.3214C73.8891 23.8025 64.6321 49.7222 65.7429 61.9414C66.4835 68.6065 69.816 72.6796 75.3702 71.5687C81.665 70.8282 86.8489 61.2009 86.8489 61.2009C86.8489 61.2009 88.3301 68.9768 95.3654 68.2362C100.549 66.7551 104.993 63.4226 108.325 58.9792C108.325 59.3495 107.955 59.7198 107.955 60.4603C106.844 67.1254 117.582 66.3848 118.323 61.2009C121.655 36.392 129.802 26.3944 132.023 26.3944C133.875 26.3944 126.839 37.8732 130.912 42.6868C134.245 46.3896 139.799 43.4274 144.613 39.3543C143.872 42.3165 143.502 45.6491 143.132 48.6113C142.761 55.6467 145.353 61.2009 152.018 60.8306C160.905 60.4603 170.162 49.3519 176.457 38.984C177.938 40.0949 179.79 40.8354 181.641 41.2057C180.9 43.7977 180.9 46.3896 180.9 48.6113C181.271 56.7575 186.825 59.7198 193.49 59.3495C200.896 58.9792 209.782 53.425 215.707 47.8708C215.707 48.241 215.707 48.6113 215.337 48.6113C214.966 52.6844 215.707 59.7198 221.261 60.09C227.556 60.4603 238.664 54.1655 244.218 47.1302C248.292 44.9085 243.478 40.4651 240.145 44.1679ZM246.07 10.8426C246.81 10.8426 247.181 11.5832 247.181 12.3238C247.181 19.3591 230.148 33.8001 230.148 33.8001C230.148 33.8001 241.256 10.8426 246.07 10.8426ZM204.598 25.2836C205.339 25.2836 205.709 25.2836 206.079 26.0242C206.45 26.7647 206.45 27.135 206.45 27.5053C206.45 31.5784 201.266 34.5406 195.341 34.5406C198.674 29.727 202.006 25.2836 204.598 25.2836ZM89.8112 36.0218C89.4409 40.0949 82.0353 58.9792 78.3325 58.9792C73.5188 59.3495 80.9244 32.6892 88.7003 32.6892C90.1815 32.6892 90.1815 33.8001 89.8112 36.0218ZM27.2337 41.2057C32.0473 41.2057 23.1606 66.0145 24.2714 76.7527C25.3823 87.4908 37.2313 84.5286 36.4907 78.2338C35.0096 67.4957 42.4152 33.8001 49.4505 33.8001C54.6345 33.8001 43.526 56.7575 45.7477 71.1985C47.2288 80.4555 59.8184 77.8635 58.3373 71.5687C54.2642 52.6844 67.5943 34.5406 65.7429 21.2105C65.0023 15.6563 61.6698 12.694 58.3373 12.694C46.4883 12.694 36.861 37.1326 36.861 37.1326C36.861 37.1326 38.3421 23.4322 28.3445 22.6916C14.2738 21.9511 -0.167141 57.4981 0.20314 89.7125C0.573421 100.08 13.163 98.229 12.4224 90.0828C11.6819 75.6418 19.828 41.2057 27.2337 41.2057Z" fill="#20B6FF"/>
  </g>
  <defs>
    <clipPath id="clip0_21_1916">
      <rect width="256" height="111.283" fill="#EBEBEB" transform="translate(0.183105 0.359375)"/>
    </clipPath>
  </defs>
</svg>
