<svg xmlns="http://www.w3.org/2000/svg" width="245" height="256" fill="none" viewBox="0 0 245 256">
  <g clip-path="url(#a)">
    <path fill="#ebebeb" d="M15.372 11.022 156.743.58c17.364-1.49 21.827-.486 32.745 7.452l45.128 31.791c7.443 5.468 9.921 6.958 9.921 12.91V227.09c0 10.927-3.968 17.39-17.858 18.378l-164.17 9.939c-10.423.494-15.388-.997-20.847-7.954L8.432 204.24C2.47 196.286 0 190.333 0 183.375V28.395c0-8.933 3.969-16.385 15.372-17.373"/>
    <path fill="#000" d="M156.743.58 15.372 11.023C3.969 12.01 0 19.462 0 28.395v154.98c0 6.958 2.47 12.911 8.431 20.865l33.23 43.212c5.46 6.957 10.425 8.448 20.849 7.954l164.169-9.939c13.881-.988 17.858-7.451 17.858-18.378V52.735c0-5.647-2.231-7.273-8.797-12.093l-1.133-.818-45.119-31.791C178.57.095 174.107-.91 156.743.58m-90.52 49.302c-13.405.903-16.445 1.107-24.059-5.084L22.807 29.4c-1.968-1.993-.98-4.48 3.977-4.973l135.903-9.93c11.412-.997 17.356 2.98 21.819 6.455l23.309 16.888c.996.502 3.475 3.474.494 3.474L67.96 49.763zM50.595 225.599V77.585c0-6.464 1.985-9.444 7.93-9.947l161.196-9.436c5.467-.494 7.937 2.98 7.937 9.436v147.026c0 6.464-.996 11.931-9.922 12.425l-154.255 8.942c-8.925.494-12.886-2.478-12.886-10.432M202.867 85.523c.988 4.47 0 8.942-4.471 9.453l-7.435 1.473V205.73c-6.455 3.475-12.4 5.459-17.365 5.459-7.937 0-9.921-2.487-15.865-9.93l-48.62-76.493v74.006l15.38 3.484s0 8.942-12.408 8.942l-34.21 1.984c-.996-1.993 0-6.958 3.466-7.946l8.934-2.478v-97.852l-12.4-1.005c-.996-4.471 1.482-10.927 8.431-11.43l36.706-2.469 50.586 77.481V98.936l-12.893-1.482c-.997-5.476 2.972-9.453 7.928-9.939z"/>
  </g>
  <defs>
    <clipPath id="a">
      <path fill="#ebebeb" d="M0 0h244.537v256H0z"/>
    </clipPath>
  </defs>
</svg>
