<svg xmlns="http://www.w3.org/2000/svg" width="257" height="50" fill="none" viewBox="0 0 257 50">
  <g fill="#ebebeb" clip-path="url(#a)">
    <path d="M.615 43.943V37.89c4.545 3.873 9.868 5.878 15.747 5.878 5.03 0 8.418-2.481 8.418-7.756s-4.36-5.82-9.995-6.667C6.97 28.07.129 26.737.129 17.287c0-8.778 6.18-13.566 15.201-13.566 6.481 0 11.571 1.878 14.598 4.058v5.693c-4-3.026-9.508-4.661-14.715-4.661s-8.778 2.725-8.778 7.688 4.058 5.995 9.635 6.91c7.814 1.333 15.026 2.365 15.026 11.873 0 8.846-6.054 13.751-14.598 13.751-7.085 0-12.058-2.121-15.873-5.09zM35.805 31.825v-.846c0-10.238 6.422-16.963 15.2-16.963 8.78 0 14.054 5.333 14.054 16.291v2.784H41.984c.36 7.454 5.207 10.968 12.292 10.968 3.63 0 6.842-.973 9.81-2.667v4.905c-2.18 1.275-5.693 2.725-11.026 2.725-10.657 0-17.265-5.995-17.265-17.206zm6.18-2.968h17.079c-.302-6.842-3.396-10.238-8.233-10.238-5.148 0-8.477 3.815-8.847 10.238M71.61 14.862h5.995v7.874c2.307-5.392 6.366-8.72 12.117-8.72 6.365 0 10.355 4.116 10.355 12.233v21.926h-6.18V27.582c0-5.508-2.608-8.477-6.968-8.477-3.698 0-6.365 1.995-7.815 4.906a10.76 10.76 0 0 0-1.333 5.206v18.958H71.6V14.862zM106.558 31.883v-.846c0-10.355 5.752-17.022 13.567-17.022 5.576 0 8.905 3.212 10.968 7.689V.322h6.18v47.853h-5.995v-6.968c-2.307 4.905-6.181 7.815-11.445 7.815-8.234 0-13.265-6.482-13.265-17.139zm24.778-.243v-.428c0-7.689-3.698-12.36-9.391-12.36-5.207 0-9.09 4.545-9.09 12.418v.428c0 8.176 3.756 12.418 9.265 12.418 5.508 0 9.206-4.36 9.206-12.476zM144.124 26.98v-.846c0-13.869 7.815-22.413 20.894-22.413 6.239 0 11.202 1.936 13.937 4v5.751c-3.086-2.54-7.932-4.545-13.567-4.545-10.18 0-14.715 6.784-14.715 17.382v.428c0 11.445 5.032 17.138 13.148 17.138 6.784 0 11.514-5.031 11.514-13.994v-.789h-13.207v-5.09h19.386v5.149c0 13.02-7.454 19.872-17.751 19.872-11.814 0-19.63-7.386-19.63-22.052zM188.101 14.863h5.996v8.846c2.063-5.751 5.089-9.508 9.994-9.508 1.577 0 2.783.36 3.455.73v5.937c-.847-.429-2.54-.847-4.175-.847-5.333 0-9.09 4.963-9.09 10.598v17.566h-6.18V14.863M211.782 4.148c0-2.608 1.392-3.572 3.873-3.572s3.873 1.032 3.873 3.572-1.216 3.63-3.873 3.63-3.873-.847-3.873-3.63m.788 10.657h6.18v33.37h-6.18zM225.414 31.883v-.846c0-10.355 5.752-17.022 13.567-17.022 5.576 0 8.905 3.212 10.968 7.689V.322h6.18v47.853h-5.995v-6.968c-2.307 4.905-6.18 7.815-11.445 7.815-8.234 0-13.265-6.482-13.265-17.139zm24.768-.243v-.428c0-7.689-3.698-12.36-9.391-12.36-5.207 0-9.09 4.545-9.09 12.418v.428c0 8.176 3.757 12.418 9.265 12.418s9.206-4.36 9.206-12.476z"/>
  </g>
  <defs>
    <clipPath id="a">
      <path fill="#ebebeb" d="M0 0h257v50H0z"/>
    </clipPath>
  </defs>
</svg>
