<svg width="221" height="256" viewBox="0 0 221 256" fill="none"
  xmlns="http://www.w3.org/2000/svg">
  <g clip-path="url(#clip0_18_1160)">
    <path d="M34.6596 111.911C27.1872 115.426 7.40985 131.249 3.60067 135.937C-0.355242 140.625 -1.52691 133.3 2.57501 121.14C5.79728 111.325 14.0026 97.9925 27.7734 86.5656C35.8305 79.9729 53.5581 70.4507 64.3987 64.8829C66.5967 63.7105 95.0182 51.6975 120.363 45.691C122.561 45.1048 117.727 49.3535 116.994 51.6975C113.184 62.8316 37.1489 110.592 37.1489 110.592L34.6596 111.911ZM141.753 246.253C143.071 254.165 141.899 254.751 133.695 255.776C125.491 256.802 119.484 253.725 117.287 251.675C115.089 249.623 114.65 245.082 116.848 240.98C118.167 238.342 119.485 237.463 120.218 234.24C120.95 231.164 121.536 230.431 122.122 229.26C122.707 228.233 122.855 227.208 123.001 220.029C123.148 212.851 123.001 199.372 123.734 193.659C124.467 187.8 149.812 196.296 149.812 196.296C149.812 196.296 143.805 211.239 142.193 214.902C140.582 218.565 140.728 225.596 140.728 227.062C140.728 228.527 140.143 231.456 139.703 231.603C139.263 231.749 141.168 235.558 140.288 237.756C139.702 239.808 141.607 245.082 141.753 246.253ZM151.422 22.2504C150.543 16.6834 151.422 5.6946 152.594 3.93746C156.257 -1.04411 175.595 -1.62959 179.698 4.23019C181.456 6.86699 181.309 13.0202 181.016 16.9761C180.723 20.9313 179.698 29.4286 179.551 32.2129C179.405 34.2642 158.162 37.4865 153.474 31.9194C152.154 30.455 151.422 22.2504 151.422 22.2504ZM194.494 232.042C203.431 238.489 210.316 239.661 214.858 242.005C219.399 244.35 218.227 248.891 210.609 250.209C204.456 251.381 194.787 249.037 188.341 249.037C181.895 249.037 167.537 249.77 163.728 247.133C159.333 244.057 161.237 238.342 161.237 238.342C162.41 235.12 165.339 227.941 164.46 222.081C163.581 216.221 162.409 212.998 160.212 207.577C158.014 202.157 156.403 188.825 158.454 188.092C160.506 187.359 159.919 188.092 162.556 188.678C165.193 189.263 168.123 190.143 173.837 190.143C179.551 190.143 185.85 189.263 188.048 188.824C190.246 188.385 192.003 187.945 191.27 192.487C190.538 197.028 188.341 205.526 188.194 212.118C188.048 218.711 188.048 226.329 188.488 227.648C188.926 228.966 192.15 230.431 194.494 232.042Z" fill="#010101"/>
    <path d="M163.142 36.901C147.027 50.8194 115.822 54.6278 69.5276 72.5013C57.6606 77.0427 26.0162 90.6676 18.3978 104.879C44.0357 90.0821 53.5587 110.446 55.6093 131.396C57.5131 151.027 67.3296 161.283 92.528 160.696C118.459 160.11 126.37 175.2 133.549 192.927C147.466 125.096 169.735 111.911 184.091 100.337C214.565 75.5776 177.06 31.9195 163.142 36.901Z" fill="#8AC640"/>
    <path d="M163.142 36.9014C124.466 50.3795 86.228 53.7492 41.2522 81.4384C30.5576 88.0311 7.99596 102.974 3.60059 131.543C20.0083 113.376 57.9526 90.5219 104.394 76.0181C127.835 68.6925 144.976 63.8584 165.779 55.8005C164.315 46.4236 164.315 42.7611 163.142 36.9014Z" fill="#8AC640"/>
    <path d="M212.514 117.185C212.514 117.185 209.73 126.708 204.163 129.785C204.163 129.785 200.061 131.25 191.857 126.709C189.513 125.39 187.755 120.849 187.901 119.383C188.048 115.867 190.245 114.255 190.245 114.255C190.245 114.255 192.59 110.3 195.373 110.446C198.157 110.592 202.845 111.032 204.31 109.713C205.628 108.248 212.807 112.35 212.514 117.185ZM152.74 25.0346C152.74 25.0346 152.155 32.5069 151.129 37.1943C150.983 38.074 146.588 38.5127 143.364 39.8318C149.517 57.4119 186.583 57.2652 191.418 48.6219C189.074 47.0107 184.386 44.52 182.188 43.641C179.99 42.7614 180.137 42.9081 179.99 38.8062C179.844 34.7035 179.551 27.0859 179.257 25.0346C178.965 22.9833 156.256 22.9833 152.74 25.0346Z" fill="#010101"/>
    <path d="M154.206 25.0346C154.206 25.0346 154.206 29.2832 153.766 33.3851C153.62 35.2897 153.473 36.4614 153.181 37.9265C153.034 38.8062 158.162 42.3212 159.627 50.0863C166.659 65.7617 182.921 57.9974 189.66 50.5257C187.316 48.9139 183.507 46.7165 179.112 44.9587C176.914 44.079 177.94 42.1752 177.794 38.0732C177.647 33.9713 177.061 27.9641 176.768 25.7668C176.474 23.5694 157.722 22.9832 154.206 25.0346Z" fill="#F0EFEF"/>
    <path d="M152.741 25.0346C152.741 25.0346 152.594 27.6721 152.155 30.7484C154.059 32.6522 156.55 35.2897 158.455 36.9016C159.773 38.074 162.996 37.9273 165.927 37.9273C168.563 37.9273 170.907 38.22 171.933 37.6345C174.278 36.4621 177.647 33.5326 179.552 31.3346C179.405 28.6978 179.259 26.207 179.113 25.0346C178.965 22.9833 156.256 22.9833 152.741 25.0346Z" fill="#010101"/>
    <path d="M166.073 36.1685C164.314 36.1685 162.263 36.0225 160.652 35.7291C159.919 35.5831 159.186 35.1436 158.6 34.8501C157.575 34.1172 156.549 33.239 155.378 32.3594C153.033 30.6015 152.887 29.5758 152.887 29.1371C153.913 19.9069 152.594 12.1425 152.594 12.1425C152.594 12.1425 151.568 8.18659 157.135 7.16093C162.702 6.13527 166.072 5.98926 166.072 5.98926C166.072 5.98926 169.588 5.98926 175.009 7.16093C180.576 8.18659 179.55 12.1425 179.55 12.1425C179.55 12.1425 178.232 19.9069 179.257 29.1371C179.257 29.5758 179.111 30.6015 176.767 32.3594C174.715 33.8245 173.104 35.4356 171.493 35.7291C169.881 36.0225 167.83 36.1685 166.073 36.1685Z" fill="#010101"/>
    <path d="M166.073 2.17969C156.404 2.17969 154.498 4.81648 151.715 7.74673C151.129 8.47894 151.568 12.8743 152.595 22.2505H153.913C153.913 22.2505 153.033 19.613 153.18 16.5368C153.327 13.4605 153.913 13.6072 153.473 12.8743C152.887 11.9947 151.715 10.5295 154.352 9.06513C156.989 7.6 161.091 10.2368 166.073 10.3835C171.054 10.2368 175.302 7.6 177.939 9.06513C180.576 10.5295 179.404 11.9947 178.819 12.8743C178.232 13.7532 178.965 13.4598 179.111 16.5368C179.257 19.613 178.378 22.2505 178.378 22.2505H179.697C180.576 12.8743 181.162 8.77239 180.723 8.03947C178.232 4.81648 175.742 2.3257 166.073 2.17969ZM212.514 117.624C212.514 117.624 209.73 126.561 204.31 129.637C203.137 129.051 203.284 128.173 202.258 126.853C201.965 126.415 200.939 126.121 200.501 125.682C200.061 125.242 200.208 124.509 199.475 123.924C198.889 123.338 198.449 123.777 197.863 123.338C197.278 122.752 197.13 122.019 196.691 121.581C196.398 121.287 195.226 121.141 194.934 120.848C194.201 120.115 187.755 118.796 188.048 117.331C188.634 115.133 189.806 113.522 189.806 113.522C189.806 113.522 192.59 109.42 195.372 109.566C198.156 109.713 200.793 110.299 202.258 108.981C203.87 107.515 212.954 112.936 212.514 117.624Z" fill="#010101"/>
    <path d="M193.468 52.87C193.468 52.87 202.698 50.672 208.998 56.6792C215.298 62.8324 214.858 70.4501 212.954 75.1382C214.565 77.0428 217.495 82.3164 215.298 88.6164C224.967 96.8202 220.718 109.42 212.075 117.771C212.075 117.771 210.023 110.152 201.82 109.713C202.112 106.783 194.201 104.439 197.864 96.8202C192.297 95.5018 192.443 91.6926 191.564 87.0052C190.832 82.3164 193.468 52.87 193.468 52.87Z" fill="#010101"/>
    <path d="M190.099 56.9723C190.099 56.9723 200.793 51.552 207.093 57.7052C213.393 63.8585 211.634 70.5972 209.73 75.2853C211.341 77.1892 215.15 82.6109 212.806 89.0562C212.367 90.5213 209.144 90.5213 206.799 94.3305C212.659 90.9601 216.322 91.8397 217.64 96.0876C219.692 102.68 215.15 110.591 211.195 114.987C211.195 114.84 211.048 114.693 211.048 114.547C210.462 116.745 209.729 120.993 205.335 125.681C203.137 128.025 201.379 127.733 198.888 127.147C195.959 126.414 194.933 125.095 190.831 122.898C188.487 121.58 189.805 119.968 189.805 118.649C189.805 118.357 190.098 117.916 190.538 117.331C190.831 116.598 191.71 115.427 193.028 114.108C193.028 114.108 194.933 111.471 197.717 111.617C200.501 111.764 203.43 111.178 204.163 110.445C204.163 105.318 198.303 105.171 200.354 96.3811C200.501 95.9416 201.234 95.2087 203.577 94.916C200.06 94.183 198.449 94.0363 195.959 91.693C194.201 90.0818 192.882 88.0305 192.442 85.3937C191.564 80.8523 190.099 56.9723 190.099 56.9723Z" fill="#F0EFEF"/>
    <path d="M159.186 47.7426C158.307 46.5702 153.766 40.7104 145.122 38.3664C142.631 37.6335 141.02 39.6848 138.53 41.1499C137.797 40.7104 134.574 39.2453 132.816 40.2702C131.058 41.2952 129.887 42.3216 128.128 43.0538C127.249 42.6143 124.905 42.6143 123.001 43.3465C121.096 43.9327 118.166 45.2511 115.382 49.0603C113.624 55.3602 146.44 50.6714 146.44 50.6714L159.186 47.7426Z" fill="#010101"/>
    <path d="M159.48 47.7427C154.791 46.1309 155.524 40.7106 145.122 39.8316C143.071 39.6849 141.752 41.296 140.287 42.3217C141.02 43.0546 141.752 44.2263 142.192 45.398C140.874 43.9335 138.529 42.0282 136.185 41.5888C133.987 41.15 132.522 42.7612 130.178 43.9335C130.617 44.3723 131.057 45.1052 131.643 45.9849C129.591 44.6665 128.127 44.227 125.343 45.2519C123.439 45.8374 119.776 47.4493 116.993 51.4052C115.235 57.7052 146.587 50.6723 146.587 50.6723L159.48 47.7427Z" fill="#8AC640"/>
    <path d="M187.022 50.0872C187.022 50.0872 187.022 48.4753 186.876 47.0109C186.876 46.7182 185.704 45.9852 185.704 45.6925L185.411 45.3991C185.411 45.3991 187.755 44.0807 189.513 44.8136C191.417 45.3991 192.443 47.8898 192.443 47.8898C195.812 46.7182 196.105 48.0366 197.717 49.7944C201.233 49.0615 201.672 50.3799 203.87 53.6036C203.87 53.6036 201.233 53.1641 196.106 54.0424C191.124 54.7746 187.022 49.9404 187.022 50.0872Z" fill="#010101"/>
    <path d="M186.436 49.3538C186.436 49.3538 187.315 48.6209 187.022 48.4742C188.633 47.5952 190.831 46.5703 191.857 49.3538C195.226 48.1814 195.666 49.7933 197.277 51.5519C201.379 49.6473 201.672 51.9906 201.965 53.0163C200.647 53.0163 198.743 53.163 196.105 53.4557C191.124 54.1887 186.29 49.2071 186.436 49.3538Z" fill="#8AC640"/>
    <path d="M136.626 45.6914C136.626 45.6914 144.976 48.6209 152.008 48.1815C159.04 47.596 171.054 47.0098 177.499 50.819C177.499 50.819 184.092 48.4742 190.245 50.0861C196.399 51.6972 207.679 62.2458 204.31 73.3799C204.017 74.1128 202.112 75.2845 199.915 76.0174C199.915 76.0174 201.087 80.9983 199.036 85.1002C196.985 89.0561 192.443 96.6745 192.297 107.222C192.151 108.98 191.858 112.643 191.565 114.401C180.137 113.962 162.557 109.712 145.27 110.006C145.416 108.102 145.562 106.93 145.709 105.025H146.148C145.269 100.19 144.976 97.6994 144.097 94.0369C138.529 90.5212 132.669 86.4193 127.689 78.6542C122.854 70.8891 136.626 45.6914 136.626 45.6914ZM193.176 124.803C193.176 124.803 202.259 157.327 191.565 170.952C191.565 170.952 193.176 177.251 189.513 183.991C188.927 186.92 188.194 189.558 187.755 192.487C185.851 204.647 182.627 209.775 181.748 229.259L172.957 229.113C172.957 229.113 171.932 215.049 168.855 207.577C167.098 203.329 160.211 197.615 160.506 191.902C160.798 187.506 161.677 183.844 169.15 177.984C169.735 169.487 161.238 161.428 162.557 129.784L193.176 124.803Z" fill="#010101"/>
    <path d="M190.539 123.484C192.883 138.427 198.303 160.549 188.488 171.39C189.067 174.139 189.116 176.973 188.634 179.741C188.341 181.499 187.755 183.403 187.022 185.454C185.557 188.97 184.971 194.098 184.532 197.174C182.627 209.334 182.627 209.921 181.748 229.405L172.957 229.259C172.957 229.259 171.932 215.194 168.855 207.723C167.098 203.475 163.435 199.812 163.142 194.098C162.85 189.704 165.926 180.914 173.252 181.206C172.812 163.48 164.608 166.995 162.41 130.077L190.539 123.484ZM136.626 45.6914C136.626 45.6914 139.849 46.7171 143.364 47.0098C146.881 47.3025 150.69 47.0098 154.059 46.8631C161.091 46.2776 171.054 45.5447 177.646 49.3539C177.646 49.3539 181.309 48.1815 185.265 48.4742C187.022 48.6209 188.781 50.0861 190.832 50.6723C197.278 52.2834 203.431 62.978 200.647 72.6477C200.354 73.3806 198.303 72.6477 195.958 73.3806C196.397 75.4319 196.691 80.12 194.347 85.1009C191.857 90.0825 188.634 96.5284 189.219 108.835C173.836 108.102 166.951 107.077 151.714 106.344C150.396 100.923 149.516 95.5028 149.37 92.7193C151.421 91.6936 152.592 90.8154 154.205 89.0568C149.81 89.7897 148.052 89.4963 145.414 88.0311C142.777 86.566 138.089 81.8779 135.745 78.8017C135.452 78.5082 133.841 83.3423 130.179 83.4898C128.86 81.5852 134.427 76.1641 133.401 74.1135C129.739 66.6412 136.626 45.6914 136.626 45.6914Z" fill="#F0EFEF"/>
    <path d="M191.71 111.324C191.71 111.324 192.003 116.598 192.003 117.917C192.003 119.382 193.175 123.777 193.321 125.828C191.71 128.611 184.678 134.911 171.932 137.255C159.332 139.892 142.631 120.115 142.631 120.115C143.071 118.21 144.536 112.642 145.562 109.713C145.708 109.42 146.001 108.687 146.001 108.395C147.32 106.49 191.71 111.324 191.71 111.324Z" fill="#010101"/>
    <path d="M188.488 111.764C188.488 115.427 189.073 118.064 189.513 120.408C190.245 124.657 191.417 127.44 191.417 130.224C191.417 138.72 180.283 137.255 170.906 137.549C158.307 140.186 147.612 120.408 147.612 120.408C148.491 117.038 149.077 113.23 150.396 110.006C150.542 108.248 150.835 106.051 150.981 105.025C168.855 105.025 181.454 106.051 188.78 106.783C189.073 108.394 188.78 111.178 188.488 111.764Z" fill="#F0EFEF"/>
    <path d="M174.422 130.663C174.422 130.663 166.658 113.375 143.364 118.504C137.797 134.179 130.325 152.199 135.16 171.684C130.325 178.277 124.758 181.94 124.758 194.099C124.758 206.259 125.344 208.31 125.344 208.31L142.485 209.19C142.485 209.19 148.052 202.011 150.249 194.246C150.835 192.048 151.421 188.093 150.982 183.552C151.567 182.673 154.058 180.622 154.352 176.666C154.352 176.666 162.702 172.272 167.537 161.577C172.079 151.906 170.907 143.555 174.422 130.663Z" fill="#010101"/>
    <path d="M174.422 130.663C173.984 129.052 168.123 113.23 146.441 117.917C133.695 151.907 138.383 165.971 140.287 172.123C131.643 183.111 127.688 185.455 129.447 207.724H140.874C146.148 199.373 147.32 196.296 147.613 185.309C147.613 184.869 146.002 186.188 144.829 187.653C145.709 183.112 148.199 182.233 150.104 179.449C150.983 178.277 151.715 176.519 151.715 174.175C161.97 167.289 165.779 158.645 167.976 149.709C169.735 143.556 171.786 133.447 174.422 130.663Z" fill="#F0EFEF"/>
    <path d="M138.237 107.076C138.237 107.076 142.193 107.222 145.709 108.395C149.079 109.566 149.079 110.298 150.397 111.764C151.716 113.23 154.939 115.427 154.353 117.624C154.06 118.796 153.327 119.089 152.302 120.115C151.862 120.554 148.639 124.07 147.906 124.51C147.467 124.802 146.881 125.242 146.441 125.535L144.244 127C142.779 127.733 141.753 128.173 140.142 128.026C140.142 128.026 136.48 127.879 134.135 125.389C134.135 125.389 133.842 124.217 134.428 123.631C134.428 123.631 131.351 120.994 130.472 119.236C129.593 117.479 129.593 114.988 130.18 113.67C130.472 112.35 136.185 108.687 138.237 107.076ZM141.9 249.623L141.46 253.287C141.46 253.287 140.142 254.898 130.326 254.752C120.364 254.605 117.727 251.529 116.848 249.917L116.263 246.108C116.263 246.108 118.167 243.324 118.607 243.324C121.83 243.617 132.818 248.012 140.436 249.184C141.167 249.184 141.313 249.477 141.9 249.623ZM163.142 242.152C163.142 243.763 162.996 243.763 162.996 245.375C164.754 246.693 169.15 247.426 177.499 247.279C189.659 246.986 200.94 250.942 214.711 248.597L214.858 245.96L213.539 245.814L164.754 241.858L163.142 242.152Z" fill="#010101"/>
    <path d="M173.837 247.279H177.5C185.411 246.987 192.883 248.745 200.94 249.184C205.189 249.037 210.463 248.012 210.024 244.935L168.417 241.419C165.926 244.202 167.83 246.546 173.837 247.279ZM126.077 185.602C127.395 186.481 136.332 191.755 150.836 191.022C150.543 193.806 150.689 199.227 144.243 208.749C141.02 213.437 138.236 221.642 137.651 232.043C137.797 234.387 139.116 236.438 137.358 239.515C137.943 241.419 140.287 245.228 141.46 247.572C142.631 249.917 143.218 252.554 135.453 252.7C127.541 252.846 114.795 251.968 116.554 245.815C117.434 242.592 119.924 239.222 120.217 237.903C120.51 236.585 120.51 232.63 123 229.992C125.198 222.667 124.465 215.635 124.026 209.042C123.293 202.156 123.147 191.169 126.077 185.602ZM139.702 66.2016C150.104 52.2833 141.313 41.1499 124.613 44.5189C117.873 45.8373 111.134 50.5261 110.694 59.0227C108.497 59.3154 103.516 59.6082 101.025 68.6916C99.1214 75.7238 98.0958 77.0422 94.7253 80.5579C92.528 83.0487 94.8721 88.1763 96.4832 91.8395C101.904 104.439 118.605 105.61 129.886 115.133C133.695 114.108 137.651 109.86 138.823 107.076C129.3 95.7947 131.351 91.4 127.541 85.5402C131.644 84.0744 141.02 78.3613 139.702 66.2016Z" fill="#010101"/>
    <path d="M137.65 65.3232C138.236 64.4436 139.262 62.5397 139.702 61.8068C139.848 61.66 141.46 64.4436 141.606 64.2976C145.562 57.8509 146.587 48.4746 142.045 47.5957C141.019 47.449 139.116 47.0102 137.504 46.4233C134.574 45.3977 131.937 45.3977 127.249 46.2773C120.803 47.449 114.357 52.1371 114.357 58.8765C114.357 59.316 118.897 60.6344 120.216 66.0554C118.018 62.9784 114.209 59.6087 109.668 62.539C104.833 65.6152 107.324 72.6474 100.878 79.9723C98.6797 82.4631 98.9732 85.3933 101.316 91.2531C105.126 100.483 123.146 105.464 132.962 114.254C135.306 113.229 136.917 110.885 138.089 109.127C131.496 102.241 128.859 95.7945 126.955 91.1064C124.611 85.6861 121.974 82.6098 116.846 78.5065C119.483 79.5321 121.535 80.5578 122.706 81.4367C124.024 82.3156 125.929 82.4624 127.687 81.8762C133.988 79.6803 137.358 70.8895 137.65 65.3232Z" fill="#F0EFEF"/>
    <path d="M201.38 67.6671C200.94 73.2342 196.838 70.4507 194.641 69.425C190.245 67.5204 185.85 66.202 180.722 66.202C175.595 66.202 169.002 66.6415 163.289 68.1066C155.378 70.3039 153.033 70.1579 149.518 68.3993C146.002 66.4948 139.849 61.8066 139.849 61.8066C139.849 61.8066 139.703 63.2718 141.168 65.1764C143.072 67.5204 147.321 70.4507 153.034 72.3545C155.818 73.2342 158.016 72.6473 160.506 72.0618C173.545 68.8388 187.316 68.2526 198.889 75.2848C199.476 75.5775 201.527 74.6986 202.406 73.3802C203.577 71.4763 201.38 67.6671 201.38 67.6671Z" fill="#010101"/>
    <path d="M134.721 123.484C135.893 124.217 137.358 124.657 138.969 125.975C138.969 125.975 137.65 125.975 137.065 125.39C136.332 124.95 134.867 123.632 134.721 123.484Z" fill="#0A1825"/>
    <path d="M177.06 7.3077C176.62 5.98931 173.397 3.64453 165.926 3.64453C157.868 3.64453 155.524 6.13532 155.378 7.45371C155.378 7.89318 154.792 12.582 154.645 14.4859C154.645 14.4859 154.645 16.8299 154.791 20.3457C154.938 22.6897 155.524 24.0081 155.817 27.0851C156.109 30.3074 156.989 32.3587 158.6 34.9962C159.333 35.4349 159.919 35.8751 160.652 36.0219C163.582 36.6073 168.709 36.7541 171.493 36.0219C173.104 35.5824 175.155 32.7989 175.595 30.3081C176.18 27.2318 176.766 25.0338 176.913 23.1299C177.206 21.226 177.353 16.9767 177.499 15.8043C177.939 12.582 177.206 7.60044 177.06 7.3077Z" fill="#F0EFEF"/>
    <path d="M161.677 188.386C161.677 188.386 169.442 191.755 188.634 188.825C188.634 188.825 183.214 216.075 185.705 229.699C185.705 229.699 188.195 233.216 206.655 239.954C206.655 239.954 214.858 242.006 214.566 246.108C214.566 246.108 214.858 246.987 204.897 246.694C194.935 246.4 185.558 244.642 178.965 244.642C172.373 244.642 165.34 244.935 164.169 243.031C162.85 241.273 164.461 236.731 166.366 234.094C168.418 231.311 167.831 229.259 167.685 224.279C167.244 211.24 157.282 197.762 161.677 188.386Z" fill="#010101"/>
    <path d="M160.065 190.876C159.04 192.341 160.211 197.908 161.677 203.329C163.142 208.749 166.365 211.973 167.098 220.909C167.83 229.699 167.977 230.871 165.486 235.998C162.995 241.125 162.263 245.814 170.906 245.96C179.549 246.107 184.238 245.814 193.028 247.133C201.819 248.451 204.895 248.891 209.73 248.158C214.565 247.426 215.59 245.814 213.539 244.349C211.488 242.884 202.991 241.273 199.328 238.342C195.812 235.705 185.85 231.31 185.704 230.138C185.265 226.182 185.118 211.825 185.85 207.137C186.583 202.448 187.608 195.71 187.901 193.952C188.195 192.194 189.659 190.435 187.168 191.021C184.678 191.607 175.302 192.926 168.27 192.487C161.238 192.048 160.506 190.436 160.065 190.876Z" fill="#8AC640"/>
    <path opacity="0.3" d="M165.047 236.145C167.537 237.317 171.2 238.197 173.984 238.197C173.984 238.197 172.957 243.031 174.569 245.961C176.18 248.891 162.849 247.133 162.849 247.133L162.264 236.731L165.047 236.145ZM203.87 248.744C206.214 248.012 207.826 245.375 205.922 242.885C203.87 240.394 202.112 239.954 204.749 239.808C207.387 239.662 217.056 245.521 217.056 245.521L212.074 250.063L203.87 248.744ZM159.626 196.589C162.996 197.761 168.123 198.054 172.519 197.907C176.913 197.761 183.506 197.174 187.755 195.71C192.003 194.245 190.245 197.321 190.245 197.321L187.901 199.519C187.901 199.519 182.334 201.717 173.252 201.571C162.557 201.424 159.333 200.252 159.333 200.252L159.626 196.589ZM159.919 203.915C163.289 205.087 168.416 205.38 172.811 205.233C177.206 205.087 183.067 205.087 187.315 203.475C189.073 202.89 188.048 205.38 188.048 205.38L187.315 206.698C187.315 206.698 181.601 208.749 172.665 208.602C161.97 208.456 160.065 207.576 160.065 207.576L159.919 203.915Z" fill="#010101"/>
    <path d="M150.25 101.217C150.25 102.242 161.677 107.956 167.977 109.128C174.277 110.3 187.462 109.128 189.513 108.688L189.219 110.74C189.219 110.74 173.544 113.084 161.531 109.861C149.517 106.638 150.836 105.905 150.836 105.905L150.25 101.217Z" fill="#010101"/>
    <path d="M125.783 226.183C127.541 227.063 133.841 228.674 137.943 227.795C138.529 227.648 137.943 217.686 139.555 213.144C141.899 206.844 145.708 201.717 147.465 190.583C141.312 189.997 134.281 188.385 130.618 187.213C125.93 201.571 127.542 213.876 125.783 226.183ZM135.6 235.413C136.626 235.706 137.358 236.878 137.651 236.146C138.237 234.827 136.626 232.337 136.479 230.579V230.432C135.16 229.261 126.224 229.114 126.81 229.699C125.784 231.604 124.173 231.311 123.588 235.12C123.295 237.024 125.639 235.413 127.835 235.266C123.88 237.903 119.339 241.274 118.606 244.203C117.727 248.305 119.192 249.477 123.588 251.676C127.397 252.554 131.938 252.701 135.454 252.554C139.41 251.822 140.143 249.918 138.97 247.28C137.211 243.324 136.039 238.197 135.6 235.413Z" fill="#F0EFEF"/>
    <path d="M137.211 45.1055C142.046 47.889 148.785 47.1568 151.275 47.0101C151.862 47.0101 157.722 45.9844 158.015 46.1304C158.6 46.2771 158.6 46.7166 158.6 46.7166C158.6 46.7166 156.403 47.8883 151.422 48.181C146.734 48.4737 141.167 48.181 138.091 46.7166C134.428 45.1055 137.211 45.1055 137.211 45.1055ZM187.022 47.889C187.901 48.4745 193.615 50.6725 196.106 53.3093C198.303 55.6541 197.132 55.5074 196.691 54.9212C196.106 54.1882 191.564 51.112 189.806 50.3798C188.048 49.6476 185.85 48.3285 185.85 48.0357C185.85 47.743 187.022 47.889 187.022 47.889Z" fill="#010101"/>
    <path d="M136.478 108.688C140.727 108.395 145.122 109.421 147.906 112.35C149.371 113.815 151.715 115.426 151.422 116.891C151.422 117.331 150.542 118.503 149.811 119.382C149.371 119.968 148.053 121.286 147.613 121.726C147.027 122.166 144.976 123.778 144.537 124.07C144.097 124.364 143.511 125.097 143.071 125.243C141.607 125.976 139.995 125.389 138.53 124.657C137.066 123.924 138.824 123.778 137.212 122.606C133.257 119.822 131.058 117.917 132.67 112.497C132.816 111.471 134.427 110.299 136.478 108.688Z" fill="#F0EFEF"/>
    <path opacity="0.4" d="M99.1206 75.1382C85.9352 80.4126 52.3855 97.1144 42.8633 102.242C50.7744 107.223 54.4368 119.236 55.6092 131.396C55.7552 132.568 55.902 133.594 56.0487 134.765C56.1947 135.791 56.3414 136.523 56.4874 136.963C56.4874 137.11 56.4874 137.403 56.6342 137.549C65.2782 113.962 96.1897 89.0566 97.3621 87.152C97.9475 86.2731 96.6291 82.4639 98.6805 78.8021C101.318 74.1126 106.446 72.0613 99.1206 75.1382ZM130.472 185.748C137.211 172.27 137.358 159.378 137.211 144.288C137.211 137.988 141.752 129.051 139.409 131.542C130.618 141.357 108.497 159.817 92.5279 160.842C114.943 160.11 123.733 171.391 130.472 185.748Z" fill="#010101"/>
    <path d="M29.9706 114.694C38.3211 108.687 81.5398 85.687 91.9417 82.4633C102.343 79.0936 99.1199 75.1377 99.1199 75.1377C99.1199 75.1377 56.9269 93.3039 31.7284 108.98" fill="#010101"/>
    <path opacity="0.4" d="M153.033 72.3551C149.663 71.0367 147.027 74.9926 147.906 78.8018C148.785 82.611 156.696 86.8589 156.256 100.777C155.963 112.205 153.473 116.892 153.473 116.892L147.906 109.861C147.906 109.861 147.027 94.0378 145.122 91.6938C143.218 89.3497 137.211 85.1011 134.867 82.9037C132.523 80.7057 137.504 77.7761 137.211 73.6735C136.918 69.7183 139.702 61.8072 139.702 61.8072L153.033 72.3551ZM173.398 134.765C173.105 145.752 175.596 162.015 176.62 169.78C177.646 177.544 178.965 178.13 176.62 181.647C174.276 185.017 171.2 190.584 171.2 190.584L161.091 189.704C161.091 189.704 169.149 179.449 169.588 177.544C170.027 175.64 165.486 161.137 165.486 161.137L173.398 134.765ZM153.913 32.2134C155.964 36.7541 158.454 38.8054 162.409 40.1245C164.753 41.0034 173.983 42.1758 177.646 38.0732C179.257 36.1686 178.232 31.041 178.232 31.041L169.881 37.7797L158.6 35.7291L157.282 32.3594L153.913 32.2134Z" fill="#010101"/>
    <path d="M154.791 42.3223C158.6 44.8131 168.123 47.1571 170.76 47.5966C173.397 48.182 177.645 44.813 179.697 43.9341C181.895 42.9085 185.704 42.3223 190.099 46.2782C190.538 46.7176 189.073 48.6222 189.073 48.6222C188.926 48.4755 188.047 48.4755 186.875 47.8893C185.703 47.3038 184.678 46.8636 182.92 47.0104C175.594 47.8893 174.422 50.3801 167.976 48.9143C161.53 47.4484 159.919 46.2775 153.619 46.5702" fill="#8AC640"/>
    <path d="M154.791 42.3223C158.6 44.8131 168.123 47.1571 170.76 47.5966C173.397 48.182 177.645 44.813 179.697 43.9341C181.895 42.9085 185.704 42.3223 190.099 46.2782C190.538 46.7176 189.073 48.6222 189.073 48.6222C188.926 48.4755 188.047 48.4755 186.875 47.8893C185.703 47.3038 184.678 46.8636 182.92 47.0104C175.594 47.8893 174.422 50.3801 167.976 48.9143C161.53 47.4484 159.919 46.2775 153.619 46.5702" stroke="#010101" stroke-width="1.14074" stroke-miterlimit="10" stroke-linejoin="round"/>
    <path d="M153.473 42.7617C158.308 44.813 167.684 47.0104 170.321 47.5966C172.957 48.1828 177.206 45.5452 179.257 44.2268C182.92 41.8828 187.608 43.7874 189.806 46.2782C191.27 47.8893 191.857 48.915 191.857 49.3544C191.857 49.9399 190.099 49.3544 190.099 49.3544C189.074 48.915 187.901 48.7689 187.023 48.182C185.851 47.5966 184.678 46.7176 182.921 46.8636C175.596 47.7433 174.13 50.2334 167.831 48.7682C161.532 47.3031 159.92 45.9847 153.181 46.4235" fill="#8AC640"/>
    <path d="M130.765 179.595C130.472 179.302 131.058 179.01 130.765 179.01C128.861 179.01 126.224 177.544 124.758 175.493C118.459 166.41 109.228 160.404 92.5272 160.843C67.4748 161.429 57.5124 151.174 55.6085 131.543C54.5828 120.848 51.6526 110.446 45.6461 104.586L42.1296 106.784C48.8684 112.644 51.0664 122.167 52.5315 135.205C54.8756 154.837 70.6978 163.92 89.1575 164.213C108.349 164.506 115.235 168.462 122.413 178.131C124.757 181.208 127.395 182.233 129.445 182.673L130.765 179.595Z" fill="#010101"/>
    <path opacity="0.4" d="M198.743 85.3936C199.182 87.5909 200.354 91.8395 202.698 93.8901C203.724 94.9158 203.87 95.2085 202.991 95.2085C202.112 95.2085 195.666 94.9158 195.666 94.9158L193.908 91.8395L198.743 85.3936Z" fill="#010101"/>
  </g>
  <defs>
    <clipPath id="clip0_18_1160">
      <rect width="221" height="256" fill="#EBEBEB"/>
    </clipPath>
  </defs>
</svg>
