<svg xmlns="http://www.w3.org/2000/svg" width="256" height="174" fill="none" viewBox="0 0 256 174">
  <g clip-path="url(#a)">
    <path fill="url(#b)" d="M215.244 173.202v-80.06c0-16.855-7.013-25.278-20.715-25.278-13.686 0-20.715 8.423-20.715 25.278v80.06h-41.078v-80.06c0-16.855-6.664-25.278-20.36-25.278-13.694 0-20.72 8.423-20.72 25.278v80.06h-40.73V88.586c0-17.557 5.968-30.557 18.258-39.687 10.533-8.072 25.282-11.926 43.19-11.926 18.611 0 31.954 4.556 40.726 14.04 7.371-9.484 21.073-14.04 41.078-14.04 18.259 0 32.659 3.854 43.194 11.926 12.286 9.13 18.256 22.13 18.256 39.686v84.96H215.24v-.343z"/>
    <path fill="#58595b" d="M54.79 57.327 50.577 78.4c38.623 12.988 75.138.343 94.453-33.359-28.445-19.658-54.782.352-90.24 12.286"/>
    <path fill="url(#c)" d="M54.79 52.068c-1.406 8.073-2.46 15.794-3.865 23.872 36.867 12.645 73.033 1.755 92.346-31.25-24.586-28.441-51.964-4.92-88.48 7.378"/>
    <path fill="url(#d)" d="M98.682 61.54c-16.855-3.51-35.116 5.276-47.754 14.4-8.077-58.982 28.442-57.585 76.186-42.838-3.156 14.4-8.429 33.714-17.552 45.298-.349-7.73-3.859-12.992-10.88-16.86"/>
    <path fill="url(#e)" d="M.367 52.068C62.163 14.843 96.925 7.825 168.902.455 85.335 66.455 83.227 52.068.367 52.068"/>
    <path stroke="#4a4a4c" stroke-width="1.032" d="M168.902.799 102.538 48.9"/>
    <path fill="#231f20" d="M89.9 26.426c-1.056-7.375.701 7.73 0 0" opacity=".23"/>
    <path stroke="#a8abad" stroke-width="1.032" d="m.367 52.068 102.171-3.17"/>
    <path stroke="#f16922" stroke-width="1.032" d="M83.58 27.133C66.023 32.048 8.444 44.69 7.736 52.068c-1.753 13.69-.345 35.46-.345 35.46"/>
    <path fill="#f16922" d="M12.658 139.842c-6.324-15.798-14.047-33.359-4.922-55.13 5.972 20.363 4.922 35.814 4.922 55.13"/>
    <path fill="#6d6e70" d="M80.673 24.743c1.462-.516 2.857-.35 3.115.38.26.733-.71 1.747-2.172 2.263-1.463.528-2.857.355-3.117-.38-.262-.727.71-1.742 2.174-2.263"/>
  </g>
  <defs>
    <linearGradient id="c" x1="50.928" x2="143.137" y1="56.139" y2="56.139" gradientUnits="userSpaceOnUse">
      <stop stop-color="#929497"/>
      <stop offset=".124" stop-color="#757578"/>
      <stop offset=".279" stop-color="#575658"/>
      <stop offset=".44" stop-color="#403e3f"/>
      <stop offset=".609" stop-color="#302d2e"/>
      <stop offset=".788" stop-color="#262223"/>
      <stop offset="1" stop-color="#231f20"/>
    </linearGradient>
    <linearGradient id="d" x1="68.612" x2="106.895" y1="25.377" y2="80.051" gradientUnits="userSpaceOnUse">
      <stop stop-color="#231f20"/>
      <stop offset="1" stop-color="#231f20" stop-opacity="0"/>
    </linearGradient>
    <linearGradient id="e" x1=".367" x2="168.902" y1="26.926" y2="26.926" gradientUnits="userSpaceOnUse">
      <stop stop-color="#929497"/>
      <stop offset=".124" stop-color="#757578"/>
      <stop offset=".279" stop-color="#575658"/>
      <stop offset=".44" stop-color="#403e3f"/>
      <stop offset=".609" stop-color="#302d2e"/>
      <stop offset=".788" stop-color="#262223"/>
      <stop offset="1" stop-color="#231f20"/>
    </linearGradient>
    <radialGradient id="b" cx="0" cy="0" r="1" gradientTransform="translate(481.559 113.131)scale(433.053)" gradientUnits="userSpaceOnUse">
      <stop stop-color="#faaf40"/>
      <stop offset=".043" stop-color="#f9a538"/>
      <stop offset=".112" stop-color="#f89d31"/>
      <stop offset=".227" stop-color="#f89a2f"/>
      <stop offset=".528" stop-color="#f7922d"/>
      <stop offset="1" stop-color="#f37b28"/>
    </radialGradient>
    <clipPath id="a">
      <path fill="#ebebeb" d="M0 .291h256V173.71H0z"/>
    </clipPath>
  </defs>
</svg>
