<svg xmlns="http://www.w3.org/2000/svg" width="256" height="257" fill="none" viewBox="0 0 256 257">
  <g clip-path="url(#a)">
    <path fill="url(#b)" d="M128 256.5c70.692 0 128-57.308 128-128S198.692.5 128 .5 0 57.808 0 128.5s57.308 128 128 128"/>
    <path stroke="url(#c)" stroke-width="3.218" d="M103.814 142.464c19.28 33.393 45.738 54.212 59.095 46.501s8.556-41.035-10.723-74.428c-19.28-33.394-45.738-54.213-59.095-46.501s-8.556 41.034 10.723 74.428Z" opacity=".6"/>
    <path stroke="url(#d)" stroke-width="3.218" d="M152.186 142.463c19.279-33.394 24.08-66.716 10.723-74.428s-39.815 13.107-59.095 46.501-24.08 66.716-10.723 74.428 39.815-13.108 59.095-46.501Z" opacity=".6"/>
    <path stroke="url(#e)" stroke-width="3.218" d="M128 156.427c38.56 0 69.818-12.504 69.818-27.927S166.56 100.572 128 100.572 58.182 113.076 58.182 128.5c0 15.423 31.259 27.927 69.818 27.927Z" opacity=".6"/>
    <g filter="url(#f)">
      <path fill="url(#g)" d="M128 165.736c20.565 0 37.236-16.671 37.236-37.236S148.565 91.264 128 91.264 90.764 107.935 90.764 128.5s16.671 37.236 37.236 37.236"/>
    </g>
    <path fill="#00f5ff" d="M128 137.809a9.31 9.31 0 0 0 9.309-9.309 9.31 9.31 0 1 0-9.309 9.309" opacity=".9"/>
    <path fill="#61dafb" d="M109.382 116.864a2.327 2.327 0 1 0 0-4.655 2.327 2.327 0 0 0 0 4.655" opacity=".5"/>
    <path fill="#c77dff" d="M146.618 116.864a2.328 2.328 0 1 0 0-4.655 2.328 2.328 0 0 0 0 4.655" opacity=".5"/>
    <path fill="#00f5ff" d="M146.618 130.827a2.327 2.327 0 1 0 .001-4.655 2.327 2.327 0 0 0-.001 4.655" opacity=".7"/>
    <path fill="#9d4edd" d="M146.618 144.791a2.327 2.327 0 1 0 .001-4.655 2.327 2.327 0 0 0-.001 4.655" opacity=".5"/>
    <path fill="#61dafb" d="M128 144.791a2.327 2.327 0 1 0 0-4.654 2.327 2.327 0 0 0 0 4.654" opacity=".6"/>
  </g>
  <defs>
    <linearGradient id="c" x1="117.277" x2="-6296.61" y1="54.072" y2="8205.08" gradientUnits="userSpaceOnUse">
      <stop stop-color="#00f5ff"/>
      <stop offset=".5" stop-color="#61dafb"/>
      <stop offset="1" stop-color="#c77dff"/>
    </linearGradient>
    <linearGradient id="d" x1="68.905" x2="10334.8" y1="175" y2="1654.09" gradientUnits="userSpaceOnUse">
      <stop stop-color="#00f5ff"/>
      <stop offset=".5" stop-color="#61dafb"/>
      <stop offset="1" stop-color="#c77dff"/>
    </linearGradient>
    <linearGradient id="e" x1="58.182" x2="3910.22" y1="100.572" y2="9730.67" gradientUnits="userSpaceOnUse">
      <stop stop-color="#00f5ff"/>
      <stop offset=".5" stop-color="#61dafb"/>
      <stop offset="1" stop-color="#c77dff"/>
    </linearGradient>
    <radialGradient id="b" cx="0" cy="0" r="1" gradientTransform="translate(12800 12800.5)scale(17920)" gradientUnits="userSpaceOnUse">
      <stop stop-color="#1a1a2e"/>
      <stop offset="1" stop-color="#0f0f1a"/>
    </radialGradient>
    <radialGradient id="g" cx="0" cy="0" r="1" gradientTransform="translate(3814.4 3814.9)scale(3723.64)" gradientUnits="userSpaceOnUse">
      <stop stop-color="#00f5ff"/>
      <stop offset=".3" stop-color="#61dafb" stop-opacity=".8"/>
      <stop offset=".7" stop-color="#9d4edd" stop-opacity=".4"/>
      <stop offset="1" stop-color="#1a1a2e" stop-opacity="0"/>
    </radialGradient>
    <clipPath id="a">
      <path fill="#ebebeb" d="M0 .5h256v256H0z"/>
    </clipPath>
    <filter id="f" width="100.218" height="100.218" x="77.891" y="78.391" color-interpolation-filters="sRGB" filterUnits="userSpaceOnUse">
      <feFlood flood-opacity="0" result="BackgroundImageFix"/>
      <feBlend in="SourceGraphic" in2="BackgroundImageFix" result="shape"/>
      <feGaussianBlur result="effect1_foregroundBlur_74_1154" stdDeviation="6.436"/>
    </filter>
  </defs>
</svg>
