<svg xmlns="http://www.w3.org/2000/svg" width="257" height="172" fill="none" viewBox="0 0 257 172">
  <g clip-path="url(#a)">
    <path fill="#00dc82" d="M144.119 171.167h94.72c3.022 0 5.915-1.062 8.533-2.56 2.618-1.499 5.316-3.379 6.827-5.974 1.51-2.595 2.561-5.538 2.56-8.534-.002-2.996-1.047-5.938-2.56-8.531l-64-110.081c-1.511-2.595-3.357-4.476-5.974-5.974-2.617-1.497-6.364-2.56-9.386-2.56-3.023 0-5.917 1.063-8.534 2.56s-4.463 3.38-5.973 5.974l-16.213 28.16L111.692 9.03c-1.512-2.594-3.355-5.327-5.973-6.824S100.208.5 97.185.5c-3.022 0-5.915.21-8.533 1.707s-5.315 4.23-6.827 6.824L2.465 145.568C.952 148.161.76 151.103.76 154.099c-.002 2.996.196 5.939 1.706 8.534 1.51 2.594 4.21 4.475 6.827 5.974 2.617 1.498 5.51 2.56 8.533 2.56H77.56c23.668 0 40.896-10.618 52.906-30.72L159.479 90.1l15.36-26.453 46.933 80.213h-62.293zM76.705 143.86H34.892L97.185 36.34 128.76 90.1l-20.915 36.459c-7.976 13.043-17.069 17.301-31.139 17.301"/>
  </g>
  <defs>
    <clipPath id="a">
      <path fill="#ebebeb" d="M.759.5h256v171h-256z"/>
    </clipPath>
  </defs>
</svg>
