<svg xmlns="http://www.w3.org/2000/svg" width="156" height="256" fill="none" viewBox="0 0 156 256">
  <g fill="#bc987a" clip-path="url(#a)">
    <path d="M155.36 98.984c0-3.72-2.977-7.441-7.442-7.441H8.018c-3.721 0-7.442 2.976-7.442 7.441 0 25.302 3.72 112.367 40.928 154.784 1.489 1.488 2.977 2.232 5.21 2.232h62.508c2.233 0 3.721-.744 5.21-2.232 37.207-41.673 40.928-128.738 40.928-154.784M100.293 234.42H56.387c-2.232 0-3.72-.744-5.209-2.232-25.3-29.767-28.277-89.299-29.022-110.135 0-3.721 2.977-7.442 7.442-7.442h98.228c3.72 0 7.441 2.977 7.441 7.442 0 20.836-3.721 79.624-29.022 110.135-2.232 1.488-3.72 2.232-5.952 2.232M92.106 76.648s26.79-15.627 10.418-43.905C92.851 17.86 88.385 5.209 92.106 0c-9.673 11.906-26.045 24.557-8.185 51.347 5.953 6.697 8.93 20.836 8.185 25.301M62.34 78.885S80.2 68.467 69.038 49.12c-6.698-9.673-9.674-18.603-6.698-21.58-6.697 8.186-17.115 16.371-5.209 34.975 3.721 3.721 5.21 13.395 5.21 16.371"/>
    <path d="M123.36 165.203c-2.976 20.093-8.929 43.161-21.58 58.044q-2.233 2.233-4.465 2.233H60.108c-1.489 0-3.721-.744-4.465-2.233-8.93-11.162-14.883-26.045-18.604-41.672 0 0 43.16 5.953 67.718-2.977 17.859-6.697 18.603-13.395 18.603-13.395"/>
  </g>
  <defs>
    <clipPath id="a">
      <path fill="#ebebeb" d="M.576 0h155v256h-155z"/>
    </clipPath>
  </defs>
</svg>
