<svg xmlns="http://www.w3.org/2000/svg" width="256" height="256" fill="none" viewBox="0 0 256 256">
  <path stroke="#D5D5D5" d="M18.5 39.5h177v177h-177z"/>
  <path fill="#D5D5D5" d="M53.932 134h-3.523q-.312-1.52-1.094-2.67a7.3 7.3 0 0 0-1.875-1.932 8 8 0 0 0-2.429-1.193 9.7 9.7 0 0 0-2.784-.398q-2.642 0-4.787 1.335-2.13 1.335-3.395 3.935-1.25 2.6-1.25 6.378t1.25 6.377q1.265 2.6 3.395 3.935 2.145 1.335 4.787 1.335 1.449 0 2.784-.397 1.335-.399 2.43-1.179a7.5 7.5 0 0 0 1.874-1.946q.782-1.165 1.094-2.671h3.523q-.398 2.23-1.449 3.992a10.9 10.9 0 0 1-2.614 2.997 11.5 11.5 0 0 1-3.508 1.861q-1.932.639-4.134.639-3.72 0-6.619-1.818t-4.56-5.171q-1.662-3.352-1.662-7.954t1.662-7.955q1.662-3.352 4.56-5.17 2.898-1.82 6.62-1.819 2.2 0 4.133.64a11.3 11.3 0 0 1 3.508 1.875 10.7 10.7 0 0 1 2.614 2.983q1.05 1.746 1.449 3.991m24.001-1.818q-.255-2.16-2.074-3.352-1.817-1.194-4.46-1.194-1.932 0-3.38.625-1.435.626-2.245 1.719a4.12 4.12 0 0 0-.795 2.486q0 1.164.554 2.003a4.9 4.9 0 0 0 1.449 1.378 10.4 10.4 0 0 0 1.846.894q.966.342 1.776.554l2.954.796q1.136.298 2.529.824 1.406.525 2.684 1.434a7.3 7.3 0 0 1 2.131 2.302q.838 1.406.838 3.451 0 2.358-1.236 4.262-1.22 1.903-3.58 3.025-2.343 1.122-5.695 1.122-3.126 0-5.412-1.008-2.272-1.009-3.58-2.813-1.292-1.803-1.463-4.19h3.637q.141 1.648 1.108 2.727.98 1.066 2.471 1.591 1.506.512 3.239.512 2.017 0 3.622-.654 1.605-.667 2.543-1.846.937-1.194.937-2.785 0-1.448-.81-2.357t-2.13-1.478-2.855-.994l-3.58-1.023q-3.41-.98-5.398-2.798t-1.988-4.759q0-2.442 1.32-4.261 1.335-1.833 3.58-2.841 2.259-1.023 5.043-1.023 2.813 0 5 1.009 2.188.995 3.466 2.727 1.292 1.733 1.364 3.935zm27.908 0q-.255-2.16-2.074-3.352-1.818-1.194-4.46-1.194-1.932 0-3.38.625-1.435.626-2.245 1.719a4.12 4.12 0 0 0-.795 2.486q0 1.164.554 2.003a4.9 4.9 0 0 0 1.448 1.378 10.4 10.4 0 0 0 1.847.894q.966.342 1.776.554l2.954.796q1.137.298 2.529.824 1.406.525 2.684 1.434a7.3 7.3 0 0 1 2.131 2.302q.838 1.406.838 3.451 0 2.358-1.236 4.262-1.221 1.903-3.579 3.025-2.345 1.122-5.696 1.122-3.126 0-5.412-1.008-2.273-1.009-3.58-2.813-1.293-1.803-1.463-4.19h3.636q.143 1.648 1.108 2.727.981 1.066 2.472 1.591 1.506.512 3.239.512 2.017 0 3.622-.654 1.605-.667 2.542-1.846.938-1.194.938-2.785 0-1.448-.81-2.357t-2.13-1.478a22 22 0 0 0-2.856-.994l-3.58-1.023q-3.408-.98-5.397-2.798t-1.988-4.759q0-2.442 1.32-4.261 1.335-1.833 3.58-2.841 2.259-1.023 5.043-1.023 2.812 0 5 1.009 2.187.995 3.466 2.727 1.292 1.733 1.363 3.935zm-75.318 44.727h4.204l9.887 24.148h.34l9.887-24.148h4.204V206H55.75v-22.102h-.284L46.375 206h-3.182l-9.09-22.102h-.285V206h-3.295zm62.531 14.546q0 4.602-1.662 7.954t-4.56 5.171-6.619 1.818q-3.72 0-6.62-1.818-2.895-1.819-4.559-5.171-1.662-3.352-1.662-7.954t1.662-7.955q1.662-3.352 4.56-5.17 2.898-1.82 6.62-1.819 3.72 0 6.618 1.819t4.56 5.17q1.662 3.352 1.662 7.955m-3.409 0q0-3.779-1.264-6.378-1.25-2.6-3.395-3.935-2.13-1.335-4.773-1.335t-4.787 1.335q-2.13 1.335-3.395 3.935-1.25 2.6-1.25 6.378t1.25 6.377q1.265 2.6 3.395 3.935 2.145 1.335 4.787 1.335t4.773-1.335q2.144-1.335 3.395-3.935 1.264-2.6 1.264-6.377M110.355 206h-8.978v-29.091h9.375q4.233 0 7.245 1.747 3.01 1.733 4.616 4.986 1.605 3.238 1.605 7.756 0 4.545-1.619 7.826-1.62 3.267-4.716 5.029-3.096 1.747-7.528 1.747m-5.455-3.125h5.227q3.608 0 5.981-1.392t3.536-3.963q1.165-2.571 1.165-6.122 0-3.524-1.15-6.066-1.15-2.556-3.438-3.92-2.286-1.378-5.696-1.378H104.9zm46.718-25.966h3.523v19.261q0 2.984-1.406 5.327-1.392 2.33-3.935 3.679-2.543 1.335-5.966 1.335t-5.966-1.335q-2.542-1.349-3.949-3.679-1.392-2.343-1.392-5.327v-19.261h3.523v18.977q0 2.131.938 3.793.938 1.648 2.67 2.599 1.747.938 4.176.938t4.176-.938q1.747-.952 2.671-2.599.937-1.662.937-3.793zM164.576 206v-29.091h3.523v25.966h13.522V206zm24.9 0v-29.091h17.557v3.125h-14.034v9.83h13.125v3.125h-13.125v9.886h14.261V206zm42.215-21.818q-.255-2.16-2.074-3.352-1.818-1.194-4.46-1.194-1.932 0-3.381.625-1.434.626-2.244 1.719a4.12 4.12 0 0 0-.795 2.486q0 1.164.554 2.003a4.9 4.9 0 0 0 1.448 1.378q.881.54 1.847.894.966.342 1.776.554l2.954.796q1.137.298 2.529.824 1.406.525 2.684 1.434a7.3 7.3 0 0 1 2.131 2.302q.838 1.406.838 3.451 0 2.358-1.236 4.262-1.221 1.903-3.579 3.025-2.345 1.122-5.696 1.122-3.126 0-5.412-1.008-2.273-1.009-3.58-2.813-1.292-1.803-1.463-4.19h3.636q.142 1.648 1.108 2.727.981 1.066 2.472 1.591 1.505.512 3.239.512 2.016 0 3.622-.654 1.605-.667 2.542-1.846.938-1.194.938-2.785 0-1.448-.81-2.357t-2.13-1.478a22 22 0 0 0-2.856-.994l-3.579-1.023q-3.41-.98-5.398-2.798t-1.988-4.759q0-2.442 1.321-4.261 1.335-1.833 3.579-2.841 2.259-1.023 5.043-1.023 2.812 0 5 1.009 2.187.995 3.466 2.727 1.292 1.733 1.363 3.935z"/>
</svg>
