<svg xmlns="http://www.w3.org/2000/svg" width="256" height="139" fill="none" viewBox="0 0 256 139"><path fill="#c5f74f" d="M59.293 67.674a10.704 10.704 0 0 0-4.076-14.7c-5.23-2.92-11.884-1.076-14.862 4.122L5.393 118.104a10.704 10.704 0 0 0 4.076 14.7c5.23 2.921 11.884 1.076 14.862-4.121zM134.652 20.896a10.704 10.704 0 0 0-4.076-14.7c-5.23-2.921-11.884-1.076-14.862 4.121L80.752 71.326a10.704 10.704 0 0 0 4.076 14.7c5.23 2.92 11.883 1.076 14.862-4.122zM250.607 20.9a10.703 10.703 0 0 0-4.076-14.7c-5.23-2.921-11.884-1.076-14.862 4.121L196.707 71.33a10.704 10.704 0 0 0 4.076 14.7c5.23 2.92 11.884 1.076 14.862-4.122zM175.224 67.674a10.703 10.703 0 0 0-4.076-14.7c-5.23-2.92-11.883-1.076-14.862 4.122l-34.962 61.008a10.705 10.705 0 0 0 4.076 14.7c5.23 2.921 11.884 1.076 14.862-4.121z"/></svg>