<svg width="256" height="256" viewBox="0 0 256 256" fill="none"
  xmlns="http://www.w3.org/2000/svg">
  <g clip-path="url(#clip0_21_2286)">
    <path d="M0 0H215.04C225.903 0 236.322 4.31542 244.003 11.9969C251.685 19.6784 256 30.0967 256 40.96V215.04C256 225.903 251.685 236.322 244.003 244.003C236.322 251.685 225.903 256 215.04 256H40.96C30.0967 256 19.6784 251.685 11.9969 244.003C4.31542 236.322 0 225.903 0 215.04L0 0Z" fill="#663399"/>
    <path d="M209.034 235.495C200.742 235.495 194.401 233.083 189.962 228.237C185.572 223.366 183.286 216.415 183.081 207.338H200.95C201.052 215.366 203.873 219.39 209.418 219.39C212.244 219.39 214.246 218.494 215.401 216.723C216.53 214.956 217.121 212.132 217.121 208.262C217.121 205.185 216.351 202.619 214.861 200.595C212.839 198.186 210.244 196.325 207.314 195.183L200.691 192.001C194.788 189.179 190.5 185.846 187.855 181.947C185.288 178.074 184.005 172.639 184.005 165.691C184.005 157.919 186.266 151.611 190.756 146.763C195.377 141.917 201.667 139.508 209.7 139.508C217.457 139.508 223.462 141.891 227.697 146.635C232.01 151.407 234.268 158.227 234.45 167.151H217.249C217.352 164.232 216.763 161.334 215.529 158.687C214.556 156.742 212.654 155.766 209.83 155.766C204.8 155.766 202.284 158.764 202.284 164.739C202.284 167.768 202.898 170.125 204.132 171.92C205.909 173.905 208.136 175.436 210.627 176.385L216.968 179.18C223.514 182.18 228.237 185.849 231.137 190.285C234.063 194.696 235.502 200.595 235.502 207.98C235.502 216.827 233.19 223.622 228.493 228.365C223.821 233.109 217.324 235.495 209.034 235.495ZM151.327 235.495C143.032 235.495 136.694 233.083 132.252 228.237C127.862 223.366 125.578 216.415 125.373 207.338H143.24C143.342 215.366 146.166 219.39 151.713 219.39C154.534 219.39 156.536 218.494 157.665 216.723C158.822 214.956 159.386 212.132 159.386 208.262C159.386 205.185 158.643 202.619 157.153 200.595C155.132 198.186 152.536 196.325 149.606 195.183L142.984 192.001C137.078 189.179 132.792 185.846 130.148 181.947C127.58 178.074 126.298 172.639 126.298 165.691C126.298 157.919 128.556 151.611 133.048 146.763C137.669 141.917 143.959 139.508 151.992 139.508C159.747 139.508 165.752 141.891 169.964 146.635C174.328 151.407 176.561 158.227 176.74 167.151H159.542C159.644 164.232 159.055 161.334 157.821 158.687C156.846 156.742 154.947 155.766 152.123 155.766C147.09 155.766 144.573 158.764 144.573 164.739C144.573 167.768 145.19 170.125 146.422 171.92C148.199 173.905 150.426 175.436 152.916 176.385L159.258 179.18C165.804 182.18 170.527 185.849 173.43 190.285C176.33 194.696 177.792 200.595 177.792 207.98C177.792 216.827 175.457 223.622 170.785 228.365C166.113 233.109 159.619 235.495 151.327 235.495ZM91.2307 235.495C83.1155 235.495 76.6746 233.288 71.9002 228.877C67.1258 224.495 64.7629 217.903 64.7629 209.183V166.101C64.7629 157.435 67.2794 150.869 72.3098 146.356C77.4195 141.894 84.119 139.638 92.4109 139.638C100.447 139.638 106.785 141.945 111.483 146.509C116.234 151.099 118.62 157.922 118.62 167.025V170.435H99.7018V167.128C99.7018 163.615 98.9312 161.025 97.4413 159.332C96.7905 158.486 95.9491 157.806 94.9855 157.347C94.0218 156.888 92.9634 156.663 91.8963 156.691C88.8166 156.691 86.6355 157.74 85.4016 159.87C84.0882 162.817 83.4984 166.034 83.6813 169.255V206.698C83.6813 214.518 86.4307 218.494 91.8989 218.571C94.464 218.571 96.3891 217.647 97.7254 215.801C99.1767 213.469 99.8673 210.744 99.7018 208.003V205.21H118.62V208.134C118.62 214.211 117.44 219.288 115.052 223.34C112.781 227.295 109.374 230.476 105.272 232.469C100.892 234.56 96.0833 235.596 91.2307 235.495Z" fill="#EBEBEB"/>
  </g>
  <defs>
    <clipPath id="clip0_21_2286">
      <rect width="256" height="256" fill="#EBEBEB"/>
    </clipPath>
  </defs>
</svg>
