<svg width="257" height="192" viewBox="0 0 257 192" fill="none"
  xmlns="http://www.w3.org/2000/svg">
  <g clip-path="url(#clip0_20_649)">
    <path d="M85.1298 108.446C75.6186 111.144 69.3801 115.877 65.2702 120.605C69.2071 117.159 74.4793 113.997 81.592 111.982C88.8684 109.92 95.0746 109.934 100.202 110.923V106.912C95.8265 106.513 90.8103 106.832 85.1275 108.444L85.1298 108.446ZM64.8366 74.7324L29.5179 84.0383C29.5179 84.0383 30.1613 84.947 31.3537 86.1601L61.2988 78.2702C61.2988 78.2702 60.8744 83.7385 57.1889 88.6302C64.1586 83.3556 64.8366 74.7324 64.8366 74.7324ZM94.4012 157.739C44.698 171.127 18.4015 113.524 10.4401 83.6278C6.76155 69.8269 5.15636 59.3747 4.72739 52.631C4.68684 52.0209 4.69532 51.4086 4.75275 50.7998C2.1743 50.9567 0.94043 52.2966 1.19182 56.1689C1.62079 62.9102 3.22598 73.3601 6.90454 87.1657C14.8613 117.058 41.1624 174.66 90.8656 161.272C101.684 158.357 109.812 153.05 115.912 146.272C110.289 151.35 103.25 155.352 94.4012 157.739ZM103.742 39.4805V43.0183H123.237C122.838 41.766 122.434 40.6382 122.033 39.4805H103.742Z" fill="#2D4552"/>
    <path d="M127.593 68.613C136.362 71.1038 140.998 77.2501 143.449 82.6907L153.226 85.4675C153.226 85.4675 151.892 66.4289 134.671 61.5372C118.562 56.9592 108.647 70.488 107.441 72.2385C112.127 68.899 118.97 66.166 127.593 68.613ZM205.41 82.7783C189.285 78.1796 179.374 91.736 178.187 93.4634C182.878 90.1285 189.716 87.3932 198.337 89.8518C207.092 92.3449 211.723 98.4843 214.181 103.929L223.971 106.715C223.971 106.715 222.615 87.6723 205.41 82.7783ZM195.698 132.977L114.376 110.242C114.376 110.242 115.257 114.705 118.633 120.484L187.103 139.626C192.739 136.365 195.698 132.977 195.698 132.977ZM139.319 181.913C74.9264 164.65 82.7125 82.6054 93.1301 43.728C97.4199 27.706 101.83 15.7986 105.487 7.81415C103.306 7.36442 101.497 8.51527 99.7123 12.1454C95.8285 20.0214 90.863 32.8468 86.0567 50.7991C75.6414 89.6765 67.8553 171.716 132.245 188.979C162.594 197.109 186.238 184.752 203.863 165.346C187.133 180.499 165.774 188.995 139.319 181.913Z" fill="#2D4552"/>
    <path d="M103.741 138.512V121.955L57.7421 135C57.7421 135 61.1416 115.251 85.1318 108.445C92.4082 106.383 98.6145 106.397 103.741 107.386V39.4794H126.774C124.268 31.7302 121.841 25.7638 119.802 21.6194C116.433 14.7581 112.976 19.3062 105.132 25.8676C99.6062 30.4825 85.6438 40.3305 64.631 45.9924C43.6183 51.659 26.6323 50.1553 19.5427 48.9284C9.49417 47.194 4.2381 44.9892 4.73165 52.63C5.16062 59.3713 6.76581 69.8235 10.4444 83.6267C18.4011 113.521 44.7022 171.121 94.4054 157.733C107.388 154.234 116.553 147.32 122.904 138.508H103.741V138.512ZM29.5129 84.0373L64.8363 74.7313C64.8363 74.7313 63.8077 88.3201 50.5649 91.8095C37.3198 95.2967 29.5129 84.0373 29.5129 84.0373Z" fill="#E2574C"/>
    <path d="M236.677 40.2669C227.496 41.8767 205.468 43.8809 178.245 36.5861C151.014 29.2935 132.949 16.5397 125.79 10.5433C115.642 2.04452 111.18 -3.86193 106.786 5.0727C102.902 12.9534 97.9368 25.7764 93.1305 43.731C82.7152 82.6084 74.9291 164.648 139.319 181.911C203.692 199.16 237.964 124.214 248.382 85.3345C253.188 67.3845 255.296 53.7934 255.877 45.0295C256.539 35.1008 249.719 37.9837 236.68 40.2692L236.677 40.2669ZM107.312 72.4307C107.312 72.4307 117.46 56.6486 134.669 61.5403C151.891 66.432 153.224 85.4706 153.224 85.4706L107.312 72.4307ZM149.321 143.248C119.051 134.38 114.381 110.243 114.381 110.243L195.699 132.978C195.699 132.974 179.285 152.005 149.321 143.248ZM178.072 93.6395C178.072 93.6395 188.206 77.869 205.411 82.7745C222.616 87.6731 223.972 106.712 223.972 106.712L178.072 93.6395Z" fill="#2EAD33"/>
    <path d="M87.6665 126.516L57.7421 134.996C57.7421 134.996 60.994 116.479 83.0377 109.138L66.0933 45.5459L64.6288 45.991C43.616 51.6576 26.6301 50.1539 19.5405 48.9269C9.49191 47.1949 4.23584 44.9878 4.72939 52.6309C5.15836 59.3722 6.76355 69.8221 10.4421 83.6276C18.3989 113.52 44.7 171.122 94.4032 157.734L95.8677 157.275L87.6665 126.516ZM29.5153 84.0381L64.8386 74.7322C64.8386 74.7322 63.81 88.321 50.5672 91.8104C37.3221 95.2975 29.5153 84.0381 29.5153 84.0381Z" fill="#D65348"/>
    <path d="M150.684 143.581L149.314 143.248C119.044 134.383 114.374 110.243 114.374 110.243L156.307 121.964L178.508 36.6556L178.24 36.5841C151.01 29.2916 132.944 16.5377 125.785 10.5413C115.638 2.04257 111.175 -3.86388 106.782 5.07075C102.902 12.9514 97.9345 25.7745 93.1282 43.7291C82.7129 82.6065 74.9268 164.646 139.317 181.909L140.636 182.207L150.684 143.581ZM107.31 72.431C107.31 72.431 117.457 56.649 134.667 61.5407C151.888 66.4323 153.221 85.4709 153.221 85.4709L107.31 72.431Z" fill="#1D8D22"/>
    <path d="M89.191 126.08L81.165 128.359C83.0608 139.046 86.4027 149.305 91.6472 158.366C92.5605 158.165 93.4646 157.99 94.3963 157.737C96.7342 157.094 99.0296 156.306 101.269 155.377C95.4088 146.68 91.5319 136.661 89.191 126.08ZM86.0567 50.8023C81.933 66.1946 78.2429 88.349 79.2577 110.57C81.1648 109.729 83.1266 109.018 85.1296 108.442L86.6148 108.109C84.8044 84.3729 88.7182 60.1844 93.1301 43.7289C94.1754 39.8259 95.2942 35.9429 96.4858 32.082C94.5435 33.3237 92.5605 34.5006 90.5402 35.6107C88.9144 40.6349 87.4194 45.7005 86.0567 50.8023Z" fill="#C04B41"/>
  </g>
  <defs>
    <clipPath id="clip0_20_649">
      <rect width="256" height="191.423" fill="#EBEBEB" transform="translate(0.575928 0.28418)"/>
    </clipPath>
  </defs>
</svg>
