<svg width="256" height="256" viewBox="0 0 256 256" fill="none" xmlns="http://www.w3.org/2000/svg">
<g clip-path="url(#clip0_18_980)">
<path d="M256 128C256 57.3079 198.693 0 128.002 0C57.3072 0 0 57.3079 0 128C0 198.691 57.3072 256 128 256C198.693 256 256 198.691 256 128Z" fill="#339AF0"/>
<path d="M110.633 64.1043C113.168 63.7282 115.749 64.3782 117.804 65.9104C122.012 69.0485 125.895 72.6003 129.393 76.5119L130.26 77.4973H157.654C162.997 77.4973 167.323 81.8379 167.323 87.1982C167.323 92.4409 163.18 96.7072 158.008 96.8943L157.654 96.9007H142.523C146.75 106.634 148.921 117.135 148.898 127.747C148.919 137.978 146.901 148.108 142.966 157.544L142.521 158.59H157.645C162.989 158.59 167.315 162.932 167.315 168.292C167.315 173.533 163.17 177.801 157.999 177.988L157.645 177.995H130.244C126.526 182.293 122.352 186.174 117.796 189.571C115.738 191.105 113.154 191.755 110.615 191.378C108.077 191 105.794 189.626 104.272 187.559C103.517 186.537 102.97 185.373 102.661 184.135C102.037 181.637 102.428 178.994 103.749 176.784C104.399 175.693 105.26 174.743 106.28 173.986C121.073 162.965 129.566 146.113 129.566 127.745C129.566 109.377 121.073 92.5256 106.28 81.5042C105.259 80.7482 104.397 79.7974 103.745 78.7066C101.809 75.4536 101.933 71.3874 104.031 68.2661L104.272 67.9233C105.809 65.8592 108.093 64.4858 110.633 64.1043ZM108.891 111.147C110.655 111.9 112.251 112.998 113.582 114.379C114.919 115.765 115.966 117.404 116.663 119.199C117.362 120.999 117.697 122.92 117.65 124.85C117.563 128.622 116.016 132.214 113.335 134.868C110.671 137.504 107.076 138.984 103.329 138.988C99.5803 138.985 95.984 137.505 93.3196 134.868C90.6381 132.214 89.091 128.622 89.0042 124.85C88.958 122.92 89.2945 120.999 89.9941 119.199C90.6911 117.404 91.7385 115.765 93.0752 114.379C94.4064 112.999 96.0011 111.9 97.765 111.147C101.319 109.633 105.337 109.633 108.891 111.147Z" fill="white"/>
</g>
<defs>
<clipPath id="clip0_18_980">
<rect width="256" height="256" fill="white"/>
</clipPath>
</defs>
</svg>
