<svg xmlns="http://www.w3.org/2000/svg" width="256" height="257" fill="none" viewBox="0 0 256 257">
  <rect width="256" height="256" y=".014" fill="#1b68b3" rx="128"/>
  <path fill="#ebebeb" d="M122.085 79.223c-5.436 1.109-12.037 4.604-16.696 8.82-5.492 5.103-4.605 4.66-8.266 3.605-4.215-1.22-11.87-.832-16.752.888-4.437 1.553-10.927 5.769-13.645 8.93-4.66 5.381-8.599 16.475-7.877 22.078.332 2.662.277 2.718-2.996 6.656-5.658 6.768-7.988 13.036-7.655 20.747l.166 3.938 4.716 1.276c2.551.665 4.77 1.165 4.826 1.053.11-.055-.111-.942-.444-1.941-.388-1.054-.555-3.827-.388-6.601.166-3.994.499-5.325 1.83-7.766 1.498-2.773 4.826-6.268 8.32-8.709 1.554-1.165 1.554-1.22.944-3.716-2.774-11.094 3.161-23.354 13.146-27.125 6.38-2.386 11.927-2.33 18.417.277 1.997.777 3.882 1.442 4.16 1.442.277 0 1.165-1.054 1.997-2.385 2.219-3.495 8.043-8.876 11.538-10.65 8.265-4.216 17.307-4.05 25.627.388 4.16 2.219 10.096 8.487 11.871 12.481 1.109 2.441 1.553 2.94 2.33 2.662 3.938-1.719 5.602-1.997 8.431-1.719 4.272.499 8.377 2.551 11.427 5.713 3.661 3.772 4.826 6.601 5.104 12.648l.222 5.047 3.55 1.831c4.216 2.163 8.875 6.989 11.038 11.316 1.054 2.163 1.609 4.549 1.997 8.487.333 2.995.666 5.603.832 5.769.389.333 7.433.943 7.766.61.389-.444.222-5.713-.333-9.652-1.386-9.374-3.994-13.645-13.978-22.632-1.775-1.608-2.219-2.441-2.94-5.935-1.221-5.88-3.273-9.874-7.156-13.757-5.048-5.048-11.76-7.932-18.527-7.988-3.661 0-4.327-.388-6.767-3.605-3.773-5.104-13.924-11.26-20.469-12.481-3.439-.666-12.038-.61-15.366 0"/>
  <path fill="#f77a18" d="M146.992 129.757c.832.61 1.497 1.497 1.497 1.997 0 1.608-6.711 7.877-10.484 9.763-3.439 1.664-3.938 1.775-10.04 1.775s-6.601-.111-9.984-1.775c-3.939-1.942-7.156-4.771-9.264-8.099-1.276-2.053-1.331-2.219-.388-3.217.942-.999.887-1.054-1.554-1.054-2.773 0-5.38 1.442-7.266 3.994-1.276 1.719-.943 2.662.499 1.497.832-.665 1.109-.499 2.663 1.442.942 1.221 3.217 3.717 5.047 5.548 9.319 9.374 23.298 11.26 34.503 4.659 3.218-1.886 9.43-7.655 11.649-10.761.943-1.332 1.276-1.553 1.886-.999.388.388.943.721 1.165.721 1.72 0-2.33-4.826-4.937-5.879-.998-.444-2.884-.777-4.16-.777l-2.385.056z"/>
</svg>
