<svg xmlns="http://www.w3.org/2000/svg" width="256" height="257" fill="none" viewBox="0 0 256 257">
  <g clip-path="url(#a)">
    <mask id="b" width="257" height="256" x="-1" y="1" maskUnits="userSpaceOnUse" style="mask-type:luminance">
      <path fill="#ebebeb" d="M-.213 1h256v256h-256z"/>
    </mask>
    <g mask="url(#b)">
      <mask id="c" width="257" height="256" x="-1" y="1" maskUnits="userSpaceOnUse" style="mask-type:luminance">
        <path fill="#ebebeb" d="M191.787 1h-128a64 64 0 0 0-64 64v128a64 64 0 0 0 64 64h128a64 64 0 0 0 64-64V65a64 64 0 0 0-64-64"/>
      </mask>
      <g mask="url(#c)">
        <path fill="#794dff" d="M191.787 1h-128a64 64 0 0 0-64 64v128a64 64 0 0 0 64 64h128a64 64 0 0 0 64-64V65a64 64 0 0 0-64-64"/>
        <path fill="url(#d)" d="M191.787 1h-128a64 64 0 0 0-64 64v128a64 64 0 0 0 64 64h128a64 64 0 0 0 64-64V65a64 64 0 0 0-64-64"/>
        <path fill="url(#e)" fill-rule="evenodd" d="m177.852 164.739-44.4-54.712a8 8 0 0 0-9.785-2.111 8 8 0 0 0-2.759 2.271l-40.184 52.168a8 8 0 0 1-6.344 3.12H57.148a8 8 0 0 1-7.215-4.54 8 8 0 0 1 .975-8.468l69.984-87.352a7.996 7.996 0 0 1 9.664-2.23 8 8 0 0 1 2.784 2.182l73 89.584a8 8 0 0 1 1.019 8.482 8 8 0 0 1-7.219 4.566h-16.08a8 8 0 0 1-6.208-2.96m-44.72-11.872 20.72 23.624c4.536 5.168.864 13.272-6.008 13.272h-39.376a7.997 7.997 0 0 1-7.956-8.868 8 8 0 0 1 1.676-4.092l18.648-23.624a8 8 0 0 1 9.487-2.374 8 8 0 0 1 2.809 2.062" clip-rule="evenodd"/>
      </g>
      <path stroke="url(#f)" stroke-width="16" d="M191.787 6.328h-128A58.664 58.664 0 0 0 5.123 65v128a58.665 58.665 0 0 0 58.664 58.664h128a58.65 58.65 0 0 0 41.487-17.179A58.68 58.68 0 0 0 250.459 193V65a58.67 58.67 0 0 0-36.218-54.208 58.7 58.7 0 0 0-22.454-4.464Z"/>
    </g>
  </g>
  <defs>
    <linearGradient id="d" x1="231.787" x2="23.787" y1="17" y2="237" gradientUnits="userSpaceOnUse">
      <stop stop-opacity="0"/>
      <stop offset="1" stop-opacity=".38"/>
    </linearGradient>
    <linearGradient id="e" x1="128.644" x2="128.644" y1="62.123" y2="189.763" gradientUnits="userSpaceOnUse">
      <stop stop-color="#ebebeb"/>
      <stop offset="1" stop-color="#ebebeb" stop-opacity=".6"/>
    </linearGradient>
    <linearGradient id="f" x1="127.787" x2="127.787" y1="1" y2="257" gradientUnits="userSpaceOnUse">
      <stop stop-color="#ebebeb" stop-opacity=".28"/>
      <stop offset="1" stop-color="#ebebeb" stop-opacity=".04"/>
    </linearGradient>
    <clipPath id="a">
      <path fill="#ebebeb" d="M0 .5h256v256H0z"/>
    </clipPath>
  </defs>
</svg>
