<svg xmlns="http://www.w3.org/2000/svg" width="256" height="257" fill="none" viewBox="0 0 256 257">
  <g clip-path="url(#a)">
    <path fill="url(#b)" d="M195.943 104.547c-.593 4.083-3.285 9.631-6.374 14.454a26.92 26.92 0 0 1-17.162 11.829l-31.181 6.521a24 24 0 0 0-12.969 7.485l-20.445 22.853c-3.843 4.295-6.528 3.271-6.528-2.49-.047.214-10.148 26.263 16.621 41.702 10.284 5.933 25.09 3.801 35.375-2.131l54.494-31.433a82.48 82.48 0 0 0 39.553-54.662c.189-.911.336-1.825.493-2.738z"/>
    <path fill="url(#c)" d="M181.81 73.146c10.285 5.933 14.487 14.765 14.487 26.63 0 1.61-.126 3.201-.354 4.768l21.958 9.432 29.919 1.959c3.831-22.172-3.677-44.995-17.136-63.135-10.129-13.652-23.163-25.499-38.832-34.537-12.728-7.342-25.956-12.179-39.244-14.833l-14.932 19.336-4.717 22.203z"/>
    <path fill="url(#d)" d="M6.056 89.415c-.006.017.01.022.016.004a135 135 0 0 1 4.4-11.43c9.422-21.514 27.578-35.864 49.915-43.18 22.336-7.316 46.724-4.752 67.081 6.99l5.491 3.167 19.649-41.539C90.115-9.054 26.245 27.66 6.135 89.174z"/>
    <path fill="url(#e)" d="M151.147 204.765a33.27 33.27 0 0 1-33.242 0 33 33 0 0 1-3.957-2.692L95.86 214.509l-15.59 25.193c17.304 14.401 39.774 19.031 62.23 16.456 16.898-1.938 33.684-7.291 49.353-16.329 12.728-7.342 23.536-16.368 32.48-26.539l-9.295-22.586-15.041-14.117z"/>
    <path fill="url(#f)" d="M113.948 202.07a33.19 33.19 0 0 1-12.663-26.069V89.576c0-4.83 1.423-5.65 5.61-3.235-6.449-3.72-21.345-16.488-39.738-5.879-10.285 5.933-18.754 19.028-18.754 30.892v62.867c0 23.51 12.177 48.035 29.74 63.683.695.619 1.414 1.203 2.127 1.795z"/>
    <path fill="url(#g)" d="M223.071 43.498c-.012-.013-.024-.002-.012.012a135 135 0 0 1 7.708 9.522 82.4 82.4 0 0 1 14.322 65.843c-4.826 22.983-19.243 42.802-39.601 54.544l-5.491 3.167 24.337 36.703c42.065-47.828 42.174-121.446-1.094-169.601z"/>
    <path fill="url(#h)" d="M50.536 111.352a33.2 33.2 0 0 1 16.62-28.761 33 33 0 0 1 4.311-2.079l-1.735-21.868-12.196-25.019C36.401 41.397 19.305 57.458 10.31 78.173 3.54 93.762-.213 110.963-.213 129.038c0 14.684 2.42 28.546 6.764 41.372l24.228 3.251 19.757-5.955z"/>
    <path fill="url(#i)" d="M71.469 80.512a33.27 33.27 0 0 1 28.93 2.079l.886.51 71.164 41.048c4.992 2.879 4.538 5.713-1.104 6.893l4.105-.858a26.9 26.9 0 0 0 14.112-7.914c6.488-6.917 8.871-15.262 8.871-22.503a33.21 33.21 0 0 0-16.621-28.761l-54.495-31.433a82.62 82.62 0 0 0-67.16-6.89c-.884.291-1.75.622-2.62.942z"/>
    <path fill="url(#j)" d="M154.364 254.219c.019-.004.016-.02-.003-.016a135 135 0 0 1-12.108 1.908 82.6 82.6 0 0 1-64.236-20.53c-17.51-15.667-27.482-38.051-27.482-61.535v-6.334l-43.984 2.704c20.427 60.31 84.188 97.213 147.565 83.855z"/>
  </g>
  <defs>
    <linearGradient id="b" x1="160.267" x2="185.448" y1="191.165" y2="103.46" gradientUnits="userSpaceOnUse">
      <stop stop-color="#1724c9"/>
      <stop offset="1" stop-color="#1c64f2"/>
    </linearGradient>
    <linearGradient id="c" x1="218.262" x2="152.025" y1="84.205" y2="18.201" gradientUnits="userSpaceOnUse">
      <stop stop-color="#1c64f2"/>
      <stop offset="1" stop-color="#0092ff"/>
    </linearGradient>
    <linearGradient id="d" x1="129.103" x2="29.182" y1="41.169" y2="47.483" gradientUnits="userSpaceOnUse">
      <stop stop-color="#0092ff"/>
      <stop offset="1" stop-color="#45b2ff"/>
    </linearGradient>
    <linearGradient id="e" x1="122.346" x2="212.081" y1="230.302" y2="206.089" gradientUnits="userSpaceOnUse">
      <stop stop-color="#1c64f2"/>
      <stop offset="1" stop-color="#0092ff"/>
    </linearGradient>
    <linearGradient id="f" x1="57.938" x2="121.648" y1="126.459" y2="192.475" gradientUnits="userSpaceOnUse">
      <stop stop-color="#1724c9"/>
      <stop offset="1" stop-color="#1c64f2"/>
    </linearGradient>
    <linearGradient id="g" x1="203.391" x2="247.843" y1="174.085" y2="84.476" gradientUnits="userSpaceOnUse">
      <stop stop-color="#0092ff"/>
      <stop offset="1" stop-color="#45b2ff"/>
    </linearGradient>
    <linearGradient id="h" x1="42.698" x2="18.912" y1="74.042" y2="163.447" gradientUnits="userSpaceOnUse">
      <stop stop-color="#1c64f2"/>
      <stop offset="1" stop-color="#0092ff"/>
    </linearGradient>
    <linearGradient id="i" x1="164.133" x2="77.21" y1="69.789" y2="91.431" gradientUnits="userSpaceOnUse">
      <stop stop-color="#1724c9"/>
      <stop offset="1" stop-color="#1c64f2"/>
    </linearGradient>
    <linearGradient id="j" x1="51.041" x2="106.447" y1="171.854" y2="255.197" gradientUnits="userSpaceOnUse">
      <stop stop-color="#0092ff"/>
      <stop offset="1" stop-color="#45b2ff"/>
    </linearGradient>
    <clipPath id="a">
      <path fill="#ebebeb" d="M0 .5h256v256H0z"/>
    </clipPath>
  </defs>
</svg>
