<svg width="256" height="256" viewBox="0 0 256 256" fill="none"
  xmlns="http://www.w3.org/2000/svg">
  <path d="M205.962 122.326C204.759 105.794 198.331 90.0713 187.607 77.4309C176.883 64.7905 162.419 55.8865 146.303 52.0051L140.446 76.3234C151.405 78.9628 161.241 85.0176 168.533 93.613C175.825 102.208 180.196 112.9 181.014 124.142L205.962 122.326Z" fill="#FD226C"/>
  <path d="M59.6031 128C59.6031 136.982 61.3723 145.876 64.8095 154.174C68.2468 162.473 73.2849 170.013 79.6361 176.364C85.9874 182.715 93.5274 187.753 101.826 191.191C110.124 194.628 119.018 196.397 128 196.397L128 175.145C121.809 175.145 115.678 173.926 109.958 171.556C104.239 169.187 99.0413 165.714 94.6635 161.337C90.2857 156.959 86.813 151.762 84.4438 146.042C82.0745 140.322 80.8551 134.191 80.8551 128L59.6031 128Z" fill="#D9D9D9"/>
  <path d="M255.655 118.607C253.625 91.0221 242.715 64.8366 224.557 43.9715C206.399 23.1064 181.971 8.68447 154.93 2.86505L149.544 27.892C171.177 32.5476 190.719 44.0851 205.245 60.7772C219.772 77.4693 228.5 98.4177 230.124 120.486L255.655 118.607Z" fill="#FD226C"/>
  <path d="M0.243968 135.899C2.01458 164.537 13.3564 191.751 32.4489 213.17C51.5413 234.59 77.277 248.973 105.525 254.011L110.02 228.809C87.4216 224.778 66.8331 213.272 51.5591 196.136C36.2851 179.001 27.2117 157.23 25.7952 134.319L0.243968 135.899Z" fill="#9020FF"/>
  <path d="M50.4024 137.425C52.4015 153.884 59.5827 169.282 70.908 181.392C82.2333 193.502 97.116 201.698 113.405 204.793L118.075 180.219C106.999 178.114 96.8787 172.542 89.1775 164.307C81.4762 156.072 76.593 145.601 75.2336 134.409L50.4024 137.425Z" fill="#9020FF"/>
  <circle cx="128" cy="128" r="22.4733" fill="#EBEBEB"/>
  <path d="M196.397 128C196.397 119.018 194.628 110.124 191.19 101.826C187.753 93.5273 182.715 85.9873 176.364 79.636C170.013 73.2848 162.473 68.2467 154.174 64.8094C145.876 61.3722 136.982 59.603 128 59.603V81.49C134.108 81.49 140.156 82.6931 145.799 85.0304C151.441 87.3677 156.569 90.7936 160.887 95.1125C165.206 99.4313 168.632 104.559 170.97 110.201C173.307 115.844 174.51 121.892 174.51 128H196.397Z" fill="#EBEBEB"/>
  <path d="M245.252 128C245.252 112.602 242.219 97.3552 236.327 83.1296C230.434 68.9039 221.797 55.9782 210.91 45.0903C200.022 34.2025 187.096 25.5658 172.87 19.6733C158.645 13.7809 143.398 10.748 128 10.748V34.1984C140.318 34.1984 152.516 36.6247 163.896 41.3386C175.277 46.0526 185.617 52.962 194.328 61.6722C203.038 70.3825 209.947 80.7231 214.661 92.1036C219.375 103.484 221.801 115.682 221.801 128H245.252Z" fill="#EBEBEB"/>
  <path d="M10.7482 128C10.7482 143.398 13.781 158.645 19.6735 172.87C25.5659 187.096 34.2026 200.022 45.0905 210.91C55.9783 221.798 68.9041 230.434 83.1297 236.327C97.3554 242.219 112.602 245.252 128 245.252L128 221.802C115.682 221.802 103.484 219.375 92.1038 214.661C80.7233 209.947 70.3827 203.038 61.6724 194.328C52.9621 185.617 46.0528 175.277 41.3388 163.896C36.6248 152.516 34.1986 140.318 34.1986 128L10.7482 128Z" fill="#EBEBEB"/>
  <path d="M59.6031 128C59.6031 136.982 61.3723 145.876 64.8095 154.174C68.2468 162.473 73.2849 170.013 79.6361 176.364C85.9874 182.715 93.5274 187.753 101.826 191.191C110.124 194.628 119.018 196.397 128 196.397L128 174.51C121.892 174.51 115.844 173.307 110.201 170.97C104.559 168.632 99.4314 165.206 95.1126 160.888C90.7937 156.569 87.3678 151.441 85.0305 145.799C82.6932 140.156 81.4901 134.108 81.4901 128L59.6031 128Z" fill="#EBEBEB"/>
</svg>
