<svg width="256" height="257" viewBox="0 0 256 257" fill="none"
  xmlns="http://www.w3.org/2000/svg">
  <g clip-path="url(#clip0_62_74)">
    <path d="M237.641 1.08789H18.212C8.11305 1.08789 -0.0737305 9.27467 -0.0737305 19.3736V238.802C-0.0737305 248.901 8.11305 257.088 18.212 257.088H237.641C247.74 257.088 255.926 248.901 255.926 238.802V19.3736C255.926 9.27467 247.74 1.08789 237.641 1.08789Z" fill="white"/>
    <path d="M201.066 172.571V197.996L127.925 144.121L54.7833 197.996V172.571L127.925 118.695L201.066 172.571ZM201.066 114.054V139.478L127.925 85.6025L54.7833 139.478V114.054L127.925 60.1777L201.066 114.054Z" fill="#121212"/>
  </g>
  <defs>
    <clipPath id="clip0_62_74">
      <rect width="256" height="256" fill="white" transform="translate(0 0.5)"/>
    </clipPath>
  </defs>
</svg>
