<svg xmlns="http://www.w3.org/2000/svg" width="257" height="108" fill="none" viewBox="0 0 257 108"><path fill="#ae007f" fill-rule="evenodd" d="M236.798 25.111c.526-4.511.881-10.141 2.645-14.015 1.338 4.015 1.788 9.212 4.527 12.235 3.568-.834 7.513-.629 11.174.157-2.198 2.9-6.969 4.858-9.827 6.725 3.441 2.899 5.11 6.277 7 10.292-4.993-.094-9.542-4.434-13.384-6.772-3.316 3.749-5.646 7.393-10.506 8.74 1.749-3.755 5.852-6.985 6.37-10.873-3.891-1.45-8.708-4.552-11.236-7.7 4.015.242 9.228.754 13.237 1.227" clip-rule="evenodd"/><path fill="#97bd00" fill-rule="evenodd" d="M240.939 53.686c.379-3.276.63-7.378 1.915-10.19.975 2.923 1.298 6.684 3.289 8.881 2.568-.604 5.457-.463 8.104.111-1.593 2.087-5.048 3.536-7.11 4.883 2.504 2.094 3.723 4.551 5.07 7.472-3.623-.07-6.937-3.23-9.724-4.907-2.393 2.71-4.094 5.362-7.63 6.34 1.276-2.717 4.259-5.08 4.614-7.89-2.818-1.056-6.315-3.305-8.15-5.591 2.891.181 6.693.552 9.599.89" clip-rule="evenodd"/><path fill="#f07f00" fill-rule="evenodd" d="M228.53 76.244c.262-2.276.441-5.094 1.322-7.039.669 2.016.899 4.614 2.278 6.126 1.778-.417 3.763-.315 5.604.08-1.109 1.448-3.496 2.44-4.919 3.377 1.724 1.457 2.558 3.142 3.495 5.158-2.505-.048-4.781-2.221-6.724-3.402-1.663 1.882-2.836 3.709-5.277 4.394.883-1.883 2.937-3.497 3.189-5.442-1.952-.732-4.37-2.282-5.63-3.873 2.015.117 4.638.377 6.638.613" clip-rule="evenodd"/><path fill="#005cab" fill-rule="evenodd" d="M43.018 74.794c-2.064 0-25.432 22.772-27.708 25.459-1.905 2.117-2.937 6.007-6.205 6.449-3.473.463-4.267-.891-5.938-3.506-1.582-2.479-3.495-6.898-.732-8.692 2.67-1.717 35.78-32.086 36.812-33.322 1.284-1.316-.127-4.568-.74-9.466-.788-6.3-1.19-12.07-.701-18.299.487-6.402 2.015-14.292 3.676-20.496 1.016-3.796.426-11.284 5.709-11.51 1.07.258 9.198 5.88 7.009 13.29-3.165 10.623-6.205 22.566-5.268 33.945.172 2.197 1.063 4.102 2.456 3.094C66.38 41.008 89.852 29.378 95.853 27.307c2.889-.92 5.85-1.646 8.849-2.015 2.151.242 3.78 2.267 5.483 3.7 8.494 7.284-8.009 33.12-9.411 40.985 1.316 0 2.749-2 5.269-4.276a501 501 0 0 0 9.951-9.276c4.709-3.544 8.827-6.795 14.804-7.56 14.378-1.825 10.079 18.882 6.833 26.286 1.851 0 6.378-5.215 10.009-8.655 1.82-1.724 3.842-3.55 5.684-5.251 2.191-2.016 3.205-3.064 4.858-2.252 1.113.314 5.914 3.227 6.182 7.676.228 3.608-1.251 7.142-1.967 10.599-.607 2.896-.458 12.322 3.447 12.338 1.544-1.119 3.56-1.59 5.394-1.905 2.961-.496 2.82.472 5.261 1.377 3.826 1.417.369 6.852-1.647 8.86-2.701 2.692-6.567 4.472-10.441 4.408-4.26-.071-7.606-2.693-9.527-6.378-1.048-2.016-2.4-9.48-2.923-11.692-.518-2.174-.068-4.78-2.376-2.576-6.511 6.284-13.227 12.12-19.851 18.307-7.297 6.814-14.268-2.544-12.943-10.187 1.298-7.473 7.746-16.6 8.905-24.008-3.08 0-8.268 5.376-10.23 7.598-3.189 3.606-6.724 7.599-10.32 11.385-3.625 3.803-6.727 7.307-10.363 11.094-2.623 2.734-5.624 6.622-10.049 6.874-2.18-.345-5.652-3.975-6.242-8.59-.498-3.857.48-8.094 1.95-11.638 4.27-10.244 15.945-31.881 18.679-42.645-5.606.544-29.362 11.528-45.087 24.63-4.551 3.755-.346 10.623 1.553 15.197 2.037 4.89 8.052 13.731 9.848 15.235 4.71 3.915.946 7.372-3.725 7.128-1.983-1.403-4.384-2.923-6.242-4.782-2.024-2.022-3.772-4.33-5.356-6.692-3.227-4.777-6.306-10.3-7.142-16.102M211.98 13.48c-1.33-4.952-7.52 2.607-10.623 6.608-8.583 11.046-16.408 33.534-17.67 37.676-3.842 12.702-5.329 28.356 2.984 39.535 4.835 6.521 13.356 7.015 21.709 4.616 4.308-1.237 8.622-4.332 10.095-7.694 1.22-2.802 1.851-8.014-4.3-4.04-2.378 1.537-6.74 3.23-14.559 3.105-2.621-.048-6.928-3.812-8.085-7.702-2.032-6.34-1.166-14.804-1.166-14.804 1.77-10.93 6.842-22.772 11.291-32.707 1.725-3.836 6.984-13.395 8.954-16.443 0 .008 2.519-3.967 1.39-8.188z" clip-rule="evenodd"/></svg>