<svg width="259" height="256" viewBox="0 0 259 256" fill="none"
  xmlns="http://www.w3.org/2000/svg">
  <g clip-path="url(#clip0_20_711)">
    <path d="M255.513 38.5318L135.959 252.319C133.488 256.733 127.147 256.758 124.643 252.369L2.71597 38.5567C-0.0167814 33.7656 4.07297 27.9692 9.50309 28.937L129.186 50.3265C129.95 50.4659 130.733 50.4659 131.496 50.3265L248.674 28.9703C254.081 27.9858 258.196 33.7344 255.513 38.5318Z" fill="url(#paint0_linear_20_711)"/>
    <path d="M186.193 0.882932L97.7256 18.216C97.0195 18.354 96.3792 18.7226 95.9053 19.2639C95.4314 19.8053 95.1507 20.4887 95.1073 21.2068L89.6606 113.134C89.6313 113.638 89.7198 114.142 89.919 114.606C90.1183 115.07 90.4228 115.481 90.8085 115.807C91.1942 116.133 91.6505 116.365 92.1412 116.484C92.632 116.603 93.1437 116.606 93.6358 116.493L118.27 110.801C118.801 110.679 119.353 110.692 119.877 110.839C120.401 110.986 120.88 111.263 121.27 111.643C121.659 112.023 121.947 112.496 122.106 113.016C122.266 113.536 122.292 114.089 122.183 114.622L114.863 150.46C114.751 151.011 114.784 151.583 114.96 152.117C115.135 152.652 115.446 153.133 115.862 153.511C116.278 153.89 116.786 154.154 117.335 154.278C117.884 154.401 118.456 154.38 118.994 154.217L134.205 149.59C136.563 148.874 138.831 150.947 138.336 153.361L126.701 209.654C125.977 213.176 130.66 215.095 132.612 212.077L133.913 210.062L206.009 66.1817C207.221 63.7674 205.133 61.02 202.492 61.532L177.131 66.4273C176.586 66.5333 176.022 66.4972 175.494 66.3225C174.966 66.1479 174.492 65.8404 174.118 65.4298C173.743 65.0191 173.48 64.519 173.354 63.9775C173.229 63.436 173.244 62.8713 173.4 62.3375L189.946 4.97269C190.102 4.43705 190.116 3.87038 189.989 3.32728C189.862 2.78419 189.597 2.283 189.22 1.87202C188.843 1.46104 188.367 1.15414 187.836 0.980899C187.306 0.807657 186.74 0.773917 186.193 0.882932Z" fill="url(#paint1_linear_20_711)"/>
  </g>
  <defs>
    <linearGradient id="paint0_linear_20_711" x1="-0.26404" y1="21.2978" x2="148.536" y2="223.38" gradientUnits="userSpaceOnUse">
      <stop stop-color="#41D1FF"/>
      <stop offset="1" stop-color="#BD34FE"/>
    </linearGradient>
    <linearGradient id="paint1_linear_20_711" x1="122.318" y1="5.58663" x2="149.236" y2="190.236" gradientUnits="userSpaceOnUse">
      <stop stop-color="#FFEA83"/>
      <stop offset="0.083" stop-color="#FFDD35"/>
      <stop offset="1" stop-color="#FFA800"/>
    </linearGradient>
    <clipPath id="clip0_20_711">
      <rect width="258.081" height="256" fill="#EBEBEB" transform="translate(0 -0.00488281)"/>
    </clipPath>
  </defs>
</svg>
