<svg xmlns="http://www.w3.org/2000/svg" width="256" height="110" fill="none" viewBox="0 0 256 110"><g clip-path="url(#a)"><path fill="url(#b)" d="M240.232 88.467c0 11.556-9.69 21.011-21.534 21.011h-181c-11.843 0-21.533-9.455-21.533-21.01v-66.91c0-11.556 9.69-21.011 21.534-21.011h180.999c11.844 0 21.534 9.455 21.534 21.01z"/><mask id="c" width="256" height="110" x="0" y="0" maskUnits="userSpaceOnUse" style="mask-type:luminance"><path fill="#ebebeb" d="M0 .287h256v109.428H0"/></mask><g mask="url(#c)"><path fill="#faf9f8" fill-rule="evenodd" d="M245.068 40.193c0-8.191 1.262-13.022 1.262-21.842 0-13.653-5.046-18.064-16.188-18.064h-8.199v9.661h2.523c5.676 0 6.937 1.891 6.937 8.822 0 6.51-.631 13.022-.631 20.584 0 9.661 3.154 13.441 9.46 14.911v.63c-6.306 1.47-9.46 5.252-9.46 14.913 0 7.561.631 13.653.631 20.584 0 7.141-1.471 9.03-6.937 9.03v.21h-2.523v10.083h8.199c11.142 0 16.188-4.411 16.188-18.063 0-9.031-1.262-13.652-1.262-21.844 0-4.41 2.733-9.031 10.932-9.45V49.434c-8.199-.21-10.932-4.83-10.932-9.242m-93.131 12.812c-6.518-2.52-12.404-3.99-12.404-8.191 0-3.15 2.522-5.04 7.147-5.04s8.83 1.89 13.456 5.25l8.409-11.131c-5.257-3.99-12.404-8.192-22.075-8.192-14.295 0-23.966 8.192-23.966 19.743 0 10.292 9.04 15.543 16.609 18.484 6.516 2.52 12.824 4.62 12.824 8.82 0 3.151-2.524 5.252-8.199 5.252-5.257 0-10.512-2.1-16.188-6.512l-8.199 12.183c6.306 5.25 15.977 8.82 23.966 8.82 16.819 0 25.858-8.82 25.858-20.372s-9.039-16.383-17.238-19.114m50.875 0c-6.307-2.52-12.193-3.99-12.193-8.191 0-3.15 2.522-5.04 7.147-5.04s8.83 1.89 13.456 5.25l8.408-11.131c-5.256-3.99-12.403-8.192-22.074-8.192-14.296 0-23.966 8.192-23.966 19.743 0 10.292 9.04 15.543 16.608 18.484 6.517 2.52 12.824 4.62 12.824 8.82 0 3.151-2.523 5.252-8.199 5.252-5.256 0-10.512-2.1-16.187-6.512l-8.41 12.183c6.307 5.25 15.978 8.82 23.967 8.82 16.817 0 25.858-8.82 25.858-20.372s-9.041-16.383-17.239-19.114m-124.877-1.05c1.262-8.401 6.307-12.391 12.193-12.391 7.569 0 10.513 5.25 10.513 12.391zm38.682 3.781c.21-17.013-9.04-30.244-26.699-30.244-15.347 0-30.062 12.811-29.642 32.974 0 20.794 13.665 32.975 31.745 32.975 7.568 0 15.977-2.73 22.494-7.14l-6.307-11.132c-4.625 2.73-9.04 3.99-13.665 3.99-8.409 0-14.926-3.99-16.608-13.652h38.052c.21-1.47.63-4.41.63-7.77" clip-rule="evenodd"/></g><mask id="d" width="256" height="110" x="0" y="0" maskUnits="userSpaceOnUse" style="mask-type:luminance"><path fill="#ebebeb" d="M0 .287h256v109.428H0"/></mask><g mask="url(#d)"><path fill="#faf9f8" fill-rule="evenodd" d="M59.225 76.74c-1.471 0-3.364-1.26-3.364-5.252V.288H26.008C14.656.287 9.61 4.697 9.61 18.35c0 9.03 1.262 14.072 1.262 21.842 0 4.411-2.733 9.032-10.932 9.452v10.922c8.199.21 10.932 4.83 10.932 9.241 0 7.772-1.262 12.392-1.262 21.423 0 13.653 5.047 18.064 16.188 18.064h8.199v-9.662h-2.523c-5.255 0-6.937-2.1-6.937-9.031s.63-12.812.63-20.584c0-9.66-3.153-13.442-9.46-14.912v-.63c6.307-1.47 9.46-5.251 9.46-14.912 0-7.562-.63-13.653-.63-20.584s1.471-8.82 6.937-8.82h5.677v60.278c0 12.812 4.415 21.214 17.239 21.214 3.994 0 7.147-.63 9.46-1.47L61.748 76.53c-1.262.21-1.892.21-2.523.21" clip-rule="evenodd"/></g></g><defs><linearGradient id="b" x1="11219.5" x2="11219.5" y1=".547" y2="10893.6" gradientUnits="userSpaceOnUse"><stop stop-color="#2e4f82"/><stop offset="1" stop-color="#182e4d"/></linearGradient><clipPath id="a"><path fill="#ebebeb" d="M0 .287h256v109.427H0z"/></clipPath></defs></svg>
