<svg xmlns="http://www.w3.org/2000/svg" width="257" height="84" fill="none" viewBox="0 0 257 84">
  <g clip-path="url(#a)">
    <path fill="#ebebeb" d="M44.055 82.234 13.07 42.633v39.6H.333V1.068H13.07v38.436L42.885 1.067h14.96L26.777 40.48l33.288 41.754zm19.438 0V23.799h12.033v58.435zm6.017-67.612c-4.03 0-7.188-3.106-7.188-7.07 0-4.031 3.157-7.189 7.188-7.189s7.07 3.09 7.07 7.189c0 3.965-3.105 7.07-7.07 7.07m52.573 67.612V48.798c0-8.871-5.896-15.31-14.021-15.31-8.324 0-14.138 6.296-14.138 15.31v33.436H81.89V23.799h8.878l2.572 7.167h.419l.587-.782c1.96-2.695 7.888-7.791 16.292-7.791 13.972 0 23.359 10.235 23.359 25.468v34.373zm43.28 1.406c-15.069 0-26.874-13.452-26.874-30.624s11.805-30.624 26.874-30.624c8.942 0 15.221 5.518 16.391 7.412q.393.575.698 1.201h.681V1.067h12.033v81.167h-8.876l-2.552-7.284h-.463l-.563.78c-1.512 2.052-7.946 7.91-17.349 7.91m1.407-50.152c-9.329 0-16.365 8.395-16.365 19.528s7.036 19.529 16.365 19.529 16.365-8.396 16.365-19.53c0-11.132-7.036-19.528-16.365-19.528m61.869 50.152c-16.252 0-28.983-13.452-28.983-30.624 0-16.886 12.95-30.624 28.866-30.624 15.595 0 27.812 12.886 27.812 29.335 0 2.162-.225 4.334-.607 5.899h-44.123l.092.505c1.655 9.108 8.103 14.765 16.826 14.765 7.376 0 11.272-3.806 12.995-6.21h12.503c-3.55 8.52-13.257 16.953-25.381 16.953m-.117-50.504c-8.42 0-15.182 6.075-16.826 15.116l-.092.505h33.123l-.079-.496c-1.448-9.047-7.928-15.125-16.126-15.125"/>
  </g>
  <defs>
    <clipPath id="a">
      <path fill="#ebebeb" d="M.333 0h256v84h-256z"/>
    </clipPath>
  </defs>
</svg>
