<svg width="220" height="256" viewBox="0 0 220 256" fill="none"
  xmlns="http://www.w3.org/2000/svg">
  <g clip-path="url(#clip0_20_249)">
    <path fill-rule="evenodd" clip-rule="evenodd" d="M26.749 246.066C26.7957 246.775 26.4625 246.917 25.9322 246.539C24.8066 245.737 23.5449 245.044 22.6347 244.04C18.0714 239 14.7678 233.246 13.2033 226.573C12.5674 223.855 12.5227 221.13 12.7238 218.321C13.1119 212.934 12.7238 207.562 11.2732 202.316C11.1777 201.967 10.9603 201.65 10.5783 200.866L7.81514 204.236L7.48193 204.035C7.56523 196.272 7.29908 188.531 5.91139 180.782L2.85362 188.011L2.34568 187.922C2.12016 186.765 1.86822 185.613 1.67114 184.453C0.519141 177.651 0.326124 170.774 0.706061 163.929C1.29527 153.343 3.04257 142.957 7.97362 133.377C9.3613 130.683 11.0395 128.17 13.2744 125.872C12.1326 126.215 10.9745 126.512 9.85298 126.916C8.6766 127.339 7.53679 127.865 6.13082 128.45C7.59977 124.59 9.55228 121.205 12.0899 118.194C14.5951 115.222 17.2709 112.391 19.9731 109.386L13.7011 107.042L13.2582 106.625C13.693 106.398 14.1684 106.223 14.5544 105.93C20.6781 101.288 27.6856 98.6446 35.0568 96.8038C37.3994 96.2207 36.989 96.6555 37.1536 94.2052C37.4197 90.2392 37.8525 86.2854 38.2162 82.3256L38.5778 82.2951L43.9558 92.5371C43.3707 76.8317 44.5003 61.3641 48.8381 46.2397L49.2059 46.2357C49.2343 46.7416 49.2993 47.2475 49.281 47.7514C49.153 51.0672 49.4761 54.3037 50.8049 57.392C51.7273 59.5375 53.0723 61.299 55.2686 62.638C56.189 53.3691 58.6657 44.596 61.5833 35.6686L65.9556 40.5996C66.6069 34.5103 68.0199 28.5268 70.1613 22.7893L76.3866 30.7213L80.0782 13.2543L82.6992 19.0042C82.5163 28.1369 86.9801 35.1322 93.2399 41.4956L86.3137 44.9943C93.5751 44.403 98.7967 41.8999 102.517 37.2635C103.616 35.5426 104.888 33.907 105.774 32.0825C107.105 29.3478 107.003 29.2726 104.504 27.5964C97.8194 23.1185 93.2887 17.0415 90.8932 9.3676C93.7519 5.69827 97.7179 3.78436 101.852 2.32557L102.381 10.5277C103.488 9.94055 104.282 9.53624 105.063 9.10551C111.926 5.32646 119.234 2.78271 126.91 1.27719C128.387 0.98868 129.878 0.785505 131.368 0.568108C131.536 0.543727 131.733 0.692045 131.916 0.759092L124.74 6.48049C122.117 8.57116 120.033 11.1332 118.222 13.9329L117.968 14.1869L117.964 14.4388C117.706 14.707 117.369 14.9326 117.2 15.2475C115.833 17.8014 114.423 20.335 113.181 22.9519C112.458 24.4757 112.023 26.1356 111.434 27.8057L122.97 28.9049L123.174 29.3458C114.886 36.8084 106.584 44.2567 98.88 52.6418L107.131 53.7714C104.792 54.7284 102.685 55.4557 100.702 56.4289C94.9262 59.2632 89.5238 62.5994 85.6188 67.9307C82.5956 72.0592 79.4525 76.1003 76.3622 80.178C73.9485 77.7602 71.5368 75.3404 69.1089 72.9023L67.2559 81.3605L72.4064 85.9949C72.1341 86.5171 71.8456 87.0311 71.5916 87.5614C69.9825 90.9402 68.2372 94.2621 66.817 97.7181C65.34 101.318 65.0068 105.199 64.7304 109.061C64.4135 113.497 63.9198 117.924 63.7796 122.363C63.6109 127.741 63.5805 133.135 64.4887 138.481C65.2871 143.187 65.8987 147.929 66.8353 152.606C67.4144 155.493 68.4445 158.289 69.2755 161.125L69.6229 161.056L73.0586 154.162L73.4019 154.249C74.6413 160.194 76.4069 165.977 78.9364 171.493C81.4537 176.983 84.353 182.249 88.9184 186.509V179.236L89.4263 179.242C90.3589 179.727 91.2955 180.209 92.2098 180.729C98.6168 184.383 105.268 187.59 112.117 190.327C120.412 193.643 128.672 197.042 136.551 201.276C138.991 202.587 141.445 203.985 143.576 205.728C148.414 209.69 153.057 213.893 157.778 217.999L157.386 218.924C155.84 222.016 154.267 225.094 152.744 228.199C151.399 230.94 150.106 233.705 148.79 236.46L148.449 236.407V226.86C147.906 228.085 147.691 229.324 147.362 230.533C146.032 235.443 144.675 240.345 143.29 245.239C142.869 246.714 141.813 247.563 140.362 248.14C138.664 248.815 137.079 248.6 135.449 248.086L135.464 248.094L134.992 247.876C132.518 246.034 130.045 244.187 127.564 242.35C126.93 241.883 126.264 241.458 125.638 241.031L126.536 250.168L126.059 250.414C115.937 242.163 103.559 238.073 92.3398 231.848C88.6928 229.526 85.0357 227.222 81.405 224.871C80.4358 224.243 79.5541 223.485 78.4163 222.624L78.973 227.12L78.6682 227.333L68.3002 220.216C68.481 218.804 68.7513 217.396 68.8264 215.98C68.9605 213.394 69.2815 210.766 68.9869 208.219C68.2738 202.065 65.0758 197.343 59.9701 193.844C57.8923 192.418 55.8942 190.879 53.9845 189.234C52.9341 188.332 52.1214 187.133 51.8878 185.837L57.8449 186.371C56.0732 183.068 54.3096 180.144 52.9097 177.056C51.5078 173.957 50.1709 170.767 50.3436 166.85C51.3859 168.266 52.0625 169.583 53.6127 170.211C53.0824 164.989 53.8443 160.046 54.6956 155.141C55.5429 150.243 56.7213 145.401 57.7555 140.533C54.145 146.856 50.4615 153.128 49.3542 160.761L46.3736 157.624C46.2436 159.518 45.9937 161.228 46.0323 162.935C46.1176 166.759 46.2619 170.587 46.5321 174.402C46.8389 178.754 48.0275 182.901 49.7463 186.914C51.7049 191.495 55.0614 195.059 58.1699 198.816C60.1468 201.201 61.8393 203.787 62.2883 206.929C62.7739 210.328 63.0928 213.749 63.485 217.162L64.2733 228.711C62.012 229.176 55.6973 227.65 54.3726 226.212L55.4352 225.645C54.2995 224.664 53.0438 223.808 52.0889 222.695C50.6383 221.006 50.3538 218.826 50.0145 216.693C49.9271 216.145 49.4822 215.655 49.2038 215.139C48.6756 215.618 47.9807 216.01 47.6719 216.604C47.4118 217.101 47.4748 217.863 47.617 218.455C47.8791 219.554 48.2144 220.655 48.6715 221.685C50.0511 224.806 51.5464 227.874 52.9118 230.999C54.59 234.833 55.9696 238.756 55.8761 243.031C55.8476 244.284 55.5916 244.52 54.4376 244.059C52.881 243.424 51.3543 242.718 49.8621 241.944C48.6878 241.342 47.5784 240.617 46.2964 239.863V241.21L46.1928 241.298C45.8271 241.113 45.4106 240.989 45.0997 240.735C43.7791 239.656 42.4889 238.536 41.1886 237.433L41.1967 237.443L40.9326 236.915L38.6022 231.116L38.3909 231.97L38.015 232.762C36.2636 229.552 35.3412 226.338 34.8678 222.957C34.0165 225.848 34.9268 228.607 35.3087 231.567L36.0767 230.734C36.7411 232.073 37.3141 233.372 38.013 234.601C38.718 235.84 39.4962 237.043 40.3332 238.197C40.7558 238.784 41.3755 239.229 41.9038 239.737C43.133 242.834 44.4008 245.92 45.0205 249.544L38.3584 247.57C35.6724 246.367 32.9255 245.272 30.7657 243.159C30.6601 243.057 30.4549 243.059 30.2964 243.012L30.1989 242.681L30.1034 242.746L30.2923 243.016L32.5069 247.633L32.3485 247.958L28.8884 246.751L26.749 246.066ZM29.4593 241.891L26.8546 235.607L25.9993 236.19L24.2499 228C22.5737 231.208 25.8652 240.359 29.4593 241.891ZM58.109 139.678L58.0724 139.57L57.981 139.594L58.0176 139.702L58.109 139.678Z" fill="#D3EDF6"/>
    <path fill-rule="evenodd" clip-rule="evenodd" d="M157.785 218.007C153.063 213.901 148.42 209.699 143.583 205.735C141.451 203.992 138.997 202.594 136.557 201.284C128.68 197.052 120.419 193.653 112.123 190.335C105.275 187.597 98.6231 184.39 92.2161 180.737C91.3018 180.217 90.3652 179.735 89.4326 179.25L88.9247 179.244V186.517C84.3593 182.259 81.4621 176.99 78.9427 171.501C76.4132 165.986 74.6476 160.202 73.4082 154.257L73.0649 154.17L69.6292 161.063L69.2817 161.133C68.4528 158.296 67.4207 155.501 66.8416 152.613C65.905 147.936 65.2934 143.194 64.4949 138.489C63.5888 133.143 63.6193 127.749 63.7859 122.371C63.924 117.932 64.4198 113.502 64.7367 109.069C65.013 105.209 65.3463 101.328 66.8233 97.7258C68.2415 94.2698 69.9888 90.9479 71.5979 87.5691C71.8519 87.0368 72.1404 86.5248 72.4127 86.0026L72.9206 86.3765C76.1409 89.0279 79.3937 91.6407 82.5511 94.3673C83.1525 94.8854 83.6035 95.8058 83.7295 96.6063C83.9733 98.1383 83.953 99.7169 84.0058 101.277C84.0932 103.894 84.7718 105.004 87.2403 105.794C95.6721 108.488 104.256 110.012 113.159 108.974C115.638 108.683 117.715 107.746 119.157 105.664C120.433 103.83 121.67 101.97 122.865 100.083C124.228 97.9209 124.598 97.7746 127.097 98.1525C128.223 98.3231 128.588 98.8453 128.562 99.8957C128.521 101.497 128.554 103.1 128.536 104.701C128.497 108.264 130.454 110.304 133.721 111.058C136.504 111.698 139.347 112.169 142.189 112.438C145.789 112.775 149.436 113.1 152.951 111.765C152.092 113.99 151.24 116.217 150.371 118.439C149.989 119.417 149.639 120.416 149.15 121.341C148.435 122.69 148.201 123.899 149.652 124.913L149.914 125.193L149.912 125.187L150.602 126.51C152.232 129.827 154.044 133.072 155.442 136.485C157.644 141.87 158.425 147.577 158.577 153.373C158.827 160.18 157.527 166.708 154.958 172.986C154.211 174.808 153.548 176.816 152.293 178.258C146.64 184.768 139.452 187.724 130.789 186.832L128.292 186.542C128.412 186.795 128.615 187.001 128.867 187.125C134.696 190.516 140.523 193.909 146.358 197.289C146.673 197.472 147.041 197.562 147.382 197.696C148.471 198.653 149.568 199.6 150.649 200.567L155.808 205.205L156.204 205.481C157.951 203.976 159.629 202.456 161.383 201.034C166.57 196.822 172.275 193.48 178.368 190.725C182.816 188.716 187.105 186.349 191.465 184.142C191.719 184.014 191.981 183.894 192.607 183.931L191.048 189.882L190.709 191.08L190.603 191.137L190.65 191.184L190.707 191.078C192.729 190.119 194.809 189.268 196.751 188.171C198.365 187.259 199.813 186.06 201.337 184.991C201.049 185.641 200.813 186.322 200.459 186.936C197.826 191.519 194.307 195.378 190.473 198.966C189.382 199.986 188.206 200.914 186.922 202.011L187.251 196.215C181.631 200.89 176.924 205.912 172.366 211.089L172.025 210.979L171.554 204.183C166.598 208.645 161.702 212.83 157.785 218.007ZM91.0397 114.632C91.1129 115.331 91.125 115.831 91.2226 116.314C91.9134 119.805 93.9004 122.481 96.6392 124.61C102.287 129.007 108.899 131.099 115.825 132.257C122.066 133.302 128.375 132.865 134.661 132.7C134.944 132.694 135.222 132.603 135.763 132.501L134.32 129.48C133.603 128.007 132.847 126.552 132.164 125.063C131.669 123.982 132.004 123.234 133.032 122.523C135.194 121.028 137.244 119.362 139.424 117.702C137.932 116.461 136.086 115.724 134.149 115.595C128.771 115.181 123.381 114.762 117.989 114.673C109.086 114.524 100.179 114.632 91.0397 114.632ZM119.368 151.329L119.866 151.23C120.589 149.771 121.408 148.351 122.012 146.843C122.751 144.99 123.448 143.225 125.531 142.418C126.66 141.981 127.686 141.276 128.757 140.693L128.653 140.295C119.305 140.874 110.148 139.854 100.938 136.878C101.184 140.827 102.186 144.172 103.836 147.536L107.389 143.578C108.507 146.597 109.256 149.537 111.526 152.083L115.872 145.665L119.368 151.329ZM127.713 186.422L127.688 186.347L127.581 186.324L127.611 186.452L127.713 186.422ZM76.3705 80.1837C79.4608 76.104 82.6019 72.0628 85.6271 67.9364C89.5322 62.6051 94.9346 59.2689 100.711 56.4346C102.694 55.4614 104.799 54.7341 107.139 53.7771L98.8883 52.6475C106.593 44.2625 114.894 36.8141 123.182 29.3515L122.979 28.9106L111.443 27.8114C112.034 26.1433 112.467 24.4814 113.19 22.9576C114.431 20.3427 115.841 17.8071 117.209 15.2532C117.377 14.9383 117.715 14.7107 117.973 14.4446C118.399 14.6132 118.814 14.8448 119.257 14.9403C125.516 16.2955 131.78 17.6242 138.038 18.9814C139.745 19.3512 139.771 19.3614 139.771 17.5328V8.11566C141.831 7.55084 143.871 6.88442 145.958 6.4415C150.788 5.40771 155.634 4.44996 160.495 3.56862C162.919 3.13585 165.391 2.98347 168.045 2.67871L162.905 11.5534L163.193 11.7586C165.379 11.1145 167.539 10.3486 169.758 9.86093C171.991 9.36722 174.282 9.15185 176.763 8.78208V12.3905C182.856 11.6326 188.726 11.7606 194.754 12.9045C194.362 13.7009 194.039 14.3247 193.744 14.9626C192.716 17.1773 191.705 19.402 190.67 21.6105C190.23 22.5532 190.451 23.0713 191.495 23.372C193.954 24.0811 196.392 24.8715 198.834 25.6415C199.309 25.7919 199.769 25.993 200.427 26.2429C199.37 27.531 198.357 28.681 197.438 29.9021C194.836 33.352 192.269 36.8303 189.701 40.3066C189.559 40.4997 189.527 40.7719 189.441 41.0096L184.262 49.0797C182.682 51.7657 181.095 54.4496 179.534 57.1478C179.421 57.3449 179.5 57.6517 179.492 57.9097C178.718 59.0373 177.828 60.104 177.188 61.3027C174.179 66.955 171.145 72.6012 168.299 78.3348C165.509 83.9567 162.929 89.6801 160.271 95.3649C160.113 95.7022 160.072 96.0903 159.977 96.456L147.138 93.831C145.734 91.913 143.648 91.7403 142.055 93.4104C138.477 93.5242 134.899 93.7009 131.319 93.7273C129.482 93.7416 127.595 93.7111 125.813 93.3169C120.307 92.1019 114.842 90.7021 109.358 89.3753C108.454 87.1811 105.311 86.8438 103.769 88.2315L103.391 88.2193C96.5965 87.0632 89.776 86.2647 82.8619 86.5431C82.5409 86.5553 82.1224 86.346 81.8908 86.1042C80.0337 84.1477 78.2072 82.1606 76.3705 80.1837ZM99.7335 84.1375L100.41 83.8449C103.332 82.315 106.363 81.3946 109.709 82.0732C110.358 82.2053 111.028 82.2398 111.808 82.3333C109.844 79.3365 104.894 79.0703 102.149 80.8522C100.953 81.6283 99.8006 82.4999 99.7335 84.1375ZM112.32 77.4145C111.142 74.5903 107.426 73.1925 104.098 74.1088C101.306 74.8748 98.675 77.8655 98.9676 80.1939C102.694 75.9841 107.198 75.6062 112.32 77.4145ZM149.032 82.8026C152.663 83.1419 155.812 84.3386 158.061 87.5285C158.223 84.8913 157.197 83.3431 155.062 82.1748C153.063 81.0797 150.633 81.3845 149.032 82.8026ZM155.434 92.937C155.127 89.9991 154.209 87.626 151.285 86.7889C149.782 86.3582 148.26 86.604 146.984 87.819C150.812 88.8715 152.165 88.9913 155.434 92.937Z" fill="#E9F5FA"/>
    <path fill-rule="evenodd" clip-rule="evenodd" d="M158.577 153.368C158.423 147.572 157.645 141.864 155.442 136.48C154.044 133.067 152.232 129.822 150.603 126.504L149.912 125.182C151.153 125.556 152.386 125.958 153.638 126.293C155.46 126.783 157.279 127.348 159.138 127.632C160.129 127.784 161.204 127.427 162.236 127.27C162.635 127.209 163.021 127.069 163.638 126.907L163.136 129.392C167.285 127.463 170.288 124.499 172.716 121.029C175.134 117.571 177.202 113.869 179.38 110.338L180.353 111.977C182.107 109.235 180.898 101.134 178.005 96.3127C178.74 96.3127 179.348 96.27 179.947 96.3188C183.753 96.6276 187.633 96.591 191.075 98.6309C193.804 100.246 195.752 102.538 197.058 105.563L194.145 105.401C197.048 110.1 198.166 114.966 197.711 120.535L195.466 118.751C195.358 119.284 195.281 119.832 195.132 120.36C194.683 121.939 194.19 123.504 193.755 125.086C193.639 125.509 193.674 125.97 193.639 126.413C194.11 126.425 194.63 126.576 195.047 126.427C197.426 125.582 199.779 124.664 202.142 123.776C203.127 123.406 204.131 123.081 205.104 122.681C206.132 122.258 206.514 122.624 206.443 123.66C203.767 124.593 201.087 125.521 198.416 126.466C198.074 126.588 197.761 126.797 197.436 126.966C200.821 126.59 202.164 126.769 203.895 127.977C205.155 128.857 205.338 129.952 204.218 131.023C203.349 131.854 202.306 132.512 201.299 133.183C200.695 133.587 200.011 133.87 199.173 134.306L200.336 134.747C198.491 135.958 196.715 137.002 195.079 138.232C193.046 139.762 191.004 141.322 189.2 143.104C187.761 144.524 188.2 145.515 190.213 145.678C192.682 145.877 195.167 145.885 197.644 145.971L199.234 145.973L198.06 147.49L198.001 147.588L198.052 147.484C198.98 147.484 199.921 147.574 200.831 147.448C201.404 147.366 202.209 147.096 202.424 146.667C202.89 145.737 203.641 145.621 204.462 145.467C206.067 145.164 207.68 144.896 209.273 144.536C210.547 144.248 211.799 143.845 213.058 143.494L213.245 143.758L210.425 146.385L210.003 144.837C205.529 146.893 201.11 148.756 196.859 150.948C194.809 152.007 193.08 153.685 191.205 155.085L191.101 155.203L191.219 155.101L192.42 155.187L187.721 159.151C188.47 159.803 189.072 160.66 189.878 160.953C191.396 161.505 193.017 161.934 194.622 162.05C197.042 162.223 199.484 162.082 201.916 162.074L201.979 161.542L200.076 160.76L209.775 159.591C203.158 163.663 195.52 163.234 188.204 164.462C188.216 166.44 189.874 167.373 190.935 168.732L190.144 169.386L192.44 171.313C192.877 171.999 192.475 172.048 191.908 172.076C187.686 172.288 183.6 171.573 179.683 170.065C177.296 169.147 175.014 167.954 172.679 166.898C172.46 166.798 172.198 166.792 171.954 166.741L171.918 166.648L171.844 166.627L171.948 166.747L172.964 169.027C171.619 168.773 170.282 168.385 168.927 168.293C165.784 168.082 162.809 168.952 159.884 169.998L158.811 170.321C158.896 169.238 159.049 168.153 159.051 167.068C159.061 162.665 159.03 158.265 158.99 153.862C158.992 153.699 158.721 153.533 158.577 153.368Z" fill="#B3E0EE"/>
    <path fill-rule="evenodd" clip-rule="evenodd" d="M157.784 218.006C161.702 212.831 166.598 208.644 171.552 204.182L172.023 210.978L172.364 211.088C176.921 205.913 181.629 200.889 187.249 196.214L186.92 202.01C188.204 200.913 189.38 199.985 190.471 198.965C194.305 195.377 197.824 191.518 200.457 186.935C200.809 186.321 201.046 185.64 201.335 184.99L201.585 184.978L201.623 185.011C200.776 187.776 200.018 190.571 199.061 193.298C196.965 199.263 192.997 204.133 189.587 209.343C186.158 214.587 183.017 220.02 179.77 225.383C179.518 225.8 179.443 226.322 179.286 226.795L179.187 226.942L179.321 226.83C180.81 226.06 182.295 225.282 183.789 224.52C185.164 223.817 186.55 223.13 188.153 222.651L187.135 224.571C183.579 231.42 180.063 238.289 176.452 245.11C175.014 247.828 173.413 250.463 171.787 253.074C171.507 253.527 170.729 253.915 170.178 253.917C162.959 253.96 155.741 253.803 148.526 253.958C143.304 254.068 139.34 251.617 135.622 248.421L135.449 248.098C137.081 248.612 138.666 248.828 140.362 248.153C141.813 247.576 142.869 246.727 143.29 245.252C144.676 240.358 146.033 235.456 147.362 230.546C147.691 229.337 147.906 228.096 148.449 226.873V236.42L148.79 236.473C150.106 233.718 151.399 230.95 152.744 228.212C154.267 225.107 155.84 222.029 157.386 218.937L157.784 218.006Z" fill="#65C1DD"/>
    <path fill-rule="evenodd" clip-rule="evenodd" d="M68.3064 220.224L78.6744 227.341L78.9791 227.128L78.4224 222.632C79.5602 223.493 80.442 224.251 81.4111 224.879C85.0419 227.228 88.699 229.534 92.346 231.856L84.5969 233.967C93.6362 237.837 101.792 243.293 105.711 253.62C103.047 253.797 100.619 254.006 98.1873 254.114C92.9596 254.341 87.7319 254.557 82.5022 254.703C74.9502 254.914 67.3962 255.056 59.8442 255.235C57.6499 255.286 55.4556 255.331 53.2654 255.418C49.7748 255.556 47.0381 254.213 45.0368 251.353C44.8011 251.013 44.5207 250.706 44.1896 250.294L41.7718 251.972C40.3394 250.753 39.1122 249.365 38.3666 247.582L45.0287 249.556C44.409 245.932 43.1412 242.846 41.912 239.749L41.1968 237.445C42.4971 238.548 43.7873 239.666 45.1079 240.747C45.4188 241.001 45.8332 241.127 46.201 241.31L46.3757 241.588L46.3046 241.222V239.875C47.5866 240.629 48.696 241.354 49.8703 241.956C51.3624 242.73 52.8892 243.436 54.4458 244.071C55.5998 244.532 55.8558 244.294 55.8843 243.043C55.9778 238.768 54.5962 234.843 52.92 231.011C51.5526 227.884 50.0572 224.818 48.6797 221.697C48.2309 220.655 47.878 219.573 47.6252 218.467C47.4851 217.873 47.42 217.114 47.6801 216.616C47.9889 216.022 48.6838 215.632 49.212 215.151C49.4924 215.667 49.9353 216.159 50.0227 216.705C50.362 218.839 50.6464 221.019 52.0971 222.707C53.052 223.818 54.3077 224.674 55.4434 225.657L54.3808 226.224C55.7055 227.662 62.0202 229.188 64.2815 228.723L63.4932 217.175L64.2531 217.567C65.6042 218.444 66.9532 219.336 68.3064 220.224Z" fill="#65C2DD"/>
    <path fill-rule="evenodd" clip-rule="evenodd" d="M192.446 171.313L190.151 169.387L190.941 168.733C189.882 167.374 188.224 166.441 188.21 164.462C195.529 163.235 203.164 163.664 209.781 159.592L200.082 160.76L201.985 161.542L201.922 162.075C199.49 162.083 197.048 162.223 194.629 162.05C193.023 161.935 191.402 161.506 189.884 160.953C189.078 160.659 188.478 159.803 187.727 159.151L192.426 155.187L191.225 155.102L191.211 155.086C193.084 153.688 194.813 152.007 196.865 150.951C201.114 148.759 205.535 146.896 210.009 144.839L210.431 146.388L213.252 143.761L213.065 143.496C211.803 143.848 210.553 144.25 209.279 144.539C207.687 144.898 206.073 145.167 204.468 145.469C203.647 145.624 202.896 145.742 202.43 146.67C202.215 147.099 201.413 147.369 200.838 147.45C199.927 147.578 198.987 147.487 198.058 147.487L198.066 147.493L199.241 145.975L197.65 145.973C195.173 145.888 192.688 145.88 190.22 145.681C188.208 145.518 187.769 144.529 189.206 143.106C191.01 141.323 193.05 139.762 195.086 138.234C196.721 137.005 198.497 135.961 200.342 134.75L199.18 134.309C200.017 133.872 200.701 133.59 201.305 133.185C202.313 132.513 203.355 131.855 204.224 131.026C205.344 129.955 205.161 128.862 203.901 127.98C202.17 126.771 200.827 126.594 197.443 126.968C197.77 126.8 198.08 126.59 198.422 126.468C201.094 125.524 203.773 124.595 206.449 123.663C208.635 123.75 210.844 123.667 212.998 123.969C215.96 124.386 217.536 126.692 219.164 128.837L218.987 129.16L216.009 128.202C217.776 131.221 219.363 134.057 219.473 137.55C219.245 137.424 219.04 137.375 218.942 137.243C218.819 137.076 218.78 136.847 218.63 136.442C217.809 138.411 217.419 140.103 216.488 141.412C214.92 143.622 214.985 145.544 216.155 147.934C216.992 149.643 217.027 151.745 217.419 153.674L216.927 153.869L215.671 152.324C215.515 154.976 215.482 157.359 214.178 159.529L213.607 158.219C212.677 159.076 211.75 159.854 210.933 160.734C210.71 160.974 210.708 161.54 210.783 161.922C211.21 164.135 211.943 166.325 211.11 168.666L210.143 168.215C208.788 171.187 206.342 172.697 203.308 173.032C200.013 173.396 196.77 172.815 193.651 171.638C193.259 171.494 192.847 171.421 192.446 171.313Z" fill="#EBF7FE"/>
    <path fill-rule="evenodd" clip-rule="evenodd" d="M147.141 93.8276L159.979 96.4526L161.056 96.8062C161.936 97.0926 162.261 97.7103 161.997 98.5718C161.665 99.6547 161.355 100.762 160.855 101.77C160.585 102.318 160.014 102.855 159.453 103.09C158.48 103.501 157.905 104.141 157.478 105.071C156.885 106.368 156.285 107.684 155.491 108.863C154.78 109.919 153.809 110.801 152.951 111.762C149.436 113.097 145.789 112.772 142.189 112.434C139.339 112.163 136.51 111.702 133.721 111.055C130.456 110.301 128.497 108.261 128.536 104.697C128.554 103.096 128.522 101.493 128.562 99.8924C128.589 98.842 128.223 98.3198 127.097 98.1492C124.6 97.7712 124.231 97.9155 122.865 100.079C121.67 101.966 120.434 103.827 119.157 105.661C117.715 107.743 115.64 108.682 113.16 108.97C104.259 110.006 95.6744 108.483 87.2406 105.791C84.772 105 84.0955 103.891 84.0061 101.274C83.9532 99.7136 83.9736 98.137 83.7298 96.603C83.6038 95.8045 83.1527 94.8841 82.5513 94.364C79.394 91.6374 76.1412 89.0246 72.9209 86.3732L72.4129 85.9993L67.2625 81.3649L69.1154 72.9067L76.3687 80.1824C78.2054 82.1593 80.032 84.1464 81.8931 86.1009C82.1247 86.3427 82.5412 86.554 82.8642 86.5398C89.7762 86.2614 96.5988 87.0578 103.393 88.2159L103.771 88.2281L109.36 89.372C114.842 90.6987 120.309 92.0986 125.815 93.3136C127.595 93.7078 129.485 93.7382 131.321 93.724C134.899 93.6976 138.477 93.5208 142.057 93.4071L147.141 93.8276ZM101.024 90.398C97.2835 90.1827 93.5431 89.8942 89.7986 89.7865C88.2951 89.7438 87.4458 90.6012 87.267 92.0885C86.9464 94.7257 86.6998 97.3714 86.5275 100.022C86.3588 102.721 86.623 103.05 89.2297 103.932C96.4302 106.366 103.86 107.14 111.422 107.014C114.186 106.969 116.219 105.738 117.603 103.48C118.747 101.617 119.72 99.6466 120.671 97.6758C121.498 95.961 121.24 95.1808 119.403 94.5773C116.609 93.657 113.741 92.9621 110.904 92.1697L101.024 90.398ZM142.677 95.8005L142.636 96.0768C141.202 96.0768 139.763 96.0158 138.333 96.0951C137.075 96.1641 135.82 96.347 134.576 96.5583C132.941 96.8366 131.898 97.7997 131.74 99.4881C131.571 101.246 131.429 103.015 131.433 104.779C131.439 107.851 132 108.529 134.95 109.24C139.158 110.252 143.433 110.655 147.754 110.449C148.798 110.401 149.839 110.165 150.873 109.968C152.242 109.706 153.226 108.978 153.788 107.637C154.796 105.23 155.934 102.877 156.919 100.463C157.74 98.4519 157.539 97.9257 155.428 97.5762C151.194 96.8732 146.929 96.3795 142.677 95.8005Z" fill="#515053"/>
    <path fill-rule="evenodd" clip-rule="evenodd" d="M102.527 37.2641C98.8073 41.9005 93.5857 44.4036 86.3242 44.9949L93.2505 41.4962C86.9907 35.1348 82.5269 28.1375 82.7098 19.0048C83.0267 13.3992 84.7415 8.27716 87.9964 3.68745C88.3093 3.24656 88.7034 2.86256 89.0569 2.45215L89.2561 2.54561L89.2703 3.03932C89.0468 3.4091 88.7095 3.75247 88.6181 4.15069C87.3462 9.70751 87.3645 15.242 89.1829 20.685C91.1537 26.5832 94.8718 31.2176 99.748 34.9885C100.697 35.724 101.603 36.5062 102.527 37.2641Z" fill="#4F4E51"/>
    <path fill-rule="evenodd" clip-rule="evenodd" d="M158.577 153.369C158.723 153.536 158.993 153.7 158.993 153.867C159.036 158.268 159.064 162.67 159.054 167.073C159.052 168.158 158.898 169.241 158.815 170.326C157.884 174.158 157.151 178.049 155.976 181.803C154.156 187.633 151.141 192.881 147.384 197.696C147.043 197.564 146.673 197.474 146.36 197.289C140.525 193.907 134.698 190.516 128.869 187.125C128.617 187 128.415 186.795 128.294 186.541C129.127 186.639 129.956 186.747 130.791 186.832C139.454 187.724 146.642 184.766 152.295 178.258C153.548 176.815 154.213 174.808 154.96 172.986C157.526 166.703 158.827 160.175 158.577 153.369Z" fill="#66C2DD"/>
    <path fill-rule="evenodd" clip-rule="evenodd" d="M139.771 8.11453V17.5317C139.771 19.3602 139.745 19.3521 138.038 18.9803C131.78 17.6231 125.517 16.2943 119.257 14.9392C118.814 14.8437 118.401 14.6121 117.973 14.4434L117.977 14.1915L118.231 13.9375C120.041 11.1378 122.126 8.57573 124.749 6.48507L131.925 0.763672C131.912 1.18628 131.988 1.63935 131.868 2.03148C131.311 3.82145 130.697 5.5972 129.988 7.73053C133.467 6.43427 136.494 4.84139 139.773 4.29281L139.771 8.11453Z" fill="#EBF7FD"/>
    <path fill-rule="evenodd" clip-rule="evenodd" d="M102.527 37.2642C101.603 36.5064 100.697 35.7242 99.7519 34.9907C94.8777 31.2218 91.1576 26.5854 89.1868 20.6872C87.3663 15.2442 87.3481 9.70969 88.622 4.15287C88.7134 3.75261 89.0507 3.40925 89.2742 3.0415L90.9036 9.36836C93.299 17.0423 97.8298 23.1192 104.514 27.5972C107.015 29.2713 107.117 29.3465 105.784 32.0833C104.898 33.9058 103.626 35.5433 102.527 37.2642Z" fill="#737F84"/>
    <path fill-rule="evenodd" clip-rule="evenodd" d="M179.494 57.9061C179.504 57.6501 179.423 57.3413 179.537 57.1442C181.097 54.4461 182.684 51.7642 184.264 49.0762C187.015 48.5134 189.811 48.1152 192.505 47.3533C198.491 45.6608 203.785 42.7249 208.018 38.058C208.521 37.5033 209.05 36.9731 209.568 36.4326C207.418 42.5279 204.202 47.9668 199.529 52.4692C195.073 56.7623 189.582 58.2942 183.533 58.1682C182.186 58.1418 180.841 57.9976 179.494 57.9061Z" fill="#4F4E51"/>
    <path fill-rule="evenodd" clip-rule="evenodd" d="M209.568 36.4348C209.05 36.9752 208.519 37.5055 208.018 38.0602C203.785 42.7271 198.493 45.663 192.505 47.3554C189.811 48.1173 187.013 48.5155 184.264 49.0783L189.443 41.0082C196.77 42.1907 203.204 39.9416 209.161 35.8639L210.007 35.3315L209.568 36.4348Z" fill="#737F84"/>
    <path fill-rule="evenodd" clip-rule="evenodd" d="M201.587 184.977L201.644 184.623L201.758 184.656L201.626 185.009L201.587 184.977Z" fill="#65C1DD"/>
    <path fill-rule="evenodd" clip-rule="evenodd" d="M89.0591 2.45367L89.183 2.31348L89.2582 2.54916L89.0591 2.45367Z" fill="#737F84"/>
    <path fill-rule="evenodd" clip-rule="evenodd" d="M68.3065 220.225L64.2491 217.561L63.4892 217.169C63.0971 213.756 62.7781 210.334 62.2925 206.935C61.8435 203.794 60.1511 201.207 58.1742 198.822C55.0636 195.066 51.7092 191.502 49.7506 186.92C48.0337 182.908 46.8431 178.761 46.5363 174.409C46.2783 170.591 46.1116 166.767 46.0365 162.942C45.9979 161.237 46.2478 159.524 46.3779 157.631L49.3584 160.768C50.4657 153.134 54.1493 146.862 57.7597 140.54C56.7255 145.408 55.5492 150.249 54.6999 155.148C53.8506 160.052 53.0867 164.996 53.617 170.217C52.0667 169.589 51.3881 168.273 50.3479 166.857C50.1772 170.774 51.5121 173.964 52.914 177.062C54.3118 180.15 56.0774 183.072 57.8491 186.378L51.892 185.843C52.1236 187.14 52.9384 188.338 53.9888 189.241C55.8994 190.884 57.8975 192.423 59.9743 193.851C65.0801 197.351 68.2781 202.071 68.9912 208.225C69.2858 210.773 68.9648 213.4 68.8307 215.986C68.7575 217.405 68.4873 218.813 68.3065 220.225ZM41.1928 237.444L41.908 239.748C41.3777 239.24 40.7601 238.793 40.3375 238.208C39.4993 237.052 38.7247 235.851 38.0172 234.611C37.3203 233.382 36.7453 232.084 36.081 230.745L35.313 231.578C34.931 228.618 34.0187 225.861 34.8721 222.967C35.3455 226.348 36.2699 229.563 38.0193 232.773L38.3951 231.98L38.6064 231.127L40.9368 236.926L41.201 237.454L41.1928 237.444Z" fill="#B3E0EE"/>
    <path fill-rule="evenodd" clip-rule="evenodd" d="M29.4597 241.891C25.8655 240.361 22.5741 231.21 24.2503 228L25.9996 236.19L26.855 235.607L29.4597 241.891Z" fill="#B4E1EE"/>
    <path fill-rule="evenodd" clip-rule="evenodd" d="M58.1092 139.679L58.0178 139.703L57.9812 139.596L58.0726 139.571L58.1092 139.679Z" fill="#B3E0EE"/>
    <path fill-rule="evenodd" clip-rule="evenodd" d="M91.0397 114.631C100.178 114.631 109.086 114.523 117.991 114.672C123.381 114.761 128.771 115.18 134.151 115.594C136.088 115.722 137.934 116.459 139.426 117.701C137.244 119.361 135.196 121.027 133.034 122.522C132.008 123.233 131.673 123.981 132.166 125.062C132.849 126.551 133.605 128.006 134.322 129.479L135.764 132.5C135.224 132.602 134.946 132.693 134.663 132.699C128.375 132.864 122.068 133.299 115.827 132.256C108.899 131.1 102.289 129.006 96.6412 124.609C93.9024 122.48 91.9154 119.804 91.2246 116.313C91.125 115.832 91.1128 115.33 91.0397 114.631Z" fill="#4F4E51"/>
    <path fill-rule="evenodd" clip-rule="evenodd" d="M119.369 151.329L115.87 145.664L111.524 152.083C109.254 149.537 108.505 146.597 107.387 143.578L103.834 147.535C102.184 144.171 101.182 140.829 100.937 136.877C110.146 139.851 119.304 140.873 128.652 140.294L128.755 140.693C127.682 141.278 126.656 141.981 125.529 142.418C123.446 143.222 122.747 144.99 122.01 146.843C121.406 148.35 120.588 149.77 119.864 151.229L119.369 151.329Z" fill="#D3EDF6"/>
    <path fill-rule="evenodd" clip-rule="evenodd" d="M127.713 186.421L127.611 186.451L127.581 186.323L127.688 186.346L127.713 186.421Z" fill="#66C2DD"/>
    <path fill-rule="evenodd" clip-rule="evenodd" d="M112.32 77.414C107.198 75.6078 102.694 75.9857 98.9678 80.1914C98.6752 77.8631 101.306 74.8744 104.098 74.1064C107.426 73.19 111.142 74.5899 112.32 77.414ZM99.7317 84.1351C99.8008 82.4995 100.953 81.6279 102.147 80.8518C104.892 79.0699 109.842 79.3361 111.806 82.3329C111.026 82.2394 110.358 82.2049 109.708 82.0728C106.363 81.3942 103.33 82.3126 100.408 83.8445L99.7317 84.1351ZM149.032 82.8022C150.631 81.382 153.063 81.0773 155.062 82.1744C157.198 83.3427 158.222 84.8909 158.061 87.5281C155.814 84.3382 152.665 83.1415 149.032 82.8022Z" fill="#D4EDF6"/>
    <path fill-rule="evenodd" clip-rule="evenodd" d="M155.434 92.9365C152.165 88.9909 150.812 88.871 146.984 87.8165C148.26 86.6016 149.782 86.3557 151.285 86.7864C154.209 87.6256 155.127 89.9986 155.434 92.9365Z" fill="#CDEBF4"/>
    <path fill-rule="evenodd" clip-rule="evenodd" d="M198.054 147.484L198.003 147.588L198.062 147.49L198.054 147.484ZM191.223 155.099L191.105 155.201L191.209 155.083L191.223 155.099Z" fill="#EBF7FE"/>
    <path fill-rule="evenodd" clip-rule="evenodd" d="M46.3005 241.218L46.3716 241.584L46.1969 241.306L46.3005 241.218Z" fill="#D3EDF6"/>
    <path fill-rule="evenodd" clip-rule="evenodd" d="M110.906 92.1705C113.743 92.9629 116.611 93.6578 119.405 94.5782C121.242 95.1816 121.5 95.9618 120.673 97.6766C119.724 99.6474 118.749 101.618 117.605 103.481C116.219 105.739 114.188 106.97 111.424 107.014C103.86 107.14 96.4321 106.366 89.2316 103.932C86.6249 103.051 86.3607 102.721 86.5294 100.023C86.696 97.3738 86.954 94.7265 87.2689 92.0893C87.4477 90.602 88.295 89.7426 89.8005 89.7873C93.545 89.897 97.2854 90.1835 101.026 90.3989L99.9958 93.6232C99.0639 95.9396 98.8974 98.4933 99.5204 100.911C100.181 103.54 102.464 104.936 104.846 104.306C107.011 103.733 109.384 100.895 109.61 98.6051C110.725 96.6018 110.87 94.3973 110.906 92.1705Z" fill="#E8F4F8"/>
    <path fill-rule="evenodd" clip-rule="evenodd" d="M142.676 95.8018C146.929 96.3808 151.194 96.8725 155.424 97.5755C157.535 97.9249 157.736 98.4512 156.915 100.463C155.93 102.876 154.792 105.229 153.784 107.637C153.223 108.98 152.24 109.707 150.868 109.967C149.836 110.164 148.794 110.4 147.75 110.449C143.446 110.656 139.135 110.249 134.946 109.24C131.996 108.529 131.433 107.85 131.429 104.778C131.425 103.012 131.569 101.245 131.735 99.4873C131.896 97.799 132.936 96.8359 134.572 96.5576C135.815 96.3463 137.071 96.1634 138.328 96.0943C139.759 96.0151 141.197 96.076 142.632 96.076L142.676 95.8018ZM148.319 101.107C148.107 101.554 148.01 101.869 147.829 102.123C147.035 103.254 146.366 104.528 145.377 105.457C143.245 107.454 140.592 106.859 139.391 104.197C138.914 103.134 138.666 101.966 138.3 100.812C138.026 103.864 138.322 106.011 139.214 107.513C140.112 109.024 141.372 109.61 143.042 109.291C146.017 108.724 148.55 104.9 148.319 101.107ZM139.986 100.53L139.743 100.761C140.244 101.393 140.624 102.301 141.277 102.584C142.185 102.978 142.766 102.088 143.19 101.342C143.373 101.012 143.498 100.654 143.56 100.282C143.767 99.0688 143.219 97.8091 142.429 97.5958C141.565 97.3642 140.535 98.2439 140.171 99.5463L139.986 100.53Z" fill="#ECF5F9"/>
    <path fill-rule="evenodd" clip-rule="evenodd" d="M99.9938 93.625C100.093 95.0899 100.049 96.5812 100.329 98.0095C100.666 99.7162 101.522 101.173 103.385 101.687C105.25 102.203 106.768 101.51 108.086 100.248C108.625 99.7345 109.102 99.1574 109.608 98.6089C109.382 100.899 107.009 103.737 104.844 104.31C102.462 104.94 100.179 103.544 99.5184 100.915C98.8942 98.4965 99.0608 95.9418 99.9938 93.625ZM148.319 101.106C148.55 104.899 146.017 108.723 143.044 109.288C141.374 109.607 140.117 109.022 139.217 107.51C138.325 106.008 138.028 103.861 138.302 100.809C138.666 101.963 138.914 103.132 139.393 104.194C140.594 106.856 143.248 107.453 145.379 105.454C146.368 104.525 147.037 103.251 147.831 102.12C148.01 101.868 148.108 101.553 148.319 101.106Z" fill="#778287"/>
    <path fill-rule="evenodd" clip-rule="evenodd" d="M139.986 100.53L140.171 99.5485C140.537 98.2462 141.567 97.3664 142.429 97.5981C143.217 97.8114 143.767 99.0711 143.56 100.284C143.498 100.656 143.373 101.015 143.19 101.345C142.768 102.09 142.185 102.98 141.277 102.586C140.624 102.304 140.242 101.393 139.743 100.764L139.986 100.53ZM101.688 95.6781C101.743 94.268 102.688 93.0916 103.766 93.0835C104.673 93.0774 105.426 94.1725 105.374 95.418C105.313 96.8077 104.234 98.1019 103.165 98.0613C102.206 98.0247 101.631 97.1003 101.688 95.6781Z" fill="#1C1C1C"/>
  </g>
  <defs>
    <clipPath id="clip0_20_249">
      <rect width="220" height="256" fill="#EBEBEB"/>
    </clipPath>
  </defs>
</svg>
