<svg width="255" height="256" viewBox="0 0 255 256" fill="none"
  xmlns="http://www.w3.org/2000/svg">
  <g clip-path="url(#clip0_20_386)">
    <path d="M95.402 127.784C95.402 111.004 109.273 97.2361 126.177 97.2361C143.081 97.2361 156.952 111.004 156.952 127.784C156.952 144.564 143.081 158.332 126.177 158.332C108.838 158.332 95.402 144.994 95.402 127.784ZM126.177 -0.000976562C65.9276 -0.000976562 15.2143 40.873 0.910645 96.3755V97.6663C0.910645 101.108 3.51133 103.689 6.9789 103.689H58.9925C61.5932 103.689 63.7604 102.399 64.6273 100.248C75.4634 77.0142 98.8696 61.0948 126.177 61.0948C163.453 61.0948 193.795 91.2125 193.795 128.214C193.795 165.216 163.453 195.334 126.177 195.334C98.8696 195.334 75.4634 179.415 64.6273 156.181C63.7604 154.03 61.5932 152.739 58.9925 152.739H6.9789C3.51133 152.308 0.910645 154.89 0.910645 158.332V159.622C15.2143 215.125 65.9276 255.999 126.177 255.999C197.262 255.999 254.911 198.775 254.911 128.214C254.911 57.2226 197.262 -0.000976562 126.177 -0.000976562Z" fill="#EBEBEB"/>
  </g>
  <defs>
    <clipPath id="clip0_20_386">
      <rect width="254" height="256" fill="#EBEBEB" transform="translate(0.910645 -0.000976562)"/>
    </clipPath>
  </defs>
</svg>
