<svg width="257" height="152" viewBox="0 0 257 152" fill="none" xmlns="http://www.w3.org/2000/svg">
<g clip-path="url(#clip0_20_356)">
<path d="M256.24 145.972C246.976 148.329 241.246 146.074 236.106 138.353C224.565 121.063 211.826 104.565 199.534 87.7624C197.95 85.5885 196.304 83.4551 194.252 80.7529C179.705 100.38 165.178 119.072 151.545 138.515C146.668 145.464 141.548 148.491 132.446 146.033L187.141 72.6259L136.225 6.33004C144.982 4.62338 151.037 5.49703 156.4 13.3396C168.245 30.65 181.31 47.1275 194.333 64.5599C207.438 47.1885 220.339 30.6907 232.53 13.5427C237.426 6.59417 242.689 3.9529 251.486 6.5129C244.822 15.351 238.3 24.0469 231.738 32.6818C222.879 44.3237 214.183 56.1078 205 67.5059C201.729 71.5694 202.257 74.2107 205.183 78.0507C222.168 100.38 238.95 122.932 256.24 145.972ZM1.58134 71.4069C3.0442 64.0723 4.01944 56.5954 6.05118 49.4031C18.2417 5.86274 68.2226 -12.2401 102.559 14.7415C122.673 30.5688 127.671 52.8774 126.676 78.0304H13.3045C11.5978 123.155 44.0855 150.401 85.4925 136.504C100.019 131.628 108.573 120.25 112.86 106.028C115.034 98.8964 118.63 97.7789 125.335 99.8107C121.901 117.609 114.12 132.481 97.8658 141.787C73.4848 155.724 38.681 151.214 20.375 131.851C9.5661 120.474 4.97436 106.312 2.94261 91.0132C2.63785 88.5751 2.00801 86.1777 1.52039 83.7599C1.56102 79.6422 1.58134 75.5246 1.58134 71.4069ZM13.5077 68.3796H115.969C115.298 35.7497 94.9807 12.5675 67.2067 12.3643C36.7305 12.1205 14.8283 34.7542 13.5077 68.3796Z" fill="white"/>
</g>
<defs>
<clipPath id="clip0_20_356">
<rect width="256" height="150.349" fill="white" transform="translate(0.910767 0.824219)"/>
</clipPath>
</defs>
</svg>
