<svg xmlns="http://www.w3.org/2000/svg" width="234" height="256" fill="none" viewBox="0 0 234 256">
  <g fill="#ebebeb" clip-path="url(#a)">
    <path d="M222.428 36.743c-.759-19.804-18.15-23.958-18.15-23.958S143.999 3.693 117.592.392C91.176-2.926 92.82 22.696 92.82 22.696s6 186.74 6.622 209.871c.708 27.557 26.407 23.122 26.407 23.122l90.818-15.719C233.182 236.661 234 216.02 234 216.02S223.272 58.363 222.428 36.743c.843 21.62-.759-19.804 0 0m-20.315 158.629-67.53 7.002s-19.667 3.002-20.109-20.913c-.324-17.62-4.219-118.551-4.219-118.551s-1.355-18.508 18.883-16.99c20.655 1.535 70.147 5.305 70.147 5.305s13.25 3.155 13.829 18.269c.622 16.427 6.34 107.652 6.34 107.652s1.49 14.993-17.341 18.226M36.795 168.164l-12.476.888s-12.586 1.705-12.875-12.077c-.205-10.158-1.466-67.814-1.466-67.814s-.87-10.67 12.075-9.799c3.28.213 7.932.511 13.07.819-.178-9.562-.33-17.92-.45-24.282-7.124-.538-13.788-1.118-18.55-1.62C-.982 52.392.066 66.763.066 66.763S2.131 172.507 2.515 185.47c.469 15.454 17.093 12.947 17.093 12.947l17.75-1.902c-.154-7.668-.36-17.441-.562-28.35zm49.618-96.112a14.6 14.6 0 0 0-.622-3.676c-5.462-.443-19.173-4.017-23.57.632-2.786 2.925-1.636 9.092-1.568 12.597l9.945.562s8.478 1.817 8.845 10.516c.392 9.486.34 62.611.34 62.611s.955 8.665-11.077 10.5l-6.314.47c.034 1.884.068 3.402.085 4.527.265 15.149 16.36 10.296 26.458 9.314.87-16.068-.673-32.623-1.03-48.699-.436-19.779-.597-39.592-1.492-59.354.545 12.094-.06-1.347 0 0"/>
    <path d="m91.72 186.314-18.21 1.758s-16.98 2.438-17.347-17.127c-.264-14.439-1.97-96.283-1.97-96.283s-1.178-15.13 16.247-13.92c4.477.308 10.636.811 17.34 1.349-.504-15.702-.905-28.087-1.11-34.466-9.176-.896-17.825-1.8-24.221-2.532C39.419 22.48 40.87 42.84 40.87 42.84s2.737 150.126 3.274 168.472c.623 21.928 23.029 18.405 23.029 18.405l25.783-3.301c-.256-8.537-.691-22.875-1.237-40.102m37.049-134.015c-3.223-.256-7.138-.042-9.526 2.474-2.525 2.643-2.567 6.396-2.422 9.79 9.134.794 15.761 1.382 15.761 1.382s11.411 2.568 11.932 14.935c.528 13.45 3.796 86.534 3.796 86.534s1.279 12.29-14.944 14.943l-12.281 1.176c1.63 19.199 26.457 11.097 39.155 9.784-1.304-28.871-5.346-118.16-6.259-139.125a3850 3850 0 0 0-25.212-1.893c6.389.451-.63-.05 0 0"/>
  </g>
  <defs>
    <clipPath id="a">
      <path fill="#ebebeb" d="M0 0h234v256H0z"/>
    </clipPath>
  </defs>
</svg>
