<svg width="248" height="256" viewBox="0 0 248 256" fill="none"
  xmlns="http://www.w3.org/2000/svg">
  <g clip-path="url(#clip0_20_1494)">
    <path fill-rule="evenodd" clip-rule="evenodd" d="M81.792 244.26C81.9525 246.329 81.8509 248.468 82.3995 250.431C82.6332 251.26 84.2281 251.709 85.2054 252.33L86.4752 253.145C85.9977 253.424 85.5223 253.936 85.0388 253.942C81.2478 254.007 77.456 254.008 73.665 253.946C73.1612 253.938 72.6675 253.464 72.1717 253.206C72.574 252.916 72.96 252.412 73.3847 252.377C75.9264 252.164 76.7005 250.62 76.6883 248.336C76.6659 244.138 76.6761 239.937 76.6944 235.735C76.7045 233.395 76.0402 231.686 73.2831 231.58C72.9011 231.564 72.5395 230.979 72.1697 230.66C72.5395 230.434 72.9133 230.008 73.279 230.014C78.1349 230.073 83.0111 229.965 87.8405 230.373C91.646 230.696 94.1532 233.33 94.4112 236.365C94.6916 239.695 92.9829 241.981 89.1185 243.448L87.6374 244C90.1262 246.353 92.3307 248.653 94.781 250.648C95.868 251.536 97.408 252.064 98.8221 252.308C101.652 252.792 103.188 251.575 103.266 248.769C103.389 244.24 103.331 239.705 103.288 235.174C103.268 233.098 102.376 231.727 100.059 231.613C99.6226 231.592 99.2061 231.099 98.7815 230.824C99.2671 230.54 99.7527 230.012 100.234 230.014C105.175 230.054 110.139 229.902 115.048 230.341C123.425 231.084 128.091 238.055 125.641 245.758C124.148 250.455 120.572 253.111 115.972 253.424C107.93 253.972 99.8441 253.86 91.776 253.917C91.134 253.921 90.3416 253.224 89.8581 252.651C88.001 250.447 86.2497 248.155 84.4374 245.914C83.8888 245.236 83.2772 244.612 82.6941 243.962L81.792 244.26ZM108.447 232.336C108.447 237.994 108.377 243.478 108.52 248.956C108.542 249.797 109.353 251.067 110.104 251.367C113.065 252.548 117.849 250.62 119.186 247.625C120.976 243.616 121.194 239.396 118.774 235.593C116.387 231.84 112.41 232.214 108.447 232.336ZM81.9911 241.603C84.5552 241.668 87.3814 242.239 88.4765 239.423C89.0901 237.844 88.9519 235.396 88.1047 233.957C86.8186 231.771 84.2322 232.153 81.9891 232.429L81.9911 241.603Z" fill="#3179A1"/>
    <path fill-rule="evenodd" clip-rule="evenodd" d="M190.517 240.438C192.211 240.072 193.891 240.125 194.983 239.347C195.899 238.697 196.126 237.079 196.827 235.515C197.232 236.24 197.612 236.61 197.62 236.986C197.671 239.79 197.681 242.595 197.62 245.399C197.61 245.838 197.161 246.267 196.915 246.702C196.638 246.47 196.226 246.295 196.104 245.999C194.615 242.4 194.623 242.398 190.328 242.782C190.956 245.59 188.778 249.18 192.136 251.027C193.849 251.968 196.612 251.781 198.615 251.165C200.324 250.645 201.622 248.786 203.11 247.512V253.803C202.287 253.876 201.663 253.977 201.035 253.977C192.622 253.989 184.208 253.953 175.797 254.016C174.346 254.028 173.365 253.662 172.479 252.445C170.738 250.044 168.824 247.768 166.942 245.472C166.471 244.897 165.857 244.44 164.868 243.518C164.868 245.862 164.783 247.543 164.892 249.211C165.006 250.954 165.845 252.11 167.773 252.327C168.34 252.393 168.848 252.988 169.383 253.343C168.832 253.557 168.285 253.949 167.733 253.959C164.021 254.012 160.311 254.01 156.599 253.961C156.03 253.953 155.465 253.61 154.839 253.402L155.156 252.787C159.715 250.946 159.728 250.946 159.724 245.659C159.721 242.361 159.694 239.063 159.644 235.765C159.61 233.487 158.992 231.681 156.213 231.583C155.813 231.569 155.433 231 155.04 230.687C155.5 230.458 155.961 230.027 156.418 230.031C161.113 230.076 165.835 229.921 170.498 230.356C175.602 230.832 178.757 235.088 176.861 239.005C175.825 241.145 173.432 242.628 171.325 244.731C173.324 246.559 175.626 249.188 178.418 251.1C182.361 253.803 185.057 252.26 185.157 247.549C185.24 243.593 185.143 239.633 185.127 235.673C185.118 233.327 184.393 231.622 181.638 231.583C181.262 231.577 180.892 231.177 180.447 230.913C181.88 229.856 195.683 229.472 201.675 230.238L202.061 236.768L201.385 237.045C199.991 235.588 200.163 232.577 197.28 232.567C195.078 232.557 192.876 232.325 190.511 232.183C190.517 234.938 190.517 237.445 190.517 240.438ZM164.821 241.588C170.124 241.801 172.229 240.363 172.103 236.785C171.979 233.335 169.675 231.943 164.821 232.475V241.588Z" fill="#EBEBEB"/>
    <path fill-rule="evenodd" clip-rule="evenodd" d="M17.3817 243.14C19.4053 237.153 21.4025 231.159 23.483 225.192C23.7695 224.371 24.4704 223.695 24.9804 222.949C25.4843 223.717 26.173 224.422 26.4615 225.265C28.3531 230.789 30.1532 236.34 31.992 241.883C32.1382 242.328 32.3272 242.756 32.7539 243.851C34.6393 238.136 36.3846 233.067 37.9633 227.945C38.5118 226.171 37.7987 224.889 35.7344 224.658C35.0538 224.578 34.3935 224.312 33.5991 224.101C34.9725 222.579 45.7022 222.467 47.4698 223.881C46.9903 224.109 46.6083 224.432 46.2142 224.448C42.8618 224.578 41.3095 226.677 40.3546 229.57C37.7987 237.311 35.194 245.034 32.5994 252.763C32.3292 253.565 31.9899 254.343 31.6811 255.132L30.8257 255.193L23.5541 233.207L16.2012 255.126L15.482 255.17C15.1061 254.356 14.6449 253.565 14.3706 252.718C11.9996 245.442 9.659 238.156 7.31234 230.875C6.30662 227.748 5.30091 224.639 1.19272 224.44C0.924527 224.428 0.678686 223.975 0.420654 223.729C0.74167 223.465 1.06269 222.971 1.38777 222.967C6.00389 222.918 10.6241 222.918 15.2402 222.969C15.5612 222.971 15.8761 223.471 16.1951 223.739C15.8518 223.995 15.547 224.367 15.163 224.485C11.4652 225.602 11.1991 226.031 12.3633 229.617C13.8322 234.154 15.3459 238.673 16.8412 243.201L17.3817 243.14Z" fill="#3179A1"/>
    <path fill-rule="evenodd" clip-rule="evenodd" d="M126.952 223.98C127.519 223.49 127.835 222.976 128.144 222.982C134.152 223.072 140.209 222.794 146.154 223.484C151.778 224.136 154.892 229.415 153.196 234.372C151.676 238.82 147.927 240.212 143.687 240.598C141.897 240.762 140.079 240.624 137.95 240.624C138.138 243.576 138.234 246.272 138.508 248.95C138.738 251.214 140.262 252.12 142.415 252.303C142.901 252.345 143.344 252.888 143.805 253.201C143.297 253.457 142.793 253.932 142.281 253.938C137.83 253.997 133.374 253.995 128.922 253.942C128.388 253.936 127.86 253.497 127.33 253.26C127.772 252.924 128.207 252.319 128.662 252.301C131.635 252.187 132.75 250.342 132.787 247.76C132.876 241.5 132.868 235.24 132.791 228.98C132.758 226.319 131.472 224.616 128.581 224.498C128.15 224.482 127.724 224.234 126.952 223.98ZM138.173 237.605C143.622 238.17 145.697 237.65 147.009 235.234C148.326 232.812 148.33 230.278 146.773 227.989C144.622 224.821 141.33 225.758 138.173 225.644V237.605Z" fill="#EBEBEB"/>
    <path fill-rule="evenodd" clip-rule="evenodd" d="M57.0433 254.887C52.1753 254.675 48.2093 253.147 45.2714 249.509C41.1002 244.344 41.7341 237.33 46.716 232.865C52.09 228.049 60.9748 227.842 66.491 232.517C70.2253 235.685 71.995 239.695 70.78 244.612C69.4086 250.159 65.4954 253.129 60.1783 254.478C59.069 254.757 57.8987 254.781 57.0433 254.887ZM66.2756 242.19L65.8205 241.892C65.5178 240.451 65.341 238.968 64.8899 237.574C63.5856 233.57 60.8549 231.591 56.8381 231.582C52.8356 231.574 50.1435 233.563 48.8351 237.611C47.6729 241.209 47.8233 244.775 49.6133 248.135C52.285 253.149 59.4245 254.09 62.9192 249.63C64.5486 247.552 65.1866 244.693 66.2756 242.19Z" fill="#3179A1"/>
    <path fill-rule="evenodd" clip-rule="evenodd" d="M243.298 230.21L245.112 228.621V237.512L244.586 237.908C244.161 237.309 243.574 236.766 243.336 236.098C242.136 232.735 239.547 230.911 236.593 231.797C235.579 232.099 234.36 233.115 234.09 234.052C233.868 234.816 234.669 236.328 235.453 236.844C237.501 238.193 239.783 239.192 241.983 240.304C246.77 242.725 248.481 246.084 246.861 249.926C245.218 253.829 240.232 255.849 235.764 254.341C234.533 253.922 233.393 253.236 232.253 252.693L230.512 254.981L229.742 254.745C229.742 251.744 229.724 248.743 229.772 245.743C229.776 245.452 230.209 245.17 230.443 244.883C230.809 245.326 231.353 245.716 231.514 246.224C232.576 249.589 234.622 251.824 238.269 252.197C240.348 252.411 242.379 252.155 243.101 249.786C243.759 247.618 242.247 246.395 240.624 245.47C238.838 244.454 236.95 243.623 235.122 242.687C234.319 242.274 233.501 241.866 232.779 241.336C230.225 239.452 229.218 236.738 229.973 233.985C230.648 231.524 233.068 229.44 236.063 229.353C238.279 229.29 240.522 229.86 243.298 230.21ZM210.243 252.614C209.906 253.284 209.719 253.847 209.372 254.282C209.162 254.542 208.648 254.79 208.376 254.705C208.118 254.623 207.844 254.107 207.838 253.778C207.795 251.139 207.795 248.498 207.84 245.862C207.844 245.539 208.201 245.225 208.396 244.906C208.77 245.143 209.302 245.298 209.487 245.641C209.831 246.279 209.91 247.055 210.211 247.722C211.568 250.733 214.317 252.616 217.47 252.159C218.789 251.97 220.416 250.968 221.07 249.847C221.952 248.341 220.896 246.791 219.417 245.936C217.427 244.786 215.367 243.751 213.303 242.744C208.636 240.466 206.667 236.705 208.339 233.156C210.001 229.627 215.105 228.158 219.37 229.995C219.89 230.218 220.384 230.502 220.792 230.714L222.982 228.914C223.212 229.558 223.358 229.779 223.36 230.001C223.376 232.471 223.37 234.94 223.37 237.408L222.726 237.839C222.298 237.291 221.702 236.805 221.469 236.185C220.304 233.073 218.462 231.348 215.759 231.677C214.492 231.829 212.876 232.701 212.253 233.745C211.338 235.279 212.659 236.51 214.051 237.258C216.007 238.313 218.011 239.274 219.996 240.271C224.908 242.736 226.637 246.159 224.941 250.072C223.289 253.884 218.143 255.857 213.732 254.292C212.586 253.888 211.523 253.236 210.243 252.614Z" fill="#EBEBEB"/>
    <path fill-rule="evenodd" clip-rule="evenodd" d="M126.498 0.779393C72.0863 -0.191781 26.6219 43.9601 26.6077 97.5007C26.5914 152.581 69.9611 196.526 124.288 196.445C178.109 196.365 221.674 152.585 221.674 98.5816C221.672 45.4555 178.306 1.70384 126.498 0.779393ZM124.166 191.534C72.71 191.546 31.3274 149.824 31.3294 97.9375C31.3315 47.3876 73.3561 5.53368 124.127 5.51539C175.799 5.49914 216.968 47.4791 216.952 100.168C216.936 149.912 174.677 191.524 124.166 191.534ZM173.73 70.9559C171.711 67.6279 169.228 64.3995 168.086 60.7708C166.786 56.6422 165.707 51.9428 166.396 47.8042C167.566 40.7865 172.948 37.3021 180.236 36.6356C140.365 -0.368544 77.7101 12.8764 54.6234 53.0826C63.5103 52.6702 71.9948 52.1318 80.4855 52.018C82.0926 51.9956 84.7522 53.3529 85.1301 54.6125C85.9753 57.4265 83.6103 58.4078 81.095 58.6008C78.4517 58.8081 75.8044 59.0052 72.7344 59.2388L103.079 149.639C103.808 148.447 104.109 148.111 104.241 147.719C109.852 130.947 115.497 114.185 120.966 97.3645C121.466 95.8306 121.218 93.7988 120.669 92.2222C117.776 83.8697 114.31 75.698 111.772 67.2439C110.035 61.4555 107.733 57.7109 100.892 58.3814C99.7261 58.4952 98.306 55.988 96.9995 54.6918C98.5782 53.7511 100.145 52.018 101.738 51.9936C115.669 51.7803 129.603 51.7843 143.535 52.0058C145.132 52.0322 146.698 53.812 148.279 54.7771C146.895 56.0409 145.705 57.9344 144.087 58.4221C141.495 59.2043 138.62 59.056 135.517 59.3323L165.898 149.712C170.502 134.426 174.785 120.386 178.946 106.314C182.664 93.7541 180.449 82.0208 173.73 70.9559ZM101.016 177.041C100.829 177.584 100.819 178.185 100.675 179.087C117.859 183.85 134.707 183.506 151.956 177.696L125.609 105.528C117.175 130.039 109.088 153.538 101.016 177.041ZM87.7388 173.778L48.0426 64.885C30.1348 99.8656 43.7576 153.238 87.7388 173.778ZM198.371 61.2137C197.823 67.2967 198.205 74.0685 196.46 80.2349C192.349 94.7659 187.325 109.047 182.487 123.367C177.229 138.93 171.76 154.424 166.382 169.949C191.65 154.971 205.535 132.863 207.746 103.805C209.006 87.2668 203.3 64.3649 198.371 61.2137Z" fill="#EBEBEB"/>
  </g>
  <defs>
    <clipPath id="clip0_20_1494">
      <rect width="247.873" height="256" fill="#EBEBEB" transform="translate(0 -0.00976562)"/>
    </clipPath>
  </defs>
</svg>
