<svg xmlns="http://www.w3.org/2000/svg" width="256" height="52" fill="none" viewBox="0 0 256 52"><g clip-path="url(#a)"><path fill="#ff4b4b" d="M243.846 8.222 245.055 0h10.64l-1.149 8.222z"/><path fill="#ebebeb" d="M12.454 41.593q-4.656 0-7.346-.665T1.21 38.752Q0 37.24 0 34.64q0-1.15.181-2.297l.182-1.33q.483-3.386 1.874-5.14 1.39-1.752 4.353-2.478 2.962-.725 8.463-.725h1.21q4.292 0 6.71.634 2.418.636 3.506 2.086h.182l.302-2.841q.12-1.09.12-1.39.001-1.451-.604-2.117-.604-.664-1.843-.876-1.24-.212-3.658-.212h-1.21q-2.84 0-4.322.272-1.48.273-2.055.847-.575.573-.756 1.602l-.06.181H2.539l.121-.907q.483-3.445 2.207-5.199 1.722-1.754 5.44-2.448 3.72-.696 10.67-.696h1.452q5.743 0 8.917.756 3.174.755 4.655 2.75t1.481 5.865q0 1.572-.423 4.776l-2.176 15.355h-10.46l.545-3.264h-.12q-1.27 1.45-2.48 2.237-1.209.786-3.204 1.148-1.995.363-5.44.363zm5.622-6.469q3.265 0 4.837-.272 1.571-.27 2.176-.906.604-.635.786-1.905l.12-.483q.061-.303.061-.847 0-.846-.544-1.3-.544-.453-2.025-.634-1.482-.182-4.383-.182h-.665q-3.265 0-4.867.303-1.602.302-2.206.937t-.786 1.904l-.06.484-.061.604q0 .907.665 1.42.665.515 2.146.696t4.201.181zM42.832 12.091h10.64l-.725 4.534h.12Q54.2 14.75 55.8 13.663q1.602-1.089 3.809-1.572t5.41-.484h.544q4.716 0 7.557.907 2.841.908 4.202 3.084 1.36 2.175 1.36 5.924 0 1.571-.302 4.172l-2.237 15.415h-10.64l2.116-15.053q.18-1.27.181-2.176 0-1.754-.665-2.63t-2.055-1.179q-1.39-.302-3.87-.302h-.664q-3.144 0-5.018.725-1.875.726-2.811 2.207-.937 1.48-1.3 3.96L49.36 41.109h-10.64zM79.982 41.11l4.11-29.02h10.64l-4.11 29.02zM98.753 12.091h10.64l-.726 4.534h.121q1.633-2.357 4.293-3.688t6.831-1.33h.726q5.078 0 7.647 1.482t3.355 4.806h.061q1.692-3.144 4.746-4.716 3.052-1.572 7.768-1.572h.665q4.293 0 6.801.847 2.51.846 3.658 2.841t1.148 5.502q0 1.632-.423 4.897l-2.176 15.415h-10.64l2.176-15.113q.182-1.27.182-2.177 0-1.632-.575-2.508t-1.662-1.21q-1.089-.332-2.902-.332h-.605q-3.083 0-4.745.665-1.664.664-2.388 2.086-.726 1.42-1.089 4.02l-2.055 14.57h-10.64l2.116-15.114q.181-.847.181-2.116 0-1.693-.574-2.6a2.76 2.76 0 0 0-1.632-1.209q-1.059-.302-2.812-.302h-.604q-3.144 0-4.776.665-1.632.664-2.388 2.055t-1.119 4.111l-2.055 14.51h-10.64zM174.998 41.593q-5.985 0-9.461-.846-3.476-.847-5.169-3.083-1.692-2.238-1.693-6.409 0-2.357.303-4.292l.12-1.149q.847-6.045 2.902-9.068t5.713-4.08q3.658-1.059 10.187-1.059h1.874q5.622 0 9.038.786 3.415.786 5.109 2.842 1.692 2.056 1.692 5.743 0 1.754-.241 3.264l-.605 4.535h-25.633l-.121.967q-.181.907-.181 1.511 0 1.572.755 2.328.756.756 2.177.997 1.42.242 4.141.242h1.149q2.962 0 4.504-.332 1.541-.333 2.176-1.028.634-.696.816-1.965v-.12h9.975l-.121.906q-.543 3.748-2.509 5.743-1.964 1.995-5.501 2.781t-9.34.786zm10.519-18.318.121-1.088q.121-.423.121-1.209 0-1.209-.604-1.844-.604-.634-1.965-.907-1.36-.272-3.839-.272h-1.209q-3.204 0-4.867.484-1.662.483-2.388 1.572-.725 1.087-1.028 3.264z"/><path fill="#ebebeb" stroke="#ebebeb" stroke-width=".934" d="M193.269 51.387q-1.33 0-2.176-.121l.181-1.028q.967.12 2.116.12 1.45 0 2.267-.573.816-.574 1.33-2.026.514-1.45.937-4.292l4.413-31.376h1.27l-4.413 31.437q-.423 2.962-1.088 4.654-.666 1.693-1.814 2.449t-3.023.756ZM220.567 41.533q-6.227 0-9.371-.454-3.144-.453-4.474-1.723-1.33-1.269-1.33-3.93 0-.845.091-1.54.09-.696.212-1.482h1.269q-.302 1.633-.302 2.902 0 2.176 1.179 3.234 1.179 1.06 4.05 1.451 2.872.393 8.676.393h2.115q5.32 0 8.101-.665t3.93-2.055q1.15-1.39 1.511-3.99.243-1.512.242-2.479 0-1.815-1.118-2.75-1.119-.938-3.99-1.3t-8.615-.424q-5.865-.06-8.917-.574-3.054-.514-4.232-1.602t-1.179-3.083q0-.907.302-2.781.363-2.781 1.663-4.262 1.3-1.482 4.322-2.116 3.024-.635 8.827-.635h1.511q5.199 0 8.041.544 2.84.545 4.111 1.874 1.269 1.33 1.269 3.809 0 .967-.242 2.841h-1.209q.243-1.692.242-2.78 0-2.056-1.118-3.144t-3.718-1.542-7.436-.453h-1.512q-5.44 0-8.191.574t-3.869 1.814q-1.119 1.239-1.482 3.718-.241 1.571-.241 2.357 0 1.693 1.058 2.57t3.838 1.239q2.781.363 8.283.423 6.045.06 9.159.544 3.112.484 4.383 1.633 1.269 1.148 1.269 3.385 0 .968-.241 2.72-.424 3.023-1.784 4.656t-4.413 2.357-8.615.726z"/></g><defs><clipPath id="a"><path fill="#ebebeb" d="M0 0h256v52H0z"/></clipPath></defs></svg>
