<svg xmlns="http://www.w3.org/2000/svg" width="256" height="256" fill="none" viewBox="0 0 256 256"><path fill="#176bff" d="M30.72 128c0-53.723 43.557-97.28 97.28-97.28 21.632 0 41.6 7.04 57.756 18.99a36.65 36.65 0 0 1 23.286-20.791A127.52 127.52 0 0 0 128 0C57.308 0 0 57.307 0 128s57.308 128 128 128 128-57.307 128-128c0-14.793-2.514-29.028-7.15-42.276a36.53 36.53 0 0 1-27.501 14.793c2.56 8.704 3.931 17.92 3.931 27.483 0 53.723-43.556 97.28-97.28 97.28-53.723 0-97.28-43.557-97.28-97.28"/><path fill="#176bff" d="M253.367 102.071a127 127 0 0 0-4.517-16.348 36.51 36.51 0 0 1-27.501 14.794 97 97 0 0 1 3.584 19.181 40 40 0 0 0 28.434-17.627M128 184a56.06 56.06 0 0 0 39.579-16.421A56.06 56.06 0 0 0 184 128a56.06 56.06 0 0 0-56-56 56.063 56.063 0 0 0-56 56 56.09 56.09 0 0 0 56 56m84.005-104a28 28 0 1 0 0-56 28 28 0 0 0 0 56"/></svg>