<svg xmlns="http://www.w3.org/2000/svg" width="204" height="256" fill="none" viewBox="0 0 204 256">
  <g clip-path="url(#a)">
    <path fill="#ff9100" d="M63.944 248.525c10.684 4.312 22.292 6.862 34.468 7.281a101.46 101.46 0 0 0 46.17-9.302 143.4 143.4 0 0 1-44.997-28.265c-8.414 13.479-20.875 24.123-35.621 30.286z"/>
    <path fill="#ffc400" d="M99.56 218.239C69.912 190.827 51.938 151.14 53.45 107.62c.054-1.417.134-2.82.21-4.237a75.8 75.8 0 0 0-16.563-2.4 76.4 76.4 0 0 0-23.54 2.834C5.638 117.675.872 133.574.268 150.631c-1.532 43.974 25.072 82.394 63.636 97.914a76.9 76.9 0 0 0 35.62-30.286l.04-.02z"/>
    <path fill="#ff9100" d="M99.56 218.239c6.901-11.023 11.078-23.953 11.552-37.886 1.287-36.638-23.35-68.176-57.458-76.964-.095 1.417-.17 2.819-.21 4.236-1.511 43.52 16.468 83.208 46.11 110.619z"/>
    <path fill="#dd2c00" d="M107.314.364C87.897 15.924 72.567 36.44 63.28 60.068a143 143 0 0 0-9.62 43.315c34.108 8.793 58.739 40.326 57.457 76.965-.494 13.933-4.671 26.847-11.553 37.886a144.2 144.2 0 0 0 44.998 28.265c33.729-15.6 57.642-49.14 59.044-88.802.889-25.71-8.982-48.625-22.935-67.947C165.92 69.295 107.329.384 107.329.384z"/>
  </g>
  <defs>
    <clipPath id="a">
      <path fill="#ebebeb" d="M-.005 0h204v256h-204z"/>
    </clipPath>
  </defs>
</svg>
