<svg width="256" height="256" viewBox="0 0 256 256" fill="none"
  xmlns="http://www.w3.org/2000/svg">
  <g clip-path="url(#clip0_20_1379)">
    <path d="M200.754 162.492C191.794 162.595 183.948 167.22 177.321 171.349C164.934 179.008 158.741 178.512 158.741 178.512L158.534 178.161C157.688 176.778 162.498 164.37 157.11 149.589C151.288 133.423 142.039 129.521 142.782 128.283C145.941 122.936 153.848 114.451 157.007 98.6363C158.885 89.057 158.39 73.2841 154.137 65.026C153.352 63.4983 146.333 67.586 146.333 67.586C146.333 67.586 139.768 52.9486 137.93 51.7718C132.005 47.9731 125.543 67.4828 125.543 67.4828C121.069 67.0443 116.554 67.6558 112.357 69.2686C108.16 70.8814 104.397 73.451 101.368 76.7731C99.1221 78.9363 96.3994 80.5416 93.4194 81.4596C92.573 81.7486 91.5407 81.7073 88.9807 88.6234C85.0581 99.0905 95.6697 110.941 95.6697 110.941C95.6697 110.941 83.0143 119.88 78.3278 131.008C75.1977 138.637 73.9582 146.91 74.7149 155.121C74.7149 155.121 65.7136 162.925 65.1356 170.977C64.599 176.617 65.8794 182.281 68.7898 187.142C69.0169 187.627 69.339 188.062 69.7371 188.42C70.1353 188.779 70.6012 189.054 71.1075 189.229C71.6138 189.404 72.15 189.476 72.6846 189.44C73.2191 189.405 73.741 189.262 74.2194 189.021C74.2194 189.021 68.2323 195.999 73.8272 198.951C78.9265 201.614 87.5149 203.08 92.0568 198.559C95.3601 195.256 96.0207 187.885 97.2388 184.871C97.5278 184.169 98.5188 186.048 99.4685 186.936C100.345 187.702 101.284 188.392 102.276 189C102.276 189 94.2246 192.469 97.5278 200.376C98.622 202.998 102.524 204.67 108.903 204.629C111.277 204.629 137.311 203.142 144.248 201.47C146.345 201.137 148.255 200.068 149.636 198.456C160.9 195.105 171.658 190.244 181.616 184.004C191.401 177.625 195.407 175.89 203.314 174.012C209.837 172.463 209.404 162.347 200.754 162.492Z" fill="#2C8EBB"/>
    <path d="M128 -0.00585938C102.684 -0.00585938 77.9365 7.50121 56.887 21.566C35.8375 35.6308 19.4315 55.6217 9.74344 79.0106C0.0554298 102.4 -2.4794 128.136 2.45951 152.966C7.39842 177.795 19.5892 200.603 37.4904 218.504C55.3915 236.405 78.1989 248.596 103.028 253.535C127.858 258.473 153.595 255.939 176.983 246.251C200.372 236.563 220.363 220.157 234.428 199.107C248.493 178.058 256 153.31 256 127.994C256 94.0464 242.514 61.4891 218.51 37.4845C194.505 13.4798 161.948 -0.00585937 128 -0.00585938ZM205.006 181.321C198.09 182.993 194.87 184.293 185.579 190.322C175.55 196.618 164.754 201.599 153.455 205.145C151.272 206.936 148.698 208.188 145.941 208.799C138.075 210.719 111.092 212.164 108.965 212.164H108.47C100.212 212.164 95.5252 209.604 93.0065 206.921C85.9871 210.43 76.9032 208.985 70.2968 205.496C68.7149 204.72 67.3332 203.591 66.259 202.194C65.1848 200.798 64.4471 199.172 64.1032 197.444C63.8581 196.037 63.8581 194.599 64.1032 193.192C63.4948 192.557 62.9487 191.866 62.4723 191.127C58.7218 184.887 57.0855 177.603 57.8065 170.358C58.4052 162.657 63.7316 155.782 67.2 152.128C66.9118 143.875 68.3607 135.652 71.4529 127.994C74.7744 120.872 79.5741 114.538 85.5329 109.413C82.1265 103.674 78.6581 94.838 82.0232 85.8367C84.4387 79.4161 86.4206 75.8444 90.7768 74.3167C92.6789 73.768 94.4444 72.8254 95.9587 71.5503C102.312 64.6487 111.082 60.4633 120.444 59.8651C120.836 58.8741 121.29 57.8006 121.786 56.8509C125.089 49.8315 128.599 45.8883 132.707 44.4638C134.195 43.9074 135.794 43.7108 137.373 43.8902C138.952 44.0696 140.465 44.6199 141.791 45.4961C143.133 46.3838 144.846 47.5606 149.843 57.8832C151.735 57.2053 153.791 57.1331 155.726 57.6767C156.782 57.9644 157.766 58.4691 158.616 59.1588C159.466 59.8484 160.162 60.7078 160.661 61.6819C165.76 71.4677 166.441 88.9128 164.212 100.123C162.233 110.049 158.119 119.425 152.155 127.602C157.489 133.152 161.554 139.794 164.067 147.07C166.523 153.953 167.515 161.273 166.978 168.562C169.198 167.499 171.349 166.3 173.419 164.97C179.737 161.068 189.275 155.184 200.65 155.039C204.101 154.808 207.511 155.894 210.193 158.078C212.875 160.262 214.629 163.381 215.102 166.807C215.533 170.05 214.737 173.336 212.869 176.022C211.001 178.707 208.197 180.597 205.006 181.321Z" fill="#2C8EBB"/>
  </g>
  <defs>
    <clipPath id="clip0_20_1379">
      <rect width="256" height="256" fill="#EBEBEB" transform="translate(0 -0.00585938)"/>
    </clipPath>
  </defs>
</svg>
