<svg xmlns="http://www.w3.org/2000/svg" width="257" height="155" fill="none" viewBox="0 0 257 155">
  <g clip-path="url(#a)">
    <path fill="#ebebeb" d="M73.061 56.26c0 3.151.35 5.702.95 7.602.7 1.85 1.55 3.9 2.7 6.151.451.7.601 1.35.601 1.95 0 .85-.5 1.7-1.6 2.551l-5.351 3.6c-.75.5-1.55.75-2.2.75-.85 0-1.701-.45-2.551-1.2-1.2-1.3-2.2-2.65-3.05-4-.851-1.45-1.701-3.05-2.651-5.001-6.652 7.851-15.003 11.752-25.055 11.752-7.151 0-12.852-2.05-17.053-6.151-4.151-4.1-6.301-9.552-6.301-16.353 0-7.251 2.55-13.103 7.751-17.553s12.052-6.652 20.854-6.652c2.9 0 5.851.25 9.052.7s6.4 1.1 9.802 1.85v-6.2c0-6.452-1.35-11.003-4.001-13.603-2.7-2.65-7.302-3.9-13.903-3.9-3 0-6.051.35-9.202 1.1s-6.2 1.7-9.201 2.9c-1.35.6-2.4.95-3 1.1s-1.001.25-1.351.25c-1.2 0-1.8-.85-1.8-2.65v-4.151c0-1.35.15-2.4.6-3s1.2-1.2 2.4-1.8c3-1.551 6.551-2.801 10.752-3.852 4.15-1.1 8.602-1.6 13.303-1.6 10.152 0 17.553 2.3 22.304 6.901 4.7 4.601 7.051 11.603 7.051 20.954v27.606h.15zM38.505 69.214c2.8 0 5.7-.5 8.751-1.55 3.05-1 5.801-2.9 8.102-5.451 1.35-1.6 2.4-3.4 2.9-5.451s.85-4.501.85-7.402v-3.6c-2.45-.6-5.1-1.1-7.851-1.45-2.7-.35-5.351-.5-8.001-.5-5.702 0-9.902 1.1-12.703 3.4-2.8 2.3-4.15 5.55-4.15 9.802 0 4 1 7.001 3.15 9.051 2.05 2.1 5 3.151 8.952 3.151m68.363 9.202c-1.551 0-2.551-.25-3.251-.85-.7-.5-1.3-1.7-1.8-3.301L81.813 8.452c-.5-1.7-.75-2.801-.75-3.401 0-1.35.7-2.15 2.05-2.15h8.352c1.6 0 2.7.25 3.3.85.7.5 1.2 1.7 1.7 3.3l14.303 56.36 13.303-56.36c.45-1.7.95-2.8 1.6-3.3.7-.5 1.85-.85 3.401-.85h6.851c1.6 0 2.701.25 3.401.85.7.5 1.3 1.7 1.6 3.3l13.453 57.061 14.752-57.06c.5-1.701 1.101-2.801 1.701-3.301.7-.5 1.8-.85 3.3-.85h7.902c1.35 0 2.15.7 2.15 2.15 0 .45-.1.85-.15 1.35-.1.5-.25 1.2-.6 2.15l-20.504 65.813q-.75 2.55-1.8 3.3c-.7.5-1.8.85-3.251.85h-7.301c-1.6 0-2.701-.25-3.401-.85s-1.3-1.7-1.6-3.4l-13.203-54.91-13.102 54.86c-.45 1.7-.95 2.8-1.6 3.4-.7.6-1.851.85-3.401.85h-7.401zm109.42 2.3c-4.451 0-8.851-.5-13.102-1.55-4.251-1-7.602-2.15-9.802-3.4-1.35-.75-2.3-1.601-2.651-2.401-.35-.8-.5-1.6-.5-2.4v-4.352c0-1.8.701-2.65 1.951-2.65.5 0 1 .1 1.55.25.5.15 1.3.5 2.15.85 2.901 1.3 6.052 2.3 9.352 3 3.401.7 6.751 1.001 10.152 1.001 5.351 0 9.552-.95 12.452-2.8s4.451-4.601 4.451-8.102c0-2.4-.75-4.35-2.3-5.951s-4.451-3.05-8.602-4.451l-12.352-3.85c-6.201-1.951-10.802-4.852-13.603-8.702-2.8-3.751-4.25-7.902-4.25-12.353 0-3.6.75-6.751 2.3-9.452s3.601-5.1 6.151-7c2.551-1.951 5.451-3.402 8.852-4.452 3.4-1 7.001-1.45 10.752-1.45 1.85 0 3.851.1 5.701.35 1.95.25 3.751.6 5.551.95 1.7.45 3.301.85 4.851 1.35s2.7 1 3.601 1.55c1.2.7 2.05 1.351 2.55 2.151.5.7.75 1.6.75 2.8v4.002c0 1.8-.7 2.7-1.95 2.7-.7 0-1.8-.35-3.251-1q-7.276-3.3-16.353-3.3c-4.851 0-8.702.75-11.302 2.4s-4.001 4.1-4.001 7.601c0 2.4.85 4.45 2.551 6.051 1.7 1.6 4.851 3.25 9.352 4.701l12.102 3.85c6.151 1.951 10.552 4.702 13.202 8.152 2.651 3.451 3.901 7.502 3.901 11.903 0 3.65-.75 7.001-2.2 9.901-1.551 2.901-3.601 5.452-6.202 7.502-2.65 2.15-5.801 3.65-9.451 4.75-4.001 1.251-8.002 1.851-12.353 1.851"/>
    <path fill="#f90" fill-rule="evenodd" d="M232.391 122.073c-28.005 20.704-68.713 31.656-103.719 31.656-49.06 0-93.268-18.154-126.624-48.309-2.65-2.401-.25-5.602 2.9-3.751 36.107 20.954 80.666 33.656 126.724 33.656 31.106 0 65.213-6.451 96.669-19.753 4.65-2.101 8.651 3.1 4.05 6.501" clip-rule="evenodd"/>
    <path fill="#f90" fill-rule="evenodd" d="M244.044 108.82c-3.601-4.601-23.655-2.2-32.806-1.1-2.701.35-3.151-2.051-.701-3.851 16.003-11.252 42.308-8.001 45.409-4.25 3.051 3.85-.85 30.155-15.853 42.757-2.3 1.951-4.501.951-3.501-1.6 3.451-8.451 11.052-27.455 7.452-31.956" clip-rule="evenodd"/>
  </g>
  <defs>
    <clipPath id="a">
      <path fill="#ebebeb" d="M.91.5h256v154H.91z"/>
    </clipPath>
  </defs>
</svg>
