<svg xmlns="http://www.w3.org/2000/svg" width="256" height="212" fill="none" viewBox="0 0 256 212">
  <g clip-path="url(#a)">
    <path fill="#ebebeb" fill-rule="evenodd" d="m213.937 15.693 5.391 7.097c1.415 1.873 1.061 4.558-.812 5.973l-5.724 4.35a33.4 33.4 0 0 1 1.978 8.742l6.514.895c2.331.312 3.955 2.476 3.642 4.807l-1.207 8.846a4.255 4.255 0 0 1-4.808 3.642l-7.118-.978a33.2 33.2 0 0 1-4.807 7.576l3.996 5.245a4.275 4.275 0 0 1-.833 5.973l-7.097 5.39a4.29 4.29 0 0 1-5.973-.811l-4.35-5.724a33.5 33.5 0 0 1-8.762 1.978l-.895 6.514c-.313 2.331-2.477 3.954-4.808 3.642l-8.846-1.207c-2.331-.312-3.954-2.477-3.642-4.808l.978-7.118a34.3 34.3 0 0 1-7.576-4.787l-5.244 3.975c-1.874 1.416-4.559 1.062-5.974-.811l-5.39-7.097c-1.416-1.873-1.062-4.558.811-5.974l5.724-4.35a33.5 33.5 0 0 1-1.977-8.741l-6.515-.895a4.255 4.255 0 0 1-3.642-4.808l1.207-8.845a4.28 4.28 0 0 1 4.808-3.643l7.118.979a34.3 34.3 0 0 1 4.787-7.576l-3.975-5.245a4.25 4.25 0 0 1 .811-5.953l7.098-5.39c1.873-1.415 4.558-1.061 5.973.812l4.35 5.723a33.4 33.4 0 0 1 8.741-1.977l.895-6.514c.312-2.331 2.477-3.976 4.808-3.664l8.845 1.208a4.255 4.255 0 0 1 3.643 4.807l-.979 7.118a33.8 33.8 0 0 1 7.597 4.808l5.245-3.975a4.276 4.276 0 0 1 5.994.79M61.753 140.59v-34.34h17.691c3.289 0 5.786.27 7.514.853 1.727.562 3.142 1.603 4.183 3.122 1.061 1.54 1.603 3.393 1.603 5.578 0 1.894-.417 3.559-1.228 4.933-.812 1.394-1.936 2.518-3.351 3.371-.895.541-2.144.999-3.726 1.353 1.27.437 2.186.833 2.748 1.27q.593.437 1.685 1.81c.729.916 1.228 1.645 1.478 2.144l5.162 9.928H83.523l-5.66-10.469c-.73-1.353-1.353-2.248-1.915-2.643a4.56 4.56 0 0 0-2.602-.791h-.937v13.903H61.753zm37.422 59.796H79.36l-2.852 9.324H58.653l21.292-56.591H99.09l21.209 56.591h-18.315zm-3.705-12.259-6.181-20.355-6.203 20.355zm28.951-35.008h29.096c6.348 0 11.094 1.499 14.236 4.517s4.725 7.326 4.725 12.883c0 5.724-1.728 10.198-5.162 13.424s-8.7 4.829-15.755 4.829h-9.595v20.938h-17.545zm17.545 24.185h4.308c3.393 0 5.786-.583 7.16-1.769 1.374-1.166 2.06-2.685 2.06-4.496 0-1.769-.603-3.288-1.789-4.516-1.187-1.228-3.435-1.852-6.723-1.852h-5.016zm37.588-24.185h17.545v56.591h-17.545zM72.409 120.194h4.475c.479 0 1.415-.166 2.81-.478.707-.146 1.29-.5 1.727-1.083.458-.582.666-1.248.666-1.998 0-1.103-.353-1.977-1.061-2.56-.708-.603-2.019-.895-3.955-.895H72.41zm25.142-13.944h28.41v7.326h-17.753v5.474h16.463v6.993h-16.463v6.764h18.273v7.763h-28.93zM129 129.227l10.073-.624c.208 1.644.666 2.872 1.332 3.725 1.103 1.374 2.664 2.082 4.683 2.082 1.499 0 2.685-.354 3.497-1.062.811-.707 1.228-1.54 1.228-2.477 0-.895-.396-1.685-1.166-2.393s-2.581-1.353-5.432-1.998c-4.641-1.041-7.951-2.435-9.949-4.163q-2.997-2.59-2.997-6.618c0-1.769.521-3.434 1.54-4.995s2.56-2.81 4.621-3.705c2.06-.895 4.87-1.332 8.45-1.332 4.391 0 7.721.812 10.032 2.456 2.289 1.644 3.663 4.225 4.1 7.805l-9.97.603c-.27-1.561-.832-2.705-1.665-3.392-.853-.708-2.039-1.062-3.517-1.062-1.228 0-2.164.271-2.789.791-.624.521-.936 1.166-.936 1.915 0 .541.27 1.02.77 1.478.499.437 1.665.874 3.538 1.269 4.641.999 7.971 2.019 9.969 3.039s3.476 2.289 4.371 3.809c.916 1.498 1.374 3.205 1.374 5.078 0 2.206-.604 4.225-1.832 6.078-1.207 1.852-2.914 3.267-5.099 4.225s-4.933 1.436-8.263 1.436c-5.827 0-9.886-1.124-12.134-3.372-2.248-2.289-3.517-5.141-3.829-8.596m32.697-22.977h32.281v8.491h-10.823v25.85H172.54v-25.85h-10.843zm-35.715-81.504a66 66 0 0 0-11.468.125c-11.718 1.124-23.102 5.39-32.51 12.696-10.885 8.43-19.148 21.042-22.332 37.755l-1 5.224-5.202.916c-5.1.895-9.658 2.123-13.654 3.683-3.87 1.499-7.326 3.351-10.344 5.537a34.3 34.3 0 0 0-6.264 5.827c-5.474 6.556-8.013 14.777-7.95 23.103.062 8.45 2.809 16.983 7.887 23.997 1.894 2.602 4.08 4.995 6.577 7.076a33 33 0 0 0 8.596 5.162 40.6 40.6 0 0 0 5.765 1.873v15.589c-4.163-.749-7.992-1.873-11.572-3.351-4.725-1.956-8.908-4.475-12.592-7.555a53.7 53.7 0 0 1-9.157-9.824C3.83 143.005.085 131.309.002 119.653c-.084-11.78 3.58-23.498 11.488-32.988a49.2 49.2 0 0 1 9.033-8.409c4.017-2.913 8.616-5.37 13.82-7.388 3.58-1.395 7.409-2.56 11.447-3.497 4.578-18.19 14.34-32.197 26.89-41.917 11.738-9.095 25.87-14.402 40.419-15.797a82.5 82.5 0 0 1 22.956 1.02 18 18 0 0 0-.395 2.081l-.021.125a20.5 20.5 0 0 0-.146 3.58 18 18 0 0 0-4.454 2.518l-.062.042a18.6 18.6 0 0 0-4.995 5.723m110.121 39.961a57 57 0 0 1 3.392 3.351q3.34 3.591 6.307 8.117c6.66 10.24 10.073 23.914 9.927 37.297-.145 13.133-3.683 26.203-10.926 35.819-4.725 6.265-10.781 11.385-18.045 15.443-4.974 2.789-10.573 5.099-16.671 6.972v-16.13c3.288-1.228 6.348-2.601 9.157-4.162 5.474-3.06 9.949-6.785 13.3-11.26 5.203-6.931 7.763-16.734 7.867-26.786.125-10.552-2.456-21.146-7.472-28.847a43 43 0 0 0-4.683-6.015 43 43 0 0 0-1.956-1.956c.104-1.04.146-2.102.083-3.164a18 18 0 0 0 4.454-2.518l.063-.042a18.9 18.9 0 0 0 5.203-6.119m-52.782-37.172c9.595 1.312 16.297 10.157 14.986 19.752-1.312 9.595-10.157 16.317-19.752 15.006s-16.317-10.157-14.985-19.751 10.157-16.318 19.751-15.007" clip-rule="evenodd"/>
  </g>
  <defs>
    <clipPath id="a">
      <path fill="#ebebeb" d="M0 .895h256v210.21H0z"/>
    </clipPath>
  </defs>
</svg>
