<svg xmlns="http://www.w3.org/2000/svg" width="257" height="182" fill="none" viewBox="0 0 257 182">
  <g clip-path="url(#a)">
    <mask id="b" width="208" height="182" x="49" y="0" maskUnits="userSpaceOnUse" style="mask-type:luminance">
      <path fill="#ebebeb" d="M49.213 0h207.546v181.049H49.213z"/>
    </mask>
    <g mask="url(#b)">
      <path fill="#c30f2e" d="m152.986.004 103.773 181.045H49.213z"/>
    </g>
    <mask id="c" width="178" height="156" x="0" y="26" maskUnits="userSpaceOnUse" style="mask-type:luminance">
      <path fill="#ebebeb" d="M.759 26.97H177.39v154.554H.759z"/>
    </mask>
    <g mask="url(#c)">
      <path fill="#dd0330" d="m89.073 26.97 88.315 154.554H.758z"/>
    </g>
    <path fill="#ebebeb" d="M239.162 135.297H18.926v-2.419h220.236z"/>
    <mask id="d" width="199" height="84" x="28" y="88" maskUnits="userSpaceOnUse" style="mask-type:luminance">
      <path fill="#ebebeb" d="M28.204 88.237H226.07v82.798H28.204z"/>
    </mask>
    <g mask="url(#d)">
      <path fill="#ebebeb" d="M205.139 170.67c-.861 0-1.671-.357-2.348-1.034-4.045-4.063-4.222-20.585-4.027-45.33.111-13.522.258-32.042-1.899-33.503-2.105.872-2.315 16.172-2.451 26.301-.162 11.785-.328 23.978-2.242 30.187-.57 1.841-1.306 3.526-2.786 3.39-2.087-.184-2.76-3.478-4.317-16.478-.648-5.399-1.318-10.979-2.102-13.139q-.154-.407-.268-.659c-.836 1.888-1.8 7.078-2.47 10.681-.928 4.976-1.803 9.676-2.9 11.726-.847 1.575-2.19 3.629-4.067 3.232-2.558-.538-3.324-5.694-3.552-8.72 0-25.454-3.331-28.417-3.997-28.752l-.107.081-.162-.037c-2.377 1.038-2.506 9.294-2.628 17.277-.095 5.855-.198 12.491-1.052 18.701-1.108 8.049-2.448 9.602-4.115 9.506-3.839-.261-3.949-13.481-3.949-14.987 0-.471.011-1.027.025-1.641.074-3.077.206-8.801-1.685-10.604-.251-.239-.604-.515-.88-.438-1.347.339-2.746 4.715-3.209 6.154-.148.456-.265.832-.365 1.089-.077.214-.176.516-.294.88-1.02 3.095-2.179 6.183-4.159 6.945-.733.284-1.498.221-2.216-.184-.953-.541-1.73-1.645-2.455-3.482-.397-1.015-.736-2.046-1.082-3.08-.419-1.263-.85-2.569-1.384-3.81-.419-.964-1.465-1.398-2.797-1.163-2.768.494-3.232 3.291-3.622 7.501-.07.733-.136 1.45-.228 2.128-.011.198-.5 6.378-.813 8.343-.865 5.389-2.002 7.512-3.891 7.358-4.659-.398-6.798-20.836-6.683-29.47.088-6.592-1.105-8.999-1.819-9.382-.073-.033-.187-.096-.46.096-.843.57-1.593 2.348-1.361 4.214 2.565 20.32.673 43.592-3.961 48.833-1.461 1.649-3.448 1.627-4.832.236-4.049-4.063-4.218-20.585-4.027-45.33.111-13.522.254-32.042-1.899-33.504-2.105.873-2.311 16.173-2.451 26.302-.162 11.785-.328 23.978-2.245 30.187-.57 1.841-1.307 3.526-2.783 3.39-2.09-.184-2.76-3.478-4.32-16.478-.648-5.399-1.318-10.979-2.102-13.139a8 8 0 0 0-.269-.659c-.832 1.888-1.796 7.078-2.466 10.681-.927 4.976-1.803 9.676-2.904 11.726-.847 1.575-2.19 3.629-4.063 3.232-2.558-.538-3.324-5.694-3.552-8.72-.004-25.454-3.33-28.417-3.997-28.752l-.107.081-.165-.037c-2.374 1.038-2.503 9.294-2.628 17.277-.092 5.855-.195 12.491-1.05 18.7-1.107 8.05-2.436 9.618-4.11 9.507-3.847-.261-3.957-13.482-3.957-14.987 0-.471.015-1.027.03-1.641.073-3.077.206-8.801-1.686-10.604-.25-.239-.604-.515-.88-.438-1.347.339-2.75 4.715-3.206 6.154a43 43 0 0 1-.364 1.089c-.081.21-.18.512-.298.876-1.02 3.096-2.18 6.187-4.156 6.949-.736.284-1.505.221-2.219-.184-.953-.541-1.733-1.645-2.455-3.482-.397-1.016-.74-2.046-1.082-3.08-.42-1.263-.854-2.569-1.388-3.81-.415-.964-1.464-1.398-2.797-1.163-3.187.567-3.942 4.52-4.549 9.238l-.107.84-2.41-.321.114-.824c.526-4.137 1.328-10.39 6.53-11.31 2.447-.435 4.585.581 5.446 2.583.578 1.34 1.03 2.695 1.465 4.008.324.991.655 1.981 1.038 2.96.674 1.707 1.196 2.149 1.391 2.256 1.218-.379 2.463-4.167 2.875-5.414.129-.401.239-.733.327-.968.085-.232.195-.571.328-.979 1.097-3.431 2.473-7.144 4.917-7.763.747-.191 1.903-.165 3.158 1.035 2.665 2.543 2.525 8.48 2.433 12.41-.015.589-.03 1.127-.03 1.583 0 6.272.932 10.655 1.642 12.161.368-.77.997-2.632 1.597-7.008.832-6.066.939-12.624 1.027-18.41.162-10.239.276-17.663 3.983-19.408.552-.338 1.468-.522 2.436-.033 3.585 1.804 5.326 11.885 5.326 30.817.224 2.926 1.012 6.007 1.66 6.449.004-.067.53-.391 1.395-2.01.924-1.719 1.844-6.665 2.653-11.027 1.793-9.613 2.606-12.988 4.726-13.165 1.616-.158 2.363 1.895 2.676 2.76.883 2.422 1.538 7.888 2.23 13.677.541 4.49 1.31 10.902 2.095 13.497.084-.229.18-.501.283-.836 1.814-5.878 1.98-17.887 2.138-29.507.221-16.139.505-26.139 3.449-28.226a2.44 2.44 0 0 1 2.234-.316c3.449 1.144 3.714 11.255 3.519 35.8-.14 17.799-.313 39.953 3.323 43.604.317.32.541.32.622.32.17 0 .412-.162.67-.453 3.681-4.163 6.01-26.021 3.371-46.927-.327-2.602.678-5.336 2.393-6.514.946-.652 2.035-.736 2.977-.232 2.146 1.141 3.188 5.024 3.103 11.546-.151 11.387 2.584 24.715 4.369 26.842.283-.471.843-1.763 1.38-5.145.302-1.87.799-8.153.806-8.215.088-.711.155-1.399.217-2.098.368-3.924.821-8.804 5.613-9.654 2.444-.435 4.582.577 5.447 2.583.578 1.34 1.027 2.694 1.461 4.008.332.991.663 1.981 1.046 2.96.67 1.707 1.196 2.149 1.387 2.256 1.219-.379 2.466-4.167 2.875-5.411.132-.401.243-.736.327-.971.089-.228.195-.571.324-.979 1.101-3.431 2.477-7.144 4.925-7.763.74-.191 1.899-.165 3.154 1.035 2.665 2.543 2.525 8.48 2.437 12.41a52 52 0 0 0-.034 1.583c0 6.272.932 10.655 1.642 12.161.364-.77.994-2.632 1.601-7.008.832-6.066.931-12.624 1.027-18.41.158-10.24.272-17.663 3.978-19.408.553-.338 1.469-.522 2.441-.033 3.581 1.804 5.325 11.885 5.325 30.817.225 2.926 1.013 6.007 1.657 6.449.007-.067.526-.391 1.398-2.01.924-1.719 1.841-6.665 2.654-11.027 1.785-9.613 2.602-12.989 4.722-13.165 1.619-.158 2.367 1.895 2.679 2.76.88 2.422 1.535 7.888 2.235 13.677.533 4.49 1.302 10.902 2.09 13.497.081-.229.177-.501.28-.836 1.814-5.878 1.976-17.887 2.138-29.507.217-16.139.504-26.139 3.449-28.226a2.45 2.45 0 0 1 2.234-.316c3.452 1.144 3.717 11.255 3.519 35.8-.14 17.799-.313 39.953 3.319 43.604.324.32.545.32.63.32.165 0 .408-.162.662-.453 3.688-4.163 6.014-26.021 3.375-46.927-.342-2.723.431-5.469 1.841-6.525.71-.538 1.575-.648 2.37-.313 2.054.876 3.445 4.63 4.255 11.483.338 2.871.64 5.974.931 9.036.64 6.684 1.509 15.69 2.683 17.67.361-.46 1.097-1.704 2.19-5.039l2.307.755c-1.696 5.156-3.025 7.1-4.755 6.901-2.69-.298-3.467-5.734-4.84-20.055-.29-3.048-.589-6.132-.927-8.988-1.031-8.741-2.783-9.533-2.801-9.54-.342.173-1.137 1.991-.843 4.31 2.558 20.32.674 43.596-3.964 48.833-.747.843-1.586 1.27-2.484 1.27"/>
    </g>
  </g>
  <defs>
    <clipPath id="a">
      <path fill="#ebebeb" d="M.759 0h256v182h-256z"/>
    </clipPath>
  </defs>
</svg>
