<svg xmlns="http://www.w3.org/2000/svg" width="221" height="256" fill="none" viewBox="0 0 221 256">
  <g clip-path="url(#a)">
    <path fill="#010101" d="M34.66 111.911c-7.473 3.515-27.25 19.338-31.06 24.026-3.955 4.688-5.127-2.637-1.025-14.797 3.222-9.815 11.428-23.147 25.198-34.574C35.831 79.973 53.558 70.45 64.4 64.883c2.198-1.172 30.62-13.185 55.964-19.192 2.198-.586-2.636 3.662-3.369 6.006-3.81 11.135-79.845 58.895-79.845 58.895zm107.093 134.342c1.318 7.912.146 8.498-8.058 9.523s-14.211-2.051-16.408-4.101c-2.198-2.052-2.637-6.593-.439-10.695 1.319-2.638 2.637-3.517 3.37-6.74.732-3.076 1.318-3.809 1.904-4.98.585-1.027.733-2.052.879-9.231.147-7.178 0-20.657.733-26.37.733-5.859 26.078 2.637 26.078 2.637s-6.007 14.943-7.619 18.606c-1.611 3.663-1.465 10.694-1.465 12.16s-.585 4.394-1.025 4.541c-.44.146 1.465 3.955.585 6.153-.586 2.052 1.319 7.326 1.465 8.497m9.669-224.003c-.879-5.567 0-16.555 1.172-18.313 3.663-4.981 23.001-5.567 27.104.293 1.758 2.637 1.611 8.79 1.318 12.746-.293 3.955-1.318 12.453-1.465 15.237-.146 2.051-21.389 5.273-26.077-.294-1.32-1.464-2.052-9.669-2.052-9.669m43.072 209.792c8.937 6.447 15.822 7.619 20.364 9.963 4.541 2.345 3.369 6.886-4.249 8.204-6.153 1.172-15.822-1.172-22.268-1.172s-20.804.733-24.613-1.904c-4.395-3.076-2.491-8.791-2.491-8.791 1.173-3.222 4.102-10.401 3.223-16.261s-2.051-9.083-4.248-14.504-3.809-18.752-1.758-19.485 1.465 0 4.102.586c2.637.585 5.567 1.465 11.281 1.465s12.013-.88 14.211-1.319 3.955-.879 3.222 3.663c-.732 4.541-2.929 13.039-3.076 19.631-.146 6.593-.146 14.211.294 15.53.438 1.318 3.662 2.783 6.006 4.394"/>
    <path fill="#8ac640" d="M163.142 36.901c-16.115 13.918-47.32 17.727-93.614 35.6-11.867 4.542-43.512 18.167-51.13 32.378 25.638-14.797 35.16 5.567 37.211 26.517 1.904 19.631 11.72 29.887 36.919 29.3 25.931-.586 33.842 14.504 41.021 32.231 13.917-67.831 36.186-81.016 50.542-92.59 30.474-24.76-7.031-68.417-20.949-63.436"/>
    <path fill="#8ac640" d="M163.142 36.901C124.466 50.38 86.228 53.75 41.252 81.438c-10.694 6.593-33.256 21.536-37.651 50.105 16.407-18.167 54.352-41.021 100.793-55.525 23.441-7.326 40.582-12.16 61.385-20.217-1.464-9.377-1.464-13.04-2.637-18.9"/>
    <path fill="#010101" d="M212.514 117.185s-2.784 9.523-8.351 12.6c0 0-4.102 1.465-12.306-3.076-2.344-1.319-4.102-5.86-3.956-7.326.147-3.516 2.344-5.128 2.344-5.128s2.345-3.955 5.128-3.809 7.472.586 8.937-.733c1.318-1.465 8.497 2.637 8.204 7.472m-59.774-92.15s-.585 7.472-1.611 12.16c-.146.879-4.541 1.318-7.765 2.637 6.153 17.58 43.219 17.433 48.054 8.79-2.344-1.611-7.032-4.102-9.23-4.981-2.198-.88-2.051-.733-2.198-4.835s-.439-11.72-.733-13.771c-.292-2.052-23.001-2.052-26.517 0"/>
    <path fill="#f0efef" d="M154.206 25.035s0 4.248-.44 8.35c-.146 1.905-.293 3.076-.585 4.541-.147.88 4.981 4.395 6.446 12.16 7.032 15.676 23.294 7.911 30.033.44-2.344-1.612-6.153-3.81-10.548-5.567-2.198-.88-1.172-2.784-1.318-6.886s-.733-10.109-1.026-12.306c-.294-2.198-19.046-2.784-22.562-.732"/>
    <path fill="#010101" d="M152.741 25.035s-.147 2.637-.586 5.713c1.904 1.904 4.395 4.542 6.3 6.154 1.318 1.172 4.541 1.025 7.472 1.025 2.636 0 4.98.293 6.006-.292 2.345-1.173 5.714-4.102 7.619-6.3-.147-2.637-.293-5.128-.439-6.3-.148-2.052-22.857-2.052-26.372 0"/>
    <path fill="#010101" d="M166.073 36.169c-1.759 0-3.81-.146-5.421-.44-.733-.146-1.466-.585-2.052-.879-1.025-.733-2.051-1.611-3.222-2.49-2.345-1.758-2.491-2.784-2.491-3.223 1.026-9.23-.293-16.994-.293-16.994s-1.026-3.956 4.541-4.982 8.937-1.172 8.937-1.172 3.516 0 8.937 1.172c5.567 1.026 4.541 4.982 4.541 4.982s-1.318 7.764-.293 16.994c0 .439-.146 1.465-2.49 3.222-2.052 1.465-3.663 3.077-5.274 3.37s-3.663.44-5.42.44"/>
    <path fill="#010101" d="M166.073 2.18c-9.669 0-11.575 2.636-14.358 5.567-.586.732-.147 5.127.88 14.503h1.318s-.88-2.637-.733-5.713.733-2.93.293-3.663c-.586-.88-1.758-2.344.879-3.809s6.739 1.172 11.721 1.319c4.981-.147 9.229-2.784 11.866-1.319s1.465 2.93.88 3.81c-.587.878.146.585.292 3.662s-.733 5.714-.733 5.714h1.319c.879-9.377 1.465-13.479 1.026-14.212-2.491-3.223-4.981-5.713-14.65-5.86m46.441 115.444s-2.784 8.937-8.204 12.013c-1.173-.586-1.026-1.464-2.052-2.784-.293-.438-1.319-.732-1.757-1.171-.44-.44-.293-1.173-1.026-1.758-.586-.586-1.026-.147-1.612-.586-.585-.586-.733-1.319-1.172-1.757-.293-.294-1.465-.44-1.757-.733-.733-.733-7.179-2.052-6.886-3.517.586-2.198 1.758-3.809 1.758-3.809s2.784-4.102 5.566-3.956c2.784.147 5.421.733 6.886-.585 1.612-1.466 10.696 3.955 10.256 8.643"/>
    <path fill="#010101" d="M193.468 52.87s9.23-2.198 15.53 3.81c6.3 6.152 5.86 13.77 3.956 18.458 1.611 1.905 4.541 7.178 2.344 13.478 9.669 8.204 5.42 20.804-3.223 29.155 0 0-2.052-7.619-10.255-8.058.292-2.93-7.619-5.274-3.956-12.893-5.567-1.318-5.421-5.127-6.3-9.815-.732-4.689 1.904-34.135 1.904-34.135"/>
    <path fill="#f0efef" d="M190.099 56.972s10.694-5.42 16.994.733c6.3 6.154 4.541 12.892 2.637 17.58 1.611 1.904 5.42 7.326 3.076 13.771-.439 1.465-3.662 1.465-6.007 5.275 5.86-3.37 9.523-2.491 10.841 1.757 2.052 6.592-2.49 14.503-6.445 18.899 0-.147-.147-.294-.147-.44-.586 2.198-1.319 6.446-5.713 11.134-2.198 2.344-3.956 2.052-6.447 1.466-2.929-.733-3.955-2.052-8.057-4.249-2.344-1.318-1.026-2.93-1.026-4.249 0-.292.293-.733.733-1.318.293-.733 1.172-1.904 2.49-3.223 0 0 1.905-2.637 4.689-2.491 2.784.147 5.713-.439 6.446-1.172 0-5.127-5.86-5.274-3.809-14.064.147-.44.88-1.172 3.223-1.465-3.517-.733-5.128-.88-7.618-3.223-1.758-1.611-3.077-3.662-3.517-6.3-.878-4.54-2.343-28.42-2.343-28.42"/>
    <path fill="#010101" d="M159.186 47.743c-.879-1.173-5.42-7.033-14.064-9.377-2.491-.733-4.102 1.319-6.592 2.784-.733-.44-3.956-1.905-5.714-.88s-2.929 2.052-4.688 2.784c-.879-.44-3.223-.44-5.127.292-1.905.587-4.835 1.905-7.619 5.714-1.758 6.3 31.058 1.611 31.058 1.611z"/>
    <path fill="#8ac640" d="M159.48 47.743c-4.689-1.612-3.956-7.032-14.358-7.911-2.051-.147-3.37 1.464-4.835 2.49.733.733 1.465 1.904 1.905 3.076-1.318-1.465-3.663-3.37-6.007-3.81-2.198-.438-3.663 1.173-6.007 2.346.439.438.879 1.171 1.465 2.05-2.052-1.318-3.516-1.757-6.3-.732-1.904.585-5.567 2.197-8.35 6.153-1.758 6.3 29.594-.733 29.594-.733z"/>
    <path fill="#010101" d="M187.022 50.087s0-1.612-.146-3.076c0-.293-1.172-1.026-1.172-1.319l-.293-.293s2.344-1.318 4.102-.585c1.904.585 2.93 3.076 2.93 3.076 3.369-1.172 3.662.147 5.274 1.904 3.516-.732 3.955.586 6.153 3.81 0 0-2.637-.44-7.764.438-4.982.733-9.084-4.102-9.084-3.955"/>
    <path fill="#8ac640" d="M186.436 49.354s.879-.733.586-.88c1.611-.879 3.809-1.904 4.835.88 3.369-1.173 3.809.44 5.42 2.198 4.102-1.905 4.395.439 4.688 1.464-1.318 0-3.222.147-5.86.44-4.981.733-9.815-4.249-9.669-4.102"/>
    <path fill="#010101" d="M136.626 45.691s8.35 2.93 15.382 2.49c7.032-.585 19.046-1.171 25.491 2.638 0 0 6.593-2.345 12.746-.733 6.154 1.611 17.434 12.16 14.065 23.294-.293.733-2.198 1.904-4.395 2.637 0 0 1.172 4.981-.879 9.083-2.051 3.956-6.593 11.575-6.739 22.122-.146 1.758-.439 5.421-.732 7.179-11.428-.439-29.008-4.689-46.295-4.395.146-1.904.292-3.076.439-4.981h.439c-.879-4.835-1.172-7.326-2.051-10.988-5.568-3.516-11.428-7.618-16.408-15.383-4.835-7.765 8.937-32.963 8.937-32.963m56.55 79.112s9.083 32.524-1.611 46.149c0 0 1.611 6.299-2.052 13.039-.586 2.929-1.319 5.567-1.758 8.496-1.904 12.16-5.128 17.288-6.007 36.772l-8.791-.146s-1.025-14.064-4.102-21.536c-1.757-4.248-8.644-9.962-8.349-15.675.292-4.396 1.171-8.058 8.644-13.918.585-8.497-7.912-16.556-6.593-48.2z"/>
    <path fill="#f0efef" d="M190.539 123.484c2.344 14.943 7.764 37.065-2.051 47.906.579 2.749.628 5.583.146 8.351-.293 1.758-.879 3.662-1.612 5.713-1.465 3.516-2.051 8.644-2.49 11.72-1.905 12.16-1.905 12.747-2.784 32.231l-8.791-.146s-1.025-14.065-4.102-21.536c-1.757-4.248-5.42-7.911-5.713-13.625-.292-4.394 2.784-13.184 10.11-12.892-.44-17.726-8.644-14.211-10.842-51.129zm-53.913-77.793s3.223 1.026 6.738 1.319c3.517.293 7.326 0 10.695-.147 7.032-.585 16.995-1.318 23.587 2.49 0 0 3.663-1.172 7.619-.879 1.757.147 3.516 1.612 5.567 2.198 6.446 1.611 12.599 12.306 9.815 21.976-.293.733-2.344 0-4.689.733.439 2.05.733 6.739-1.611 11.72-2.49 4.981-5.713 11.427-5.128 23.734-15.383-.733-22.268-1.758-37.505-2.491-1.318-5.421-2.198-10.841-2.344-13.625 2.051-1.025 3.222-1.904 4.835-3.662-4.395.733-6.153.44-8.791-1.026-2.637-1.465-7.325-6.153-9.669-9.23-.293-.293-1.904 4.541-5.566 4.689-1.319-1.905 4.248-7.326 3.222-9.376-3.662-7.473 3.225-28.423 3.225-28.423"/>
    <path fill="#010101" d="M191.71 111.324s.293 5.274.293 6.593c0 1.465 1.172 5.86 1.318 7.911-1.611 2.783-8.643 9.083-21.389 11.427-12.6 2.637-29.301-17.14-29.301-17.14.44-1.905 1.905-7.473 2.931-10.402.146-.293.439-1.026.439-1.318 1.319-1.905 45.709 2.929 45.709 2.929"/>
    <path fill="#f0efef" d="M188.488 111.764c0 3.663.585 6.3 1.025 8.644.732 4.249 1.904 7.032 1.904 9.816 0 8.496-11.134 7.031-20.511 7.325-12.599 2.637-23.294-17.141-23.294-17.141.879-3.37 1.465-7.178 2.784-10.402.146-1.758.439-3.955.585-4.981 17.874 0 30.473 1.026 37.799 1.758.293 1.611 0 4.395-.292 4.981"/>
    <path fill="#010101" d="M174.422 130.663s-7.764-17.288-31.058-12.159c-5.567 15.675-13.039 33.695-8.204 53.18-4.835 6.593-10.402 10.256-10.402 22.415 0 12.16.586 14.211.586 14.211l17.141.88s5.567-7.179 7.764-14.944c.586-2.198 1.172-6.153.733-10.694.585-.879 3.076-2.93 3.37-6.886 0 0 8.35-4.394 13.185-15.089 4.542-9.671 3.37-18.022 6.885-30.914"/>
    <path fill="#f0efef" d="M174.422 130.663c-.438-1.611-6.299-17.433-27.981-12.746-12.746 33.99-8.058 48.054-6.154 54.206-8.644 10.988-12.599 13.332-10.84 35.601h11.427c5.274-8.351 6.446-11.428 6.739-22.415 0-.44-1.611.879-2.784 2.344.88-4.541 3.37-5.42 5.275-8.204.879-1.172 1.611-2.93 1.611-5.274 10.255-6.886 14.064-15.53 16.261-24.466 1.759-6.153 3.81-16.262 6.446-19.046"/>
    <path fill="#010101" d="M138.237 107.076s3.956.146 7.472 1.319c3.37 1.171 3.37 1.903 4.688 3.369 1.319 1.466 4.542 3.663 3.956 5.86-.293 1.172-1.026 1.465-2.051 2.491-.44.439-3.663 3.955-4.396 4.395-.439.292-1.025.732-1.465 1.025L144.244 127c-1.465.733-2.491 1.173-4.102 1.026 0 0-3.662-.147-6.007-2.637 0 0-.293-1.172.293-1.758 0 0-3.077-2.637-3.956-4.395s-.879-4.248-.292-5.566c.292-1.32 6.005-4.983 8.057-6.594m3.663 142.547-.44 3.664s-1.318 1.611-11.134 1.465c-9.962-.147-12.599-3.223-13.478-4.835l-.585-3.809s1.904-2.784 2.344-2.784c3.223.293 14.211 4.688 21.829 5.86.731 0 .877.293 1.464.439m21.242-7.471c0 1.611-.146 1.611-.146 3.223 1.758 1.318 6.154 2.051 14.503 1.904 12.16-.293 23.441 3.663 37.212 1.318l.147-2.637-1.319-.146-48.785-3.956z"/>
    <path fill="#010101" d="M173.837 247.279h3.663c7.911-.292 15.383 1.466 23.44 1.905 4.249-.147 9.523-1.172 9.084-4.249l-41.607-3.516c-2.491 2.783-.587 5.127 5.42 5.86m-47.76-61.677c1.318.879 10.255 6.153 24.759 5.42-.293 2.784-.147 8.205-6.593 17.727-3.223 4.688-6.007 12.893-6.592 23.294.146 2.344 1.465 4.395-.293 7.472.585 1.904 2.929 5.713 4.102 8.057 1.171 2.345 1.758 4.982-6.007 5.128-7.912.146-20.658-.732-18.899-6.885.88-3.223 3.37-6.593 3.663-7.912s.293-5.273 2.783-7.911c2.198-7.325 1.465-14.357 1.026-20.95-.733-6.886-.879-17.873 2.051-23.44m13.625-119.4c10.402-13.919 1.611-25.052-15.089-21.683-6.74 1.318-13.479 6.007-13.919 14.504-2.197.292-7.178.585-9.669 9.669-1.904 7.032-2.93 8.35-6.3 11.866-2.197 2.49.147 7.618 1.758 11.281 5.421 12.6 22.122 13.771 33.403 23.294 3.809-1.025 7.765-5.273 8.937-8.057-9.523-11.281-7.472-15.676-11.282-21.536 4.103-1.466 13.479-7.179 12.161-19.338"/>
    <path fill="#f0efef" d="M137.65 65.323c.586-.88 1.612-2.783 2.052-3.516.146-.147 1.758 2.637 1.904 2.49 3.956-6.446 4.981-15.822.439-16.701-1.026-.147-2.929-.586-4.541-1.173-2.93-1.025-5.567-1.025-10.255-.146-6.446 1.172-12.892 5.86-12.892 12.6 0 .439 4.54 1.757 5.859 7.178-2.198-3.077-6.007-6.446-10.548-3.516-4.835 3.076-2.344 10.108-8.79 17.433-2.198 2.491-1.905 5.421.438 11.281 3.81 9.23 21.83 14.211 31.646 23.001 2.344-1.025 3.955-3.369 5.127-5.127-6.593-6.886-9.23-13.332-11.134-18.02-2.344-5.42-4.981-8.497-10.109-12.6 2.637 1.025 4.689 2.05 5.86 2.93 1.318.879 3.223 1.025 4.981.44 6.301-2.197 9.671-10.987 9.963-16.554"/>
    <path fill="#010101" d="M201.38 67.667c-.44 5.567-4.542 2.784-6.739 1.758-4.396-1.905-8.791-3.223-13.919-3.223-5.127 0-11.72.44-17.433 1.905-7.911 2.197-10.256 2.05-13.771.292-3.516-1.904-9.669-6.592-9.669-6.592s-.146 1.465 1.319 3.37c1.904 2.343 6.153 5.274 11.866 7.177 2.784.88 4.982.293 7.472-.292 13.039-3.223 26.81-3.81 38.383 3.223.587.293 2.638-.586 3.517-1.905 1.171-1.904-1.026-5.713-1.026-5.713"/>
    <path fill="#0a1825" d="M134.721 123.484c1.172.733 2.637 1.173 4.248 2.491 0 0-1.319 0-1.904-.585-.733-.44-2.198-1.758-2.344-1.906"/>
    <path fill="#f0efef" d="M177.06 7.308c-.44-1.319-3.663-3.663-11.134-3.663-8.058 0-10.402 2.49-10.548 3.809 0 .44-.586 5.128-.733 7.032 0 0 0 2.344.146 5.86.147 2.344.733 3.662 1.026 6.74.292 3.221 1.172 5.273 2.783 7.91.733.439 1.319.88 2.052 1.026 2.93.585 8.057.732 10.841 0 1.611-.44 3.662-3.223 4.102-5.714.585-3.076 1.171-5.274 1.318-7.178.293-1.904.44-6.153.586-7.326.44-3.222-.293-8.204-.439-8.496"/>
    <path fill="#010101" d="M161.677 188.386s7.765 3.369 26.957.439c0 0-5.42 27.25-2.929 40.874 0 0 2.49 3.517 20.95 10.255 0 0 8.203 2.052 7.911 6.154 0 0 .292.879-9.669.586s-19.339-2.052-25.932-2.052c-6.592 0-13.625.293-14.796-1.611-1.319-1.758.292-6.3 2.197-8.937 2.052-2.783 1.465-4.835 1.319-9.815-.441-13.039-10.403-26.517-6.008-35.893"/>
    <path fill="#8ac640" d="M160.065 190.876c-1.025 1.465.146 7.032 1.612 12.453 1.465 5.42 4.688 8.644 5.421 17.58.732 8.79.879 9.962-1.612 15.089s-3.223 9.816 5.42 9.962c8.643.147 13.332-.146 22.122 1.173 8.791 1.318 11.867 1.758 16.702 1.025 4.835-.732 5.86-2.344 3.809-3.809s-10.548-3.076-14.211-6.007c-3.516-2.637-13.478-7.032-13.624-8.204-.439-3.956-.586-18.313.146-23.001.733-4.689 1.758-11.427 2.051-13.185s1.758-3.517-.733-2.931-11.866 1.905-18.898 1.466-7.764-2.051-8.205-1.611"/>
    <path fill="#010101" d="M165.047 236.145c2.49 1.172 6.153 2.052 8.937 2.052 0 0-1.027 4.834.585 7.764s-11.72 1.172-11.72 1.172l-.585-10.402zm38.823 12.599c2.344-.732 3.956-3.369 2.052-5.859-2.052-2.491-3.81-2.931-1.173-3.077s12.307 5.713 12.307 5.713l-4.982 4.542zm-44.244-52.155c3.37 1.172 8.497 1.465 12.893 1.318 4.394-.146 10.987-.733 15.236-2.197 4.248-1.465 2.49 1.611 2.49 1.611l-2.344 2.198s-5.567 2.198-14.649 2.052c-10.695-.147-13.919-1.319-13.919-1.319zm.293 7.326c3.37 1.172 8.497 1.465 12.892 1.318 4.395-.146 10.256-.146 14.504-1.758 1.758-.585.733 1.905.733 1.905l-.733 1.318s-5.714 2.051-14.65 1.904c-10.695-.146-12.6-1.026-12.6-1.026z" opacity=".3"/>
    <path fill="#010101" d="M150.25 101.217c0 1.025 11.427 6.739 17.727 7.911s19.485 0 21.536-.44l-.294 2.052s-15.675 2.344-27.688-.879c-12.014-3.223-10.695-3.956-10.695-3.956z"/>
    <path fill="#f0efef" d="M125.783 226.183c1.758.88 8.058 2.491 12.16 1.612.586-.147 0-10.109 1.612-14.651 2.344-6.3 6.153-11.427 7.91-22.561-6.153-.586-13.184-2.198-16.847-3.37-4.688 14.358-3.076 26.663-4.835 38.97m9.817 9.23c1.026.293 1.758 1.465 2.051.733.586-1.319-1.025-3.809-1.172-5.567v-.147c-1.319-1.171-10.255-1.318-9.669-.733-1.026 1.905-2.637 1.612-3.222 5.421-.293 1.904 2.051.293 4.247.146-3.955 2.637-8.496 6.008-9.229 8.937-.879 4.102.586 5.274 4.982 7.473 3.809.878 8.35 1.025 11.866.878 3.956-.732 4.689-2.636 3.516-5.274-1.759-3.956-2.931-9.083-3.37-11.867"/>
    <path fill="#010101" d="M137.211 45.106c4.835 2.783 11.574 2.05 14.064 1.904.587 0 6.447-1.026 6.74-.88.585.147.585.587.585.587s-2.197 1.171-7.178 1.464c-4.688.293-10.255 0-13.331-1.464-3.663-1.611-.88-1.611-.88-1.611m49.811 2.783c.879.585 6.593 2.783 9.084 5.42 2.197 2.345 1.026 2.198.585 1.612-.585-.733-5.127-3.809-6.885-4.541s-3.956-2.052-3.956-2.344c0-.293 1.172-.147 1.172-.147"/>
    <path fill="#f0efef" d="M136.478 108.688c4.249-.293 8.644.733 11.428 3.662 1.465 1.465 3.809 3.076 3.516 4.541 0 .44-.88 1.612-1.611 2.491-.44.586-1.758 1.904-2.198 2.344-.586.44-2.637 2.052-3.076 2.344-.44.294-1.026 1.027-1.466 1.173-1.464.733-3.076.146-4.541-.586-1.464-.733.294-.879-1.318-2.051-3.955-2.784-6.154-4.689-4.542-10.109.146-1.026 1.757-2.198 3.808-3.809"/>
    <path fill="#010101" d="M99.12 75.138c-13.185 5.275-46.735 21.976-56.257 27.104 7.911 4.981 11.574 16.994 12.746 29.154.146 1.172.293 2.198.44 3.369q.219 1.538.438 2.198c0 .147 0 .44.147.586 8.644-23.587 39.556-48.492 40.728-50.397.586-.879-.733-4.688 1.319-8.35 2.637-4.69 7.765-6.74.44-3.664m31.352 110.61c6.739-13.478 6.886-26.37 6.739-41.46 0-6.3 4.541-15.237 2.198-12.746-8.791 9.815-30.912 28.275-46.881 29.3 22.415-.732 31.205 10.549 37.944 24.906" opacity=".4"/>
    <path fill="#010101" d="M29.97 114.694c8.351-6.007 51.57-29.007 61.972-32.23 10.401-3.37 7.178-7.326 7.178-7.326S56.927 93.304 31.728 108.98"/>
    <path fill="#010101" d="M153.033 72.355c-3.37-1.318-6.006 2.638-5.127 6.447s8.79 8.057 8.35 21.975c-.293 11.428-2.783 16.115-2.783 16.115l-5.567-7.031s-.879-15.823-2.784-18.167-7.911-6.593-10.255-8.79c-2.344-2.198 2.637-5.128 2.344-9.23-.293-3.956 2.491-11.867 2.491-11.867zm20.365 62.41c-.293 10.987 2.198 27.25 3.222 35.015 1.026 7.764 2.345 8.35 0 11.867-2.344 3.37-5.42 8.937-5.42 8.937l-10.109-.88s8.058-10.255 8.497-12.16-4.102-16.407-4.102-16.407zM153.913 32.213c2.051 4.541 4.541 6.592 8.496 7.911 2.344.88 11.574 2.052 15.237-2.05 1.611-1.905.586-7.033.586-7.033l-8.351 6.739-11.281-2.05-1.318-3.37z" opacity=".4"/>
    <path fill="#8ac640" d="M154.791 42.322c3.809 2.491 13.332 4.835 15.969 5.275 2.637.585 6.885-2.784 8.937-3.663 2.198-1.026 6.007-1.612 10.402 2.344.439.44-1.026 2.344-1.026 2.344-.147-.147-1.026-.147-2.198-.733-1.172-.585-2.197-1.025-3.955-.879-7.326.88-8.498 3.37-14.944 1.904s-8.057-2.636-14.357-2.344"/>
    <path stroke="#010101" stroke-linejoin="round" stroke-miterlimit="10" stroke-width="1.141" d="M154.791 42.322c3.809 2.491 13.332 4.835 15.969 5.275 2.637.585 6.885-2.784 8.937-3.663 2.198-1.026 6.007-1.612 10.402 2.344.439.44-1.026 2.344-1.026 2.344-.147-.147-1.026-.147-2.198-.733-1.172-.585-2.197-1.025-3.955-.879-7.326.88-8.498 3.37-14.944 1.904s-8.057-2.636-14.357-2.344"/>
    <path fill="#8ac640" d="M153.473 42.762c4.835 2.051 14.211 4.248 16.848 4.835s6.885-2.052 8.936-3.37c3.663-2.344 8.351-.44 10.549 2.051 1.464 1.611 2.051 2.637 2.051 3.076 0 .586-1.758 0-1.758 0-1.025-.439-2.198-.585-3.076-1.172-1.172-.585-2.345-1.464-4.102-1.318-7.325.88-8.791 3.37-15.09 1.904-6.299-1.465-7.911-2.783-14.65-2.345"/>
    <path fill="#010101" d="M130.765 179.595c-.293-.293.293-.585 0-.585-1.904 0-4.541-1.466-6.007-3.517-6.299-9.083-15.53-15.089-32.23-14.65-25.053.586-35.016-9.669-36.92-29.3-1.025-10.695-3.955-21.097-9.962-26.957l-3.516 2.198c6.738 5.86 8.936 15.383 10.401 28.421 2.345 19.632 18.167 28.715 36.627 29.008 19.191.293 26.077 4.249 33.255 13.918 2.344 3.077 4.982 4.102 7.032 4.542z"/>
    <path fill="#010101" d="M198.743 85.394c.439 2.197 1.611 6.445 3.955 8.496 1.026 1.026 1.172 1.319.293 1.319s-7.325-.293-7.325-.293l-1.758-3.076z" opacity=".4"/>
  </g>
  <defs>
    <clipPath id="a">
      <path fill="#ebebeb" d="M0 0h221v256H0z"/>
    </clipPath>
  </defs>
</svg>
