<svg width="212" height="256" viewBox="0 0 212 256" fill="none"
  xmlns="http://www.w3.org/2000/svg">
  <g clip-path="url(#clip0_18_1065)">
    <path d="M205.087 137.679L203.618 138.505C203.512 136.135 202.492 133.898 200.773 132.263C199.604 130.618 198.013 129.32 196.167 128.504C194.321 127.689 192.289 127.388 190.286 127.632C188.283 127.877 186.384 128.658 184.788 129.893C183.193 131.129 181.96 132.772 181.222 134.65C180.763 135.66 187.739 144.747 187.464 145.756C185.146 146.792 183.068 148.298 181.362 150.178C179.656 152.058 178.358 154.272 177.551 156.679C178.468 152.365 175.256 150.346 170.391 151.906C167.95 152.681 165.74 154.052 163.961 155.894C162.183 157.737 160.891 159.994 160.203 162.461C160.845 158.147 157.357 155.853 152.401 157.046C149.995 157.558 147.784 158.745 146.029 160.468C144.273 162.191 143.045 164.379 142.488 166.775C142.947 162.553 139.184 159.8 134.135 160.626C131.813 160.944 129.659 162.014 128.002 163.671C126.345 165.329 125.275 167.482 124.957 169.804C124.957 165.49 121.193 162.461 115.778 162.737C113.523 162.721 111.341 163.535 109.648 165.025C107.955 166.514 106.87 168.575 106.599 170.814C106.267 168.625 105.155 166.63 103.469 165.197C101.782 163.763 99.634 162.987 97.4204 163.012C92.3721 163.012 88.2417 165.949 88.2417 170.172C87.8817 167.773 86.7272 165.565 84.9632 163.901C83.1991 162.237 80.9275 161.213 78.5123 160.993C73.464 160.35 69.3335 163.104 70.3432 167.418C69.7573 165.015 68.4949 162.829 66.7055 161.121C64.9161 159.413 62.6747 158.254 60.2466 157.78C55.2901 156.679 51.8022 159.157 52.6283 163.471C51.8475 161.048 50.4859 158.853 48.662 157.077C46.8381 155.301 44.6075 153.999 42.1646 153.283C37.2998 151.722 34.0873 153.833 35.097 158.147C34.0873 153.833 23.2564 135.66 22.0632 132.998C18.8506 125.563 12.8845 123.268 7.46903 128.041C6.16487 129.465 5.25791 131.207 4.83905 133.092C4.4202 134.976 4.50418 136.938 5.08257 138.78C1.68644 137.862 -0.0575119 139.515 1.22751 143.094C8.01975 163.104 14.812 183.297 20.411 203.674C21.9679 213.4 26.0509 222.547 32.2516 230.2C37.39 234.659 43.2585 238.199 49.5993 240.664C67.6426 247.805 86.9221 251.299 106.324 250.944C128.227 251.174 149.861 246.104 169.382 236.166C176.43 232.918 182.115 227.298 185.444 220.287C190.309 207.988 193.889 195.046 197.652 182.746C201.966 168.703 205.178 153.833 210.686 140.708C212.063 136.669 209.492 135.201 205.087 137.679Z" fill="#48A2AD"/>
    <path d="M105.681 194.04C159.101 194.04 202.517 176.6 202.517 155.122C202.517 133.644 159.193 116.204 105.681 116.204C52.1695 116.204 8.84595 133.644 8.84595 155.122C8.84595 176.6 52.1695 194.04 105.681 194.04Z" fill="url(#paint0_radial_18_1065)"/>
    <path d="M187.922 99.5869C185.938 97.5969 183.682 95.8973 181.222 94.5386C181.222 94.5386 119.541 114.548 76.5847 112.437C33.6283 110.326 39.8698 105.553 18.2081 119.321C18.2081 119.321 12.2419 127.857 19.4931 133.089C30.1875 140.287 41.8761 145.884 54.1886 149.703C55.4556 148.616 57.0253 147.943 58.6862 147.775C99.6232 133.64 179.294 151.722 187.922 99.5869Z" fill="url(#paint1_linear_18_1065)"/>
    <path d="M187.831 99.5898C179.203 151.633 99.6233 133.643 58.6863 147.87C56.9976 148.037 55.3983 148.708 54.0969 149.797C87.1403 160.445 127.527 162.648 154.512 153.652C188.381 142.363 203.71 115.653 187.831 99.5898Z" fill="#EB5E8E"/>
    <path d="M170.391 61.1318C174.28 63.9585 177.395 67.7188 179.448 72.0659C181.501 76.413 182.427 81.2071 182.14 86.0061C182.14 104.364 167.179 127.127 101 120.518C34.8217 113.909 18.3918 119.508 18.3918 119.508C18.3918 119.508 -1.70956 91.9723 40.2372 91.9723C77.8699 91.9723 133.768 96.5617 146.894 88.209C166.628 76.0931 167.362 75.726 170.391 61.1318Z" fill="url(#paint2_linear_18_1065)"/>
    <path d="M94.0243 47.8217C114.309 35.155 113.3 16.6141 103.203 0.918457C102.644 1.21341 102.213 1.70415 101.993 2.29682C101.773 2.88949 101.779 3.54251 102.01 4.13101C103.508 6.72273 104.35 9.64163 104.462 12.6333C104.574 15.625 103.953 18.5987 102.652 21.2952C96.7779 29.556 86.0389 31.6671 68.3239 41.4884C50.609 51.3096 45.01 59.8458 43.8168 71.0438C43.8022 71.5657 43.9315 72.0815 44.1906 72.5348C44.4496 72.9881 44.8284 73.3614 45.2854 73.6139C48.817 75.2682 52.5074 76.5598 56.2998 77.4689C62.6331 62.783 80.4398 55.0729 94.0243 47.8217Z" fill="#F77CA5"/>
    <path d="M138.449 24.2303C129.379 14.3175 118.386 6.35404 106.14 0.824572C105.744 0.615578 105.303 0.506348 104.855 0.506348C104.407 0.506348 103.966 0.615578 103.57 0.824572C113.3 16.5202 114.401 34.9694 94.3915 47.7278C80.8988 54.4282 63.0003 62.6891 57.0342 77.375C65.1187 79.3765 73.3986 80.4846 81.7249 80.6794C107.701 81.4137 142.58 80.0368 148.546 69.8485C154.512 59.6601 149.188 35.7955 138.449 24.2303Z" fill="url(#paint3_linear_18_1065)"/>
    <path d="M168.372 57.6431C168.836 56.4189 169.204 55.1608 169.474 53.8799C163.536 46.7342 155.349 41.8154 146.252 39.9282C163.875 77.5609 71.904 69.3919 45.7447 70.9523C41.6078 70.9464 37.5302 71.9357 33.8559 73.8368C30.1817 75.7378 27.0186 78.4947 24.6337 81.8749C30.5729 79.2257 36.7109 77.0467 42.9911 75.3581C84.2035 65.5368 150.933 106.749 168.372 57.6431Z" fill="#F79EBC"/>
    <path d="M172.319 59.7543C171.813 57.6605 170.943 55.6721 169.749 53.8799C169.487 55.1736 169.087 56.4353 168.556 57.6432C150.932 106.749 84.2032 65.5368 43.0825 75.3581C36.8038 77.0514 30.6661 79.2302 24.7251 81.875C21.6964 86.5003 19.983 91.8624 19.7686 97.387C46.5705 89.2179 66.3965 97.387 117.981 98.2131C169.565 99.0391 175.99 75.1745 172.319 59.7543Z" fill="url(#paint4_linear_18_1065)"/>
    <path d="M205.087 152.367C200.173 154.709 196.311 158.8 194.256 163.841C195.541 159.619 192.604 157.875 187.831 159.619C185.396 160.519 183.18 161.925 181.329 163.744C179.478 165.564 178.034 167.755 177.092 170.174C178.101 166.044 174.981 164.024 170.024 165.401C167.539 165.933 165.235 167.101 163.336 168.79C161.438 170.48 160.01 172.633 159.193 175.039C159.928 171 156.531 168.705 151.483 169.623C149.103 170.014 146.889 171.09 145.112 172.72C143.335 174.351 142.072 176.464 141.478 178.802C141.937 174.855 138.266 172.193 133.217 172.744C130.944 172.834 128.764 173.676 127.02 175.137C125.275 176.599 124.066 178.598 123.58 180.821C123.58 176.874 119.908 173.937 114.86 174.029C109.812 174.121 105.681 177.425 105.681 181.372C105.29 179.234 104.153 177.304 102.472 175.925C100.791 174.547 98.676 173.81 96.5026 173.846C91.4543 173.846 87.3239 176.507 87.3239 180.454C86.868 178.282 85.733 176.31 84.0831 174.825C82.4331 173.34 80.3536 172.419 78.1452 172.193C73.0969 171.551 68.9665 174.121 69.7926 178.16C69.2056 175.834 67.9565 173.73 66.197 172.1C64.4374 170.471 62.2429 169.387 59.8796 168.981C54.923 167.971 51.4351 170.174 52.1694 174.213C51.405 171.851 50.0651 169.717 48.2705 168.003C46.4759 166.288 44.283 165.047 41.8893 164.391C37.0246 162.923 33.812 164.85 34.7299 168.981C33.8397 166.555 32.4476 164.345 30.6444 162.494C28.8413 160.644 26.6678 159.195 24.2662 158.242C19.4932 156.406 16.556 158.242 17.7493 162.372C15.7548 157.309 11.9641 153.159 7.10196 150.715C2.42081 148.42 -0.24101 149.889 1.1358 154.203C6.73481 167.237 10.3145 181.739 14.2614 195.415C17.7547 207.487 21.8599 219.374 26.5608 231.029C28.2079 234.252 30.4743 237.12 33.2305 239.466C35.9868 241.813 39.1786 243.593 42.6236 244.705C62.6035 252.67 83.9966 256.48 105.498 255.903C124.722 256.357 143.889 253.627 162.222 247.826C168.459 246.015 174.33 243.126 179.57 239.29C185.879 232.441 190.029 223.885 191.502 214.691C197.193 194.773 203.985 175.406 210.686 155.855C212.154 151.725 209.584 150.256 205.087 152.367Z" fill="url(#paint5_linear_18_1065)"/>
  </g>
  <defs>
    <radialGradient id="paint0_radial_18_1065" cx="0" cy="0" r="1" gradientUnits="userSpaceOnUse" gradientTransform="translate(87.0018 168.408) rotate(90) scale(57.3669 89.8596)">
      <stop offset="0.47" stop-color="#7A4C33"/>
      <stop offset="1" stop-color="#52423C"/>
    </radialGradient>
    <linearGradient id="paint1_linear_18_1065" x1="15.9134" y1="122.166" x2="187.922" y2="122.166" gradientUnits="userSpaceOnUse">
      <stop stop-color="#FF85AE"/>
      <stop offset="0.32" stop-color="#FF7DA9"/>
      <stop offset="0.82" stop-color="#FF669A"/>
      <stop offset="1" stop-color="#FF5C93"/>
    </linearGradient>
    <linearGradient id="paint2_linear_18_1065" x1="13.7107" y1="91.4216" x2="182.14" y2="91.4216" gradientUnits="userSpaceOnUse">
      <stop stop-color="#FFB0CB"/>
      <stop offset="0.79" stop-color="#F383A9"/>
      <stop offset="1" stop-color="#F0769F"/>
    </linearGradient>
    <linearGradient id="paint3_linear_18_1065" x1="86.865" y1="40.752" x2="155.522" y2="40.752" gradientUnits="userSpaceOnUse">
      <stop stop-color="#F697B7"/>
      <stop offset="0.34" stop-color="#F78FB2"/>
      <stop offset="0.86" stop-color="#F878A3"/>
      <stop offset="1" stop-color="#F9719F"/>
    </linearGradient>
    <linearGradient id="paint4_linear_18_1065" x1="19.8604" y1="76.0006" x2="173.145" y2="76.0006" gradientUnits="userSpaceOnUse">
      <stop stop-color="#F78FB2"/>
      <stop offset="0.27" stop-color="#F887AD"/>
      <stop offset="0.7" stop-color="#FC709F"/>
      <stop offset="1" stop-color="#FF5C93"/>
    </linearGradient>
    <linearGradient id="paint5_linear_18_1065" x1="105.957" y1="167.42" x2="105.957" y2="246.174" gradientUnits="userSpaceOnUse">
      <stop stop-color="#4FE8FF"/>
      <stop offset="0.5" stop-color="#4BDDF3"/>
      <stop offset="1" stop-color="#45CEE3"/>
    </linearGradient>
    <clipPath id="clip0_18_1065">
      <rect width="212" height="256" fill="#EBEBEB"/>
    </clipPath>
  </defs>
</svg>
