<svg xmlns="http://www.w3.org/2000/svg" width="256" height="222" fill="none" viewBox="0 0 256 222"><g fill="#ebebeb" clip-path="url(#a)"><path d="M69.154 140.083c24.363-1.58 50.097 1.435 67.62 10.66 18.131 9.544 25.86 24.712 24.605 39.31-1.185 13.762-10.494 26.224-24.145 30.023l-.649.176c-20.67 5.282-42.33-9.808-44.742-30.882l-.1-1.007-.028-.43a8.381 8.381 0 0 1 16.681-1.41l.047.43.053.524c1.275 11.011 13.149 19.29 23.939 16.534l.597-.166c6.145-1.861 11.013-7.867 11.646-15.229.602-6.986-2.706-16.195-15.712-23.042-13.616-7.168-35.784-10.252-58.725-8.763-22.942 1.488-44.522 7.412-57.097 16.28l-.36.239a8.382 8.382 0 0 1-9.3-13.936l1.544-1.057c16.209-10.746 40.526-16.721 64.126-18.254m145.185-96.81c22.347.775 42.016 18.637 41.656 41.998l-.032 1.134c-.542 12.672-5.359 23.755-14.129 31.901-8.687 8.072-20.634 12.694-34.558 13.789-7.631.599-17.79-1.323-28.595-3.382-11.314-2.157-24.637-4.774-40.084-6.403-30.272-3.196-68.668-2.583-113.805 13.348l-2.157.77a8.381 8.381 0 0 1-5.703-15.76l2.289-.82c48-16.938 88.992-17.601 121.136-14.207 16.252 1.715 30.256 4.471 41.463 6.606 11.714 2.232 19.279 3.519 24.139 3.138 11.063-.87 19.147-4.416 24.468-9.357 5.239-4.867 8.419-11.65 8.79-20.34l.018-.642c.194-13.202-11.145-24.528-25.449-25.022l-.697-.016c-13.271-.13-23.484 8.136-26.117 21.145a8.382 8.382 0 0 1-16.43-3.326c4.23-20.887 21.407-34.79 42.715-34.578z"/><path d="M104.218 34.448c1.139-20.22 19.81-36.554 40.385-33.602l.754.119c15.805 2.633 26.342 15.978 27.839 30.488 1.59 15.397-6.777 31.442-26.459 39.959-33.134 14.336-41.972 13.195-104.078 27.772l-6.18 1.46-.423.091a8.38 8.38 0 0 1-9.658-6.306 8.38 8.38 0 0 1 5.783-9.98l.415-.111 6.37-1.503c63.906-15.011 69.717-13.22 101.118-26.808 13.628-5.895 17.206-15.425 16.441-22.855-.811-7.835-6.282-14.224-13.592-15.616l-.713-.119c-10.386-1.492-20.65 7.08-21.267 17.933l-.023.517-.023.433a8.381 8.381 0 0 1-16.732-.478v-.428z"/></g><defs><clipPath id="a"><path fill="#ebebeb" d="M0 .5h256v221H0z"/></clipPath></defs></svg>
