<svg xmlns="http://www.w3.org/2000/svg" width="256" height="256" fill="none" viewBox="0 0 256 256">
  <g clip-path="url(#a)">
    <path fill="#f8dc3d" d="M0 0h256v256H0z"/>
    <path fill="#f7df1e" d="M0 0h256v256H0"/>
    <path fill="#000" d="M171.5 200q8.5 14.5 22.5 14.5 17.5 0 17.5-13.5c0-5.5-7.5-10.5-19.5-15.5q-33.5-11-33-37.5c0-18 13.5-32 35-32q24 0 34 19.5l-18.5 12q-6-11-15.5-10.5-11 .5-11.5 10.5c0 7 4.5 10 19.5 16.5 21.5 8.5 33.5 18 33.5 38.5Q234 235 196 236q-31.5 0-44.5-24.5zm-85 2c4 6.5 6.5 12.5 16.5 12.5q12 0 12-15v-83h24v82q-.5 35.5-36 36-26.5-.5-36-22z"/>
  </g>
  <defs>
    <clipPath id="a">
      <path fill="#ebebeb" d="M0 0h256v256H0z"/>
    </clipPath>
  </defs>
</svg>
