<svg xmlns="http://www.w3.org/2000/svg" width="195" height="256" fill="none" viewBox="0 0 195 256">
  <g clip-path="url(#a)">
    <path fill="#ebebeb" d="M51.214 0 24.3 37.909v21.43L.878 70.478l-.211-.1v139.803l91.315 43.14 5.58 2.635 5.58-2.635 91.317-43.14V70.379l-.172.08-23.43-11.143V37.91l-.819-1.153L143.941 0l-26.916 37.909v.038L97.44 10.363 78.006 37.734l-.695-.978zm4.762 22.02 10.41 14.662H36.043l10.289-14.49zm92.727 0 10.41 14.662h-30.344l10.288-14.49zm-46.502 10.364 10.411 14.66H82.269l10.288-14.49zM33.165 44.071h14.392v48.46l-14.392-6.8zm21.78 0h14.32l-.002 58.714-14.319-6.765zm70.946 0h14.393l-.002 51.9-14.39 6.798zm21.78 0h14.319v41.644l-14.319 6.765zm-68.28 10.363h14.391v59.933l-14.391-6.799zm21.78 0h14.319l-.001 53.25-14.319 6.765zm69.685 15.926 12.671 5.18-12.671 5.986zM24.3 70.379v11.164l-12.67-5.985zM11.826 87.994l80.156 37.866v115.118l-80.156-37.865zm171.472 0v115.119l-80.156 37.865V125.86z"/>
  </g>
  <defs>
    <clipPath id="a">
      <path fill="#ebebeb" d="M.667 0h193.85v256H.667z"/>
    </clipPath>
  </defs>
</svg>
