<svg xmlns="http://www.w3.org/2000/svg" width="257" height="101" fill="none" viewBox="0 0 257 101">
  <g fill="#850000" clip-path="url(#a)">
    <path d="M139.946 1.117c-3.352.14-9.016 1.04-9.016 1.42 0 .158 3.992 2.158 4.298 2.158.28 0 4.914 2.312 5.944 2.952 1.344.86 2.306 1.64 2.024 1.64-.18 0-4.938-1.842-6.742-2.616-1.468-.618-7.57-2.438-10.54-3.14-1.608-.376-2.288-.516-5.022-1.016-4.032-.736-8.774-.78-10.836-.102-2.954.96-3.618 2.14-3.618 6.492 0 2.4.118 3.414.64 5.57.228.938.868 3 1.166 3.696.086.22.366.9.6 1.5.242.594.97 2.132 1.61 3.39 3.594 7.134 8.976 13.08 16.562 18.312 2.392 1.64 8.892 4.75 11.5 5.494.664.18.884.554.344.554-.6 0-6.1-1.516-7.226-1.992q-.643-.284-1.304-.524c-3.914-1.578-8.914-4.828-13.048-8.524a42.8 42.8 0 0 1-10.624-14.514c-1.586-3.58-2.664-7.75-2.93-11.384-.156-2.078-.32-2.578-.86-2.554-.18 0-1.89-.062-3.774-.164-5.124-.22-12.124.344-19.054 1.54-13.25 2.256-27.546 7.468-42.258 15.412a190 190 0 0 0-7.25 4.134c-.28.164-1.164.702-1.968 1.202-.798.5-1.742 1.056-2.086 1.274-.76.446-9.172 6.156-10.18 6.914-.376.274-1.422 1.054-2.304 1.696C10 42.89 1.306 49.983.806 50.703c-.242.36.14.54.656.36.266-.104.946-.244 1.492-.32.562-.088 2.008-.462 3.21-.86 1.22-.384 2.532-.782 2.908-.884 2.976-.696 4.18-.938 5.92-1.196.79-.1 1.954-.28 2.61-.382 8.156-1.196 12.048-1.492 15.68-1.22 7.89.64 15.438 1.986 19.758 3.516 3.234 1.164 9.812 4.72 12.704 6.852 1.672 1.26 7.046 6.61 8.234 8.226.92 1.282 1.944 2.4 2.186 2.4.08 0 .18-4.08.204-9.048l.054-9.024 10.564-.06c8.312-.04 10.616.022 10.758.2.202.26.686 1.12 2.272 4.048 1.508 2.82 2.25 4.18 2.712 4.992.24.446.796 1.478 1.266 2.298.436.82 1.256 2.336 1.82 3.374.562 1.04 1.022 1.922 1.022 1.96 0 .18.828 1.26.97 1.26.078 0 .28-.306.42-.64.158-.36.58-1.158.924-1.76.36-.6 1-1.772 1.444-2.592.446-.82 1.048-1.96 1.368-2.5.882-1.58 1.804-3.29 2.57-4.688a168 168 0 0 1 2.508-4.596c.258-.5.58-1.024.68-1.156.164-.18 2.53-.242 11.086-.204l10.86.062.06 17.634c.04 13.89.096 17.61.3 17.61.116-.024.92-.486 1.748-1.064 1.164-.812 1.664-1.312 2.204-2.234 1.226-2.094 4.702-5.39 7.03-6.672a33.1 33.1 0 0 1 9.032-3.388c3.21-.68 4.156-.78 11.446-1.04 13.304-.46 15.272-.54 15.374-.64.062-.054-.116-.578-.382-1.18-.28-.578-.76-1.656-1.102-2.374-1.266-2.734-1.266-3.65.062-4.992.9-.94 3.226-1.76 7.226-2.556.658-.14 1.486-.32 1.82-.436.346-.102.766-.18.946-.18.508 0 4.5-.978 5.344-1.298.58-.24 3.712-.92 7.446-1.64 1.624-.32 5.844-1.156 9.336-1.86 2.21-.436 4.516-.898 5.116-1.016.602-.116 1.47-.296 1.908-.374.444-.1 1.022-.226 1.304-.266.28-.054 1.688-.336 3.116-.632a67 67 0 0 1 3.228-.626c1.008-.094 8.578-1.914 10.32-2.476 2.774-.9 3.594-1.258 5.344-2.43 1.882-1.28 2.406-1.976 4.272-5.696 2.072-4.132 2.368-4.828 2.954-6.57.9-2.772.844-3.828-.304-4.992-.806-.796-2.532-1.616-3.79-1.796-.944-.118-1.07-.08-1.53.42-.282.3-.524.658-.524.782 0 .18-.32 1.056-1.22 3.212-.086.22-.264.758-.406 1.194-.116.446-.36 1.064-.5 1.4-.258.56-.28.46-.18-1.094.102-1.54.36-2.836.946-4.798.102-.374.242-1.014.298-1.414l.1-.72-2.086-.834c-2.17-.9-4.04-1.68-5.116-2.164-.368-.132-1.266-.492-2.008-.774-.766-.28-1.688-.64-2.07-.82q-1.044-.463-2.11-.874c-1.344-.524-6.04-2.118-10.04-3.376a908 908 0 0 0-8.022-2.42q-1.414-.36-2.812-.776c-.32-.086-1.11-.304-1.712-.46-3.532-.976-4.452-1.22-5.72-1.58a53 53 0 0 0-2.108-.56c-.382-.094-1.42-.336-2.304-.556-1.548-.382-8.032-1.874-11.548-2.68l-2.508-.578c-.444-.1-1.24-.258-1.804-.36-.546-.1-1.688-.32-2.516-.5-.82-.154-2.586-.5-3.914-.718-1.32-.234-2.906-.514-3.508-.616-5.546-1-5.92-1.056-15.86-2.156-6.124-.696-14.36-1.282-16.366-1.18-.32 0-2.1.078-3.93.18m-23.21 9.842c5.304 1.72 10.46 4.056 13.992 6.336 2.812 1.814 6.304 4.712 7.25 6.008l.398.54-.758-.298c-.42-.18-1.304-.56-1.968-.882-3.532-1.64-3.914-1.774-3.914-1.414 0 .094.82 1.414 1.804 2.89 1.008 1.5 1.804 2.82 1.804 2.94 0 .1-.374-.064-.844-.384-1.804-1.236-6.04-3.016-6.28-2.656-.062.1 1.24 1.756 2.914 3.694 1.64 1.938 3.008 3.594 3.008 3.72 0 .296-.32.256-1.844-.306-1.57-.554-1.968-.616-1.968-.234 0 .258 3.39 4.828 4.734 6.406.382.438.686.86.686.96 0 .478-4.702-2.576-8.03-5.21-4.76-3.796-9.36-8.89-11.78-13.1-1.994-3.44-2.674-5.29-2.674-7.33 0-1.194.056-1.436.5-1.86.26-.272.586-.5.704-.5.116 0 1.124.306 2.266.68m63.382 7.11c1.922.344 4.554.798 5.82 1.024 1.266.22 2.812.476 3.414.578.602.118 1.46.274 1.906.374.44.102 1.306.282 1.908.422 1.984.44 2.468.54 5.718 1.298 3.492.82 4.258.976 5.32 1.194.906.18 1.804.524 1.804.68 0 .064-.656.446-1.46.86-1.648.82-1.992.882-8.774 1.14-4.616.196-7.086.14-9.336-.22-4.54-.7-6.882-1.974-8.71-4.732-.64-.938-1.062-1.22-2.532-1.594-.54-.164-1.366-.384-1.804-.524-.446-.14-1.204-.36-1.688-.5-1.446-.374-.624-.594 2.29-.594 2.006 0 3.414.134 6.124.594m24.148 27.9a1.1 1.1 0 0 1-.5 0c-.14-.064-.04-.102.242-.102.274 0 .376.04.26.1zm-.866.234c0 .1-.234.24-.54.304-.624.156-3.07.86-3.874 1.116-.282.102-1.188.384-2.008.62-2.07.6-7.086 2.232-8.43 2.756-2.532.96-8.476 4.11-9.312 4.954-1.25 1.218-1.634 2.53-1.446 5.046.054 1.062.196 2.4.32 2.976.242 1.26.1 1.602-.382.978-.484-.618-1.508-2.852-1.806-3.954-.164-.492-.342-1.156-.444-1.476-.36-1.134-.22-2.478.344-3.29.758-1.164 3.492-3.016 6.702-4.554 1.524-.742 5.96-2.26 10.04-3.454.82-.24 1.726-.522 2.008-.6 2.89-.978 8.828-1.916 8.828-1.422m-63.492 1.342c-.064.056-.242.08-.384.016-.164-.054-.1-.116.118-.116.226-.024.344.04.266.1"/>
    <path d="M97.806 86.164v13.976h10c7.508 0 10.054-.06 10.234-.24.304-.3.368-27.712.062-27.712-.1 0-.24.156-.304.336-.08.18-2.266 3.594-4.876 7.586-4.132 6.312-5.28 7.85-5.28 7.07 0-.14-6.844-10.82-8.594-13.4a7.5 7.5 0 0 1-.618-1.055c-.164-.303-.36-.54-.46-.54-.086 0-.164 6.29-.164 13.979"/>
  </g>
  <defs>
    <clipPath id="a">
      <path fill="#ebebeb" d="M.04.5h256v100H.04z"/>
    </clipPath>
  </defs>
</svg>
