<svg xmlns="http://www.w3.org/2000/svg" width="256" height="222" fill="none" viewBox="0 0 256 222">
  <g fill="#ebebeb" clip-path="url(#a)">
    <path d="M69.154 140.084c24.363-1.581 50.097 1.435 67.62 10.66 18.131 9.544 25.86 24.711 24.605 39.31-1.185 13.762-10.494 26.224-24.145 30.023l-.649.175c-20.67 5.282-42.33-9.808-44.742-30.882l-.1-1.007-.028-.43a8.383 8.383 0 0 1 16.681-1.41l.047.431.053.523c1.275 11.011 13.149 19.291 23.939 16.535l.597-.166c6.145-1.861 11.013-7.868 11.646-15.23.602-6.986-2.706-16.195-15.712-23.042-13.616-7.168-35.784-10.252-58.725-8.762-22.942 1.487-44.522 7.412-57.097 16.279l-.36.239a8.382 8.382 0 0 1-9.3-13.935l1.544-1.057c16.209-10.747 40.526-16.721 64.126-18.254m145.185-96.81c22.347.774 42.016 18.637 41.656 41.998l-.032 1.134c-.542 12.671-5.359 23.755-14.129 31.9-8.687 8.073-20.634 12.694-34.558 13.79-7.631.599-17.79-1.324-28.595-3.383-11.314-2.157-24.637-4.774-40.084-6.403-30.272-3.195-68.668-2.583-113.805 13.348l-2.157.77a8.384 8.384 0 0 1-5.704-15.76l2.29-.82c48-16.937 88.992-17.6 121.136-14.206 16.252 1.715 30.256 4.471 41.463 6.605 11.714 2.232 19.279 3.519 24.139 3.139 11.063-.87 19.147-4.417 24.468-9.357 5.239-4.868 8.419-11.65 8.79-20.34l.018-.643c.194-13.202-11.145-24.527-25.449-25.021l-.697-.016c-13.271-.13-23.484 8.136-26.117 21.144a8.382 8.382 0 0 1-16.43-3.325c4.23-20.887 21.407-34.79 42.715-34.579z"/>
    <path d="M104.218 34.448c1.139-20.22 19.81-36.553 40.385-33.601l.754.118c15.805 2.633 26.342 15.979 27.839 30.488 1.59 15.398-6.777 31.442-26.459 39.959-33.134 14.336-41.972 13.195-104.078 27.773l-6.18 1.46-.423.091A8.382 8.382 0 0 1 32.18 84.45l.415-.112 6.37-1.503c63.906-15.01 69.717-13.22 101.118-26.807 13.628-5.895 17.206-15.425 16.441-22.855-.811-7.836-6.282-14.225-13.592-15.617l-.713-.118c-10.386-1.492-20.65 7.08-21.267 17.933l-.023.517-.023.433a8.381 8.381 0 0 1-16.732-.479v-.428z"/>
  </g>
  <defs>
    <clipPath id="a">
      <path fill="#ebebeb" d="M0 .5h256v221H0z"/>
    </clipPath>
  </defs>
</svg>
