<svg xmlns="http://www.w3.org/2000/svg" width="256" height="210" fill="none" viewBox="0 0 256 210">
  <path fill="#ebebeb" d="M100.142 115.858c.927-16.54 9.027-31.113 21.247-41.443 11.983-10.147 28.112-16.349 45.711-16.349 17.582 0 33.711 6.202 45.703 16.349 12.211 10.33 20.311 24.902 21.247 41.425.927 16.996-5.904 32.784-17.888 44.488-12.219 11.904-29.6 19.374-49.062 19.374s-36.877-7.47-49.088-19.374c-11.992-11.704-18.806-27.492-17.87-44.47"/>
  <path fill="#265787" d="M132.752 117.333c.476-8.487 4.632-15.964 10.902-21.265 6.149-5.206 14.425-8.388 23.455-8.388 9.021 0 17.297 3.182 23.451 8.388 6.265 5.301 10.421 12.778 10.901 21.256.476 8.721-3.029 16.822-9.178 22.827-6.27 6.108-15.188 9.941-25.174 9.941s-18.922-3.833-25.188-9.941c-6.153-6.005-9.649-14.106-9.169-22.818"/>
  <path fill="#ea7600" d="M78.208 134.768c.059 3.329 1.12 9.797 2.712 14.848 3.347 10.691 9.023 20.581 16.921 29.298 8.105 8.96 18.086 16.156 29.613 21.266 12.117 5.365 25.246 8.1 38.884 8.078 13.614-.018 26.743-2.807 38.86-8.213 11.528-5.159 21.5-12.387 29.591-21.351 7.894-8.753 13.561-18.662 16.916-29.353 1.687-5.402 2.753-10.884 3.18-16.385a74.7 74.7 0 0 0-.526-16.273c-1.502-10.57-5.159-20.488-10.79-29.528-5.15-8.308-11.789-15.58-19.682-21.702l.018-.013-79.66-61.166c-.072-.054-.131-.112-.207-.162-5.227-4.012-14.015-3.998-19.764.023-5.811 4.066-6.476 10.79-1.304 15.032l-.022.022 33.225 27.018-101.268.108h-.135c-8.37.01-16.417 5.5-18.009 12.441-1.637 7.07 4.048 12.936 12.751 12.967l-.013.032 51.329-.1L9.235 141.96c-.117.086-.243.176-.351.261-8.64 6.616-11.433 17.618-5.991 24.581 5.523 7.079 17.267 7.093 25.997.04l49.988-40.912s-.728 5.524-.67 8.838m128.452 18.495c-10.3 10.494-24.72 16.444-40.322 16.476-15.626.027-30.046-5.87-40.345-16.345-5.033-5.105-8.731-10.979-11.011-17.236a44.8 44.8 0 0 1-2.528-19.259c.545-6.437 2.461-12.576 5.519-18.13 3.005-5.461 7.143-10.395 12.252-14.57 10.012-8.158 22.759-12.575 36.09-12.593 13.345-.018 26.083 4.359 36.104 12.49 5.1 4.156 9.234 9.072 12.238 14.524a45.5 45.5 0 0 1 5.542 18.121 44.9 44.9 0 0 1-2.537 19.246c-2.285 6.275-5.969 12.149-11.002 17.276"/>
</svg>
