<svg xmlns="http://www.w3.org/2000/svg" width="257" height="108" fill="none" viewBox="0 0 257 108"><path fill="#ebebeb" d="M13.584 2.286v71.68c0 13.645 4.421 22.758 14.336 23.04 13.465-.589 15.027-10.01 15.104-22.272V2.286h11.264v71.68c-.307 18.56-5.683 32.384-26.624 33.024C6.142 107.451 1.85 91.4 1.808 74.222V2.542h11.776zm51.2 0h12.544L91.152 39.15l14.336-36.864h11.52L96.784 49.39l22.784 55.296h-13.312L89.872 62.19l-16.384 42.752h-11.52l22.528-53.504zm76.544 50.944h9.728c12.774.256 16.845-9.14 16.896-19.968 0-12.754-5.811-20.541-17.92-20.736h-8.96V53.23zM129.552 2.286h19.968c13.747-.612 22.912 4.915 28.16 16.128q1.152 2.688 1.536 6.144c.512 2.304.512 5.12.512 8.192q0 6.144-1.536 11.52c-1.024 3.584-2.56 6.912-4.864 9.728-5.863 6.758-14.285 8.909-22.016 8.96h-9.984v41.728h-11.776zM189.2 28.91h10.496v75.776H189.2zm11.008-26.624v13.056h-11.52V2.286zm11.52 26.624h9.728v11.52c.256-.768.768-2.048 1.536-3.584s1.792-3.072 3.072-4.352c1.28-1.536 3.072-2.816 4.864-3.84 2.048-1.024 4.352-1.536 7.168-1.536 16.896.768 16.384 17.203 16.384 29.44v48.128h-10.24V56.814c0-8.269-.41-18.79-9.472-19.968-2.816 0-4.864.768-6.656 2.56-1.536 1.792-2.816 3.84-3.584 6.144a39.6 39.6 0 0 0-1.536 7.936c-.256 2.816-.256 5.376-.256 7.424v43.776H212.24V28.91z"/></svg>
