<svg xmlns="http://www.w3.org/2000/svg" width="257" height="256" fill="none" viewBox="0 0 257 256"><path fill="#ebebeb" d="M.333 256V0h256v256zM16.071 59.803h44.066V15.738H16.07zm60.153 0h44.065V15.738H76.224zm59.803 0h44.066V15.738h-44.066zm60.153 0h44.416V15.738H196.18zM16.07 119.956h44.067V75.891H16.07zm60.154 0h44.065V75.891H76.224zm59.803 0h44.066V75.891h-44.066zm60.153 0h44.416V75.891H196.18zM16.07 179.76h44.067v-44.066H16.07zm60.154 0h44.065v-44.066H76.224zm59.803 0h44.066v-44.066h-44.066zm60.153 0h44.416v-44.066H196.18zM16.07 240.262h44.067v-44.765H16.07zm60.154 0h44.065v-44.765H76.224zm59.803 0h44.066v-44.765h-44.066zm60.153 0h44.416v-44.765H196.18z"/></svg>
