<svg xmlns="http://www.w3.org/2000/svg" width="257" height="256" fill="none" viewBox="0 0 257 256"><path fill="url(#a)" d="M184.085 61.766H61.096c0 30.66 24.808 55.47 55.468 55.47h22.626v21.902c0 30.66 24.818 55.481 55.479 55.481V72.352a10.596 10.596 0 0 0-10.584-10.586"/><path fill="url(#b)" d="M245.68 0H122.691c0 30.66 24.808 55.47 55.468 55.47h22.626v21.902c0 30.66 24.818 55.481 55.478 55.481V10.586A10.593 10.593 0 0 0 245.68 0"/><path fill="url(#c)" d="M123.138 123.074h-123c0 30.66 24.819 55.479 55.476 55.479h22.631v21.904c0 30.649 24.816 55.468 55.476 55.468V133.66a10.595 10.595 0 0 0-10.583-10.586"/><defs><linearGradient id="a" x1="192.111" x2="139.781" y1="61.904" y2="115.863" gradientUnits="userSpaceOnUse"><stop offset=".176" stop-color="#0052cc"/><stop offset="1" stop-color="#2684ff"/></linearGradient><linearGradient id="b" x1="253.706" x2="201.376" y1=".138" y2="54.097" gradientUnits="userSpaceOnUse"><stop offset=".176" stop-color="#0052cc"/><stop offset="1" stop-color="#2684ff"/></linearGradient><linearGradient id="c" x1="134.703" x2="74.197" y1="123.548" y2="182.414" gradientUnits="userSpaceOnUse"><stop offset=".176" stop-color="#0052cc"/><stop offset="1" stop-color="#2684ff"/></linearGradient></defs></svg>