<svg width="257" height="206" viewBox="0 0 257 206" fill="none" xmlns="http://www.w3.org/2000/svg">
<path d="M245.719 180.878L135.127 8.84708C134.014 7.11656 132.485 5.69316 130.679 4.7074C128.873 3.72164 126.848 3.20508 124.79 3.20508C122.733 3.20508 120.708 3.72164 118.902 4.7074C117.096 5.69316 115.567 7.11656 114.454 8.84708L3.86265 180.878C2.66911 182.734 1.99752 184.878 1.91842 187.083C1.83932 189.289 2.35563 191.475 3.41311 193.412C4.47122 195.348 6.03117 196.964 7.92919 198.09C9.8272 199.215 11.9933 199.809 14.1999 199.809H235.383C239.879 199.809 244.015 197.355 246.17 193.408C247.227 191.471 247.743 189.286 247.664 187.081C247.584 184.876 246.913 182.734 245.719 180.878ZM124.791 38.2154L157.579 89.2178H124.791L100.215 113.794L85.6004 99.1792L124.791 38.2154Z" fill="white"/>
</svg>
