<svg width="237" height="256" viewBox="0 0 237 256" fill="none" xmlns="http://www.w3.org/2000/svg">
<path d="M235.075 55.3846L152.121 7.63078C152.121 7.63078 139.075 0 117.906 0C95.998 0 83.4441 7.87692 83.4441 7.87692L6.39795 51.9385L123.321 119.138V255.015L200.367 211.2C200.367 211.2 214.152 203.569 224.49 185.6C233.598 169.6 234.829 154.338 234.829 154.338L235.075 55.3846ZM109.783 77.5385C109.783 77.5385 127.013 74.3385 141.536 82.7077C156.059 91.0769 164.675 96 164.675 96C164.675 96 164.675 107.569 164.675 125.046C164.675 139.077 152.859 153.354 152.859 153.354V102.154L109.783 77.5385ZM177.967 190.031L152.859 204.308V190.769L172.306 179.692C190.767 166.4 193.967 146.462 193.967 139.815V79.2615L140.798 48.7385C140.798 48.7385 132.675 43.3231 118.152 43.3231C103.629 43.3231 95.7518 48.2462 95.7518 48.2462L77.0441 59.0769L65.2287 52.1846L91.0749 37.4154C91.0749 37.4154 101.167 31.7539 118.152 31.7539C133.659 31.7539 145.721 37.9077 145.721 37.9077L205.783 72.6154V138.831C206.029 148.677 201.352 173.538 177.967 190.031Z" fill="#005F9E"/>
<path d="M0.490234 95.9985L82.4595 143.014V157.045L35.6902 130.214L6.39793 146.952L82.4595 190.768V204.306L0.982542 157.537C1.2287 162.952 6.15177 179.937 15.7518 192.983C25.3518 206.275 36.4287 211.937 36.4287 211.937L111.752 255.26V126.029L0.490234 62.0293V95.9985Z" fill="#005F9E"/>
</svg>
