<svg width="256" height="230" viewBox="0 0 256 230" fill="none" xmlns="http://www.w3.org/2000/svg">
<g clip-path="url(#clip0_17_424)">
<path d="M157.414 142.961L152.522 151.45C151.049 154.008 148.321 155.584 145.368 155.584H107.898C104.945 155.584 102.217 154.008 100.744 151.45L95.8518 142.961H157.414ZM171.107 119.194L162.483 134.163H90.7829L82.1586 119.194H171.107ZM162.799 95.9536L171.121 110.397H82.1449L90.4664 95.9536H162.799ZM145.368 73.9834C148.321 73.9834 151.049 75.5596 152.522 78.117L157.731 87.1559H95.5353L100.744 78.117C102.217 75.5596 104.945 73.9834 107.898 73.9834H145.368Z" fill="#00435B"/>
<path d="M53.3628 70.0441C49.212 49.926 48.3212 34.4956 51.0043 23.291C52.6 16.6272 55.5174 11.1909 59.9535 7.26867C64.6369 3.12786 70.5582 1.09596 77.2115 1.09596C88.1873 1.09596 99.7256 6.09879 112.056 15.6028C117.086 19.4794 122.306 24.1519 127.727 29.6231C128.158 29.0679 128.646 28.5441 129.19 28.0601C144.516 14.4084 157.42 5.92637 168.456 2.65596C175.018 0.711381 181.18 0.526118 186.79 2.4134C192.713 4.40556 197.432 8.52362 200.761 14.2917C206.256 23.8112 207.705 36.3198 205.656 51.7647C204.821 58.0602 203.394 64.9178 201.377 72.3482C202.138 72.44 202.9 72.6087 203.656 72.8588C223.101 79.2999 236.871 86.2266 245.208 94.1425C250.168 98.8523 253.407 104.096 254.578 109.9C255.813 116.026 254.608 122.171 251.283 127.935C245.798 137.44 235.714 144.937 221.348 150.876C215.58 153.26 209.053 155.419 201.761 157.362C202.093 158.113 202.352 158.91 202.524 159.747C206.675 179.865 207.566 195.295 204.883 206.5C203.287 213.164 200.37 218.6 195.934 222.522C191.25 226.663 185.329 228.695 178.676 228.695C167.7 228.695 156.161 223.692 143.831 214.188C138.748 210.27 133.47 205.539 127.987 199.993C127.423 200.875 126.73 201.695 125.911 202.424C110.584 216.076 97.6809 224.558 86.6444 227.829C80.0821 229.773 73.9209 229.958 68.3102 228.071C62.3878 226.079 57.6689 221.961 54.3395 216.193C48.8449 206.673 47.3959 194.165 49.4444 178.72C50.3096 172.197 51.8109 165.07 53.9448 157.328C53.1107 157.244 52.2732 157.068 51.4449 156.793C31.999 150.352 18.2293 143.425 9.89274 135.509C4.93272 130.8 1.69376 125.556 0.522902 119.752C-0.712943 113.626 0.492102 107.481 3.81757 101.717C9.30195 92.2116 19.3861 84.7146 33.7523 78.7764C39.6927 76.321 46.4371 74.1041 53.9936 72.1174C53.7244 71.4586 53.5118 70.766 53.3628 70.0441Z" fill="#002B3B"/>
<path d="M188.958 161.724C190.891 161.381 192.744 162.62 193.175 164.521L193.199 164.634L193.405 165.704C200.089 200.827 195.381 218.389 179.281 218.389C163.528 218.389 143.476 203.403 119.123 173.432C118.585 172.77 118.295 171.941 118.302 171.088C118.32 169.101 119.915 167.497 121.889 167.454L122.003 167.453L123.286 167.462C133.534 167.518 143.496 167.161 153.173 166.391C164.596 165.482 176.524 163.926 188.958 161.724ZM78.3882 135.174L78.45 135.278L79.0934 136.401C84.2501 145.362 89.6227 153.867 95.2112 161.916C101.793 171.395 109.194 180.992 117.415 190.705C118.686 192.208 118.541 194.438 117.106 195.764L117.013 195.848L116.186 196.559C88.9863 219.855 71.3075 224.505 63.1497 210.511C55.1644 196.813 58.0595 171.906 71.835 135.79C72.1377 134.996 72.7066 134.332 73.4446 133.911C75.1693 132.927 77.356 133.495 78.3882 135.174ZM202.76 83.3468L202.871 83.383L203.895 83.7364C237.469 95.41 250.224 108.239 242.162 122.223C234.276 135.9 211.352 145.857 173.389 152.096C172.543 152.236 171.674 152.074 170.934 151.639C169.187 150.613 168.604 148.365 169.631 146.619C175.068 137.374 179.965 128.175 184.322 119.023C189.263 108.643 193.9 97.5012 198.233 85.5982C198.89 83.7936 200.82 82.8134 202.648 83.3143L202.76 83.3468ZM84.1663 77.4693C85.9132 78.4958 86.4968 80.7434 85.4698 82.4895C80.0325 91.7343 75.1354 100.933 70.7785 110.086C65.8373 120.466 61.2002 131.607 56.8673 143.51C56.1969 145.352 54.2012 146.335 52.3407 145.762L52.2293 145.725L51.2055 145.372C17.6319 133.698 4.8764 120.87 12.939 106.886C20.8245 93.2088 43.7487 83.251 81.7115 77.012C82.5581 76.8729 83.4267 77.0347 84.1663 77.4693ZM191.951 19.9729C199.936 33.671 197.041 58.578 183.266 94.6938C182.963 95.4874 182.394 96.1514 181.656 96.5725C179.931 97.5564 177.745 96.9882 176.712 95.3095L176.651 95.2053L176.007 94.0828C170.851 85.1218 165.478 76.6168 159.889 68.5676C153.308 59.0884 145.907 49.4921 137.686 39.7789C136.414 38.2762 136.559 36.0458 137.994 34.7193L138.088 34.6359L138.915 33.9243C166.114 10.6292 183.793 5.97873 191.951 19.9729ZM77.1958 11.6367C92.9482 11.6367 113.001 26.6221 137.353 56.5928C137.891 57.255 138.182 58.084 138.175 58.937C138.157 60.9242 136.561 62.5284 134.587 62.5715L134.473 62.5722L133.191 62.5631C122.943 62.5076 112.981 62.8647 103.304 63.6346C91.8807 64.5433 79.9524 66.0989 67.519 68.3013C65.5856 68.6438 63.7328 67.4048 63.3011 65.5039L63.2773 65.3914L63.0713 64.3216C56.3875 29.1984 61.0957 11.6367 77.1958 11.6367Z" fill="#FF4154"/>
<path d="M110.91 74.4419H142.363C146.963 74.4419 151.211 76.901 153.501 80.8887L169.294 108.394C171.566 112.351 171.566 117.216 169.294 121.173L153.501 148.679C151.211 152.666 146.963 155.126 142.363 155.126H110.91C106.31 155.126 102.061 152.666 99.7718 148.679L83.9789 121.173C81.707 117.216 81.707 112.351 83.9789 108.394L99.7718 80.8887C102.061 76.901 106.31 74.4419 110.91 74.4419ZM137.569 82.7437C142.171 82.7437 146.422 85.2054 148.711 89.1964L159.723 108.4C161.991 112.354 161.991 117.213 159.723 121.167L148.711 140.371C146.422 144.362 142.171 146.824 137.569 146.824H115.704C111.101 146.824 106.851 144.362 104.562 140.371L93.5494 121.167C91.282 117.213 91.282 112.354 93.5494 108.4L104.562 89.1964C106.851 85.2054 111.101 82.7437 115.704 82.7437H137.569ZM132.402 91.8239H120.87C116.273 91.8239 112.026 94.2806 109.736 98.2651L103.916 108.389C101.64 112.349 101.64 117.219 103.916 121.179L109.736 131.302C112.026 135.287 116.273 137.744 120.87 137.744H132.402C137 137.744 141.247 135.287 143.537 131.302L149.357 121.179C151.633 117.219 151.633 112.349 149.357 108.389L143.537 98.2651C141.247 94.2806 137 91.8239 132.402 91.8239ZM127.427 100.515C132.021 100.515 136.265 102.968 138.557 106.948L139.382 108.381C141.665 112.344 141.665 117.223 139.382 121.187L138.557 122.62C136.265 126.599 132.021 129.053 127.427 129.053H125.846C121.252 129.053 117.007 126.599 114.716 122.62L113.891 121.187C111.608 117.223 111.608 112.344 113.891 108.381L114.716 106.948C117.007 102.968 121.252 100.515 125.846 100.515H127.427ZM126.638 109.076C124.594 109.076 122.708 110.164 121.687 111.93C120.666 113.696 120.666 115.872 121.687 117.637C122.708 119.403 124.594 120.491 126.634 120.491C128.679 120.491 130.565 119.403 131.586 117.637C132.606 115.872 132.606 113.696 131.586 111.93C130.565 110.164 128.679 109.076 126.638 109.076ZM80.3104 114.784H90.591H80.3104Z" fill="#FFD94C"/>
</g>
<defs>
<clipPath id="clip0_17_424">
<rect width="256" height="229" fill="white" transform="translate(0 0.5)"/>
</clipPath>
</defs>
</svg>
