<svg xmlns="http://www.w3.org/2000/svg" width="257" height="256" fill="none" viewBox="0 0 257 256">
  <g clip-path="url(#a)">
    <path fill="#fdbb11" d="M189.331 116.772a123 123 0 0 1-5.121 10.686 127.9 127.9 0 0 0-83.732-47.826 132 132 0 0 0-16.882-1.088 127.6 127.6 0 0 0-81.594 29.341 128 128 0 0 1 20.89-52.292 128.1 128.1 0 0 1 41.314-38.28 128.16 128.16 0 0 1 109.538-9.056c4.985 1.902 9.851 4.1 14.574 6.581a131 131 0 0 1 6.678 18.898 127.3 127.3 0 0 1-5.665 83.036"/>
    <path fill="#61c2d9" d="M173.8 247.747a128.15 128.15 0 0 1-109.6-9.08 128.1 128.1 0 0 1-41.312-38.332A128 128 0 0 1 2.04 147.989a124 124 0 0 1-1.407-13.574A127.55 127.55 0 0 1 71.91 84.939a131 131 0 0 1 16.582-3.281 124 124 0 0 1 11.667-.994 127.94 127.94 0 0 0 1.324 97.984 128.04 128.04 0 0 0 70.273 68.331l2.157.843z"/>
    <path fill="#ec366d" d="M256.576 128.021a127.65 127.65 0 0 1-12.172 54.521 127.7 127.7 0 0 1-34.29 44.113 95 95 0 0 1-13.13 9.487 129 129 0 0 1-89.548-50.152 121 121 0 0 1-6.696-9.767 128.03 128.03 0 0 0 84.716-49.175 127.9 127.9 0 0 0 25.127-94.642q-.206-1.481-.431-2.963a127.8 127.8 0 0 1 34.251 44.095 127.7 127.7 0 0 1 12.173 54.483"/>
    <path fill="url(#b)" d="M256.557 128.023a127.6 127.6 0 0 1-12.161 54.519 127.7 127.7 0 0 1-34.282 44.115 98 98 0 0 1-13.13 9.487 129.1 129.1 0 0 1-49.979-15.791 129 129 0 0 1-39.568-34.361 130 130 0 0 1-6.716-9.749 128.13 128.13 0 0 0 89.925-5.09 128.04 128.04 0 0 0 64.336-63.003V108a128.6 128.6 0 0 1 1.575 20.023"/>
    <path fill="#61c3da" d="M60 167.393a128.15 128.15 0 0 0 23.427 80.392 127.87 127.87 0 0 1-58.696-44.762A127.77 127.77 0 0 1 .576 133.29v1.031A128.2 128.2 0 0 1 38.97 98.802a128.3 128.3 0 0 1 49.39-17.238c3.902-.525 7.785-.844 11.668-.994a128.3 128.3 0 0 0-40.122 86.823z"/>
    <path fill="url(#c)" d="M60 167.393a128.15 128.15 0 0 0 23.427 80.392 127.87 127.87 0 0 1-58.696-44.762A127.77 127.77 0 0 1 .576 133.29v1.031A128.2 128.2 0 0 1 38.97 98.802a128.3 128.3 0 0 1 49.39-17.238c3.902-.525 7.785-.844 11.668-.994a128.3 128.3 0 0 0-40.122 86.823z"/>
    <path fill="url(#d)" d="M189.331 116.772a125 125 0 0 1-5.12 10.668 127.96 127.96 0 0 0-50.09-74.883 128.07 128.07 0 0 0-87.045-23.339 127.98 127.98 0 0 1 141.243-14.361 131 131 0 0 1 6.677 18.898 127.43 127.43 0 0 1-5.665 83.017"/>
  </g>
  <defs>
    <linearGradient id="b" x1="251.062" x2="57.995" y1="163.195" y2="231.572" gradientUnits="userSpaceOnUse">
      <stop stop-color="#ec366d"/>
      <stop offset="1" stop-color="#bd163b"/>
    </linearGradient>
    <linearGradient id="c" x1="33.458" x2="89.773" y1="219.344" y2="29.916" gradientUnits="userSpaceOnUse">
      <stop stop-color="#5fc1d8"/>
      <stop offset="1" stop-color="#36a3be"/>
    </linearGradient>
    <linearGradient id="d" x1="75.606" x2="263.116" y1=".007" y2="136.019" gradientUnits="userSpaceOnUse">
      <stop stop-color="#fcb60f"/>
      <stop offset="1" stop-color="#fc9702"/>
    </linearGradient>
    <clipPath id="a">
      <path fill="#ebebeb" d="M.576 0h256v256h-256z"/>
    </clipPath>
  </defs>
</svg>
