<svg width="257" height="257" viewBox="0 0 257 257" fill="none"
  xmlns="http://www.w3.org/2000/svg">
  <g clip-path="url(#clip0_81_1677)">
    <path d="M128 1.00098C198.692 1.00111 256 58.3078 256 129C256 199.692 198.692 257 128 257H118.154V237.308H128C187.816 237.307 236.307 188.816 236.308 129C236.307 69.1835 187.816 20.6925 128 20.6924C68.1837 20.6925 19.6926 69.1835 19.6924 129V257H0.000976562V129C0.00121006 58.3078 57.3079 1.00111 128 1.00098ZM128 40.3848C177.124 40.385 216.614 80.9487 216.614 130.575C216.614 180.201 177.124 220.765 128 220.766H118.153V201.073H128C165.882 201.073 196.923 169.694 196.923 130.575C196.923 91.4549 165.882 60.0764 128 60.0762C90.1179 60.0764 59.0762 91.4549 59.0762 130.575V256.999H39.3848V130.575C39.3848 80.9486 78.8764 40.385 128 40.3848ZM128 79.9805C155.189 79.9806 177.23 102.022 177.23 129.211C177.23 156.4 155.189 178.441 128 178.441C100.811 178.441 78.7695 156.4 78.7695 129.211C78.7697 102.022 100.811 79.9805 128 79.9805Z" fill="#155DFC"/>
  </g>
  <defs>
    <clipPath id="clip0_81_1677">
      <rect width="256" height="256" fill="#EBEBEB" transform="translate(0.212891 0.5)"/>
    </clipPath>
  </defs>
</svg>
