<svg width="256" height="250" viewBox="0 0 256 250" fill="none"
  xmlns="http://www.w3.org/2000/svg">
  <g clip-path="url(#clip0_21_1978)">
    <path d="M45.2233 0H210.179C235.181 0 255.402 20.221 255.402 45.2233V203.804C255.402 228.806 235.181 249.027 210.179 249.027H45.2233C20.221 249.027 0 228.806 0 203.804V45.2233C0 20.221 20.221 0 45.2233 0Z" fill="#001E36"/>
    <path d="M128.601 180.213H61.7112C60.5789 180.213 60.0129 179.591 60.0135 178.346V70.5415C59.9839 70.3339 60.0031 70.1224 60.0694 69.9234C60.1357 69.7245 60.2473 69.5437 60.3957 69.3954C60.544 69.2473 60.7248 69.1354 60.9237 69.0691C61.1224 69.0031 61.3343 68.9839 61.5418 69.0135H82.2538C82.4151 68.9907 82.5795 69.0058 82.734 69.0576C82.8888 69.1092 83.0292 69.1961 83.1445 69.3115C83.2596 69.4265 83.3466 69.5672 83.3981 69.7217C83.4499 69.8762 83.465 70.0406 83.4422 70.2022V158.822H132.166C133.185 158.822 133.581 159.332 133.354 160.35L130.299 178.685C130.292 178.936 130.227 179.181 130.109 179.402C129.991 179.622 129.824 179.813 129.62 179.959C129.305 180.122 128.956 180.209 128.601 180.213Z" fill="#65A8F9"/>
    <path d="M145.407 95.8374H163.912C164.414 95.8421 164.901 96.0102 165.3 96.3164C165.698 96.623 165.986 97.0508 166.118 97.5354C166.522 98.279 166.809 99.0809 166.968 99.9121C167.204 101.004 167.374 102.11 167.477 103.223C167.588 104.411 167.645 105.684 167.647 107.043C170.82 103.347 174.647 100.268 178.936 97.9601C183.754 95.3547 189.164 94.0389 194.64 94.1401C194.848 94.1105 195.059 94.1293 195.258 94.1956C195.457 94.2619 195.638 94.3739 195.786 94.522C195.934 94.6703 196.046 94.8511 196.112 95.05C196.179 95.2489 196.198 95.4605 196.168 95.6681V116.21C196.168 117.003 195.602 117.399 194.47 117.398C187.632 116.975 180.791 118.198 174.522 120.964C172.392 121.885 170.461 123.211 168.835 124.868V178.686C168.835 179.705 168.382 180.214 167.477 180.214H146.935C146.704 180.247 146.469 180.226 146.248 180.152C146.026 180.078 145.826 179.954 145.661 179.789C145.496 179.625 145.372 179.424 145.299 179.203C145.225 178.982 145.204 178.747 145.237 178.516V120.115C145.237 117.626 145.209 114.995 145.152 112.221C145.094 109.448 145.009 106.704 144.897 103.987C144.822 101.654 144.595 99.3292 144.218 97.0261C144.176 96.8617 144.177 96.6893 144.222 96.5255C144.267 96.3618 144.353 96.2125 144.473 96.0922C144.593 95.9722 144.742 95.8855 144.906 95.8408C145.07 95.7961 145.242 95.7952 145.407 95.8374Z" fill="#65A8F9"/>
  </g>
  <defs>
    <clipPath id="clip0_21_1978">
      <rect width="256" height="250" fill="#EBEBEB"/>
    </clipPath>
  </defs>
</svg>
