<svg width="256" height="90" viewBox="0 0 256 90" fill="none" xmlns="http://www.w3.org/2000/svg">
<g clip-path="url(#clip0_17_432)">
<path d="M37.7184 5.61174H54.9114V62.96C55.038 67.7963 53.8142 72.5721 51.3773 76.7515C49.0079 80.6395 45.5823 83.774 41.4998 85.7898C36.9352 87.9979 31.9118 89.091 26.8424 88.9792C22.2156 89.0448 17.6262 88.1419 13.369 86.3287C9.46374 84.6549 6.14298 81.8599 3.82713 78.2977C1.47112 74.7106 0.29311 70.1871 0.29311 64.727H17.601C17.654 67.9872 18.5993 70.5317 20.437 72.334C22.3952 74.1942 25.0281 75.1739 27.7259 75.0464C34.3345 75.0464 37.6654 71.0176 37.7184 62.96V5.61174ZM93.0611 89.0588C86.8235 89.0588 81.4371 87.7276 76.9018 85.0653C72.394 82.4369 68.745 78.5578 66.3969 73.8978C63.8433 68.7278 62.5764 63.0174 62.7039 57.2526C62.5716 51.4618 63.8384 45.7245 66.3969 40.5278C68.7475 35.8696 72.3959 31.9912 76.9018 29.3603C81.8306 26.5989 87.4134 25.2192 93.0611 25.3669C98.7115 25.2203 104.297 26.5998 109.229 29.3603C113.733 31.9913 117.378 35.87 119.725 40.5278C122.286 45.7239 123.556 51.4611 123.427 57.2526C123.552 63.0182 122.282 68.7286 119.725 73.8978C117.381 78.5574 113.735 82.4368 109.229 85.0653C104.688 87.7335 99.2986 89.0646 93.0611 89.0588ZM112.622 5.61174V14.8885H73.5091V5.61174H112.622ZM93.1848 75.8062C97.0325 75.964 100.655 74.0237 102.659 70.7529L102.806 70.5051C104.985 66.9711 106.075 62.5153 106.075 57.1377C106.075 51.9394 105.049 47.5941 102.996 44.102L102.78 43.7438C100.809 40.3235 97.1021 38.281 93.1583 38.4428C89.2817 38.2783 85.6262 40.218 83.5861 43.5012L83.4397 43.7438C81.2427 47.2778 80.1442 51.7425 80.1442 57.1377C80.1442 62.3531 81.1707 66.6907 83.2237 70.1504L83.4397 70.5051C85.3975 73.8444 88.9953 75.8658 92.851 75.814L93.1848 75.8062ZM164.89 26.1709V39.0259H153.281V68.9413C153.281 71.2974 153.817 72.8877 154.889 73.7123C156.026 74.5324 157.391 74.9696 158.788 74.9649L159.068 74.958C159.874 74.959 160.678 74.8851 161.471 74.7371L163.317 74.4014L165.968 87.1327L165.309 87.3245C164.522 87.5464 163.55 87.7974 162.354 88.0692C160.699 88.4241 159.016 88.6389 157.326 88.7113L156.691 88.7318C150.477 89.0087 145.491 87.6657 141.733 84.7031C138.061 81.8077 136.208 77.4273 136.175 71.5617L136.176 39.0259H127.739V26.1709H136.176V11.3899H153.281V26.1709H164.89ZM191.13 89.0234C185.24 89.0234 180.354 87.4832 176.473 84.4027C172.591 81.3222 170.65 76.7309 170.65 70.6288C170.65 66.0287 171.734 62.4152 173.902 59.7882C176.151 57.1049 179.108 55.1061 182.436 54.019C186.109 52.7722 189.917 51.9713 193.781 51.6335C197.642 51.3271 201.479 50.7633 205.266 49.946C207.575 49.357 208.727 48.073 208.721 46.0939V45.8465C208.85 43.6212 207.974 41.4553 206.335 39.9447C204.733 38.5606 202.477 37.8655 199.568 37.8597C196.966 37.7238 194.389 38.4269 192.217 39.8652C190.469 41.1058 189.195 42.9033 188.603 44.963L172.78 43.682C173.835 38.2444 176.986 33.44 181.553 30.3057C186.23 27.0191 192.261 25.3728 199.647 25.3669C204.023 25.3325 208.372 26.0682 212.493 27.5403C216.286 28.8445 219.636 31.1898 222.159 34.308C224.609 37.3767 225.834 41.3583 225.834 46.253V87.8572H209.613V79.3049H209.136C207.584 82.2185 205.253 84.644 202.404 86.3111C199.417 88.1193 195.66 89.0234 191.13 89.0234ZM196.025 77.2109C199.41 77.3425 202.717 76.1727 205.266 73.942C207.532 71.9658 208.843 69.1206 208.88 66.1242L208.88 59.267C207.917 59.8378 206.866 60.2439 205.77 60.4685C204.356 60.8131 202.863 61.1135 201.264 61.352L199.725 61.5886C198.739 61.7437 197.83 61.891 196.988 62.0147C194.411 62.2949 191.932 63.1624 189.743 64.5503C187.926 65.7727 186.883 67.8586 186.995 70.0457C186.886 72.1307 187.844 74.1282 189.54 75.3467C191.35 76.5639 193.478 77.2131 195.654 77.2159L196.025 77.2109ZM246.821 18.22L246.517 18.2194C244.095 18.2589 241.755 17.3414 240.006 15.666C238.251 14.1171 237.255 11.8834 237.276 9.54334C237.256 7.20845 238.252 4.98034 240.006 3.43832C243.71 0.0785024 249.359 0.0785024 253.064 3.43832C254.817 4.98034 255.813 7.20845 255.794 9.54334C255.813 11.7898 254.896 13.9382 253.271 15.4769L253.064 15.666C251.377 17.2768 249.146 18.1867 246.821 18.22ZM237.956 87.8572V26.1709H255.06V87.8572H237.956Z" fill="white"/>
</g>
<defs>
<clipPath id="clip0_17_432">
<rect width="256" height="88.8265" fill="white" transform="translate(0 0.586914)"/>
</clipPath>
</defs>
</svg>
