<svg width="256" height="220" viewBox="0 0 256 220" fill="none" xmlns="http://www.w3.org/2000/svg">
<g clip-path="url(#clip0_18_962)">
<path d="M215.771 150.219C217.973 148.962 219.333 146.634 219.341 144.111L219.469 103.199C219.477 100.676 220.838 98.348 223.039 97.0913L245.347 84.3521C247.548 83.0959 250.255 83.1004 252.451 84.364C254.647 85.6276 256 87.9588 256 90.4814V164.86C256 167.391 254.638 169.728 252.43 170.989L168.239 219.062C166.051 220.31 163.361 220.313 161.171 219.069L95.0995 181.501C92.884 180.243 91.5163 177.901 91.5154 175.365V137.861C91.5154 137.819 91.5652 137.79 91.6079 137.812C91.6434 137.833 91.6932 137.812 91.6932 137.762V137.72C91.6932 137.692 91.7075 137.663 91.7359 137.649L146.152 106.572C146.201 106.543 146.18 106.466 146.123 106.466C146.092 106.466 146.066 106.44 146.066 106.409L146.173 69.6404C146.183 67.1097 144.832 64.7667 142.63 63.497C140.427 62.2273 137.711 62.2246 135.506 63.49L95.064 86.6568C92.8674 87.9142 90.1635 87.9142 87.9669 86.6568L47.3969 63.4334C45.1971 62.1742 42.489 62.1761 40.291 63.4385C38.093 64.7008 36.7386 67.0321 36.737 69.5556V136.009C36.7388 138.53 35.3902 140.861 33.1977 142.127C31.0051 143.393 28.3003 143.403 26.0985 142.152L3.58412 129.357C1.36415 128.096 -0.00426658 125.748 9.9946e-06 123.206L0.199137 7.05412C0.204652 4.5341 1.55914 2.20752 3.75438 0.947363C5.94961 -0.312795 8.65364 -0.31598 10.8519 0.939002L87.974 44.9749C90.167 46.2269 92.8639 46.2269 95.0569 44.9749L172.158 0.939002C174.359 -0.317859 177.068 -0.312645 179.264 0.952683C181.461 2.21801 182.812 4.55152 182.81 7.07533V123.256C182.811 125.785 181.453 128.123 179.248 129.385L138.87 152.502C136.662 153.767 135.304 156.11 135.31 158.643C135.316 161.176 136.685 163.513 138.898 164.768L161.171 177.373C163.361 178.612 166.047 178.607 168.232 177.358L215.771 150.219ZM220.443 46C220.445 48.5452 221.824 50.8929 224.052 52.1467C226.28 53.4005 229.014 53.3668 231.21 52.0586L252.544 39.3335C254.686 38.0574 255.998 35.7576 256 33.2749V7.34397C255.995 4.80002 254.616 2.45469 252.389 1.20263C250.161 -0.0494318 247.429 -0.0151192 245.233 1.29248L223.9 14.0176C221.757 15.2937 220.445 17.5934 220.443 20.0762V46.0071V46Z" fill="#007FFF"/>
</g>
<defs>
<clipPath id="clip0_18_962">
<rect width="256" height="220" fill="white"/>
</clipPath>
</defs>
</svg>
