<svg width="256" height="226" viewBox="0 0 256 226" fill="none"
  xmlns="http://www.w3.org/2000/svg">
  <g clip-path="url(#clip0_18_489)">
    <path fill-rule="evenodd" clip-rule="evenodd" d="M40.4905 38.8379H205.537V180.631H40.4905V38.8379Z" fill="#FEFEFE"/>
    <path fill-rule="evenodd" clip-rule="evenodd" d="M182.88 19.3521L189.281 47.1843L195.825 57.862L128.605 104.591L56.7787 57.6409L72.4422 41.6688L73.7823 23.5986L72.2663 19.3569L182.88 19.3521Z" fill="#C7764E"/>
    <path fill-rule="evenodd" clip-rule="evenodd" d="M11.9161 93.4346L37.5407 70.5771L45.5954 68.3901L73.1675 117.66L0.0605469 153.42L11.9161 93.4346Z" fill="#AA6B44"/>
    <path fill-rule="evenodd" clip-rule="evenodd" d="M254.898 153.289L177.305 123.358L206.84 63.0537L243.009 93.6251L254.898 153.289Z" fill="#AA6B44"/>
    <path fill-rule="evenodd" clip-rule="evenodd" d="M216.502 71.7525L218.852 54.7662L223.795 35.2373L226.335 12.6586L227.996 9.5127L233.021 12.4086L250.249 26.3428L243.009 93.6246L216.502 71.7525Z" fill="#BCAC9C"/>
    <path fill-rule="evenodd" clip-rule="evenodd" d="M38.5687 71.7334C30.661 80.1593 20.9602 86.3982 11.9173 93.4349C8.56479 71.1422 5.76661 48.7894 4.80737 26.2444C11.8137 24.156 18.1765 25.9656 24.2814 29.4215C25.8431 30.4958 27.1639 31.8104 28.2509 33.3605C32.8012 45.8478 40.5378 57.4965 38.5687 71.7334Z" fill="#BCAC9C"/>
    <path fill-rule="evenodd" clip-rule="evenodd" d="M196.611 202.514L242.326 173.344C227.029 200.775 212.998 216.758 200.235 221.294C187.471 225.829 166.779 222.184 138.16 210.358L161.929 204.198L163.906 203.941L196.611 202.514Z" fill="#D1D2C3"/>
    <path fill-rule="evenodd" clip-rule="evenodd" d="M57.3954 221.293C40.0642 216.012 24.5155 199.327 10.7494 171.238L59.7759 203.531L92.872 204.24L101.901 211.68C89.5618 223.371 74.7266 226.575 57.3954 221.293Z" fill="#D1D2C3"/>
    <path fill-rule="evenodd" clip-rule="evenodd" d="M233.336 11.3273L192.458 34.3626L208.698 48.4095L194.967 57.4244L170.839 29.6922L182.882 19.3494L231.355 2.0459L233.336 11.3273Z" fill="#9C5D3E"/>
    <path fill-rule="evenodd" clip-rule="evenodd" d="M84.5061 33.4614L58.0149 57.5062L47.7211 47.4148L53.3392 43.1394L62.4833 34.9179L52.5077 24.3459L22.2168 13.6576L23.6972 0.758789L72.266 19.3567L84.5061 33.4614Z" fill="#9C5D3D"/>
    <path fill-rule="evenodd" clip-rule="evenodd" d="M163.89 204.951L150.951 184.722L140.753 174.189L138.083 151.227L117.688 150.696L110.475 157.079C114.666 164.76 116.243 170.464 115.205 174.189C114.167 177.915 109.386 183.711 100.863 191.578L90.6215 204.951L67.3113 160.799L71.5628 146.464L86.4117 133.159L93.0709 126.067L99.7591 121.605L127.6 106.196L155.245 121.54L159.839 125.748L166.161 132.097L169.051 133.474L187.888 160.787L163.89 204.951Z" fill="#FEFEFE"/>
    <path fill-rule="evenodd" clip-rule="evenodd" d="M197.946 59.4036L213.156 68.1345L165.628 113.451V93.1508H140.174L194.967 57.4233L197.946 59.4036Z" fill="#C37D55"/>
    <path fill-rule="evenodd" clip-rule="evenodd" d="M34.8271 62.1168L53.9906 50.9653L109.324 91.1319C93.8991 92.2832 86.1866 92.9561 86.1866 93.1507C86.1866 93.3453 86.8293 99.722 88.1147 112.281L34.8271 62.1168Z" fill="#C37D55"/>
    <path fill-rule="evenodd" clip-rule="evenodd" d="M155.753 23.0669H94.1301C94.1349 22.668 94.1374 22.2691 94.1422 21.8701H156.172L155.753 23.0669Z" fill="#C8764A"/>
    <path fill-rule="evenodd" clip-rule="evenodd" d="M67.3095 160.8L55.9153 172.266L27.8612 176.111L11.183 172.266L23.1373 141.504L62.5326 122.259L76.632 129.209L89.0442 134.318L67.3095 160.8Z" fill="#FBFBFD"/>
    <path fill-rule="evenodd" clip-rule="evenodd" d="M91.2658 114.998L71.6485 121.653L49.127 75.3008" fill="#9C5C3C"/>
    <path fill-rule="evenodd" clip-rule="evenodd" d="M74.5145 117.515L102.19 122.261L91.0431 135.606C85.4373 135.918 79.8949 134.792 74.4157 132.228C68.9365 129.663 64.975 126.341 62.5312 122.261L72.1767 117.404L74.5145 117.515Z" fill="#C39379"/>
    <path fill-rule="evenodd" clip-rule="evenodd" d="M166.161 134.332L178.655 129.194L192.658 122.347L233.348 144.258L242.942 172.267L198.596 168.421L187.888 160.787L166.161 134.332Z" fill="#FBFBFD"/>
    <path fill-rule="evenodd" clip-rule="evenodd" d="M205.382 75.5181L180.947 121.677L166.12 112.517L205.382 75.5181Z" fill="#9C5C3C"/>
    <path fill-rule="evenodd" clip-rule="evenodd" d="M108.87 172.686L116.438 196.825L90.963 205.131L108.87 172.686Z" fill="#B2B6BF"/>
    <path fill-rule="evenodd" clip-rule="evenodd" d="M163.38 204.645L138.421 195.26L145.893 170.492L163.38 204.645Z" fill="#B2B5BF"/>
    <path fill-rule="evenodd" clip-rule="evenodd" d="M207.025 47.8996C198.539 44.8425 193.161 41.5885 190.891 38.1375C188.622 34.6866 188.829 30.0796 191.514 24.3166L230.926 11.3291L225.74 34.3182L207.025 47.8996Z" fill="#AC937C"/>
    <path fill-rule="evenodd" clip-rule="evenodd" d="M24.0424 31.0154V10.0459L65.454 26.6025C67.8676 30.1645 67.3529 34.067 63.91 38.3101C60.4672 42.5532 55.2037 45.7717 48.1197 47.9656L24.0424 31.0154Z" fill="#AC937C"/>
    <path fill-rule="evenodd" clip-rule="evenodd" d="M163.119 204.19L152.991 214.658H98.1829L91.9688 204.145L118.11 194.462H139.605L163.119 204.19Z" fill="#A99D8B"/>
    <path fill-rule="evenodd" clip-rule="evenodd" d="M72.1049 117.515L88.8578 112.596L102.19 122.279L86.5681 127.224L72.1049 117.515Z" fill="#212022"/>
    <path fill-rule="evenodd" clip-rule="evenodd" d="M146.497 172.362L139.606 194.46L115.572 196.729L108.551 172.499L146.497 172.362Z" fill="#7E828B"/>
    <path fill-rule="evenodd" clip-rule="evenodd" d="M12.0918 172.422C34.6264 157.669 53.4866 153.363 68.6724 159.502C83.8582 165.642 91.8172 180.792 92.5495 204.952L62.1554 208.087L12.0918 172.422Z" fill="#DFEBED"/>
    <path fill-rule="evenodd" clip-rule="evenodd" d="M192.547 208.154L161.962 204.952C166.774 179.16 174.968 163.977 186.543 159.403C198.119 154.83 216.684 159.44 242.24 173.234L192.547 208.154Z" fill="#DFEBED"/>
    <path fill-rule="evenodd" clip-rule="evenodd" d="M146.495 172.362L128.35 183.58L108.552 172.499C107.826 162.365 107.808 156.081 108.499 153.648C109.19 151.214 111.489 149.463 115.397 148.394C128.602 147.928 136.726 147.944 139.771 148.442C144.337 149.19 146.495 147.695 147.493 153.648C148.158 157.616 147.825 163.854 146.495 172.362Z" fill="#212022"/>
    <path fill-rule="evenodd" clip-rule="evenodd" d="M231.355 2.04582C237.639 0.0730976 251.608 18.5534 250.253 26.3404C249.35 31.5318 241.196 34.0917 225.791 34.02C225.311 14.019 227.166 3.36097 231.355 2.04582Z" fill="#D0C2B1"/>
    <path fill-rule="evenodd" clip-rule="evenodd" d="M183.011 117.371L192.659 122.348C188.583 127.424 184.624 130.694 180.782 132.158C176.939 133.622 171.297 134.01 163.855 133.322L155.625 122.348L167.625 117.371H183.011Z" fill="#C29278"/>
    <path fill-rule="evenodd" clip-rule="evenodd" d="M194.343 57.3228L225.655 34.1147L218.597 73.4955L194.343 57.3228Z" fill="#452922"/>
    <path fill-rule="evenodd" clip-rule="evenodd" d="M233.349 144.26L254.898 153.287L242.144 173.69L233.349 144.26Z" fill="#E2B48F"/>
    <path fill-rule="evenodd" clip-rule="evenodd" d="M155.754 122.414L166.121 112.517L183.462 117.349L169.065 127.179L155.754 122.414Z" fill="#212022"/>
    <path fill-rule="evenodd" clip-rule="evenodd" d="M25.658 32.2959C12.1167 33.9771 5.16552 31.9601 4.80449 26.2447C4.26294 17.6718 18.9667 -0.607653 23.6656 0.755857C26.7982 1.66486 27.4623 12.1782 25.658 32.2959Z" fill="#D0C2B1"/>
    <path fill-rule="evenodd" clip-rule="evenodd" d="M61.001 54.956L38.6483 72.2641L25.7561 31.939L61.001 54.956Z" fill="#442822"/>
    <path fill-rule="evenodd" clip-rule="evenodd" d="M12.0903 172.423L0.0612793 153.418L23.6381 141.623L12.0903 172.423Z" fill="#E1B28E"/>
  </g>
  <defs>
    <clipPath id="clip0_18_489">
      <rect width="256" height="224.653" fill="#EBEBEB" transform="translate(0 0.67334)"/>
    </clipPath>
  </defs>
</svg>
