<svg xmlns="http://www.w3.org/2000/svg" width="256" height="256" fill="none" viewBox="0 0 256 256"><g clip-path="url(#a)"><path fill="#1c79ca" d="M0 0h256v256H0z"/><path fill="#ebebeb" d="M91.09 186V69.636h39.319q13.694 0 22.386 4.944 8.75 4.886 12.955 13.238t4.205 18.637-4.205 18.693q-4.147 8.408-12.841 13.409-8.693 4.943-22.273 4.943h-28.181V131h27.727q9.375 0 15.057-3.239t8.238-8.75q2.614-5.568 2.614-12.556 0-6.99-2.614-12.5-2.556-5.512-8.295-8.637-5.74-3.182-15.227-3.182h-24.773V186zM191.932 226h-3.523q-.312-1.52-1.094-2.67a7.3 7.3 0 0 0-1.875-1.932 7.9 7.9 0 0 0-2.429-1.193 9.7 9.7 0 0 0-2.784-.398q-2.642 0-4.787 1.335-2.13 1.335-3.395 3.935-1.25 2.6-1.25 6.378t1.25 6.377q1.265 2.6 3.395 3.935 2.145 1.335 4.787 1.335 1.449 0 2.784-.397a8.2 8.2 0 0 0 2.429-1.179 7.5 7.5 0 0 0 1.875-1.946q.782-1.165 1.094-2.671h3.523q-.397 2.23-1.449 3.992a10.9 10.9 0 0 1-2.614 2.997 11.5 11.5 0 0 1-3.508 1.861q-1.932.639-4.134.639-3.721 0-6.619-1.818t-4.56-5.171q-1.662-3.352-1.662-7.954t1.662-7.955q1.662-3.352 4.56-5.17 2.898-1.82 6.619-1.819 2.202 0 4.134.64a11.3 11.3 0 0 1 3.508 1.875 10.7 10.7 0 0 1 2.614 2.983q1.051 1.746 1.449 3.991m21.601-1.818q-.255-2.16-2.073-3.352-1.819-1.194-4.461-1.194-1.932 0-3.38.625-1.435.626-2.245 1.719a4.12 4.12 0 0 0-.795 2.486q0 1.164.554 2.003a4.9 4.9 0 0 0 1.449 1.378q.88.54 1.846.894.966.342 1.776.554l2.954.796q1.137.298 2.529.824 1.406.525 2.684 1.434a7.3 7.3 0 0 1 2.131 2.302q.838 1.406.838 3.451 0 2.358-1.236 4.262-1.221 1.903-3.579 3.025-2.344 1.122-5.696 1.122-3.125 0-5.412-1.008-2.272-1.009-3.58-2.813-1.292-1.803-1.463-4.19h3.637q.141 1.648 1.108 2.727.98 1.066 2.471 1.591 1.506.512 3.239.512 2.017 0 3.622-.654 1.605-.667 2.543-1.846.937-1.194.937-2.785 0-1.448-.81-2.357t-2.13-1.478a22 22 0 0 0-2.855-.994l-3.58-1.023q-3.41-.98-5.398-2.798t-1.988-4.759q0-2.442 1.321-4.261 1.335-1.833 3.579-2.841 2.259-1.023 5.043-1.023 2.813 0 5 1.009 2.188.995 3.466 2.727 1.293 1.733 1.363 3.935zm25.508 0q-.255-2.16-2.074-3.352-1.818-1.194-4.46-1.194-1.932 0-3.381.625-1.434.626-2.244 1.719a4.12 4.12 0 0 0-.795 2.486q0 1.164.554 2.003a4.9 4.9 0 0 0 1.448 1.378q.881.54 1.847.894.966.342 1.776.554l2.954.796q1.137.298 2.529.824 1.406.525 2.684 1.434a7.3 7.3 0 0 1 2.131 2.302q.838 1.406.838 3.451 0 2.358-1.236 4.262-1.221 1.903-3.579 3.025-2.345 1.122-5.696 1.122-3.126 0-5.412-1.008-2.273-1.009-3.58-2.813-1.292-1.803-1.463-4.19h3.636q.142 1.648 1.108 2.727.981 1.066 2.472 1.591 1.505.512 3.239.512 2.016 0 3.622-.654 1.605-.667 2.542-1.846.938-1.194.938-2.785 0-1.448-.81-2.357t-2.13-1.478a22 22 0 0 0-2.856-.994l-3.579-1.023q-3.41-.98-5.398-2.798t-1.988-4.759q0-2.442 1.321-4.261 1.335-1.833 3.579-2.841 2.259-1.023 5.043-1.023 2.812 0 5 1.009 2.187.995 3.466 2.727 1.292 1.733 1.363 3.935z"/></g><defs><clipPath id="a"><path fill="#ebebeb" d="M0 0h256v256H0z"/></clipPath></defs></svg>
