<svg width="257" height="62" viewBox="0 0 257 62" fill="none" xmlns="http://www.w3.org/2000/svg">
<g clip-path="url(#clip0_21_1905)">
<path fill-rule="evenodd" clip-rule="evenodd" d="M232.791 0.464844C222.333 0.464844 216.425 2.48408 213.032 7.21596C209.488 12.1584 208.776 19.9599 208.776 30.9478C208.776 52.5178 212.113 61.5346 232.791 61.5346C235.275 61.5346 243.765 61.4873 248.721 60.8824C250.649 60.5627 251.513 59.0859 251.513 57.7646V55.3823C251.513 53.5286 250.112 52.1296 248.253 52.1296H232.791C221.124 52.1296 219.02 49.3795 218.721 33.7444V28.683C218.82 12.6832 220.924 9.86987 232.791 9.86987C243.734 9.86987 245.833 12.3666 246.197 26.4524H228.809V35.962H251.678C256.183 35.962 256.183 32.8115 256.183 31.777V28.741C255.857 6.80708 250.609 0.464844 232.791 0.464844ZM202.678 1.3032L202.429 1.2376C200.299 0.789813 194.479 0.464844 191.593 0.464844C181.381 0.464844 175.984 4.74055 175.984 12.8297V57.8676C175.984 59.7213 177.28 61.0166 179.139 61.0166H182.772C184.631 61.0166 185.929 59.7221 185.929 57.8676V13.6566C185.929 11.6603 186.434 9.86987 192.527 9.86987L201.55 9.86224C202.433 9.96752 203.276 9.72341 203.926 9.1734C204.634 8.5761 205.024 7.70418 205.024 6.72088V4.44228C205.024 2.94712 204.168 1.80286 202.678 1.3032ZM159.065 1.1903H155.432C153.574 1.1903 152.275 2.48484 152.275 4.3393V52.1303H137.168C127.823 52.1303 124.032 51.5361 124.032 36.6424V4.3393C124.032 2.4856 122.734 1.1903 120.875 1.1903H117.346C115.488 1.1903 114.086 2.54358 114.086 4.3393V36.6424C114.086 57.8097 121.763 61.5346 137.894 61.5346C143.697 61.5346 151.645 61.5346 159.223 60.4674L159.399 60.4323C161.271 59.9647 162.22 58.8929 162.22 57.2467V4.3393C162.22 2.4856 160.922 1.1903 159.065 1.1903Z" fill="white"/>
<path fill-rule="evenodd" clip-rule="evenodd" d="M102.882 2.67078C102.416 1.67909 101.416 1.08789 100.207 1.08789H95.538C94.1816 1.08789 93.1678 1.63408 92.6338 2.61738L85.7134 12.7288L91.7718 21.014L102.349 5.84113C103.51 4.43065 103.108 3.15365 102.882 2.67078Z" fill="#74BB11"/>
<path fill-rule="evenodd" clip-rule="evenodd" d="M66.3974 2.501L66.3913 2.49185C65.3363 1.08594 63.9327 1.08594 63.4711 1.08594H58.904C57.7338 1.08594 56.7757 1.62374 56.2753 2.55974C55.7604 3.51863 55.8695 4.67051 56.5819 5.73772L73.5009 29.1919L54.0455 56.3276C53.3658 57.3483 53.2705 58.4826 53.7839 59.4407C54.2873 60.3768 55.2462 60.913 56.4141 60.913H61.0827C62.2834 60.913 63.3392 60.2898 63.867 59.308L85.6438 29.3003L66.3974 2.501Z" fill="#009CD9"/>
<path fill-rule="evenodd" clip-rule="evenodd" d="M105.205 56.566L91.6306 37.9375L85.6599 46.1685L96.3946 60.4954L96.6738 60.6174C97.0997 60.8089 97.5608 60.9097 98.0278 60.9134H102.593C103.696 60.9134 104.632 60.4237 105.163 59.5678C105.706 58.6905 105.721 57.5974 105.205 56.566Z" fill="#EB2084"/>
<path fill-rule="evenodd" clip-rule="evenodd" d="M36.0891 35.5478V51.3675C31.4663 52.0769 24.42 52.2341 22.0186 52.2341C11.3953 52.2341 10.2312 49.3315 10.2312 43.167C10.2312 37.3984 12.39 35.547 19.1129 35.547L36.0891 35.5478ZM21.4998 0.464844C18.2174 0.464844 13.741 0.550281 8.17154 1.22005L7.91981 1.27574C6.29725 1.73726 5.47567 2.80294 5.47567 4.44304V6.72088C5.47567 8.66306 6.68477 9.86987 8.63153 9.86987H21.5006C31.8622 9.86987 36.0891 12.6771 36.0891 19.5587V26.2465H19.1129C5.84489 26.2465 0.183105 31.3064 0.183105 43.1662C0.183105 56.3847 6.04323 61.5354 21.0849 61.5354C27.1776 61.5354 38.3929 61.0616 42.5381 59.7976C46.0335 58.8273 46.0335 56.1573 46.0335 55.2801V18.9385C46.0335 6.50805 38.0084 0.464844 21.5006 0.464844H21.4998Z" fill="white"/>
</g>
<defs>
<clipPath id="clip0_21_1905">
<rect width="256" height="61.1328" fill="white" transform="translate(0.183105 0.433594)"/>
</clipPath>
</defs>
</svg>
