<svg width="228" height="256" viewBox="0 0 228 256" fill="none"
  xmlns="http://www.w3.org/2000/svg">
  <g clip-path="url(#clip0_20_1438)">
    <path d="M21.1098 194.738L11.7638 189.34L115.891 9L125.231 14.3963L21.1098 194.738Z" fill="#E434AA"/>
    <path d="M9.61829 174.938H217.864V185.726H9.61829V174.938Z" fill="#E434AA"/>
    <path d="M117.904 241.135L13.7468 180.999L19.1431 171.649L123.303 231.793L117.904 241.135ZM208.388 84.3958L104.231 24.252L109.627 14.9121L213.786 75.0457L208.388 84.3958Z" fill="#E434AA"/>
    <path d="M19.1675 84.3567L13.7692 75.0087L117.937 14.873L123.333 24.215L19.1675 84.3567Z" fill="#E434AA"/>
    <path d="M206.468 194.738L102.349 14.3963L111.691 9L215.818 189.34L206.468 194.738ZM17.8794 67.8475H28.674V188.135H17.8814L17.8794 67.8475Z" fill="#E434AA"/>
    <path d="M198.882 67.8496H209.674V188.137H198.882V67.8496Z" fill="#E434AA"/>
    <path d="M116.072 236.571L111.358 228.403L201.945 176.096L206.659 184.263L116.072 236.571Z" fill="#E434AA"/>
    <path d="M223.976 191.643C217.738 202.501 203.825 206.207 192.969 199.969C182.112 193.724 178.406 179.81 184.643 168.953C190.889 158.095 204.802 154.389 215.66 160.628C226.58 166.937 230.286 180.785 223.976 191.643ZM42.8495 87.0325C36.6039 97.8902 22.6906 101.596 11.8329 95.3566C0.975248 89.111 -2.73066 75.1996 3.50883 64.342C9.75442 53.4843 23.6658 49.7784 34.5234 56.0159C45.3811 62.3265 49.087 76.1749 42.8495 87.0325ZM3.57995 191.643C-2.66767 180.785 1.04026 166.937 11.8959 160.626C22.7535 154.389 36.6019 158.095 42.9125 168.953C49.15 179.81 45.4441 193.659 34.5864 199.969C23.6658 206.207 9.81741 202.501 3.57995 191.643ZM184.706 87.0325C178.469 76.1749 182.175 62.3265 193.032 56.0159C203.89 49.7784 217.738 53.4843 224.047 64.342C230.284 75.1996 226.58 89.048 215.723 95.3586C204.865 101.596 190.952 97.8902 184.706 87.0325ZM113.778 255.294C110.797 255.296 107.845 254.711 105.091 253.572C102.337 252.432 99.8347 250.761 97.7272 248.654C95.6197 246.546 93.9484 244.044 92.809 241.29C91.6697 238.535 91.0846 235.584 91.0873 232.603C91.0846 229.623 91.6697 226.671 92.809 223.917C93.9484 221.162 95.6197 218.66 97.7272 216.552C99.8347 214.445 102.337 212.774 105.091 211.634C107.845 210.495 110.797 209.91 113.778 209.913C116.758 209.91 119.71 210.495 122.464 211.634C125.218 212.774 127.721 214.445 129.828 216.552C131.936 218.66 133.607 221.162 134.747 223.917C135.886 226.671 136.471 229.623 136.468 232.603C136.468 245.088 126.326 255.294 113.778 255.294ZM113.778 46.0725C110.797 46.0752 107.845 45.4901 105.091 44.3507C102.337 43.2114 99.8347 41.5401 97.7272 39.4325C95.6197 37.325 93.9484 34.8226 92.809 32.0684C91.6697 29.3143 91.0846 26.3625 91.0873 23.382C91.0846 20.4014 91.6697 17.4496 92.809 14.6955C93.9484 11.9414 95.6197 9.4389 97.7272 7.33136C99.8347 5.22382 102.337 3.55255 105.091 2.41319C107.845 1.27383 110.797 0.688743 113.778 0.691415C116.758 0.688743 119.71 1.27383 122.464 2.41319C125.218 3.55255 127.721 5.22382 129.828 7.33136C131.936 9.4389 133.607 11.9414 134.747 14.6955C135.886 17.4496 136.471 20.4014 136.468 23.382C136.471 26.3625 135.886 29.3143 134.747 32.0684C133.607 34.8226 131.936 37.325 129.828 39.4325C127.721 41.5401 125.218 43.2114 122.464 44.3507C119.71 45.4901 116.758 46.0752 113.778 46.0725Z" fill="#E434AA"/>
  </g>
  <defs>
    <clipPath id="clip0_20_1438">
      <rect width="227.556" height="256" fill="#EBEBEB" transform="translate(0 -0.0078125)"/>
    </clipPath>
  </defs>
</svg>
