<svg xmlns="http://www.w3.org/2000/svg" width="256" height="234" fill="none" viewBox="0 0 256 234"><g clip-path="url(#a)"><path fill="#ff5722" d="M30.55 1.098h116.8c16.308 0 29.557 13.237 29.557 29.529s-13.249 29.53-29.557 29.53H30.55C14.241 60.156.992 46.918.992 30.626s13.25-29.53 29.556-29.53m193.037 59.058c-16.662 0-30.169-13.22-30.169-29.529s13.507-29.53 30.169-29.53 30.168 13.221 30.168 29.53-13.507 29.53-30.168 29.53M108.213 89.278h115.374c16.307-1.221 30.372 11.201 31.595 27.493s-11.211 30.344-27.518 31.566H108.213c-16.307 1.222-30.372-11.201-31.595-27.493-1.224-16.292 11.21-30.344 27.518-31.565h4.077m-77.664 84.923H147.35c16.308 0 29.557 13.237 29.557 29.529s-13.249 29.53-29.557 29.53H30.55c-16.308 0-29.557-13.238-29.557-29.53s13.25-29.529 29.556-29.529m193.038 59.059c-16.662 0-30.169-13.221-30.169-29.53 0-16.308 13.507-29.529 30.169-29.529s30.168 13.221 30.168 29.529c0 16.309-13.507 29.53-30.168 29.53"/><path fill="#ff1744" d="M31.395 84.014a30.334 30.334 0 0 1 30.402 30.402 30.334 30.334 0 0 1-30.402 30.402C14.55 144.613.993 131.055.993 114.416a30.334 30.334 0 0 1 30.402-30.402"/></g><defs><clipPath id="a"><path fill="#ebebeb" d="M0 .4h256v233.198H0z"/></clipPath></defs></svg>
