<svg width="256" height="246" viewBox="0 0 256 246" fill="none" xmlns="http://www.w3.org/2000/svg">
<g clip-path="url(#clip0_19_2)">
<path d="M232.749 245.5H191.307L194.199 210.5H173.839L170.948 245.5H85.0522L82.1609 210.5H61.8014L64.6927 245.5H23.2508L0 93.7931L58.1873 0.5H197.813L256 93.7931L232.749 245.5ZM186.127 47.2069H148.781L151.311 64.7069H104.689L107.219 47.2069H69.8729L46.5016 93.7931L58.1873 187.086H197.813L209.498 93.7931L186.127 47.2069ZM98.1835 136.276C98.1835 119.615 93.3495 109.145 89.5032 117.476C85.6569 125.806 85.6569 146.746 89.5032 155.077C93.3495 163.407 98.1835 152.937 98.1835 136.276ZM171.55 134.465C171.55 117.804 166.716 107.334 162.87 115.665C159.023 123.995 159.023 144.935 162.87 153.266C166.716 161.596 171.55 151.127 171.55 134.465Z" fill="white"/>
</g>
<defs>
<clipPath id="clip0_19_2">
<rect width="256" height="245" fill="white" transform="translate(0 0.5)"/>
</clipPath>
</defs>
</svg>
