<svg width="256" height="256" viewBox="0 0 256 256" fill="none"
  xmlns="http://www.w3.org/2000/svg">
  <g clip-path="url(#clip0_21_1860)">
    <rect width="256" height="256" rx="45" fill="#012D2C"/>
    <path d="M121.562 157.128V175.258C121.562 176.553 121.064 177.449 120.167 177.748C114.29 179.84 106.122 180.935 95.663 180.836C77.9323 180.836 63.3891 175.756 52.0335 165.496C40.6778 155.236 35 140.991 35 122.563C35 104.235 40.7774 89.5922 52.2327 78.5354C63.6879 67.5782 79.1276 62 98.5518 62C109.409 62 117.079 62.9961 121.462 64.9883C122.259 65.2872 122.658 65.9844 122.757 67.0802V86.3051C122.757 87.6 122.259 87.9984 121.163 87.5004C115.984 84.9105 107.915 83.6156 97.0576 83.6156C86.0008 83.7152 77.1354 87.1019 70.2623 93.8755C63.4887 100.649 60.0023 110.012 60.0023 122.065C60.0023 134.118 63.8872 143.282 71.5572 149.658C79.1276 155.933 87.7938 159.121 97.3564 159.121C106.919 159.121 114.489 158.224 120.167 156.332C121.064 155.933 121.562 156.232 121.562 157.128Z" fill="#06F2C2"/>
    <path d="M177.145 89.8912C191.588 89.8912 202.645 93.9752 210.216 102.243C217.786 110.511 221.671 120.571 221.671 132.624C221.671 147.765 216.391 159.619 205.833 168.086C195.274 176.553 182.623 180.836 167.781 180.836C166.387 180.836 165.291 180.736 164.494 180.637V210.62C164.494 211.516 163.797 212.014 162.402 212.213C158.916 212.512 154.533 212.911 149.453 213.508C144.273 214.106 141.584 214.405 141.185 214.405C140.388 214.405 139.99 214.006 139.99 213.11V109.614C139.99 107.124 139.791 103.239 139.492 98.0593C139.492 97.5612 139.691 97.362 140.189 97.1628C154.633 92.3815 166.885 89.8912 177.145 89.8912ZM174.953 110.61C171.069 110.61 167.582 111.108 164.494 112.104V160.117C165.391 160.316 167.283 160.416 170.072 160.416C177.145 160.416 183.321 158.224 188.6 153.841C193.879 149.459 196.469 143.283 196.469 135.115C196.469 126.946 194.676 120.87 190.991 116.687C187.205 112.702 181.926 110.61 174.953 110.61Z" fill="#06F2C2"/>
  </g>
  <defs>
    <clipPath id="clip0_21_1860">
      <rect width="256" height="256" fill="#EBEBEB"/>
    </clipPath>
  </defs>
</svg>
