<svg width="256" height="256" viewBox="0 0 256 256" fill="none"
  xmlns="http://www.w3.org/2000/svg">
  <g clip-path="url(#clip0_21_2310)">
    <path d="M56.578 0H198.536C205.444 0 212.151 1.1 218.658 3.4C228.069 6.8 236.578 12.8 242.986 20.6C249.493 28.4 253.798 38 255.299 48C255.9 51.7 256 55.4 256 59.1V197.4C256 201.8 255.8 206.3 254.899 210.6C252.897 220.5 248.191 229.8 241.384 237.3C234.676 244.8 225.866 250.4 216.356 253.4C210.549 255.2 204.543 256 198.436 256C195.733 256 56.1776 256 54.0752 255.9C43.8638 255.4 33.7526 252.1 25.2431 246.4C16.9339 240.8 10.1263 233 5.72138 224C1.91715 216.3 0.0150293 207.7 0.0150293 199.1V56.9C-0.185194 48.4 1.61681 40 5.32094 32.4C9.62573 23.4 16.3332 15.5 24.6424 9.9C33.1519 4.1 43.1631 0.7 53.3744 0.2C54.3755 0 55.4768 0 56.578 0Z" fill="url(#paint0_linear_21_2310)"/>
    <path d="M215.914 209.4C215.014 208 214.014 206.6 212.915 205.3C210.416 202.3 207.517 199.7 204.318 197.5C200.32 194.8 195.622 193.1 190.824 192.9C187.425 192.7 184.026 193.3 180.828 194.5C177.629 195.6 174.53 197.2 171.531 198.8C168.033 200.6 164.534 202.4 160.836 203.9C156.437 205.7 151.839 207.1 147.141 208.1C141.244 209.2 135.246 209.6 129.348 209.5C118.653 209.3 107.957 207.7 97.7609 204.7C88.7645 202 80.1679 198.3 72.0712 193.6C64.974 189.5 58.3767 184.8 52.1791 179.5C47.0812 175.1 42.383 170.4 37.9848 165.4C34.986 161.9 32.0872 158.2 29.3882 154.4C28.2887 152.9 27.2891 151.3 26.3894 149.7L0 121.2V56.7C0 25.4 25.2899 0 56.5774 0H107.057L144.442 38C228.808 95.4 201.519 158.7 201.519 158.7C201.519 158.7 225.51 185.7 215.914 209.4Z" fill="url(#paint1_linear_21_2310)"/>
    <path d="M144.642 38C229.008 95.4 201.719 158.7 201.719 158.7C201.719 158.7 225.71 185.8 216.014 209.5C216.014 209.5 206.118 192.9 189.524 192.9C173.531 192.9 164.134 209.5 131.947 209.5C60.2759 209.5 26.3894 149.6 26.3894 149.6C90.9636 192.1 135.046 162 135.046 162C105.958 145.1 44.0823 64.3 44.0823 64.3C97.9608 110.2 121.251 122.3 121.251 122.3C107.357 110.8 68.3726 54.6 68.3726 54.6C99.5601 86.2 161.535 130.3 161.535 130.3C179.128 81.5 144.642 38 144.642 38Z" fill="black"/>
  </g>
  <defs>
    <linearGradient id="paint0_linear_21_2310" x1="128" y1="-7.23522e-07" x2="128.098" y2="256" gradientUnits="userSpaceOnUse">
      <stop stop-color="#00D5FF"/>
      <stop offset="1" stop-color="#006AFD"/>
    </linearGradient>
    <linearGradient id="paint1_linear_21_2310" x1="65.5" y1="168" x2="68.523" y2="0.000409682" gradientUnits="userSpaceOnUse">
      <stop stop-color="#0062FD"/>
      <stop offset="1" stop-color="#00C1FF"/>
    </linearGradient>
    <clipPath id="clip0_21_2310">
      <rect width="256" height="256" fill="#EBEBEB"/>
    </clipPath>
  </defs>
</svg>
