<svg xmlns="http://www.w3.org/2000/svg" width="256" height="257" fill="none" viewBox="0 0 256 257"><g clip-path="url(#a)"><path fill="#339af0" d="M256 128.5C256 57.808 198.693.5 128.002.5 57.307.5 0 57.808 0 128.5c0 70.691 57.307 128 128 128s128-57.309 128-128"/><path fill="#ebebeb" d="M110.633 64.604a9.63 9.63 0 0 1 7.171 1.806 78.5 78.5 0 0 1 11.589 10.602l.867.985h27.394c5.343 0 9.669 4.34 9.669 9.701 0 5.243-4.143 9.51-9.315 9.696l-.354.007h-15.131a77 77 0 0 1 6.375 30.846 77 77 0 0 1-5.932 29.797l-.445 1.046h15.124c5.344 0 9.67 4.342 9.67 9.702 0 5.241-4.145 9.509-9.316 9.696l-.354.007h-27.401a78.5 78.5 0 0 1-12.448 11.576 9.64 9.64 0 0 1-13.524-2.012 9.7 9.7 0 0 1-1.611-3.424 9.73 9.73 0 0 1 1.088-7.351 9.6 9.6 0 0 1 2.531-2.798c14.793-11.021 23.286-27.873 23.286-46.241s-8.493-35.22-23.286-46.24a9.6 9.6 0 0 1-2.535-2.798 9.77 9.77 0 0 1 .286-10.44l.241-.344a9.74 9.74 0 0 1 6.361-3.819m-1.742 47.043a14.3 14.3 0 0 1 4.691 3.232 14.5 14.5 0 0 1 3.081 4.82c.699 1.8 1.034 3.721.987 5.651a14.57 14.57 0 0 1-4.315 10.018 14.25 14.25 0 0 1-10.006 4.12 14.25 14.25 0 0 1-10.01-4.12 14.57 14.57 0 0 1-4.315-10.018c-.046-1.93.29-3.851.99-5.651a14.5 14.5 0 0 1 3.081-4.82 14.3 14.3 0 0 1 4.69-3.232 14.2 14.2 0 0 1 11.126 0"/></g><defs><clipPath id="a"><path fill="#ebebeb" d="M0 .5h256v256H0z"/></clipPath></defs></svg>
