<svg width="256" height="256" viewBox="0 0 256 256" fill="none" xmlns="http://www.w3.org/2000/svg">
<path d="M30.72 128C30.72 74.2767 74.2765 30.7201 128 30.7201C149.632 30.7201 169.6 37.7601 185.755 49.7098C187.868 44.7441 191.05 40.306 195.075 36.712C199.101 33.1181 203.87 30.4571 209.042 28.919C186.194 10.1813 157.549 -0.0405211 128 0.000120727C57.3074 0.000120727 0 57.3075 0 128C0 198.693 57.3074 256 128 256C198.692 256 256 198.693 256 128C256 113.207 253.486 98.9715 248.85 85.7235C245.645 90.0688 241.515 93.6494 236.76 96.2073C232.004 98.7653 226.741 100.237 221.348 100.517C223.908 109.221 225.28 118.437 225.28 128C225.28 181.723 181.723 225.28 128 225.28C74.2765 225.28 30.72 181.723 30.72 128Z" fill="#176BFF"/>
<path d="M253.367 102.071C252.227 96.5272 250.718 91.066 248.85 85.7234C245.645 90.0687 241.515 93.6492 236.76 96.2072C232.004 98.7652 226.741 100.237 221.348 100.517C223.185 106.774 224.386 113.2 224.932 119.698C230.664 118.987 236.173 117.044 241.081 114.001C245.99 110.958 250.181 106.888 253.367 102.071ZM128 184C142.847 183.983 157.081 178.078 167.579 167.579C178.078 157.081 183.983 142.847 184 128C183.983 113.153 178.078 98.9191 167.579 88.4207C157.081 77.9223 142.847 72.0169 128 72C113.153 72.0169 98.9191 77.9223 88.4207 88.4207C77.9223 98.9191 72.0169 113.153 72 128C72.0241 142.845 77.9319 157.074 88.4287 167.571C98.9255 178.068 113.155 183.976 128 184ZM212.004 80C215.681 80 219.322 79.2757 222.72 77.8686C226.117 76.4615 229.203 74.399 231.803 71.799C234.403 69.1989 236.466 66.1122 237.873 62.7151C239.28 59.318 240.004 55.677 240.004 52C240.004 48.323 239.28 44.682 237.873 41.2849C236.466 37.8877 234.403 34.801 231.803 32.201C229.203 29.601 226.117 27.5385 222.72 26.1314C219.322 24.7242 215.681 24 212.004 24C204.578 24 197.457 26.95 192.205 32.201C186.954 37.452 184.004 44.5739 184.004 52C184.004 59.426 186.954 66.548 192.205 71.799C197.457 77.05 204.578 80 212.004 80Z" fill="#176BFF"/>
</svg>
