<svg xmlns="http://www.w3.org/2000/svg" width="256" height="256" fill="none" viewBox="0 0 256 256"><g clip-path="url(#a)"><rect width="221" height="207" x="17" y="25" fill="#ebebeb" rx="30"/><path fill="#3c5afd" d="M237.248 18.752q18.062 18.06 18.748 45.247V192c-.457 18.12-6.707 33.207-18.748 45.247-12.04 12.041-27.127 18.291-45.251 18.752H63.999q-27.186-.691-45.247-18.752C6.712 225.208.46 210.121 0 192.001V63.999q.69-27.187 18.752-45.247Q36.812.692 63.999 0h127.998c18.124.46 33.211 6.711 45.251 18.752m-17.655 103q-6.033-6.003-6.28-15.066V63.999q-.192-9.063-6.221-15.091c-4.019-4.023-9.054-6.093-15.095-6.22h-21.312v106.626L85.315 42.687H63.999c-6.041.128-11.072 2.198-15.09 6.221-4.024 4.02-6.094 9.05-6.222 15.09v42.688q-.247 9.063-6.28 15.066-6.03 5.995-15.091 6.246 9.063.256 15.091 6.25 6.033 6.003 6.28 15.066v42.687c.128 6.037 2.198 11.072 6.221 15.091q6.03 6.029 15.091 6.221h21.316V106.686l85.37 106.627h21.312c6.041-.128 11.076-2.202 15.095-6.221s6.093-9.054 6.221-15.091v-42.687q.247-9.063 6.28-15.066 6.029-5.995 15.091-6.25-9.062-.25-15.091-6.246"/></g><defs><clipPath id="a"><path fill="#ebebeb" d="M0 0h256v256H0z"/></clipPath></defs></svg>
