<svg width="257" height="216" viewBox="0 0 257 216" fill="none"
  xmlns="http://www.w3.org/2000/svg">
  <g clip-path="url(#clip0_21_2257)">
    <path d="M228.064 63.9934C227.546 63.4628 227.013 62.9479 226.464 62.4494C225.92 61.9574 225.408 61.4014 224.864 60.9074C224.32 60.4134 223.808 59.8574 223.264 59.3654C222.72 58.8714 222.208 58.3154 221.664 57.8214C221.12 57.3274 220.608 56.7734 220.064 56.2794C219.52 55.7854 219.008 55.2294 218.464 54.7354C217.92 54.2414 217.408 53.6874 216.864 53.1934C232.736 68.2334 241.83 88.6974 242.176 110.155C242.176 161.285 188.352 202.881 122.176 202.881C85.1202 202.881 51.9682 189.829 29.9202 169.369L31.5202 170.913L33.1202 172.455L34.7202 173.999L36.3202 175.541L37.9202 177.085L39.5202 178.627L41.1202 180.169C63.1362 201.493 97.0242 215.223 134.976 215.223C201.152 215.223 254.976 173.629 254.976 122.653C254.976 100.867 245.248 80.2234 228.064 63.9934Z" fill="black"/>
    <path d="M234.176 110.156C234.176 157.09 184.032 195.136 122.176 195.136C60.3201 195.136 10.1761 157.09 10.1761 110.156C10.1761 81.056 29.3761 55.354 58.8801 40.11C88.3841 24.866 106.752 9.25195 122.176 9.25195C137.6 9.25195 150.784 21.996 185.472 40.112C214.976 55.35 234.176 81.056 234.176 110.156Z" fill="#FBF0DF"/>
    <path d="M234.176 110.156C234.16 104.121 233.298 98.1169 231.616 92.3203C222.88 195.074 92.8958 200.012 41.7918 169.28C64.7638 186.448 93.1118 195.568 122.176 195.136C183.936 195.136 234.176 157.028 234.176 110.156Z" fill="#F6DECE"/>
    <path d="M79.0721 34.464C93.3761 26.194 112.384 10.672 131.072 10.642C128.191 9.74455 125.194 9.2762 122.176 9.25195C114.432 9.25195 106.176 13.112 95.7761 18.912C92.1601 20.948 88.4161 23.2 84.4481 25.546C76.9921 29.99 68.4481 35.018 58.8481 40.048C28.3841 55.94 10.1761 82.138 10.1761 110.156V113.828C29.5681 47.762 64.8001 42.734 79.0721 34.464Z" fill="#FFFEFC"/>
    <path d="M112.96 17.0596C113.001 24.363 111.413 31.5837 108.31 38.1956C105.168 44.8788 100.607 50.7969 94.9441 55.5376C94.0481 56.3096 94.7521 57.7916 95.9041 57.3576C106.688 53.3176 121.248 41.2216 115.104 16.8136C114.848 15.4236 112.96 15.7936 112.96 17.0596ZM120.224 17.0596C124.126 23.182 126.617 30.0956 127.516 37.2996C128.406 44.4736 127.676 51.7476 125.376 58.6236C124.992 59.7036 126.368 60.6296 127.136 59.7356C134.144 51.0956 140.256 33.9376 121.952 15.4236C121.024 14.6236 119.584 15.8556 120.224 16.9356V17.0596ZM129.056 16.5356C135.148 20.6798 140.278 26.0853 144.098 32.3856C147.867 38.6089 150.216 45.5877 150.976 52.8236C150.944 53.0836 151.016 53.3436 151.178 53.5536C151.346 53.7633 151.586 53.9034 151.851 53.9466C152.116 53.9898 152.388 53.9332 152.614 53.7876C152.837 53.6444 152.996 53.4198 153.056 53.1616C156 42.3936 154.336 24.0336 130.112 14.4976C128.832 14.0056 128 15.6716 129.056 16.4116V16.5356ZM69.9841 48.6256C77.2391 46.5453 83.9866 42.9898 89.8041 38.1816C95.5415 33.441 100.206 27.5352 103.488 20.8556C104.064 19.7436 105.888 20.1756 105.6 21.4096C100.064 46.0956 81.5361 51.2496 70.0161 50.5696C68.8001 50.6016 68.8321 48.9656 69.9841 48.6256Z" fill="#CCBEA7"/>
    <path d="M122.176 202.883C56.0001 202.883 2.17609 161.287 2.17609 110.157C2.17609 79.2991 21.9521 50.5111 55.0721 33.2611C64.6721 28.3231 72.8961 23.3551 80.2241 19.0051C84.2561 16.5991 88.0641 14.3451 91.7441 12.2471C102.976 5.82906 112.576 1.53906 122.176 1.53906C131.776 1.53906 140.16 5.24306 150.656 11.2291C153.856 12.9891 157.056 14.9011 160.48 16.9991C168.448 21.7511 177.44 27.1191 189.28 33.2611C222.4 50.5111 242.176 79.2691 242.176 110.157C242.176 161.287 188.352 202.883 122.176 202.883ZM122.176 9.25506C114.432 9.25506 106.176 13.1111 95.7761 18.9131C92.1601 20.9491 88.4161 23.2011 84.4481 25.5471C76.9921 29.9911 68.4481 35.0191 58.8481 40.0491C28.3841 55.9411 10.1761 82.1391 10.1761 110.157C10.1761 157.029 60.4161 195.169 122.176 195.169C183.936 195.169 234.176 157.029 234.176 110.157C234.176 82.1371 215.968 55.9411 185.472 40.1111C173.376 33.9391 163.936 28.1391 156.288 23.5711C152.8 21.5051 149.6 19.5911 146.688 17.8951C136.992 12.3391 129.92 9.25506 122.176 9.25506Z" fill="black"/>
    <path d="M144.736 132.682C143.298 138.36 140.026 143.448 135.392 147.216C131.868 150.488 127.375 152.524 122.592 153.016C117.665 152.604 113.015 150.563 109.376 147.216C104.79 143.432 101.564 138.344 100.16 132.682C100.114 132.345 100.148 132.002 100.26 131.682C100.373 131.358 100.559 131.065 100.804 130.826C101.056 130.584 101.359 130.401 101.69 130.29C102.021 130.179 102.373 130.142 102.72 130.182H142.208C142.553 130.146 142.901 130.187 143.228 130.301C143.555 130.415 143.854 130.6 144.102 130.842C144.345 131.077 144.529 131.366 144.64 131.686C144.75 132.005 144.783 132.347 144.736 132.682Z" fill="#B71422"/>
    <path d="M109.376 147.461C113.007 150.811 117.64 152.872 122.56 153.325C127.468 152.866 132.089 150.805 135.712 147.461C136.853 146.436 137.922 145.334 138.912 144.161C136.923 141.992 134.516 140.248 131.836 139.033C129.128 137.805 126.204 137.125 123.232 137.033C120.054 137.103 116.937 137.919 114.134 139.417C111.367 140.894 108.998 143.019 107.232 145.611C107.968 146.257 108.608 146.875 109.376 147.461Z" fill="#FF6164"/>
    <path d="M109.888 145.024C111.491 143.034 113.521 141.43 115.828 140.33C118.161 139.216 120.711 138.628 123.296 138.606C128.055 138.729 132.606 140.584 136.096 143.822C136.832 143.05 137.536 142.248 138.208 141.446C134.138 137.706 128.756 135.58 123.136 135.49C120.14 135.514 117.184 136.178 114.466 137.44C111.778 138.686 109.396 140.506 107.488 142.772C108.244 143.564 109.046 144.316 109.888 145.024Z" fill="black"/>
    <path d="M122.464 154.867C117.168 154.432 112.162 152.263 108.224 148.695C103.27 144.655 99.7839 139.195 98.2719 133.113C98.1639 132.573 98.1819 132.013 98.3259 131.479C98.4715 130.943 98.7376 130.446 99.1039 130.027C99.5472 129.514 100.101 129.107 100.724 128.837C101.353 128.563 102.034 128.432 102.72 128.453H142.208C142.894 128.439 143.574 128.573 144.2 128.845C144.822 129.115 145.376 129.519 145.824 130.027C146.188 130.451 146.45 130.947 146.588 131.483C146.728 132.017 146.74 132.573 146.624 133.113C145.112 139.197 141.624 144.655 136.672 148.695C132.742 152.257 127.749 154.426 122.464 154.867ZM102.72 132.033C102.208 132.033 102.08 132.249 102.048 132.311C103.4 137.587 106.46 142.309 110.784 145.795C113.986 148.818 118.087 150.714 122.464 151.195C126.83 150.718 130.926 148.846 134.144 145.855C138.454 142.365 141.502 137.643 142.848 132.373C142.777 132.274 142.68 132.196 142.568 132.147C142.455 132.098 142.33 132.08 142.208 132.095L102.72 132.033Z" fill="black"/>
    <path d="M170.88 134.595C181.22 134.595 189.6 129.841 189.6 123.979C189.6 118.117 181.22 113.365 170.88 113.365C160.54 113.365 152.16 118.117 152.16 123.979C152.16 129.841 160.54 134.595 170.88 134.595ZM74.0162 134.595C84.3562 134.595 92.7362 129.841 92.7362 123.979C92.7362 118.117 84.3562 113.365 74.0162 113.365C63.6762 113.365 55.2962 118.117 55.2962 123.979C55.2962 129.841 63.6762 134.595 74.0162 134.595Z" fill="#FEBBD0"/>
    <path d="M82.8161 119.721C86.2899 119.732 89.6932 118.742 92.6201 116.871C95.5001 115.035 97.7662 112.38 99.1281 109.247C100.466 106.154 100.821 102.723 100.144 99.4213C99.455 96.0972 97.7761 93.0594 95.3281 90.7073C92.8341 88.3118 89.6975 86.6928 86.3001 86.0473C82.8808 85.3878 79.3442 85.7209 76.1081 87.0073C72.9105 88.2717 70.156 90.4496 68.1881 93.2693C66.2572 96.0426 65.2202 99.34 65.2161 102.719C65.2161 107.223 67.0701 111.543 70.3701 114.729C73.6701 117.917 78.1461 119.713 82.8161 119.721ZM162.08 119.721C165.558 119.749 168.971 118.775 171.91 116.915C174.802 115.09 177.083 112.442 178.46 109.311C179.813 106.219 180.182 102.786 179.516 99.4773C178.837 96.1476 177.165 93.1018 174.72 90.7413C172.231 88.3363 169.095 86.7074 165.696 86.0533C162.274 85.3866 158.732 85.7149 155.49 86.9993C152.288 88.2609 149.528 90.4383 147.556 93.2593C145.62 96.0345 144.581 99.3357 144.576 102.719C144.568 107.209 146.404 111.519 149.686 114.707C152.966 117.893 157.424 119.697 162.08 119.721Z" fill="black"/>
    <path d="M77.376 103.801C78.6818 103.808 79.9621 103.439 81.064 102.739C82.158 102.039 83.012 101.045 83.518 99.8787C84.024 98.7165 84.1601 97.4269 83.908 96.1847C83.6513 94.935 83.0224 93.7922 82.104 92.9067C81.1676 92.0047 79.9891 91.3946 78.712 91.1507C77.4267 90.9015 76.0969 91.0257 74.88 91.5087C73.6779 91.9832 72.6421 92.8012 71.902 93.8607C71.1757 94.9029 70.7856 96.1423 70.784 97.4127C70.784 99.1007 71.478 100.721 72.712 101.919C73.9664 103.123 75.6372 103.798 77.376 103.801ZM156.64 103.801C157.946 103.808 159.226 103.439 160.328 102.739C161.422 102.039 162.276 101.045 162.782 99.8787C163.288 98.7165 163.424 97.4269 163.172 96.1847C162.915 94.935 162.286 93.7922 161.368 92.9067C160.432 92.0047 159.253 91.3946 157.976 91.1507C156.691 90.9015 155.361 91.0257 154.144 91.5087C152.942 91.9832 151.906 92.8012 151.166 93.8607C150.44 94.9029 150.05 96.1423 150.048 97.4127C150.048 99.0927 150.732 100.701 151.954 101.897C153.174 103.093 154.834 103.777 156.576 103.801H156.64Z" fill="#EBEBEB"/>
  </g>
  <defs>
    <clipPath id="clip0_21_2257">
      <rect width="256" height="216" fill="#EBEBEB" transform="translate(0.575989 -0.00390625)"/>
    </clipPath>
  </defs>
</svg>
