<svg xmlns="http://www.w3.org/2000/svg" width="256" height="174" fill="none" viewBox="0 0 256 174">
  <g clip-path="url(#a)">
    <path fill="#ebebeb" fill-rule="evenodd" d="M146.273 118.006v-86.77h-6.149v86.77zM58.882 60.864V41.92h-1.926l-4.16 5.34v13.604H37.391v4.968h15.403v41.119q0 5.713 3.789 8.944 3.789 3.23 9.44 3.23 5.777 0 11.802-2.92v-5.838q-5.962 2.794-10.435 2.794-5.838 0-7.174-2.577-1.335-2.577-1.335-10.776V65.832h16.025v-4.968zm-24.783 10.31V64.59q-8.26-4.845-15.279-4.845-7.702 0-13.074 4.565Q.373 68.876.373 75.397q0 4.597 2.887 8.355 2.889 3.757 12.61 7.609 9.72 3.85 11.925 6.366T30 103.224q0 4.347-3.385 7.143t-8.665 2.795q-7.826 0-17.95-5.218v5.963q8.51 5.218 17.143 5.218 7.95 0 13.354-4.566t5.403-11.211q0-4.969-2.98-9.007-2.983-4.035-12.703-7.763t-11.863-6.18Q6.21 77.944 6.21 75.025q0-4.099 3.54-6.895 3.541-2.794 8.696-2.794 6.957 0 15.652 5.838m97.888-10.31L89.255 147.26h-6.212l19.939-40.31-24.038-46.087h6.398l20.745 40 19.689-40zm75.777 26.46h-45.031a24 24 0 0 0-.187 2.98q0 9.566 6.832 16.211 6.832 6.647 16.149 6.647 10.87 0 21.243-8.51v6.895q-9.814 7.577-21.988 7.578-12.36 0-20.435-8.572t-8.074-21.801q0-12.547 7.453-20.776 7.454-8.23 18.758-8.23 10.621 0 17.95 7.422 7.329 7.423 7.329 20.155zm-7.205-4.908H163.54q1.677-7.95 6.801-12.329 5.126-4.38 12.143-4.379 14.846 0 18.075 16.708" clip-rule="evenodd"/>
    <path fill="url(#b)" fill-rule="evenodd" d="M244.464 88.832c15.839-31.768 15.15-59.313-1.567-73.682-10.146-8.915-25.153-8.407-42.627-2.04l-.192.07v.015l8.708-1.724.37-.07.737-.136.731-.13.364-.063.723-.12c11.043-1.797 20.144-1.207 28.311 6.17 14.198 12.821 13.362 37.808 1.41 64.601a285 285 0 0 1 3.032 7.11m-6.193 11.231a334 334 0 0 0-2.734-6.591l-.162.292c-5.503 9.831-12.393 19.696-20.482 29.103-35.724 39.583-70.47 59.587-96.848 35.708l-.209-.218-.409-.431-.2-.212-.39-.421-.191-.207-.373-.41-.36-.403-.348-.396-.337-.389-.324-.382-.312-.375-.3-.368-.287-.362-.139-.178-.27-.351q-1.12-1.477-1.801-2.705 2.42 5.352 5.549 8.694c21.354 21.848 56.201 14.291 101.366-32.475 7.734-9.089 14.252-18.122 19.561-26.923" clip-rule="evenodd"/>
    <path fill="url(#c)" fill-rule="evenodd" d="M249.109 106.247c-3.669-12.88-9.783-27.324-18.791-43.129-34.281-60.145-70.631-68.247-94.652-60.145-3.165 1.068-6.237 3.388-9.199 6.359l-.413.419-.206.212-.41.431-.205.218a22.2 22.2 0 0 1 6.687-4.203c26.563-10.787 61.988 3.632 92.787 60.841 8.019 14.896 14.081 28.47 18.118 40.547a7.32 7.32 0 0 1 4.721-1.716c.526 0 1.05.055 1.563.166m-12.415 64.326c6.518-3.898 8.517-5.565 12.204-13.314 4.465-9.386 5.894-22.233 3.191-38.04a7.33 7.33 0 0 1-4.542 1.57q-.532 0-1.042-.072c6.205 26.971-.045 44.454-19.725 49.856-9.33 2.561-26.637-.785-34.6-3.346l2.375 1.011c15.848 4.643 33.718 7.37 42.139 2.335" clip-rule="evenodd"/>
    <path fill="url(#d)" d="M110.404 149.41a2.981 2.981 0 1 0 0-5.963 2.981 2.981 0 0 0 0 5.963"/>
    <path fill="url(#e)" d="M247.546 119.199a5.764 5.764 0 1 0 0-11.528 5.764 5.764 0 0 0 0 11.528"/>
  </g>
  <defs>
    <radialGradient id="d" cx="0" cy="0" r="1" gradientTransform="translate(111.127 145.872)scale(3.32834)" gradientUnits="userSpaceOnUse">
      <stop stop-color="#e5f9ff"/>
      <stop offset=".216" stop-color="#b2eefe"/>
      <stop offset=".574" stop-color="#5ed9fb"/>
      <stop offset=".772" stop-color="#5dd1f1"/>
      <stop offset="1" stop-color="#55c4e3"/>
    </radialGradient>
    <radialGradient id="e" cx="0" cy="0" r="1" gradientTransform="translate(249.802 111.986)scale(7.25629)" gradientUnits="userSpaceOnUse">
      <stop stop-color="#fcd5fd"/>
      <stop offset=".196" stop-color="#fd9eff"/>
      <stop offset=".514" stop-color="#f53bfa"/>
      <stop offset=".823" stop-color="#e22fe6"/>
      <stop offset="1" stop-color="#cf28d4"/>
    </radialGradient>
    <linearGradient id="b" x1="146.625" x2="212.523" y1="94.801" y2="133.264" gradientUnits="userSpaceOnUse">
      <stop stop-color="#ebebeb" stop-opacity=".01"/>
      <stop offset="1" stop-color="#ebebeb"/>
    </linearGradient>
    <linearGradient id="c" x1="182.421" x2="237.972" y1="132.327" y2="115.344" gradientUnits="userSpaceOnUse">
      <stop stop-color="#ebebeb" stop-opacity=".01"/>
      <stop offset="1" stop-color="#ebebeb"/>
    </linearGradient>
    <clipPath id="a">
      <path fill="#ebebeb" d="M0 .342h256v173.317H0z"/>
    </clipPath>
  </defs>
</svg>
