<svg xmlns="http://www.w3.org/2000/svg" width="257" height="285" fill="none" viewBox="0 0 257 285"><g clip-path="url(#a)"><path fill="#8873af" d="M231.31 0c13.996 0 25.371 11.231 25.597 25.176l.003.424v233.244c0 13.995-11.235 25.37-25.177 25.597l-.423.003H26.51c-13.995 0-25.37-11.235-25.596-25.177l-.004-.423V25.6C.91 11.6 12.145.229 26.087.003L26.51 0zm0 14.222H26.51c-6.174 0-11.218 4.947-11.374 11.084l-.004.293v233.245c0 6.174 4.948 11.218 11.085 11.374l.293.004h204.8c6.178 0 11.218-4.948 11.374-11.085l.004-.293V25.6c0-6.273-5.102-11.378-11.378-11.378M64.91 184.888l32 28.445-32 28.444zM93.355 42.666v80.75c14.2-4.622 34.051-9.639 53.333-9.639 17.582 0 28.107 6.912 33.838 12.711 12.109 12.25 12.397 27.821 12.381 29.897v.059l.003 85.333h-28.444v-84.942c-.139-6.638-3.339-14.613-17.778-14.613-28.632 0-60.713 14.256-61.666 14.683l-.02.008-20.092 9.103V42.666zm99.555 0c-1.92 16.157-8.469 31.645-21.333 46.222h-28.445c11.179-14.666 18.198-30.1 21.334-46.222z"/></g><defs><clipPath id="a"><path fill="#ebebeb" d="M.91 0h256v285H.91z"/></clipPath></defs></svg>
