<svg width="243" height="256" viewBox="0 0 243 256" fill="none" xmlns="http://www.w3.org/2000/svg">
<g clip-path="url(#clip0_18_1251)">
<path d="M0 15.718C0 24.3922 7.11838 31.436 15.8778 31.436H147.557C162.561 31.436 174.923 36.0182 184.641 45.1825C194.338 54.3576 199.197 66.1434 199.197 80.5613C199.197 93.8817 194.338 104.794 184.63 113.297C174.923 121.609 162.572 125.744 147.557 125.744H90.3331C81.5524 125.744 74.4446 132.777 74.4446 141.462C74.4446 150.147 81.5524 157.18 90.3331 157.18H153.525L210.451 247.566C213.988 253.022 218.944 255.75 225.348 255.75C232.413 255.75 237.379 253.022 240.245 247.566C243.112 241.886 242.558 235.887 238.594 229.557L187.944 148.996C201.627 142.879 212.443 133.928 220.382 122.142C228.332 110.132 232.306 96.2793 232.306 80.5613C232.306 64.6196 228.662 50.6492 221.373 38.6396C214.319 26.63 204.387 17.2418 191.589 10.4751C178.78 3.4846 164.117 0 147.557 0H15.8885C7.11838 0 0 7.03313 0 15.718Z" fill="white"/>
</g>
<defs>
<clipPath id="clip0_18_1251">
<rect width="243" height="256" fill="white"/>
</clipPath>
</defs>
</svg>
