<svg width="256" height="256" viewBox="0 0 256 256" fill="none" xmlns="http://www.w3.org/2000/svg">
<g clip-path="url(#clip0_16_36)">
<path d="M128 256C198.692 256 256 198.692 256 128C256 57.3076 198.692 0 128 0C57.3076 0 0 57.3076 0 128C0 198.692 57.3076 256 128 256Z" fill="#663399"/>
<path d="M56.6857 199.314C37.4857 180.114 27.4286 154.514 27.4286 129.828L127.086 228.571C101.486 227.657 75.8857 218.514 56.6857 199.314ZM149.943 225.828L30.1714 106.057C40.2286 61.257 80.4572 27.4285 128 27.4285C161.829 27.4285 191.086 43.8856 209.371 68.5713L195.657 80.457C180.114 59.4285 155.429 45.7142 128 45.7142C92.3429 45.7142 62.1714 68.5713 50.2857 100.571L155.429 205.714C181.943 196.571 202.057 173.714 208.457 146.286H164.571V128H228.571C228.571 175.543 194.743 215.771 149.943 225.828Z" fill="white"/>
</g>
<defs>
<clipPath id="clip0_16_36">
<rect width="256" height="256" fill="white"/>
</clipPath>
</defs>
</svg>
