<svg xmlns="http://www.w3.org/2000/svg" width="242" height="256" fill="none" viewBox="0 0 242 256"><g clip-path="url(#a)"><path fill="url(#b)" d="m242 42.678-8.738 137.124L149.712 0zm-57.869 177.308-63.13 35.996-63.132-35.996 12.84-31.096h100.582zM121.001 68.25l33.08 80.367H87.919zM8.649 179.802 0 42.678 92.288 0z"/><path fill="url(#c)" d="m242 42.678-8.738 137.124L149.712 0zm-57.869 177.308-63.13 35.996-63.132-35.996 12.84-31.096h100.582zM121.001 68.25l33.08 80.367H87.919zM8.649 179.802 0 42.678 92.288 0z"/></g><defs><linearGradient id="b" x1="6067.3" x2="23641.1" y1="23276.3" y2="14919" gradientUnits="userSpaceOnUse"><stop stop-color="#e40035"/><stop offset=".24" stop-color="#f60a48"/><stop offset=".352" stop-color="#f20755"/><stop offset=".494" stop-color="#dc087d"/><stop offset=".745" stop-color="#9717e7"/><stop offset="1" stop-color="#6c00f5"/></linearGradient><linearGradient id="c" x1="5290.81" x2="17301.9" y1="3086.51" y2="16797.4" gradientUnits="userSpaceOnUse"><stop stop-color="#ff31d9"/><stop offset="1" stop-color="#ff5be1" stop-opacity="0"/></linearGradient><clipPath id="a"><path fill="#ebebeb" d="M0 0h242v256H0z"/></clipPath></defs></svg>
