<svg xmlns="http://www.w3.org/2000/svg" width="257" height="256" fill="none" viewBox="0 0 257 256"><g fill-rule="evenodd" clip-path="url(#a)" clip-rule="evenodd"><path fill="url(#b)" d="M128.715 190.561c56.636 77.209 112.064-21.549 111.982-80.939C240.602 39.404 169.434.159 128.67.159 63.244.16.932 54.233.932 128.217.932 210.451 72.356 256 128.67 256c-12.742-1.835-55.21-10.934-55.781-108.746-.384-66.156 21.58-92.585 55.688-80.958.764.283 37.622 14.823 37.622 62.321 0 47.294-37.484 61.944-37.484 61.944"/><path fill="url(#c)" d="M128.649 66.242c-37.424-12.9-83.268 17.944-83.268 79.725 0 100.876 74.754 110.032 83.815 110.032 65.424 0 127.736-54.073 127.736-128.057C256.932 45.708 185.508.159 129.194.159c15.597-2.16 84.065 16.879 84.065 110.459 0 61.025-51.126 94.247-84.377 80.054-.764-.283-37.622-14.823-37.622-62.322 0-47.298 37.389-62.11 37.389-62.108"/></g><defs><linearGradient id="b" x1="36.549" x2="216.874" y1="40.171" y2="220.548" gradientUnits="userSpaceOnUse"><stop/><stop offset="1" stop-color="#ebebeb"/></linearGradient><linearGradient id="c" x1="225.051" x2="44.726" y1="212.352" y2="31.992" gradientUnits="userSpaceOnUse"><stop/><stop offset="1" stop-color="#ebebeb"/></linearGradient><clipPath id="a"><path fill="#ebebeb" d="M.932 0h256v256h-256z"/></clipPath></defs></svg>
