<svg width="221" height="256" viewBox="0 0 221 256" fill="none"
  xmlns="http://www.w3.org/2000/svg">
  <g clip-path="url(#clip0_17_153)">
    <path d="M110.5 0L221 64V192L110.5 256L-6.10352e-05 192V64L110.5 0Z" fill="#673AB8"/>
    <path d="M30.3258 190.829C45.0435 209.666 91.8158 195.313 135.973 160.814C180.131 126.315 205.374 84.4055 190.656 65.5682C175.938 46.7309 129.166 61.0842 85.0083 95.5831C40.8507 130.082 15.608 171.991 30.3258 190.829ZM36.6132 185.917C31.7322 179.669 33.8648 167.406 43.1638 151.967C52.9558 135.709 69.5787 117.763 89.9206 101.87C110.262 85.9779 131.698 74.1909 149.841 68.623C167.072 63.3354 179.487 64.2331 184.368 70.4804C189.25 76.7277 187.117 88.9913 177.818 104.43C168.026 120.688 151.403 138.634 131.061 154.526C110.719 170.419 89.2839 182.206 71.1402 187.774C53.9099 193.061 41.4943 192.164 36.6132 185.917Z" fill="#EBEBEB"/>
    <path d="M190.656 190.829C205.374 171.991 180.131 130.082 135.973 95.5831C91.8158 61.0842 45.0435 46.7309 30.3258 65.5682C15.608 84.4055 40.8507 126.315 85.0083 160.814C129.166 195.313 175.938 209.666 190.656 190.829ZM184.368 185.917C179.487 192.164 167.072 193.061 149.841 187.774C131.698 182.206 110.262 170.419 89.9206 154.526C69.5787 138.634 52.9558 120.688 43.1638 104.43C33.8648 88.9913 31.7322 76.7277 36.6132 70.4804C41.4943 64.2331 53.9099 63.3354 71.1402 68.623C89.2839 74.1909 110.719 85.9779 131.061 101.87C151.403 117.763 168.026 135.709 177.818 151.967C187.117 167.406 189.25 179.669 184.368 185.917Z" fill="#EBEBEB"/>
    <path d="M110.491 145.154C119.855 145.154 127.446 137.563 127.446 128.199C127.446 118.835 119.855 111.244 110.491 111.244C101.127 111.244 93.5357 118.835 93.5357 128.199C93.5357 137.563 101.127 145.154 110.491 145.154Z" fill="#EBEBEB"/>
  </g>
  <defs>
    <clipPath id="clip0_17_153">
      <rect width="221" height="256" fill="#EBEBEB"/>
    </clipPath>
  </defs>
</svg>
