<svg xmlns="http://www.w3.org/2000/svg" width="257" height="147" fill="none" viewBox="0 0 257 147"><g clip-path="url(#a)"><path fill="#3a4d54" fill-rule="evenodd" d="M148.822 46.68h22.959v23.365h11.581c5.282 0 10.768-1.016 15.847-2.642 2.438-.812 5.283-2.031 7.721-3.454-3.251-4.266-4.876-9.549-5.283-14.831-.609-7.111.813-16.457 5.689-21.943l2.438-2.845 2.845 2.235c7.314 5.892 13.206 13.816 14.425 23.162 8.737-2.641 18.896-2.031 26.616 2.438l3.048 1.829-1.626 3.25c-6.501 12.597-20.114 16.661-33.32 15.848-19.911 49.372-62.984 72.737-115.403 72.737-27.023 0-51.81-10.159-66.032-34.134l-.203-.406-2.032-4.267c-4.876-10.565-6.298-22.146-5.283-33.726l.407-3.455H52.72V46.68h22.958V23.924h45.714V.965h27.429z" clip-rule="evenodd"/><path fill="#00aada" d="M223.184 55.418c1.625-11.987-7.315-21.333-13.003-25.803-6.299 7.314-7.315 26.819 2.641 34.946-5.689 4.876-17.27 9.549-29.46 9.549H36.669c-1.219 12.597 1.016 24.178 6.096 34.133l1.625 3.048c1.016 1.828 2.235 3.454 3.454 5.282 6.095.407 11.581.61 16.66.407 9.956-.203 18.083-1.422 24.381-3.454 1.016-.407 1.829.203 2.235 1.016.407 1.016-.203 1.828-1.016 2.235-.812.203-1.625.609-2.64.812-4.877 1.423-10.16 2.235-16.864 2.642h-1.22c-2.64.203-5.485.203-8.533.203-3.25 0-6.298 0-9.955-.203 12.19 13.815 31.289 21.942 55.263 21.942 50.794 0 93.867-22.552 112.762-72.94 13.613 1.423 26.616-2.031 32.508-13.612-9.143-5.486-21.333-3.657-28.241-.203"/><path fill="#28b8eb" d="M223.184 55.418c1.625-11.987-7.314-21.333-13.003-25.803-6.299 7.314-7.315 26.819 2.641 34.946-5.689 4.876-17.27 9.549-29.46 9.549H45.203c-.61 19.302 6.502 33.93 19.302 42.667 9.955-.204 18.082-1.423 24.38-3.454 1.016-.407 1.83.203 2.235 1.016.407 1.015-.203 1.828-1.015 2.234-.813.204-1.626.61-2.642.813-4.876 1.422-10.565 2.438-17.27 2.845l-.203-.204c17.27 8.94 42.261 8.737 71.111-2.234 32.102-12.394 62.172-35.962 83.099-62.781-.407.203-.813.203-1.016.406"/><path fill="#028bb8" d="M36.873 89.347c.812 6.705 2.844 13.003 5.892 18.895l1.625 3.048c1.016 1.829 2.235 3.454 3.454 5.283 6.095.406 11.58.609 16.66.406 9.956-.203 18.083-1.422 24.381-3.454 1.016-.406 1.829.203 2.235 1.016.406 1.016-.203 1.828-1.016 2.235-.812.203-1.625.609-2.641.812-4.876 1.423-10.565 2.439-17.27 2.845h-.812c-2.642.203-5.486.203-8.33.203-3.251 0-6.502 0-9.956-.203 12.19 13.816 31.492 21.943 55.466 21.943 43.48 0 81.27-16.457 103.213-52.826H36.873z"/><path fill="#019bc6" d="M46.625 89.347c2.641 11.784 8.737 21.13 17.88 27.429 9.955-.203 18.082-1.422 24.38-3.454 1.016-.407 1.829.203 2.235 1.016.407 1.016-.203 1.828-1.016 2.235-.812.203-1.625.609-2.64.812-4.877 1.422-10.566 2.438-17.474 2.845 17.27 8.939 42.26 8.736 70.908-2.235 17.27-6.705 34.133-16.661 49.168-28.648z"/><path fill="#00acd3" fill-rule="evenodd" d="M56.58 50.541h19.912v19.911H56.58zm1.626 1.626h1.625v16.457h-1.625zm2.844 0h1.626v16.457H61.05zm3.048 0h1.625v16.457h-1.625zm3.047 0h1.626v16.457h-1.626zm3.048 0h1.626v16.457h-1.626zm3.048 0h1.625v16.457h-1.625zm6.095-24.381h19.911v19.91H79.336zm1.829 1.625h1.625v16.457h-1.626zm2.844 0h1.625v16.457H84.01zm3.048 0h1.625v16.457h-1.625zm3.047 0h1.626v16.457h-1.626zm2.845 0h1.625v16.457h-1.625zm3.047 0h1.626v16.457h-1.626z" clip-rule="evenodd"/><path fill="#23c2ee" fill-rule="evenodd" d="M79.336 50.542h19.912v19.91H79.336zm1.829 1.625h1.625v16.457h-1.625zm2.844 0h1.626v16.457h-1.626zm3.048 0h1.625v16.457h-1.625zm3.048 0h1.625v16.457h-1.625zm2.844 0h1.626v16.457h-1.626zm3.048 0h1.625v16.457h-1.625z" clip-rule="evenodd"/><path fill="#00acd3" fill-rule="evenodd" d="M102.295 50.542h19.911v19.91h-19.911zm1.625 1.625h1.625v16.457h-1.625zm3.048 0h1.625v16.457h-1.625zm3.047 0h1.626v16.457h-1.626zm2.845 0h1.625v16.457h-1.625zm3.047 0h1.626v16.457h-1.626zm3.048 0h1.625v16.457h-1.625z" clip-rule="evenodd"/><path fill="#23c2ee" fill-rule="evenodd" d="M102.295 27.786h19.911v19.91h-19.911zm1.625 1.625h1.625v16.457h-1.625zm3.048 0h1.625v16.457h-1.625zm3.047 0h1.626v16.457h-1.626zm2.845 0h1.625v16.457h-1.625zm3.047 0h1.626v16.457h-1.626zm3.048 0h1.625v16.457h-1.625zm6.298 21.13h19.912v19.911h-19.912zm1.626 1.626h1.625v16.457h-1.625zm3.047 0h1.626v16.457h-1.626zm2.845 0h1.625v16.457h-1.625zm3.047 0h1.626v16.457h-1.626zm3.048 0h1.625v16.457h-1.625zm3.048 0h1.625v16.457h-1.625z" clip-rule="evenodd"/><path fill="#00acd3" fill-rule="evenodd" d="M125.254 27.786h19.911v19.91h-19.911zm1.625 1.625h1.625v16.457h-1.625zm3.048 0h1.625v16.457h-1.625zm2.844 0h1.625v16.457h-1.625zm3.048 0h1.625v16.457h-1.625zm3.047 0h1.626v16.457h-1.626zm3.048 0h1.625v16.457h-1.625z" clip-rule="evenodd"/><path fill="#23c2ee" fill-rule="evenodd" d="M125.254 4.827h19.911v19.91h-19.911zm1.625 1.625h1.625V22.91h-1.625zm3.048 0h1.625V22.91h-1.625zm2.844 0h1.625V22.91h-1.625zm3.048 0h1.625V22.91h-1.625zm3.047 0h1.626V22.91h-1.626zm3.048 0h1.625V22.91h-1.625z" clip-rule="evenodd"/><path fill="#00acd3" fill-rule="evenodd" d="M148.212 50.542h19.911v19.91h-19.911zm1.626 1.625h1.625v16.457h-1.625zm2.844 0h1.626v16.457h-1.626zm3.048 0h1.625v16.457h-1.625zm3.047 0h1.626v16.457h-1.626zm3.048 0h1.625v16.457h-1.625zm3.048 0h1.625v16.457h-1.625z" clip-rule="evenodd"/><path fill="#d4eef1" fill-rule="evenodd" d="M98.028 102.553a5.463 5.463 0 0 1 5.486 5.486 5.463 5.463 0 0 1-5.486 5.486 5.463 5.463 0 0 1-5.485-5.486 5.463 5.463 0 0 1 5.485-5.486" clip-rule="evenodd"/><path fill="#3a4d54" fill-rule="evenodd" d="M98.028 104.178c.407 0 1.016 0 1.423.203-.407.203-.813.813-.813 1.422 0 .813.813 1.626 1.625 1.626.61 0 1.219-.406 1.423-.813.203.407.203 1.016.203 1.422 0 2.235-1.829 3.861-3.86 3.861-2.236 0-3.86-1.829-3.86-3.861s1.624-3.86 3.86-3.86m-96.914-12.8h254.781c-5.486-1.422-17.473-3.25-15.644-10.565-10.159 11.58-34.337 8.127-40.635 2.438-6.908 9.956-46.73 6.095-49.372-1.625-8.533 10.158-35.149 10.158-43.682 0-2.845 7.72-42.667 11.58-49.372 1.625-6.095 5.689-30.476 9.143-40.635-2.438 2.235 7.111-9.955 9.143-15.44 10.565" clip-rule="evenodd"/><path fill="#bfdbe0" d="M112.657 142.172c-13.613-6.502-20.927-15.239-25.194-24.788-5.08 1.422-11.175 2.438-18.083 2.845-2.64.203-5.485.203-8.33.203-3.454 0-6.908 0-10.565-.203 12.19 12.19 27.632 21.739 55.873 21.943z"/><path fill="#d4eef1" d="M92.542 126.121c-1.828-2.641-3.657-5.689-5.079-8.737-5.08 1.422-11.175 2.438-18.082 2.845 4.672 2.438 11.58 4.876 23.161 5.892"/></g><defs><clipPath id="a"><path fill="#ebebeb" d="M.91.357h256v146.286H.91z"/></clipPath></defs></svg>
