<svg xmlns="http://www.w3.org/2000/svg" width="257" height="232" fill="none" viewBox="0 0 257 232"><g clip-path="url(#a)"><path fill="#fdb300" d="m56.525 8.669 72.142-7.575 72.141 7.575 55.859 74.366-128 147.871-128-147.871z"/><path fill="#ea6c00" d="m52.517 83.033 76.15 147.872-128-147.872zm152.299 0-76.149 147.872 128-147.872z"/><path fill="#fdad00" d="M52.517 83.033h152.299l-76.149 147.872z"/><path fill="#fdd231" d="M128.667 1.094 56.525 8.669l-4.008 74.366zm0 0 72.141 7.575 4.008 74.366z"/><path fill="#fdad00" d="M256.666 83.034 200.808 8.668l4.008 74.366z"/><path fill="#feeeb7" d="m128.667 1.094-76.15 81.94h152.299z"/><path fill="#fdad00" d="M.667 83.034 56.525 8.668l-4.008 74.366z"/></g><defs><clipPath id="a"><path fill="#ebebeb" d="M.667.59h256v230.82h-256z"/></clipPath></defs></svg>
