<svg width="243" height="256" viewBox="0 0 243 256" fill="none" xmlns="http://www.w3.org/2000/svg">
<g clip-path="url(#clip0_74_1014)">
<path d="M212.69 256L166.723 210.293L166.02 210.393V209.892L68.2648 113.366L92.3525 90.1119L78.2011 8.92212L11.0571 92.1167C-0.384527 103.644 -2.49217 122.388 5.73774 136.22L47.6902 205.783C54.1135 216.508 65.7557 222.923 78.3015 222.822L99.0772 222.622L212.69 256Z" fill="#18B6F6"/>
<path d="M237.777 90.5125L228.543 73.4728L223.726 64.7526L221.819 61.3444L221.619 61.5451L196.326 17.7426C190.003 6.7168 178.161 -0.0991516 165.314 0.0010907L143.133 0.60244L76.9925 0.802925C64.4472 0.903168 53.0057 7.51864 46.6825 18.2437L6.43628 98.0301L78.3978 8.72144L172.741 112.364L155.98 129.303L166.016 210.393L166.117 210.192V210.393H165.916L166.117 210.593L173.945 218.211L211.983 255.398C213.589 256.902 216.199 255.098 215.095 253.193L191.609 206.985L232.558 131.308L233.863 129.805C234.365 129.203 234.866 128.602 235.268 128C243.297 117.075 244.401 102.441 237.777 90.5125Z" fill="#AC7EF4"/>
<path d="M173.041 111.963L78.3965 8.82153L91.8454 89.6105L67.7578 112.965L165.814 210.293L156.982 129.504L173.041 111.963Z" fill="white"/>
</g>
<defs>
<clipPath id="clip0_74_1014">
<rect width="242" height="256" fill="white" transform="translate(0.758545)"/>
</clipPath>
</defs>
</svg>
