<svg xmlns="http://www.w3.org/2000/svg" width="256" height="230" fill="none" viewBox="0 0 256 230">
  <g clip-path="url(#a)">
    <path fill="#ebebeb" d="M121.765 84.73c2.085-3.075 4.368-3.465 6.219-3.465 1.853 0 4.938.39 7.024 3.464 16.438 22.579 43.571 67.555 63.587 100.733 13.052 21.635 23.077 38.253 25.134 40.368 7.72 7.939 18.31 2.991 24.464-6.013 6.057-8.866 7.739-15.091 7.739-21.733 0-4.522-87.763-167.744-96.601-181.33C150.832 3.687 148.063.386 133.515.386h-10.886c-14.504 0-16.601 3.3-25.102 16.368C88.691 30.34.927 193.56.927 198.085c0 6.641 1.682 12.866 7.74 21.732 6.153 9.004 16.742 13.952 24.464 6.013 2.057-2.115 12.082-18.732 25.135-40.368 20.015-33.178 47.061-78.155 63.499-100.733"/>
  </g>
  <defs>
    <clipPath id="a">
      <path fill="#ebebeb" d="M0 0h256v230H0z"/>
    </clipPath>
  </defs>
</svg>
