<svg width="214" height="256" viewBox="0 0 214 256" fill="none"
  xmlns="http://www.w3.org/2000/svg">
  <g clip-path="url(#clip0_15_21)">
    <path d="M199.899 34.0779C188.609 17.7007 171.507 6.25889 152.085 2.08828C132.662 -2.08234 112.383 1.33274 95.3875 11.6363L35.6666 49.0389C27.6577 54.0987 20.7911 60.7782 15.5064 68.6501C10.2217 76.5219 6.63529 85.4126 4.97668 94.7532C2.20644 110.668 4.83454 127.055 12.4418 141.299C7.11037 149.049 3.43892 157.822 1.65885 167.065C0.0167578 176.579 0.270748 186.325 2.40617 195.74C4.5416 205.155 8.5162 214.054 14.1007 221.922C38.155 256 84.6046 265.974 118.612 244.364L178.333 206.13C186.342 201.07 193.209 194.391 198.493 186.519C203.778 178.647 207.365 169.756 209.023 160.416C211.605 144.769 208.982 128.707 201.558 114.701C206.89 106.951 210.561 98.1778 212.341 88.935C213.983 79.4209 213.729 69.6752 211.594 60.2599C209.458 50.8446 205.484 41.9462 199.899 34.0779Z" fill="#FF3E00"/>
    <path d="M89.5814 225.247C70.5039 230.234 49.7675 222.753 38.9845 206.13C35.5992 201.363 33.1955 195.967 31.9138 190.259C30.6321 184.551 30.498 178.644 31.5194 172.883C31.6946 171.206 31.9716 169.54 32.3489 167.896L34.0078 164.571L37.3256 166.234C44.347 171.414 52.2023 175.349 60.5504 177.87L62.2093 178.701V181.195C62.088 184.166 62.9641 187.093 64.6977 189.507C66.3034 191.88 68.5915 193.707 71.2582 194.747C73.925 195.786 76.8441 195.987 79.6279 195.325C81.0942 195.009 82.4964 194.447 83.7752 193.662L142.667 156.26C144.162 155.36 145.451 154.154 146.452 152.723C147.452 151.291 148.141 149.664 148.473 147.948C148.739 146.203 148.657 144.423 148.229 142.71C147.802 140.998 147.039 139.388 145.985 137.974C144.379 135.601 142.091 133.773 139.424 132.734C136.757 131.695 133.838 131.493 131.054 132.156C129.876 132.552 128.759 133.111 127.736 133.818L104.512 147.948C100.956 150.464 97.0408 152.425 92.8993 153.766C73.8217 158.753 53.0853 150.442 42.3024 134.649C38.917 129.882 36.5133 124.487 35.2316 118.779C33.9499 113.07 33.8158 107.163 34.8372 101.403C35.8032 95.8088 37.9256 90.4791 41.0681 85.7556C44.2106 81.0321 48.3039 77.0191 53.0853 73.9741L112.806 35.7403C116.412 33.5158 120.325 31.8355 124.419 30.7533C143.496 25.7663 164.233 33.2468 175.016 49.039C178.401 53.8062 180.805 59.2015 182.086 64.9097C183.368 70.618 183.502 76.525 182.481 82.2858C182.339 84.2421 182.062 86.1861 181.651 88.104L179.992 91.4286L176.674 88.9351C169.653 83.7553 161.798 79.8195 153.45 77.2988H151.791V74.8052C152.11 71.5548 151.224 68.3004 149.302 65.6624C147.697 63.2892 145.409 61.4616 142.742 60.4224C140.075 59.3832 137.156 59.1816 134.372 59.8442C132.906 60.1595 131.504 60.7216 130.225 61.5065L71.3334 99.7403C69.8382 100.641 68.5486 101.846 67.5484 103.278C66.5481 104.709 65.8595 106.336 65.5272 108.052C65.2606 109.797 65.3434 111.577 65.7706 113.29C66.1978 115.002 66.961 116.612 68.0155 118.026C69.6212 120.399 71.9093 122.227 74.5761 123.266C77.2428 124.305 80.1619 124.507 82.9458 123.844C84.1239 123.448 85.2408 122.889 86.2636 122.182L109.488 108.052C113.044 105.537 116.959 103.575 121.101 102.234C140.178 97.2468 160.915 104.727 171.698 121.351C175.083 126.118 177.487 131.513 178.768 137.221C180.05 142.93 180.184 148.837 179.163 154.597C178.197 160.191 176.074 165.521 172.932 170.245C169.789 174.968 165.696 178.981 160.915 182.026L101.194 219.429C97.6382 221.944 93.723 223.906 89.5814 225.247Z" fill="#EBEBEB"/>
  </g>
  <defs>
    <clipPath id="clip0_15_21">
      <rect width="214" height="256" fill="#EBEBEB"/>
    </clipPath>
  </defs>
</svg>
