<svg width="256" height="256" viewBox="0 0 256 256" fill="none" xmlns="http://www.w3.org/2000/svg">
<g clip-path="url(#clip0_19_23)">
<path d="M127.742 255.773C59.1864 255.773 1.0639 197.871 0.524625 128.887C0.407013 112.245 3.59333 95.7455 9.89893 80.3438C16.2045 64.9422 25.504 50.9451 37.2585 39.1636C49.0907 27.0484 63.2115 17.4041 78.8013 10.7906C94.391 4.17705 111.139 0.725991 128.073 0.637741C144.704 0.623648 161.172 3.89992 176.531 10.2778C191.889 16.6558 205.834 26.0093 217.562 37.7997C229.485 49.4235 238.99 63.2919 245.529 78.6056C252.068 93.9192 255.512 110.376 255.662 127.026C255.979 197.54 199.292 255.07 128.776 255.788H127.742V255.773ZM128.141 7.31472C112.09 7.4099 96.2186 10.6914 81.4464 16.9687C66.6743 23.2461 53.2957 32.3944 42.0869 43.8829C30.939 55.0296 22.1144 68.278 16.1243 82.8602C10.1342 97.4424 7.09781 113.069 7.19112 128.833C7.68633 194.216 62.7872 249.04 127.7 249.04H128.569C195.429 248.431 249.233 193.924 248.983 127.066C248.834 111.293 245.566 95.7056 239.365 81.2018C233.165 66.698 224.155 53.5647 212.856 42.5588C201.771 31.3694 188.575 22.4923 174.033 16.4423C159.491 10.3922 143.891 7.28975 128.141 7.31472Z" fill="#0B5A9D"/>
<path d="M29.1461 165.524V90.9949H47.276V97.6739H37.6592V158.984H47.2781V165.663L29.1461 165.524ZM90.6764 127.521C90.6764 141.114 82.4235 148.855 71.2455 148.855C60.0676 148.855 52.6184 140.134 52.6184 128.226C52.6184 115.764 60.4285 106.989 71.8541 106.989C83.2796 106.989 90.6764 116.137 90.6764 127.521ZM60.4285 128.13C60.4285 136.38 64.5686 142.923 71.6757 142.923C78.7829 142.923 82.8663 136.244 82.8663 127.825C82.8663 120.181 79.0976 112.963 71.6736 112.963C64.2496 112.963 60.3593 119.946 60.3593 128.295L60.4285 128.13ZM96.9547 108.397C100.501 107.788 104.104 107.486 107.705 107.498C111.751 107.105 115.819 108.003 119.323 110.065C120.638 110.836 121.722 111.945 122.462 113.277C123.203 114.61 123.572 116.116 123.532 117.64C123.486 119.62 122.815 121.535 121.616 123.111C120.416 124.687 118.749 125.844 116.853 126.417C121.615 127.383 125.037 131.579 125.037 136.437C125.062 138.033 124.723 139.615 124.047 141.061C123.37 142.507 122.373 143.78 121.132 144.784C118.261 147.323 113.488 148.553 106.104 148.553C103.069 148.567 100.036 148.387 97.0239 148.014L96.9547 108.397ZM104.297 124.39H108.063C113.169 124.39 116.039 121.988 116.039 118.553C116.039 115.116 113.169 113.005 108.464 113.005C107.054 112.961 105.644 113.063 104.255 113.309L104.297 124.39ZM104.297 143.02C105.594 143.156 106.905 143.213 108.2 143.183C112.948 143.183 117.143 141.376 117.143 136.506C117.143 131.636 113.072 129.827 107.967 129.827H104.295L104.297 143.02ZM139.625 107.857H147.005V134.2C147.005 145.393 141.597 149.132 133.649 149.132C131.525 149.119 129.418 148.759 127.41 148.068L128.308 142.121C129.784 142.591 131.33 142.824 132.889 142.854C137.098 142.854 139.568 140.921 139.568 133.911L139.625 107.857ZM168.009 129.798V134.905H152.649V129.798H168.009ZM203.872 147.157C200.547 148.484 196.988 149.09 193.427 148.966C180.566 148.966 172.756 140.921 172.756 128.597C172.162 117.365 180.786 107.775 192.019 107.182C192.806 107.14 193.607 107.14 194.392 107.194C197.824 107.052 201.246 107.669 204.412 109.003L202.769 114.88C200.255 113.816 197.55 113.28 194.82 113.307C186.569 113.307 180.635 118.483 180.635 128.239C180.635 137.125 185.879 142.866 194.766 142.866C197.521 142.909 200.257 142.397 202.811 141.362L203.872 147.157ZM227.043 90.7871V165.51H208.911V158.833H218.527V97.4662H208.911V90.7871H227.043Z" fill="#0B5A9D"/>
</g>
<defs>
<clipPath id="clip0_19_23">
<rect width="256" height="256" fill="white"/>
</clipPath>
</defs>
</svg>
