<svg width="240" height="256" viewBox="0 0 240 256" fill="none"
  xmlns="http://www.w3.org/2000/svg">
  <path d="M118.768 0L0.306213 42.078L18.3745 198.096L118.768 253.482L219.161 198.096L237.229 42.078L118.768 0Z" fill="#DD0031"/>
  <mask id="mask0_42_486" style="mask-type:alpha" maskUnits="userSpaceOnUse" x="0" y="0" width="238" height="254">
    <path d="M118.768 0L0.306213 42.078L18.3745 198.096L118.768 253.482L219.161 198.096L237.229 42.078L118.768 0Z" fill="#EBEBEB"/>
  </mask>
  <g mask="url(#mask0_42_486)">
    <path fill-rule="evenodd" clip-rule="evenodd" d="M118.767 0V28.1365V28.0098V156.398V253.482L219.16 198.096L237.229 42.078L118.767 0Z" fill="#C3002F"/>
  </g>
  <path d="M153.491 120.218L142.127 117.694L150.966 130.316V169.445L181.269 144.2V101.285L167.38 106.334L153.491 120.218Z" fill="#EBEBEB"/>
  <path d="M82.7815 120.218L94.1453 117.694L85.307 130.316V169.445L55.0029 144.2V101.285L68.8924 106.334L82.7815 120.218Z" fill="#EBEBEB"/>
  <path fill-rule="evenodd" clip-rule="evenodd" d="M88.9702 132.685L99.0423 117.508L105.337 121.302H130.518L136.813 117.508L146.885 132.685V189.6L139.331 200.982L130.518 209.836H105.337L96.5243 200.982L88.9702 189.6V132.685Z" fill="#EBEBEB"/>
  <path d="M150.965 193.426L167.38 177.018V160.608L150.965 174.493V193.426Z" fill="#EBEBEB"/>
  <path d="M85.307 193.426L68.8923 177.018V160.608L85.307 174.493V193.426Z" fill="#EBEBEB"/>
  <path fill-rule="evenodd" clip-rule="evenodd" d="M101.721 44.4854L91.6198 68.4675L108.034 116.432H115.61V44.4854H101.721ZM120.661 44.4854V116.432H129.5L144.652 68.4675L134.551 44.4854H120.661Z" fill="#EBEBEB"/>
  <path d="M108.034 116.432L53.7397 96.2362L46.1638 64.6807L92.8826 68.4674L109.297 116.432H108.034Z" fill="#EBEBEB"/>
  <path d="M129.499 116.432L183.794 96.2362L191.37 64.6807L143.388 68.4674L128.237 116.432H129.499Z" fill="#EBEBEB"/>
  <path d="M147.177 64.6808L173.692 62.1565L156.015 44.4854H138.338L147.177 64.6808Z" fill="#EBEBEB"/>
  <path d="M89.0945 64.6808L62.5787 62.1565L80.2562 44.4854H97.9332L89.0945 64.6808Z" fill="#EBEBEB"/>
</svg>
