<svg xmlns="http://www.w3.org/2000/svg" width="256" height="256" fill="none" viewBox="0 0 256 256"><g clip-path="url(#a)"><rect width="256" height="256" fill="#012d2c" rx="45"/><path fill="#06f2c2" d="M121.562 157.128v18.13c0 1.295-.498 2.191-1.395 2.49-5.877 2.092-14.045 3.187-24.504 3.088-17.73 0-32.274-5.08-43.63-15.34C40.679 155.236 35 140.991 35 122.563c0-18.328 5.777-32.97 17.233-44.028C63.688 67.578 79.128 62 98.552 62c10.857 0 18.527.996 22.91 2.988.797.3 1.196.996 1.295 2.092v19.225c0 1.295-.498 1.693-1.594 1.195-5.179-2.59-13.248-3.884-24.105-3.884-11.057.1-19.923 3.486-26.796 10.26-6.773 6.773-10.26 16.136-10.26 28.189s3.885 21.217 11.555 27.593c7.57 6.275 16.237 9.463 25.8 9.463 9.562 0 17.132-.897 22.81-2.789.897-.399 1.395-.1 1.395.796M177.145 89.891c14.443 0 25.5 4.084 33.071 12.352s11.455 18.328 11.455 30.381c0 15.141-5.28 26.995-15.838 35.462s-23.21 12.75-38.052 12.75c-1.394 0-2.49-.1-3.287-.199v29.983c0 .896-.697 1.394-2.092 1.593a406 406 0 0 0-12.949 1.295c-5.18.598-7.869.897-8.268.897-.797 0-1.195-.399-1.195-1.295V109.614c0-2.49-.199-6.375-.498-11.555 0-.498.199-.697.697-.896 14.444-4.781 26.696-7.272 36.956-7.272m-2.192 20.719q-5.826 0-10.459 1.494v48.013c.897.199 2.789.299 5.578.299q10.61 0 18.528-6.575c5.279-4.382 7.869-10.558 7.869-18.726 0-8.169-1.793-14.245-5.478-18.428-3.786-3.985-9.065-6.077-16.038-6.077"/></g><defs><clipPath id="a"><path fill="#ebebeb" d="M0 0h256v256H0z"/></clipPath></defs></svg>
