<svg width="196" height="256" viewBox="0 0 196 256" fill="none"
  xmlns="http://www.w3.org/2000/svg">
  <g clip-path="url(#clip0_20_1093)">
    <path fill-rule="evenodd" clip-rule="evenodd" d="M163.701 179.423C171.102 173.913 174.899 166.943 176.662 158.315C185.246 166.804 188.271 176.788 187.563 188.065C186.603 203.357 179.579 214.501 165.078 220.488C163.942 220.959 162.918 222.195 162.293 223.327C155.496 235.642 145.498 243.435 131.408 245.663C130.227 245.849 129.048 246.522 128.032 247.209C111.277 258.516 84.6423 258.475 67.7999 247.131C66.6603 246.368 65.3755 245.85 64.026 245.607C51.3561 243.417 41.7313 236.734 35.2177 225.765C33.3246 222.573 31.1238 220.426 27.7008 218.863C3.24665 207.702 3.66368 171.52 18.9617 158.914C20.4544 162.599 21.6064 166.47 23.5346 169.909C25.4794 173.38 28.1922 176.419 30.5685 179.648L31.7328 179.33C32.1354 175.285 32.6722 171.249 32.9055 167.197C33.2337 161.49 33.4835 155.77 33.5001 150.053C33.5207 143.075 30.9112 137.641 24.3212 134.247C19.4964 131.761 14.6799 129.009 10.4807 125.609C0.215937 117.297 0.476063 106.093 10.8523 98.054C13.3442 96.1257 14.8224 93.9229 15.1135 90.8055C15.7266 84.2362 16.7589 77.6855 12.0539 71.8924C10.7491 70.2862 10.0926 68.0566 9.46909 66.0106C6.43013 56.0658 11.323 48.1381 21.6291 46.5216C24.5999 46.055 26.2164 45.287 26.5715 41.8289C27.2054 35.6664 25.882 31.4341 20.2046 28.4653C15.6854 26.0994 10.6459 24.7244 5.65593 22.8395C11.4861 14.4617 20.1571 10.6424 30.3186 10.0292C43.7545 9.21578 54.2877 15.3495 63.2497 24.7575C64.7383 26.3182 65.9832 28.1226 67.5501 29.5926C68.3243 30.3213 69.6002 30.9242 70.5891 30.8437C71.1032 30.8003 71.7948 29.1735 71.8774 28.2197C72.5504 20.3311 76.1137 13.9642 81.9295 8.77397C82.9204 7.89036 84.1757 7.30197 85.3339 6.56081L88.187 19.9224L89.4257 19.91C91.4696 9.20546 98.7739 3.75101 108.339 0.311523C108.139 3.51565 107.67 6.51746 107.845 9.48004C108.017 12.3187 108.853 15.1203 109.503 18.4793C114.943 14.6847 119.679 10.7456 125.883 10.9087C124.547 15.9915 123.096 20.9402 121.985 25.9652C121.415 28.5438 122.128 30.9882 125.408 30.92C126.608 30.8953 128.088 29.96 128.92 28.9918C135.989 20.7771 143.826 13.7495 154.731 11.047C168.639 7.59926 182.639 12.2651 190.562 23.3371C189.057 23.7066 187.641 23.9399 186.305 24.4065C182.855 25.6163 179.199 26.502 176.065 28.2878C169.426 32.072 168.363 35.6478 169.952 44.1371C170.097 44.903 171.315 45.7102 172.203 46.0364C173.613 46.5526 175.2 46.5649 176.652 46.9944C185.131 49.4904 189.181 56.5138 186.759 64.9907C185.876 68.0316 184.573 70.9342 182.886 73.6142C178.574 80.4787 180.174 87.5497 181.941 94.5484C182.333 96.0989 184.391 97.3314 185.855 98.4978C194.795 105.622 195.655 116.488 187.071 124.09C182.296 128.318 176.507 131.491 170.908 134.672C165.765 137.594 162.741 141.863 162.724 147.489C162.681 158.131 163.333 168.776 163.701 179.423ZM126.744 161.106L126.703 161.137C126.686 161.247 126.698 161.359 126.739 161.463C126.779 161.566 126.847 161.657 126.934 161.726L127.58 163.274C129.876 169.3 132.077 175.366 134.49 181.343C137.37 188.48 135.378 188.216 144.507 187.392L152.055 186.011C156.004 185.934 157.032 183.963 156.723 180.118C155.967 170.774 155.693 161.391 155.164 152.027C154.489 140.088 159.159 131.569 170.347 126.505C174.409 124.666 178.274 121.837 181.429 118.664C186.227 113.835 184.862 106.5 179.005 103.141L178.501 107.276C174.054 100.319 172.766 93.254 171.604 86.1438L171.484 82.3513C171.572 82.2555 171.625 82.1331 171.635 82.0037C171.645 81.8743 171.611 81.7452 171.54 81.6369L173.355 67.8935L174.056 67.9967L175.078 72.3012C176.546 69.7329 177.754 67.9575 178.625 66.0354C182.044 58.471 178.968 53.4109 170.567 53.5203C165.559 53.5843 160.449 54.3275 155.587 55.56C142.897 58.7786 132.492 66.3657 122.132 73.9466C121.097 74.7043 120.014 75.398 118.952 76.1205L118.461 75.5466L123.837 67.848L125.16 66.3038C125.248 66.2493 125.323 66.1767 125.38 66.0909C125.438 66.0051 125.476 65.9081 125.493 65.8062L145.595 49.703L133.373 43.1833L133.208 43.2101L132.322 42.5557C118.207 35.9347 103.196 34.5846 88.057 36.3931C79.7555 37.384 71.7039 40.4622 63.5388 42.5969C58.7305 44.4653 54.1576 46.695 51.0402 50.1304L71.1321 66.4607L71.1238 66.4276L71.8484 67.4248L77.5052 75.5776C71.1197 72.0018 65.3597 67.9244 59.4325 64.1051C50.2536 58.1923 40.2985 54.2387 29.3215 53.4666C24.6743 53.1404 19.1806 52.583 16.7651 57.5606C14.265 62.7136 17.6714 67.2679 20.5432 71.5022C20.6505 71.6612 20.985 71.6674 21.3566 71.7933L21.8211 67.7758C22.7481 69.7433 23.3199 71.688 23.547 73.672C23.993 77.5657 24.249 81.4821 24.5855 85.3902C23.8278 89.0919 23.3323 92.8762 22.2381 96.4767C21.1212 100.154 19.418 103.651 17.9708 107.229L17.147 106.847L16.9096 103.166C10.3032 107.194 9.92329 115.45 16.2717 120.512C20.1075 123.569 24.4905 126.024 28.8508 128.33C37.0531 132.666 40.7816 139.604 40.6516 148.525C40.505 158.794 39.8835 169.059 39.2931 179.317C38.9752 184.838 38.81 184.83 43.8268 186.002L52.1014 187.417C54.7336 187.204 58.1277 189.634 59.7277 185.726C62.8864 178.015 65.7932 170.201 68.8033 162.43C68.9315 162.249 68.9974 162.032 68.9912 161.81L69.7571 160.181L72.8208 154.335L73.7354 154.657C72.3666 168.359 67.5398 181.277 63.4273 194.706C86.362 194.706 108.671 194.708 130.978 194.694C131.337 194.694 131.695 194.523 131.934 194.461L120.784 152.173L122.039 151.787L126.195 160.177L126.744 161.106ZM152.877 224.299C144.455 223.882 141.526 226.36 139.532 235.862C145.019 232.949 149.827 229.669 152.819 224.25L152.934 223.965L152.877 224.299ZM177.345 175.498C170.128 190.292 156.446 193.67 142.209 195.293L149.004 208.252L147.949 216.745C159.355 216.039 169.364 212.616 175.803 202.793C181.798 193.643 181.536 183.527 178.353 173.227L177.345 175.498ZM17.915 174.338C17.8737 174.098 17.8696 173.669 17.7829 173.65C17.5228 173.597 16.9922 173.675 16.9819 173.754C16.441 177.976 15.4583 182.214 15.5305 186.434C15.7824 201.16 23.7328 211.216 37.9491 215.116C41.2172 216.012 44.6484 216.318 48.1437 216.921L46.8534 208.254L53.8624 195.225C38.7873 193.812 25.0934 189.663 17.915 174.338ZM136.047 225.769L136.86 224.272C138.072 221.504 139.488 218.803 140.461 215.954C143.59 206.765 140.06 201.759 130.338 201.358C129.705 201.332 129.071 201.32 128.437 201.321C108.145 201.319 87.8526 201.298 67.5625 201.35C65.5558 201.354 63.5057 201.587 61.5527 202.046C55.5285 203.46 53.1625 207.011 54.7501 212.963C55.7824 216.838 57.6157 220.5 59.0897 224.26L59.8536 225.66L60.4255 226.603C63.7266 230.87 66.3651 235.953 70.4466 239.257C83.866 250.12 99.226 251.016 115.009 245.512C124.743 242.116 131.755 235.251 136.049 225.771L136.047 225.769ZM175.96 20.294C160.885 13.704 145.36 19.4723 136.412 34.9975L141.664 37.5471C148.545 27.3237 158.079 20.9835 169.946 22.1995C171.629 22.3729 173.458 21.1301 175.96 20.294ZM20.9974 20.936C23.2374 21.3593 25.4815 22.1644 27.7174 22.1355C34.458 22.0447 40.5917 23.6591 45.6786 28.1453C48.8621 30.951 51.6823 34.1696 54.8224 37.3655L59.6141 34.9066C51.5398 20.0875 34.9143 13.576 20.9974 20.936ZM163.688 28.2609C163.053 28.36 161.967 28.4364 160.932 28.7131C155.585 30.1438 152.325 33.9095 150.36 38.7962C149.759 40.2888 149.429 42.7332 150.23 43.7717C151.892 45.927 153.349 48.8855 157.483 47.4878C160.255 46.5505 160.986 44.9484 161.372 42.632C162.134 38.0612 162.85 33.4821 163.688 28.2609ZM32.1746 28.4695C32.794 31.975 33.3845 35.2844 33.9605 38.5938C34.2619 40.3342 34.5034 42.0829 34.8317 43.8171C35.5212 47.4341 38.9999 48.3879 41.1697 47.6612C43.451 46.8973 46.3145 43.943 46.5334 41.7092C47.1259 35.6705 38.5788 28.4344 32.1746 28.4695ZM42.9122 224.33C46.2608 229.306 50.7016 233.129 57.1904 236.05C53.6766 229.621 52.5803 221.915 42.9122 224.33Z" fill="#493310"/>
    <path fill-rule="evenodd" clip-rule="evenodd" d="M24.5831 85.3942C24.2466 81.484 23.9906 77.5697 23.5447 73.676C23.298 71.629 22.7148 69.6367 21.8187 67.7798L21.3542 71.7973C20.9826 71.6714 20.6482 71.6673 20.5408 71.5062C17.6691 67.2719 14.2626 62.7176 16.7627 57.5646C19.1782 52.587 24.6719 53.1444 29.3191 53.4706C40.2962 54.2448 50.2533 58.1984 59.4301 64.1091C65.3573 67.9284 71.1173 72.0058 77.5029 75.5816L71.8461 67.4288L71.1215 66.4337L71.1318 66.4667C69.8848 63.5042 68.8505 60.4322 67.3475 57.6058C64.8371 52.8802 61.2655 48.5096 63.5364 42.6009C71.7016 40.4642 79.7532 37.388 88.0546 36.3971C103.194 34.5886 118.205 35.9387 132.32 42.5617L133.206 43.2141L133.367 43.1893C133.548 48.4002 131.55 52.8409 128.924 57.2218C127.359 59.8335 126.607 62.9302 125.49 65.8102C125.473 65.912 125.435 66.009 125.378 66.0951C125.321 66.1812 125.247 66.2543 125.16 66.3098L123.835 67.852L118.459 75.5506L118.95 76.1246C120.011 75.402 121.095 74.7083 122.129 73.9506C132.489 66.3697 142.892 58.7806 155.585 55.564C160.447 54.3315 165.559 53.5883 170.565 53.5243C178.966 53.4149 182.042 58.475 178.623 66.0394C177.752 67.9635 176.544 69.739 175.076 72.3052L174.054 68.0007L173.352 67.8975L171.537 81.6409L171.366 81.8515L171.48 82.3573L171.599 86.1498C171.197 87.2296 170.449 88.3073 170.441 89.3891C170.365 98.1798 171.147 106.776 177.89 114.504C172.545 117.221 167.817 119.837 162.912 122.06C158.463 124.079 153.842 125.884 152.245 131.006C150.919 135.258 150.159 139.687 149.156 144L146.685 137.145C145.964 153.858 146.728 170.217 152.046 186.017L144.498 187.398C139.457 179.73 134.43 172.054 129.343 164.418C128.986 163.883 128.174 163.652 127.574 163.28L126.927 161.732L127.252 161.273L126.696 161.143L126.74 161.112L126.186 160.188L122.03 151.797L120.775 152.183L131.926 194.471C131.686 194.533 131.327 194.704 130.97 194.704C108.663 194.719 86.3555 194.717 63.4187 194.717C67.5292 181.285 72.3581 168.369 73.7269 154.667L72.8123 154.345L69.7465 160.192L68.9806 161.821C68.9863 162.042 68.9212 162.259 68.7947 162.44C68.0515 163.032 67.1039 163.489 66.596 164.24C62.8695 169.749 59.2109 175.304 55.6211 180.903C54.2936 182.982 53.2593 185.247 52.0928 187.427L43.8182 186.013C49.3821 170.252 50.0737 153.926 49.3367 137.41L46.7189 144.247C46.1594 133.074 42.8335 124.647 31.0347 121.199C26.5362 119.884 22.626 116.56 19.3847 114.694C21.4058 109.564 23.7036 105.757 24.3044 101.696C25.1013 96.363 24.5542 90.8342 24.5831 85.3942ZM110.112 86.2345L110.878 85.4438L112.744 83.2802C107.897 83.755 103.177 84.5973 98.4618 84.5726C93.7052 84.5457 88.9506 83.658 84.196 83.1501L83.2051 82.8735L84.196 83.148L85.7155 86.2015C94.1924 95.8365 101.274 96.0286 109.8 86.8477C109.965 86.6701 110.046 86.4141 110.166 86.1953L110.112 86.2345ZM62.8324 137.3L71.9246 131.681C73.9664 127.667 76.4025 123.79 77.8745 119.578C78.5764 117.566 78.9584 116.459 81.1488 115.883C85.9571 114.624 88.4283 111.378 88.3065 107.193L83.49 107.782C78.3369 104.856 74.4329 100.791 71.2639 95.7375C69.5008 92.9256 66.7571 90.6257 64.1558 88.4559C58.6126 83.8314 51.6716 82.7785 44.8897 82.634C40.7235 82.5473 36.514 84.5292 32.3251 85.5821C32.1971 85.708 32.0567 85.7204 31.9039 85.6296L30.7994 86.1003L30.5867 86.41C30.5682 86.5132 30.6218 86.7114 30.69 86.7362C32.1971 87.2709 33.7104 87.7891 35.4879 88.4043C31.4477 93.4768 31.9555 98.2954 35.042 103.564L36.644 97.9217L37.4162 97.994L37.8064 101.983L38.3163 103.752L38.6136 104.935C38.1945 117.718 49.6257 126.924 66.6229 126.61L62.8427 137.313L62.6693 137.62L62.8324 137.3ZM133.016 137.298L133.317 137.48L133.003 137.311L129.357 126.49C149.166 128.448 157.294 114.981 158.009 102.68L158.791 98.0373L159.435 98.0621L160.922 103.589C163.915 98.2665 164.685 93.4169 160.496 88.5055L165.468 86.5524L163.399 85.7411C162.388 85.1258 161.419 84.0688 160.36 83.9718C155.793 83.5424 151.179 82.9829 146.625 83.2348C137.578 83.7344 130.132 87.6776 125.03 95.3039C121.638 100.374 117.984 105.04 112.36 107.78L107.151 107.189C107.983 112.148 110.81 114.727 115.156 116.102C116.184 116.428 117.224 117.533 117.73 118.546C119.902 122.873 121.878 127.3 123.924 131.691L133.016 137.298Z" fill="#F5A900"/>
    <path fill-rule="evenodd" clip-rule="evenodd" d="M59.0856 224.26C57.6115 220.503 55.7782 216.84 54.7459 212.963C53.1583 207.011 55.5243 203.46 61.5485 202.046C63.5191 201.588 65.5352 201.354 67.5583 201.35C87.8505 201.301 108.143 201.319 128.433 201.322C129.066 201.322 129.702 201.332 130.334 201.359C140.056 201.757 143.586 206.766 140.456 215.955C139.486 218.804 138.07 221.504 136.856 224.273L136.042 225.77L136.04 225.774C133.416 227.479 130.863 229.306 128.154 230.865C121.343 234.773 113.921 236.544 106.146 237.477C95.5119 238.755 85.1377 237.946 75.1867 234.131C70.0564 232.163 65.3287 229.145 60.4192 226.604L59.8474 225.66L59.0856 224.26ZM132.165 218.12L133.001 216.618C135.326 210.63 134.286 209.008 127.958 208.933C123.259 208.882 118.556 208.843 113.857 208.946C109.297 209.045 108.283 210.519 109.499 214.885C110.048 217.165 110.281 219.586 111.213 221.698C113.581 227.08 117.862 230.084 121.653 229.451C126.812 228.59 131.439 223.6 132.188 218.09L132.165 218.12ZM63.6626 218.116L63.6523 218.098C64.5132 223.821 67.9733 227.343 73.2936 229.067C77.0448 230.28 80.3459 228.588 82.1689 225.66C84.1591 222.462 85.0469 218.579 86.4156 214.993C87.7204 210.525 86.7996 209.096 82.2577 208.962C78.2009 208.84 74.1379 208.904 70.077 208.938C61.3607 209.006 61.1914 209.216 62.8719 217.33L63.6626 218.116Z" fill="#F5A800"/>
    <path fill-rule="evenodd" clip-rule="evenodd" d="M24.5835 85.3945C24.5546 90.8345 25.1017 96.3633 24.311 101.69C23.7082 105.751 21.4104 109.558 19.3913 114.688C22.6326 116.554 26.5428 119.878 31.0413 121.193C42.838 124.641 46.166 133.068 46.7255 144.242L49.3433 137.404C50.0783 153.92 49.3866 170.244 43.8248 186.007C38.8081 184.836 38.9732 184.844 39.2912 179.322C39.8837 169.065 40.503 158.798 40.6496 148.529C40.7797 139.609 37.0512 132.67 28.8488 128.334C24.4886 126.03 20.1077 123.576 16.2697 120.516C9.92135 115.452 10.3012 107.198 16.9077 103.17L17.1451 106.851L17.9688 107.233C19.4161 103.657 21.1193 100.158 22.2362 96.481C23.3304 92.8805 23.8259 89.0983 24.5835 85.3945ZM152.053 186.013C146.735 170.211 145.971 153.852 146.691 137.142L149.163 143.996C150.164 139.681 150.926 135.253 152.251 131.002C153.849 125.882 158.469 124.075 162.918 122.056C167.822 119.833 172.552 117.219 177.897 114.5C171.154 106.773 170.371 98.1759 170.448 89.3852C170.456 88.3034 171.203 87.2258 171.606 86.146C172.768 93.2562 174.057 100.323 178.504 107.278L179.007 103.143C184.862 106.502 186.229 113.837 181.431 118.666C178.279 121.842 174.414 124.668 170.349 126.507C159.159 131.572 154.489 140.09 155.166 152.029C155.695 161.393 155.969 170.777 156.725 180.121C157.03 183.965 156.002 185.936 152.053 186.013ZM179.164 107.753L179.059 107.956L179.218 107.976L179.164 107.753Z" fill="#E08700"/>
    <path fill-rule="evenodd" clip-rule="evenodd" d="M60.4233 226.603C65.3328 229.145 70.0605 232.163 75.1908 234.131C85.1397 237.946 95.516 238.755 106.15 237.477C113.925 236.544 121.347 234.773 128.158 230.865C130.869 229.308 133.42 227.479 136.044 225.773C131.75 235.254 124.739 242.118 115.005 245.514C99.2218 251.018 83.8618 250.12 70.4424 239.259C66.363 235.954 63.7224 230.871 60.4233 226.603Z" fill="#E08600"/>
    <path fill-rule="evenodd" clip-rule="evenodd" d="M17.9152 174.338C25.0956 189.663 38.7875 193.812 53.8626 195.227L46.8535 208.256C28.82 206.782 17.2009 193.164 17.9152 174.338ZM149.004 208.254C146.741 203.933 144.476 199.614 142.209 195.295C156.446 193.67 170.128 190.292 177.345 175.5C177.573 176.438 178.025 177.381 177.992 178.31C177.459 193.804 166.833 206.852 149.004 208.254Z" fill="#EBEBEB"/>
    <path fill-rule="evenodd" clip-rule="evenodd" d="M17.9149 174.337C17.2006 193.164 28.8197 206.779 46.8532 208.253L48.1435 216.92C44.6463 216.317 41.2171 216.012 37.949 215.116C23.7327 211.218 15.7823 201.159 15.5304 186.433C15.4581 182.215 16.4408 177.977 16.9817 173.753C16.9921 173.672 17.5226 173.594 17.7828 173.65C17.8695 173.668 17.8736 174.098 17.9149 174.337ZM149.003 208.253C166.833 206.851 177.459 193.804 177.993 178.307C178.026 177.378 177.572 176.435 177.347 175.498L178.355 173.227C181.538 183.526 181.8 193.643 175.805 202.792C169.366 212.618 159.357 216.038 147.95 216.744L149.003 208.253Z" fill="#C7C6C6"/>
    <path fill-rule="evenodd" clip-rule="evenodd" d="M175.96 20.2935C173.458 21.1296 171.629 22.3724 169.946 22.199C158.079 20.983 148.547 27.3232 141.664 37.5466L136.412 34.997C145.36 19.4718 160.885 13.7035 175.96 20.2935ZM20.9973 20.9355C34.9142 13.5755 51.5398 20.087 59.6141 34.9041L54.8223 37.3629C51.6822 34.167 48.86 30.9505 45.6786 28.1428C40.5916 23.6586 34.458 22.0421 27.7173 22.133C25.4814 22.1639 23.2373 21.3588 20.9973 20.9355Z" fill="#F0A500"/>
    <path fill-rule="evenodd" clip-rule="evenodd" d="M163.689 28.2617C162.848 33.4829 162.134 38.062 161.372 42.6328C160.986 44.9492 160.255 46.5513 157.483 47.4886C153.352 48.8862 151.892 45.9278 150.23 43.7724C149.429 42.734 149.757 40.2896 150.36 38.7969C152.323 33.9102 155.583 30.1446 160.932 28.7138C161.967 28.4372 163.053 28.3608 163.689 28.2617ZM32.1748 28.4702C38.5789 28.4351 47.126 35.6692 46.5335 41.712C46.3147 43.9458 43.4512 46.9002 41.1699 47.664C39.0001 48.3908 35.5214 47.4369 34.8318 43.8199C34.5036 42.0857 34.262 40.335 33.9606 38.5967C33.3846 35.2852 32.7942 31.9758 32.1748 28.4702Z" fill="#DE8500"/>
    <path fill-rule="evenodd" clip-rule="evenodd" d="M63.5388 42.5996C61.2678 48.5083 64.8394 52.8788 67.3499 57.6045C68.8508 60.4308 69.8871 63.5008 71.1341 66.4654L51.0422 50.1351C54.1555 46.6977 58.7284 44.468 63.5388 42.5996Z" fill="#E08600"/>
    <path fill-rule="evenodd" clip-rule="evenodd" d="M125.491 65.8094C126.608 62.9294 127.359 59.8326 128.924 57.221C131.55 52.838 133.549 48.3993 133.367 43.1885C137.498 45.3872 141.625 47.588 145.593 49.7062L125.491 65.8094ZM127.58 163.275C128.181 163.647 128.992 163.878 129.349 164.413C134.436 172.049 139.463 179.725 144.505 187.393C135.376 188.217 137.368 188.481 134.488 181.344C132.077 175.367 129.876 169.302 127.58 163.275ZM52.0972 187.418C53.2657 185.238 54.2979 182.973 55.6254 180.894C59.2162 175.295 62.8748 169.741 66.6004 164.231C67.1083 163.48 68.0559 163.023 68.7991 162.431C65.787 170.202 62.8801 178.016 59.7235 185.727C58.1235 189.635 54.7294 187.205 52.0972 187.418Z" fill="#DE8600"/>
    <path fill-rule="evenodd" clip-rule="evenodd" d="M42.9121 224.331C52.5802 221.915 53.6765 229.622 57.1903 236.051C50.7015 233.128 46.2587 229.306 42.9121 224.331ZM152.819 224.25C149.827 229.668 145.019 232.95 139.531 235.863C141.528 226.36 144.457 223.883 152.876 224.3L152.819 224.25ZM152.876 224.3L152.932 223.963L152.819 224.25L152.876 224.3Z" fill="#ECA200"/>
    <path fill-rule="evenodd" clip-rule="evenodd" d="M126.702 161.137L127.258 161.267L126.934 161.725C126.846 161.656 126.779 161.566 126.738 161.462C126.698 161.359 126.685 161.246 126.702 161.137Z" fill="#DE8600"/>
    <path fill-rule="evenodd" clip-rule="evenodd" d="M171.484 82.3531L171.37 81.8473L171.542 81.6367C171.613 81.7455 171.646 81.8751 171.636 82.0049C171.626 82.1346 171.572 82.2572 171.484 82.3531Z" fill="#E08700"/>
    <path fill-rule="evenodd" clip-rule="evenodd" d="M123.926 131.691C121.88 127.302 119.904 122.873 117.732 118.546C117.226 117.535 116.186 116.428 115.158 116.102C110.812 114.725 107.986 112.146 107.154 107.189L112.362 107.78C113.341 107.848 114.34 108.083 115.292 107.955C119.848 107.338 122.959 104.452 125.988 101.26C136.137 90.5575 148.043 83.9449 163.405 85.7431L165.474 86.5544L160.503 88.5074C164.69 93.4189 163.922 98.2685 160.928 103.591L159.442 98.0641L158.797 98.0393L158.015 102.684C155.831 107.815 153.752 112.995 148.423 115.873C140.669 120.059 132.884 121.891 125.041 116.327C121.69 121.418 123.67 126.61 123.926 131.691ZM149.594 102.912V93.357C141.555 98.0889 134.692 102.689 129.192 109.076L126.923 111.818C134.599 117.574 149.61 113.787 149.594 102.912Z" fill="#49330E"/>
    <path fill-rule="evenodd" clip-rule="evenodd" d="M38.6118 104.933L38.3145 103.75L37.8045 101.981L37.4143 97.992L36.6422 97.9197L35.0401 103.562C31.9537 98.2934 31.4458 93.4748 35.4861 88.4023C33.7085 87.7891 32.1952 87.2709 30.6881 86.7341C30.62 86.7094 30.5643 86.5112 30.5849 86.408L30.7976 86.0983L31.9021 85.6276C32.0528 85.7184 32.1952 85.706 32.3232 85.5801C38.075 86.2118 44.0063 86.1705 49.5392 87.6301C58.2288 89.9238 64.9385 95.6818 70.9421 102.249C74.2804 105.899 78.1163 108.639 83.4882 107.78L88.3047 107.191C88.4265 111.378 85.9552 114.622 81.147 115.881C78.9565 116.457 78.5746 117.564 77.8727 119.576C76.4007 123.79 73.9645 127.665 71.9227 131.677C72.4327 126.536 74.1813 121.3 70.8038 116.248C66.716 119.302 62.2587 120.421 57.4381 119.556C48.6474 117.974 42.138 113.35 38.6118 104.933ZM66.714 109.006C61.21 102.637 54.364 98.0291 46.3331 93.3509V102.899C46.4611 114.006 61.6291 117.528 68.8879 111.911C68.6711 111.512 68.4894 111.052 68.1983 110.678C67.7421 110.09 67.2115 109.559 66.714 109.006Z" fill="#49330F"/>
    <path fill-rule="evenodd" clip-rule="evenodd" d="M123.926 131.692C123.67 126.609 121.69 121.419 125.039 116.326C132.882 121.888 140.667 120.059 148.421 115.872C153.75 112.992 155.829 107.814 158.013 102.684C157.299 114.982 149.169 128.449 129.362 126.492L133.008 137.312L133.018 137.299L123.926 131.692ZM38.6117 104.934C42.1379 113.351 48.6453 117.975 57.4401 119.557C62.2608 120.424 66.7181 119.303 70.8058 116.25C74.1813 121.301 72.4326 126.537 71.9248 131.678L62.8326 137.301L62.843 137.312L66.6231 126.609C49.6259 126.923 38.1926 117.717 38.6117 104.934Z" fill="#E08700"/>
    <path fill-rule="evenodd" clip-rule="evenodd" d="M83.4903 107.78C78.1185 108.639 74.2826 105.899 70.9443 102.249C64.9407 95.6816 58.231 89.9237 49.5414 87.63C44.0085 86.1683 38.0772 86.2096 32.3254 85.5799C36.5143 84.527 40.7239 82.543 44.888 82.6318C51.67 82.7763 58.6109 83.8292 64.1541 88.4537C66.7574 90.6235 69.4991 92.9234 71.2622 95.7353C74.4333 100.789 78.3373 104.854 83.4903 107.78Z" fill="#DE8600"/>
    <path fill-rule="evenodd" clip-rule="evenodd" d="M163.402 85.7435C148.042 83.9453 136.133 90.558 125.984 101.26C122.958 104.452 119.844 107.338 115.288 107.956C114.336 108.086 113.337 107.848 112.358 107.78C117.982 105.041 121.638 100.375 125.028 95.3043C130.13 87.678 137.577 83.7348 146.623 83.2352C151.18 82.9833 155.792 83.5448 160.358 83.9722C161.422 84.0733 162.39 85.1283 163.402 85.7435ZM85.7138 86.2019L84.1943 83.1484V83.1505C88.9489 83.6604 93.7014 84.5461 98.4601 84.573C103.175 84.5977 107.895 83.7554 112.742 83.2806L110.878 85.4442L110.112 86.2349L110.164 86.1915C105.403 86.9926 100.655 88.2973 95.8754 88.4212C92.5102 88.5121 89.1017 86.9988 85.7138 86.2019Z" fill="#DF8600"/>
    <path fill-rule="evenodd" clip-rule="evenodd" d="M85.7136 86.2016C89.1015 87.0006 92.51 88.5118 95.8731 88.423C100.652 88.2971 105.401 86.9944 110.162 86.1934C110.042 86.4122 109.961 86.6682 109.796 86.8457C101.272 96.0287 94.1926 95.8367 85.7136 86.2016Z" fill="#52380B"/>
    <path fill-rule="evenodd" clip-rule="evenodd" d="M109.499 214.885C108.283 210.519 109.297 209.045 113.857 208.946C118.556 208.842 123.259 208.882 127.958 208.933C134.286 209.007 135.328 210.63 133.002 216.617L132.165 218.12L132.186 218.089C131.088 219.278 130.02 220.499 128.883 221.653C123.726 226.888 118.069 226.55 113.605 220.705C112.166 218.82 110.864 216.83 109.499 214.885Z" fill="#47310D"/>
    <path fill-rule="evenodd" clip-rule="evenodd" d="M62.8719 217.327C61.1914 209.212 61.3607 209.001 70.0771 208.935C74.138 208.902 78.201 208.838 82.2577 208.96C86.7997 209.094 87.7205 210.525 86.4157 214.99C84.8756 217.154 83.4139 219.38 81.7788 221.471C77.9532 226.362 72.5215 226.669 67.9568 222.317C66.5034 220.932 65.0851 219.503 63.6503 218.098L63.6585 218.116L62.8719 217.327Z" fill="#47310E"/>
    <path fill-rule="evenodd" clip-rule="evenodd" d="M63.6521 218.095C65.0869 219.503 66.5053 220.93 67.9587 222.315C72.5233 226.665 77.9551 226.36 81.7806 221.469C83.4157 219.377 84.8774 217.152 86.4175 214.988C85.0487 218.574 84.1631 222.458 82.1708 225.656C80.3458 228.583 77.0467 230.276 73.2955 229.062C67.9731 227.34 64.513 223.818 63.6521 218.095Z" fill="#DC8400"/>
    <path fill-rule="evenodd" clip-rule="evenodd" d="M109.499 214.885C110.863 216.827 112.166 218.818 113.605 220.705C118.069 226.549 123.725 226.888 128.883 221.652C130.02 220.498 131.085 219.278 132.186 218.089C131.436 223.599 126.81 228.589 121.651 229.45C117.862 230.084 113.578 227.08 111.21 221.698C110.283 219.586 110.048 217.164 109.499 214.885Z" fill="#DE8500"/>
    <path fill-rule="evenodd" clip-rule="evenodd" d="M179.164 107.754L179.218 107.977L179.059 107.956L179.164 107.754Z" fill="#493310"/>
    <path fill-rule="evenodd" clip-rule="evenodd" d="M129.192 109.077C134.692 102.687 141.557 98.0872 149.594 93.3574V102.912C146.278 107.138 142.531 110.912 136.759 110.906C134.236 110.9 131.713 109.721 129.192 109.077Z" fill="#EBEBEB"/>
    <path fill-rule="evenodd" clip-rule="evenodd" d="M129.192 109.077C131.715 109.721 134.236 110.9 136.759 110.904C142.531 110.912 146.278 107.138 149.594 102.91C149.61 113.786 134.599 117.572 126.923 111.816L129.192 109.077Z" fill="#C5C4C3"/>
    <path fill-rule="evenodd" clip-rule="evenodd" d="M46.333 102.896V93.3477C54.3619 98.0279 61.2099 102.634 66.7139 109.003C63.5428 111.862 57.1098 111.951 52.4646 108.761C50.1627 107.182 48.3604 104.874 46.333 102.896Z" fill="#EBEBEB"/>
    <path fill-rule="evenodd" clip-rule="evenodd" d="M46.333 102.896C48.3604 104.874 50.1627 107.184 52.4646 108.764C57.1098 111.954 63.5428 111.865 66.7139 109.005C67.2135 109.561 67.7441 110.089 68.1983 110.678C68.4894 111.051 68.6711 111.51 68.8878 111.91C61.629 117.526 46.461 114.004 46.333 102.896Z" fill="#C5C4C3"/>
  </g>
  <defs>
    <clipPath id="clip0_20_1093">
      <rect width="194.065" height="256" fill="#EBEBEB" transform="translate(0.957031 -0.00488281)"/>
    </clipPath>
  </defs>
</svg>
