<svg width="256" height="256" viewBox="0 0 256 256" fill="none" xmlns="http://www.w3.org/2000/svg">
<path d="M137.176 196.434C137.176 163.536 163.776 136.868 196.588 136.868C229.4 136.868 256 163.536 256 196.434C256 229.331 229.4 256 196.588 256C163.776 256 137.176 229.331 137.176 196.434Z" fill="#858585"/>
<path d="M137.176 59.5659C137.176 26.6686 163.776 0 196.588 0C229.4 0 256 26.6686 256 59.5659V113.175C256 116.464 253.34 119.132 250.059 119.132H143.117C139.836 119.132 137.176 116.464 137.176 113.175V59.5659Z" fill="#CCCCCC"/>
<path d="M118.824 196.434C118.824 229.331 92.2246 256 59.4122 256C26.5998 256 0 229.331 0 196.434L1.18986e-05 142.825C1.18986e-05 139.534 2.65999 136.868 5.94123 136.868H112.883C116.164 136.868 118.824 139.534 118.824 142.825V196.434Z" fill="#4D4D4D"/>
</svg>
