<svg xmlns="http://www.w3.org/2000/svg" width="257" height="194" fill="none" viewBox="0 0 257 194"><g clip-path="url(#a)"><path fill="url(#b)" d="m141.161 191.916 69.984-44.255a.547.547 0 1 1 .587.926l-70.213 44.395a.5.5 0 0 1-.289.09z"/><path fill="url(#c)" d="M141.23 193.073a.6.6 0 0 1-.189-.03l-95.413-35.56a.54.54 0 0 1-.32-.707.54.54 0 0 1 .708-.319l95.165 35.46z"/><path fill="#e8b67f" d="M241.355 23.053 230.339 41.29l-44.256 18.815-2.46 1.046-39.773 37.194c-.767.766-1.285 1.862-1.375 2.47-.039.209-.219.119-.388.109-.179-.01-.428.06-.448-.159-.02-.797-.11-1.683-1.395-2.48l-19.931-12.91-14.533-9.422-40.938-10.499-34.265-8.785L8.873 22.953l.328-.379.02-.03L90.7 1.369c.12-.04.14-.02.189.05l27.79 41.626.548.816c.598.877.658 1.415.658 1.803h.508v-.09c0-.04 0-.089.01-.139 0-.03.009-.06.009-.1.01-.04.01-.08.02-.119.01-.04.01-.08.02-.13.03-.139.07-.298.11-.458.01-.05.03-.1.04-.14.05-.158.099-.328.159-.487.03-.06.05-.13.08-.19.079-.199.159-.378.249-.537.08-.16.159-.29.239-.399L146.38 6.438c.06-.09.09-.13.219-.11l94.597 16.276z"/><path fill="url(#d)" d="M120.313 85.367h-.01l-14.523-9.413-40.938-10.498 55.043-19.792.149-.289v.289z"/><path fill="url(#e)" d="M119.885 45.664 64.842 65.446l-4.96-1.275-29.305-7.52L8.873 22.932l.348-.408L90.7 1.349c.12-.04.14-.02.189.05l27.79 41.625.548.817c.598.896.658 1.434.658 1.823"/><path fill="url(#f)" d="M120.079 47.764 68.034 66.47l-8.118-2.081 58.798-21.137.548.817c.598.876.658 1.414.658 1.803h.149z"/><path fill="#d2a679" d="m31.324 56.85-.737-.19L8.883 22.943l.328-.379z"/><path fill="url(#g)" d="m186.083 60.107-2.46 1.046-39.773 37.193c-.767.767-1.285 1.862-1.375 2.47-.039.209-.219.12-.388.11-.179-.01-.428.059-.448-.16-.02-.797-.11-1.683-1.395-2.48l-19.931-12.919-.269-39.693v-.29l.368.29z"/><path fill="url(#h)" d="M241.355 23.052 230.339 41.29l-40.281 17.122-3.965 1.683-65.69-14.433c-.04-.508.308-1.663.687-2.4.08-.16.159-.29.239-.399L146.38 6.427c.06-.09.09-.13.219-.11l94.597 16.276z"/><path fill="url(#i)" d="m190.058 58.412-6.425 2.73-.827.796-62.772-13.875.289-2.41h.079c-.039-.508.309-1.664.688-2.401z"/><path fill="url(#j)" d="M121.777 45.963v40.35l-1.464-.946h-.01l-1.923-1.255v-37.91l1.504-.538h.508z" opacity=".75"/><path fill="#bf9064" d="m140.842 192.425-95.493-35.629c-.538-.229-.618-.737-.648-1.365 0 0-4.104-81.379-4.114-81.389-.01-.209.25-.338.23-.468-.07-.309-.658-1.474-.847-1.593L1.193 49.947l.329-.747L105.78 75.955l34.454 22.322c1.285.797 1.385 1.683 1.395 2.48.01.219.269.149.448.159s.349.1.388-.109c.09-.608.608-1.704 1.375-2.46l39.773-37.194 72.126-30.659.438.608-38.937 34.215c-.757.757-1.105 1.683-.956 2.062l-3.984 79.755c-.06.508-.299.657-.807 1.006l-69.804 44.186c-.279.179-.578.229-.847.099"/><path fill="#bd8f63" d="m142.077 100.915-.687 91.549a.82.82 0 0 1-.558-.04l-95.493-35.619c-.538-.229-.618-.747-.648-1.365l-4.114-81.389v-.02c0-.02 0-.04.01-.06 0-.02.01-.03.02-.04.01-.02.02-.03.03-.049s.02-.03.03-.05c.04-.06.1-.12.12-.17.01-.01.01-.019.01-.029v-.01l100.842 27.173c.04.179.279.109.438.119"/><path fill="url(#k)" d="M141.4 192.196v.259a.82.82 0 0 1-.558-.04l-95.493-35.619c-.379-.159-.528-.468-.598-.847z" opacity=".54"/><path fill="#322214" d="m98.22 136.664 36.974 12.092-.089 36.058-36.287-13.327zm18.527 24.224.09 16.705 17.908 6.579.001-17.028zm5.291 5.397 3.619 5.759 3.545-3.105.617.704-3.658 3.204 3.667 5.836-.532.333-3.613-5.75-3.528 3.092-.617-.704 3.641-3.191-3.672-5.844zm10.656 6.487v1.643l.946.309v1.853l-.946-.379v1.494l-2.072-3.147zm-3.187-2.002.727.229v6.564l-.727-.259zm-30.56-16.067.27 16.445 17.112 6.255-.1-16.664zm26.755 19.603 1.872 3.018-3.735-1.355zm2.888-2.77v4.284l-1.942-2.74zm-7.41-3.814.717.239v6.554l-.717-.249zm1.613 1.763 1.853 2.858-1.853 1.425zm-15.479-7.939.708.229.001.421c2.105.847 4.185 2.958 5.188 6.243-.657-1.106-1.235-1.315-2.261-.966-.379-.787-1.494-1.206-2.161-.787a1.9 1.9 0 0 0-.743-.774l.035 6.252c0 .578-.398 1.096-1.384.896-.897-.219-1.265-.906-1.166-2.081l.498.079c0 .787.06 1.235.658 1.375.508.119.737-.07.737-.538l-.066-6.201c-.283-.02-.545.05-.731.215-.229-.578-1.315-1.355-2.132-.777-.577-.917-1.663-1.265-2.271-.598.776-2.346 2.884-3.168 5.094-2.575zm11.336 6.106 2.022 3.187-2.002 1.664.039-1.564-.976-.229v-1.813l.917.339zm5.129.687 3.785 1.375-1.892 1.663zm-7.062-25.101.04 17.033 17.999 6.275v-17.401zm3.357 14.712 10.758 3.676v2.141l-10.758-3.705zm-9.263 4.064c.069.07.069.817-.16.986a.41.41 0 0 1-.418-.05c-.14-.109-.219-.269-.16-.508.06-.239.658-.498.738-.428m.996-1.703c.079.069.079.817-.16.986a.41.41 0 0 1-.418-.05c-.14-.109-.219-.269-.159-.508.059-.239.657-.498.737-.428m-2.789-.07c.079.07.079.817-.16.986a.41.41 0 0 1-.418-.05c-.14-.109-.219-.269-.159-.508.059-.239.657-.498.737-.428m-2.819-.408c.079.069.079.816-.16.986a.41.41 0 0 1-.418-.05c-.139-.11-.219-.269-.159-.508.059-.239.657-.498.737-.428m22.182-11.196 2.61 5.15-1.783-.608v7.46l-1.783-.617.01-7.401-1.773-.578zm-29.772-11.335.309 16.803 17.321 5.957-.149-17.023zm23.885 9.373 2.61 5.149-1.783-.607v7.46l-1.783-.617.02-7.401-1.783-.578zm-20.011-5.997 1.415.468.657 2.381-.737-.05 2.102 5.08-1.086-4.183.618-.01-.628-2.919 7.301 2.411v4.014c0 1.524-1.653 3.446-3.984 2.49l.01 4.034 3.347 2.152-8.098-2.809 3.257.159-.06-3.994c-2.311-.687-3.984-3.466-3.984-5.16z"/><path fill="url(#l)" d="M142.077 100.915c-.398.01-.697.538-.707 1.016l-.09.04-100.702-27.93c-.01-.189.209-.309.229-.428q.015-.015 0-.03c-.07-.309-.658-1.474-.847-1.594L1.193 49.946l.329-.747L105.77 75.944h.01l34.454 22.322c1.285.806 1.385 1.683 1.395 2.48 0 .01 0 .03.01.04.04.189.279.119.438.129"/><path fill="#cd9c6b" d="M217.25 65.307c-.757.757-1.105 1.683-.956 2.062l-73.34 34.703-.15-.12c-.01-.577-.378-.966-.657-1.026.149.02.289.07.328-.119.02-.12.05-.259.1-.408.04-.13.1-.269.169-.419.21-.478.528-.996.937-1.454.059-.06.119-.13.179-.19l39.773-37.193 72.125-30.659.439.608z"/><path fill="url(#m)" d="M96.816 110.039c.11.03.149.04.149-.05l-.379-20.26c-.03-.687-.199-2.042-1.025-2.59L58.835 64.827l-17.212-4.442 37.323 22.302c.936.617 1.016 1.773 1.056 2.63l.538 19.702c0 .099.02.119.09.149z"/><path fill="#d4a271" d="M142.077 100.915c-.408.01-.707.568-.707 1.056-.01.04-.08.03-.09 0-.079-1.086-.528-2.301-1.115-2.73L105.432 76.85l.338-.907h.01l34.454 22.322c1.285.807 1.385 1.684 1.395 2.481 0 .009 0 .029.01.039.04.19.279.12.438.13"/><path fill="#deb37e" d="m105.77 75.954-.338.896L1.192 49.946l.33-.737z"/><path fill="#dbad77" d="m216.304 67.367-3.984 79.755c-.06.508-.299.658-.807 1.006l-69.805 44.186c-.099.07-.209.11-.308.139l.687-91.548c.179.01.349.099.388-.11 0-.03.01-.05.01-.08l73.799-33.438c0 .05.01.07.02.09"/><path fill="url(#n)" d="M212.32 147.094v.04c-.06.508-.299.657-.807 1.006l-69.805 44.185c-.099.07-.209.11-.308.14v-.259z" opacity=".54"/><path fill="#322214" d="m211.015 112.391-1.594 32.472-23.208 14.452 1.195-33.796zm-12.411 23.507-11.534 6.783-.548 15.987 11.484-7.142zm-5.508 6.863-.021.538c1.377-.688 2.679-.209 3.228 2.072-.378-.528-1.066-.319-1.524.757-.209-.449-1.275-.08-1.434.856-.085-.152-.238-.207-.414-.188l-.254 6.165c-.02.527-.049 1.095-.717 1.504-.309.139-1.125.249-1.016-.897l.389-.299c-.03.727.159.947.557.708.479-.289.389-.748.409-1.176l.215-5.84a1.4 1.4 0 0 0-.604.89c-.119-.359-1.275-.14-1.414.886-.329-.438-1.225-.01-1.564 1.096.624-2.872 2.17-5.255 3.709-6.281l.016-.472zm16.833-13.557-10.996 6.505-.608 15.668 10.877-6.843zm-3.396 5.279.318.299-2.396 5.437 1.978 2.731-.319.677-1.972-2.699-2.37 5.379-.329-.299 2.414-5.469-2.046-2.798.359-.678 2.001 2.764zm-6.694 6.246 1.245 1.514-1.325 2.849v-1.255l-.557.338.03-1.623.557-.329zm2.152-1.972-.259 6.006-.449.299.249-5.987zm2.101 3.137 1.066 1.405-2.291 1.394zm-12.202.438c.05 0 .02.688-.149 1.026-.06.12-.169.249-.259.259s-.129-.089-.08-.348c.05-.259.439-.937.488-.937m10.599-2.759 1.056 1.305-1.236 2.441zm-7.57 1.514c.039.01.01.698-.15 1.026-.06.12-.169.249-.259.259-.089.01-.129-.089-.08-.348.05-.259.439-.937.489-.937m4.422-21.754-11.654 6.534-.608 16.306 11.565-6.813zm7.68 16.366-.279 5.996-.399.259.269-5.986zm-13.198 4.94c.05 0 .02.687-.15 1.026-.059.12-.169.249-.259.259-.089.01-.129-.09-.079-.349.05-.258.438-.936.488-.936m12.172-3.197-.16 3.825-1.035-1.235zm2.47-1.823-.06 1.474.578-.319-.07 1.634-.557.329-.02 1.344-1.206-1.444zm-12.779 3.048c.049 0 .019.687-.15 1.026-.06.119-.169.249-.259.259s-.129-.09-.08-.349c.05-.259.439-.936.489-.936m9.741-2.311-1.235 2.829-1.066-1.444zm-8.795-13.556-.15 4.103c-.059 1.395-1.175 3.925-2.838 4.981l-.18 3.874 2.222-.478-5.409 3.128 2.251-2.142.12-3.805c-1.445.827-2.6-.707-2.531-2.261l.13-3.765.976-.528.319 1.813-.528.428 1.165 3.377-.448-3.078.399-.458-.309-2.42zm14.144-9.822-11.156 6.236-.697 16.026 11.056-6.613zm-2.909 13.816-.139 1.902-6.534 3.865.089-1.922zm-4.621-8.218 1.444 3.048-1.086.608-.328 6.843-1.036.597.199-6.843-1.046.628zm3.625-2.012 1.405 2.998-1.156.648-.239 6.793-1.105.618.348-6.843-1.085.617z"/><path fill="#d7aa77" d="m184.211 61.93-39.435 36.655c-1.115 1.066-1.852 2.659-1.822 3.486-.02.04-.12.07-.16 0 .05-.638-.358-1.076-.657-1.146.149.02.289.07.328-.119.02-.12.05-.259.1-.408.04-.13.1-.269.169-.419a5.6 5.6 0 0 1 1.106-1.633l39.773-37.194z"/><path fill="url(#o)" d="M175.515 106.393c0 .109.05.159.12.129l11.843-6.076c.02-.01.03-.03.04-.07l.657-19.413c.02-1.066.618-2.122 1.435-2.849l39.334-35.35-11.972 5.13-39.534 35.818a4.5 4.5 0 0 0-1.385 3.168z"/><path fill="#f8ce93" d="m184.211 61.93 71.976-30.838-.439-.598-72.125 30.65z"/></g><defs><linearGradient id="b" x1="3638.9" x2="3675.96" y1="2399.73" y2="2458.27" gradientUnits="userSpaceOnUse"><stop/><stop offset="1" stop-opacity="0"/></linearGradient><linearGradient id="c" x1="4857.35" x2="4852.52" y1="1986.69" y2="1999.67" gradientUnits="userSpaceOnUse"><stop/><stop offset="1" stop-opacity="0"/></linearGradient><linearGradient id="d" x1="4585.89" x2="5216.62" y1="1906.89" y2="2168.34" gradientUnits="userSpaceOnUse"><stop stop-color="#c37a44"/><stop offset=".444" stop-color="#bb713d"/><stop offset=".641" stop-color="#a05728"/><stop offset="1" stop-color="#964e23"/></linearGradient><linearGradient id="e" x1="7055.39" x2="5687.3" y1="3932.99" y2="2012.75" gradientUnits="userSpaceOnUse"><stop stop-color="#e9b880"/><stop offset="1" stop-color="#e4af76"/></linearGradient><linearGradient id="f" x1="3121.86" x2="3095.98" y1="1230.12" y2="1158.83" gradientUnits="userSpaceOnUse"><stop stop-color="#c37a45" stop-opacity="0"/><stop offset=".133" stop-color="#c37a45"/><stop offset=".294" stop-color="#d08d55"/><stop offset=".502" stop-color="#dea167"/><stop offset=".697" stop-color="#e8af73"/><stop offset=".863" stop-color="#ecb477"/><stop offset="1" stop-color="#ecb477" stop-opacity="0"/></linearGradient><linearGradient id="g" x1="3251.81" x2="2000.76" y1="1653.37" y2="4528.65" gradientUnits="userSpaceOnUse"><stop offset=".088" stop-color="#af6938"/><stop offset=".483" stop-color="#9a5227"/><stop offset=".779" stop-color="#8d4520"/></linearGradient><linearGradient id="h" x1="5097.38" x2="5820.24" y1="3087.4" y2="1787.73" gradientUnits="userSpaceOnUse"><stop offset=".033" stop-color="#e4af76"/><stop offset="1" stop-color="#e9b880"/></linearGradient><linearGradient id="i" x1="3594.92" x2="3603.48" y1="986.351" y2="948.371" gradientUnits="userSpaceOnUse"><stop stop-color="#af6a38" stop-opacity="0"/><stop offset=".086" stop-color="#af6a38"/><stop offset=".198" stop-color="#b87542"/><stop offset=".583" stop-color="#d59c66"/><stop offset=".777" stop-color="#e4af76"/><stop offset=".924" stop-color="#e4af76" stop-opacity="0"/></linearGradient><linearGradient id="j" x1="146.27" x2="435.091" y1="2078.4" y2="2078.4" gradientUnits="userSpaceOnUse"><stop stop-color="#743f1a" stop-opacity="0"/><stop offset=".493" stop-color="#743f1a" stop-opacity=".887"/><stop offset=".5" stop-color="#743f1a" stop-opacity=".9"/><stop offset=".53" stop-color="#743f1a" stop-opacity=".847"/><stop offset="1" stop-color="#743f1a" stop-opacity="0"/></linearGradient><linearGradient id="k" x1="4867.62" x2="4869.94" y1="1986.11" y2="1979.92" gradientUnits="userSpaceOnUse"><stop stop-color="#322214"/><stop offset=".24" stop-color="#322314" stop-opacity=".989"/><stop offset="1" stop-color="#322214" stop-opacity="0"/></linearGradient><linearGradient id="l" x1="7239.84" x2="7160.54" y1="2594.69" y2="2859.35" gradientUnits="userSpaceOnUse"><stop offset=".048" stop-color="#c69866"/><stop offset=".416" stop-color="#ba8c5e"/><stop offset=".814" stop-color="#b5875b"/></linearGradient><linearGradient id="m" x1="3530.28" x2="1650.24" y1="2387.36" y2="299.363" gradientUnits="userSpaceOnUse"><stop stop-color="#845f35"/><stop offset=".431" stop-color="#91673c"/><stop offset=".441" stop-color="#976a40"/><stop offset=".874" stop-color="#986b40"/><stop offset="1" stop-color="#ab8157"/></linearGradient><linearGradient id="n" x1="3687.31" x2="3691.82" y1="2415.8" y2="2422.91" gradientUnits="userSpaceOnUse"><stop stop-color="#322214" stop-opacity="0"/><stop offset="1" stop-color="#322214"/></linearGradient><linearGradient id="o" x1="2614.9" x2="2977.53" y1="4036.02" y2="2202.17" gradientUnits="userSpaceOnUse"><stop stop-color="#a9794b"/><stop offset=".386" stop-color="#ae7f53"/><stop offset=".456" stop-color="#ac7d50"/><stop offset=".624" stop-color="#a9794b"/><stop offset="1" stop-color="#b2875d"/></linearGradient><clipPath id="a"><path fill="#ebebeb" d="M.344.377h256v193.245h-256z"/></clipPath></defs></svg>
