<svg width="256" height="256" viewBox="0 0 256 256" fill="none" xmlns="http://www.w3.org/2000/svg">
<path d="M1.01074 0.193848H255.873V255.056H1.01074V0.193848ZM33.8607 31.4509C33.8607 92.8969 33.8607 154.346 33.8607 215.798H65.5273C65.5273 189.056 65.5273 162.311 65.5273 135.562C73.2217 162.311 80.9161 189.056 88.6105 215.798C99.1509 215.798 109.691 215.798 120.232 215.798C120.232 154.352 120.232 92.903 120.232 31.4509C109.6 31.4509 98.9689 31.4509 88.3739 31.4509C88.3739 56.5639 88.3739 81.6769 88.3739 106.799C80.6916 81.6769 72.9881 56.5609 65.2633 31.4509C54.7958 31.4509 44.3282 31.4509 33.8607 31.4509ZM190.92 75.1415C190.92 111.368 190.92 147.595 190.92 183.822H167.909C167.909 172.672 167.909 161.522 167.909 150.371C157.259 152.865 146.592 155.305 135.933 157.781C135.933 168.97 135.933 180.16 135.933 191.35C135.725 194.703 135.96 198.07 136.634 201.362C137.869 205.868 140.65 209.796 144.489 212.458C147.676 214.671 151.468 215.85 155.348 215.835C169.796 215.835 184.248 215.835 198.702 215.835C201.997 216.032 205.303 215.787 208.532 215.106C213.216 213.747 217.248 210.736 219.883 206.632C221.981 203.353 223.046 199.519 222.941 195.628C222.941 155.475 222.941 115.322 222.941 75.1689L190.92 75.1415Z" fill="#1C4913"/>
<path d="M33.8604 31.4509C44.3279 31.4509 54.7955 31.4509 65.263 31.4509C72.9756 56.567 80.6761 81.6861 88.3645 106.808C88.3007 81.6952 88.3645 56.5822 88.3645 31.46C98.9959 31.46 109.627 31.46 120.222 31.46C120.222 92.9061 120.222 154.355 120.222 215.807C109.682 215.807 99.1415 215.807 88.6011 215.807C80.8946 189.065 73.2002 162.32 65.5179 135.571C65.5179 162.32 65.5179 189.065 65.5179 215.807H33.8604C33.8604 154.355 33.8604 92.9031 33.8604 31.4509Z" fill="#FEFFFC"/>
<path d="M190.928 75.1323H222.914C222.914 115.285 222.914 155.438 222.914 195.591C223.019 199.483 221.954 203.316 219.855 206.596C217.221 210.7 213.188 213.71 208.505 215.07C205.275 215.751 201.969 215.996 198.674 215.798C184.22 215.798 169.769 215.798 155.321 215.798C151.44 215.814 147.649 214.635 144.462 212.421C140.638 209.761 137.868 205.844 136.634 201.353C135.96 198.061 135.724 194.694 135.933 191.34C135.933 180.151 135.933 168.961 135.933 157.771C146.592 155.286 157.259 152.847 167.909 150.362C167.909 161.512 167.909 172.663 167.909 183.813H190.928C190.928 147.568 190.928 111.341 190.928 75.1323Z" fill="#FEFFFC"/>
</svg>
