<svg width="256" height="108" viewBox="0 0 256 108" fill="none" xmlns="http://www.w3.org/2000/svg">
<path fill-rule="evenodd" clip-rule="evenodd" d="M235.866 25.1102C236.392 20.599 236.747 14.969 238.511 11.0947C239.849 15.1101 240.299 20.3067 243.038 23.3303C246.606 22.4958 250.551 22.7014 254.212 23.4876C252.014 26.3862 247.243 28.3455 244.385 30.2121C247.826 33.1107 249.495 36.4891 251.386 40.5045C246.393 40.4098 241.843 36.0699 238.001 33.7316C234.685 37.4809 232.355 41.1253 227.495 42.4719C229.245 38.7165 233.347 35.4873 233.865 31.5989C229.974 30.1496 225.157 27.0474 222.629 23.8988C226.644 24.1407 231.857 24.6527 235.866 25.1264" fill="#AE007F"/>
<path fill-rule="evenodd" clip-rule="evenodd" d="M240.007 53.6852C240.386 50.4096 240.638 46.3076 241.922 43.4956C242.897 46.4184 243.22 50.1798 245.211 52.377C247.779 51.7723 250.668 51.9134 253.315 52.4879C251.722 54.5742 248.267 56.0235 246.205 57.37C248.709 59.4644 249.928 61.9216 251.275 64.8424C247.652 64.7718 244.339 61.6131 241.551 59.936C239.158 62.6452 237.457 65.2979 233.921 66.2756C235.197 63.5583 238.18 61.1959 238.535 58.3859C235.717 57.3297 232.22 55.0801 230.385 52.7942C233.276 52.9757 237.078 53.3466 239.984 53.6852" fill="#97BD00"/>
<path fill-rule="evenodd" clip-rule="evenodd" d="M227.598 76.2436C227.86 73.9678 228.039 71.1498 228.92 69.2046C229.589 71.2203 229.819 73.8186 231.198 75.3305C232.976 74.9132 234.961 75.016 236.802 75.4111C235.693 76.8584 233.306 77.8501 231.883 78.7875C233.607 80.2448 234.441 81.93 235.379 83.9458C232.873 83.8974 230.597 81.7244 228.654 80.5432C226.991 82.4259 225.818 84.2521 223.377 84.9375C224.26 83.0548 226.314 81.4402 226.566 79.495C224.615 78.7633 222.196 77.2132 220.936 75.6227C222.952 75.7396 225.574 75.9997 227.574 76.2355" fill="#F07F00"/>
<path fill-rule="evenodd" clip-rule="evenodd" d="M42.0864 74.7939C40.0223 74.7939 16.6537 97.5658 14.378 100.253C12.4731 102.369 11.441 106.26 8.17349 106.701C4.70035 107.165 3.90615 105.81 2.23509 103.196C0.652731 100.716 -1.26021 96.2979 1.50338 94.5039C4.17223 92.7865 37.2829 62.4173 38.315 61.1816C39.599 59.8653 38.188 56.6139 37.5752 51.7156C36.787 45.4164 36.3859 39.6453 36.8737 33.4167C37.3615 27.0147 38.8895 19.125 40.5504 12.9206C41.5664 9.12491 40.9758 1.63641 46.259 1.41064C47.3294 1.66866 55.4569 7.29057 53.2678 14.7005C50.1031 25.3235 47.0633 37.2668 48.0006 48.6457C48.172 50.8428 49.0629 52.7477 50.4558 51.7398C65.449 41.008 88.9203 29.3771 94.9212 27.307C97.8098 26.3858 100.771 25.6601 103.77 25.2912C105.921 25.5331 107.55 27.5589 109.253 28.9921C117.748 36.275 101.245 62.1109 99.8416 69.9763C101.158 69.9763 102.591 67.9767 105.111 65.7009C108.47 62.6539 111.787 59.5615 115.063 56.4244C119.771 52.8808 123.89 49.6294 129.866 48.8654C144.245 47.0391 139.945 67.7469 136.7 75.1507C138.55 75.1507 143.077 69.936 146.708 66.4951C148.528 64.7716 150.55 62.9454 152.392 61.2441C154.583 59.2283 155.597 58.1801 157.25 58.9925C158.363 59.3069 163.164 62.2197 163.432 66.6685C163.66 70.2767 162.181 73.8103 161.465 77.2673C160.858 80.1639 161.007 89.5895 164.912 89.6057C166.456 88.4869 168.472 88.0152 170.306 87.7008C173.267 87.2049 173.126 88.1725 175.567 89.0775C179.393 90.4946 175.936 95.9291 173.92 97.9367C171.219 100.63 167.353 102.41 163.479 102.345C159.22 102.275 155.873 99.6521 153.952 95.9674C152.904 93.9516 151.552 86.4873 151.03 84.276C150.512 82.101 150.961 79.4947 148.653 81.6999C142.142 87.983 135.426 93.8186 128.802 100.007C121.505 106.82 114.534 97.463 115.859 89.8193C117.157 82.3469 123.605 73.2196 124.764 65.8118C121.684 65.8118 116.496 71.1878 114.534 73.4091C111.346 77.0153 107.81 81.0085 104.214 84.7941C100.589 88.5978 97.4872 92.1012 93.8508 95.8887C91.2283 98.6221 88.2269 102.51 83.8023 102.762C81.6213 102.418 78.1502 98.7874 77.5596 94.1733C77.0617 90.3152 78.0393 86.0781 79.5108 82.5344C83.7802 72.2904 95.4554 50.6533 98.1887 39.8893C92.5829 40.4335 68.8273 51.4173 53.1025 64.5197C48.5509 68.275 52.7558 75.1427 54.6546 79.7164C56.6925 84.6066 62.7075 93.4477 64.5036 94.9514C69.2124 98.866 65.449 102.323 60.7785 102.079C58.795 100.676 56.3942 99.1563 54.5357 97.2978C52.5119 95.276 50.7642 92.9679 49.1799 90.6055C45.9526 85.8282 42.8746 80.305 42.0381 74.5037M211.048 13.4789C209.718 8.52623 203.528 16.0853 200.425 20.0865C191.842 31.1328 184.017 53.6205 182.755 57.7629C178.913 70.4641 177.426 86.1184 185.739 97.2978C190.574 103.819 199.095 104.313 207.448 101.914C211.756 100.676 216.07 97.582 217.543 94.2197C218.763 91.4178 219.394 86.2051 213.244 90.1801C210.865 91.7161 206.503 93.4094 198.684 93.2844C196.063 93.236 191.756 89.4726 190.599 85.5822C188.567 79.2427 189.434 70.7786 189.434 70.7786C191.203 59.8492 196.275 48.0067 200.724 38.071C202.449 34.2351 207.708 24.6764 209.678 21.6286C209.678 21.6367 212.197 17.6616 211.069 13.4406L211.048 13.4789Z" fill="#005CAB"/>
</svg>
