<svg xmlns="http://www.w3.org/2000/svg" width="256" height="160" fill="none" viewBox="0 0 256 160"><g fill="#ebebeb" clip-path="url(#a)"><path d="m39.46.65 55.747 93.853.048-42.482 32.347 50.562-33.282 52.306-55.172-89.536-.126 93.736H.242V.65zm94.526 44.296 16.139 25.339.205.35a56.99 56.99 0 0 1 47.667-25.69c31.126 0 56.434 26.345 57.051 57.359l.011 1.049h-.029l-.001.393a7.506 7.506 0 0 1-14.999.224l-.009-.276-.004-.356c-.124-4.905-2.822-6.896-6.365-8.363l-.524-.212-.535-.205-.545-.202-2.827-1.003-.577-.212-.579-.219-.578-.228-.289-.118-.577-.245-.573-.26c-2.287-1.062-4.472-2.486-6.211-4.75l-.204-.273-.202-.284-.304-.445-.406-.627-1.285-2.057-.468-.725-.369-.551-.257-.37-.401-.556-.28-.37-.29-.37-.149-.184-.308-.367c-3.029-3.539-7.768-6.719-16.937-6.719a28.574 28.574 0 0 0-28.584 28.585 7.4 7.4 0 0 0 .748 3.113l.148.288 34.111 53.68h-37.619l-16.656-25.134-16.364 25.134H96.152l35.904-56.526-36.79-57.617zm121.112 66.496a14.37 14.37 0 0 1-1.092 7.865c-1.316 3.046-3.173 3.597-4.41 3.568l-.206-.01-.192-.019-.178-.027-.236-.048-.195-.052-.252-.087-.092-.042-.111-.063-.166-.104-.134-.092-.148-.11-.156-.129-.08-.071-.161-.155c-.695-.713-1.318-1.932-.212-3.631.818-1.263 1.95-1.972 3.135-2.608l1.197-.632c1.433-.773 2.815-1.676 3.689-3.553M134.083.65v40.28l-.088.449h-38.73l-.01-.449.05-40.28z"/><path d="M193.855 85.303a21.91 21.91 0 0 0-20.925 14.2 20.866 20.866 0 0 1 24.891-7.856c4.211 1.716 9.746 4.483 14.132 3.002a22.27 22.27 0 0 0-18.098-9.346"/><path d="M237.799 104.365c0-4.746-2.583-5.847-7.943-7.797-3.976-1.384-8.489-2.943-11.773-7.231-.643-.848-1.238-1.803-1.871-2.817a22.6 22.6 0 0 0-5.662-6.822c-3.129-2.3-7.232-3.42-12.553-3.42a26.37 26.37 0 0 0-24.365 16.324 24.726 24.726 0 0 1 42.521 4.122 7.944 7.944 0 0 0 8.879 3.548c5.233-1.121 4.873 3.83 12.777 5.506z"/></g><defs><clipPath id="a"><path fill="#ebebeb" d="M0 .31h256v159.378H0z"/></clipPath></defs></svg>
