<svg width="257" height="256" viewBox="0 0 257 256" fill="none" xmlns="http://www.w3.org/2000/svg">
<g clip-path="url(#clip0_20_1507)">
<path d="M185.937 88.9908L185.837 88.941C185.787 88.941 185.737 88.8912 185.688 88.8414C185.538 88.692 185.488 88.443 185.488 88.2438L190.618 56.8165L214.724 80.9224L189.672 91.5807C189.622 91.6305 189.523 91.6305 189.473 91.6305H189.373C189.323 91.6305 189.323 91.5807 189.224 91.5309C188.327 90.485 187.182 89.6383 185.937 88.9908ZM220.9 87.0484L246.699 112.848C252.028 118.227 254.718 120.866 255.714 124.004C255.863 124.452 255.963 124.901 256.063 125.399L194.453 99.2508C194.404 99.2508 194.404 99.201 194.354 99.201C194.105 99.1014 193.806 99.0017 193.806 98.7527C193.806 98.5037 194.105 98.4041 194.354 98.3045L194.453 98.2547L220.9 87.0484ZM255.017 133.617C253.672 136.107 251.082 138.697 246.699 143.129L217.613 172.166L180.06 164.347L179.86 164.297C179.512 164.247 179.163 164.197 179.163 163.898C178.864 160.761 177.32 157.872 174.83 155.979C174.681 155.83 174.73 155.581 174.78 155.382V155.282L181.853 111.901L181.902 111.752C181.952 111.403 182.002 111.055 182.301 111.055C185.339 110.656 188.128 109.062 190.021 106.622C190.07 106.572 190.12 106.473 190.22 106.423C190.419 106.323 190.668 106.423 190.917 106.522L255.017 133.617ZM210.939 178.89L163.126 226.703L171.294 176.449V176.399C171.294 176.35 171.294 176.25 171.344 176.2C171.393 176.051 171.593 175.951 171.742 175.901L171.842 175.852C173.635 175.104 175.228 173.909 176.474 172.415C176.623 172.216 176.822 172.066 177.071 172.017H177.27L210.939 178.89ZM153.065 236.764L147.686 242.143L88.1187 156.079C88.1187 156.029 88.0689 156.029 88.0689 155.979C87.9693 155.83 87.8697 155.73 87.9195 155.581C87.9195 155.481 87.9693 155.382 88.0689 155.282L88.1187 155.182C88.318 154.933 88.4674 154.634 88.6168 154.385L88.7662 154.136C88.8658 153.987 88.9654 153.838 89.1148 153.738C89.2643 153.688 89.4635 153.688 89.6129 153.738L155.605 167.335C155.804 167.385 155.954 167.434 156.103 167.534C156.203 167.634 156.203 167.733 156.253 167.833C157.199 171.369 159.739 174.258 163.076 175.652C163.275 175.752 163.176 175.951 163.076 176.15C163.026 176.25 162.976 176.35 162.976 176.449C162.08 181.579 154.958 225.059 153.065 236.764ZM141.809 248.02C137.825 251.954 135.484 254.046 132.844 254.893C130.254 255.739 127.415 255.739 124.825 254.893C121.737 253.897 119.048 251.257 113.669 245.878L53.9024 186.062L69.5413 161.856C69.5911 161.757 69.6907 161.607 69.7903 161.557C69.9397 161.458 70.1888 161.508 70.388 161.557C73.974 162.653 77.809 162.454 81.2954 161.01C81.4946 160.96 81.644 160.91 81.7934 161.01L81.9927 161.209L141.809 248.02ZM48.125 180.284L34.4285 166.588L61.5226 155.033C61.5724 154.983 61.672 154.983 61.7218 154.983C61.9709 154.983 62.0705 155.232 62.2199 155.431C62.4689 155.83 62.7678 156.278 63.0666 156.676L63.1662 156.776C63.2658 156.876 63.216 157.025 63.1164 157.125L48.125 180.284ZM28.3024 160.462L10.9203 143.08C7.98176 140.141 5.84013 137.999 4.34596 136.157L57.1397 147.114C57.1895 147.114 57.2892 147.114 57.339 147.164C57.6876 147.213 58.0362 147.263 58.0362 147.562C58.0362 147.911 57.6378 148.06 57.2892 148.16L57.1397 148.21L28.3024 160.462ZM1.35764 127.291C1.40744 126.196 1.60666 125.05 1.9553 124.004C2.95141 120.916 5.5911 118.227 10.9701 112.848L33.1833 90.6344C43.3934 105.476 53.6534 120.318 63.9631 135.111C64.1623 135.36 64.3615 135.609 64.1125 135.808C63.1662 136.854 62.1701 138.049 61.4728 139.344C61.423 139.494 61.2736 139.643 61.1242 139.743C61.0246 139.792 60.925 139.792 60.8253 139.743L1.35764 127.291ZM39.1102 84.7076L68.9436 54.8243C71.7327 56.0694 81.9927 60.3527 91.1071 64.2375C98.03 67.1761 104.306 69.8158 106.298 70.7123C106.497 70.8119 106.696 70.8617 106.746 71.0609C106.796 71.1605 106.796 71.3099 106.746 71.4593C105.8 75.8422 107.095 80.4243 110.232 83.6119C110.432 83.8111 110.232 84.1099 110.083 84.3589L109.983 84.5084L79.6518 131.475C79.5522 131.624 79.5024 131.724 79.353 131.824C79.2035 131.923 78.9545 131.873 78.8051 131.824C77.6098 131.525 76.4144 131.325 75.1693 131.325C74.0736 131.325 72.8783 131.525 71.6829 131.724C71.5335 131.724 71.4339 131.774 71.3343 131.674C71.2347 131.575 71.1351 131.475 71.0355 131.325L39.1102 84.7076ZM75.0199 48.7979L113.669 10.1488C119.048 4.76984 121.737 2.08035 124.825 1.08424C127.415 0.237546 130.254 0.237546 132.844 1.08424C135.932 2.08035 138.621 4.72004 144 10.099L152.368 18.4663L124.875 61.05C124.825 61.1496 124.726 61.299 124.626 61.3488C124.477 61.4484 124.228 61.3986 124.028 61.3488C119.646 60.0041 114.864 60.9504 111.278 63.7893C111.079 63.9885 110.83 63.8889 110.631 63.7893C106.945 62.2951 79.0043 50.4912 75.0199 48.7979ZM158.195 24.3434L183.596 49.7442L177.47 87.6461V87.7457C177.47 87.8453 177.47 87.8951 177.42 87.9947C177.37 88.1442 177.221 88.1442 177.071 88.194C175.776 88.5924 174.531 89.1901 173.435 89.987C173.386 90.0368 173.336 90.0368 173.286 90.0866C173.236 90.1862 173.137 90.236 173.037 90.236C172.937 90.236 172.838 90.236 172.738 90.1862L134.039 73.7504L133.99 73.7006C133.741 73.601 133.442 73.5014 133.442 73.2523C133.193 71.1107 132.495 69.0189 131.4 67.1761C131.2 66.8772 131.001 66.5286 131.151 66.2298L158.195 24.3434ZM132.047 81.5698L168.306 96.9099C168.505 97.0095 168.704 97.1091 168.804 97.3084C168.853 97.408 168.853 97.5574 168.804 97.7068C168.704 98.2547 168.604 98.8523 168.604 99.45V100.446C168.604 100.695 168.355 100.795 168.106 100.894L168.056 100.944C162.329 103.385 87.3716 135.36 87.272 135.36C87.1724 135.36 87.023 135.36 86.9234 135.26C86.7242 135.061 86.9234 134.762 87.1226 134.513C87.1724 134.463 87.1724 134.413 87.2222 134.364L117.006 88.194L117.056 88.0944C117.205 87.7955 117.404 87.4967 117.753 87.4967L118.052 87.5465C118.749 87.6461 119.347 87.7457 119.944 87.7457C124.477 87.7457 128.66 85.5543 131.2 81.7691C131.25 81.6694 131.35 81.5698 131.449 81.52C131.549 81.4204 131.848 81.4702 132.047 81.5698ZM90.5094 142.681L172.19 107.867C172.19 107.867 172.29 107.867 172.439 107.967C172.888 108.415 173.286 108.714 173.635 109.013L173.834 109.112C173.983 109.212 174.183 109.311 174.183 109.461V109.61L167.21 152.592L167.16 152.742C167.11 153.09 167.06 153.439 166.762 153.439C162.976 153.688 159.54 155.78 157.647 159.067L157.597 159.117C157.498 159.266 157.398 159.416 157.249 159.515C157.099 159.565 156.95 159.565 156.8 159.515L91.6549 146.068C91.5055 146.118 90.5592 142.681 90.5094 142.681Z" fill="url(#paint0_radial_20_1507)"/>
</g>
<defs>
<radialGradient id="paint0_radial_20_1507" cx="0" cy="0" r="1" gradientUnits="userSpaceOnUse" gradientTransform="translate(128.727 0.351059) rotate(90) scale(255.008 293.769)">
<stop stop-color="#20C6B7"/>
<stop offset="1" stop-color="#4D9ABF"/>
</radialGradient>
<clipPath id="clip0_20_1507">
<rect width="255.502" height="256" fill="white" transform="translate(0.873016 -0.00976562)"/>
</clipPath>
</defs>
</svg>
