<svg xmlns="http://www.w3.org/2000/svg" width="243" height="256" fill="none" viewBox="0 0 243 256">
  <g clip-path="url(#a)">
    <path fill="#ebebeb" d="M0 15.718c0 8.674 7.118 15.718 15.878 15.718h131.679q22.507 0 37.084 13.746c9.697 9.176 14.556 20.961 14.556 35.38 0 13.32-4.859 24.232-14.567 32.735-9.707 8.312-22.058 12.447-37.073 12.447H90.333c-8.78 0-15.888 7.033-15.888 15.718s7.107 15.718 15.888 15.718h63.192l56.926 90.386c3.537 5.456 8.493 8.184 14.897 8.184q10.598 0 14.897-8.184c2.867-5.68 2.313-11.679-1.651-18.009l-50.65-80.561c13.683-6.117 24.499-15.068 32.438-26.854 7.95-12.01 11.924-25.863 11.924-41.58 0-15.942-3.644-29.913-10.933-41.922-7.054-12.01-16.986-21.398-29.784-28.165C178.78 3.485 164.117 0 147.557 0H15.889C7.118 0 0 7.033 0 15.718"/>
  </g>
  <defs>
    <clipPath id="a">
      <path fill="#ebebeb" d="M0 0h243v256H0z"/>
    </clipPath>
  </defs>
</svg>
