<svg xmlns="http://www.w3.org/2000/svg" width="227" height="256" fill="none" viewBox="0 0 227 256"><path fill="#2b2ca3" d="M104.488 2.356 8.803 57.554A17.59 17.59 0 0 0 0 72.802v110.396a17.65 17.65 0 0 0 8.803 15.249l95.685 55.199a17.69 17.69 0 0 0 17.634 0l95.685-55.199a17.59 17.59 0 0 0 8.803-15.249V72.802a17.65 17.65 0 0 0-8.803-15.248L122.122 2.356a17.68 17.68 0 0 0-17.634 0"/><path fill="url(#a)" d="M194.186 128.275c0-5.645-.028-11.038-1.147-16.613-.559-2.837-1.244-7.826-2.965-11.305-.699-1.425-1.58-2.599-2.699-3.27-8.433-5.044-14.139 11.458-15.006 17.132-5.37 35.603-15.187 50.918-25.76 62.18 0 0-.014.014-.042.056-.657.698-1.314 1.369-1.972 2.04-4.755 4.597-17.733 15.16-36.64 15.426-15.118-.209-30.166-6.022-41.704-17.55s-17.355-26.563-17.565-41.668c.266-18.877 10.853-31.859 15.44-36.61.67-.656 1.342-1.313 2.041-1.97l.056-.041c11.286-10.578 26.6-20.387 62.234-25.753 5.678-.852 22.18-6.567 17.145-14.993-.671-1.118-1.846-1.998-3.272-2.697-3.483-1.719-8.489-2.403-11.314-2.962-5.566-1.104-10.964-1.132-16.614-1.132-44.235 0-80.106 35.84-80.106 80.038 0 21.323 8.195 41.249 23.2 56.395h.154v.154c15.16 14.993 35.103 23.181 56.444 23.181 44.221 0 80.106-35.841 80.106-80.038z"/><path fill="url(#b)" d="m143.463 156.963.391-.35c5.189-4.709 8-9.879 8.713-11.276 4.433-9.725 6.979-20.401 8.573-30.881.014-.139 2.433-13.959 10.251-17.634.294-.14.587-.251.881-.349a49 49 0 0 0-9.86-14.085c-.307-.307-.615-.587-.922-.894-.294-.308-.588-.629-.896-.922a49.1 49.1 0 0 0-14.096-9.851 8 8 0 0 1-.35.88c-3.692 7.81-17.523 10.228-17.649 10.242-10.489 1.58-21.173 4.136-30.907 8.566-1.273.642-5.636 3.018-9.957 7.308-.056.056-.098.098-.154.14-.084.083-.168.181-.266.279-.224.237-.461.475-.685.727-14.446 15.496-13.748 40.13 1.832 55.696 15.16 15.147 38.934 16.209 54.486 2.948.209-.181.419-.349.629-.53z"/><defs><radialGradient id="b" cx="0" cy="0" r="1" gradientTransform="rotate(135.024 62.421 72.572)scale(104.066 103.594)" gradientUnits="userSpaceOnUse"><stop stop-color="#71d0ff"/><stop offset="1" stop-color="#524cf6"/></radialGradient><linearGradient id="a" x1="163.657" x2="10.067" y1="48.545" y2="247.706" gradientUnits="userSpaceOnUse"><stop stop-color="#71d0ff"/><stop offset="1" stop-color="#2d12d3"/></linearGradient></defs></svg>