<svg width="189" height="256" viewBox="0 0 189 256" fill="none" xmlns="http://www.w3.org/2000/svg">
<g clip-path="url(#clip0_20_389)">
<path d="M184.696 123.358C184.696 174.078 144.498 215.194 94.9125 215.194C45.3246 215.194 5.12671 174.078 5.12671 123.358C5.12671 72.6385 45.3266 31.5186 94.9125 31.5186C144.498 31.5186 184.696 72.6385 184.696 123.358Z" fill="#D33833"/>
<path d="M8.78682 146.103C8.78682 146.103 2.28683 50.3328 90.5306 47.5988L84.3746 37.3389L36.4888 53.4128L22.8088 69.1468L10.8368 92.0647L3.99683 118.743L6.04682 136.529" fill="#EF3D3A"/>
<path d="M33.4165 60.7091C17.6646 76.8291 7.91661 99.081 7.91661 123.701C7.91661 148.315 17.6646 170.573 33.4165 186.689C49.1765 202.803 70.8965 212.749 94.9104 212.749C118.924 212.749 140.644 202.803 156.404 186.689C172.156 170.573 181.906 148.315 181.906 123.701C181.906 99.081 172.156 76.8271 156.404 60.7091C140.644 44.5992 118.924 34.6532 94.9104 34.6512C70.8985 34.6532 49.1765 44.5972 33.4165 60.7111V60.7091ZM29.4306 190.587C12.6906 173.465 2.33862 149.803 2.33862 123.701C2.33862 97.595 12.6906 73.9351 29.4306 56.8131C46.1705 39.6872 69.3385 29.0732 94.9104 29.0752C120.486 29.0712 143.658 39.6872 160.392 56.8131C177.136 73.9351 187.488 97.597 187.486 123.701C187.486 149.801 177.136 173.465 160.392 190.587C143.658 207.711 120.486 218.327 94.9124 218.327C69.3385 218.327 46.1665 207.711 29.4306 190.587Z" fill="#231F20"/>
<path d="M132.706 123.867L119.024 125.919L100.554 127.971L88.5825 128.313L76.9525 127.973L68.0605 125.235L60.1926 116.685L54.0366 99.2412L52.6686 95.4793L44.4586 92.7433L39.6706 84.8753L36.2506 73.5873L40.0126 63.6673L48.9046 60.5913L56.0886 64.0113L59.5086 71.5353L63.6146 70.8513L64.9805 69.1413L63.6146 61.2753L63.2706 51.3554L65.3225 37.6754L65.2425 29.8594L71.4805 19.8894L82.4245 12.0215L101.58 3.81348L122.786 6.89147L141.256 20.2314L149.808 33.9114L155.28 43.8314L156.648 68.4573L152.542 89.6653L145.018 108.475L137.836 118.395" fill="#F0D6B7"/>
<path d="M142.964 113.948L134.758 122.158V153.966L127.598 183.286L124.156 183.38L126.89 216.216L139.886 214.506L136.81 183.038L131.006 183.196L146.732 182.352C146.732 182.352 154.596 162.514 154.596 161.488C154.596 160.462 161.44 132.758 161.44 132.758L146.044 116.684L142.966 113.944L142.964 113.948ZM60.5346 119.076L51.9847 122.498L24.6207 141.31L26.3327 146.784L34.2007 170.04L37.6187 208.694L40.0127 212.794L74.2146 224.428L76.2706 222.028L72.1646 193.298V185.092L121.075 183.038L124.834 180.986L95.0826 166.962L100.555 156.362L92.6886 159.096L89.6086 155.334L85.5046 137.548L82.0826 136.522L74.5586 134.126L68.0586 128.314L60.5346 119.076Z" fill="#335061"/>
<path d="M40.0131 63.6695L48.9051 60.5895L56.0891 64.0115L59.5091 71.5355L63.6151 70.8514L64.6411 66.7475L62.5891 58.8815L64.6411 40.0675L62.9291 29.8075L69.0871 22.6236L82.427 12.0216L78.663 6.8916L59.8511 16.1256L51.9851 22.2836L47.5371 31.8595L40.6971 41.0935L38.6451 52.0395L40.0131 63.6695Z" fill="#6D6B6D"/>
<path d="M85.801 8.04173C83.457 8.01773 80.715 8.25773 80.715 8.25773L58.4851 16.8117L49.9311 25.3637L46.1691 32.2037L54.0371 31.5197C54.0371 31.5197 59.1671 18.8637 79.689 12.7077C92.515 8.85972 89.709 8.08373 85.801 8.04173ZM62.9311 29.8077L44.1191 34.2537L38.6451 52.0396L40.0131 63.6676L43.7731 61.2776C43.7731 61.2776 36.5911 37.3297 63.9531 33.9097L62.9311 29.8077Z" fill="#DCD9D8"/>
<path d="M106.883 0.949272C104.248 0.996041 101.643 1.50231 99.1826 2.44527C78.6627 10.3113 63.6127 24.6752 63.9527 33.9092C64.5367 49.6372 64.2967 49.6492 64.2967 49.6492C64.2967 49.6492 70.1127 19.5472 99.5306 13.7312C123.747 8.94525 136.467 14.7552 141.257 20.2272C141.257 20.2272 124.757 0.587273 106.885 0.947272L106.883 0.949272ZM143.539 23.6492C142.449 23.6432 133.713 23.8652 133.391 32.2032C133.391 32.2032 133.391 33.5692 134.075 34.9372C134.075 34.9372 141.943 26.0432 146.731 30.8312L143.653 23.6512C143.653 23.6512 143.613 23.6492 143.539 23.6492ZM93.1686 27.6692C91.4886 27.7092 89.4166 28.4112 86.8706 30.1492C79.3467 35.2792 80.0307 42.4632 81.3987 43.8312C82.7667 45.1992 82.3967 47.9512 83.4387 46.0612C84.4787 44.1712 84.1367 38.0172 87.8986 36.3072C91.6606 34.5972 97.8306 32.6832 100.219 35.8632C100.219 35.8632 99.1746 27.5312 93.1686 27.6712V27.6692ZM146.043 48.6212C146.043 48.6212 140.407 49.8092 139.887 54.7771C139.367 59.7431 146.045 55.8011 147.071 55.4591L146.043 48.6192V48.6212ZM104.657 48.9632C104.657 48.9632 97.1326 49.9892 97.1326 54.7771C97.1326 59.5651 105.685 59.2231 108.079 57.1711L104.657 48.9632ZM43.7747 61.2791L35.9108 69.4831L37.2788 79.7451L41.3788 90.3451L45.8287 91.7171C39.3288 83.8511 42.4067 78.3751 43.7747 70.8511C45.1407 63.3251 58.1407 71.1951 58.1407 71.1951L57.7967 66.0611L52.6687 61.9611L43.7747 61.2791ZM120.993 76.9731C118.741 76.8731 117.881 84.2431 117.697 86.1451C118.317 84.3051 124.039 80.6051 124.039 80.6051C124.039 80.6051 124.039 77.8131 121.247 77.0171C121.164 76.9925 121.079 76.9777 120.993 76.9731ZM117.697 86.1451C117.641 86.2855 117.627 86.4389 117.657 86.5871C117.657 86.5871 117.669 86.4251 117.697 86.1451ZM59.2007 88.7471L54.7207 93.0871L55.7467 108.137L66.6927 125.239C66.6927 125.239 78.9787 128.011 77.6367 126.951C62.9307 115.321 61.9047 93.7711 61.5627 91.3751C61.2227 88.9831 59.2007 88.7471 59.2007 88.7471ZM97.6886 93.8451C96.3386 93.8651 95.4446 94.3011 95.1926 94.6371C94.3386 95.777 96.1066 101.981 96.1066 101.981L97.8166 102.325C97.4766 95.483 101.579 94.797 101.579 94.797C100.063 94.069 98.7386 93.8291 97.6886 93.8451Z" fill="#F7E4CD"/>
<path d="M58.1407 118.738L24.6207 141.31L28.3827 151.916L37.2787 190.22L37.6187 210.404L42.4067 212.112C49.2467 195.692 35.9107 142.678 35.9107 142.678L68.0586 128.314L58.1407 118.738ZM71.3686 157.634L70.4526 159.78C70.4526 159.78 69.7706 165.936 69.7706 167.646C69.7706 169.358 70.4526 183.726 70.4526 183.726H75.9266V163.2L71.3666 157.632L71.3686 157.634ZM71.4806 186.802L56.0907 187.486L60.5346 190.566L71.4806 192.276V186.802ZM142.964 113.948L136.468 121.13L160.41 138.918L161.094 130.71L142.964 113.95V113.948ZM136.124 180.988L124.156 183.38L125.864 192.96C130.31 195.012 137.836 189.538 137.836 189.538L136.124 180.988Z" fill="#49728B"/>
<path d="M68.0591 125.239V128.315L72.4071 133.105L86.087 139.261L86.431 129.003L76.9531 127.971L68.0591 125.239ZM168.177 173.807L157.231 177.229L146.731 182.355L141.153 181.335L136.809 183.041L140.473 211.777L153.809 208.011L179.121 206.643L182.883 195.015L176.043 174.835L168.177 173.807ZM124.157 183.381L104.217 183.385L72.1651 185.093L72.7471 200.831L76.2711 222.031L83.351 250.769L99.083 254.187L125.079 252.135L125.419 247.003L122.339 219.299L124.157 183.381ZM126.791 180.649L119.265 161.495L111.397 150.207C111.397 150.207 113.107 145.419 115.503 145.419H123.369L130.893 148.155L130.211 160.811L126.791 180.649Z" fill="white"/>
<path d="M71.1407 130.026L70.1147 131.396L75.9307 135.498L85.5047 137.548L85.1647 133.448C81.7447 134.474 71.1407 130.026 71.1407 130.026ZM118.681 144.732L110.817 145.756L124.157 177.224L126.891 177.568L128.259 174.148C128.259 174.148 118.679 155.676 118.679 152.94C118.679 152.94 120.391 148.836 122.785 149.86C125.181 150.888 130.313 153.624 130.313 153.624V147.126L118.681 144.732ZM151.177 180.646L146.731 182.354L150.493 201.166C149.125 200.824 140.233 204.932 140.233 204.932L141.253 210.404L145.021 209.034L156.989 207.326L160.411 211.772L170.67 212.112L176.828 210.744L182.3 202.538L181.956 196.378L178.196 185.432C179.222 193.64 175.116 201.51 175.116 201.51C173.406 201.51 154.255 200.482 154.255 200.482C154.255 198.43 151.177 180.646 151.177 180.646ZM124.837 180.986L119.707 183.04C119.707 183.04 117.999 218.614 123.129 243.924C123.129 243.924 112.869 250.422 97.8167 252.13L126.547 251.104L129.969 249.052L125.865 192.958L124.837 180.986ZM133.777 217.58C132.305 217.588 130.117 218.632 128.571 218.53C128.345 223.932 129.103 232.596 129.357 238.264C132.949 238.268 134.487 237.48 137.169 236.576C137.471 229.906 135.055 223.732 134.361 217.642C134.17 217.596 133.972 217.575 133.777 217.58Z" fill="#DCD9D8"/>
<path d="M136.465 127.635C132.081 127.839 126.169 133.429 123.415 134.409C123.771 135.433 124.355 136.243 124.399 137.549C126.329 137.073 128.679 137.399 130.353 138.221C128.417 138.437 126.277 138.425 124.997 139.347C124.527 140.701 125.107 142.547 124.793 144.427C129.385 145.723 134.631 146.415 140.433 146.585C141.565 145.119 141.948 142.319 141.812 139.549C141.653 136.209 140.775 129.341 138.713 128.139C138.033 127.745 137.277 127.599 136.465 127.635ZM91.3946 129.131C86.7466 129.231 87.2306 137.347 87.4566 142.315C87.6466 146.511 89.8326 150.951 90.7766 153.741C91.2246 155.041 91.3246 156.425 92.4366 156.681C94.4046 157.141 100.897 154.547 102.747 153.539C106.657 151.407 109.693 148.019 113.013 145.745L113.137 142.429C111.141 141.433 108.837 140.725 105.903 140.597C107.893 139.597 110.817 139.611 112.629 138.421L112.681 137.097C109.373 136.843 108.111 135.369 105.931 134.175C102.363 132.227 97.0026 130.101 92.3946 129.221C92.0654 129.156 91.7302 129.126 91.3946 129.131ZM118.255 136.045C117.371 136.053 116.317 136.387 115.115 137.191C114.887 139.709 115.475 140.531 115.981 143.421C122.967 145.607 123.031 136.013 118.255 136.045Z" fill="#D33833"/>
<path d="M136.025 125.241L123.029 132.765L122.341 136.525V144.049L127.129 145.761C127.129 145.761 124.735 142.341 126.447 141.315C128.157 140.289 129.869 141.315 130.895 139.605C131.921 137.893 130.895 136.867 131.235 134.815C131.577 132.763 133.287 132.423 134.997 132.081C136.707 131.741 141.497 131.055 142.181 132.765L140.129 126.609L136.025 125.241ZM92.9529 127.301C91.259 127.265 89.715 127.545 88.583 128.315C80.541 133.785 87.023 146.427 90.963 153.863C90.6292 149.588 90.2705 145.316 89.887 141.045C89.163 133.085 91.801 134.475 98.7029 134.475C99.7589 134.475 105.193 135.731 105.583 136.527C107.449 140.337 102.463 139.489 107.731 142.363C112.179 144.787 120.035 140.889 118.239 135.499C117.233 134.299 112.999 135.125 111.481 134.339L103.465 130.183C101.129 128.969 96.6809 127.379 92.9529 127.301ZM90.961 153.861C91.045 154.925 91.133 155.987 91.215 157.049L92.4389 156.683C92.031 155.873 91.521 154.917 90.963 153.863L90.961 153.861Z" fill="#EF3D3A"/>
<path d="M102.04 0.011781C94.8602 0.147781 87.8382 1.34178 81.9862 3.49577C77.6362 5.09577 73.4222 6.52777 69.6022 8.77176C59.3803 14.7717 48.5283 18.7877 45.4983 30.8657C38.0303 34.2097 35.7783 43.7677 36.1543 54.8597C36.2263 57.0216 37.4003 59.7236 36.9943 61.7576C36.7863 62.7896 35.3863 64.1116 35.1063 64.7836C31.5263 73.3176 34.3963 84.5356 38.5323 90.6016C41.0323 94.2656 45.1723 97.5155 50.6323 98.3775C50.8503 101.648 51.6363 104.462 53.1463 107.776C54.1023 109.872 57.6723 113.64 56.3583 116.314C55.6983 117.662 49.8843 120.587 47.9563 121.745C41.4463 125.649 36.7283 128.043 30.7183 132.369C26.8303 135.169 20.7484 135.529 21.7084 141.985C22.3543 146.341 24.8343 151.741 26.2523 156.109C27.7883 160.823 29.9883 165.141 31.2523 170.033C34.0623 180.935 34.6483 191.207 35.3323 201.855C35.6003 206.025 35.1563 210.437 36.2383 212.739C37.3543 215.119 41.4903 215.879 44.4783 217.267C53.1083 221.257 62.2642 227.351 73.5822 226.141C76.2802 235.213 78.8302 244.875 82.0682 252.821C93.6742 256.993 111.996 256.341 124.062 254.891C127.73 254.447 131.6 252.637 132.462 249.457C132.204 247.497 131.918 245.557 132.042 243.239C135.814 242.459 140.948 241.815 141.778 237.639C142.942 231.783 138.08 223.393 139.702 216.967C141.886 216.259 144.218 215.705 143.87 212.257C147.55 210.341 151.916 209.913 156.576 210.093C157.176 211.253 158.03 212.369 158.798 213.007C165.326 214.319 171.648 214.427 177.068 212.659C183.202 210.655 186.128 198.109 184.726 192.139C183.73 187.909 181.478 180.979 179.558 176.883C174.356 165.763 158.852 172.743 150.554 176.867C154.58 166.277 158.042 155.297 161.594 143.417C162.654 139.857 164.75 134.811 164.28 131.123C163.84 127.655 158.432 124.011 155.586 121.263C154.004 119.739 146.628 114.14 146.2 112.044C145.786 110.016 149.208 105.422 150.308 103.124C151.888 99.8355 153.02 95.8115 153.798 93.0736C159.598 72.6816 160.188 44.6657 151.896 27.9017C148.756 21.5517 139.976 12.7818 134.486 8.62776C126.39 2.50778 114.002 -0.212218 102.04 0.011781ZM102.996 5.69177C112.69 5.59777 123.47 9.01776 130.77 13.1357C136.87 16.5757 141.37 23.2317 145.662 28.7697C139.644 26.9837 134.522 30.0537 135.456 35.0177C140.494 30.3997 149.1 34.9677 151.646 40.0737C154.08 44.9537 154.064 52.1877 154.438 59.4436C155.344 77.0396 151.218 95.1936 142.376 107.912C140.012 111.308 138.028 115.02 134.704 117.358C126.692 122.983 114.514 128.083 104.086 124.585C90.3062 119.961 84.0462 110.78 76.4662 100.266C76.6722 106.042 80.7342 110.782 84.7462 115.2C88.2362 119.049 92.4482 123.399 96.9802 125.195C93.2002 124.307 87.3962 124.029 85.8202 127.423C77.0002 126.837 68.8042 125.935 64.6322 119.957C61.3443 115.246 58.0043 107.232 56.5063 101.042C56.2003 99.7695 55.6763 97.0615 55.8043 96.3675C56.2963 93.6816 61.0803 92.5016 59.1983 88.7476C55.7263 88.7156 54.9443 91.9076 51.7583 92.2236C43.5083 93.0396 37.6883 81.2896 38.0623 74.1996C38.3803 68.1716 43.4763 62.4036 50.4463 63.1656C55.3723 63.7056 57.0463 69.0816 58.0023 73.8656C60.8423 74.0176 64.9442 73.7436 66.2882 71.5276C66.0942 66.1216 63.5842 61.7856 63.7562 56.8176C64.0802 47.4817 69.1662 39.0577 65.2422 29.8617C69.4422 20.3337 81.7642 12.8137 90.8782 8.26776C94.4082 6.50776 98.5902 5.73977 102.998 5.69577L102.996 5.69177ZM77.9202 10.3838C78.3162 10.4478 78.6802 10.7558 79.0322 11.1318C78.9722 12.7538 77.3722 12.7198 76.2922 13.2397C74.6122 15.3057 72.1562 16.2717 70.1122 18.5357C68.0142 20.8557 65.6682 27.0877 62.8882 27.7757C61.4943 28.1237 59.9023 27.5357 58.6883 27.6157C55.4783 27.8177 53.2183 29.4617 49.9623 29.9337C54.1663 20.7437 67.2802 13.3077 77.5102 10.4098C77.6433 10.3708 77.7833 10.362 77.9202 10.3838ZM95.4002 30.3297C90.1262 30.3357 84.1202 35.9737 82.5542 40.2757C81.9182 42.0237 80.9142 45.4557 83.4362 46.0657C86.2622 39.7677 90.8942 33.6957 100.216 35.8657C102.006 32.9237 98.8062 30.7617 96.4422 30.4057C96.0966 30.3542 95.7496 30.3288 95.4002 30.3297ZM62.0883 31.2897C65.6922 40.4617 59.5023 51.3617 61.8083 61.3916C62.5143 64.4636 64.9562 69.2316 61.0563 69.3356C61.1583 60.5956 50.3163 55.0497 42.1463 60.1876C41.6003 53.5597 40.6543 44.2417 45.1743 39.2697C49.3443 34.6777 55.0923 31.8197 62.0883 31.2897ZM145.64 46.4837C145.342 51.5177 147.212 54.5477 148.51 58.1076C146.266 59.5196 141.9 58.6396 139.37 59.7456C139.19 67.1916 150.89 63.5216 152.67 59.3756C150.01 55.5116 148.188 50.8757 146.08 46.5017L145.64 46.4817V46.4837ZM104.99 46.5977C103.606 50.5257 107.366 57.1936 109.474 60.5656C106.728 63.2316 101.79 61.0176 98.1162 60.8456C94.6102 66.3836 104.962 67.4256 109.404 66.1136C110.62 65.7556 112.724 63.9336 113.014 63.1136C114.248 59.6476 111.76 58.1276 110.48 56.8796C107.64 54.1117 106.988 50.2597 104.99 46.5977ZM126.088 50.2177C125.82 50.1817 125.498 50.2777 125.112 50.5577C124.862 59.7896 131.722 67.4316 136.838 73.5976C139.338 76.6076 142.35 78.3276 139.576 83.0036C135.104 84.7036 127.866 89.5736 121.648 88.5096C118.348 87.9456 119.092 84.1996 117.908 82.1636C115.632 85.1576 116.524 89.6876 118.868 91.7236C129.826 92.8076 137.284 88.1356 143.972 83.8376C143.706 82.1536 145.996 79.1176 145.36 76.5856C145.14 75.7136 143.156 74.4496 141.952 73.1316C137.046 67.7816 130.324 59.7876 127.652 53.5357C127.412 52.9757 127.25 50.3717 126.088 50.2177ZM48.1283 67.4876C45.5943 67.4476 43.2983 69.1176 42.7563 73.0536C43.8803 72.3176 44.7863 70.2236 46.8123 71.2196C45.0323 74.6936 45.4603 81.4596 47.8823 83.6596C47.8683 79.5356 47.2263 72.4856 50.7423 72.6996C53.2043 72.8476 53.7023 78.1196 55.7983 79.3156C57.2443 72.3596 52.3543 67.5516 48.1283 67.4876ZM148.23 88.2076C142.884 90.6476 138.57 94.2016 131.586 94.8716C131.248 96.0256 131.392 98.9375 131.578 100.852C140.712 100.662 145.118 94.1336 148.23 88.2076ZM104.462 92.0496C107.132 99.1955 119.168 101.716 129.348 101.208C129.332 99.0915 129.342 96.9475 128.918 95.2115C120.998 95.4435 110.288 95.1116 104.462 92.0496ZM103.356 97.7655C98.2102 97.7715 102.55 100.634 103.422 101.754C105.226 104.074 107.342 108.032 110.638 109.784C115.834 112.544 126.154 111.386 129.898 109.864C131.282 109.304 132.398 107.75 132.912 106.438C121.232 106.718 107.386 107.882 103.356 97.7655ZM142.228 117.426C146.228 120.647 148.644 123.679 152.48 127.125C154.56 128.991 158.656 131.227 159.07 134.245C159.3 135.929 158.268 140.055 157.888 141.949C156.208 150.257 152.428 161.233 148.828 169.939C147.52 173.103 146.268 177.059 144.542 177.743C139.814 179.615 134.076 177.561 130.058 180.063C135.458 170.693 141.338 161.841 146.63 152.359C145.824 150.479 143.848 149.677 143.274 147.583C146.99 140.565 145.282 118.777 135.798 123.377C137.124 121.429 140.606 119.821 142.228 117.426ZM58.7803 122.385C59.6423 122.045 65.9342 130.231 66.8642 130.895C71.9642 134.515 78.2962 137.375 84.2182 140.201C84.5802 142.919 85.4182 146.441 86.8942 151.153C88.5202 156.357 89.8622 163.701 96.7382 159.949C96.0842 162.921 92.2642 164.765 93.3182 168.231C93.9782 170.405 101.198 173.091 103.486 174.383C107.708 176.763 111.56 178.079 114.804 179.471C100.064 179.875 86.2222 181.075 72.6002 182.929C70.9682 180.401 71.6262 176.505 71.4542 172.479C71.2662 168.107 73.0842 158.251 71.3662 157.639C69.4242 156.949 69.0602 160.885 68.9902 161.753C68.6262 166.369 71.1882 176.143 68.6622 181.669C65.8982 180.887 64.5362 178.809 61.9463 177.865C60.9303 181.065 64.0502 181.219 63.7302 183.251C63.3062 185.937 58.2163 183.691 58.2443 187.685C61.5583 188.217 66.6422 186.655 70.1842 188.149C71.1102 199.015 72.5982 209.311 74.2282 220.853C60.1323 220.121 51.0083 213.117 40.6183 208.259C39.9723 185.279 36.3103 161.439 27.2423 141.979C36.7543 134.639 47.3983 126.875 58.7823 122.387L58.7803 122.385ZM136.944 127.637C137.576 127.667 138.17 127.825 138.712 128.141C140.776 129.345 141.654 136.213 141.814 139.553C141.948 142.323 141.562 145.119 140.434 146.587C134.63 146.417 129.386 145.727 124.794 144.431C125.108 142.551 124.524 140.701 124.994 139.345C126.272 138.425 128.416 138.441 130.35 138.225C128.678 137.401 126.33 137.075 124.4 137.551C124.354 136.243 123.768 135.435 123.414 134.411C126.268 133.393 132.522 127.419 136.944 127.637ZM126.544 127.891C124.108 129.479 122.034 131.465 119.696 133.161C114.51 133.419 111.68 132.803 107.87 129.825C107.93 129.585 108.314 129.693 108.33 129.399C113.88 131.873 120.94 128.391 126.544 127.891ZM71.8502 127.989C74.7442 129.999 80.3442 129.503 84.6062 130.251C84.8262 131.617 83.7222 133.411 83.7422 135.313C80.1562 135.093 68.8882 130.993 71.8502 127.989ZM91.3942 129.135C91.7042 129.127 92.0362 129.157 92.3942 129.225C97.0022 130.105 102.362 132.229 105.93 134.179C108.11 135.371 109.372 136.843 112.68 137.099C112.666 137.539 112.646 137.979 112.63 138.423C110.818 139.613 107.892 139.599 105.904 140.599C108.836 140.727 111.144 141.433 113.14 142.429L113.01 145.747C109.688 148.021 106.654 151.407 102.744 153.539C100.894 154.547 94.4042 157.143 92.4382 156.683C91.3242 156.425 91.2242 155.043 90.7782 153.743C89.8322 150.953 87.6502 146.515 87.4582 142.319C87.2322 137.349 86.7462 129.229 91.3942 129.135ZM117.982 136.061C118.256 136.039 118.516 136.047 118.762 136.083C123.014 136.709 122.706 145.527 115.978 143.423C115.472 140.535 114.886 139.711 115.112 137.193C116.196 136.471 117.156 136.127 117.982 136.061ZM121.854 146.089C124.29 146.349 126.218 149.709 129.694 149.489C129.136 158.553 129.428 167.649 126.898 175.953C122.184 167.309 119.41 156.873 113.308 149.519C113.952 148.835 114.528 148.077 115.16 147.377C117.924 148.533 119.728 145.861 121.854 146.089ZM135.87 148.973C139.226 148.947 141.974 151.141 143.484 153.567C138.756 161.667 134.232 169.983 128.624 177.127C130.974 170.211 131.982 158.637 132.338 149.813C133.441 149.281 134.646 148.994 135.87 148.973ZM110.33 152.059C115.93 159.167 119.338 168.309 123.09 177.133C114.226 174.461 105.17 170.125 97.4022 165.729C98.9262 159.121 104.902 155.697 110.33 152.059ZM169.352 175.515C171.786 175.575 174.204 177.551 175.262 179.153C177.174 182.041 178.96 190.543 179.962 195.057C181.456 201.775 178.098 208.315 172.756 209.611C168.868 210.555 162.904 210.805 160.358 209.575C163.474 207.873 168.156 207.863 171.762 206.695C166.596 204.471 158.952 206.567 152.74 206.179C151.99 198.509 151.424 190.193 149.606 184.139C153.232 180.285 161.992 179.359 166.966 176.177C167.676 175.719 168.508 175.488 169.352 175.515ZM168.93 182.671C162.564 182.859 157.59 184.545 154.75 188.547C159.916 188.877 163.636 183.731 168.93 182.671ZM143.85 184.241C144.3 184.261 144.744 184.311 145.17 184.407C148.554 190.227 149.282 199.905 149.17 206.929C147.06 207.337 145.69 208.545 143.13 208.465C142.476 200.463 140.618 192.049 139.854 184.425C141.074 184.401 142.496 184.185 143.85 184.241ZM104.644 184.327C111.324 184.219 117.804 184.611 123.414 185.779C124.784 194.685 124.274 203.469 125.274 212.199C126.598 223.815 125.606 237.067 127.874 247.951C115.528 251.777 98.6942 251.407 84.7262 247.167C78.4322 227.881 75.0002 209.575 72.6322 187.797C81.8062 186.081 93.5062 184.507 104.644 184.327ZM134.292 185.095C136.498 193.069 136.366 203.215 137.45 212.229C134.114 212.961 131.674 213.319 128.084 213.859C127.37 204.495 126.824 195.269 126.952 185.917C129.496 185.065 131.74 185.117 134.292 185.095ZM163.264 189.687C160.744 189.719 158.476 190.267 157.504 191.751C161.884 192.111 166.948 191.411 171.264 190.955C169.296 190.275 166.12 189.649 163.264 189.687ZM162.542 196.167C160.286 196.195 158.296 196.623 157.274 197.721C161.882 198.107 167.91 198.203 172.76 198.099C170.794 197.183 166.302 196.119 162.542 196.167ZM133.106 217.639C133.578 217.565 134.006 217.549 134.36 217.643C135.056 223.733 137.47 229.905 137.168 236.575C134.488 237.479 132.948 238.271 129.354 238.265C129.102 232.597 128.342 223.933 128.57 218.529C129.894 218.617 131.692 217.861 133.106 217.639Z" fill="#231F20"/>
<path d="M135.871 148.972C134.646 148.992 133.44 149.279 132.337 149.812C131.981 158.636 130.977 170.21 128.625 177.124C134.235 169.982 138.757 161.664 143.485 153.566C141.973 151.14 139.227 148.946 135.871 148.972ZM110.331 152.06C104.903 155.7 98.9308 159.124 97.4048 165.732C105.173 170.128 114.229 174.462 123.093 177.134C119.341 168.314 115.933 159.17 110.331 152.06Z" fill="#81B0C4"/>
<path d="M126.545 127.89C124.109 129.48 122.035 131.464 119.697 133.162C114.511 133.418 111.681 132.802 107.871 129.824C107.933 129.584 108.317 129.692 108.331 129.398C113.881 131.872 120.939 128.39 126.545 127.89Z" fill="#F0D6B7"/>
<path d="M125.18 153.454C125.18 153.953 124.982 154.432 124.63 154.784C124.277 155.137 123.798 155.335 123.299 155.335C122.801 155.335 122.322 155.137 121.969 154.784C121.617 154.432 121.418 153.953 121.418 153.454C121.418 152.955 121.617 152.477 121.969 152.124C122.322 151.771 122.801 151.573 123.299 151.573C123.798 151.573 124.277 151.771 124.63 152.124C124.982 152.477 125.18 152.955 125.18 153.454ZM127.062 162.176C127.062 162.675 126.864 163.154 126.511 163.507C126.158 163.86 125.68 164.058 125.18 164.058C124.681 164.058 124.203 163.86 123.85 163.507C123.497 163.154 123.298 162.675 123.298 162.176C123.298 161.677 123.497 161.198 123.85 160.845C124.203 160.493 124.681 160.294 125.18 160.294C125.68 160.294 126.158 160.493 126.511 160.845C126.864 161.198 127.062 161.677 127.062 162.176Z" fill="#1D1919"/>
</g>
<defs>
<clipPath id="clip0_20_389">
<rect width="188" height="256" fill="white" transform="translate(0.910645 -0.000976562)"/>
</clipPath>
</defs>
</svg>
