<svg xmlns="http://www.w3.org/2000/svg" width="249" height="256" fill="none" viewBox="0 0 249 256">
  <g clip-path="url(#a)">
    <path fill="#000" d="M185.879 186.51c1.634-13.597 1.145-15.593 11.272-13.389l2.571.225c7.788.353 17.976-1.253 23.962-4.034 12.885-5.98 20.523-15.959 7.821-13.339-28.98 5.979-30.972-3.834-30.972-3.834 30.602-45.403 43.393-103.04 32.35-117.15-30.116-38.481-82.247-20.284-83.119-19.814l-.279.052c-5.725-1.188-12.134-1.898-19.333-2.015-13.114-.216-23.065 3.439-30.614 9.162 0 0-92.999-38.314-88.672 48.184.92 18.401 26.375 139.235 56.737 102.738 11.097-13.346 21.82-24.631 21.82-24.631 5.324 3.537 11.701 5.343 18.386 4.694l.518-.441c-.162 1.656-.091 3.278.207 5.197-7.82 8.739-5.522 10.273-21.159 13.491-15.822 3.259-6.527 9.064-.46 10.581 7.357 1.84 24.376 4.446 35.878-11.651l-.458 1.835c3.067 2.456 2.861 17.644 3.294 28.493.435 10.852 1.162 20.978 3.374 26.949 2.213 5.969 4.823 21.346 25.373 16.942 17.175-3.671 30.306-8.968 31.503-58.245"/>
    <path fill="#000" d="M147.685 255.49c-9.089 0-15.008-3.515-18.603-6.909-5.426-5.12-7.578-11.716-8.864-15.656l-.556-1.644c-2.589-6.989-3.467-17.052-3.987-30.01-.08-1.947-.134-3.951-.194-6.076-.044-1.555-.098-3.505-.177-5.544a39 39 0 0 1-10.327 3.263c-6.409 1.095-13.298.741-20.48-1.055-5.068-1.268-10.334-3.894-13.335-7.951-8.748 7.662-17.092 6.623-21.638 5.106-8.019-2.675-15.195-10.19-21.94-22.972-4.806-9.105-9.454-20.969-13.816-35.263C6.17 105.887 1.345 79.669.916 71.06-.433 44.118 6.82 24.85 22.47 13.795 47.156-3.642 84.56 6.613 98.196 11.27c9.162-5.522 19.941-8.21 32.12-8.016 6.542.107 12.771.681 18.557 1.713 6.036-1.898 17.958-4.622 31.605-4.452 25.144.3 45.98 10.099 60.251 28.337 10.186 13.013 5.15 40.338 1.243 55.47-5.499 21.283-15.133 43.919-26.967 63.625 3.213.022 7.869-.363 14.488-1.73 13.058-2.695 16.877 4.306 17.913 7.441 4.153 12.575-13.897 22.078-19.526 24.692-7.214 3.349-18.976 5.389-28.608 4.947l-.42-.027-2.531-.222-.25 2.11-.241 2.063c-.648 24.973-4.215 40.789-11.556 51.239-7.694 10.956-18.388 14.026-27.808 16.045-3.214.687-6.134.986-8.781.986m-19.127-90.892c5.867 4.695 6.381 13.531 6.841 30.041.058 2.061.112 4.011.185 5.832.221 5.516.739 18.43 2.762 23.887.285.773.541 1.555.812 2.386 2.254 6.901 3.384 10.362 13.131 8.279 8.181-1.755 12.388-3.328 15.68-8.015 4.785-6.814 7.462-20.522 7.953-40.742l9.955.242-9.886-1.186.291-2.469c.947-8.138 1.63-14.015 7.068-17.903 4.365-3.118 9.337-2.816 13.298-2.102-4.352-3.289-5.555-7.145-5.876-8.727l-.83-4.09 2.333-3.461c13.439-19.939 24.52-44.444 30.405-67.235 6.049-23.416 4.205-35.852 2.361-38.204-24.412-31.192-66.744-18.313-71.164-16.852l-.747.404-3.747.697-1.919-.398c-5.29-1.099-11.168-1.706-17.468-1.808-9.899-.167-17.885 2.172-24.432 7.14l-4.544 3.445-5.272-2.17C84.484 26.981 51.4 17.722 33.942 30.087c-9.69 6.864-14.105 20.313-13.123 39.975.325 6.492 4.735 31.066 12.011 54.899 10.055 32.936 19.192 43.878 23.007 45.149.666.225 2.394-1.117 4.113-3.182a564 564 0 0 1 22.257-25.121l5.765-6.067 6.97 4.631c2.81 1.867 5.91 2.926 9.092 3.126l16.623-14.178-2.408 24.576c-.054.551-.081 1.303.135 2.697l.725 4.658-3.143 3.513-.362.408 9.133 4.215z"/>
    <path fill="#336791" d="M231.505 155.973c-28.982 5.979-30.974-3.834-30.974-3.834 30.602-45.406 43.393-103.045 32.354-117.15-30.116-38.48-82.251-20.282-83.121-19.81l-.281.05c-5.726-1.188-12.134-1.896-19.337-2.013-13.115-.214-23.061 3.439-30.61 9.162 0 0-93-38.312-88.676 48.184.92 18.403 26.374 139.237 56.736 102.74 11.098-13.346 21.819-24.63 21.819-24.63 5.326 3.536 11.701 5.342 18.384 4.693l.52-.441c-.162 1.656-.087 3.278.208 5.197-7.821 8.739-5.523 10.273-21.16 13.491-15.822 3.259-6.527 9.064-.458 10.581 7.355 1.84 24.376 4.446 35.875-11.651l-.46 1.836c3.066 2.455 5.218 15.967 4.858 28.216-.362 12.248-.604 20.659 1.813 27.227 2.414 6.569 4.82 21.346 25.375 16.942 17.175-3.68 26.075-13.218 27.315-29.128.878-11.312 2.866-9.638 2.993-19.751l1.596-4.787c1.84-15.333.292-20.278 10.875-17.979l2.57.225c7.789.354 17.981-1.253 23.965-4.033 12.883-5.976 20.523-15.958 7.821-13.337"/>
    <path fill="#ebebeb" d="M148.723 249.353c-17.133 0-22.561-13.568-24.782-19.117-3.251-8.131-3.952-39.688-3.228-65.567a3.31 3.31 0 0 1 3.414-3.226 3.324 3.324 0 0 1 3.226 3.411c-.835 29.848.349 56.897 2.755 62.916 3.755 9.384 9.449 17.593 25.548 14.144 15.283-3.278 21.007-9.072 23.556-23.851 1.957-11.341 5.826-43.606 6.303-49.972a3.31 3.31 0 0 1 2.272-2.908 3.322 3.322 0 0 1 4.35 3.403c-.497 6.629-4.348 38.831-6.379 50.607-3.01 17.456-10.792 25.373-28.709 29.215-3.045.652-5.811.943-8.326.945m-92.9-66.271a14 14 0 0 1-4.405-.728c-11.128-3.713-21.728-21.837-31.506-53.875-7.443-24.386-12.16-49.84-12.573-58.114-1.226-24.526 5.088-41.878 18.773-51.57 27.071-19.181 72.612-.916 74.537-.13a3.32 3.32 0 1 1-2.512 6.151c-.439-.179-44.109-17.674-68.2-.593-11.7 8.296-17.073 23.71-15.967 45.811.347 6.97 4.753 31.813 12.292 56.506 8.729 28.601 18.663 46.648 27.256 49.514 1.35.449 5.453 1.817 11.32-5.239a510 510 0 0 1 21.286-23.989 3.323 3.323 0 0 1 5.666 2.244 3.33 3.33 0 0 1-.87 2.352c-.1.104-10.089 10.545-20.974 23.641-5.155 6.2-10.096 8.019-14.124 8.019m144.502-27.983a3.324 3.324 0 0 1-3.313-3.494 3.3 3.3 0 0 1 .562-1.682c30.934-45.903 41.792-101.368 32.493-113.252-11.705-14.956-28.233-22.767-49.127-23.219-15.47-.333-27.767 3.617-29.777 4.306l-.506.206c-2.021.635-3.572-.472-4.156-1.767a3.33 3.33 0 0 1 1.313-4.214c.096-.056.399-.186.893-.367 3.415-1.25 15.899-4.997 31.361-4.82 23.119.246 42.217 9.16 55.225 25.783 6.154 7.865 6.169 25.985.04 49.716-6.249 24.195-18.006 50.197-32.254 71.341a3.3 3.3 0 0 1-2.754 1.463m1.582 21.25c-5.282 0-10.017-.745-12.852-2.443-2.914-1.746-3.47-4.119-3.543-5.378-.795-13.966 6.91-16.397 10.84-17.506-.548-.828-1.326-1.802-2.131-2.808-2.292-2.864-5.431-6.785-7.849-12.65-.379-.916-1.565-3.045-2.939-5.511-7.449-13.358-22.948-41.154-12.991-55.388 4.608-6.587 13.784-9.18 27.304-7.734-3.977-12.117-22.917-50.022-67.858-50.759-13.516-.224-24.601 3.932-32.93 12.343-18.65 18.833-17.975 52.91-17.964 53.252a3.321 3.321 0 1 1-6.64.175c-.041-1.514-.737-37.275 19.885-58.102 9.651-9.747 22.355-14.559 37.759-14.307 28.751.473 47.258 15.09 57.719 27.267 11.403 13.273 16.993 27.913 17.453 32.8.344 3.633-2.264 4.36-2.791 4.468l-1.199.027c-13.268-2.125-21.78-.65-25.3 4.379-7.574 10.825 7.089 37.118 13.35 48.347 1.598 2.863 2.751 4.934 3.28 6.212 2.056 4.987 4.739 8.338 6.893 11.031 1.896 2.369 3.538 4.423 4.125 6.833.273.479 4.142 6.202 27.101 1.463 5.755-1.186 9.205-.173 10.261 3.018 2.075 6.275-9.568 13.595-16.014 16.588-5.776 2.685-14.994 4.383-22.969 4.383m-9.774-8.369c.729.735 4.373 2.003 11.92 1.678 6.71-.287 13.786-1.746 18.032-3.717 5.43-2.523 9.056-5.343 10.933-7.268l-1.041.191c-14.679 3.031-25.063 2.627-30.861-1.201q-.585-.386-1.124-.834c-.629.247-1.209.41-1.623.526-3.289.922-6.69 1.878-6.236 10.625m-94.828 18.555c-3.647 0-7.485-.497-11.404-1.478-4.06-1.015-10.906-4.073-10.802-9.095.12-5.634 8.313-7.324 11.398-7.959 11.143-2.295 11.87-3.215 15.351-7.638 1.016-1.288 2.279-2.893 4.003-4.816 2.558-2.864 5.353-4.315 8.308-4.315 2.059 0 3.747.697 4.862 1.162 3.555 1.473 6.521 5.036 7.74 9.297 1.101 3.844.575 7.544-1.477 10.419-6.737 9.434-16.413 14.423-27.98 14.423m-15.031-10.288c1 .775 3.007 1.809 5.24 2.367 3.395.849 6.688 1.28 9.793 1.28 9.462 0 17.058-3.917 22.576-11.643 1.151-1.611.805-3.657.497-4.733-.645-2.254-2.248-4.304-3.898-4.989-.895-.37-1.638-.653-2.321-.653-.366 0-1.482 0-3.359 2.1a86 86 0 0 0-3.734 4.499c-4.337 5.508-6.325 7.377-19.229 10.034-3.149.646-4.764 1.303-5.565 1.738m25.535-15.318a3.32 3.32 0 0 1-3.278-2.818 17 17 0 0 1-.166-1.663c-8.459-.158-16.62-3.788-22.816-10.253-7.834-8.173-11.399-19.497-9.78-31.067 1.76-12.565 1.101-23.656.747-29.615-.097-1.657-.168-2.854-.164-3.682.006-1.05.027-3.838 9.343-8.56 3.314-1.68 9.957-4.61 17.215-5.362 12.023-1.242 19.949 4.113 22.321 15.081 6.405 29.613.508 42.711-3.798 52.276-.801 1.782-1.559 3.464-2.164 5.093l-.535 1.437c-2.275 6.1-4.242 11.37-3.638 15.305a3.32 3.32 0 0 1-1.561 3.344 3.3 3.3 0 0 1-1.218.442zM79.014 82.751l.13 2.37c.366 6.19 1.048 17.708-.8 30.929-1.334 9.543 1.58 18.856 7.999 25.55 5.072 5.291 11.746 8.211 18.606 8.211h.142c.768-3.237 2.044-6.654 3.417-10.336l.531-1.428c.685-1.84 1.486-3.621 2.335-5.507 4.144-9.208 9.304-20.669 3.362-48.145-1.176-5.442-4.03-8.591-8.719-9.63-9.632-2.127-23.987 5.118-27.003 7.986m20.043-1.409c-.166 1.174 2.15 4.308 5.172 4.727 3.016.422 5.597-2.03 5.761-3.203.165-1.174-2.15-2.469-5.172-2.89-3.02-.42-5.6.192-5.76 1.366m5.865 5.882-.847-.059c-1.873-.26-3.767-1.44-5.064-3.159-.455-.603-1.198-1.773-1.05-2.818.21-1.532 2.079-2.45 4.995-2.45.651 0 1.33.048 2.012.144 1.594.22 3.074.68 4.167 1.29 1.894 1.058 2.033 2.238 1.948 2.848-.233 1.692-2.924 4.204-6.161 4.204m-4.764-5.686c.094.724 1.888 3.113 4.223 3.436l.543.037c2.157 0 3.768-1.696 3.957-2.252-.2-.378-1.586-1.32-4.215-1.685a12 12 0 0 0-1.708-.123c-1.69 0-2.587.38-2.8.587m90.755-2.591c.165 1.173-2.15 4.308-5.17 4.728-3.017.42-5.6-2.03-5.767-3.203-.158-1.174 2.156-2.47 5.174-2.889 3.018-.422 5.597.192 5.763 1.364m-5.867 5.328c-2.905 0-5.413-2.26-5.619-3.728-.24-1.76 2.66-3.1 5.644-3.513a14 14 0 0 1 1.936-.138c2.576 0 4.283.756 4.454 1.975.11.79-.496 2.007-1.538 3.106-.689.722-2.136 1.973-4.107 2.246zm1.963-6.271c-.575 0-1.174.043-1.782.127-2.999.418-4.789 1.62-4.701 2.266.1.71 2.014 2.772 4.522 2.772l.618-.043c1.638-.227 2.868-1.297 3.455-1.913.922-.968 1.289-1.88 1.245-2.19-.058-.412-1.165-1.02-3.357-1.02m8.252 68.356a3.317 3.317 0 0 1-2.755-5.168c7.072-10.563 5.777-21.333 4.526-31.75-.534-4.438-1.084-9.027-.942-13.43.145-4.532.722-8.27 1.278-11.885.659-4.283 1.284-8.33 1.026-13.133a3.33 3.33 0 0 1 .844-2.397 3.32 3.32 0 0 1 5.787 2.039c.295 5.49-.41 10.07-1.093 14.5-.527 3.42-1.072 6.956-1.203 11.087-.127 3.901.37 8.042.897 12.426 1.332 11.076 2.841 23.631-5.601 36.237a3.32 3.32 0 0 1-2.764 1.474"/>
  </g>
  <defs>
    <clipPath id="a">
      <path fill="#ebebeb" d="M0 0h248.715v256H0z"/>
    </clipPath>
  </defs>
</svg>
