<svg xmlns="http://www.w3.org/2000/svg" width="256" height="256" fill="none" viewBox="0 0 256 256">
  <path fill="#fd226c" d="M205.962 122.326a78.17 78.17 0 0 0-59.659-70.32l-5.857 24.317a53.15 53.15 0 0 1 40.568 47.819z"/>
  <path fill="#d9d9d9" d="M59.603 128A68.395 68.395 0 0 0 128 196.397v-21.252a47.13 47.13 0 0 1-33.336-13.808A47.15 47.15 0 0 1 80.855 128z"/>
  <path fill="#fd226c" d="M255.655 118.607A128 128 0 0 0 154.93 2.865l-5.386 25.027a102.4 102.4 0 0 1 80.58 92.594z"/>
  <path fill="#9020ff" d="M.244 135.899a128 128 0 0 0 105.281 118.112l4.495-25.202a102.4 102.4 0 0 1-84.225-94.49z"/>
  <path fill="#9020ff" d="M50.402 137.425a78.17 78.17 0 0 0 63.003 67.368l4.67-24.574a53.15 53.15 0 0 1-42.841-45.81z"/>
  <circle cx="128" cy="128" r="22.473" fill="#ebebeb"/>
  <path fill="#ebebeb" d="M196.397 128A68.393 68.393 0 0 0 128 59.603V81.49A46.513 46.513 0 0 1 174.51 128z"/>
  <path fill="#ebebeb" d="M245.252 128a117.26 117.26 0 0 0-34.342-82.91A117.25 117.25 0 0 0 128 10.748v23.45A93.8 93.8 0 0 1 221.801 128zm-234.504 0a117.25 117.25 0 0 0 34.342 82.91A117.26 117.26 0 0 0 128 245.252v-23.45A93.8 93.8 0 0 1 34.199 128z"/>
  <path fill="#ebebeb" d="M59.603 128A68.395 68.395 0 0 0 128 196.397V174.51a46.52 46.52 0 0 1-32.887-13.622A46.52 46.52 0 0 1 81.49 128z"/>
</svg>
