<svg xmlns="http://www.w3.org/2000/svg" width="255" height="256" fill="none" viewBox="0 0 255 256"><g clip-path="url(#a)"><circle cx="94.432" cy="31.5" r="13.5" fill="#ebebeb"/><circle cx="162.432" cy="223.5" r="13.5" fill="#ebebeb"/><path fill="url(#b)" d="M126.821.901c-10.395.049-20.322.934-29.056 2.478C72.033 7.921 67.36 17.426 67.36 34.955v23.15h60.807v7.717H44.541c-17.672 0-33.147 10.61-37.987 30.796-5.583 23.138-5.83 37.576 0 61.735 4.323 17.983 14.645 30.796 32.317 30.796h20.907v-27.752c0-20.049 17.365-37.734 37.987-37.734H158.5c16.906 0 30.403-13.906 30.403-30.868v-57.84c0-16.462-13.902-28.828-30.403-31.576-10.446-1.737-21.285-2.526-31.68-2.478m-32.883 18.62c6.28 0 11.41 5.208 11.41 11.61 0 6.381-5.13 11.54-11.41 11.54-6.304 0-11.41-5.159-11.41-11.54 0-6.402 5.106-11.61 11.41-11.61"/><path fill="url(#c)" d="M196.487 65.822v26.974c0 20.912-17.748 38.513-37.987 38.513H97.764c-16.636 0-30.403 14.224-30.403 30.867v57.841c0 16.462 14.33 26.144 30.403 30.867 19.248 5.654 37.706 6.676 60.736 0 15.309-4.427 30.404-13.338 30.404-30.867v-23.15h-60.736v-7.717h91.139c17.672 0 24.258-12.314 30.404-30.797 6.348-19.027 6.078-37.325 0-61.734-4.368-17.575-12.709-30.797-30.404-30.797zM162.327 212.3c6.304 0 11.411 5.16 11.411 11.54 0 6.403-5.107 11.611-11.411 11.611-6.281 0-11.41-5.208-11.41-11.611 0-6.38 5.129-11.54 11.41-11.54"/></g><defs><linearGradient id="b" x1="2.273" x2="142.364" y1=".899" y2="120.401" gradientUnits="userSpaceOnUse"><stop stop-color="#5a9fd4"/><stop offset="1" stop-color="#306998"/></linearGradient><linearGradient id="c" x1="160.866" x2="110.632" y1="221.894" y2="151.427" gradientUnits="userSpaceOnUse"><stop stop-color="#ffd43b"/><stop offset="1" stop-color="#ffe873"/></linearGradient><clipPath id="a"><path fill="#ebebeb" d="M.932 0h254v256h-254z"/></clipPath></defs></svg>
