<svg xmlns="http://www.w3.org/2000/svg" width="169" height="256" fill="none" viewBox="0 0 169 256">
  <g clip-path="url(#a)">
    <path fill="#7cba3d" d="M167.154 153.048c-4.748-23.733-19.232-43.952-39.124-56.296l-.008-.004-.022-.013-.02-.013-.012-.008a87 87 0 0 0-5.657-3.214L69.014 66.785l-2.865-1.437a30 30 0 0 1-.535-.265l-.034-.017-.003-.001-.03-.016-.005-.003-.03-.014-.007-.004-.026-.013-.01-.005-.021-.011-.014-.007-.015-.008-.024-.013a36.8 36.8 0 0 1-13.72-12.204 36.46 36.46 0 0 1-6.2-20.399c0-14.032 7.893-26.219 19.48-32.368l-17.2 8.79C19.44 22.92 0 52.165 0 85.956l1.277 14.825v-.003l.066.022-.065-.019c4.639 26.766 21.617 49.3 44.873 61.519l.003.001.03.016.006.003.029.016.042.023.089.046.01.006.023.012.016.009.021.011.017.009.02.01.021.012.015.008.038.02 5.344 2.679-.018-.047.02.047h-.002v.001l6.36 3.186 44.457 22.285c12.234 5.931 20.676 18.466 20.676 32.975v.084l-.001.036v.132l-.001.033v.136l-.001.017v.046l-.001.02v.094c-.151 9.45-3.883 18.031-9.898 24.445a36.7 36.7 0 0 1-9.581 7.328l11.047-5.642 6.157-3.143c28.311-14.133 47.754-43.382 47.754-77.174l-1.688-16.993"/>
    <path fill="#c5d83e" d="M0 85.956C0 52.167 19.44 22.919 47.754 8.789L64.957 0C53.369 6.15 45.474 18.337 45.474 32.368c0 7.552 2.285 14.57 6.201 20.4-5.828 14.588-9.22 29.557-10.363 44.453a54.1 54.1 0 0 1-26.98 5.756 54.5 54.5 0 0 1-13.055-2.196zm123.366 138.03v-.02z"/>
    <path fill="url(#b)" d="m51.876 165.182-5.345-2.68-.038-.02-.015-.007-.022-.012-.02-.011-.016-.009-.02-.01-.017-.009-.022-.012-.011-.006-.089-.047-.034-.017-.008-.006-.028-.015-.007-.003-.03-.016-.003-.001c-23.256-12.22-40.235-34.755-44.874-61.523a54.6 54.6 0 0 0 13.056 2.197q1.274.059 2.534.059a54.1 54.1 0 0 0 24.445-5.817c-1.796 23.432 1.97 46.679 10.564 67.965"/>
    <path fill="url(#c)" d="m69.014 66.784-2.865-1.436a29 29 0 0 1-.535-.264l-.034-.018h-.003l-.03-.017-.005-.002-.03-.015-.006-.004-.027-.013-.01-.005-.02-.011-.015-.007-.015-.008-.024-.012a36.8 36.8 0 0 1-13.72-12.204c-5.828 14.588-9.22 29.557-10.363 44.453A54.65 54.65 0 0 0 64.67 74.54zm98.14 86.264c-20.281 13.416-44.537 21.192-70.448 21.192q-2.962 0-5.947-.137a128.3 128.3 0 0 1-32.524-5.734l44.457 22.284c12.234 5.932 20.675 18.466 20.675 32.976v.252l-.001.033v.135l-.002.018v.079l-.001.075v.006c-.15 9.45-3.882 18.031-9.897 24.444a36.7 36.7 0 0 1-9.581 7.329l11.047-5.642 6.157-3.143c28.311-14.134 47.754-43.382 47.754-77.174z"/>
    <path fill="url(#d)" d="M96.707 174.24q-2.961 0-5.948-.137a128.3 128.3 0 0 1-32.523-5.734l-6.36-3.186c-8.594-21.286-12.36-44.533-10.564-67.962a54.65 54.65 0 0 0 23.357-22.679l4.344-7.756L122.311 93.5q2.888 1.5 5.657 3.213l.012.008.02.014.022.013.008.004c19.892 12.343 34.377 32.562 39.124 56.296-20.281 13.415-44.535 21.191-70.448 21.191"/>
  </g>
  <defs>
    <linearGradient id="b" x1="10.199" x2="-4.79" y1="112.364" y2="147.443" gradientUnits="userSpaceOnUse">
      <stop stop-color="#aace36"/>
      <stop offset="1" stop-color="#2fa042"/>
    </linearGradient>
    <linearGradient id="c" x1="41.313" x2="170.594" y1="114.372" y2="126.634" gradientUnits="userSpaceOnUse">
      <stop stop-color="#79a933"/>
      <stop offset=".13" stop-color="#70a333"/>
      <stop offset=".34" stop-color="#559332"/>
      <stop offset=".58" stop-color="#277b2f"/>
      <stop offset=".86" stop-color="#005f27"/>
      <stop offset="1" stop-color="#005020"/>
    </linearGradient>
    <linearGradient id="d" x1="58.297" x2="107.425" y1="66.785" y2="180.665" gradientUnits="userSpaceOnUse">
      <stop stop-color="#79ab35"/>
      <stop offset=".53" stop-color="#7cba3d"/>
      <stop offset="1" stop-color="#00aa4b"/>
    </linearGradient>
    <clipPath id="a">
      <path fill="#ebebeb" d="M0 0h169v256H0z"/>
    </clipPath>
  </defs>
</svg>
