<svg width="228" height="256" viewBox="0 0 228 256" fill="none"
  xmlns="http://www.w3.org/2000/svg">
  <g clip-path="url(#clip0_20_1012)">
    <path d="M113.904 0.0566406L226.897 63.9728V191.847L113.904 255.763L0.9104 191.847V63.9728L113.904 0.0566406Z" fill="#EBEBEB"/>
    <path d="M206.728 187.412L117.656 237.852V198.625L173.172 168.054L206.728 187.412ZM212.825 181.911V76.508L180.25 95.3108V163.107L212.825 181.911ZM20.7371 187.411L109.81 237.811V198.583L54.2943 168.054L20.7371 187.412V187.411ZM14.6399 181.911V76.508L47.2163 95.3108V163.107L14.6399 181.911ZM18.4358 69.6861L109.81 18.0067V55.9565L51.2673 88.1481L50.7977 88.4041L18.4358 69.6861ZM208.988 69.6861L117.656 18.0059V55.9557L176.156 88.1896L176.625 88.4456L208.988 69.6843V69.6861Z" fill="#8ED6FB"/>
    <path d="M109.81 189.673L55.0615 159.526V99.8749L109.81 131.471V189.673ZM117.656 189.673L172.405 159.57V99.8749L117.656 131.471V189.673ZM58.7284 92.9673L113.733 62.7363L168.694 92.9673L113.733 124.691L58.7284 92.9673Z" fill="#1C78C0"/>
  </g>
  <defs>
    <clipPath id="clip0_20_1012">
      <rect width="226.869" height="256" fill="#EBEBEB" transform="translate(0.475342 -0.00488281)"/>
    </clipPath>
  </defs>
</svg>
