<svg xmlns="http://www.w3.org/2000/svg" width="260" height="256" fill="none" viewBox="0 0 260 256">
  <path fill="#ff4438" d="M258.302 128c0 70.656-57.242 128-128 128-14.336 0-28.16-2.355-40.96-6.758h-.205a130 130 0 0 1-19.66-8.602c-.41-.205-.922-.512-1.434-.819-16.18-9.011-30.208-21.402-41.063-36.25-6.246-8.601-11.57-17.92-15.564-27.955C5.579 160.87 2.302 144.794 2.302 128c0-70.656 57.344-128 128-128s128 57.344 128 128"/>
  <path fill="#ebebeb" d="M198.915 134.929c-10.642 12.495-22.095 26.92-45.116 26.92-20.476 0-28.111-17.039-28.69-30.782 4.512 8.86 13.304 16.129 26.955 15.788 26.375-.794 44.422-23.171 44.422-43.502 0-24.307-19.319-41.913-52.867-41.913-24.062 0-53.793 8.633-73.343 22.15-.231 13.97 8.098 32.143 11.106 30.099 16.89-11.358 30.309-18.741 43.381-22.49-19.32 20.218-65.592 67.128-71.26 75.42.578 7.61 10.641 27.941 15.5 27.941 1.505 0 2.778-.794 4.28-2.157 13.883-14.766 25.335-27.942 35.399-40.663 1.505 18.627 11.222 41.457 38.523 41.457 24.409 0 48.703-16.583 59.692-53.952 1.389-4.544-4.626-8.178-7.982-4.316m-27.879-30.213c0 11.813-12.378 17.605-23.599 17.605-6.016 0-10.643-1.476-14.346-3.408 6.826-9.54 13.42-19.422 20.592-29.872 12.61 1.932 17.353 8.519 17.353 15.675"/>
</svg>
