<svg xmlns="http://www.w3.org/2000/svg" width="256" height="256" fill="none" viewBox="0 0 256 256"><g clip-path="url(#a)"><path fill="#639" d="M0 0h215.04A40.96 40.96 0 0 1 256 40.96v174.08A40.957 40.957 0 0 1 215.04 256H40.96A40.96 40.96 0 0 1 0 215.04z"/><path fill="#ebebeb" d="M209.034 235.495c-8.292 0-14.633-2.412-19.072-7.258-4.39-4.871-6.676-11.822-6.881-20.899h17.869c.102 8.028 2.923 12.052 8.468 12.052 2.826 0 4.828-.896 5.983-2.667 1.129-1.767 1.72-4.591 1.72-8.461 0-3.077-.77-5.643-2.26-7.667a18.74 18.74 0 0 0-7.547-5.412l-6.623-3.182c-5.903-2.822-10.191-6.155-12.836-10.054-2.567-3.873-3.85-9.308-3.85-16.256 0-7.772 2.261-14.08 6.751-18.928 4.621-4.846 10.911-7.255 18.944-7.255 7.757 0 13.762 2.383 17.997 7.127 4.313 4.772 6.571 11.592 6.753 20.516h-17.201a18.5 18.5 0 0 0-1.72-8.464q-1.461-2.92-5.699-2.921c-5.03 0-7.546 2.998-7.546 8.973 0 3.029.614 5.386 1.848 7.181a16.7 16.7 0 0 0 6.495 4.465l6.341 2.795c6.546 3 11.269 6.669 14.169 11.105 2.926 4.411 4.365 10.31 4.365 17.695 0 8.847-2.312 15.642-7.009 20.385-4.672 4.744-11.169 7.13-19.459 7.13m-57.707 0c-8.295 0-14.633-2.412-19.075-7.258-4.39-4.871-6.674-11.822-6.879-20.899h17.867c.102 8.028 2.926 12.052 8.473 12.052 2.821 0 4.823-.896 5.952-2.667 1.157-1.767 1.721-4.591 1.721-8.461 0-3.077-.743-5.643-2.233-7.667a18.7 18.7 0 0 0-7.547-5.412l-6.622-3.182c-5.906-2.822-10.192-6.155-12.836-10.054-2.568-3.873-3.85-9.308-3.85-16.256 0-7.772 2.258-14.08 6.75-18.928 4.621-4.846 10.911-7.255 18.944-7.255 7.755 0 13.76 2.383 17.972 7.127 4.364 4.772 6.597 11.592 6.776 20.516h-17.198a18.5 18.5 0 0 0-1.721-8.464q-1.462-2.92-5.698-2.921c-5.033 0-7.55 2.998-7.55 8.973 0 3.029.617 5.386 1.849 7.181a16.7 16.7 0 0 0 6.494 4.465l6.342 2.795c6.546 3 11.269 6.669 14.172 11.105 2.9 4.411 4.362 10.31 4.362 17.695q0 13.27-7.007 20.385c-4.672 4.744-11.166 7.13-19.458 7.13m-60.096 0q-12.17 0-19.33-6.618c-4.775-4.382-7.138-10.974-7.138-19.694v-43.082c0-8.666 2.516-15.232 7.547-19.745 5.11-4.462 11.809-6.718 20.1-6.718 8.037 0 14.375 2.307 19.073 6.871 4.751 4.59 7.137 11.413 7.137 20.516v3.41H99.702v-3.307c0-3.513-.77-6.103-2.26-7.796a6.77 6.77 0 0 0-5.546-2.641c-3.08 0-5.26 1.049-6.494 3.179a20.2 20.2 0 0 0-1.72 9.385v37.443c0 7.82 2.749 11.796 8.217 11.873 2.565 0 4.49-.924 5.826-2.77a13.25 13.25 0 0 0 1.977-7.798v-2.793h18.918v2.924c0 6.077-1.18 11.154-3.568 15.206a22.74 22.74 0 0 1-9.78 9.129 31.1 31.1 0 0 1-14.041 3.026"/></g><defs><clipPath id="a"><path fill="#ebebeb" d="M0 0h256v256H0z"/></clipPath></defs></svg>
