<svg xmlns="http://www.w3.org/2000/svg" width="257" height="285" fill="none" viewBox="0 0 257 285">
  <g clip-path="url(#a)">
    <path fill="#430098" d="M231.31 0c13.996 0 25.371 11.232 25.597 25.177l.003.423v233.244c0 13.996-11.235 25.371-25.177 25.597l-.423.003H26.51c-13.995 0-25.37-11.235-25.596-25.176l-.004-.424V25.6C.91 11.601 12.145.23 26.087.003L26.51 0zm0 14.222H26.51c-6.174 0-11.218 4.948-11.374 11.085l-.004.293v233.244c0 6.174 4.948 11.218 11.085 11.375l.293.003h204.8c6.178 0 11.218-4.947 11.374-11.084l.004-.294V25.6c0-6.272-5.102-11.378-11.378-11.378M64.91 184.89l32 28.444-32 28.445zM93.355 42.667v80.75c14.2-4.622 34.051-9.639 53.333-9.639 17.582 0 28.107 6.912 33.838 12.711 12.109 12.249 12.397 27.82 12.381 29.897v.058l.003 85.334h-28.444v-84.942c-.139-6.639-3.339-14.614-17.778-14.614-28.632 0-60.713 14.257-61.666 14.683l-.02.009-20.092 9.102V42.666zm99.555 0c-1.92 16.156-8.469 31.644-21.333 46.222h-28.445c11.179-14.667 18.198-30.101 21.334-46.222z"/>
  </g>
  <defs>
    <clipPath id="a">
      <path fill="#ebebeb" d="M.91 0h256v285H.91z"/>
    </clipPath>
  </defs>
</svg>
