<svg width="256" height="256" viewBox="0 0 256 256" fill="none" xmlns="http://www.w3.org/2000/svg">
<g clip-path="url(#clip0_16_43)">
<rect width="256" height="256" fill="#F8DC3D"/>
<path d="M0 0H256V256H0" fill="#F7DF1E"/>
<path d="M171.5 200C177.167 209.667 184.667 214.5 194 214.5C205.667 214.5 211.5 210 211.5 201C211.5 195.5 204 190.5 192 185.5C169.667 178.167 158.667 165.667 159 148C159 130 172.5 116 194 116C210 116 221.333 122.5 228 135.5L209.5 147.5C205.5 140.167 200.333 136.667 194 137C186.667 137.333 182.833 140.833 182.5 147.5C182.5 154.5 187 157.5 202 164C223.5 172.5 235.5 182 235.5 202.5C234.5 224.167 221.333 235.333 196 236C175 236 160.167 227.833 151.5 211.5L171.5 200ZM86.5 202C90.5 208.5 93 214.5 103 214.5C111 214.5 115 209.5 115 199.5V116.5H139V198.5C138.667 222.167 126.667 234.167 103 234.5C85.3333 234.167 73.3333 226.833 67 212.5L86.5 202Z" fill="black"/>
</g>
<defs>
<clipPath id="clip0_16_43">
<rect width="256" height="256" fill="white"/>
</clipPath>
</defs>
</svg>
