<svg width="256" height="256" viewBox="0 0 256 256" fill="none" xmlns="http://www.w3.org/2000/svg">
<g clip-path="url(#clip0_17_93)">
<path d="M196 0H60C26.8629 0 0 26.8629 0 60V196C0 229.137 26.8629 256 60 256H196C229.137 256 256 229.137 256 196V60C256 26.8629 229.137 0 196 0Z" fill="#F05138"/>
<path d="M202.677 158.04C202.918 157.074 203.159 156.109 203.401 155.144C214.017 112.92 188.2 62.7335 144.287 36.4338C163.589 62.4922 172.034 94.1001 164.554 121.606C163.83 124.019 163.106 126.432 162.141 128.845C161.176 128.121 159.97 127.397 158.281 126.673C158.281 126.673 114.609 99.6496 67.3177 52.1171C66.1113 50.9107 92.6523 89.9983 122.571 121.606C108.336 113.644 69.0067 84.9315 43.9134 62.251C47.05 67.3179 50.6693 72.3848 54.5298 76.9691C75.28 103.51 102.545 136.083 135.118 161.176C112.196 175.171 79.8644 176.377 47.7739 161.176C39.8116 157.557 32.3319 152.973 25.3347 147.906C38.8465 169.621 59.838 188.441 85.4138 199.54C115.815 212.569 146.217 211.846 168.656 199.781C168.656 199.781 168.897 199.781 168.897 199.54C169.862 199.058 170.828 198.334 171.793 197.851C182.65 192.302 203.883 186.752 215.465 208.95C218.843 214.017 224.875 185.063 202.677 158.04Z" fill="white"/>
</g>
<defs>
<clipPath id="clip0_17_93">
<rect width="256" height="256" fill="white"/>
</clipPath>
</defs>
</svg>
