<svg xmlns="http://www.w3.org/2000/svg" width="257" height="257" fill="none" viewBox="0 0 257 257">
  <g clip-path="url(#a)">
    <path fill="#0080ff" d="M128.911 207.05v49.448c83.812 0 149.068-80.968 121.652-168.793-11.981-38.38-42.478-68.877-80.858-80.858C81.88-20.569.91 44.69.91 128.501h49.561c.008 0 .014-.014.014-.014.007-52.597 52.06-93.262 107.359-73.196 20.487 7.435 36.829 23.773 44.268 44.259 20.069 55.266-20.535 107.299-73.088 107.374v-49.288l-.008-.003h-49.41c-.004 0-.008.007-.008.007v49.41zm-49.322 37.977H41.626l-.009-.009V207.05h37.98v37.968s-.003.009-.008.009M41.643 207.05H9.818c-.013 0-.023-.008-.023-.008v-31.811s.01-.023.023-.023H41.62c.013 0 .023.01.023.01z"/>
  </g>
  <defs>
    <clipPath id="a">
      <path fill="#ebebeb" d="M.91.5h256v256H.91z"/>
    </clipPath>
  </defs>
</svg>
