<svg width="256" height="256" viewBox="0 0 256 256" fill="none"
  xmlns="http://www.w3.org/2000/svg">
  <path d="M128.513 0.914551C162.197 0.914551 194.502 14.2957 218.321 38.1143C242.139 61.9328 255.52 94.2377 255.52 127.922C255.52 161.607 242.139 193.912 218.321 217.73C194.502 241.549 162.197 254.93 128.513 254.93C94.828 254.93 62.5231 241.549 38.7046 217.73C14.886 193.912 1.50485 161.607 1.50485 127.922C1.50485 94.2377 14.886 61.9328 38.7046 38.1143C62.5231 14.2957 94.828 0.914551 128.513 0.914551Z" fill="black"/>
  <path d="M72.0021 51.4201L72.8356 69.9949L70.5733 69.1614C71.4465 62.4142 73.7088 57.5323 77.3602 54.5159C81.0117 51.4994 85.6554 49.9912 91.2914 49.9912C98.1181 49.9912 103.437 52.1345 107.247 56.421C111.136 60.7075 113.081 66.5419 113.081 73.9242V114.527H95.1016V79.8777C95.1016 76.2263 94.7841 73.2892 94.1491 71.0666C93.5934 68.8439 92.6012 67.177 91.1723 66.0656C89.7435 64.8749 87.8384 64.2796 85.457 64.2796C81.6468 64.2796 78.7494 65.5894 76.7649 68.2089C74.8598 70.8284 73.9072 74.718 73.9072 79.8777V114.527H55.8086V51.4201H72.0021ZM186.768 114.527L186.053 96.3093L188.315 97.1428C187.442 103.731 185.18 108.534 181.528 111.55C177.877 114.487 173.313 115.956 167.835 115.956C161.088 115.956 155.809 113.813 151.999 109.526C148.189 105.24 146.284 99.4052 146.284 92.0228V51.4201H164.382V86.0694C164.382 89.7208 164.66 92.6579 165.216 94.8805C165.772 97.1031 166.724 98.8098 168.074 100.001C169.502 101.112 171.408 101.667 173.789 101.667C177.44 101.667 180.219 100.358 182.124 97.7382C184.108 95.1187 185.101 91.229 185.101 86.0694V51.4201H203.08V114.527H186.768ZM114.198 140.722V221.69H96.0998V190.732L97.6478 191.684C96.6158 194.621 95.1473 197.122 93.2422 199.186C91.3371 201.17 89.0747 202.678 86.4552 203.71C83.8357 204.742 80.9383 205.258 77.7631 205.258C72.0477 205.258 67.1262 203.829 62.9984 200.972C58.9501 198.035 55.894 194.105 53.8301 189.184C51.8456 184.183 50.8533 178.547 50.8533 172.276C50.8533 166.005 51.8456 160.409 53.8301 155.487C55.894 150.486 58.9501 146.557 62.9984 143.699C67.1262 140.762 72.0477 139.294 77.7631 139.294C82.6846 139.294 86.8521 140.445 90.2654 142.747C93.6788 145.049 96.1792 148.383 97.7668 152.748L96.4571 153.82L96.9333 140.722H114.198ZM95.7426 182.04C96.7746 179.103 97.2905 175.848 97.2905 172.276C97.2905 168.783 96.7746 165.608 95.7426 162.75C94.7107 159.813 93.1231 157.472 90.9798 155.725C88.916 153.899 86.3758 152.987 83.3594 152.987C78.8347 152.987 75.342 154.852 72.8812 158.583C70.4998 162.234 69.3091 166.799 69.3091 172.276C69.3091 177.832 70.4998 182.436 72.8812 186.088C75.342 189.739 78.8347 191.565 83.3594 191.565C86.3758 191.565 88.916 190.692 90.9798 188.946C93.1231 187.199 94.7107 184.897 95.7426 182.04ZM187.514 161.202C187.037 158.345 185.688 156.082 183.465 154.415C181.322 152.669 178.861 151.796 176.083 151.796C173.305 151.796 171.042 152.471 169.296 153.82C167.55 155.17 166.716 156.956 166.796 159.178C166.875 161.321 167.947 162.988 170.01 164.179C172.074 165.29 174.853 166.164 178.345 166.799C184.854 167.831 190.094 169.14 194.063 170.728C198.032 172.236 201.008 174.26 202.993 176.801C205.057 179.341 206.089 182.595 206.089 186.564C206.089 190.692 204.858 194.145 202.397 196.923C200.016 199.702 196.722 201.805 192.515 203.234C188.307 204.583 183.465 205.258 177.988 205.258C171.876 205.258 166.518 204.425 161.914 202.758C157.389 201.011 153.817 198.551 151.197 195.375C148.578 192.121 147.109 188.271 146.792 183.826L164.89 182.873C165.287 184.937 166.002 186.723 167.034 188.231C168.145 189.66 169.574 190.771 171.32 191.565C173.146 192.28 175.249 192.637 177.631 192.637C180.33 192.637 182.672 192.121 184.656 191.089C186.64 189.978 187.633 188.35 187.633 186.207C187.553 184.778 187.077 183.587 186.204 182.635C185.41 181.682 184.338 180.968 182.989 180.492C181.719 180.015 179.973 179.539 177.75 179.063C177.115 178.983 176.321 178.825 175.369 178.587C168.939 177.316 163.819 175.967 160.009 174.538C156.278 173.03 153.38 171.085 151.316 168.704C149.253 166.243 148.221 163.107 148.221 159.297C148.221 155.17 149.332 151.597 151.555 148.581C153.857 145.565 157.151 143.263 161.437 141.675C165.724 140.008 170.844 139.174 176.797 139.174C184.735 139.174 191.245 141.08 196.325 144.89C201.405 148.621 204.501 153.82 205.612 160.488L187.514 161.202Z" fill="#EBEBEB"/>
</svg>
