<svg xmlns="http://www.w3.org/2000/svg" width="256" height="90" fill="none" viewBox="0 0 256 90"><g clip-path="url(#a)"><path fill="#ebebeb312" d="M96.759 0 46.127 90H0l39.535-70.275C45.664 8.83 60.958 0 73.695 0zm113.115 22.5c0-12.426 10.325-22.5 23.063-22.5S256 10.074 256 22.5 245.674 45 232.937 45c-12.738 0-23.063-10.074-23.063-22.5M105.407 0h46.127l-50.632 90H54.775zm54.479 0h46.127l-39.536 70.275C160.349 81.17 145.055 90 132.318 90h-23.064z"/></g><defs><clipPath id="a"><path fill="#ebebeb" d="M0 0h256v90H0z"/></clipPath></defs></svg>
