<svg width="258" height="158" viewBox="0 0 258 158" fill="none" xmlns="http://www.w3.org/2000/svg">
<g clip-path="url(#clip0_17_39)">
<path d="M215.185 49.41C214.765 40.645 215.955 32.8599 211.96 26.2699C202.355 9.85995 178.37 0.324951 130.475 0.324951C82.5099 0.324951 57.3349 9.92995 47.7999 26.48C44.0149 33.28 44.4349 40.855 43.8049 49.62C43.3849 56.63 40.2299 63.9949 41.6299 71.9899C43.2449 82.3699 43.8049 92.7449 45.4149 102.355C46.6049 110.14 57.4049 116.73 58.3899 124.165C61.1949 144.57 82.3749 153.9 130.34 153.9V155.515H129.15H129.36H130.55V153.9C178.515 153.9 198.85 144.505 201.445 124.165C202.425 116.59 212.455 110.21 213.645 102.355C215.26 92.75 215.82 82.3699 217.43 71.9899C218.83 63.9999 215.605 56.425 215.185 49.41Z" fill="#EFCCA3"/>
<path d="M129.7 56.6348C138.255 56.8448 144.285 62.2448 149.895 67.2248C156.485 73.0448 167.705 77.0398 172.265 82.0198C176.895 86.9998 182.855 91.9798 185.03 99.8298C187.205 107.615 187.835 117.64 187.835 120.235C187.835 122.83 189.235 122.2 193.235 120.235C202.63 115.605 213.01 103.265 213.01 103.265C211.82 111.05 201.65 118.06 200.6 125.425C198.215 145.83 178.44 155.58 129.495 155.58H129.285H130.475" fill="#CCAC8D"/>
<path d="M161.255 40.9952C163.08 47.1652 169.46 68.1352 157.05 61.1902C157.05 61.1902 162.24 64.2052 165.465 75.5652C168.83 86.9252 177.035 88.3302 177.035 88.3302C177.035 88.3302 190.43 90.9252 200.385 82.3702C208.8 75.1452 210.2 62.3852 206.555 52.6352C202.98 43.0302 196.595 40.0852 187.2 38.0502C177.875 35.8102 159.085 34.0552 161.255 40.9952Z" fill="#CCAC8D"/>
<path d="M185.03 81.3851C194.75 81.3851 202.63 73.5053 202.63 63.7851C202.63 54.0649 194.75 46.1851 185.03 46.1851C175.31 46.1851 167.43 54.0649 167.43 63.7851C167.43 73.5053 175.31 81.3851 185.03 81.3851Z" fill="black"/>
<path d="M180.47 60.635C183.027 60.635 185.1 58.5621 185.1 56.005C185.1 53.4479 183.027 51.375 180.47 51.375C177.913 51.375 175.84 53.4479 175.84 56.005C175.84 58.5621 177.913 60.635 180.47 60.635Z" fill="white"/>
<path d="M158.24 63.0151C158.24 63.0151 174.02 73.8151 182.645 84.4051C191.2 94.9951 191.06 96.9551 191.06 96.9551L184.89 99.7601C184.89 99.7601 176.125 83.2101 165.325 76.9701C154.315 70.8001 153.125 65.6101 153.125 65.6101L158.24 63.0151Z" fill="#EFCCA3"/>
<path d="M130.33 56.6348C121.775 56.8448 115.325 62.2448 109.575 67.2248C102.985 73.0448 91.4151 77.0398 86.7851 82.0198C82.1551 86.9998 75.9851 91.9798 73.8101 99.8298C71.6351 107.615 70.7951 117.64 70.7951 120.235C70.7951 122.83 71.2151 123.04 65.3951 120.235C56.0001 115.815 45.6201 103.265 45.6201 103.265C46.8101 111.05 56.9801 118.06 58.0301 125.425C60.8351 145.83 80.6101 155.58 129.555 155.58H129.765H130.535" fill="#CCAC8D"/>
<path d="M176.615 90.3652C167.01 78.5852 151.65 67.5752 130.265 67.5752H130.055C108.665 67.5752 93.3099 78.5852 83.7049 90.3652C73.7449 102.565 74.5199 107.335 74.5199 118.905C74.5199 160.84 89.3149 148.85 99.0649 154.035C109.025 159.015 119.47 157.4 130.06 157.4H130.27C141.07 157.4 151.235 158.8 161.265 153.825C171.08 148.845 185.81 161.19 185.81 119.255C186.01 107.755 186.64 102.565 176.615 90.3652Z" fill="#56332B"/>
<path d="M129.28 77.9551C129.28 77.9551 127.88 97.3101 125.075 101.095L130.265 99.9051L129.28 77.9551Z" fill="#442823"/>
<path d="M130.685 77.9551C130.685 77.9551 132.085 97.3101 134.89 101.095L129.7 99.9051L130.685 77.9551Z" fill="#442823"/>
<path d="M113.925 73.3948C111.96 68.7648 119.115 61.4048 130.475 61.1948C141.835 61.1948 149.06 68.5598 147.025 73.3948C145.06 78.1648 137.84 79.5648 130.475 79.7748C123.32 79.5648 115.885 78.1648 113.925 73.3948Z" fill="#56332B"/>
<path d="M130.475 77.9551C130.475 77.1851 137.275 76.9751 140.855 74.5901C140.855 74.5901 133.49 76.9751 131.88 75.9901C130.265 75.2201 129.915 72.7651 129.915 72.7651C129.915 72.7651 129.285 75.1501 128.09 75.9901C126.69 76.7601 118.275 74.5901 118.275 74.5901C118.275 74.5901 129.495 77.3951 129.495 77.9551C129.495 78.5851 129.285 80.5501 129.285 81.9501C129.285 86.9301 129.285 99.3401 130.055 100.325C131.245 102.15 130.825 86.9301 130.825 81.9501C130.685 80.4051 130.685 78.7951 130.475 77.9551Z" fill="black"/>
<path d="M130.895 104.74C134.26 104.74 140.29 107.125 145.69 110.91C140.5 105.09 134.33 101.095 130.895 101.095C127.32 101.095 119.675 105.515 114.345 111.895C119.885 107.545 127.105 104.74 130.895 104.74Z" fill="#7F4A41"/>
<path d="M129.49 140.085C121.915 140.085 114.485 137.7 107.68 135.88C106.28 135.46 104.875 136.51 103.475 136.09C90.9249 132.095 80.6849 125.29 74.5149 116.735C74.5149 117.365 74.5149 118.135 74.5149 118.7C74.5149 160.635 89.3099 148.855 99.0599 153.83C109.02 158.81 119.465 157.195 130.055 157.195H130.265C141.065 157.195 151.23 158.595 161.26 153.62C171.075 148.64 185.805 160.845 185.805 118.84C185.805 117.225 185.805 115.615 186.015 114.21C180.195 123.605 169.605 130.97 156.425 135.39C155.235 135.81 152.43 134.76 151.235 134.97C144.075 137.49 137.695 140.085 129.49 140.085Z" fill="#442823"/>
<path d="M110.485 117.575C110.485 117.575 105.505 132.58 108.87 139.175L104.24 137.21C104.315 137.14 107.75 121.92 110.485 117.575Z" fill="#442823"/>
<path d="M150.105 117.575C150.105 117.575 155.085 132.58 151.72 139.175L156.35 137.21C156.28 137.14 152.7 121.92 150.105 117.575Z" fill="#442823"/>
<path d="M97.7251 40.9952C95.9001 47.1652 89.5201 68.1352 101.93 61.1902C101.93 61.1902 96.7401 64.2052 93.5151 75.5652C90.2901 86.9252 81.9451 88.3302 81.9451 88.3302C81.9451 88.3302 68.5501 90.9252 58.5951 82.3702C50.1801 75.1452 48.7801 62.3852 52.4251 52.6352C56.0001 42.8202 62.3851 40.0852 71.7801 38.0502C81.1751 35.8102 99.7601 34.0552 97.7251 40.9952Z" fill="#CCAC8D"/>
<path d="M130.33 101.165C135.73 101.165 152.49 112.735 152.7 126.9C152.7 126.69 152.7 126.48 152.7 126.13C152.7 111.335 139.095 99.5552 130.33 99.5552C121.565 99.5552 107.96 111.545 107.96 126.13C107.96 126.34 107.96 126.55 107.96 126.9C108.105 112.735 124.935 101.165 130.33 101.165Z" fill="black"/>
<path d="M134.649 73.523C135.513 73.3003 135.876 71.8127 135.46 70.2003C135.045 68.588 134.007 67.4614 133.144 67.6841C132.28 67.9069 131.917 69.3945 132.333 71.0068C132.748 72.6192 133.786 73.7457 134.649 73.523Z" fill="#331712"/>
<path d="M126.808 71.074C127.301 69.4836 127.01 67.9801 126.159 67.7159C125.307 67.4516 124.216 68.5266 123.723 70.117C123.229 71.7073 123.52 73.2108 124.372 73.4751C125.224 73.7394 126.314 72.6644 126.808 71.074Z" fill="#331712"/>
<path d="M74.935 81.3851C84.6552 81.3851 92.535 73.5053 92.535 63.7851C92.535 54.0649 84.6552 46.1851 74.935 46.1851C65.2147 46.1851 57.335 54.0649 57.335 63.7851C57.335 73.5053 65.2147 81.3851 74.935 81.3851Z" fill="black"/>
<path d="M79.5599 60.635C82.117 60.635 84.1899 58.5621 84.1899 56.005C84.1899 53.4479 82.117 51.375 79.5599 51.375C77.0029 51.375 74.9299 53.4479 74.9299 56.005C74.9299 58.5621 77.0029 60.635 79.5599 60.635Z" fill="white"/>
<path d="M135.52 64.0001C135.52 63.7901 130.89 65.9651 129.7 66.1751C128.51 65.9651 123.88 63.7901 123.88 64.0001C123.88 64.0001 127.665 64.0001 129.7 64.0001C131.665 64.0001 135.52 64.0001 135.52 64.0001Z" fill="#7F4A41"/>
<path d="M100.53 63.0151C100.53 63.0151 84.7501 73.8151 76.1251 84.4051C67.5701 94.9951 67.7101 96.9551 67.7101 96.9551L73.8801 99.7601C73.8801 99.7601 82.6451 83.2101 93.4451 76.9701C104.245 70.8001 105.645 65.6101 105.645 65.6101L100.53 63.0151Z" fill="#EFCCA3"/>
<path d="M65.9601 31.04C65.9601 31.04 60.5601 45.835 48.5701 52.005C48.5651 52.005 67.3601 49.835 65.9601 31.04Z" fill="#CCAC8D"/>
<path d="M192.04 31.04C192.04 31.04 197.44 45.835 209.43 52.005C209.435 52.005 190.64 49.835 192.04 31.04Z" fill="#CCAC8D"/>
<path d="M157.89 58.6C157.89 58.6 146.11 46.19 130.33 45.835C130.12 45.835 130.75 45.835 130.54 45.835C130.33 45.835 130.75 45.835 130.75 45.835C114.76 46.255 103.19 58.6 103.19 58.6C117.005 48.995 128.785 49.205 130.75 49.205C130.475 49.2 144.075 48.99 157.89 58.6Z" fill="#CCAC8D"/>
<path d="M144.075 32.6502C144.075 32.6502 138.115 24.2352 130.12 24.0952H130.33H130.54C124.58 24.3052 116.725 32.6502 116.725 32.6502C123.525 26.0602 130.54 26.2702 130.54 26.2702C130.54 26.2702 137.065 26.0602 144.075 32.6502Z" fill="#CCAC8D"/>
<path d="M74.935 93.9402C74.935 93.9402 65.5401 98.5702 58.7351 95.7652H58.5251C52.5651 92.4002 49.55 82.1602 49.55 82.1602C49.55 82.1602 55.58 100.18 74.935 93.9402Z" fill="#CCAC8D"/>
<path d="M184.47 93.9402C184.47 93.9402 193.865 98.5702 200.67 95.7652C208.665 92.4002 209.855 82.1602 209.855 82.1602C209.855 82.1602 203.825 100.18 184.47 93.9402Z" fill="#CCAC8D"/>
<path d="M85.7351 30.0602C90.9251 29.0802 99.5501 28.8702 106.28 31.0402C114.835 34.0552 107.895 44.9952 109.645 45.6252C111.47 46.2552 113.85 38.0502 129.84 38.8252C146.04 39.5952 147.79 46.8202 150.035 45.6252C152.21 44.4352 147.86 25.6402 171.985 30.0552C171.985 30.0552 146.6 23.2552 147.79 41.6252C147.79 41.6252 133.205 30.4052 112.8 40.4352C113.15 40.4352 118.34 23.2552 85.7351 30.0602Z" fill="#CCAC8D"/>
<path d="M174.23 30.0601C174.65 30.0601 174.86 30.2701 175 30.2701C175.21 30.2701 174.86 30.0601 174.23 30.0601Z" fill="#CCAC8D"/>
<path d="M78.79 5.44507C78.79 5.44507 57.19 32.5851 54.035 43.0301C50.81 53.6201 48.425 96.9551 45.62 103.125L35.665 60.3501L54.04 15.8201L78.79 5.44507Z" fill="#CCAC8D"/>
<path d="M180.26 5.44507C180.26 5.44507 201.86 32.5851 205.015 43.0301C208.24 53.6201 210.625 96.9551 213.43 103.125L223.39 60.3501L205.015 15.8201L180.26 5.44507Z" fill="#CCAC8D"/>
<path d="M179.21 5.44511C179.21 5.44511 202.35 24.8001 209.155 47.1701C215.955 69.5401 213.15 96.7501 218.34 100.115C225.775 104.955 234.19 76.4151 236.995 73.4001C241.415 68.6301 256 56.4301 256.98 54.2551C257.96 52.0801 227.39 18.7001 214.065 12.1101C197.79 4.46011 177.875 3.90011 179.21 5.44511Z" fill="#56332B"/>
<path d="M199.055 17.4351C199.055 17.4351 226.405 52.4251 226.055 95.9751L237.065 73.6051C236.78 73.6051 227.175 44.9951 199.055 17.4351Z" fill="#442823"/>
<path d="M78.7901 5.44511C78.7901 5.44511 55.6501 24.8001 48.8451 47.1701C42.0401 69.5401 44.8501 96.7501 39.6601 100.115C32.2251 104.955 23.8101 76.4151 21.0051 73.4001C16.5851 68.6301 2.00009 56.4301 1.02009 54.2551C0.0400869 52.0801 30.6101 18.7001 43.9351 12.1101C60.2101 4.46011 80.1251 3.90011 78.7901 5.44511Z" fill="#56332B"/>
<path d="M58.945 17.4351C58.945 17.4351 31.595 52.4251 31.945 95.9751L21.145 73.6051C21.22 73.6051 30.825 44.9951 58.945 17.4351Z" fill="#442823"/>
<path d="M44.22 96.7449C44.22 96.7449 46.185 107.545 49.41 110.91C52.635 114.275 50.39 108.315 50.39 108.315C50.39 108.315 47.025 106.49 47.585 92.7449C48.215 79.0049 44.22 96.7449 44.22 96.7449Z" fill="#CCAC8D"/>
<path d="M214.62 96.7449C214.62 96.7449 212.655 107.545 209.43 110.91C206.205 114.275 208.45 108.315 208.45 108.315C208.45 108.315 211.815 106.49 211.255 92.7449C210.625 79.0049 214.62 96.7449 214.62 96.7449Z" fill="#CCAC8D"/>
<path d="M109.505 90.1548C110.397 90.1548 111.12 89.4317 111.12 88.5398C111.12 87.6479 110.397 86.9248 109.505 86.9248C108.613 86.9248 107.89 87.6479 107.89 88.5398C107.89 89.4317 108.613 90.1548 109.505 90.1548Z" fill="#442823"/>
<path d="M100.32 99.7652C101.212 99.7652 101.935 99.0421 101.935 98.1501C101.935 97.2582 101.212 96.5352 100.32 96.5352C99.4281 96.5352 98.7051 97.2582 98.7051 98.1501C98.7051 99.0421 99.4281 99.7652 100.32 99.7652Z" fill="#442823"/>
<path d="M97.3049 90.1548C98.1969 90.1548 98.9199 89.4317 98.9199 88.5398C98.9199 87.6479 98.1969 86.9248 97.3049 86.9248C96.413 86.9248 95.6899 87.6479 95.6899 88.5398C95.6899 89.4317 96.413 90.1548 97.3049 90.1548Z" fill="#442823"/>
<path d="M148.495 90.1548C149.387 90.1548 150.11 89.4317 150.11 88.5398C150.11 87.6479 149.387 86.9248 148.495 86.9248C147.603 86.9248 146.88 87.6479 146.88 88.5398C146.88 89.4317 147.603 90.1548 148.495 90.1548Z" fill="#442823"/>
<path d="M157.68 99.7652C158.572 99.7652 159.295 99.0421 159.295 98.1501C159.295 97.2582 158.572 96.5352 157.68 96.5352C156.788 96.5352 156.065 97.2582 156.065 98.1501C156.065 99.0421 156.788 99.7652 157.68 99.7652Z" fill="#442823"/>
<path d="M160.695 90.1548C161.587 90.1548 162.31 89.4317 162.31 88.5398C162.31 87.6479 161.587 86.9248 160.695 86.9248C159.803 86.9248 159.08 87.6479 159.08 88.5398C159.08 89.4317 159.803 90.1548 160.695 90.1548Z" fill="#442823"/>
</g>
<defs>
<clipPath id="clip0_17_39">
<rect width="258" height="158" fill="white"/>
</clipPath>
</defs>
</svg>
