<svg width="186" height="257" viewBox="0 0 186 257" fill="none"
  xmlns="http://www.w3.org/2000/svg">
  <g clip-path="url(#clip0_18_959)">
    <path d="M0.5 64.3447V140.834C0.5 144.449 2.35867 147.809 5.41657 149.72L57.5746 182.331C64.5253 186.677 73.528 181.662 73.528 173.445V109.15C73.528 105.45 75.4733 102.026 78.6449 100.141L110.461 81.2303V246.015C110.461 254.205 119.41 259.224 126.362 254.934L180.196 221.714C183.284 219.808 185.165 216.432 185.165 212.795V54.5548C185.165 46.4046 176.295 41.3794 169.34 45.589L110.461 81.2303V10.9887C110.461 2.86079 101.634 -2.1679 94.6781 1.99772L5.58702 55.3536C2.43215 57.2431 0.5 60.658 0.5 64.3447Z" fill="#ebebeb"/>
  </g>
  <defs>
    <clipPath id="clip0_18_959">
      <rect width="185" height="256" fill="#ebebeb" transform="translate(0.5 0.501953)"/>
    </clipPath>
  </defs>
</svg>
