<svg width="256" height="248" viewBox="0 0 256 248" fill="none" xmlns="http://www.w3.org/2000/svg">
<path d="M251.439 98.3616L251.079 97.4433L216.32 6.72986C215.612 4.95155 214.36 3.44298 212.742 2.42052C211.124 1.41546 209.236 0.931284 207.333 1.03338C205.431 1.13548 203.605 1.81893 202.104 2.99145C200.619 4.19752 199.542 5.83216 199.02 7.67259L175.551 79.4786H80.516L57.0453 7.67259C56.5361 5.82286 55.4569 4.18064 53.9611 2.97926C52.4595 1.80674 50.6342 1.12329 48.7318 1.02119C46.8293 0.919093 44.9414 1.40327 43.3229 2.40834C41.709 3.43531 40.4577 4.94243 39.745 6.71767L4.92088 97.3904L4.57548 98.3088C-5.70312 125.166 3.02526 155.588 25.984 172.906L26.1039 173L26.4228 173.225L79.3722 212.877L105.567 232.703L121.525 244.751C123.392 246.168 125.671 246.935 128.014 246.935C130.358 246.935 132.637 246.168 134.504 244.751L150.461 232.703L176.656 212.877L229.925 172.986L230.057 172.88C252.96 155.557 261.675 125.191 251.439 98.3616Z" fill="#E24329"/>
<path d="M251.439 98.3637L251.079 97.4453C234.142 100.922 218.182 108.096 204.339 118.456L128 176.18C153.996 195.847 176.628 212.934 176.628 212.934L229.896 173.043L230.028 172.937C252.969 155.612 261.695 125.215 251.439 98.3637Z" fill="#FC6D26"/>
<path d="M79.372 212.932L105.567 232.758L121.525 244.806C123.391 246.223 125.671 246.99 128.014 246.99C130.358 246.99 132.637 246.223 134.503 244.806L150.461 232.758L176.656 212.932C176.656 212.932 153.998 195.792 128.002 176.178C111.782 188.416 95.572 200.667 79.372 212.932Z" fill="#FCA326"/>
<path d="M51.647 118.456C37.8148 108.076 21.8586 100.883 4.92088 97.3926L4.57548 98.3109C-5.70312 125.169 3.02526 155.59 25.984 172.909L26.1039 173.002L26.4228 173.227L79.3722 212.879L128 176.125L51.647 118.456Z" fill="#FC6D26"/>
</svg>
