<svg width="256" height="256" viewBox="0 0 256 256" fill="none" xmlns="http://www.w3.org/2000/svg">
<g clip-path="url(#clip0_18_983)">
<path d="M256 128C256 57.3075 198.692 0 128 0C57.3075 0 0 57.3075 0 128C0 198.692 57.3075 256 128 256C198.692 256 256 198.692 256 128Z" fill="url(#paint0_linear_18_983)"/>
<path d="M69.5924 134.248L156.844 47.5971C158.473 45.9784 161.097 47.9483 159.996 49.9649L127.522 109.484C126.797 110.811 127.758 112.431 129.27 112.431H185.391C187.199 112.431 188.072 114.645 186.75 115.88L88.4061 207.663C86.6428 209.309 84.0181 206.99 85.4338 205.037L131.988 140.815C132.942 139.498 132.002 137.653 130.375 137.653H70.9962C69.218 137.653 68.3307 135.501 69.5924 134.248Z" fill="white"/>
</g>
<defs>
<linearGradient id="paint0_linear_18_983" x1="128" y1="0" x2="128" y2="256" gradientUnits="userSpaceOnUse">
<stop stop-color="#7BCBD4"/>
<stop offset="1" stop-color="#29C6B7"/>
</linearGradient>
<clipPath id="clip0_18_983">
<rect width="256" height="256" fill="white"/>
</clipPath>
</defs>
</svg>
