<svg xmlns="http://www.w3.org/2000/svg" width="232" height="256" fill="none" viewBox="0 0 232 256"><path fill="url(#a)" fill-rule="evenodd" d="M230.967 35.26 33.307 185.637C9.036 141.628.629 88.538 0 56.697v-19.49c0-2.835 3.075-4.488 4.614-4.96 32.53-9.804 98.588-29.696 102.563-30.83C111.151.283 114.51 0 115.694 0h.108c1.183 0 4.542.283 8.517 1.417s70.032 21.026 102.563 30.83c1.145.35 3.139 1.356 4.085 3.013" clip-rule="evenodd"/><path fill="url(#b)" fill-rule="evenodd" d="M33.307 185.882 230.966 35.506c.327.572.529 1.22.529 1.947v19.49c-1.065 53.979-24.488 169.026-109.661 197.375-1.182.473-3.975 1.418-5.678 1.418h-.818c-1.703 0-4.496-.945-5.678-1.418-34.932-11.627-59.478-37.836-76.353-68.436" clip-rule="evenodd"/><path fill="url(#c)" fill-opacity=".21" d="M123.67 1.42C119.693.284 116.332 0 115.148 0l-.356 256h.711c1.704 0 4.498-.946 5.681-1.42 85.215-28.405 108.65-143.682 109.715-197.77V37.282c0-2.84-3.077-4.498-4.617-4.971-32.546-9.824-98.636-29.755-102.612-30.89"/><path fill="#e3e2fa" d="M116.105 178.951c29.218 0 52.904-23.527 52.904-52.549s-23.686-52.55-52.904-52.55-52.904 23.528-52.904 52.55 23.686 52.549 52.904 52.549"/><path fill="url(#d)" fill-rule="evenodd" d="M106.519 137.764c-4.024.355-14.203-1.42-19.174-5.681-5.337-4.575-8.166-10.651-8.166-19.529 0-11.012 9.942-22.723 23.789-22.368 13.153.337 22.023 7.75 23.79 19.528.922 6.146-.018 9.1-.749 11.394-.112.358-.221.699-.316 1.033-.355 1.184-.852 3.764 0 4.616.851.853 13.847 13.375 20.238 19.528.591.711 1.775 2.486 1.775 3.906v6.747c0 1.064-.284 1.42-1.42 1.42h-14.203c-.827-.119-2.485-.923-2.485-3.195 0-2.423-.258-2.78-.775-3.493-.089-.123-.186-.257-.29-.413-.711-1.066-2.131-1.066-3.551-1.066q-2.13 0-3.195-1.065c-.71-.71-.71-1.775-.355-3.195.355-1.421 0-2.841-.711-3.196a9 9 0 0 1-.39-.215c-.78-.443-2.022-1.149-3.515-.85-1.776.355-4.261 0-5.681-1.42-1.42-1.421-3.196-2.568-4.616-2.486m-9.587-26.984a5.326 5.326 0 1 0 0-10.653 5.326 5.326 0 0 0 0 10.653" clip-rule="evenodd"/><defs><linearGradient id="a" x1="21.659" x2="107.939" y1="106.874" y2="16.688" gradientUnits="userSpaceOnUse"><stop stop-color="#45ffc8"/><stop offset="1" stop-color="#1dbbf1"/></linearGradient><linearGradient id="b" x1="81.663" x2="188.892" y1="159.068" y2="211.263" gradientUnits="userSpaceOnUse"><stop stop-color="#d14ae8"/><stop offset=".552" stop-color="#b628e3"/><stop offset="1" stop-color="#8315fd"/></linearGradient><linearGradient id="c" x1="172.56" x2="172.56" y1="24.144" y2="202.031" gradientUnits="userSpaceOnUse"><stop stop-color="#20abf5"/><stop offset=".398" stop-color="#2a8cc3"/><stop offset="1" stop-color="#a104dc"/></linearGradient><linearGradient id="d" x1="99.773" x2="143.09" y1="110.069" y2="153.743" gradientUnits="userSpaceOnUse"><stop stop-color="#fe5b01"/><stop offset="1" stop-color="#ffb200"/></linearGradient></defs></svg>