<svg xmlns="http://www.w3.org/2000/svg" width="243" height="256" fill="none" viewBox="0 0 243 256">
  <g clip-path="url(#a)">
    <path fill="#000" d="M237.165 157.677a17.8 17.8 0 0 0-5.366-4.464c-.166-.548-.343-1.134-.529-1.729-.215-.688-.437-1.339-.642-1.944 3.106-6.574 2.863-12.283 2.326-15.445-.828-5.337-3.107-9.8-7.162-14.069-4.945-5.197-13.184-8.526-19.748-10.498-.086-3.115-.177-6.657-.28-8.852-.13-2.929-.401-9.001-2.297-15.129-1.413-5.04-3.486-9.661-6.063-13.576 9.941-11.93 15.323-24.25 15.315-35.25-.028-17.817-13.901-29.329-35.334-29.329-10.183 0-21.787 2.576-33.587 7.467 0 0-.67.28-1.572.66-3.589-3.514-8.313-8.155-8.629-8.424C128.204 2.39 121.509 0 113.689 0c-9.299 0-19.992 3.45-31.764 10.247-10.154 5.868-21.07 14.246-31.569 24.25C28.96 54.89 11.711 79.3 4.207 99.803.99 108.608-.396 116.595.097 123.541c.595 8.443 4.017 15.52 9.894 20.485l3.654 3.097c-1.153 5.012-1.46 10.321-.911 15.844 1.05 10.479 6.36 20.438 14.943 28.045 6.9 6.119 15.361 10.089 23.879 11.315 7.643 15.26 19.313 28.12 34.005 37.4 15.844 10.016 34.814 15.622 54.852 16.218 1.274.036 2.566.055 3.84.055 20.69 0 40.058-5.086 56.016-14.711 16.431-9.903 29.011-24.483 36.384-42.159.028-.064.057-.131.074-.195 1.274-3.274 5.432-14.805 5.432-25.636 0-7.83-2.707-12.824-4.994-15.622"/>
    <path fill="#ebebeb" d="M54.171 132.863a22 22 0 0 0-5.449.39c-12.98 2.623-20.317 13.66-18.876 28.017 1.302 12.981 14.44 23.936 26.603 24.26 1.256.028 2.51-.055 3.729-.26 13.157-2.24 16.607-16.533 14.431-30.565-2.445-15.844-13.166-21.442-20.438-21.842m12.897 37.548c-.483 1.124-2.399 2.658-5.133 2.558-2.817-.216-5.95-2.261-6.37-7.356-.213-2.52.745-5.58 1.321-7.179 1.135-3.096.112-6.341-2.538-8.08a6.84 6.84 0 0 0-5.235-.977 6.72 6.72 0 0 0-4.287 2.957c-.809 1.265-1.302 2.846-1.572 3.692-.074.223-.13.409-.167.521-.595 1.599-1.543 2.073-2.195 1.98-.306-.037-.725-.242-.994-.976-.735-2.009-.14-7.681 3.645-11.856 2.399-2.641 6.156-3.998 9.81-3.533 3.803.483 6.964 2.78 8.908 6.472 2.576 4.909.279 10.051-1.088 13.129-.149.335-.288.642-.4.911-.855 2.046-.902 3.822-.13 5.022.595.92 1.664 1.46 2.92 1.478.585.009 1.125-.111 1.59-.223.678-.158 1.376-.316 1.803.214.159.176.4.576.112 1.246"/>
    <path fill="#ebebeb" d="M237.165 157.677a17.8 17.8 0 0 0-5.366-4.464c-.166-.548-.343-1.134-.529-1.729-.215-.688-.437-1.339-.642-1.944 3.106-6.574 2.863-12.283 2.326-15.445-.828-5.337-3.107-9.8-7.162-14.069-4.945-5.197-13.184-8.526-19.748-10.498-.086-3.115-.177-6.657-.28-8.852-.13-2.929-.401-9-2.297-15.129-1.413-5.04-3.486-9.661-6.063-13.576 9.941-11.93 15.323-24.25 15.315-35.25-.028-17.817-13.901-29.329-35.334-29.329-10.183 0-21.787 2.576-33.587 7.467-.019 0-.67.28-1.572.66-3.589-3.514-8.313-8.155-8.629-8.424C128.204 2.39 121.509 0 113.689 0c-9.299 0-19.992 3.45-31.764 10.247-10.154 5.868-21.07 14.246-31.569 24.25C28.96 54.89 11.711 79.3 4.207 99.803.99 108.608-.396 116.595.097 123.541c.595 8.443 4.017 15.52 9.894 20.485l3.654 3.097c-1.153 5.012-1.46 10.321-.911 15.844 1.05 10.479 6.36 20.438 14.943 28.045 6.9 6.119 15.361 10.089 23.879 11.315 7.643 15.26 19.313 28.12 34.005 37.4 15.844 10.016 34.814 15.622 54.852 16.218 1.274.036 2.566.055 3.84.055 20.69 0 40.058-5.086 56.016-14.711 16.431-9.903 29.011-24.483 36.384-42.159.028-.064.057-.131.074-.195 1.274-3.274 5.432-14.805 5.432-25.636 0-7.83-2.705-12.824-4.994-15.622m-8.267 38.208c-14.161 33.939-47.961 52.834-88.224 51.635-37.539-1.116-69.545-20.922-83.558-53.207-8.47 0-17.202-3.719-23.841-9.596-6.993-6.193-11.308-14.218-12.154-22.586-.65-6.519.149-12.572 2.186-17.863l-7.867-6.667C-20.564 107.204 92.05-17.965 128.065 13.455c.185.158 12.255 12.005 12.283 12.033.046-.028 6.658-2.827 6.695-2.846 31.587-13.083 57.224-6.77 57.251 14.106.02 10.852-6.899 23.507-17.984 34.99 4.017 3.73 7.235 9.55 9.076 16.208 1.553 4.92 1.824 9.913 1.962 13.111.197 4.427.41 14.729.429 14.915.277.084 3.477.967 4.444 1.237 8.48 2.38 14.515 5.551 17.463 8.648 2.946 3.096 4.416 6.09 4.947 9.605.493 2.836.427 7.848-3.31 13.446 0 0 .966 2.101 1.896 5.096.93 2.984 1.609 5.467 1.711 5.839 3.43 0 8.815 3.943 8.815 13.465s-3.925 20.196-4.845 22.577"/>
    <path fill="#ebebeb" d="M223.234 167.588c-1.813-1.116-3.989-.725-3.989-.725s-.986-6.779-3.793-12.944c-8.314 6.565-19.017 11.177-27.17 13.511-9.402 2.696-22.132 4.77-36.331 3.923-7.876-.632-13.092-2.937-15.054 3.432 17.993 6.592 37.047 3.766 37.047 3.766a.67.67 0 0 1 .733.595.72.72 0 0 1-.418.717s-14.636 6.797-37.874-.391c.642 5.449 5.961 7.894 8.499 8.879 3.199 1.246 6.695 1.824 6.695 1.824 28.799 4.956 55.717-11.513 61.78-15.661.457-.305.753 0 .39.54-.352.531-.371.559-.595.847-7.419 9.568-27.364 20.653-53.308 20.642-11.317 0-22.624-3.989-26.78-10.116-6.444-9.504-.316-23.377 10.414-21.935.01 0 3.673.418 4.705.53 13.418 1.497 32.843-.391 48.856-7.821 14.646-6.797 20.177-14.282 19.35-20.336-.224-1.636-.958-3.338-2.52-4.956-2.632-2.576-6.807-4.584-13.845-6.555-2.326-.651-3.906-1.07-5.609-1.628-3.021-.995-4.518-1.794-4.853-7.485-.149-2.483-.585-11.149-.734-14.729-.279-6.276-1.033-14.85-6.351-18.383-1.387-.92-2.929-1.367-4.548-1.45-1.59-.075-2.379.213-2.697.26-3.04.51-4.834 2.129-7.066 3.998-6.639 5.533-12.237 6.435-18.467 6.165-3.719-.158-7.671-.735-12.19-1.004-.884-.056-1.767-.103-2.641-.15-10.433-.53-21.629 8.481-23.489 21.276-2.585 17.816 10.313 27.022 14.032 32.424.474.642 1.023 1.553 1.023 2.418 0 1.032-.669 1.85-1.33 2.548-10.647 10.944-14.05 28.333-10.042 42.829a35 35 0 0 0 1.887 5.199c9.411 21.999 38.618 32.237 67.137 22.92a70 70 0 0 0 10.841-4.576c6.398-3.133 11.996-7.447 16.598-12.403 7.569-7.912 12.07-16.505 13.819-27.095.856-5.673-.401-7.849-2.112-8.9m-38.413-36.413c-.036 2.343-1.459 4.221-3.17 4.193-1.711-.027-3.059-1.952-3.023-4.296.039-2.343 1.462-4.221 3.173-4.193s3.059 1.953 3.02 4.296m-7.837-27.719c3.328-.54 4.936 2.91 6.127 8.601.8 3.831.65 7.346-.242 9.382-1.533-.214-3.208-.204-4.955 0-1.331-1.692-2.522-4.435-3.19-7.634-1.19-5.691-1.071-9.81 2.26-10.349m-11.159 30.592c.753-1.534 3.068-1.944 5.179-.902 2.101 1.032 3.2 3.115 2.445 4.649-.753 1.535-3.068 1.944-5.179.902-2.101-1.032-3.198-3.115-2.445-4.649m-13.037-1.72c-.344.53-1.078.437-2.631.26-2.818-.325-5.663-.511-9.978 1.032 0 0-1.571.633-2.268.633a.72.72 0 0 1-.512-.196c-.102-.084-.232-.26-.232-.567 0-.632.576-1.544 1.506-2.362 1.097-.948 2.808-1.971 5.905-2.464 4.268-.502 7.401 1.488 8.127 2.659.316.503.186.847.083 1.005m-23.804-5.877c-.558-.074-.8-.316-.865-.632-.214-.986 1.293-2.595 2.882-3.766 4.827-3.469 11.075-4.213 16.31-1.962 2.567 1.088 4.975 3.031 6.156 4.956.567.93.679 1.646.307 2.027-.577.604-2.037-.084-4.417-1.134-2.38-1.042-5.468-2.214-9.196-1.981-5.282.325-9.857 2.641-11.177 2.492m36.236-64.565c.456.102.744-.688.335-.912-6.025-3.384-15.277-5.681-21.842-5.727-.326 0-.502-.372-.316-.633 1.134-1.525 2.687-3.031 4.11-4.128.316-.242.13-.763-.279-.735-9.345.577-20.002 5.05-26.12 9.224-.298.205-.688-.065-.614-.418.474-2.297 1.981-5.328 2.762-6.742.186-.334-.177-.706-.521-.53-9.847 5.04-20.829 14.004-29.755 24.316-.317.363.148.884.539.595 7.709-5.607 18.281-10.823 32.127-14.198 15.51-3.785 30.453-2.204 39.574-.112m-33.299-31.984s-9.801-11.363-12.758-12.2c-18.206-4.919-57.53 22.205-82.636 58.033-10.164 14.496-24.707 40.17-17.751 53.374.855 1.637 5.709 5.839 8.313 8.015 4.351-6.332 11.474-10.907 19.564-12.478C56.946 97.029 74.12 71.588 96.856 54.079 113.733 40 131.921 29.902 131.921 29.902"/>
    <path fill="#000" d="M177.845 121.291c1.732-.216 3.388-.216 4.928 0 .886-2.052 1.039-5.599.231-9.452-1.193-5.734-2.81-9.202-6.083-8.658-3.351.544-3.466 4.692-2.272 10.426.653 3.219 1.848 5.984 3.196 7.684m-28.563 4.509c2.387 1.054 3.851 1.745 4.429 1.144.347-.385.231-1.099-.347-2.04-1.155-1.926-3.581-3.887-6.123-4.986-5.237-2.267-11.513-1.519-16.288 1.972-1.579 1.178-3.119 2.799-2.888 3.785.038.317.308.555.885.635 1.31.147 5.854-2.187 11.13-2.505 3.735-.227 6.815.941 9.202 1.995m-4.725 2.73c-3.119.487-4.814 1.518-5.931 2.481-.924.828-1.501 1.734-1.501 2.38 0 .306.154.476.231.567a.85.85 0 0 0 .501.193c.731 0 2.272-.635 2.272-.635 4.313-1.553 7.163-1.372 9.974-1.043 1.54.181 2.31.272 2.656-.261.077-.158.193-.487-.115-.997-.732-1.189-3.851-3.184-8.126-2.674zm23.655 10.105c2.118 1.042 4.428.634 5.198-.918.732-1.542-.345-3.638-2.464-4.681s-4.428-.635-5.16.918c-.77 1.542.347 3.638 2.426 4.681m13.488-11.886c-1.694-.035-3.119 1.858-3.157 4.215-.039 2.357 1.309 4.295 3.042 4.329 1.694.034 3.119-1.858 3.157-4.216s-1.31-4.295-3.042-4.328m-114.666 42.56c-.424-.533-1.155-.374-1.81-.216-.462.114-1.002.239-1.58.227-1.27-.023-2.31-.567-2.926-1.485-.77-1.201-.731-3.003.154-5.054.077-.272.232-.589.386-.918 1.386-3.094 3.658-8.284 1.078-13.214-1.925-3.717-5.083-6.029-8.895-6.516-3.62-.465-7.393.895-9.78 3.558-3.774 4.204-4.39 9.916-3.62 11.934.23.736.654.94.962.986.616.09 1.618-.386 2.196-1.995.038-.113.114-.295.191-.521.231-.85.732-2.449 1.54-3.718.964-1.541 2.503-2.595 4.275-2.98a6.8 6.8 0 0 1 5.237.986c2.657 1.745 3.658 5.009 2.541 8.137-.616 1.609-1.54 4.692-1.347 7.23.424 5.135 3.542 7.185 6.392 7.412 2.695.102 4.621-1.438 5.122-2.573.27-.668.038-1.076-.116-1.247z"/>
    <path fill="#000" d="M224.789 159.908c-.115-.373-.77-2.867-1.694-5.881s-1.924-5.134-1.924-5.134c3.774-5.633 3.812-10.675 3.311-13.532-.54-3.535-1.965-6.561-4.93-9.678-2.925-3.116-8.971-6.312-17.442-8.703-.962-.272-4.16-1.156-4.429-1.247-.038-.181-.23-10.562-.422-15.016-.154-3.218-.425-8.25-1.965-13.203-1.848-6.697-5.084-12.568-9.05-16.319 11.053-11.56 17.944-24.298 17.944-35.234-.039-21.01-25.645-27.369-57.181-14.2-.039.011-6.662 2.833-6.7 2.856-.039-.034-12.092-11.956-12.246-12.115C92.057-19.105-20.42 106.916 15.545 137.526l7.855 6.709c-2.04 5.327-2.85 11.424-2.195 17.985.847 8.421 5.16 16.501 12.169 22.735 6.623 5.926 15.364 9.666 23.797 9.666 13.977 32.501 45.976 52.448 83.443 53.57 40.239 1.203 74.01-17.816 88.143-51.983.924-2.402 4.852-13.203 4.852-22.746s-5.391-13.554-8.82-13.554M60.252 185.499a18.7 18.7 0 0 1-3.736.26c-12.13-.329-25.26-11.356-26.531-24.423-1.463-14.449 5.853-25.567 18.83-28.207a22 22 0 0 1 5.43-.396c7.277.396 17.982 6.028 20.408 21.973 2.195 14.133-1.232 28.514-14.363 30.78zm-13.555-61.006c-8.087 1.587-15.21 6.199-19.562 12.569-2.58-2.188-7.431-6.415-8.278-8.07-6.931-13.293 7.585-39.143 17.712-53.74 25.107-36.095 64.384-63.396 82.559-58.443 2.965.838 12.745 12.285 12.745 12.285s-18.174 10.165-35.04 24.331c-22.719 17.623-39.855 43.247-50.136 71.046zm127.496 55.61c.231-.113.461-.42.384-.714a.616.616 0 0 0-.693-.6s-19.06 2.844-37.043-3.797c2.002-6.414 7.201-4.102 15.056-3.456 14.209.849 26.878-1.235 36.312-3.955 8.124-2.358 18.829-7.004 27.108-13.6 2.812 6.199 3.813 13.033 3.813 13.033s2.156-.396 3.965.737c1.694 1.065 2.966 3.275 2.119 8.975-1.732 10.665-6.238 19.322-13.824 27.279-4.582 4.986-10.165 9.338-16.559 12.487a69 69 0 0 1-10.82 4.612c-28.494 9.387-57.644-.928-67.078-23.072-.77-1.666-1.348-3.411-1.887-5.235-4.005-14.597-.615-32.106 10.051-43.122.616-.703 1.309-1.53 1.309-2.573 0-.872-.539-1.79-1.04-2.436-3.697-5.44-16.596-14.71-13.978-32.639 1.849-12.885 13.015-21.962 23.45-21.419.886.046 1.734.102 2.658.147 4.505.273 8.432.85 12.129 1.01 6.238.271 11.822-.647 18.484-6.211 2.233-1.882 4.042-3.502 7.046-4.023.348-.057 1.116-.34 2.697-.261 1.617.09 3.155.533 4.542 1.462 5.314 3.558 6.045 12.194 6.353 18.507.155 3.603.578 12.329.734 14.823.345 5.723 1.809 6.527 4.851 7.536 1.694.566 3.272.986 5.583 1.643 7.046 1.995 11.204 4.012 13.824 6.607 1.578 1.621 2.31 3.344 2.54 4.987.809 6.097-4.697 13.633-19.33 20.478-15.978 7.48-35.387 9.372-48.825 7.877l-4.699-.533c-10.705-1.451-16.827 12.511-10.358 22.087 4.12 6.166 15.402 10.176 26.723 10.189 25.915 0 45.823-11.153 53.255-20.785.231-.284.233-.318.579-.849.345-.557.076-.862-.387-.544-6.046 4.171-32.962 20.749-61.687 15.763 0 0-3.504-.578-6.7-1.836-2.541-.997-7.855-3.456-8.509-8.941 23.258 7.242 37.852.397 37.852.397zM93.021 75.093c8.933-10.38 19.869-19.413 29.726-24.478.347-.17.693.192.539.532-.809 1.428-2.31 4.477-2.772 6.788-.077.363.308.635.578.42 6.123-4.205 16.75-8.704 26.107-9.282.424-.022.578.499.27.737-1.387 1.1-2.926 2.618-4.081 4.148-.193.26-.039.634.307.634 6.546.046 15.827 2.358 21.834 5.769.385.227.077 1.031-.347.918-9.126-2.108-24.028-3.706-39.547.102-13.824 3.4-24.374 8.647-32.076 14.302-.385.283-.846-.227-.538-.59"/>
  </g>
  <defs>
    <clipPath id="a">
      <path fill="#ebebeb" d="M0 0h243v256H0z"/>
    </clipPath>
  </defs>
</svg>
