<svg xmlns="http://www.w3.org/2000/svg" width="256" height="257" fill="none" viewBox="0 0 256 257">
  <g clip-path="url(#a)">
    <path fill="#ebebeb" d="M237 126.196 125.696 237.5c-4.341 4.342-4.341 11.392 0 15.744 4.341 4.341 11.392 4.341 15.744 0L252.744 141.94c4.341-4.352 4.341-11.403 0-15.744-4.352-4.341-11.402-4.341-15.744 0M214.74 3.756 3.256 215.24c-4.341 4.341-4.341 11.391 0 15.743 4.352 4.341 11.402 4.341 15.744 0L230.483 19.5c4.341-4.342 4.341-11.392 0-15.744-4.352-4.341-11.402-4.341-15.743 0"/>
  </g>
  <defs>
    <clipPath id="a">
      <path fill="#ebebeb" d="M0 .5h256v256H0z"/>
    </clipPath>
  </defs>
</svg>
