<svg xmlns="http://www.w3.org/2000/svg" width="256" height="257" fill="none" viewBox="0 0 256 257"><g clip-path="url(#a)"><g opacity=".7"><path fill="#ffd819" d="M84.102 23.535c-3.267 4.812-5.864 10.395-7.574 16.748A53.09 53.09 0 0 1 39.07 77.741c-6.353 1.71-11.936 4.307-16.748 7.574-6.82-35.673 26.106-68.6 61.78-61.78"/><path fill="#ffe029" d="M22.323 85.315c1.092 5.712 3.203 11.496 6.486 17.198a53.09 53.09 0 0 1 0 52.974c-3.283 5.702-5.394 11.485-6.486 17.198-30.048-20.403-30.048-66.967 0-87.37"/><path fill="#ffc141" d="M84.102 234.465c-3.267-4.812-5.864-10.395-7.574-16.748A53.08 53.08 0 0 0 39.07 180.26c-6.353-1.711-11.936-4.308-16.748-7.575-6.82 35.674 26.106 68.6 61.78 61.78"/><path fill="#ffb655" d="M171.473 234.464c-5.713-1.093-11.496-3.204-17.198-6.487a53.08 53.08 0 0 0-52.973 0c-5.703 3.283-11.486 5.395-17.2 6.487 20.403 30.048 66.969 30.048 87.371 0"/><path fill="#ffb35b" d="M233.253 172.685c-4.812 3.267-10.394 5.863-16.748 7.574a53.09 53.09 0 0 0-37.458 37.458c-1.71 6.353-4.306 11.936-7.574 16.747 35.673 6.82 68.6-26.106 61.78-61.779"/><path fill="#ffb656" d="M233.253 85.315c-1.093 5.712-3.204 11.496-6.487 17.198a53.08 53.08 0 0 0 0 52.973c3.283 5.702 5.394 11.485 6.487 17.198 30.047-20.402 30.047-66.966 0-87.37"/><path fill="#ffc042" d="M171.473 23.535c3.268 4.812 5.864 10.395 7.574 16.748a53.09 53.09 0 0 0 37.458 37.458c6.354 1.71 11.936 4.307 16.748 7.574 6.82-35.673-26.107-68.6-61.78-61.78"/><path fill="#ffce2a" d="M84.103 23.535c5.713 1.093 11.496 3.204 17.198 6.487a53.08 53.08 0 0 0 52.973 0c5.702-3.283 11.485-5.394 17.198-6.486-20.403-30.048-66.967-30.048-87.37 0"/></g><path fill="url(#b)" fill-rule="evenodd" d="M76.53 40.282c1.71-6.353 4.306-11.936 7.574-16.748 5.712 1.093 11.496 3.204 17.197 6.487a53.09 53.09 0 0 0 52.974 0c5.702-3.283 11.486-5.395 17.199-6.487 3.267 4.812 5.864 10.395 7.574 16.748a53.08 53.08 0 0 0 37.458 37.458c6.353 1.71 11.935 4.306 16.747 7.574-1.092 5.713-3.203 11.497-6.486 17.198a53.09 53.09 0 0 0 0 52.974c3.283 5.702 5.394 11.485 6.486 17.198-4.812 3.268-10.394 5.864-16.747 7.575a53.08 53.08 0 0 0-37.458 37.457c-1.71 6.353-4.307 11.936-7.574 16.748-5.713-1.092-11.497-3.204-17.199-6.487a53.09 53.09 0 0 0-52.974 0c-5.701 3.283-11.485 5.395-17.197 6.487-3.268-4.812-5.864-10.395-7.575-16.748a53.08 53.08 0 0 0-37.457-37.457c-6.354-1.711-11.937-4.308-16.749-7.575 1.093-5.713 3.204-11.496 6.487-17.198a53.09 53.09 0 0 0 0-52.974c-3.283-5.701-5.394-11.484-6.486-17.197 4.811-3.268 10.394-5.865 16.748-7.575a53.08 53.08 0 0 0 37.457-37.458" clip-rule="evenodd"/><path fill="#ffa17a" d="m184.929 156.518-4.466-7.735a4.466 4.466 0 0 0-7.735 4.466l4.466 7.734a4.466 4.466 0 1 0 7.735-4.465M173.766 156.518l-4.466-7.735a4.465 4.465 0 0 0-6.1-1.634 4.464 4.464 0 0 0-1.634 6.1l4.465 7.734a4.466 4.466 0 1 0 7.735-4.465"/><path fill="#ffab89" d="m94.502 156.518-4.466-7.735a4.465 4.465 0 0 0-7.734 4.466l4.465 7.734a4.465 4.465 0 1 0 7.735-4.465M83.338 156.518l-4.466-7.735a4.465 4.465 0 0 0-7.735 4.466l4.466 7.734a4.465 4.465 0 1 0 7.734-4.465"/><path fill="#ffa17a" d="m181.284 98.146-8.627-2.311a4.465 4.465 0 0 0-5.469 3.157 4.465 4.465 0 0 0 3.157 5.469l8.627 2.312a4.466 4.466 0 0 0 2.312-8.627"/><path fill="#ffab89" d="m82.962 95.834-8.627 2.312a4.466 4.466 0 0 0 2.311 8.627l8.628-2.312a4.465 4.465 0 1 0-2.312-8.627"/><path stroke="#8b2c0c" stroke-linecap="round" stroke-opacity=".05" stroke-width="6.848" d="M118.027 144.916c2.355 2.609 6.532 4.465 10.047 4.465s7.692-1.856 10.048-4.465"/><path stroke="#d05b34" stroke-linecap="round" stroke-width="6.848" d="M118.027 143.8c2.355 2.609 6.532 4.465 10.047 4.465s7.692-1.856 10.048-4.465"/><path fill="#000" d="m80.228 119.78-6.315-6.315a4.465 4.465 0 1 0-6.315 6.315l6.315 6.316a4.465 4.465 0 1 0 6.315-6.316"/><path fill="#000" d="M100.164 129.287c0-9.249-7.497-16.746-16.746-16.746s-16.746 7.497-16.746 16.746 7.498 16.746 16.746 16.746c9.249 0 16.746-7.498 16.746-16.746"/><path fill="#000" fill-opacity=".05" d="M100.164 130.402c0-9.248-7.497-16.746-16.746-16.746s-16.746 7.498-16.746 16.746c0 9.249 7.498 16.746 16.746 16.746 9.249 0 16.746-7.497 16.746-16.746"/><path fill="#784012" fill-rule="evenodd" d="M70.783 133.751c1.84-5.203 6.802-8.931 12.634-8.931 5.834 0 10.796 3.728 12.635 8.932-1.84 5.203-6.802 8.93-12.634 8.93s-10.796-3.728-12.635-8.931" clip-rule="evenodd"/><path fill="#000" fill-opacity=".35" fill-rule="evenodd" d="M94.606 136.66a13.33 13.33 0 0 0 2.21-7.373c0-7.399-5.998-13.397-13.397-13.397s-13.396 5.998-13.396 13.397c0 2.442.653 4.732 1.795 6.704a13.39 13.39 0 0 1 11.187-6.024c4.956 0 9.284 2.692 11.6 6.693" clip-rule="evenodd"/><path fill="#000" d="M91.233 129.286a7.814 7.814 0 0 0-7.815-7.814 7.815 7.815 0 1 0 7.815 7.814"/><path fill="#ebebeb" d="M79.759 128.07a6.698 6.698 0 1 0 0-13.396 6.698 6.698 0 1 0 0 13.396M92.333 133.869a3.349 3.349 0 1 0 0-6.698 3.349 3.349 0 0 0 0 6.698M88.154 139.722a2.232 2.232 0 1 0 .001-4.464 2.232 2.232 0 0 0-.001 4.464"/><path fill="#000" d="m182.346 126.097 6.315-6.315a4.465 4.465 0 1 0-6.315-6.316l-6.315 6.316a4.465 4.465 0 1 0 6.315 6.315"/><path fill="#000" fill-opacity=".05" d="M189.475 130.403c0-9.248-7.497-16.746-16.746-16.746s-16.746 7.498-16.746 16.746c0 9.249 7.498 16.746 16.746 16.746 9.249 0 16.746-7.497 16.746-16.746"/><path fill="#000" d="M189.475 129.287c0-9.249-7.497-16.746-16.746-16.746s-16.746 7.497-16.746 16.746 7.498 16.746 16.746 16.746c9.249 0 16.746-7.498 16.746-16.746"/><path fill="#784012" fill-rule="evenodd" d="M160.117 133.813c1.732-5.394 6.789-9.296 12.758-9.296 5.81 0 10.756 3.699 12.613 8.87-1.732 5.393-6.79 9.296-12.758 9.296-5.81 0-10.757-3.699-12.613-8.87" clip-rule="evenodd"/><path fill="#000" fill-opacity=".35" fill-rule="evenodd" d="M184.218 136.18a13.33 13.33 0 0 0 1.907-6.892c0-7.399-5.998-13.397-13.397-13.397-7.398 0-13.396 5.998-13.396 13.397 0 2.618.752 5.061 2.05 7.126a13.39 13.39 0 0 1 11.49-6.504c4.78 0 8.976 2.503 11.346 6.27" clip-rule="evenodd"/><path fill="#000" d="M180.544 129.287a7.814 7.814 0 0 0-7.815-7.814 7.814 7.814 0 1 0 0 15.629 7.815 7.815 0 0 0 7.815-7.815"/><path fill="#ebebeb" d="M169.071 128.07a6.698 6.698 0 1 0 0-13.396 6.698 6.698 0 1 0 0 13.396M181.645 133.87a3.35 3.35 0 1 0 0-6.698 3.35 3.35 0 0 0 0 6.698M177.466 139.722a2.232 2.232 0 1 0 0-4.465 2.233 2.233 0 1 0 0 4.465"/></g><defs><radialGradient id="b" cx="0" cy="0" r="1" gradientTransform="rotate(45 -17.18 38.554)scale(298.395)" gradientUnits="userSpaceOnUse"><stop stop-color="#ffe600"/><stop offset="1" stop-color="#ffa573"/></radialGradient><clipPath id="a"><path fill="#ebebeb" d="M0 .5h256v256H0z"/></clipPath></defs></svg>
