<svg xmlns="http://www.w3.org/2000/svg" width="256" height="90" fill="none" viewBox="0 0 256 90">
  <g clip-path="url(#a)">
    <path fill="#ebebeb" d="M37.718 5.612h17.193V62.96a26.03 26.03 0 0 1-3.534 13.791A24 24 0 0 1 41.5 85.79a32.04 32.04 0 0 1-14.658 3.19 33.2 33.2 0 0 1-13.473-2.651 21.47 21.47 0 0 1-9.542-8.031Q.293 72.918.293 64.727h17.308c.053 3.26.998 5.805 2.836 7.607a9.9 9.9 0 0 0 7.289 2.712q9.913 0 9.992-12.086zm55.343 83.447q-9.356 0-16.16-3.994a27 27 0 0 1-10.504-11.167 35.8 35.8 0 0 1-3.693-16.645 36 36 0 0 1 3.693-16.725A27.04 27.04 0 0 1 76.902 29.36a31.4 31.4 0 0 1 16.16-3.993 31.43 31.43 0 0 1 16.167 3.993 27 27 0 0 1 10.496 11.168 36 36 0 0 1 3.702 16.725 35.8 35.8 0 0 1-3.702 16.645 26.95 26.95 0 0 1-10.496 11.167q-6.811 4.003-16.168 3.994m19.561-83.447v9.277H73.509V5.612zM93.185 75.806a10.6 10.6 0 0 0 9.474-5.053l.147-.248q3.269-5.301 3.269-13.367 0-7.798-3.079-13.036l-.216-.358a10.6 10.6 0 0 0-9.622-5.301 10.74 10.74 0 0 0-9.572 5.058l-.146.243q-3.296 5.301-3.296 13.394 0 7.823 3.08 13.012l.216.355a10.74 10.74 0 0 0 9.411 5.309zm71.705-49.635v12.855h-11.609V68.94q0 3.534 1.608 4.771a6.63 6.63 0 0 0 3.899 1.253l.28-.007c.806.001 1.61-.073 2.403-.22l1.846-.337 2.651 12.732-.659.192c-.787.221-1.759.472-2.955.744a30 30 0 0 1-5.028.642l-.635.02q-9.321.417-14.958-4.028-5.508-4.343-5.558-13.141l.001-32.536h-8.437V26.17h8.437V11.39h17.105v14.78zm26.24 62.852q-8.835 0-14.657-4.62-5.823-4.62-5.823-13.774 0-6.9 3.252-10.84a18.7 18.7 0 0 1 8.534-5.77 48.4 48.4 0 0 1 11.345-2.386 87 87 0 0 0 11.485-1.687q3.464-.883 3.455-3.852v-.248a7.44 7.44 0 0 0-2.386-5.901q-2.403-2.077-6.767-2.085a12.17 12.17 0 0 0-7.351 2.005 9.45 9.45 0 0 0-3.614 5.098l-15.823-1.281a21.1 21.1 0 0 1 8.773-13.376q7.015-4.93 18.094-4.94a37.3 37.3 0 0 1 12.846 2.174 21.37 21.37 0 0 1 9.666 6.768q3.675 4.603 3.675 11.945v41.604h-16.221v-8.552h-.477a17.83 17.83 0 0 1-6.732 7.006q-4.48 2.712-11.274 2.712m4.895-11.812a13.25 13.25 0 0 0 9.241-3.269 10.55 10.55 0 0 0 3.614-7.818v-6.857a10 10 0 0 1-3.11 1.201 50 50 0 0 1-4.506.884l-1.539.237c-.986.155-1.895.302-2.737.426a16.95 16.95 0 0 0-7.245 2.535 6.24 6.24 0 0 0-2.748 5.496 6.13 6.13 0 0 0 2.545 5.3 11 11 0 0 0 6.114 1.87zm50.796-58.991h-.304a9.2 9.2 0 0 1-6.511-2.554 8.07 8.07 0 0 1-2.73-6.123 8.04 8.04 0 0 1 2.73-6.105 9.72 9.72 0 0 1 13.058 0 8.04 8.04 0 0 1 2.73 6.105 8.08 8.08 0 0 1-2.523 5.934l-.207.189a9.23 9.23 0 0 1-6.243 2.554m-8.865 69.637V26.171h17.104v61.686z"/>
  </g>
  <defs>
    <clipPath id="a">
      <path fill="#ebebeb" d="M0 .587h256v88.826H0z"/>
    </clipPath>
  </defs>
</svg>
