<svg width="256" height="252" viewBox="0 0 256 252" fill="none" xmlns="http://www.w3.org/2000/svg">
<g clip-path="url(#clip0_18_566)">
<path d="M14.8493 159.804C9.60277 143.48 8.08935 126.248 11.1162 108.513C12.4278 101.157 14.4457 94.1035 16.6654 86.949C16.6654 86.949 30.5888 41.3013 77.7066 20.4424C77.7066 20.4424 93.9506 11.8771 118.367 11.2725C118.367 11.2725 115.038 8.04798 112.919 6.63723C101.417 -1.02111 84.2647 -3.5403 73.8726 7.24184C70.7449 10.4664 68.1216 13.9933 65.1957 17.2178C61.8661 20.8455 57.8304 23.8685 53.1892 25.5815C49.1534 27.0931 45.1176 26.7908 40.981 27.4961C36.7434 28.2015 32.4049 29.713 28.9745 32.4337C25.2414 35.4568 23.728 39.4875 23.3244 44.1228C22.9208 47.7504 23.0217 51.4788 22.82 55.1065C22.3155 65.7878 18.8851 68.8109 11.2171 74.7562C7.98846 77.1746 5.26431 80.3991 3.24642 83.8252C-2.80725 94.5066 6.87862 105.591 7.38309 116.373C7.48399 118.59 7.2822 120.807 6.47504 122.923C5.66788 125.241 4.05357 126.752 2.74194 128.667C0.925843 131.186 -0.284891 134.209 0.219581 137.333C0.724054 140.457 2.33837 143.379 3.85178 146.1C6.77773 150.936 10.4099 155.269 14.2439 159.401C14.4457 159.401 14.6475 159.603 14.8493 159.804Z" fill="#E32286"/>
<path d="M207.461 198.443C230.625 188.354 240.496 170.899 240.496 170.899C262.15 141.337 254.797 110.161 254.797 110.161C240.999 140.228 228.41 148.501 228.41 148.501C262.351 96.7424 228.611 65.4654 228.611 65.4654C242.409 94.9263 224.079 130.844 224.079 130.844C208.669 163.332 186.814 174.935 186.814 174.935C211.187 179.475 229.115 163.03 229.115 163.03C194.166 200.865 156.297 199.049 156.297 199.049C172.21 216.907 196.08 215.393 196.08 215.393C164.857 222.759 135.549 212.367 111.478 192.289C106.945 188.556 102.615 184.52 98.5859 180.181C98.5859 180.181 94.9601 176.347 94.255 175.339L94.1543 175.238C93.6507 193.903 113.089 211.257 113.089 211.257C88.7156 201.167 77.5361 179.273 77.5361 179.273C77.5361 179.273 61.1192 151.225 73.0038 119.242C84.8884 87.2584 120.844 80.3976 120.844 80.3976C150.556 94.8254 175.735 99.3656 175.735 99.3656C228.813 108.244 225.791 82.2137 225.791 82.2137C226.295 59.8153 192.555 36.0044 192.555 36.0044C132.427 -8.69148 78.0396 20.1641 78.0396 20.1641C31.005 41.0491 17.1061 86.7539 17.1061 86.7539C14.8903 93.9174 12.876 100.98 11.5666 108.345C6.43008 138.311 14.1853 166.662 31.005 191.885C57.1913 231.032 99.6937 244.552 99.6937 244.552C162.642 265.941 205.648 234.462 205.648 234.462C245.229 207.221 253.186 175.742 253.186 175.742C221.259 200.764 207.461 198.443 207.461 198.443ZM158.311 51.2393C161.332 51.2393 163.75 53.6608 163.75 56.6876C163.75 59.7144 161.332 62.1359 158.311 62.1359C155.289 62.1359 152.872 59.7144 152.872 56.6876C152.872 53.6608 155.289 51.2393 158.311 51.2393Z" fill="url(#paint0_linear_18_566)"/>
<path d="M225.618 82.314C226.122 59.9436 192.323 36.1624 192.323 36.1624C132.089 -8.37685 77.6057 20.4427 77.6057 20.4427C30.488 41.3016 16.5645 86.9493 16.5645 86.9493C13.8404 94.7084 11.4189 106.599 11.4189 106.599C8.49296 121.513 9.80459 135.318 9.80459 135.318C11.0153 148.518 13.9413 157.386 13.9413 157.386C16.9681 166.858 18.3806 169.78 18.3806 169.78C18.2797 169.478 17.7753 167.261 17.7753 167.261C17.7753 167.261 13.5377 146.906 17.4726 127.357C17.4726 127.357 20.903 107.002 34.8264 91.2823C34.8264 91.2823 57.4268 59.1375 99.4998 71.7334C99.4998 71.7334 108.58 74.958 111.708 76.5703C114.836 78.0818 120.284 80.3994 120.284 80.3994C150.048 94.8092 175.272 99.3437 175.272 99.3437C228.645 108.312 225.618 82.314 225.618 82.314ZM158.12 62.4628C155.093 62.4628 152.671 60.0444 152.671 57.0213C152.671 53.9983 155.093 51.5799 158.12 51.5799C161.146 51.5799 163.568 53.9983 163.568 57.0213C163.568 60.0444 161.146 62.4628 158.12 62.4628Z" fill="url(#paint1_radial_18_566)"/>
<path d="M123.614 41.8052L89.2085 31.1238C89.0067 31.1238 87.9978 30.62 86.1817 31.1238C86.1817 31.1238 65.9019 36.263 69.4332 47.3474C69.4332 47.3474 71.552 54.3004 77.303 61.0518L115.138 59.238L123.614 41.8052Z" fill="url(#paint2_linear_18_566)"/>
</g>
<defs>
<linearGradient id="paint0_linear_18_566" x1="39.3604" y1="232.748" x2="164.922" y2="99.407" gradientUnits="userSpaceOnUse">
<stop stop-color="#E01D84"/>
<stop offset="0.401" stop-color="#DF1D85"/>
<stop offset="0.77" stop-color="#932C87"/>
<stop offset="1" stop-color="#5D2F88"/>
</linearGradient>
<radialGradient id="paint1_radial_18_566" cx="0" cy="0" r="1" gradientUnits="userSpaceOnUse" gradientTransform="translate(177.144 63.9778) rotate(0.136764) scale(122.67 102.448)">
<stop stop-color="#E01D84"/>
<stop offset="0.139" stop-color="#DE1E85"/>
<stop offset="0.285" stop-color="#D62085"/>
<stop offset="0.434" stop-color="#C92386"/>
<stop offset="0.586" stop-color="#B72786"/>
<stop offset="0.739" stop-color="#9D2B87"/>
<stop offset="0.891" stop-color="#7C2E88"/>
<stop offset="1" stop-color="#5D2F88"/>
</radialGradient>
<linearGradient id="paint2_linear_18_566" x1="68.9408" y1="45.973" x2="123.584" y2="45.973" gradientUnits="userSpaceOnUse">
<stop stop-color="#E01D84"/>
<stop offset="0.238" stop-color="#DA1E85"/>
<stop offset="0.658" stop-color="#C72085"/>
<stop offset="0.999" stop-color="#B52284"/>
</linearGradient>
<clipPath id="clip0_18_566">
<rect width="256" height="252" fill="white"/>
</clipPath>
</defs>
</svg>
