<svg xmlns="http://www.w3.org/2000/svg" width="255" height="257" fill="none" viewBox="0 0 255 257"><g clip-path="url(#a)"><path fill="#ebebeb" d="M95.402 128.284c0-16.779 13.871-30.547 30.775-30.547s30.775 13.768 30.775 30.547c0 16.781-13.871 30.549-30.775 30.549-17.339 0-30.775-13.338-30.775-30.549M126.177.5C65.927.5 15.214 41.374.911 96.877v1.29c0 3.442 2.6 6.023 6.068 6.023h52.013c2.601 0 4.768-1.29 5.635-3.441 10.836-23.234 34.243-39.153 61.55-39.153 37.276 0 67.618 30.118 67.618 67.119s-30.342 67.12-67.618 67.12c-27.307 0-50.714-15.919-61.55-39.153-.867-2.151-3.034-3.442-5.634-3.442H6.978C3.51 152.809.91 155.391.91 158.833v1.29C15.214 215.626 65.928 256.5 126.177 256.5c71.085 0 128.734-57.224 128.734-127.785C254.911 57.724 197.262.5 126.177.5"/></g><defs><clipPath id="a"><path fill="#ebebeb" d="M.91.5h254v256H.91z"/></clipPath></defs></svg>
