<svg width="256" height="257" viewBox="0 0 256 257" fill="none"
  xmlns="http://www.w3.org/2000/svg">
  <path d="M127.538 47.4883C82.5309 47.4883 45.9141 84.1051 45.9141 129.112C45.9141 174.119 82.5309 210.736 127.538 210.736C172.545 210.736 209.162 174.119 209.162 129.112C209.162 84.1051 172.545 47.4883 127.538 47.4883ZM127.538 171.353C104.206 171.353 85.2973 152.444 85.2973 129.112C85.2973 105.78 104.206 86.8715 127.538 86.8715C150.87 86.8715 169.779 105.78 169.779 129.112C169.779 152.444 150.87 171.353 127.538 171.353Z" fill="#EBEBEB"/>
  <path fill-rule="evenodd" clip-rule="evenodd" d="M134.377 34.0815V3.60547C200.619 7.14707 253.241 61.9887 253.241 129.112C253.241 196.235 200.619 251.061 134.377 254.618V224.142C183.747 220.616 222.841 179.363 222.841 129.112C222.841 78.8607 183.747 37.6079 134.377 34.0815ZM55.5505 191.431C42.4633 176.323 34.0272 157.079 32.5224 135.951H2.03125C3.61205 165.515 15.4377 192.343 33.9664 213L55.5352 191.431H55.5505ZM120.698 254.618V224.142C99.5544 222.637 80.3113 214.217 65.2025 201.114L43.6337 222.683C64.3057 241.227 91.1336 253.037 120.682 254.618H120.698Z" fill="url(#paint0_linear_20_1585)"/>
  <defs>
    <linearGradient id="paint0_linear_20_1585" x1="139.303" y1="21.2543" x2="15.7581" y2="144.8" gradientUnits="userSpaceOnUse">
      <stop stop-color="#0096FF"/>
      <stop offset="1" stop-color="#FF1E56"/>
    </linearGradient>
  </defs>
</svg>
