<svg width="256" height="236" viewBox="0 0 256 236" fill="none" xmlns="http://www.w3.org/2000/svg">
<path d="M237.196 42.8095C243.461 42.7956 249.73 42.8094 255.994 42.8028C255.998 107.075 256.007 171.347 255.99 235.619C183.46 235.616 110.931 235.616 38.4006 235.619C35.8433 235.679 33.2023 235.573 30.8489 234.641C25.9425 232.872 22.5435 228.547 22.6062 224.047C22.5935 208.477 22.6062 192.91 22.602 177.343C28.8747 174.144 35.1764 170.982 41.4414 167.776C106.694 167.734 171.948 167.825 237.196 167.73C237.229 126.09 237.229 84.4498 237.196 42.8095Z" fill="#36687F"/>
<path d="M129.628 41.2193C138.284 40.1194 147.26 40.6736 155.511 43.627C161.747 45.8761 167.636 49.7496 171.202 55.4477C173.464 59.0131 174.584 63.249 174.534 67.4644C174.484 71.3132 174.946 75.3742 173.206 78.9565C169.998 85.825 162.988 90.1152 155.849 91.9398C162.292 93.2513 168.695 95.9924 173.222 100.903C176.679 104.518 178.658 109.504 178.587 114.515C178.508 119.376 179.074 124.374 177.504 129.073C175.413 135.779 170.385 141.235 164.421 144.78C156.015 149.836 145.994 151.594 136.288 151.332C128.146 151.099 119.811 149.683 112.643 145.634C106.765 142.41 101.971 137.224 99.3428 131.047C97.8221 127.615 96.9351 123.928 96.5106 120.206C104.774 120.206 113.034 120.206 121.298 120.209C121.736 123.771 123.402 127.269 126.304 129.46C130.045 132.351 135.035 132.88 139.604 132.497C143.698 132.143 147.989 130.402 150.242 126.791C152.371 123.55 152.391 119.531 152.304 115.794C152.421 112.345 151.192 108.742 148.531 106.452C145.281 103.615 140.896 102.586 136.705 102.215C132.853 101.973 128.991 102.157 125.134 102.07C125.08 96.1757 125.113 90.2816 125.118 84.3923C130.095 84.2295 135.172 84.8585 140.05 83.5922C143.153 82.7673 146.26 80.9433 147.577 77.882C148.818 75.2748 148.489 72.3292 148.526 69.5344C148.514 66.9561 147.806 64.2198 145.898 62.3789C143.295 59.771 139.396 59.08 135.847 59.1675C132.344 59.1301 128.67 60.2257 126.201 62.8034C123.935 65.0525 122.806 68.2145 122.535 71.3506C114.271 71.4133 106.003 71.3632 97.7347 71.3759C98.0181 63.8532 101.492 56.6096 106.916 51.4325C113.051 45.5595 121.306 42.348 129.628 41.2193Z" fill="white"/>
<path d="M0.296849 25.1417C14.017 16.9196 27.7045 8.6226 41.4162 0.379313C41.4289 64.0331 41.3746 127.686 41.4415 191.34C35.1766 195.151 28.8749 198.909 22.6021 202.711C15.0625 207.201 7.60733 211.837 0.021892 216.244C0.0930432 153.874 0.0303337 91.4986 0.0514378 29.128C0.14309 27.8075 -0.248844 26.3869 0.296849 25.1417Z" fill="#7FC5DE"/>
<path d="M129.628 41.2199C121.306 42.3487 113.051 45.5602 106.916 51.4331C101.492 56.6103 98.0181 63.8538 97.7347 71.3766C106.003 71.3639 114.271 71.414 122.535 71.3513C122.806 68.2152 123.935 65.0532 126.201 62.8041C128.67 60.2263 132.344 59.1307 135.847 59.1681C139.396 59.0807 143.295 59.7717 145.898 62.3796C147.806 64.2205 148.514 66.9568 148.526 69.5351C148.489 72.3299 148.818 75.2754 147.577 77.8827C146.26 80.944 143.153 82.768 140.05 83.5929C135.172 84.8591 130.095 84.2302 125.118 84.393C125.113 90.2823 125.08 96.1764 125.134 102.07C128.991 102.158 132.853 101.974 136.705 102.216C140.896 102.587 145.281 103.615 148.531 106.452C151.192 108.743 152.421 112.346 152.304 115.795C152.391 119.531 152.371 123.551 150.242 126.791C147.989 130.402 143.698 132.144 139.604 132.497C135.035 132.881 130.045 132.351 126.304 129.461C123.402 127.269 121.736 123.772 121.298 120.21C113.034 120.206 104.774 120.206 96.5106 120.206C96.9351 123.929 97.8221 127.616 99.3428 131.048C101.971 137.225 106.765 142.411 112.643 145.635C119.811 149.683 128.146 151.1 136.288 151.333C145.994 151.595 156.015 149.837 164.421 144.781C170.385 141.236 175.413 135.78 177.504 129.074C179.074 124.375 178.508 119.377 178.587 114.516C178.658 109.505 176.679 104.519 173.222 100.904C168.695 95.9931 162.292 93.2519 155.849 91.9405C162.988 90.1159 169.998 85.8257 173.206 78.9572C174.946 75.3749 174.484 71.3139 174.534 67.4651C174.584 63.2497 173.464 59.0138 171.202 55.4484C167.636 49.7502 161.747 45.8767 155.511 43.6276C147.26 40.6742 138.284 40.1201 129.628 41.2199ZM41.4167 0.379777C102.046 0.362894 162.676 0.379769 223.305 0.370724C227.037 0.32128 230.732 1.90409 233.319 4.58613C235.747 7.12707 237.209 10.6008 237.18 14.1288C237.209 23.6884 237.175 33.2516 237.196 42.8112C237.23 92.3029 237.23 141.794 237.196 191.286C171.948 191.398 106.694 191.29 41.4414 191.34C41.3751 127.687 41.4294 64.0329 41.4167 0.379777Z" fill="#39A5CC"/>
</svg>
