<svg xmlns="http://www.w3.org/2000/svg" width="256" height="256" fill="none" viewBox="0 0 256 256"><path fill="#ebebeb" d="M127.538 46.5c-45.007 0-81.624 36.617-81.624 81.624s36.617 81.624 81.624 81.624 81.624-36.617 81.624-81.624S172.545 46.5 127.538 46.5m0 123.865c-23.332 0-42.24-18.909-42.24-42.241s18.908-42.24 42.24-42.24 42.241 18.908 42.241 42.24-18.909 42.241-42.241 42.241"/><path fill="url(#a)" fill-rule="evenodd" d="M134.377 33.093V2.617C200.619 6.16 253.241 61 253.241 128.124S200.619 250.073 134.377 253.63v-30.476c49.37-3.526 88.464-44.779 88.464-95.03 0-50.252-39.094-91.504-88.464-95.03M55.55 190.443c-13.087-15.109-21.523-34.352-23.028-55.48H2.032c1.58 29.564 13.406 56.392 31.934 77.049l21.57-21.569zm65.148 63.187v-30.476c-21.144-1.505-40.387-9.926-55.495-23.028l-21.57 21.569c20.673 18.544 47.5 30.354 77.049 31.935z" clip-rule="evenodd"/><defs><linearGradient id="a" x1="139.303" x2="15.758" y1="20.266" y2="143.812" gradientUnits="userSpaceOnUse"><stop stop-color="#0096ff"/><stop offset="1" stop-color="#ff1e56"/></linearGradient></defs></svg>
