<svg width="224" height="256" viewBox="0 0 224 256" fill="none"
  xmlns="http://www.w3.org/2000/svg">
  <g clip-path="url(#clip0_74_1132)">
    <path fill-rule="evenodd" clip-rule="evenodd" d="M213.588 197.422C215.894 227 215.894 240.866 215.894 256H147.407C147.407 252.704 147.466 249.687 147.526 246.63C147.711 237.123 147.905 227.21 146.363 207.191C144.326 177.883 131.696 171.371 108.472 171.371H87.8973H0.758545V118.046H111.732C141.067 118.046 155.734 109.129 155.734 85.5199C155.734 64.7601 141.067 52.1795 111.732 52.1795H0.758545V0H123.955C190.365 0 223.367 31.3433 223.367 81.4112C223.367 118.86 200.144 143.284 168.772 147.354C195.255 152.646 210.737 167.707 213.588 197.422Z" fill="#EBEBEB"/>
    <path d="M0.758545 256V216.249H73.1725C85.2681 216.249 87.8944 225.213 87.8944 230.559V256H0.758545Z" fill="#EBEBEB"/>
  </g>
  <defs>
    <clipPath id="clip0_74_1132">
      <rect width="223" height="256" fill="#EBEBEB" transform="translate(0.758545)"/>
    </clipPath>
  </defs>
</svg>
