<svg width="239" height="256" viewBox="0 0 239 256" fill="none"
  xmlns="http://www.w3.org/2000/svg">
  <g clip-path="url(#clip0_18_549)">
    <path fill-rule="evenodd" clip-rule="evenodd" d="M120.03 -0.0302734L0.0297852 41.4836L17.209 200.149L120.03 255.97V-0.0302734Z" fill="#412846"/>
    <path fill-rule="evenodd" clip-rule="evenodd" d="M119.03 -0.0302734L239.03 41.4836L221.85 200.149L119.03 255.97V-0.0302734Z" fill="#4B314F"/>
    <path fill-rule="evenodd" clip-rule="evenodd" d="M179.132 87.5869L179.11 87.5188C184.576 93.5946 187.383 100.809 187.532 109.161C187.682 117.514 184.874 126.325 179.046 135.567C183.402 132.185 188.432 124.885 194.121 113.751C196.578 136.315 187.448 153.455 166.645 165.194C173.287 164.582 182.105 160.215 193.042 152.076C181.371 180.141 159.911 194.948 128.662 196.498C98.462 196.49 78.8981 178.364 78.9133 178.376C66.4973 168.724 57.9545 156.56 53.3142 141.937C45.8882 133.837 45.8143 132.969 45.0481 129.733C44.2822 126.496 45.5322 125.592 47.7074 122.425C49.1578 120.314 49.4993 117.276 48.7544 113.368C46.9056 110.807 45.841 106.797 45.5605 101.337C45.5605 98.6981 47.3234 95.914 50.8502 92.9847C54.3764 90.0552 56.5401 87.8022 57.3238 86.2513C57.9215 85.4055 58.1526 81.7395 58.0166 75.253C57.98 68.8819 61.5219 65.4156 68.6423 64.8544C79.3224 64.012 85.3458 55.9899 88.7013 52.3414C90.9383 49.9091 94.2492 48.7269 98.4245 48.7042C104.304 48.4289 109.652 50.6796 114.26 55.3243C125.737 54.7315 137.493 57.8227 149.405 64.5195C166.333 74.5626 175.571 85.4385 177.12 97.0926C175.306 112.43 154.677 112.029 115.326 95.8861C94.7325 101.712 84.6082 114.336 84.9445 133.759C84.9306 151.583 93.5676 164.534 110.796 172.601C102.399 164.367 98.823 157.446 100.027 151.715C117.494 172.374 137.389 180.095 159.678 174.881C149.851 175.224 142.067 172.066 136.209 165.359C151.275 164.994 165.498 158.008 178.891 144.333C171.16 150.477 163.07 152.804 154.504 151.34C177.703 133.124 185.913 111.873 179.132 87.5869ZM137.025 84.7844C138.906 84.7844 140.431 83.2619 140.431 81.3835C140.431 79.5051 138.906 77.9825 137.025 77.9825C135.145 77.9825 133.62 79.5051 133.62 81.3835C133.62 83.2619 135.145 84.7844 137.025 84.7844Z" fill="#BA2BD2"/>
  </g>
  <defs>
    <clipPath id="clip0_18_549">
      <rect width="239" height="256" fill="#EBEBEB"/>
    </clipPath>
  </defs>
</svg>
