<svg xmlns="http://www.w3.org/2000/svg" width="257" height="151" fill="none" viewBox="0 0 257 151">
  <g clip-path="url(#a)">
    <path fill="#ebebeb" d="M256.24 145.473c-9.264 2.357-14.994.102-20.134-7.619-11.541-17.29-24.28-33.788-36.572-50.59-1.584-2.175-3.23-4.308-5.282-7.01-14.547 19.626-29.074 38.319-42.708 57.762-4.876 6.949-9.996 9.976-19.098 7.518l54.695-73.407L136.225 5.83c8.757-1.707 14.812-.833 20.175 7.01 11.845 17.31 24.91 33.788 37.933 51.22 13.105-17.372 26.006-33.87 38.197-51.017 4.896-6.949 10.159-9.59 18.956-7.03-6.664 8.838-13.186 17.534-19.748 26.169-8.859 11.642-17.555 23.426-26.738 34.824-3.271 4.063-2.743 6.705.183 10.545 16.985 22.329 33.767 44.881 51.057 67.921M1.581 70.908c1.463-7.335 2.438-14.812 4.47-22.004 12.19-43.54 62.172-61.643 96.508-34.662 20.114 15.828 25.112 38.136 24.117 63.29H13.305c-1.707 45.124 30.78 72.37 72.188 58.473 14.526-4.876 23.08-16.254 27.367-30.476 2.174-7.132 5.77-8.25 12.475-6.217-3.434 17.798-11.215 32.67-27.47 41.976-24.38 13.937-59.184 9.427-77.49-9.936-10.809-11.377-15.4-25.539-17.432-40.838-.305-2.438-.935-4.835-1.423-7.253q.061-6.177.061-12.353m11.927-3.027h102.461c-.671-32.63-20.988-55.812-48.762-56.016-30.476-.244-52.379 22.39-53.7 56.016"/>
  </g>
  <defs>
    <clipPath id="a">
      <path fill="#ebebeb" d="M.91.325h256v150.35H.91z"/>
    </clipPath>
  </defs>
</svg>
