<svg xmlns="http://www.w3.org/2000/svg" width="256" height="256" fill="none" viewBox="0 0 256 256"><path fill="#000" d="M128.513.915A127.01 127.01 0 0 1 255.52 127.923a127.01 127.01 0 0 1-127.007 127.008A127.01 127.01 0 0 1 1.505 127.923 127.01 127.01 0 0 1 128.513.915"/><path fill="#ebebeb" d="m72.002 51.42.834 18.575-2.263-.834q1.31-10.12 6.787-14.645t13.931-4.525q10.24 0 15.956 6.43 5.834 6.43 5.834 17.503v40.603h-17.98v-34.65q0-5.476-.952-8.81-.834-3.334-2.977-5.001-2.143-1.786-5.715-1.786-5.715 0-8.692 3.929-2.858 3.93-2.858 11.669v34.649H55.81V51.42zm114.766 63.107-.715-18.218 2.262.834q-1.31 9.882-6.787 14.407-5.476 4.406-13.693 4.406-10.12 0-15.836-6.43-5.715-6.429-5.715-17.503V51.42h18.098v34.65q0 5.476.834 8.81t2.858 5.121q2.143 1.666 5.715 1.666 5.477 0 8.335-3.929 2.977-3.93 2.977-11.669V51.42h17.979v63.107zm-72.57 26.195v80.968H96.1v-30.958l1.548.952q-1.548 4.406-4.406 7.502-2.857 2.976-6.787 4.524t-8.692 1.548q-8.573 0-14.765-4.286-6.072-4.406-9.168-11.788-2.977-7.501-2.977-16.908t2.977-16.789q3.096-7.501 9.168-11.788 6.192-4.405 14.765-4.405 7.384 0 12.502 3.453 5.12 3.453 7.502 10.001l-1.31 1.072.476-13.098zM95.743 182.04q1.547-4.406 1.547-9.764 0-5.24-1.547-9.526-1.548-4.405-4.763-7.025-3.096-2.738-7.62-2.738-6.787 0-10.479 5.596-3.572 5.477-3.572 13.693 0 8.334 3.572 13.812 3.692 5.477 10.478 5.477 4.525 0 7.62-2.619 3.216-2.62 4.764-6.906m91.771-20.838q-.715-4.286-4.049-6.787-3.215-2.619-7.382-2.619t-6.787 2.024q-2.62 2.025-2.5 5.358.119 3.214 3.214 5.001 3.096 1.667 8.335 2.62 9.764 1.548 15.718 3.929 5.953 2.262 8.93 6.073 3.096 3.81 3.096 9.763 0 6.192-3.692 10.359-3.572 4.168-9.882 6.311-6.312 2.024-14.527 2.024-9.168 0-16.074-2.5-6.787-2.62-10.717-7.383-3.929-4.881-4.405-11.549l18.098-.953q.596 3.096 2.144 5.358 1.667 2.143 4.286 3.334 2.738 1.072 6.311 1.072 4.049 0 7.025-1.548 2.976-1.667 2.977-4.882-.12-2.144-1.429-3.572-1.191-1.43-3.215-2.143-1.905-.715-5.239-1.429-.953-.12-2.381-.476-9.645-1.906-15.36-4.049-5.597-2.262-8.693-5.834-3.095-3.692-3.095-9.407 0-6.191 3.334-10.716 3.453-4.524 9.882-6.906 6.43-2.5 15.36-2.501 11.907 0 19.528 5.716 7.62 5.596 9.287 15.598z"/></svg>
