<svg width="116" height="256" viewBox="0 0 116 256" fill="none"
  xmlns="http://www.w3.org/2000/svg">
  <g clip-path="url(#clip0_20_1090)">
    <path fill-rule="evenodd" clip-rule="evenodd" d="M2.33668 69.064C4.14726 88.1236 5.94339 107.076 7.78081 126.453C10.7764 121.302 12.9442 116.362 16.2144 112.316C19.2595 108.546 23.0974 105.067 27.274 102.658C32.7264 99.5114 39.8758 102.474 41.643 108.054C42.1178 109.551 40.9844 111.558 40.588 113.331C39.2544 112.627 37.5346 112.239 36.6634 111.162C32.9617 106.584 30.732 106.044 26.6381 109.999C19.0015 117.382 14.7073 126.631 13.068 137.026C12.7522 139.037 14.0095 141.293 14.54 143.436C16.6273 142.718 19.051 142.453 20.7377 141.198C26.2211 137.117 29.6193 131.565 31.4938 124.93C31.9006 123.493 34.1055 122.566 35.4845 121.404C36.1452 122.762 37.6523 124.362 37.3364 125.438C34.4161 135.429 31.2939 145.361 27.9718 155.227C27.6373 156.226 25.802 156.723 24.6603 157.454C24.1999 156.141 23.2316 154.766 23.3865 153.53C23.7333 150.726 24.6355 147.99 25.2652 145.422L10.3181 152.303C11.1542 161.845 12.0213 172.55 13.0494 183.24C13.8381 191.403 15.1738 193.517 23.2131 195.066C32.5942 196.872 42.1509 198.026 51.6869 198.728C65.7307 199.786 79.8522 198.457 93.452 194.797C98.5555 193.426 100.591 190.069 100.957 185.059C101.291 180.445 102.038 175.859 102.557 171.258C103.574 162.192 104.563 153.125 105.604 143.68C102.162 145.86 99.4556 148.3 96.2907 149.334C93.9867 150.088 91.0799 148.986 88.4394 148.709C88.9452 146.285 88.9142 143.554 90.0827 141.51C91.9862 138.17 94.6742 135.273 97.0278 132.189L96.0141 130.968C94.3274 131.966 92.2319 132.62 91.0324 134.034C88.5922 136.912 86.2035 139.992 84.5705 143.366C81.8371 149.012 79.754 154.973 77.3075 160.762C76.2443 163.272 75.3276 167.112 71.7664 165.646C67.9573 164.075 70.6371 160.72 71.531 158.334C72.9535 154.527 74.8322 150.889 76.1039 148.09C72.4993 148.519 68.8451 149.037 65.1744 149.357C63.6218 149.489 61.7762 148.639 60.5065 149.213C56.2845 151.12 53.6089 150.354 52.7315 145.68C50.7764 146.95 49.1207 148.67 47.1697 149.132C44.8017 149.696 41.5893 150.065 39.8551 148.882C38.4657 147.935 37.9599 144.373 38.4347 142.284C39.3782 138.13 41.1413 134.138 42.8156 130.188C43.852 127.742 44.8946 123.836 48.3919 125.537C51.8479 127.215 48.7098 130.048 47.9129 132.321C46.6763 135.835 45.4169 139.342 44.17 142.852L46.1519 144.049C48.0389 142.41 50.3904 141.074 51.7116 139.063C53.8753 135.777 55.1821 131.937 57.2301 128.563C58.0786 127.166 59.9057 126.365 61.291 125.293C61.5718 127.073 62.2448 128.902 62.0218 130.62C61.8009 132.356 60.5808 133.943 59.9965 135.661C59.1191 138.234 58.411 140.864 57.5191 143.855C61.7369 144.016 63.5434 142.241 64.7346 139.109C68.5044 129.214 72.3155 119.329 76.459 109.586C77.1671 107.918 79.5744 106.977 81.1991 105.697C81.387 107.708 82.283 109.987 81.6451 111.682C78.2489 120.66 74.4358 129.478 70.8518 138.386C70.2469 139.887 70.0528 141.553 69.6709 143.143C75.9862 140.304 81.2569 137.166 83.1811 130.454C83.6518 128.823 85.58 127.612 86.8373 126.206L89.7607 129.302C90.6484 128.555 91.4618 127.704 92.426 127.083C95.4608 125.128 98.7289 123.404 101.929 126.433C105.24 129.565 102.734 132.616 101.004 135.325C99.1212 138.279 96.8151 140.961 94.6928 143.76C99.466 140.684 105.984 139.305 106.851 132.657C108.965 116.42 110.823 100.149 112.708 83.8831C113.267 79.0686 113.567 74.2232 114.002 69.2064C76.4074 78.3089 39.6198 78.3646 2.33668 69.064ZM18.4729 195.761C20.2835 200.545 23.0335 205.244 23.754 210.236C25.2755 220.862 25.6616 231.649 26.7393 242.347C26.8962 243.906 27.9057 246.047 29.1651 246.732C47.7044 256.807 66.4234 258.554 85.3385 247.535C88.1607 245.892 88.683 243.722 89.0484 240.671C90.8177 225.845 86.8786 210.12 96.3568 196.16C69.8154 202.743 43.9119 202.948 18.4729 195.761ZM82.4544 71.7251C91.4598 70.856 100.356 68.7419 109.262 66.9953C110.941 66.6671 112.431 65.3891 114.008 64.5489C111.929 62.7218 110.131 61.8423 108.253 61.6214C98.9003 60.5169 89.515 59.6663 80.1689 58.5081C78.7568 58.3326 76.236 56.5902 76.3413 56.2722C79.0685 48.0554 78.9344 38.7548 85.1238 31.8304C92.9462 23.0769 100.849 14.3997 108.692 5.71842C102.858 -0.557712 102.78 -0.565969 97.4923 4.92771C94.5029 8.03274 91.7715 11.4309 88.5282 14.2428C76.5271 24.6438 68.0977 36.9628 66.4544 53.2044C66.0766 56.9308 64.0306 58.2769 60.1184 58.3347C47.2027 58.5225 34.2727 58.8776 21.386 59.7262C15.0004 60.1453 8.69332 61.7845 2.34907 62.8704L2.29126 65.2425C6.26132 66.4668 10.155 68.0751 14.2097 68.8534C36.8038 73.1847 59.6105 73.928 82.4544 71.7251ZM75.2368 66.0518C70.123 70.1809 65.8969 70.1809 61.8154 66.0518H75.2368Z" fill="#EB4A4B"/>
  </g>
  <defs>
    <clipPath id="clip0_20_1090">
      <rect width="115.613" height="256" fill="#EBEBEB" transform="translate(0.344238 -0.00488281)"/>
    </clipPath>
  </defs>
</svg>
