<svg xmlns="http://www.w3.org/2000/svg" width="257" height="207" fill="none" viewBox="0 0 257 207">
  <g clip-path="url(#a)">
    <path fill="#ea4335" d="m171.162 57.319 22.253-22.254 1.483-9.37C154.347-11.176 89.886-6.996 53.331 34.42 43.177 45.924 35.644 60.265 31.627 75.074l7.97-1.123 44.505-7.34 3.436-3.514c19.797-21.741 53.27-24.666 76.128-6.167z"/>
    <path fill="#4285f4" d="M225.115 74.418a100.25 100.25 0 0 0-30.217-48.722l-31.232 31.232a55.52 55.52 0 0 1 20.379 44.037v5.544c15.351 0 27.797 12.445 27.797 27.796 0 15.352-12.446 27.485-27.797 27.485h-55.671l-5.466 5.934v33.34l5.466 5.231h55.671c39.93.311 72.552-31.494 72.863-71.424a72.3 72.3 0 0 0-31.793-60.453"/>
    <path fill="#34a853" d="M72.78 206.296h55.594V161.79H72.781a27.3 27.3 0 0 1-11.4-2.498l-7.886 2.42-22.41 22.253-1.951 7.574c12.566 9.489 27.9 14.825 43.647 14.757"/>
    <path fill="#fbbc05" d="M72.78 61.925C32.85 62.163.674 94.727.912 134.657a72.3 72.3 0 0 0 28.223 56.881l32.248-32.247c-13.991-6.321-20.208-22.786-13.887-36.776s22.786-20.207 36.774-13.887a27.8 27.8 0 0 1 13.887 13.887l32.248-32.247a72.22 72.22 0 0 0-57.623-28.343"/>
  </g>
  <defs>
    <clipPath id="a">
      <path fill="#ebebeb" d="M.91.5h256v206H.91z"/>
    </clipPath>
  </defs>
</svg>
