<svg xmlns="http://www.w3.org/2000/svg" width="256" height="228" fill="none" viewBox="0 0 256 228">
  <g clip-path="url(#a)">
    <path fill="#e6e6e1" d="M0 .502h256v226.661H0z"/>
    <path fill="#d8d8d3" d="M255.999.501H.001L128.008 187.58z"/>
    <path fill="#b4b6b4" d="M100.922 227.163h54.169l-27.084-39.581z"/>
    <path fill="#1a1918" d="m128.046 119.411-54.608-80.15v68.802l31.182 45.801 23.373-34.385z"/>
    <path fill="#ed9d4a" d="m128.046 119.411 23.517 34.526 30.984-45.3V39.262l-54.501 80.15"/>
    <path fill="#bb7731" d="m127.993 119.479-23.373 34.385 23.45 34.428 23.493-34.355-23.517-34.525z"/>
    <path fill="#4cb2d4" d="M34.657 188.384h38.781v-80.321L34.657 51.137z"/>
    <path fill="#1b82ad" d="M34.657 39.262v11.876l38.781 56.925V39.262z"/>
    <path fill="#c02439" d="M182.547 108.636v79.746h38.767V51.962z"/>
    <path fill="#8f202f" d="M221.313 39.262h-38.766v69.375l38.767-56.673V39.262"/>
  </g>
  <defs>
    <clipPath id="a">
      <path fill="#ebebeb" d="M0 .5h256v227H0z"/>
    </clipPath>
  </defs>
</svg>
