<svg xmlns="http://www.w3.org/2000/svg" width="256" height="206" fill="none" viewBox="0 0 256 206">
  <g clip-path="url(#a)">
    <path fill="url(#b)" d="M28.24 28.16C27.759 14.29 38.565 1.5 53.172 1.5h149.677c14.606 0 25.413 12.79 24.93 26.66-.464 13.324.138 30.583 4.482 44.656C236.617 86.93 243.965 95.854 256 97v13c-12.035 1.147-19.383 10.069-23.74 24.185-4.344 14.073-4.946 31.332-4.482 44.656.483 13.869-10.324 26.659-24.93 26.659H53.171c-14.607 0-25.413-12.79-24.93-26.659.463-13.324-.139-30.583-4.483-44.656C19.401 120.069 12.035 111.147 0 110V97c12.035-1.146 19.401-10.068 23.758-24.184 4.344-14.073 4.947-31.332 4.483-44.655"/>
    <g filter="url(#c)">
      <path fill="url(#d)" d="M131.515 156.896c23.602 0 37.825-11.567 37.825-30.648 0-14.422-10.148-24.864-25.217-26.517v-.6c11.071-1.803 19.759-12.094 19.759-23.588 0-16.375-12.916-27.043-32.598-27.043H87v108.396zm-27.293-94.649h22.911c12.455 0 19.527 5.559 19.527 15.625 0 10.742-8.226 16.751-23.141 16.751h-19.297zm0 80.903v-35.681h22.756c16.299 0 24.756 6.009 24.756 17.728 0 11.718-8.226 17.953-23.756 17.953z"/>
      <path stroke="#ebebeb" stroke-width=".499" d="M131.515 156.896c23.602 0 37.825-11.567 37.825-30.648 0-14.422-10.148-24.864-25.217-26.517v-.6c11.071-1.803 19.759-12.094 19.759-23.588 0-16.375-12.916-27.043-32.598-27.043H87v108.396zm-27.293-94.649h22.911c12.455 0 19.527 5.559 19.527 15.625 0 10.742-8.226 16.751-23.141 16.751h-19.297zm0 80.903v-35.681h22.756c16.299 0 24.756 6.009 24.756 17.728 0 11.718-8.226 17.953-23.756 17.953z"/>
    </g>
  </g>
  <defs>
    <linearGradient id="b" x1="38.039" x2="261.74" y1="6.899" y2="184.473" gradientUnits="userSpaceOnUse">
      <stop stop-color="#9013fe"/>
      <stop offset="1" stop-color="#6610f2"/>
    </linearGradient>
    <linearGradient id="d" x1="94.788" x2="144.767" y1="55.635" y2="140.077" gradientUnits="userSpaceOnUse">
      <stop stop-color="#ebebeb"/>
      <stop offset="1" stop-color="#f1e5fc"/>
    </linearGradient>
    <clipPath id="a">
      <path fill="#ebebeb" d="M0 .5h256v205H0z"/>
    </clipPath>
    <filter id="c" width="98.808" height="124.864" x="78.766" y="42.263" color-interpolation-filters="sRGB" filterUnits="userSpaceOnUse">
      <feFlood flood-opacity="0" result="BackgroundImageFix"/>
      <feColorMatrix in="SourceAlpha" result="hardAlpha" values="0 0 0 0 0 0 0 0 0 0 0 0 0 0 0 0 0 0 127 0"/>
      <feOffset dy="1.996"/>
      <feGaussianBlur stdDeviation="3.992"/>
      <feColorMatrix values="0 0 0 0 0 0 0 0 0 0 0 0 0 0 0 0 0 0 0.15 0"/>
      <feBlend in2="BackgroundImageFix" result="effect1_dropShadow_18_768"/>
      <feBlend in="SourceGraphic" in2="effect1_dropShadow_18_768" result="shape"/>
    </filter>
  </defs>
</svg>
