<svg width="268" height="237" viewBox="0 0 268 237" fill="none"
  xmlns="http://www.w3.org/2000/svg">
  <path d="M158.308 118.35L133.927 142.194M153.432 92.1222L107.108 137.425M133.927 174.901C204.62 174.901 261.926 149.69 261.926 118.588C261.926 87.4871 204.62 62.2751 133.927 62.2751C63.2357 62.2751 5.92627 87.4871 5.92627 118.588C5.92627 149.69 63.2357 174.901 133.927 174.901ZM84.0436 146.745C119.391 206.599 170.376 242.512 197.925 226.963C225.477 211.411 219.156 150.283 183.809 90.4317C148.464 30.5755 97.4764 -5.33818 69.9293 10.2137C42.3774 25.7631 48.699 86.891 84.0436 146.745ZM84.0436 90.4317C48.699 150.286 42.3797 211.411 69.9269 226.963C97.4788 242.512 148.464 206.596 183.809 146.745C219.156 86.8888 225.477 25.7655 197.928 10.2137C170.376 -5.33818 119.391 30.578 84.0436 90.4317Z" stroke="#FAFAFA" stroke-width="10.6667" stroke-linecap="round"/>
</svg>
