<svg xmlns="http://www.w3.org/2000/svg" width="256" height="256" fill="none" viewBox="0 0 256 256"><g clip-path="url(#a)"><path fill="#eb5454" d="M214.832 141.727c-7.569 0-13.713-6.145-13.713-13.714 0-40.403-32.756-73.132-73.132-73.132s-73.132 32.755-73.132 73.132 32.755 73.132 73.132 73.132c27.902 0 52.165-15.613 64.481-38.61 15.929 10.338 37.476 8.518 51.453-5.459 8.044-8.043 12.052-18.567 12.052-29.089C255.973 57.307 198.666 0 127.987 0 57.307 0 0 57.335 0 128.013 0 198.692 57.308 256 127.987 256c35.339 0 67.355-14.32 90.511-37.502l-19.384-19.384c-18.197 18.198-43.331 29.459-71.101 29.459-55.54 0-100.559-45.019-100.559-100.56S72.446 27.454 127.987 27.454s100.559 45.018 100.559 100.559c0 7.569-6.145 13.714-13.714 13.714m-86.845 31.99c-25.239 0-45.704-20.465-45.704-45.704s20.465-45.704 45.704-45.704 45.704 20.465 45.704 45.704-20.465 45.704-45.704 45.704"/></g><defs><clipPath id="a"><path fill="#ebebeb" d="M0 0h256v256H0z"/></clipPath></defs></svg>
