<svg width="256" height="250" viewBox="0 0 256 250" fill="none"
  xmlns="http://www.w3.org/2000/svg">
  <g clip-path="url(#clip0_21_2003)">
    <path d="M45.2233 0H210.179C235.181 0 255.402 20.221 255.402 45.2233V203.804C255.402 228.806 235.181 249.027 210.179 249.027H45.2233C20.221 249.027 0 228.806 0 203.804V45.2233C0 20.221 20.221 0 45.2233 0Z" fill="#00005B"/>
    <path d="M105.128 153.087H65.4641L57.3603 178.25C57.1474 179.209 56.2937 179.849 55.3346 179.742H35.2896C34.1166 179.742 33.7972 179.103 34.1166 177.823L68.4499 79.4089C68.7692 78.3424 69.0896 77.3833 69.5165 76.1038C69.9433 73.8652 70.1562 71.5191 70.1562 69.173C70.0497 68.6397 70.4756 68.1065 71.0088 68H98.6243C99.3705 68 99.9038 68.3194 100.01 68.8527L138.928 177.609C139.249 178.782 138.928 179.315 137.862 179.315H115.577C114.831 179.422 114.085 178.889 113.871 178.142L105.127 152.553V153.086L105.128 153.087ZM71.6486 131.869H98.7308C98.091 129.63 97.2384 126.964 96.2782 124.192C95.3181 121.314 94.359 118.221 93.3999 115.023C92.3333 111.718 91.3742 108.519 90.3076 105.214C89.241 101.908 88.2819 98.8162 87.4293 95.7239C86.5766 92.7381 85.8304 89.9663 85.0832 87.4073H84.8703C83.9102 91.9919 82.7382 96.5766 81.2448 101.162C79.6459 106.28 78.046 111.611 76.3397 116.943C74.9538 122.38 73.2474 127.392 71.6486 131.87V131.869ZM201.73 143.491H167.93C168.356 146.796 169.422 150.101 171.235 152.981C173.154 155.859 175.819 158.098 179.018 159.378C183.283 161.191 187.975 162.15 192.666 162.043C196.398 161.937 200.13 161.617 203.754 160.87C207.059 160.444 210.258 159.591 213.244 158.418C213.777 157.991 214.097 158.205 214.097 159.27V175.584C214.097 176.011 213.99 176.437 213.884 176.864C213.671 177.184 213.457 177.397 213.137 177.61C209.726 179.103 206.207 180.169 202.475 180.809C197.463 181.768 192.452 182.195 187.334 182.088C179.23 182.088 172.407 180.809 166.862 178.356C161.638 176.117 157.053 172.599 153.427 168.227C150.016 164.069 147.563 159.377 146.071 154.259C144.578 149.248 143.831 144.023 143.831 138.692C143.831 132.935 144.684 127.283 146.497 121.738C148.203 116.408 150.868 111.503 154.493 107.131C158.012 102.866 162.383 99.4539 167.394 97.0014C172.406 94.5489 178.376 93.6962 185.201 93.6962C190.852 93.5898 196.503 94.6563 201.728 97.0014C206.099 98.9206 209.938 101.8 212.924 105.531C215.695 109.157 217.935 113.208 219.321 117.686C220.707 121.951 221.347 126.322 221.347 130.694C221.347 133.253 221.24 135.492 221.134 137.518C220.921 139.544 220.813 141.037 220.707 141.996C220.6 142.743 219.961 143.382 219.215 143.382C218.575 143.382 217.402 143.489 215.695 143.595C213.989 143.808 211.963 143.916 209.511 143.916C207.058 143.916 204.499 143.489 201.728 143.489L201.73 143.491ZM167.93 127.924H190.427C193.199 127.924 195.226 127.924 196.504 127.818C197.357 127.711 198.21 127.497 198.957 126.965V125.898C198.957 124.512 198.744 123.233 198.317 121.953C196.398 115.983 190.746 111.93 184.455 112.144C178.591 111.824 173.046 114.916 170.275 120.248C168.995 122.701 168.249 125.26 167.929 127.925L167.93 127.924Z" fill="#9999FF"/>
  </g>
  <defs>
    <clipPath id="clip0_21_2003">
      <rect width="256" height="250" fill="#EBEBEB"/>
    </clipPath>
  </defs>
</svg>
