<svg width="257" height="232" viewBox="0 0 257 232" fill="none"
  xmlns="http://www.w3.org/2000/svg">
  <g clip-path="url(#clip0_21_1800)">
    <path d="M56.525 8.66883L128.667 1.09375L200.808 8.66883L256.667 83.0347L128.667 230.906L0.666687 83.0347L56.525 8.66883Z" fill="#FDB300"/>
    <path d="M52.5172 83.0332L128.667 230.905L0.666687 83.0332H52.5172ZM204.816 83.0332L128.667 230.905L256.667 83.0332H204.816Z" fill="#EA6C00"/>
    <path d="M52.5171 83.0332H204.816L128.667 230.905L52.5171 83.0332Z" fill="#FDAD00"/>
    <path d="M128.667 1.09375L56.525 8.66883L52.5171 83.0347L128.667 1.09375ZM128.667 1.09375L200.808 8.66883L204.816 83.0347L128.667 1.09375Z" fill="#FDD231"/>
    <path d="M256.666 83.0339L200.808 8.66797L204.816 83.0339H256.666Z" fill="#FDAD00"/>
    <path d="M128.667 1.09375L52.5171 83.0347H204.816L128.667 1.09375Z" fill="#FEEEB7"/>
    <path d="M0.666687 83.0339L56.5251 8.66797L52.5172 83.0339H0.666687Z" fill="#FDAD00"/>
  </g>
  <defs>
    <clipPath id="clip0_21_1800">
      <rect width="256" height="230.82" fill="#EBEBEB" transform="translate(0.666687 0.589844)"/>
    </clipPath>
  </defs>
</svg>
