<svg xmlns="http://www.w3.org/2000/svg" width="257" height="200" fill="none" viewBox="0 0 257 200"><g clip-path="url(#a)"><path stroke="#ab7f45" stroke-width=".442" d="M153.062 31.247c-2.21 2.21-3.979 4.421-4.863 7.074-.442 1.326-.885 2.21-.442 2.653.442 2.21 6.632 3.095 8.842 3.095l19.013.884 14.59 1.769.884.884c0 1.326-1.326 1.768-2.21 1.768h-3.979c-.885 0-2.211.885-2.211 2.211l-1.327 13.706h.885l5.305-3.094 4.864-2.653c5.748-2.653 11.053-7.075 15.917-11.496 3.537-3.095 6.632-6.19 7.959-10.611s-1.769-7.959-6.19-8.843"/><path stroke="#ab9655" stroke-width=".442" d="m210.099 28.594-6.19-.884-15.033.442c-1.327 0-1.769-.442-1.327-1.769l1.327-2.21 7.958-6.632 7.959-7.075 4.863-5.305v-.443a53.05 53.05 0 0 0-23.875 4.864c-10.169 4.421-19.897 10.17-28.297 17.686l-4.422 3.979"/><path stroke="#ffd259" stroke-width=".442" d="m210.541 28.594-.442.442v.442l-2.211 5.306-2.653 2.21-5.748 2.653-11.053 2.211h-7.517l-6.632-.884-11.053-2.653-3.095-1.327-2.653-1.326-2.211-2.21-.442-.443-.442-.442-.442-.442-.443-.884"/><path stroke="#ab836a" stroke-width=".442" d="m14.23 97.126 6.19-1.769"/><path stroke="#ab806f" stroke-width=".442" d="M19.978 95.358 37.22 87.84l2.653-.442c3.98-.442 3.98 5.306 4.421 7.959 0 3.979.885 7.958 2.653 11.053s5.306 3.979 8.843 3.979c4.864-.442 9.727-.884 14.59-2.21l15.918-3.095 5.306-1.327 2.652-.442c2.653.442 3.538 3.095 3.98 5.306l.442 5.748c0 1.326-.442 1.768-1.769 2.21-.884 0-2.21-.884-2.21-1.768v-2.211"/><path stroke="#a4655a" stroke-width=".442" d="m95.142 112.601-.442-2.21"/><path stroke="#825451" stroke-width=".442" d="m94.7 110.39-.443-2.653-.442-.442-1.326.442"/><path stroke="#a4655a" stroke-width=".442" d="m92.047 107.738-22.992 4.863-11.053 1.327c-5.748.442-11.054 0-14.149-5.306-1.326-2.211-2.653-4.422-3.095-7.074l-.884-3.98"/><path stroke="#825451" stroke-width=".442" d="M40.316 97.569v-6.19h-.442l-11.938 4.864"/><path stroke="#a4655a" stroke-width=".442" d="m27.936 96.242-7.958 3.537v3.095"/><path stroke="#ab806f" stroke-width=".442" d="m19.536 102.873 2.652 8.843c4.864 10.169 12.38 18.128 22.107 23.433l2.211 1.327"/><path stroke="#a65e4b" stroke-width=".442" d="M46.506 136.477a84 84 0 0 0 34.93 7.958c5.747-.442 11.053-1.768 16.359-3.979"/><path stroke="#825451" stroke-width=".442" d="M97.795 140.457c4.863-2.211 9.727-4.864 13.706-8.401l1.769-1.326c3.095-3.095 6.19-7.075 8.4-11.496l1.769-4.422c2.211-6.632 3.979-13.264 4.421-20.338l-.442-10.17"/><path stroke="#a4655a" stroke-width=".442" d="M127.418 84.305c-.442-5.748-1.326-11.054-3.537-15.918l-6.632-11.053"/><path stroke="#ab806f" stroke-width=".442" d="M117.249 57.334c-3.979-5.748-8.401-10.612-14.149-15.033"/><path stroke="#ab836a" stroke-width=".442" d="m103.542 42.3-2.652-2.21"/><path stroke="#ab8666" stroke-width=".442" d="M100.447 40.09c-7.958-5.306-16.8-7.959-26.086-8.843l-8.843-.442c-19.012 0-35.371 11.053-47.309 25.644-5.748 7.516-9.727 16.801-12.822 26.086-1.326 4.422-1.769 8.843.442 12.822.884 1.327 2.21 2.211 3.537 2.211l4.422-.442"/><path stroke="#ffc68f" stroke-width=".442" d="m100.447 40.09-3.537.884h-.442l-.884.442-.442.442h-.885l-.442.443-.884.442h-.442l-.442.442h-.442l-.443.442h-.442l-1.326.884h-1.327a.44.44 0 0 1-.442.442l-.884.442h-3.537l-.442.443h-7.517l-.442.442h-3.537l-.442.442h-2.21l-.443.442"/><path stroke="#ffe2b1" stroke-width=".442" d="M68.171 47.164c-3.98-5.747-10.611-7.074-17.243-6.19-7.517 1.327-15.917 4.864-20.781 10.612s-5.748 12.822-1.769 19.012"/><path stroke="#ffc68f" stroke-width=".442" d="M28.378 70.598c-.884 0-1.326.442-1.326.884l-.442.442-1.327 1.326v.885l-1.768 1.326v.885l-.884.442v.884l-.885.442v.884l-.884.885-.442.442v.884l-.442.442v.442l-.885.885-.442.442v.884l-.442.442v.442l-.442.442v.443c-.442.442-.884.442-.442.884l-.442.442v.884c-.442.442-.885.442-.442.885l-.443.442v.884l-.442.884v.442c-.442.443-.884.443-.442.885v.442l-.442.884-.442.442v.442l-.442.443v1.768"/><path stroke="#ffbf98" stroke-width=".442" d="M103.1 42.3v.443h.442v.442h-.884l-.884.442h-.442l-1.327.442h-1.326l-.442.442-1.769.443-.442.442h-.884l-.442.442h-.443l-.884 1.326h-.884l-.884.885-.443.442-.884.442v.442l-3.095 1.327H86.3l-.884.442h-2.653l-.885.442h-7.516v.442h-2.21l-1.327.442"/><path stroke="#ffe0bf" stroke-width=".442" d="m71.266 52.47-.884-2.21"/><path stroke="#ffdfb6" stroke-width=".442" d="m70.382 50.26-1.769-3.096"/><path stroke="#ebebebce2" stroke-width=".442" d="m69.94 50.26-1.769-.442-1.769-.884h-3.537l-3.979.884-.442.442h-.442l-.884.442-2.653.884c-6.19 2.211-11.938 5.748-17.244 10.17l-5.305 5.305-.885 1.327h.442v2.653l3.538 3.095.884.884c.442.442.884.884.442 1.326"/><path stroke="#ffdcba" stroke-width=".442" d="m36.337 76.345-3.98-1.769"/><path stroke="#ffdfb6" stroke-width=".442" d="m32.358 74.577-3.98-3.98"/><path stroke="#f9a288" stroke-width=".442" d="M117.249 57.334c1.326 5.306 2.211 9.727 2.211 13.264v9.727c0 5.306-.885 10.17-3.538 15.033l-6.632 10.169q-11.937 14.592-29.181 23.876-7.296 3.979-14.59 5.306l-15.476 1.326"/><path stroke="#fb9b78" stroke-width=".442" d="m50.486 136.035-3.538.442"/><path stroke="#f9a288" stroke-width=".442" d="M19.536 102.874c3.979-.884 8.4-1.326 12.38-.884 2.21 0 4.863 0 6.632 1.768s3.537 4.422 4.863 7.517c1.327 2.211 3.095 3.537 6.19 3.979h11.054l30.065-5.306c1.327-.442 1.769 0 2.211.885l1.769 1.768"/><path stroke="#ffbf98" stroke-width=".442" d="M19.978 95.357v-.442h.442l.442-.443-.442-.442.442-.442v-.884l.442-.442v-.442l.442-.442v-.443l.442-.442v-.442l.443-.442v-.442l.442-.442v-.442c.442-.443.884-.443.442-.885v-.442l.442-.442.442-.442v-.884l.442-.443v-.442l.884-.884.443-.442v-.884l.442-.443v-.442l.884-.442v-.884l.884-.442v-.885l1.327-.884v-.884l1.326-.884v-.443l.885-.884h.442"/><path stroke="#ffddc4" stroke-width=".442" d="m36.78 76.346 3.978.884"/><path stroke="#ffdece" stroke-width=".442" d="M40.316 77.229c10.612 2.21 21.223-3.537 26.97-11.938"/><path stroke="#ffddc4" stroke-width=".442" d="M67.287 65.293c3.095-3.98 3.98-7.959 3.537-12.822"/><path stroke="#ebebebef5" stroke-width=".442" d="m67.287 65.291 1.326-3.537v-.884l.885-2.21c.442-.443 0-1.327-.443-1.77h-3.537l-.884.443h-.442l-.884.442h-.443l-.884.442h-.442v.442h-.442l-.884.442h-.443l-.884.443h-.442l-.884.442h-.442l-.443.442h-.884l-.442.442-2.653.884-3.095 1.769-.442.442-.884.884-1.327 1.327h-.884l-.884 1.326h-.885l-2.21 2.653H41.2l-3.537 3.537v1.769l.443.442 2.21 1.326"/><path stroke="#d0766a" stroke-width=".442" d="M127.418 84.305v4.863l-.442 4.422c-.884 6.632-2.653 13.264-4.864 19.454l-1.768 3.979"/><path stroke="#f48064" stroke-width=".442" d="M120.344 117.021h-1.327l-1.326 1.327h-.884l-4.422 2.653-2.653 1.768-2.21 1.327-3.537 2.21-4.422 1.769-11.053 4.421-15.033 3.095-3.095.443h-.885l-.884.442h-3.979l-3.98.442h-7.516c-.884.442-1.768 0-3.095-.884"/><path stroke="#d0766a" stroke-width=".442" d="M92.047 107.738c1.326 0 1.768 1.769 2.21 2.653"/><path stroke="#d26f5a" stroke-width=".442" d="m97.795 140.455 3.537-2.653 1.768-1.326 1.769-1.769c5.748-4.421 11.496-10.611 15.475-17.686"/><path stroke="#d0766a" stroke-width=".442" d="m39.874 97.568-.442-1.768c-.442-.885-.884-1.769-2.21-1.769l-3.98.884-5.748 1.327"/><path stroke="#aba1a0" stroke-width=".442" d="M140.682 111.275c-3.537-.442-7.516-1.769-9.727-4.864 0 5.748 4.422 11.496 9.285 13.707l7.517 2.211c3.979.884 7.074 0 10.611-2.211 3.979-2.653 7.959-5.748 10.169-9.727a119.4 119.4 0 0 0 7.075-21.665c.884-5.748 1.768-11.054.884-16.802-.884-3.095-1.769-6.19-3.537-8.842-.442-.443-.442 0-.442.442 1.768 12.38-.885 24.76-7.075 35.371l-3.979 4.864a27.413 27.413 0 0 1-20.781 7.516Z" clip-rule="evenodd"/><path stroke="#6c4d48" stroke-width=".442" d="m141.567 96.683-1.769 3.537v3.095l.884 2.653.885 1.327.884.884.442.442c4.421 0 8.401-1.326 11.938-3.537s6.632-4.864 8.843-8.843a.44.44 0 0 0-.442-.442l-.885-1.327-1.326-.442-.884-.884h-.885v-.442l-3.979-.442-.884.442h-.885l-1.326.442h-.884"/><path stroke="#aba1a0" stroke-width=".442" d="M151.294 93.147c3.979-4.421 5.305-9.727 4.863-15.917-.884-7.959-8.843-14.149-16.359-8.4-3.979 2.652-5.748 7.073-6.632 11.495-1.326 6.632 1.326 15.033 8.401 16.36"/><path stroke="#c0aba7" stroke-width=".442" d="M151.294 93.147c-2.653 3.094-5.748 3.979-9.727 3.537"/><path stroke="#6c4d48" stroke-width=".442" d="M183.57 101.105c-1.326 1.769-2.653 3.537-3.095 5.748l-.884 3.537v.442c3.095 3.095 6.632 3.98 11.053 3.538 5.306-.443 9.727-2.211 12.822-5.748l.885-1.327.442-2.21.442-1.769v-2.653l-.884-2.21-2.211-1.77-2.653-1.326"/><path stroke="#aba1a0" stroke-width=".442" d="M199.487 95.358c1.327-3.095 2.211-6.19 1.769-9.727-.442-6.19-4.864-11.938-11.496-10.17-4.421.885-7.516 4.864-8.843 8.843-1.326 3.095-1.768 5.748-1.326 8.843q.663 4.642 3.979 7.959"/><path stroke="#c0aba7" stroke-width=".442" d="M199.487 95.357c-1.326 3.095-3.537 5.306-5.748 6.633-3.537 2.21-7.074 1.768-10.169-.885"/><path stroke="#aba1a0" stroke-width=".442" d="M212.751 112.159a73.8 73.8 0 0 0 4.864-31.835l-.884-4.863h-.442v11.496c-1.327 7.074-3.095 13.264-7.075 19.454a23.88 23.88 0 0 1-20.78 11.053c-3.98 0-7.517-1.768-10.612-4.863v.442l1.769 5.306c1.768 3.979 7.074 7.074 11.495 8.4q3.316 1.328 6.633 0c7.516-2.21 11.495-7.958 15.032-14.59Z" clip-rule="evenodd"/><path stroke="#825451" stroke-width=".442" d="M227.342 134.266v9.285c1.769-.442 3.537-.884 5.748-2.211 3.095-1.326 6.19-3.095 7.958-5.747 1.769-1.769 2.653-4.864 3.98-7.075v-.442h-.442"/><path stroke="#a4655a" stroke-width=".442" d="m244.586 128.077-3.98-2.211h-.884l-.884 1.768c-.884 1.769-3.537 1.327-3.537-.884 0-3.979 3.537-6.19 7.516-4.421 2.211 1.326 4.864 3.537 7.074.884.885-.884 1.327-2.653 1.327-3.979V108.18l-.885-2.653"/><path stroke="#a56e58" stroke-width=".442" d="M250.333 105.526c-1.326-5.748-3.979-10.17-7.516-14.148-2.211-3.096-5.306-4.864-9.285-6.19"/><path stroke="#a4655a" stroke-width=".442" d="M233.532 85.189c-1.768-1.327-3.537-1.769-4.863-1.769-3.095-.442-4.864 1.769-6.19 3.98l-.443 2.21-.884 4.864c-.442 4.863-1.768 9.727-3.095 13.706l.442.442 1.327 1.769c3.979 5.748 6.19 11.938 7.074 19.012l.442 4.863"/><path stroke="#f39071" stroke-width=".442" d="m233.532 85.188 1.769 2.21v.885l1.326.884v.884l1.769 1.326v.885l1.326.884v.884l1.326.885v.884l.885.442v.884l.884.442v.885l1.769 1.326v.884l.884.885h.884v.884h.442l3.537 3.095"/><path stroke="#d0766a" stroke-width=".442" d="M244.586 128.076c-3.095 4.864-7.075 7.959-11.938 9.727h-1.769c-2.21-.442-2.653-1.326-3.537-3.537"/><path stroke="#a4655a" stroke-width=".442" d="M145.988 125.866c-7.516-1.326-13.264-4.421-16.359-11.054h-.442l-4.422 8.401c-3.095 5.306-7.074 9.285-11.938 13.264"/><path stroke="#ab806f" stroke-width=".442" d="M112.827 136.477c-4.421 3.095-9.285 6.19-14.59 8.4h-.442c-.442 2.211 0 4.422.884 5.748 1.768 2.211 3.979 4.422 6.19 5.748l2.211 2.211c3.095 3.095 7.516 6.632 11.495 7.958 2.211.884 3.98 2.211 5.748 3.979l4.864 5.306 4.421 5.306 2.211.884 18.57 4.422c6.632 1.326 13.706 1.326 20.78.884l10.612-2.211a59.7 59.7 0 0 0 19.454-10.611l8.401-8.843a49.1 49.1 0 0 0 9.285-24.318"/><path stroke="#a4655a" stroke-width=".442" d="M222.921 141.34v-2.211c-.442-9.285-2.211-17.685-6.19-26.086h-.442c-3.538 8.401-8.843 15.033-18.128 17.686"/><path stroke="#ab806f" stroke-width=".442" d="M198.161 130.729c-5.748 1.769-11.496-.442-16.359-3.979-6.19-3.979-7.517-9.727-8.401-16.801m0 0q0-.663 0 0Zm0 0c-3.095 6.19-8.401 11.053-14.149 14.148-3.979 2.211-8.4 3.095-13.264 1.769"/><path stroke="#f9a288" stroke-width=".442" d="M198.161 130.729c.442 4.863 3.979 7.958 7.958 9.727 3.095 1.326 6.19 1.768 9.285 2.211 2.653.442 5.306 0 7.517-1.327m-110.094-4.863 1.327.442c1.768 2.21 4.863 3.095 7.958 3.095 3.98 0 8.401-.442 12.38-1.769 5.306-1.326 8.843-4.421 11.054-9.285v-1.768l.442-1.327"/><path stroke="#825451" stroke-width=".442" d="M68.171 162.121h3.095l5.306-1.768 1.768-.884c4.864-3.98 10.17-5.748 16.802-5.306l.442-.442c0-1.769-3.537-3.095-4.864-3.537"/><path stroke="#a4655a" stroke-width=".442" d="M90.72 150.182c-7.516-1.768-16.359 1.769-21.222 7.517-1.327 1.326-1.769 2.652-2.211 3.979v.442h.884"/><path stroke="#d0766a" stroke-width=".442" d="m91.163 150.184-2.653 2.652-8.401 4.422-11.496 4.863"/><path stroke="#a56e58" stroke-width=".442" d="m78.34 165.217-3.095 3.979c-.884 1.326-1.326 3.537-1.768 5.748"/><path stroke="#825451" stroke-width=".442" d="M73.477 174.943c1.326.442 3.095 0 5.305-.442 3.538-1.326 7.075-2.653 11.054-3.095h.442q6.632-5.969 15.917-6.632v-.442c-.884-3.095-3.095-4.864-6.632-5.748"/><path stroke="#a4655a" stroke-width=".442" d="M99.563 158.585a23.4 23.4 0 0 0-9.38-.305 23.4 23.4 0 0 0-8.748 3.4l-1.326 1.326-1.769 2.211"/><path stroke="#d0766a" stroke-width=".442" d="M99.563 158.584c-.442 2.653-1.768 4.864-3.98 6.19l-6.19 4.421-2.652 1.327"/><path stroke="#f39071" stroke-width=".442" d="M86.741 170.522v-1.326l-.442-.442h-.442l-.442-.442h-.443l-.442-.442h-.442l-.442-.442h-.442c-.442-.443-.442-.885-.884-.443l-.442-.442h-.443l-.442-.442h-1.326l-.885-.442h-.442v-.442"/><path stroke="#d17f67" stroke-width=".442" d="m73.919 174.943 9.285-2.653 3.98-1.769"/><path stroke="#825451" stroke-width=".442" d="m222.921 161.68-1.769 3.095h.442l1.769 1.326"/><path stroke="#a65e4b" stroke-width=".442" d="m222.921 166.101 3.537 3.095 2.211 1.768 4.421 1.769v-.442c0-1.327-.884-2.211-1.769-3.537-2.21-3.095-4.863-5.748-8.842-7.075m0 0q0-.663 0 0Zm0 0q-.665 0 0 0Z"/><path stroke="#d26f5a" stroke-width=".442" d="m223.363 166.101-.442-4.421"/><path stroke="#825451" stroke-width=".442" d="m216.289 172.732-2.653 1.769v.442l4.421 1.769"/><path stroke="#a65e4b" stroke-width=".442" d="m218.057 176.711.884.442"/><path stroke="#a56e58" stroke-width=".442" d="M218.499 177.154c1.769.442 3.095 1.326 4.422 2.653l2.653 1.326 3.979 3.095h.442l-.442-2.653c-1.327-3.095-2.653-6.19-4.864-8.843"/><path stroke="#a65e4b" stroke-width=".442" d="M224.689 172.733q-1.99-2.653-5.305-3.979h-.443l-3.095 3.979"/><path stroke="#f58961" stroke-width=".442" d="m225.131 172.732-.884.885v.442h-.442l-1.769 1.326h-.442l-.442.442-.442.443-1.769.884"/><path stroke="#d26f5a" stroke-width=".442" d="m218.057 176.712-1.768-3.98"/><path stroke="#a56e58" stroke-width=".442" d="M93.815 173.617c-4.863 3.537-7.958 7.517-10.169 12.38-1.326 2.653-1.769 5.306-1.326 8.401l.884.442h2.21l8.843-1.769"/><path stroke="#825451" stroke-width=".442" d="m94.258 193.07 8.842-2.21 7.959-1.327 7.516-2.21c2.211-.443 3.98-1.769 4.864-3.538q1.989-3.315 0-6.632c-1.327-2.21-2.653-3.979-4.864-5.305"/><path stroke="#a4655a" stroke-width=".442" d="m118.575 171.849-3.537-2.211-8.843-.884c-4.421.442-8.4 1.768-12.38 4.863"/><path stroke="#d0766a" stroke-width=".442" d="m118.575 171.848.885 2.653v1.768c-.885 2.653-2.653 4.864-4.864 6.632l-6.19 4.422"/><path stroke="#f39071" stroke-width=".442" d="m108.406 187.324-9.285-10.17h-.884l-1.769-2.21h-.884l-1.769-1.327"/><path stroke="#d17f67" stroke-width=".442" d="M94.258 193.07c4.863-1.326 9.284-3.537 14.148-5.748"/><path stroke="#825451" stroke-width=".442" d="m206.119 181.133-4.421 3.537a.88.88 0 0 0-.221 1.027.9.9 0 0 0 .221.299l1.768.885 9.728 2.653"/><path stroke="#a56e58" stroke-width=".442" d="m213.194 189.534 12.38 3.979h1.326l.442-1.326c-.442-5.748-3.537-9.285-8.401-11.054-1.326-.442-2.21-.884-2.652-.442"/><path stroke="#a65e4b" stroke-width=".442" d="M216.289 180.69c-3.095-.442-7.517-.884-10.17.442"/><path stroke="#f58961" stroke-width=".442" d="m216.731 180.691-6.632 6.633"/><path stroke="#d26f5a" stroke-width=".442" d="m210.099 187.323-3.095-3.537-.443-2.653"/><path stroke="#d17f67" stroke-width=".442" d="m213.636 189.533-3.537-2.211"/><path stroke="#ffdece" stroke-width=".442" d="M65.96 79.881c.443 2.211 2.211 3.537 4.422 3.98 4.863 1.326 9.727-.443 13.706-3.538 3.98-3.094 7.075-8.842 3.095-13.706l-3.537-1.768c-5.306-1.769-11.053 1.768-14.59 5.747l-2.211 3.095c-1.327 1.769-1.769 4.422-.885 6.19Z" clip-rule="evenodd"/><path stroke="#ab806f" stroke-width=".442" d="M170.748 131.17c-3.095-1.326-6.632-2.652-7.516-5.747l-.443-.443-1.326.885c-1.769 2.21.442 4.421 2.211 5.305 4.863 2.653 10.169 3.538 15.475 2.211v-.442z" clip-rule="evenodd"/><path fill="#564341" d="M128.745 69.712c2.21-3.979 4.863-7.958 7.958-11.053 7.074-7.074 18.57-7.959 28.297-5.748 3.095.884 5.748 2.21 7.959 4.421l1.768 1.327 2.653 2.21h.442l.442-2.652.443-5.306c0-1.326-.443-1.769-1.327-2.21l-7.958-1.77-12.38-.884c-4.864-.442-14.149-1.326-13.265-8.4.442-5.748 5.748-11.054 10.17-14.59a106.56 106.56 0 0 1 44.214-23.434l12.38-.885c3.979.442 4.421 3.98 2.653 6.632-1.327 1.769-2.653 3.538-4.864 4.864l-11.938 10.611v.443c4.864-.443 9.285 0 13.264.884 5.748 1.326 10.612 4.421 10.612 10.611.442 4.422-2.653 9.727-5.748 13.264-3.537 3.538-7.959 7.075-12.38 10.17v.442c3.979 0 7.074.884 9.727 3.537 5.306 3.98 8.401 9.727 9.727 16.36h.442l10.17 1.326c3.095 1.326 7.516 3.095 10.169 5.305a37.58 37.58 0 0 1 12.38 37.14q-.663 3.317-3.979 5.306l-.443.442c-1.326 2.211-2.21 4.864-3.979 7.074l-1.768 3.095c-3.538 3.98-9.727 7.517-14.591 8.843l-1.326.884-1.769 2.211-2.211 6.632 1.769 2.211q5.969 2.654 9.285 9.285c.884 1.769 1.768 3.537 1.326 5.306-.442 2.21-2.21 3.095-4.421 3.095l-.442.442c1.326 3.095 2.653 7.516.442 10.169-.442.442-1.327.884-2.211.442l-.442.442v1.769c.442 1.768 1.326 4.863-.442 6.632s-3.979 1.326-6.19.442l-13.264-4.421c-3.095-1.327-7.075-2.211-12.823-3.095l-8.842-.442-10.17.442-7.074.442h-18.128l-8.4-.884c-3.98-.443-8.401-.443-12.38.442l-9.285 1.326-3.98.884-5.747 1.327-12.38 2.653-15.033 3.095c-9.285 1.768-8.4-7.075-6.632-12.38l5.305-9.285v-.442c-3.095 1.326-5.748 2.21-8.843 2.652-3.537.443-6.632-1.326-6.19-5.747.443-2.653 1.327-5.306 3.096-7.517l-.443-.442c-2.653.884-7.516.884-8.4-2.211-.885-2.652.442-5.747 2.21-7.958 2.211-3.095 5.306-5.306 9.285-7.074v-.443c-9.727-.442-18.57-3.095-27.854-6.632-9.728-3.979-17.686-10.611-23.876-19.454l-5.306-7.516a76 76 0 0 1-6.19-12.38l-.442-.442c-3.537.442-6.632-.443-8.843-3.538C.966 95.357.081 92.262.524 88.282c0-4.863 1.768-9.285 3.537-13.706 3.537-10.17 9.727-20.78 18.127-28.297l6.633-5.748c8.842-7.074 20.78-12.822 32.276-13.264 5.748-.442 11.053 0 16.36.442 11.053 1.326 20.78 5.748 29.18 12.38 5.306 4.421 10.17 9.727 14.591 16.36 3.095 3.978 5.748 8.4 7.517 13.263q0 .663 0 0m24.317-38.466c-2.21 2.21-3.979 4.421-4.863 7.074-.442 1.327-.885 2.211-.442 2.653.442 2.21 6.632 3.095 8.842 3.095l19.013.884 14.59 1.769.884.884c0 1.327-1.326 1.769-2.21 1.769h-3.98c-.884 0-2.21.884-2.21 2.21l-1.327 13.707h.885l5.305-3.095 4.864-2.653c5.748-2.653 11.053-7.074 15.917-11.496 3.537-3.095 6.632-6.19 7.959-10.611s-1.769-7.959-6.19-8.843l-6.19-.884-15.033.442c-1.327 0-1.769-.442-1.327-1.768l1.327-2.211 7.958-6.632 7.959-7.075 4.863-5.305v-.442a53.05 53.05 0 0 0-23.875 4.863c-10.169 4.422-19.897 10.17-28.297 17.686zM13.788 97.126l6.19-1.77L37.22 87.84l2.653-.442c3.98-.442 3.98 5.306 4.421 7.959 0 3.979.885 7.958 2.653 11.053s5.306 3.979 8.843 3.979c4.864-.442 9.727-.884 14.59-2.21l15.918-3.095 5.306-1.327 2.652-.442c2.653.442 3.538 3.095 3.98 5.306l.442 5.748c0 1.326-.442 1.768-1.769 2.21-.884 0-2.21-.884-2.21-1.768V112.6l-.443-2.211-.442-2.652-.442-.443-1.326.443-22.992 4.863-11.053 1.327c-5.748.442-11.054 0-14.149-5.306-1.326-2.211-2.653-4.422-3.095-7.074l-.884-3.98v-6.19h-.442l-11.938 4.864-7.959 3.537v3.095l2.653 8.843c4.864 10.169 12.38 18.128 22.107 23.433l2.211 1.327a84 84 0 0 0 34.93 7.958 52.17 52.17 0 0 0 30.065-12.38l1.769-1.326c3.095-3.095 6.19-7.074 8.4-11.496l1.769-4.421c2.211-6.632 3.979-13.264 4.421-20.339l-.442-10.169c-.442-5.748-1.326-11.053-3.537-15.917l-6.632-11.054c-3.979-5.747-8.401-10.611-14.149-15.032l-2.653-2.211c-7.958-5.306-16.8-7.959-26.086-8.843l-8.843-.442c-19.012 0-35.371 11.054-47.309 25.644-5.748 7.517-9.727 16.801-12.822 26.086-1.326 4.422-1.769 8.843.442 12.823.884 1.326 2.21 2.21 3.537 2.21zm126.894 14.148c-3.537-.442-7.516-1.769-9.727-4.864 0 5.748 4.422 11.496 9.285 13.707l7.517 2.21c3.979.885 7.074 0 10.611-2.21 3.979-2.653 7.959-5.748 10.169-9.728a119.4 119.4 0 0 0 7.075-21.664c.884-5.748 1.768-11.054.884-16.802-.884-3.095-1.769-6.19-3.537-8.843-.442-.442-.442 0-.442.442 1.768 12.38-.885 24.76-7.075 35.372l-3.979 4.863a27.4 27.4 0 0 1-20.781 7.517m.885-14.591-1.769 3.537v3.095l.884 2.653.885 1.326.884.885.442.442c4.421 0 8.401-1.327 11.938-3.537s6.632-4.864 8.843-8.843a.44.44 0 0 0-.442-.442l-.885-1.327-1.326-.442-.884-.884h-.885v-.442l-3.979-.442-.884.442h-.885l-1.326.442h-.884c3.979-4.421 5.305-9.727 4.863-15.917-.884-7.959-8.843-14.149-16.359-8.4-3.979 2.652-5.748 7.073-6.632 11.495-1.326 6.632 1.326 15.033 8.401 16.359m42.003 4.421c-1.326 1.769-2.653 3.538-3.095 5.748l-.884 3.537v.443c3.095 3.095 6.632 3.979 11.053 3.537 5.306-.442 9.727-2.211 12.822-5.748l.885-1.327.442-2.21.442-1.769v-2.653l-.884-2.21-2.211-1.769-2.653-1.326c1.327-3.095 2.211-6.19 1.769-9.728-.442-6.19-4.864-11.937-11.496-10.169-4.421.885-7.516 4.864-8.843 8.843-1.326 3.095-1.768 5.748-1.326 8.843q.663 4.643 3.979 7.958m29.181 11.054a73.8 73.8 0 0 0 4.864-31.834l-.884-4.864h-.442v11.496c-1.327 7.074-3.095 13.264-7.075 19.454a23.88 23.88 0 0 1-20.78 11.054c-3.98 0-7.517-1.769-10.612-4.864v.442l1.769 5.306c1.768 3.979 7.074 7.074 11.495 8.401q3.316 1.326 6.633 0c7.516-2.211 11.495-7.959 15.032-14.591m14.591 22.107v9.285c1.769-.442 3.537-.884 5.748-2.211 3.095-1.326 6.19-3.095 7.958-5.748 1.769-1.768 2.653-4.863 3.98-7.074v-.442h-.442l-3.98-2.211h-.884l-.884 1.769c-.884 1.768-3.537 1.326-3.537-.884 0-3.98 3.537-6.19 7.516-4.422 2.211 1.327 4.864 3.537 7.074.885.885-.885 1.327-2.653 1.327-3.98v-11.053l-.885-2.653c-1.326-5.748-3.979-10.17-7.516-14.149-2.211-3.095-5.306-4.863-9.285-6.19-1.768-1.326-3.537-1.768-4.863-1.768-3.095-.442-4.864 1.768-6.19 3.979l-.443 2.21-.884 4.864c-.442 4.864-1.768 9.727-3.095 13.707l.442.442 1.327 1.768c3.979 5.748 6.19 11.938 7.074 19.012zm-81.354-8.401c-7.516-1.326-13.264-4.421-16.359-11.053h-.442l-4.422 8.401c-3.095 5.305-7.074 9.284-11.938 13.264-4.421 3.095-9.285 6.19-14.59 8.4h-.442c-.442 2.211 0 4.422.884 5.748 1.768 2.211 3.979 4.422 6.19 5.748l2.211 2.211c3.095 3.095 7.516 6.632 11.495 7.958 2.211.885 3.98 2.211 5.748 3.98l4.864 5.305 4.421 5.306 2.211.884 18.57 4.422c6.632 1.326 13.706 1.326 20.78.884l10.612-2.211a59.7 59.7 0 0 0 19.454-10.611l8.401-8.843a49.1 49.1 0 0 0 9.285-24.318v-2.21c-.442-9.285-2.211-17.686-6.19-26.087h-.442c-3.538 8.401-8.843 15.033-18.128 17.686-5.748 1.768-11.496-.442-16.359-3.979-6.19-3.98-7.517-9.727-8.401-16.802q0-.663 0 0c-3.095 6.19-8.401 11.054-14.149 14.149-3.979 2.211-8.4 3.095-13.264 1.768M68.171 162.12h3.095l5.306-1.769 1.768-.884c4.864-3.979 10.17-5.748 16.802-5.306l.442-.442c0-1.768-3.537-3.095-4.864-3.537-7.516-1.768-16.359 1.769-21.222 7.517-1.327 1.326-1.769 2.652-2.211 3.979v.442zm10.17 3.095-3.096 3.979c-.884 1.327-1.326 3.537-1.768 5.748 1.326.442 3.095 0 5.305-.442 3.538-1.326 7.075-2.653 11.054-3.095h.442q6.632-5.969 15.917-6.632v-.442c-.884-3.095-3.095-4.864-6.632-5.748a23.44 23.44 0 0 0-18.128 3.095l-1.326 1.326zm144.138-3.537-1.769 3.095h.442l1.769 1.326 3.537 3.095 2.211 1.769 4.421 1.768v-.442c0-1.326-.884-2.21-1.769-3.537-2.21-3.095-4.863-5.748-8.842-7.074q0-.663 0 0-.665 0 0 0m-6.633 11.053-2.652 1.769v.442l4.421 1.769.884.442c1.769.442 3.095 1.326 4.422 2.653l2.653 1.326 3.979 3.095h.442l-.442-2.653c-1.327-3.095-2.653-6.19-4.864-8.843q-1.99-2.652-5.305-3.979h-.443zm-122.03.885c-4.864 3.537-7.96 7.516-10.17 12.38-1.326 2.652-1.769 5.305-1.326 8.4l.884.442h2.21l8.843-1.768 8.843-2.211 7.959-1.326 7.516-2.211c2.211-.442 3.98-1.769 4.864-3.537q1.989-3.317 0-6.632c-1.327-2.211-2.653-3.979-4.864-5.306l-3.537-2.211-8.843-.884c-4.421.442-8.4 1.769-12.38 4.864m112.303 7.516-4.421 3.537a.9.9 0 0 0-.221.3.88.88 0 0 0 0 .727.9.9 0 0 0 .221.3l1.768.884 9.728 2.653 12.38 3.979h1.326l.442-1.326c-.442-5.748-3.537-9.285-8.401-11.054-1.326-.442-2.21-.884-2.652-.442-3.095-.442-7.517-.884-10.17.442"/><path fill="#ffe868" d="m210.099 28.594-.443.442v.443l-2.21 5.305-2.653 2.211-5.748 2.653-11.054 2.21h-7.516l-6.632-.884-11.054-2.652-3.095-1.327-2.652-1.326-2.211-2.211-.442-.442-.442-.442-.443-.442-.442-.885 4.422-3.979a108.8 108.8 0 0 1 35.371-20.339c5.306-1.768 11.054-2.21 16.801-2.21v.442l-4.863 5.306-7.959 7.074-7.958 6.632-1.327 2.21c-.442 1.327 0 1.77 1.327 1.77l15.033-.443z"/><path fill="#ffbb49" d="M210.099 28.594c4.421.884 7.516 4.421 6.19 8.843-1.327 4.421-4.422 7.516-7.959 10.611-4.864 4.421-10.169 8.843-15.917 11.496l-4.864 2.653-5.305 3.094h-.885l1.327-13.706c0-1.326 1.326-2.21 2.211-2.21h3.979c.884 0 2.21-.443 2.21-1.77l-.884-.883-14.59-1.769-19.013-.884c-2.21 0-8.4-.885-8.842-3.095-.443-.442 0-1.327.442-2.653.884-2.653 2.653-4.864 4.863-7.074l.442.884.443.442.442.442.442.442 2.211 2.211 2.652 1.326 3.095 1.327 11.054 2.653 6.632.884h7.517l11.053-2.21 5.748-2.654 2.653-2.21 2.21-5.306v-.442z"/><path fill="#ffc98a" d="m100.447 40.09-3.537.884h-.442l-.884.442-.442.442h-.885l-.442.442-.884.443h-.442l-.442.442h-.442l-.443.442h-.442l-1.326.884h-1.327a.44.44 0 0 1-.442.442l-.884.442h-3.537l-.442.442h-7.517l-.442.443h-3.537l-.442.442h-2.21l-.443.442c-3.98-5.748-10.611-7.074-17.243-6.19C43.41 42.3 35.01 45.838 30.147 51.585s-5.748 12.822-1.769 19.012c-.884 0-1.326.443-1.326.885l-.442.442-1.327 1.326v.885l-1.768 1.326v.884l-.884.442v.885l-.885.442v.884l-.884.884-.442.442v.885l-.442.442v.442l-.885.884-.442.442v.885l-.442.442v.442l-.442.442v.442c-.442.442-.884.442-.442.885l-.442.442v.884c-.442.442-.885.442-.442.884l-.443.442v.885l-.442.884v.442c-.442.442-.884.442-.442.885v.442l-.442.884-.442.442v.442l-.442.442v1.769l-4.422.442c-1.326 0-2.653-.884-3.537-2.21-2.21-3.98-1.768-8.401-.442-12.823 3.095-9.285 7.074-18.57 12.822-26.086 11.938-14.59 28.297-25.644 47.31-25.644l8.842.442c9.285.884 18.128 3.537 26.086 8.843"/><path fill="#ffc293" d="m100.447 40.09 2.653 2.21v.443h.442v.442h-.884l-.884.442h-.442l-1.327.442h-1.326l-.442.442-1.769.442-.442.442h-.884l-.442.443h-.443l-.884 1.326h-.884l-.884.884-.443.442-.884.443v.442L87.183 50.7H86.3l-.884.442h-2.653l-.885.443h-7.516v.442h-2.21l-1.327.442-.884-2.21-1.769-3.096.442-.442h2.211l.442-.442h3.537l.442-.442h7.517l.442-.443h3.537l.884-.442a.44.44 0 0 0 .442-.442h1.327l1.326-.884h.442l.443-.442h.442l.442-.442h.442l.884-.442.442-.443h.885l.442-.442.884-.442h.442z"/><path fill="#ebebebbd8" d="m68.171 47.164 1.769 3.095-1.769-.442-1.768-.884h-3.538l-3.979.884-.442.442h-.442l-.884.443-2.653.884c-6.19 2.21-11.938 5.748-17.244 10.17l-5.305 5.305-.885 1.326h.442v2.653l3.538 3.095.884.884c.442.442.884.885.442 1.327l-3.98-1.769-3.979-3.98c-3.979-6.19-3.095-13.263 1.769-19.011S43.41 42.3 50.927 40.974c6.633-.884 13.265.443 17.244 6.19"/><path fill="#ffbc9c" d="M103.1 42.3c5.748 4.422 10.17 9.286 14.149 15.034 1.326 5.305 2.211 9.727 2.211 13.264v9.727c0 5.306-.885 10.17-3.538 15.033l-6.632 10.169q-11.937 14.59-29.181 23.876-7.296 3.98-14.59 5.305l-15.476 1.327-3.537.442-2.21-1.326c-9.728-5.306-17.244-13.265-22.108-23.434l-2.652-8.843c3.979-.884 8.4-1.326 12.38-.884 2.21 0 4.863 0 6.632 1.768s3.537 4.422 4.863 7.517c1.327 2.211 3.095 3.537 6.19 3.979h11.054l30.065-5.306c1.327-.442 1.769 0 2.211.885l1.769 1.768v2.211c0 .884 1.326 1.769 2.21 1.769 1.327-.443 1.769-.885 1.769-2.211l-.442-5.748c-.442-2.211-1.327-4.864-3.98-5.306l-2.652.442-5.306 1.327-15.917 3.095c-4.864 1.326-9.727 1.768-14.59 2.211-3.538 0-7.075-.885-8.844-3.98s-2.653-7.074-2.653-11.053c-.442-2.653-.442-8.4-4.42-7.959l-2.654.442-17.243 7.517v-.442h.442l.442-.442-.442-.443.442-.442v-.884l.442-.442v-.442l.442-.442v-.443l.442-.442v-.442l.443-.442v-.442l.442-.442v-.442c.442-.443.884-.443.442-.885v-.442l.442-.442.442-.442v-.884l.442-.443v-.442l.884-.884.443-.442v-.884l.442-.443v-.442l.884-.442v-.884l.884-.442v-.885l1.327-.884v-.884l1.326-.885v-.442l.885-.884h.442l3.979 1.769 3.98.884c10.61 2.21 21.222-3.537 26.97-11.938 3.095-3.98 3.98-7.958 3.537-12.822l1.326-.442h2.211v-.442h7.516l.885-.442h2.653l.884-.442h.884l3.095-1.327v-.442l.884-.442.443-.442.884-.885h.884l.884-1.326h.443l.442-.442h.884l.442-.442 1.769-.443.442-.442h1.326l1.327-.442h.442l.884-.442h.884v-.442h-.442zM65.96 79.884c.443 2.21 2.211 3.537 4.422 3.98 4.863 1.326 9.727-.443 13.706-3.538 3.98-3.095 7.075-8.843 3.095-13.706l-3.537-1.769c-5.306-1.769-11.053 1.769-14.59 5.748l-2.211 3.095c-1.327 1.768-1.769 4.421-.885 6.19"/><path fill="#ebebebdeb" d="m69.94 50.26.884 2.21c.442 4.864-.442 8.844-3.537 12.823l1.326-3.537v-.885l.885-2.21c.442-.442 0-1.327-.443-1.769h-3.537l-.884.442h-.442l-.884.442h-.443l-.884.443h-.442v.442h-.442l-.884.442h-.443l-.884.442h-.442l-.884.442h-.442l-.443.442h-.884l-.442.442-2.653.885-3.095 1.768-.442.442-.884.885-1.327 1.326h-.884l-.884 1.326h-.885l-2.21 2.653H41.2l-3.537 3.537v1.77l.443.441 2.21 1.327-3.98-.885c.443-.442 0-.884-.441-1.326l-.885-.884-3.537-3.095v-2.653h-.442l.885-1.327 5.305-5.305c5.306-4.422 11.054-7.959 17.244-10.17l2.653-.884.884-.442h.442l.442-.442 3.98-.884h3.537l1.768.884z"/><path fill="#ebebeb" d="M67.287 65.291c-5.748 8.401-16.36 14.149-26.97 11.938l-2.212-1.326-.442-.442v-1.769l3.538-3.537h.884l2.21-2.653h.885l.884-1.326h.884l1.327-1.327.884-.884.442-.442 3.095-1.769 2.653-.884.442-.442h.884l.443-.442h.442l.884-.442h.442l.884-.443h.443l.884-.442h.442v-.442h.442l.884-.442h.443l.884-.442h.442l.884-.442h3.537c.442.442.885 1.326.442 1.768l-.884 2.21v.885z"/><path fill="#f28773" d="m117.249 57.334 6.632 11.054c2.211 4.863 3.095 10.169 3.537 15.917v4.863l-.442 4.422c-.884 6.632-2.653 13.264-4.864 19.454l-1.768 3.979h-1.327l-1.326 1.327h-.884l-4.422 2.652-2.653 1.769-2.21 1.326-3.537 2.211-4.422 1.769-11.053 4.421-15.033 3.095-3.095.442h-.885l-.884.442h-3.979l-3.98.442h-7.516c-.884.443-1.768 0-3.095-.884l15.475-1.326q7.296-1.327 14.59-5.306 17.245-9.284 29.182-23.876l6.632-10.169c2.653-4.863 3.538-9.727 3.538-15.033v-9.727c0-3.537-.885-7.958-2.211-13.264"/><path fill="#ebebeb" d="M130.955 106.411c2.211 3.095 6.19 4.422 9.727 4.864 7.959.442 14.591-2.211 20.781-7.516l3.979-4.864c6.19-10.611 8.843-22.991 7.075-35.371 0-.442 0-.885.442-.442 1.768 2.652 2.653 5.747 3.537 8.842.884 5.748 0 11.054-.884 16.802a119.4 119.4 0 0 1-7.075 21.665c-2.21 3.979-6.19 7.074-10.169 9.727-3.537 2.211-6.632 3.095-10.611 2.211l-7.517-2.211c-4.863-2.211-9.285-7.959-9.285-13.707M65.96 79.883c-.884-1.769-.442-4.421.885-6.19l2.21-3.095c3.537-3.98 9.285-7.516 14.591-5.748l3.537 1.769c3.98 4.863.884 10.611-3.095 13.706s-8.843 4.864-13.706 3.537c-2.21-.442-3.98-1.768-4.422-3.979"/><path fill="#ebebeb" d="M151.294 93.147c-2.653 3.095-5.748 3.98-9.727 3.537-7.075-1.326-9.727-9.727-8.401-16.36.884-4.42 2.653-8.842 6.632-11.495 7.516-5.748 15.475.442 16.359 8.4.442 6.19-.884 11.497-4.863 15.918"/><path fill="#ffc293" d="m28.378 70.598 3.98 3.979h-.442l-.885.884v.442l-1.326.885v.884l-1.327.884v.885l-.884.442v.884l-.884.442v.442l-.442.442v.885l-.442.442-.885.884v.442l-.442.442v.885l-.442.442-.442.442v.442c.442.442 0 .442-.442.884v.442l-.442.443v.442l-.443.442v.442l-.442.442v.442l-.442.442v.443l-.442.442v.884l-.442.442.442.442-.442.442h-.442v.443l-6.19 1.768v-1.768l.442-.443v-.442l.442-.442.442-.884v-.442c-.442-.442 0-.442.442-.885v-.442l.442-.884v-.884l.443-.442c-.443-.443 0-.443.442-.885V87.4l.442-.442c-.442-.442 0-.442.442-.884v-.442l.442-.443v-.442l.442-.442v-.884l.442-.442.885-.885v-.442l.442-.442v-.884l.442-.442.884-.885v-.884l.885-.442v-.884l.884-.442v-.885l1.768-1.326v-.885l1.327-1.326.442-.442c0-.442.442-.884 1.326-.884"/><path fill="#ebebeb" d="M199.487 95.358c-1.326 3.095-3.537 5.305-5.748 6.632-3.537 2.211-7.074 1.768-10.169-.884q-3.316-3.316-3.979-7.959c-.442-3.095 0-5.748 1.326-8.843 1.327-3.979 4.422-7.958 8.843-8.843 6.632-1.768 11.054 3.98 11.496 10.17.442 3.537-.442 6.632-1.769 9.727"/><path fill="#ebebeb" d="M212.751 112.159c-3.537 6.632-7.516 12.38-15.032 14.59q-3.317 1.328-6.633 0c-4.421-1.326-9.727-4.421-11.495-8.4l-1.769-5.306v-.442c3.095 3.095 6.632 4.863 10.612 4.863 8.842 0 15.917-3.979 20.78-11.053 3.98-6.19 5.748-12.38 7.075-19.454V75.46h.442l.884 4.864v12.38c-.884 6.19-2.211 13.706-4.864 19.454"/><path fill="#f28773" d="m233.532 85.189 1.769 2.21v.885l1.326.884v.884l1.769 1.327v.884l1.326.884v.885l1.326.884v.884l.885.442v.885l.884.442v.884l1.769 1.326v.885l.884.884h.884v.884h.442l3.537 3.095.885 2.653v11.054c0 1.326-.442 3.095-1.327 3.979-2.21 2.653-4.863.442-7.074-.884-3.979-1.769-7.516.442-7.516 4.421 0 2.211 2.652 2.653 3.537.884l.884-1.768h.884l3.98 2.21c-3.095 4.864-7.075 7.959-11.938 9.728h-1.769c-2.21-.443-2.653-1.327-3.537-3.538l-.442-4.863c-.884-7.074-3.095-13.264-7.074-19.012l-1.327-1.769-.442-.442c1.327-3.979 2.653-8.843 3.095-13.706l.884-4.864.443-2.21c1.326-2.211 3.095-4.422 6.19-3.98 1.326 0 3.095.442 4.863 1.769"/><path fill="#ad6560" d="m127.418 84.305.442 10.169c-.442 7.074-2.21 13.706-4.421 20.338l-1.769 4.422c-2.21 4.421-5.305 8.401-8.4 11.496l-1.769 1.326c-3.979 3.537-8.843 6.19-13.706 8.401l3.537-2.653 1.768-1.327 1.769-1.768c5.748-4.422 11.496-10.612 15.475-17.686l1.768-3.979c2.211-6.19 3.98-12.822 4.864-19.454l.442-4.422z"/><path fill="#f4986e" d="M233.532 85.188c3.979 1.326 7.074 3.094 9.285 6.19 3.537 3.979 6.19 8.4 7.516 14.148l-3.537-3.095h-.442v-.884h-.884l-.884-.885v-.884l-1.769-1.326v-.885l-.884-.442v-.884l-.885-.442v-.884l-1.326-.885v-.884l-1.326-.884v-.885l-1.769-1.326v-.884l-1.326-.885v-.884z"/><path fill="#ad6560" d="m39.874 97.569-.442-1.769c-.442-.884-.884-1.768-2.21-1.768l-3.98.884-5.748 1.327 11.938-4.864h.442z"/><path fill="#81564f" d="M141.567 96.683c3.979.442 7.074-.442 9.727-3.537h.884l1.326-.442h.885l.884-.442 3.979.442v.442h.885l.884.884 1.326.442.885 1.327a.44.44 0 0 1 .442.442c-2.211 3.979-5.306 6.632-8.843 8.843s-7.517 3.537-11.938 3.537l-.442-.442-.884-.884-.885-1.327-.884-2.653v-3.095z"/><path fill="#f28773" d="m39.874 97.568.884 3.98c.442 2.653 1.769 4.863 3.095 7.074 3.095 5.306 8.401 5.748 14.149 5.306l11.053-1.327 22.992-4.863c1.326 0 1.768 1.768 2.21 2.652l.443 2.211-1.769-1.768c-.442-.885-.884-1.327-2.21-.885l-30.066 5.306H49.6c-3.095-.442-4.863-1.769-6.19-3.979-1.326-3.095-3.095-5.748-4.863-7.517-1.769-1.768-4.422-1.768-6.632-1.768-3.98-.442-8.401 0-12.38.884v-3.095l7.958-3.537 5.748-1.327 3.98-.884c1.326 0 1.768.884 2.21 1.769z"/><path fill="#81564f" d="m199.487 95.357 2.653 1.327 2.211 1.768.884 2.211v2.653l-.442 1.769-.442 2.21-.885 1.327c-3.095 3.537-7.516 5.305-12.822 5.748-4.421.442-7.958-.443-11.053-3.538v-.442l.884-3.537c.442-2.211 1.769-3.979 3.095-5.748 3.095 2.653 6.632 3.095 10.169.885 2.211-1.327 4.422-3.538 5.748-6.633"/><path fill="#ad6560" d="M94.258 110.39c-.443-.884-.885-2.653-2.211-2.653l1.326-.442.442.442z"/><path fill="#ffbc9c" d="M198.161 130.729c.442 4.864 3.979 7.959 7.958 9.728 3.095 1.326 6.19 1.768 9.285 2.21 2.653.442 5.306 0 7.517-1.326a49.1 49.1 0 0 1-9.285 24.318l-8.401 8.842a59.7 59.7 0 0 1-19.454 10.612l-10.612 2.211c-7.074.442-14.148.442-20.78-.885a143 143 0 0 1-20.781-5.305l-4.421-5.306-4.864-5.306c-1.768-1.768-3.537-3.095-5.748-3.979-3.979-1.327-8.4-4.864-11.495-7.959l-2.211-2.21c-2.211-1.327-4.422-3.537-6.19-5.748-.884-1.327-1.326-3.537-.884-5.748h.442c5.305-2.211 10.169-5.306 14.59-8.401l1.327.442c1.768 2.211 4.863 3.095 7.958 3.095 3.98 0 8.401-.442 12.38-1.768 5.306-1.327 8.843-4.422 11.054-9.285v-1.769l.442-1.326c4.864 1.326 9.285.442 13.264-1.769 5.748-3.095 11.054-7.958 14.149-14.148q0-.663 0 0c.884 7.074 2.211 12.822 8.4 16.801 4.864 3.537 10.612 5.748 16.36 3.979m-27.413.443c-3.095-1.327-6.632-2.653-7.516-5.748l-.443-.442-1.326.884c-1.769 2.211.442 4.421 2.211 5.306 4.863 2.652 10.169 3.537 15.475 2.21v-.442z"/><path fill="#f28773" d="M222.921 141.34c-2.211 1.326-4.864 1.769-7.517 1.326-3.095-.442-6.19-.884-9.285-2.21-3.979-1.769-7.516-4.864-7.958-9.727 9.285-2.653 14.59-9.285 18.128-17.686h.442c3.979 8.401 5.748 16.801 6.19 26.086zm-76.933-15.475-.442 1.327v1.768c-2.211 4.864-5.748 7.959-11.054 9.285-3.979 1.326-8.4 1.769-12.38 1.769-3.095 0-6.19-.885-7.958-3.095l-1.327-.443c4.864-3.979 8.843-7.958 11.938-13.264l4.422-8.4h.442c3.095 6.632 8.843 9.727 16.359 11.053"/><path fill="#f67954" d="M120.344 117.021c-3.979 7.075-9.727 13.265-15.475 17.686l-1.769 1.769-1.768 1.326-3.537 2.653a45.99 45.99 0 0 1-32.277 2.211c-6.19-1.327-12.38-3.095-19.012-6.19l3.537-.442c1.327.884 2.211 1.326 3.095.884h7.517l3.979-.442h3.98l.883-.442h.885l3.095-.443 15.033-3.095 11.053-4.421 4.422-1.769 3.537-2.21 2.21-1.327 2.653-1.768 4.422-2.653h.884l1.326-1.327z"/><path fill="#564341" d="m170.748 131.17 8.401 1.769v.442c-5.306 1.327-10.612.442-15.475-2.211-1.769-.884-3.98-3.095-2.211-5.305l1.326-.885.443.443c.884 3.095 4.421 4.421 7.516 5.747"/><path fill="#ad6560" d="M244.586 128.076h.442v.442c-1.327 2.211-2.211 5.306-3.98 7.075-1.768 2.652-4.863 4.421-7.958 5.747-2.211 1.327-3.979 1.769-5.748 2.211v-9.285c.884 2.211 1.327 3.095 3.537 3.537h1.769c4.863-1.768 8.843-4.863 11.938-9.727"/><path fill="#f28773" d="m90.72 150.182-2.653 2.653-8.4 4.422-11.496 4.863h-.884v-.442c.442-1.327.884-2.653 2.21-3.979 4.864-5.748 13.707-9.285 21.223-7.517"/><path fill="#ad6560" d="M90.72 150.184c1.327.442 4.864 1.768 4.864 3.537l-.442.442c-6.632-.442-11.938 1.326-16.802 5.306l-1.768.884-5.306 1.768h-3.095l11.496-4.863 8.4-4.422z"/><path fill="#f28773" d="M99.563 158.583c-.442 2.653-1.768 4.864-3.98 6.19l-6.19 4.422-2.652 1.326v-1.326l-.442-.443h-.442l-.442-.442h-.443l-.442-.442h-.442l-.442-.442h-.442c-.442-.442-.442-.884-.884-.442l-.442-.442h-.443l-.442-.442h-1.326l-.885-.443h-.442v-.442l1.769-2.21 1.326-1.327c2.211-1.326 4.422-2.653 7.075-3.095 3.979-.884 7.516-.884 11.053 0"/><path fill="#ad6560" d="M99.563 158.584c3.537.884 5.748 2.653 6.632 5.748v.442q-9.285.663-15.917 6.632h-.442c-3.98.442-7.516 1.769-11.053 3.095-2.211.442-3.98.884-5.306.442l9.285-2.653 3.98-1.768 2.652-1.327 6.19-4.421c2.21-1.326 3.537-3.537 3.98-6.19"/><path fill="#f67954" d="m222.921 166.101-.442-4.422q-.665 0 0 0 0-.663 0 0c3.979 1.327 6.632 3.98 8.842 7.075.885 1.326 1.769 2.21 1.769 3.537v.442l-4.421-1.769-2.211-1.768z"/><path fill="#ad6560" d="m222.479 161.68.442 4.421-1.769-1.326h-.442z"/><path fill="#f4986e" d="M78.34 165.217v.442h.442l.885.442h1.326l.442.442h.442l.443.442c.442-.442.442 0 .884.443h.442l.442.442h.442l.442.442h.443l.442.442h.442l.442.442v1.326l-3.98 1.769-9.284 2.653c.442-2.211.884-4.422 1.768-5.748z"/><path fill="#f67954" d="m224.689 172.733-.884.884v.443h-.442l-1.769 1.326h-.442l-.442.442-.442.442-1.769.885-.884-.443-1.769-3.979 3.095-3.979h.443q3.315 1.326 5.305 3.979"/><path fill="#f28773" d="m118.575 171.849.885 2.653v1.768c-.885 2.653-2.653 4.864-4.864 6.632l-6.19 4.422-9.285-10.169h-.884l-1.769-2.211h-.884l-1.769-1.327c3.98-3.095 7.959-4.421 12.38-4.863l8.843.884z"/><path fill="#ad6560" d="M118.575 171.848c2.211 1.326 3.537 3.095 4.864 5.305q1.989 3.317 0 6.632c-.884 1.769-2.653 3.095-4.864 3.538l-7.516 2.21-7.959 1.327-8.843 2.21c4.864-1.326 9.285-3.537 14.149-5.747l6.19-4.422c2.211-1.768 3.979-3.979 4.864-6.632v-1.768zm97.271.884 1.769 3.979-4.421-1.768v-.442z"/><path fill="#f4986e" d="M224.689 172.732c2.211 2.653 3.537 5.748 4.864 8.843l.442 2.653h-.442l-3.979-3.095-2.653-1.326c-1.327-1.327-2.653-2.211-4.422-2.653l1.769-.884.442-.443.442-.442h.442l1.769-1.326h.442v-.442zm-130.874.885 1.769 1.326h.884l1.769 2.211h.884l9.285 10.169c-4.864 2.211-9.285 4.422-14.149 5.748l-8.842 1.769h-2.211l-.884-.443c-.442-3.095 0-5.747 1.326-8.4 2.21-4.864 5.306-8.843 10.17-12.38"/><path fill="#f67954" d="m216.289 180.69-6.633 6.632-3.095-3.537-.442-2.653c2.653-1.326 7.075-.884 10.17-.442"/><path fill="#f4986e" d="M216.289 180.691c.442-.442 1.326 0 2.652.442 4.864 1.769 7.959 5.306 8.401 11.054l-.442 1.326h-1.326l-12.38-3.979-3.538-2.211z"/><path fill="#ad6560" d="m206.119 181.133.442 2.653 3.095 3.537 3.538 2.211-9.728-2.653-1.768-.885a.88.88 0 0 1-.221-1.027.9.9 0 0 1 .221-.299z"/></g><defs><clipPath id="a"><path fill="#ebebeb" d="M.081.738h256V199.26h-256z"/></clipPath></defs></svg>
