<svg xmlns="http://www.w3.org/2000/svg" width="254" height="256" fill="none" viewBox="0 0 254 256"><path fill="#ebebeb" d="M3.06 1.912A2.834 2.834 0 0 0 .358 5.424l61.224 247.823a2.83 2.83 0 0 0 3.43 2.074 2.83 2.83 0 0 0 1.286-.709L250.483 77.445a2.83 2.83 0 0 0 .078-4.009 2.83 2.83 0 0 0-1.257-.757L3.89 2.023a2.8 2.8 0 0 0-.83-.11m3.975 6.912 235.982 67.94L65.91 247.124z"/><path fill="#ebebeb" d="M125.834 37.245a2.84 2.84 0 0 0-2.026.79l-92.05 88.609a2.83 2.83 0 0 0-.074 4.007 2.84 2.84 0 0 0 1.257.757l122.626 35.343a2.836 2.836 0 0 0 3.537-3.401L128.527 39.398a2.84 2.84 0 0 0-2.693-2.153m-1.634 8.282 28.23 114.422-113.202-32.627z"/><path fill="#ebebeb" d="M80.098 81.098a2.834 2.834 0 0 0-2.7 3.511l15.194 61.568a2.84 2.84 0 0 0 1.965 2.046 2.83 2.83 0 0 0 2.753-.683l45.734-44.08a2.83 2.83 0 0 0-1.185-4.763l-60.93-17.489a2.8 2.8 0 0 0-.831-.11m3.973 6.904 51.506 14.783-38.663 37.261z"/><path fill="#ebebeb" d="M65.009 19.6a2.83 2.83 0 0 0-2.026.793L17.25 64.47a2.834 2.834 0 0 0 1.185 4.764l60.92 17.49a2.834 2.834 0 0 0 3.534-3.402L67.701 21.756a2.83 2.83 0 0 0-2.693-2.156m-1.632 8.282 12.835 52.044L24.72 65.143zm123.485 26.815a2.84 2.84 0 0 0-2.023.793L139.1 99.565a2.837 2.837 0 0 0 1.185 4.766l60.923 17.488a2.83 2.83 0 0 0 2.749-.682 2.84 2.84 0 0 0 .785-2.721l-15.185-61.565a2.83 2.83 0 0 0-.981-1.536 2.83 2.83 0 0 0-1.714-.618m-1.631 8.283 12.835 52.045-51.494-14.782 38.659-37.26zm-90 79.739a2.83 2.83 0 0 0-1.857.79l-45.733 44.08a2.832 2.832 0 0 0 1.184 4.763l60.933 17.489a2.84 2.84 0 0 0 2.746-.683 2.84 2.84 0 0 0 .786-2.718l-15.197-61.568a2.834 2.834 0 0 0-2.862-2.153m-1.46 8.282 12.845 52.046-51.506-14.783z"/></svg>
