<svg xmlns="http://www.w3.org/2000/svg" width="249" height="256" fill="none" viewBox="0 0 249 256">
  <g fill-rule="evenodd" clip-path="url(#a)" clip-rule="evenodd">
    <path fill="#3179a1" d="M82.197 244.27c.16 2.068.059 4.208.608 6.171.233.828 1.828 1.277 2.805 1.899l1.27.815c-.477.278-.953.79-1.436.796a334 334 0 0 1-11.374.004c-.504-.008-.997-.481-1.493-.739.402-.291.788-.795 1.213-.829 2.541-.213 3.316-1.758 3.303-4.041-.022-4.198-.012-8.399.006-12.601.01-2.341-.654-4.049-3.41-4.155-.383-.016-.744-.601-1.114-.92.37-.226.743-.653 1.109-.646 4.856.058 9.732-.049 14.562.359 3.805.323 6.312 2.956 6.57 5.992.28 3.33-1.428 5.615-5.293 7.082l-1.48.553c2.488 2.353 4.693 4.653 7.143 6.648 1.087.888 2.627 1.416 4.041 1.66 2.83.483 4.366-.734 4.444-3.539.124-4.529.065-9.064.022-13.595-.02-2.076-.912-3.448-3.229-3.562-.436-.02-.853-.514-1.278-.788.486-.284.972-.813 1.453-.81 4.941.04 9.905-.112 14.814.327 8.377.743 13.043 7.714 10.593 15.417-1.493 4.697-5.069 7.352-9.669 7.665-8.042.549-16.128.437-24.196.494-.642.004-1.434-.693-1.918-1.266-1.857-2.204-3.608-4.496-5.42-6.737-.55-.679-1.16-1.302-1.744-1.953zm26.655-11.924c0 5.658-.07 11.142.073 16.619.022.842.833 2.111 1.584 2.412 2.961 1.181 7.745-.748 9.082-3.742 1.79-4.009 2.008-8.229-.412-12.032-2.387-3.753-6.364-3.379-10.327-3.257m-26.456 9.267c2.564.065 5.39.636 6.486-2.18.613-1.579.475-4.027-.372-5.466-1.286-2.186-3.873-1.804-6.116-1.528z"/>
    <path fill="#ebebeb" d="M190.922 240.447c1.694-.365 3.375-.312 4.466-1.091.916-.65 1.143-2.267 1.844-3.831.405.725.785 1.095.793 1.471.051 2.803.061 5.609 0 8.413-.01.439-.459.868-.705 1.302-.277-.231-.689-.406-.811-.703-1.489-3.598-1.481-3.6-5.776-3.216.628 2.808-1.55 6.398 1.808 8.245 1.713.941 4.476.754 6.479.138 1.709-.52 3.007-2.379 4.495-3.653v6.29c-.823.073-1.447.175-2.075.175-8.413.012-16.827-.024-25.238.039-1.451.012-2.432-.354-3.318-1.571-1.741-2.401-3.655-4.677-5.537-6.973-.471-.575-1.084-1.032-2.074-1.954 0 2.344-.085 4.024.024 5.693.114 1.743.953 2.899 2.881 3.116.567.065 1.075.661 1.61 1.016-.551.213-1.098.606-1.65.616q-5.567.077-11.134.002c-.569-.008-1.134-.352-1.76-.559l.317-.616c4.56-1.84 4.572-1.84 4.568-7.127q-.005-4.947-.08-9.895c-.034-2.277-.652-4.083-3.431-4.181-.4-.014-.78-.583-1.172-.896.459-.229.92-.66 1.377-.656 4.695.045 9.417-.11 14.08.325 5.104.475 8.259 4.732 6.363 8.649-1.036 2.14-3.429 3.623-5.536 5.726 1.999 1.828 4.301 4.457 7.093 6.369 3.943 2.702 6.64 1.16 6.739-3.551.083-3.956-.014-7.916-.03-11.876-.009-2.347-.734-4.051-3.489-4.09-.376-.006-.746-.406-1.19-.67 1.432-1.057 15.236-1.441 21.227-.675l.386 6.53-.676.276c-1.394-1.456-1.221-4.467-4.104-4.478-2.203-.01-4.405-.241-6.77-.384.006 2.756.006 5.263.006 8.255m-25.696 1.15c5.303.214 7.408-1.225 7.282-4.803-.124-3.45-2.428-4.841-7.282-4.309z"/>
    <path fill="#3179a1" d="M17.787 243.15c2.023-5.987 4.02-11.981 6.101-17.948.286-.821.987-1.498 1.497-2.243.504.768 1.193 1.473 1.482 2.316 1.891 5.524 3.691 11.075 5.53 16.617.146.445.335.874.762 1.969 1.885-5.715 3.63-10.784 5.21-15.906.548-1.774-.165-3.056-2.23-3.288-.68-.079-1.34-.345-2.135-.556 1.374-1.522 12.103-1.634 13.87-.22-.479.228-.86.551-1.255.567-3.352.13-4.904 2.229-5.86 5.122-2.555 7.741-5.16 15.464-7.754 23.192-.27.803-.61 1.581-.919 2.37l-.855.06-7.272-21.985-7.353 21.918-.719.045c-.376-.815-.837-1.605-1.111-2.452-2.371-7.276-4.712-14.562-7.059-21.844-1.005-3.126-2.011-6.235-6.12-6.434-.267-.012-.513-.465-.771-.711.32-.264.642-.758.967-.762a640 640 0 0 1 13.852.002c.321.002.636.502.955.77-.343.256-.648.628-1.032.746-3.698 1.117-3.964 1.546-2.8 5.132 1.47 4.537 2.983 9.055 4.478 13.584z"/>
    <path fill="#ebebeb" d="M127.357 223.99c.567-.49.883-1.004 1.192-.998 6.008.09 12.065-.189 18.01.502 5.624.652 8.738 5.931 7.042 10.888-1.52 4.448-5.269 5.839-9.509 6.225-1.79.165-3.608.027-5.737.027.188 2.952.284 5.648.558 8.326.23 2.263 1.754 3.17 3.907 3.352.486.043.929.586 1.39.898-.508.256-1.012.732-1.524.738a531 531 0 0 1-13.359.004c-.534-.006-1.062-.445-1.592-.683.443-.335.877-.94 1.332-.959 2.973-.113 4.088-1.958 4.125-4.541.089-6.259.081-12.519.004-18.779-.033-2.662-1.319-4.364-4.21-4.482-.431-.016-.857-.264-1.629-.518m11.221 13.625c5.449.565 7.524.044 8.836-2.371 1.317-2.422 1.321-4.956-.236-7.246-2.151-3.167-5.443-2.23-8.6-2.344z"/>
    <path fill="#3179a1" d="M57.448 254.896c-4.868-.211-8.834-1.739-11.772-5.378-4.17-5.164-3.537-12.178 1.445-16.644 5.374-4.815 14.259-5.022 19.775-.347 3.734 3.167 5.504 7.178 4.289 12.095-1.371 5.546-5.285 8.517-10.602 9.866-1.109.278-2.28.303-3.135.408m9.233-12.696-.456-.299c-.302-1.44-.479-2.923-.93-4.317-1.305-4.005-4.035-5.984-8.052-5.992-4.002-.008-6.695 1.981-8.003 6.028-1.162 3.599-1.012 7.164.778 10.525 2.672 5.014 9.812 5.955 13.306 1.495 1.63-2.078 2.268-4.937 3.357-7.44"/>
    <path fill="#ebebeb" d="m243.703 230.22 1.814-1.589v8.891l-.526.396c-.425-.599-1.012-1.142-1.25-1.81-1.201-3.363-3.789-5.187-6.743-4.302-1.014.303-2.233 1.319-2.503 2.256-.222.764.579 2.275 1.363 2.791 2.048 1.349 4.33 2.349 6.53 3.46 4.787 2.422 6.498 5.781 4.878 9.623-1.643 3.903-6.629 5.922-11.097 4.415-1.231-.419-2.371-1.106-3.511-1.648l-1.741 2.288-.77-.236c0-3.001-.018-6.002.03-9.003.004-.29.437-.573.671-.859.365.443.91.833 1.071 1.341 1.062 3.364 3.108 5.599 6.755 5.973 2.079.214 4.11-.042 4.832-2.411.658-2.168-.854-3.391-2.477-4.316-1.786-1.016-3.674-1.847-5.502-2.783-.803-.413-1.621-.821-2.343-1.351-2.554-1.884-3.561-4.598-2.806-7.351.675-2.461 3.095-4.545 6.09-4.633 2.216-.063 4.459.508 7.235.858m-33.055 22.404c-.337.67-.524 1.233-.871 1.668-.21.26-.724.508-.996.422-.258-.081-.532-.597-.538-.926-.043-2.639-.043-5.281.002-7.916.004-.323.361-.638.556-.957.374.238.906.392 1.091.736.344.638.423 1.414.724 2.08 1.357 3.011 4.106 4.895 7.259 4.438 1.319-.189 2.946-1.191 3.6-2.312.882-1.506-.174-3.056-1.654-3.912-1.989-1.15-4.049-2.184-6.113-3.191-4.667-2.278-6.636-6.039-4.964-9.588 1.662-3.529 6.766-4.998 11.031-3.162.52.224 1.014.508 1.422.72l2.19-1.801c.23.644.376.866.378 1.087.016 2.471.01 4.94.01 7.408l-.644.431c-.428-.549-1.024-1.034-1.257-1.654-1.165-3.113-3.007-4.838-5.71-4.508-1.267.152-2.883 1.024-3.506 2.068-.915 1.534.406 2.765 1.798 3.513 1.956 1.054 3.96 2.015 5.945 3.013 4.912 2.464 6.641 5.888 4.945 9.801-1.652 3.812-6.798 5.784-11.209 4.22-1.146-.404-2.209-1.057-3.489-1.678M126.903.79c-54.412-.972-99.876 43.18-99.89 96.72-.017 55.081 43.353 99.026 97.68 98.944 53.821-.079 97.386-43.859 97.386-97.863-.002-53.126-43.368-96.877-95.176-97.802m-2.332 190.754c-51.456.012-92.839-41.71-92.836-93.597.002-50.55 42.026-92.404 92.797-92.422 51.672-.016 92.841 41.964 92.825 94.653-.016 49.743-42.275 91.356-92.786 91.366m49.564-120.578c-2.019-3.328-4.502-6.557-5.644-10.185-1.3-4.129-2.379-8.828-1.69-12.967 1.17-7.018 6.552-10.502 13.84-11.169C140.77-.359 78.115 12.886 55.028 53.092c8.887-.412 17.372-.95 25.863-1.064 1.607-.023 4.266 1.335 4.644 2.594.845 2.814-1.52 3.796-4.035 3.989-2.643.207-5.29.404-8.36.638l30.344 90.4c.729-1.193 1.03-1.528 1.162-1.92 5.611-16.772 11.256-33.534 16.725-50.355.5-1.534.252-3.565-.297-5.142-2.893-8.353-6.359-16.524-8.897-24.978-1.737-5.789-4.039-9.533-10.88-8.863-1.166.114-2.586-2.393-3.892-3.69 1.578-.94 3.145-2.673 4.738-2.698a1339 1339 0 0 1 41.797.013c1.597.026 3.163 1.806 4.744 2.77-1.384 1.265-2.574 3.158-4.192 3.646-2.592.782-5.467.634-8.57.91l30.381 90.38c4.604-15.287 8.887-29.326 13.048-43.398 3.718-12.56 1.503-24.293-5.216-35.358M101.421 177.05c-.187.543-.197 1.144-.341 2.046 17.185 4.763 34.032 4.419 51.281-1.392l-26.347-72.167c-8.434 24.511-16.521 48.01-24.593 71.513m-13.277-3.263L48.448 64.895c-17.908 34.98-4.285 88.352 39.696 108.893M198.776 61.223c-.548 6.084-.166 12.855-1.911 19.022-4.111 14.53-9.135 28.812-13.973 43.132-5.258 15.563-10.727 31.057-16.105 46.581 25.268-14.978 39.153-37.085 41.364-66.143 1.26-16.538-4.445-39.44-9.375-42.592"/>
  </g>
  <defs>
    <clipPath id="a">
      <path fill="#ebebeb" d="M.405 0h247.873v256H.405z"/>
    </clipPath>
  </defs>
</svg>
