<svg xmlns="http://www.w3.org/2000/svg" width="257" height="232" fill="none" viewBox="0 0 257 232"><path fill="#4d4d4d" d="M33.885 57.64 66.979.522 200.248.5l32.92 57.695.041 115.401-32.95 57.649-133.234.046-33.476-57.695z"/><path fill="#ededed" d="M33.549 173.579h60.069l-32.996-58.135 26.83-57.794-53.567-.011L.333 115.913"/><path fill="#e0e0e0" d="M111.832 173.578h43.898l38.826-56.583-38.148-58.8h-51.651l-31.108 56.82z"/><path fill="#acacac" d="m.333 115.907 33.222 57.689h60.063l-32.631-57.492z"/><path fill="#9e9e9e" d="m74.292 115.918 37.54 57.683h43.898l38.218-57.66z"/><path fill="#00b8e3" d="m89.16 115.96-11.337 3.294-10.867-3.312 44.39-76.934 11.105 19.199"/><path fill="#33c6e9" d="m122.41 173.584-11.052 19.292-29.488-31.769-14.937-45.142v-.024h22.22"/><path fill="#008aaa" d="M66.956 115.942h-.018v.018l-11.104 19.233-11.146-19.147L55.99 96.442l33.164-57.434h22.198"/><path fill="#d4d4d4" d="M189.108 173.578h67.225l-.04-115.39h-67.19z"/><path fill="#919191" d="M189.108 116.104v57.492h67.103v-57.492z"/><path fill="#00b8e3" d="M111.364 192.892h-22.21l-33.32-57.7 11.105-19.228z"/><path fill="#008aaa" d="m200.184 115.941-44.402 76.94c-4.081-5.998-11.075-19.285-11.075-19.285l33.308-57.66z"/><path fill="#00b8e3" d="m177.963 192.882-22.18-.005 44.407-76.935 11.099-19.204 11.122 19.337m-22.221-.133h-22.169l-33.32-57.741 11.029-19.187L182.699 73.3z"/><path fill="#33c6e9" d="M211.283 96.715v.017l-11.099 19.21-44.448-76.922 22.239.011z"/></svg>