<svg width="257" height="245" viewBox="0 0 257 245" fill="none" xmlns="http://www.w3.org/2000/svg">
<g clip-path="url(#clip0_18_983)">
<path d="M256.204 132.806L199.365 122.291L192.861 133.553L176.853 161.268L135.29 233.231C133.469 236.382 128.67 235.086 128.67 231.444V170.964V164.399C128.67 160.99 126.267 158.058 122.935 157.404L58.1795 144.683L0.212891 134.085C0.30094 137.096 1.01214 140.093 2.36634 142.866L50.2079 225.886C56.8824 237.469 69.2058 244.595 82.5337 244.577L174.28 244.455C187.601 244.437 199.9 237.286 206.548 225.695L253.368 144.047C255.364 140.575 256.302 136.68 256.204 132.806Z" fill="url(#paint0_linear_18_983)"/>
<path d="M64.7103 111.01L80.7426 83.1878L122.058 11.4896C123.876 8.3355 128.68 9.6302 128.68 13.2745V80.2842C128.68 83.697 131.089 86.6311 134.426 87.281L199.374 99.9355L256.213 110.451C256.14 107.605 255.502 104.775 254.299 102.128C254.016 101.505 253.712 100.889 253.367 100.29L206.487 18.7273C199.826 7.13915 187.514 0 174.189 0H82.1289C68.7826 0 56.454 7.16159 49.8014 18.779L3.05469 100.409C2.94707 100.596 2.8537 100.789 2.7522 100.978C0.957496 104.329 0.114041 108.038 0.222093 111.729L58.1887 122.327L64.7103 111.01Z" fill="url(#paint1_linear_18_983)"/>
</g>
<defs>
<linearGradient id="paint0_linear_18_983" x1="250.857" y1="182.776" x2="4.81608" y2="185.055" gradientUnits="userSpaceOnUse">
<stop stop-color="#3585A3"/>
<stop offset="1" stop-color="#00DEAE"/>
</linearGradient>
<linearGradient id="paint1_linear_18_983" x1="12.6117" y1="62.67" x2="231.189" y2="56.9713" gradientUnits="userSpaceOnUse">
<stop stop-color="#3585A3"/>
<stop offset="1" stop-color="#00DEAE"/>
</linearGradient>
<clipPath id="clip0_18_983">
<rect width="256" height="245" fill="white" transform="translate(0.212891)"/>
</clipPath>
</defs>
</svg>
