<svg xmlns="http://www.w3.org/2000/svg" width="256" height="256" fill="none" viewBox="0 0 256 256"><g fill="#0b5a9d" clip-path="url(#a)"><path d="M127.742 255.772C59.186 255.772 1.064 197.87.525 128.886a125.77 125.77 0 0 1 36.734-89.723A127.87 127.87 0 0 1 128.072.637a126.07 126.07 0 0 1 89.489 37.162 126.2 126.2 0 0 1 38.1 89.226c.317 70.514-56.37 128.044-126.886 128.762h-1.034zm.399-248.458a121.23 121.23 0 0 0-86.054 36.568 119.13 119.13 0 0 0-34.896 84.95c.495 65.383 55.596 120.207 120.509 120.207h.869c66.86-.609 120.664-55.116 120.414-121.974a119.54 119.54 0 0 0-36.127-84.507 118.98 118.98 0 0 0-84.715-35.244"/><path d="M29.146 165.524v-74.53h18.13v6.68h-9.617v61.309h9.62v6.679zm61.53-38.003c0 13.593-8.252 21.334-19.43 21.334s-18.628-8.721-18.628-20.629c0-12.463 7.81-21.238 19.236-21.238s18.822 9.149 18.822 20.533m-30.248.608c0 8.251 4.14 14.793 11.248 14.793s11.19-6.679 11.19-15.097c0-7.645-3.768-14.863-11.192-14.863s-11.315 6.983-11.315 15.333zm36.527-19.733a62.3 62.3 0 0 1 10.75-.898 19.24 19.24 0 0 1 11.618 2.566 8.52 8.52 0 0 1 4.209 7.575 9.4 9.4 0 0 1-6.679 8.778 10.224 10.224 0 0 1 8.184 10.019 10.53 10.53 0 0 1-3.905 8.348c-2.871 2.539-7.644 3.768-15.028 3.768a71 71 0 0 1-9.08-.539zm7.342 15.994h3.766c5.106 0 7.976-2.403 7.976-5.838 0-3.437-2.87-5.548-7.575-5.548a20.6 20.6 0 0 0-4.209.304zm0 18.629c1.297.136 2.608.193 3.903.164 4.748 0 8.943-1.807 8.943-6.677 0-4.871-4.071-6.679-9.176-6.679h-3.672zm35.328-35.162h7.38V134.2c0 11.192-5.408 14.932-13.356 14.932a19.6 19.6 0 0 1-6.239-1.064l.898-5.947c1.476.47 3.022.703 4.581.732 4.209 0 6.679-1.932 6.679-8.943zm28.384 21.94v5.108h-15.36v-5.108zm35.863 17.36a25.8 25.8 0 0 1-10.445 1.809c-12.861 0-20.671-8.045-20.671-20.369-.594-11.233 8.03-20.822 19.263-21.416a19 19 0 0 1 2.373.013 23.3 23.3 0 0 1 10.02 1.808l-1.643 5.878a19.9 19.9 0 0 0-7.949-1.574c-8.251 0-14.185 5.177-14.185 14.932 0 8.887 5.244 14.628 14.131 14.628 2.755.042 5.491-.47 8.045-1.505zm23.171-56.37v74.722h-18.132v-6.677h9.616V97.466h-9.616v-6.68z"/></g><defs><clipPath id="a"><path fill="#ebebeb" d="M0 0h256v256H0z"/></clipPath></defs></svg>
