<svg xmlns="http://www.w3.org/2000/svg" width="256" height="256" fill="none" viewBox="0 0 256 256"><g clip-path="url(#a)"><path fill="#000" d="M128 256c70.692 0 128-57.308 128-128S198.692 0 128 0 0 57.308 0 128s57.308 128 128 128"/><path fill="#000" d="M128 256c70.692 0 128-57.308 128-128S198.692 0 128 0 0 57.308 0 128s57.308 128 128 128"/><path fill="url(#b)" d="M212.622 224 98.276 76.8H76.8v102.4h17.209V98.702L199.11 234.524c4.693-3.271 9.245-6.684 13.511-10.524"/><path fill="url(#c)" d="M163.556 76.8h17.066v102.4h-17.066z"/></g><defs><linearGradient id="b" x1="132.594" x2="183.083" y1="183.785" y2="246.363" gradientUnits="userSpaceOnUse"><stop stop-color="#ebebeb"/><stop offset="1" stop-color="#ebebeb" stop-opacity="0"/></linearGradient><linearGradient id="c" x1="172.288" x2="172.004" y1="76.772" y2="151.969" gradientUnits="userSpaceOnUse"><stop stop-color="#ebebeb"/><stop offset="1" stop-color="#ebebeb" stop-opacity="0"/></linearGradient><clipPath id="a"><path fill="#ebebeb" d="M0 0h256v256H0z"/></clipPath></defs></svg>
