<svg width="257" height="256" viewBox="0 0 257 256" fill="none" xmlns="http://www.w3.org/2000/svg">
<path d="M184.085 61.7656H61.0964C61.0964 92.4257 85.9039 117.236 116.564 117.236H139.19V139.138C139.19 169.798 164.008 194.619 194.669 194.619V72.3515C194.666 69.5451 193.551 66.8542 191.567 64.8695C189.582 62.8848 186.892 61.7685 184.085 61.7656Z" fill="url(#paint0_linear_21_2204)"/>
<path d="M245.68 0H122.691C122.691 30.6601 147.499 55.4703 178.159 55.4703H200.785V77.3719C200.785 108.032 225.603 132.853 256.263 132.853V10.5859C256.261 7.77946 255.146 5.08857 253.162 3.10388C251.177 1.11919 248.487 0.00288494 245.68 0Z" fill="url(#paint1_linear_21_2204)"/>
<path d="M123.138 123.074H0.138184C0.138184 153.734 24.9566 178.553 55.6139 178.553H78.2454V200.457C78.2454 231.106 103.061 255.925 133.721 255.925V133.66C133.719 130.854 132.603 128.163 130.619 126.178C128.635 124.193 125.944 123.077 123.138 123.074Z" fill="url(#paint2_linear_21_2204)"/>
<defs>
<linearGradient id="paint0_linear_21_2204" x1="192.111" y1="61.9035" x2="139.781" y2="115.863" gradientUnits="userSpaceOnUse">
<stop offset="0.176" stop-color="#0052CC"/>
<stop offset="1" stop-color="#2684FF"/>
</linearGradient>
<linearGradient id="paint1_linear_21_2204" x1="253.706" y1="0.137878" x2="201.376" y2="54.0971" gradientUnits="userSpaceOnUse">
<stop offset="0.176" stop-color="#0052CC"/>
<stop offset="1" stop-color="#2684FF"/>
</linearGradient>
<linearGradient id="paint2_linear_21_2204" x1="134.703" y1="123.548" x2="74.1971" y2="182.414" gradientUnits="userSpaceOnUse">
<stop offset="0.176" stop-color="#0052CC"/>
<stop offset="1" stop-color="#2684FF"/>
</linearGradient>
</defs>
</svg>
