<svg width="256" height="232" viewBox="0 0 256 232" fill="none"
  xmlns="http://www.w3.org/2000/svg">
  <g clip-path="url(#clip0_21_1773)">
    <path d="M8.22042 0.00195312C3.10583 0.00195312 -0.726116 4.68989 0.116538 9.37782L34.6494 220.812C35.5027 226.353 40.188 230.185 45.7292 230.185H212.82C216.665 230.185 220.073 227.199 220.927 223.364L255.883 9.80448C256.726 4.68989 252.894 0.428613 247.78 0.428613L8.22042 0.00195312ZM154.853 152.605H101.574L87.4993 77.1582H168.071L154.853 152.605Z" fill="#2684FF"/>
    <path d="M244.372 77.1562H167.648L154.853 152.603H101.574L38.9083 227.194C38.9083 227.194 41.8949 229.757 46.1588 229.757H213.25C217.092 229.757 220.5 226.77 221.354 222.935L244.372 77.1562Z" fill="url(#paint0_linear_21_1773)"/>
  </g>
  <defs>
    <linearGradient id="paint0_linear_21_1773" x1="262.324" y1="98.4093" x2="135.168" y2="197.672" gradientUnits="userSpaceOnUse">
      <stop offset="0.176" stop-color="#0052CC"/>
      <stop offset="1" stop-color="#2684FF"/>
    </linearGradient>
    <clipPath id="clip0_21_1773">
      <rect width="256" height="231.997" fill="#EBEBEB" transform="translate(0 0.00195312)"/>
    </clipPath>
  </defs>
</svg>
