<svg width="257" height="173" viewBox="0 0 257 173" fill="none" xmlns="http://www.w3.org/2000/svg">
<g clip-path="url(#clip0_75_1244)">
<path d="M168.581 3.39385C170.465 1.50153 173.521 1.50153 175.406 3.39386L254.547 82.8506C256.431 84.7429 256.431 87.811 254.547 89.7033L175.399 169.166C173.515 171.059 170.459 171.059 168.574 169.166L89.4337 89.7101C87.549 87.8178 87.549 84.7497 89.4337 82.8573L168.581 3.39385Z" fill="white"/>
<path d="M59.0091 89.7343C57.1295 87.8473 57.1293 84.7956 59.0091 82.9086L125.233 16.4222C127.458 14.1888 126.985 10.4536 124.166 9.04209C112.67 3.28482 99.7358 -0.00292969 86.0108 -0.00292969C38.5374 -0.00292969 0.0400391 38.6484 0.0400391 86.3214C0.0400391 133.995 38.5374 172.645 86.0108 172.645C99.7331 172.645 112.669 169.355 124.166 163.597C126.985 162.187 127.458 158.452 125.233 156.217L59.0091 89.7343Z" fill="white"/>
</g>
<defs>
<clipPath id="clip0_75_1244">
<rect width="256" height="173" fill="white" transform="translate(0.0400391 -0.00292969)"/>
</clipPath>
</defs>
</svg>
