<svg xmlns="http://www.w3.org/2000/svg" width="256" height="216" fill="none" viewBox="0 0 256 216"><path fill="#000" d="M227.488 63.997a37 37 0 0 0-1.6-1.544c-.544-.492-1.056-1.048-1.6-1.542s-1.056-1.05-1.6-1.542c-.544-.494-1.056-1.05-1.6-1.544s-1.056-1.048-1.6-1.542-1.056-1.05-1.6-1.544-1.056-1.048-1.6-1.542c15.872 15.04 24.966 35.504 25.312 56.962 0 51.13-53.824 92.726-120 92.726-37.056 0-70.208-13.052-92.256-33.512l1.6 1.544 1.6 1.542 1.6 1.544 1.6 1.542 1.6 1.544 1.6 1.542 1.6 1.542c22.016 21.324 55.904 35.054 93.856 35.054 66.176 0 120-41.594 120-92.57 0-21.786-9.728-42.43-26.912-58.66"/><path fill="#fbf0df" d="M233.6 110.16c0 46.934-50.144 84.98-112 84.98s-112-38.046-112-84.98c0-29.1 19.2-54.802 48.704-70.046S106.176 9.256 121.6 9.256 150.208 22 184.896 40.116C214.4 55.354 233.6 81.06 233.6 110.16"/><path fill="#f6dece" d="M233.6 110.16a64.6 64.6 0 0 0-2.56-17.836c-8.736 102.754-138.72 107.692-189.824 76.96 22.972 17.168 51.32 26.288 80.384 25.856 61.76 0 112-38.108 112-84.98"/><path fill="#ebebebefc" d="M78.496 34.468c14.304-8.27 33.312-23.792 52-23.822a30.7 30.7 0 0 0-8.896-1.39c-7.744 0-16 3.86-26.4 9.66-3.616 2.036-7.36 4.288-11.328 6.634-7.456 4.444-16 9.472-25.6 14.502C27.808 55.944 9.6 82.142 9.6 110.16v3.672c19.392-66.066 54.624-71.094 68.896-79.364"/><path fill="#ccbea7" d="M112.384 17.064a49.1 49.1 0 0 1-4.65 21.136A50.8 50.8 0 0 1 94.368 55.54c-.896.773-.192 2.255.96 1.82 10.784-4.04 25.344-16.135 19.2-40.543-.256-1.39-2.144-1.02-2.144.245m7.264 0a48.9 48.9 0 0 1 7.292 20.24c.89 7.173.16 14.447-2.14 21.323-.384 1.08.992 2.006 1.76 1.112 7.008-8.64 13.12-25.797-5.184-44.311-.928-.8-2.368.431-1.728 1.511zm8.832-.524a51.4 51.4 0 0 1 15.042 15.85 49.4 49.4 0 0 1 6.878 20.438c-.032.26.04.52.202.73a1.087 1.087 0 0 0 1.436.233c.223-.143.382-.367.442-.625 2.944-10.768 1.28-29.128-22.944-38.664-1.28-.493-2.112 1.173-1.056 1.914zM69.408 48.63a54.8 54.8 0 0 0 19.82-10.445 52.5 52.5 0 0 0 13.684-17.325c.576-1.113 2.4-.68 2.112.553C99.488 46.1 80.96 51.254 69.44 50.573c-1.216.032-1.184-1.604-.032-1.944"/><path fill="#000" d="M121.6 202.887c-66.176 0-120-41.596-120-92.726 0-30.858 19.776-59.646 52.896-76.896 9.6-4.938 17.824-9.906 25.152-14.256 4.032-2.406 7.84-4.66 11.52-6.758C102.4 5.833 112 1.543 121.6 1.543s17.984 3.704 28.48 9.69c3.2 1.76 6.4 3.672 9.824 5.77 7.968 4.752 16.96 10.12 28.8 16.262 33.12 17.25 52.896 46.008 52.896 76.896 0 51.13-53.824 92.726-120 92.726m0-193.628c-7.744 0-16 3.856-26.4 9.658-3.616 2.036-7.36 4.288-11.328 6.634-7.456 4.444-16 9.472-25.6 14.502C27.808 55.945 9.6 82.143 9.6 110.161c0 46.872 50.24 85.012 112 85.012s112-38.14 112-85.012c0-28.02-18.208-54.216-48.704-70.046-12.096-6.172-21.536-11.972-29.184-16.54-3.488-2.066-6.688-3.98-9.6-5.676-9.696-5.556-16.768-8.64-24.512-8.64"/><path fill="#b71422" d="M144.16 132.685c-1.438 5.678-4.71 10.766-9.344 14.534a22.14 22.14 0 0 1-12.8 5.8 22.25 22.25 0 0 1-13.216-5.8c-4.586-3.784-7.812-8.872-9.216-14.534a2.15 2.15 0 0 1 .1-1c.113-.323.299-.616.544-.856a2.38 2.38 0 0 1 1.916-.644h39.488a2.37 2.37 0 0 1 1.894.66 2.146 2.146 0 0 1 .634 1.84"/><path fill="#ff6164" d="M108.8 147.465a22.48 22.48 0 0 0 13.184 5.864 22.48 22.48 0 0 0 13.152-5.864 33 33 0 0 0 3.2-3.3 21.8 21.8 0 0 0-7.076-5.128 22.5 22.5 0 0 0-8.604-2 20.2 20.2 0 0 0-9.098 2.384 19.4 19.4 0 0 0-6.902 6.194c.736.646 1.376 1.264 2.144 1.85"/><path fill="#000" d="M109.312 145.028a17 17 0 0 1 5.94-4.694 17.7 17.7 0 0 1 7.468-1.724 19.56 19.56 0 0 1 12.8 5.216 50 50 0 0 0 2.112-2.376c-4.07-3.74-9.452-5.866-15.072-5.956a21 21 0 0 0-8.67 1.95 20.3 20.3 0 0 0-6.978 5.332 30 30 0 0 0 2.4 2.252"/><path fill="#000" d="M121.888 154.871a24.15 24.15 0 0 1-14.24-6.172c-4.954-4.04-8.44-9.5-9.952-15.582-.108-.54-.09-1.1.054-1.634a3.66 3.66 0 0 1 .778-1.452c.443-.513.997-.92 1.62-1.19a4.64 4.64 0 0 1 1.996-.384h39.488a4.76 4.76 0 0 1 1.992.392c.622.27 1.176.673 1.624 1.182.364.424.626.92.764 1.456.14.534.152 1.09.036 1.63-1.512 6.084-5 11.542-9.952 15.582a24.15 24.15 0 0 1-14.208 6.172m-19.744-22.834c-.512 0-.64.216-.672.278 1.352 5.276 4.412 9.998 8.736 13.484a20.24 20.24 0 0 0 11.68 5.4 20.4 20.4 0 0 0 11.68-5.34c4.31-3.49 7.358-8.212 8.704-13.482a.67.67 0 0 0-.28-.226.7.7 0 0 0-.36-.052z"/><path fill="#febbd0" d="M170.304 134.599c10.34 0 18.72-4.754 18.72-10.616s-8.38-10.614-18.72-10.614-18.72 4.752-18.72 10.614 8.38 10.616 18.72 10.616m-96.864 0c10.34 0 18.72-4.754 18.72-10.616s-8.38-10.614-18.72-10.614-18.72 4.752-18.72 10.614 8.38 10.616 18.72 10.616"/><path fill="#000" d="M82.24 119.725c3.474.01 6.877-.979 9.804-2.85a17.15 17.15 0 0 0 6.508-7.624 16.44 16.44 0 0 0 1.016-9.826 16.8 16.8 0 0 0-4.816-8.714 17.84 17.84 0 0 0-9.028-4.66 18.24 18.24 0 0 0-10.192.96 17.5 17.5 0 0 0-7.92 6.262 16.57 16.57 0 0 0-2.972 9.45c0 4.504 1.854 8.824 5.154 12.01 3.3 3.188 7.776 4.984 12.446 4.992m79.264 0a18.1 18.1 0 0 0 9.83-2.806 17.16 17.16 0 0 0 6.55-7.604 16.44 16.44 0 0 0 1.056-9.834 16.8 16.8 0 0 0-4.796-8.736 17.84 17.84 0 0 0-9.024-4.688 18.24 18.24 0 0 0-10.206.946 17.5 17.5 0 0 0-7.934 6.26 16.58 16.58 0 0 0-2.98 9.46c-.008 4.49 1.828 8.8 5.11 11.988 3.28 3.186 7.738 4.99 12.394 5.014"/><path fill="#ebebeb" d="M76.8 103.805a6.8 6.8 0 0 0 3.688-1.062 6.45 6.45 0 0 0 2.454-2.86 6.18 6.18 0 0 0 .39-3.694 6.3 6.3 0 0 0-1.804-3.278 6.7 6.7 0 0 0-3.392-1.756 6.85 6.85 0 0 0-3.832.358 6.6 6.6 0 0 0-2.978 2.352 6.23 6.23 0 0 0-1.118 3.552c0 1.688.694 3.308 1.928 4.506a6.75 6.75 0 0 0 4.664 1.882m79.264 0a6.8 6.8 0 0 0 3.688-1.062 6.45 6.45 0 0 0 2.454-2.86 6.18 6.18 0 0 0 .39-3.694 6.33 6.33 0 0 0-1.804-3.278 6.7 6.7 0 0 0-3.392-1.756 6.85 6.85 0 0 0-3.832.358 6.6 6.6 0 0 0-2.978 2.352 6.23 6.23 0 0 0-1.118 3.552 6.27 6.27 0 0 0 1.906 4.484 6.74 6.74 0 0 0 4.622 1.904z"/></svg>
