<svg xmlns="http://www.w3.org/2000/svg" width="256" height="212" fill="none" viewBox="0 0 256 212"><g clip-path="url(#a)"><path fill="#ebebeb" fill-rule="evenodd" d="m213.937 15.694 5.391 7.097c1.415 1.874 1.061 4.558-.812 5.974l-5.724 4.35a33.4 33.4 0 0 1 1.978 8.741l6.514.895c2.331.312 3.955 2.477 3.642 4.808l-1.207 8.845a4.255 4.255 0 0 1-4.808 3.643l-7.118-.979a33.2 33.2 0 0 1-4.807 7.576l3.996 5.245a4.275 4.275 0 0 1-.833 5.973l-7.097 5.391c-1.873 1.415-4.558 1.04-5.973-.812l-4.35-5.723a33.5 33.5 0 0 1-8.762 1.977l-.895 6.514c-.313 2.331-2.477 3.955-4.808 3.643l-8.846-1.208c-2.331-.312-3.954-2.476-3.642-4.807l.978-7.118a34.3 34.3 0 0 1-7.576-4.787l-5.244 3.975c-1.874 1.415-4.559 1.062-5.974-.812l-5.39-7.097c-1.416-1.873-1.062-4.558.811-5.973l5.724-4.35a33.5 33.5 0 0 1-1.977-8.741l-6.515-.895a4.255 4.255 0 0 1-3.642-4.808l1.207-8.846a4.28 4.28 0 0 1 4.808-3.642l7.118.978a34.3 34.3 0 0 1 4.787-7.576l-3.975-5.244a4.25 4.25 0 0 1 .811-5.953l7.098-5.39c1.873-1.416 4.558-1.062 5.973.811l4.35 5.724a33.4 33.4 0 0 1 8.741-1.978l.895-6.514c.312-2.331 2.477-3.975 4.808-3.663l8.845 1.207a4.255 4.255 0 0 1 3.643 4.808l-.979 7.118a33.8 33.8 0 0 1 7.597 4.808l5.245-3.976a4.276 4.276 0 0 1 5.994.791M61.753 140.593v-34.342h17.691c3.289 0 5.786.271 7.514.854 1.727.562 3.142 1.602 4.183 3.122 1.061 1.54 1.603 3.392 1.603 5.577 0 1.894-.417 3.559-1.228 4.933-.812 1.394-1.936 2.518-3.351 3.372-.895.541-2.144.999-3.726 1.353 1.27.437 2.186.832 2.748 1.269q.593.438 1.685 1.811c.729.916 1.228 1.644 1.478 2.144l5.162 9.927H83.523l-5.66-10.469c-.73-1.352-1.353-2.247-1.915-2.643a4.57 4.57 0 0 0-2.602-.791h-.937v13.903H61.753zm37.422 59.795H79.36l-2.852 9.324H58.653l21.292-56.59H99.09l21.209 56.59h-18.315zm-3.705-12.259-6.181-20.355-6.203 20.355zm28.951-35.007h29.096c6.348 0 11.094 1.498 14.236 4.516s4.725 7.326 4.725 12.883c0 5.724-1.728 10.199-5.162 13.425s-8.7 4.828-15.755 4.828h-9.595v20.938h-17.545zm17.545 24.185h4.308c3.393 0 5.786-.583 7.16-1.77 1.374-1.165 2.06-2.684 2.06-4.495 0-1.769-.603-3.289-1.789-4.517-1.187-1.228-3.435-1.852-6.723-1.852h-5.016zm37.588-24.185h17.545v56.59h-17.545zM72.409 120.196h4.475c.479 0 1.415-.167 2.81-.479a2.8 2.8 0 0 0 1.727-1.082c.458-.583.666-1.249.666-1.998 0-1.103-.353-1.977-1.061-2.56-.708-.604-2.019-.895-3.955-.895H72.41zm25.142-13.945h28.41v7.326h-17.753v5.474h16.463v6.993h-16.463v6.765h18.273v7.763h-28.93zM129 129.229l10.073-.625c.208 1.645.666 2.872 1.332 3.726 1.103 1.373 2.664 2.081 4.683 2.081 1.499 0 2.685-.354 3.497-1.061.811-.708 1.228-1.541 1.228-2.477 0-.895-.396-1.686-1.166-2.394-.77-.707-2.581-1.352-5.432-1.998-4.641-1.04-7.951-2.435-9.949-4.162q-2.997-2.592-2.997-6.619c0-1.769.521-3.434 1.54-4.995s2.56-2.81 4.621-3.704c2.06-.895 4.87-1.333 8.45-1.333 4.391 0 7.721.812 10.032 2.456 2.289 1.645 3.663 4.225 4.1 7.805l-9.97.604c-.27-1.561-.832-2.706-1.665-3.393-.853-.707-2.039-1.061-3.517-1.061-1.228 0-2.164.27-2.789.791-.624.52-.936 1.165-.936 1.915 0 .541.27 1.019.77 1.477.499.437 1.665.874 3.538 1.27 4.641.999 7.971 2.019 9.969 3.039 1.998 1.019 3.476 2.289 4.371 3.808.916 1.499 1.374 3.205 1.374 5.079 0 2.206-.604 4.225-1.832 6.077-1.207 1.852-2.914 3.268-5.099 4.225s-4.933 1.436-8.263 1.436c-5.827 0-9.886-1.124-12.134-3.372-2.248-2.289-3.517-5.14-3.829-8.595m32.697-22.978h32.281v8.492h-10.823v25.85H172.54v-25.85h-10.843zm-35.715-81.503a66 66 0 0 0-11.468.125c-11.718 1.124-23.102 5.39-32.51 12.696C71.12 45.998 62.856 58.61 59.672 75.323l-1 5.224-5.202.916c-5.1.895-9.658 2.123-13.654 3.684-3.87 1.498-7.326 3.35-10.344 5.536a34.3 34.3 0 0 0-6.264 5.828c-5.474 6.556-8.013 14.777-7.95 23.102.062 8.45 2.809 16.983 7.887 23.997 1.894 2.602 4.08 4.995 6.577 7.077a33 33 0 0 0 8.596 5.161c1.81.75 3.746 1.374 5.765 1.874v15.588c-4.163-.749-7.992-1.873-11.572-3.35-4.725-1.957-8.908-4.475-12.592-7.556a53.7 53.7 0 0 1-9.157-9.823C3.83 143.007.085 131.31.002 119.655c-.084-11.78 3.58-23.498 11.488-32.989a49.2 49.2 0 0 1 9.033-8.408c4.017-2.914 8.616-5.37 13.82-7.389 3.58-1.394 7.409-2.56 11.447-3.496 4.578-18.19 14.34-32.198 26.89-41.918C84.418 16.36 98.55 11.054 113.099 9.66a82.5 82.5 0 0 1 22.956 1.02 18 18 0 0 0-.395 2.08l-.021.125a20.6 20.6 0 0 0-.146 3.58 18 18 0 0 0-4.454 2.519l-.062.041a18.6 18.6 0 0 0-4.995 5.724m110.121 39.96a57 57 0 0 1 3.392 3.352q3.34 3.59 6.307 8.117c6.66 10.24 10.073 23.914 9.927 37.296-.145 13.133-3.683 26.204-10.926 35.819-4.725 6.265-10.781 11.385-18.045 15.444-4.974 2.788-10.573 5.099-16.671 6.972v-16.13c3.288-1.228 6.348-2.602 9.157-4.163 5.474-3.059 9.949-6.785 13.3-11.26 5.203-6.93 7.763-16.733 7.867-26.786.125-10.552-2.456-21.146-7.472-28.846a43 43 0 0 0-4.683-6.015 43 43 0 0 0-1.956-1.957c.104-1.04.146-2.102.083-3.163a18 18 0 0 0 4.454-2.519l.063-.041a18.9 18.9 0 0 0 5.203-6.12m-52.782-37.171c9.595 1.311 16.297 10.157 14.986 19.751-1.312 9.595-10.157 16.318-19.752 15.006-9.595-1.31-16.317-10.156-14.985-19.751s10.157-16.317 19.751-15.006" clip-rule="evenodd"/></g><defs><clipPath id="a"><path fill="#ebebeb" d="M0 .895h256v210.21H0z"/></clipPath></defs></svg>
