<svg width="256" height="234" viewBox="0 0 256 234" fill="none" xmlns="http://www.w3.org/2000/svg">
<g clip-path="url(#clip0_20_637)">
<path d="M191.895 71.3766L130.932 159.52C130.286 160.455 129.351 161.155 128.27 161.514C127.189 161.874 126.02 161.87 124.941 161.509C123.861 161.146 122.931 160.443 122.29 159.507C121.65 158.569 121.334 157.449 121.391 156.317L123.831 107.652L84.4424 99.299C83.6007 99.1207 82.8164 98.7382 82.159 98.1858C81.5016 97.6334 80.9913 96.928 80.6735 96.1319C80.3557 95.3358 80.2401 94.4738 80.3369 93.6221C80.4338 92.7705 80.74 91.9554 81.2285 91.2491L142.192 3.10526C142.838 2.1702 143.773 1.47029 144.854 1.11147C145.936 0.752663 147.105 0.754518 148.184 1.11704C149.263 1.47939 150.194 2.18251 150.834 3.11977C151.475 4.05687 151.79 5.17682 151.733 6.30977L149.293 54.9747L188.681 63.3274C189.523 63.5057 190.307 63.8881 190.965 64.4404C191.623 64.9929 192.133 65.6984 192.45 66.4945C192.769 67.2905 192.883 68.1525 192.787 69.0041C192.691 69.8558 192.384 70.6703 191.895 71.3766Z" fill="#FCC72B"/>
<path d="M128.054 233.471C126.432 233.473 124.827 233.156 123.329 232.535C121.831 231.914 120.47 231.003 119.325 229.856L61.7221 172.257C59.4177 169.941 58.1261 166.805 58.1303 163.538C58.1347 160.27 59.4346 157.136 61.7454 154.826C64.056 152.515 67.1888 151.215 70.4565 151.21C73.7245 151.206 76.8608 152.497 79.1778 154.801L128.054 203.672L234.531 97.1999C236.852 94.9161 239.981 93.6422 243.237 93.6554C246.494 93.6686 249.613 94.9681 251.914 97.2706C254.217 99.5733 255.518 102.692 255.531 105.949C255.543 109.205 254.269 112.334 251.985 114.655L136.78 229.856C135.636 231.005 134.275 231.914 132.778 232.535C131.28 233.156 129.675 233.473 128.054 233.471Z" fill="#729B1B"/>
<path d="M128.004 233.471C129.626 233.473 131.231 233.156 132.729 232.535C134.227 231.914 135.588 231.003 136.733 229.856L194.336 172.257C196.64 169.941 197.932 166.805 197.927 163.538C197.924 160.27 196.623 157.136 194.312 154.826C192.001 152.515 188.868 151.215 185.601 151.21C182.333 151.206 179.197 152.497 176.879 154.801L128.004 203.672L21.5275 97.1999C19.2063 94.9161 16.0767 93.6422 12.8206 93.6554C9.56426 93.6686 6.44512 94.9681 4.14263 97.2706C1.8401 99.5733 0.540684 102.692 0.527323 105.949C0.514166 109.205 1.78814 112.334 4.07185 114.655L119.277 229.856C120.422 231.005 121.783 231.914 123.28 232.535C124.778 233.156 126.383 233.473 128.004 233.471Z" fill="#729B1B" fill-opacity="0.5"/>
</g>
<defs>
<clipPath id="clip0_20_637">
<rect width="256" height="233.089" fill="white" transform="translate(0 0.451172)"/>
</clipPath>
</defs>
</svg>
