<svg xmlns="http://www.w3.org/2000/svg" width="189" height="257" fill="none" viewBox="0 0 189 257"><g clip-path="url(#a)"><path fill="#d33833" d="M184.696 123.859c0 50.72-40.198 91.836-89.783 91.836-49.588 0-89.786-41.116-89.786-91.836s40.2-91.84 89.786-91.84 89.783 41.12 89.783 91.84"/><path fill="#ef3d3a" d="M8.787 146.604S2.287 50.834 90.53 48.1l-6.156-10.26-47.886 16.074-13.68 15.734-11.972 22.918-6.84 26.678 2.05 17.786"/><path fill="#231f20" d="M33.417 61.21c-15.752 16.12-25.5 38.372-25.5 62.992 0 24.614 9.748 46.872 25.5 62.988 15.76 16.114 37.48 26.06 61.493 26.06s45.734-9.946 61.494-26.06c15.752-16.116 25.502-38.374 25.502-62.988 0-24.62-9.75-46.874-25.502-62.992-15.76-16.11-37.48-26.056-61.494-26.058-24.011.002-45.733 9.946-61.493 26.06zM29.43 191.088c-16.74-17.122-27.092-40.784-27.092-66.886 0-26.106 10.352-49.766 27.092-66.888 16.74-17.126 39.908-27.74 65.48-27.738 25.575-.004 48.747 10.612 65.481 27.738 16.744 17.122 27.096 40.784 27.094 66.888 0 26.1-10.35 49.764-27.094 66.886-16.734 17.124-39.906 27.74-65.48 27.74s-48.746-10.616-65.481-27.74"/><path fill="#f0d6b7" d="m132.707 124.368-13.682 2.052-18.47 2.052-11.972.342-11.63-.34-8.892-2.738-7.868-8.55-6.156-17.444-1.368-3.762-8.21-2.736-4.788-7.868-3.42-11.288 3.762-9.92 8.892-3.076 7.184 3.42 3.42 7.524 4.106-.684 1.366-1.71-1.366-7.866-.344-9.92 2.052-13.68-.08-7.816 6.238-9.97 10.944-7.868 19.156-8.208 21.206 3.078 18.469 13.34 8.552 13.68 5.472 9.92 1.368 24.626-4.106 21.208-7.524 18.81-7.182 9.92"/><path fill="#335061" d="m142.965 114.449-8.206 8.21v31.808l-7.16 29.32-3.442.094 2.734 32.836 12.996-1.71-3.076-31.468-5.804.158 15.726-.844s7.864-19.838 7.864-20.864 6.844-28.73 6.844-28.73l-15.396-16.074-3.078-2.74zm-82.43 5.128-8.55 3.422-27.364 18.812 1.712 5.474 7.868 23.256 3.418 38.654 2.394 4.1 34.202 11.634 2.056-2.4-4.106-28.73v-8.206l48.91-2.054 3.76-2.052-29.752-14.024 5.472-10.6-7.866 2.734-3.08-3.762-4.104-17.786-3.422-1.026-7.524-2.396-6.5-5.812z"/><path fill="#6d6b6d" d="m40.013 64.17 8.892-3.08 7.184 3.422 3.42 7.524 4.106-.684 1.026-4.104-2.052-7.866 2.052-18.813-1.712-10.26 6.158-7.184 13.34-10.602-3.764-5.13-18.812 9.234-7.866 6.158-4.448 9.576-6.84 9.234-2.052 10.946z"/><path fill="#dcd9d8" d="M85.801 8.543c-2.344-.024-5.086.216-5.086.216l-22.23 8.554-8.554 8.552-3.762 6.84 7.868-.684s5.13-12.656 25.652-18.812c12.826-3.848 10.02-4.624 6.112-4.666m-22.87 21.766L44.12 34.755 38.645 52.54l1.368 11.628 3.76-2.39S36.591 37.83 63.953 34.41z"/><path fill="#f7e4cd" d="M106.883 1.45a22.6 22.6 0 0 0-7.7 1.496c-20.52 7.866-35.57 22.23-35.23 31.464.584 15.728.344 15.74.344 15.74s5.816-30.102 35.234-35.918c24.216-4.786 36.936 1.024 41.726 6.496 0 0-16.5-19.64-34.372-19.28zm36.656 22.7c-1.09-.006-9.826.216-10.148 8.554 0 0 0 1.366.684 2.734 0 0 7.868-8.894 12.656-4.106l-3.078-7.18q-.001-.001-.114-.002m-50.37 4.02c-1.68.04-3.752.742-6.298 2.48-7.524 5.13-6.84 12.314-5.472 13.682s.998 4.12 2.04 2.23c1.04-1.89.698-8.044 4.46-9.754s9.932-3.624 12.32-.444c0 0-1.044-8.332-7.05-8.192zm52.874 20.952s-5.636 1.188-6.156 6.156c-.52 4.966 6.158 1.024 7.184.682l-1.028-6.84zm-41.386.342s-7.524 1.026-7.524 5.814 8.552 4.446 10.946 2.394zM43.775 61.78l-7.864 8.204 1.368 10.262 4.1 10.6 4.45 1.372c-6.5-7.866-3.422-13.342-2.054-20.866 1.366-7.526 14.366.344 14.366.344l-.344-5.134-5.128-4.1zm77.218 15.694c-2.252-.1-3.112 7.27-3.296 9.172.62-1.84 6.342-5.54 6.342-5.54s0-2.792-2.792-3.588a1 1 0 0 0-.254-.044m-3.296 9.172a.8.8 0 0 0-.04.442s.012-.162.04-.442m-58.496 2.602-4.48 4.34 1.026 15.05 10.946 17.102s12.286 2.772 10.944 1.712c-14.706-11.63-15.732-33.18-16.074-35.576-.34-2.392-2.362-2.628-2.362-2.628m38.488 5.098c-1.35.02-2.244.456-2.496.792-.854 1.14.914 7.344.914 7.344l1.71.344c-.34-6.842 3.762-7.528 3.762-7.528-1.516-.728-2.84-.968-3.89-.952"/><path fill="#49728b" d="m58.14 119.239-33.52 22.572 3.763 10.606 8.896 38.304.34 20.184 4.788 1.708c6.84-16.42-6.496-69.434-6.496-69.434l32.148-14.364zm13.229 38.896-.916 2.146s-.682 6.156-.682 7.866c0 1.712.682 16.08.682 16.08h5.474v-20.526l-4.56-5.568zm.112 29.168-15.39.684 4.444 3.08 10.946 1.71zm71.484-72.854-6.496 7.182 23.942 17.788.684-8.208-18.13-16.76zm-6.84 67.04-11.968 2.392 1.708 9.58c4.446 2.052 11.972-3.422 11.972-3.422z"/><path fill="#ebebeb" d="M68.06 125.74v3.076l4.347 4.79 13.68 6.156.344-10.258-9.478-1.032zm100.117 48.568-10.946 3.422-10.5 5.126-5.578-1.02-4.344 1.706 3.664 28.736 13.336-3.766 25.312-1.368 3.762-11.628-6.84-20.18zm-44.02 9.574-19.94.004-32.052 1.708.582 15.738 3.524 21.2 7.08 28.738 15.732 3.418 25.996-2.052.34-5.132-3.08-27.704zm2.634-2.732-7.526-19.154-7.868-11.288s1.71-4.788 4.106-4.788h7.866l7.524 2.736-.682 12.656z"/><path fill="#dcd9d8" d="m71.14 130.527-1.025 1.37 5.816 4.102 9.574 2.05-.34-4.1c-3.42 1.026-14.024-3.422-14.024-3.422m47.541 14.706-7.864 1.024 13.34 31.468 2.734.344 1.368-3.42s-9.58-18.472-9.58-21.208c0 0 1.712-4.104 4.106-3.08 2.396 1.028 7.528 3.764 7.528 3.764v-6.498zm32.496 35.914-4.446 1.708 3.762 18.812c-1.368-.342-10.26 3.766-10.26 3.766l1.02 5.472 3.768-1.37 11.968-1.708 3.422 4.446 10.26.34 6.157-1.368 5.472-8.206-.344-6.16-3.76-10.946c1.026 8.208-3.08 16.078-3.08 16.078-1.71 0-20.861-1.028-20.861-1.028 0-2.052-3.078-19.836-3.078-19.836m-26.34.34-5.13 2.054s-1.708 35.574 3.422 60.884c0 0-10.26 6.498-25.312 8.206l28.73-1.026 3.422-2.052-4.104-56.094zm8.94 36.594c-1.472.008-3.66 1.052-5.206.95-.226 5.402.532 14.066.786 19.734 3.592.004 5.13-.784 7.812-1.688.302-6.67-2.114-12.844-2.808-18.934a2.3 2.3 0 0 0-.584-.062"/><path fill="#d33833" d="M136.465 128.136c-4.384.204-10.296 5.794-13.05 6.774.356 1.024.94 1.834.984 3.14 1.93-.476 4.28-.15 5.954.672-1.936.216-4.076.204-5.356 1.126-.47 1.354.11 3.2-.204 5.08 4.592 1.296 9.838 1.988 15.64 2.158 1.132-1.466 1.515-4.266 1.379-7.036-.159-3.34-1.037-10.208-3.099-11.41-.68-.394-1.436-.54-2.248-.504m-45.07 1.496c-4.648.1-4.164 8.216-3.938 13.184.19 4.196 2.376 8.636 3.32 11.426.448 1.3.548 2.684 1.66 2.94 1.968.46 8.46-2.134 10.31-3.142 3.91-2.132 6.946-5.52 10.266-7.794l.124-3.316c-1.996-.996-4.3-1.704-7.234-1.832 1.99-1 4.914-.986 6.726-2.176l.052-1.324c-3.308-.254-4.57-1.728-6.75-2.922-3.568-1.948-8.928-4.074-13.536-4.954a4.8 4.8 0 0 0-1-.09m26.86 6.914c-.884.008-1.938.342-3.14 1.146-.228 2.518.36 3.34.866 6.23 6.986 2.186 7.05-7.408 2.274-7.376"/><path fill="#ef3d3a" d="m136.025 125.742-12.996 7.524-.688 3.76v7.524l4.788 1.712s-2.394-3.42-.682-4.446c1.71-1.026 3.422 0 4.448-1.71 1.026-1.712 0-2.738.34-4.79.342-2.052 2.052-2.392 3.762-2.734 1.71-.34 6.5-1.026 7.184.684l-2.052-6.156zm-43.072 2.06c-1.694-.036-3.238.244-4.37 1.014-8.042 5.47-1.56 18.112 2.38 25.548q-.5-6.412-1.076-12.818c-.724-7.96 1.914-6.57 8.816-6.57 1.056 0 6.49 1.256 6.88 2.052 1.866 3.81-3.12 2.962 2.148 5.836 4.448 2.424 12.304-1.474 10.508-6.864-1.006-1.2-5.24-.374-6.758-1.16l-8.016-4.156c-2.336-1.214-6.784-2.804-10.512-2.882m-1.992 26.56c.084 1.064.172 2.126.254 3.188l1.224-.366c-.408-.81-.918-1.766-1.476-2.82z"/><path fill="#231f20" d="M102.04.513c-7.18.136-14.202 1.33-20.054 3.484-4.35 1.6-8.564 3.032-12.384 5.276-10.222 6-21.074 10.016-24.104 22.094-7.468 3.344-9.72 12.902-9.344 23.994.072 2.162 1.246 4.864.84 6.898-.208 1.032-1.608 2.354-1.888 3.026-3.58 8.534-.71 19.752 3.426 25.818 2.5 3.663 6.64 6.913 12.1 7.776.218 3.27 1.004 6.084 2.514 9.397.956 2.096 4.526 5.864 3.212 8.538-.66 1.348-6.474 4.274-8.402 5.432-6.51 3.904-11.228 6.298-17.238 10.624-3.887 2.8-9.97 3.16-9.01 9.616.647 4.356 3.127 9.756 4.545 14.124 1.535 4.714 3.735 9.032 5 13.924 2.81 10.902 3.395 21.174 4.08 31.822.267 4.17-.177 8.582.905 10.884 1.116 2.38 5.252 3.14 8.24 4.528 8.63 3.99 17.786 10.084 29.104 8.874 2.698 9.072 5.248 18.734 8.486 26.68 11.606 4.172 29.928 3.52 41.994 2.07 3.668-.444 7.538-2.254 8.4-5.434-.258-1.96-.544-3.9-.42-6.218 3.772-.78 8.906-1.424 9.736-5.6 1.164-5.856-3.698-14.246-2.076-20.672 2.184-.708 4.516-1.262 4.168-4.71 3.68-1.916 8.046-2.344 12.706-2.164.6 1.16 1.454 2.276 2.222 2.914 6.528 1.312 12.85 1.42 18.27-.348 6.134-2.004 9.06-14.55 7.658-20.52-.996-4.23-3.248-11.16-5.168-15.256-5.202-11.12-20.706-4.14-29.004-.016 4.026-10.59 7.488-21.57 11.04-33.45 1.06-3.56 3.156-8.606 2.686-12.294-.44-3.468-5.848-7.112-8.694-9.86-1.582-1.524-8.958-7.124-9.386-9.22-.414-2.028 3.008-6.621 4.108-8.919 1.58-3.288 2.712-7.312 3.49-10.05 5.8-20.392 6.39-48.408-1.902-65.172-3.14-6.35-11.92-15.12-17.41-19.274-8.096-6.12-20.484-8.84-32.446-8.616m.956 5.68c9.694-.094 20.474 3.326 27.774 7.444 6.1 3.44 10.6 10.096 14.892 15.634-6.018-1.786-11.14 1.284-10.206 6.248 5.038-4.618 13.644-.05 16.19 5.056 2.434 4.88 2.418 12.114 2.792 19.37.906 17.596-3.22 35.75-12.062 48.467-2.364 3.396-4.348 7.108-7.672 9.446-8.012 5.626-20.19 10.726-30.618 7.228-13.78-4.624-20.04-13.806-27.62-24.319.206 5.776 4.268 10.515 8.28 14.933 3.49 3.85 7.702 8.2 12.234 9.996-3.78-.888-9.584-1.166-11.16 2.228-8.82-.586-17.016-1.488-21.188-7.466-3.288-4.712-6.628-12.726-8.126-18.915-.306-1.272-.83-3.98-.702-4.675.492-2.685 5.276-3.865 3.394-7.62-3.472-.032-4.254 3.16-7.44 3.477-8.25.816-14.07-10.934-13.696-18.024.318-6.028 5.414-11.796 12.384-11.034 4.926.54 6.6 5.916 7.556 10.7 2.84.152 6.942-.122 8.286-2.338-.194-5.406-2.704-9.742-2.532-14.71.324-9.336 5.41-17.76 1.486-26.956 4.2-9.528 16.522-17.048 25.636-21.594 3.53-1.76 7.712-2.528 12.12-2.572zM77.92 10.885c.396.064.76.372 1.112.748-.06 1.622-1.66 1.588-2.74 2.108-1.68 2.066-4.136 3.032-6.18 5.296-2.098 2.32-4.444 8.552-7.224 9.24-1.394.348-2.986-.24-4.2-.16-3.21.202-5.47 1.846-8.726 2.318 4.204-9.19 17.318-16.626 27.548-19.524a.9.9 0 0 1 .41-.026M95.4 30.83c-5.274.006-11.28 5.644-12.846 9.946-.636 1.748-1.64 5.18.882 5.79 2.826-6.298 7.458-12.37 16.78-10.2 1.79-2.942-1.41-5.104-3.774-5.46a7 7 0 0 0-1.042-.076m-33.312.96c3.604 9.172-2.586 20.072-.28 30.102.706 3.072 3.148 7.84-.752 7.944.102-8.74-10.74-14.286-18.91-9.148-.546-6.628-1.492-15.946 3.028-20.918 4.17-4.592 9.918-7.45 16.914-7.98m83.552 15.194c-.298 5.034 1.572 8.064 2.87 11.624-2.244 1.412-6.61.532-9.14 1.638-.18 7.446 11.52 3.776 13.3-.37-2.66-3.864-4.482-8.5-6.59-12.874l-.44-.02zm-40.65.114c-1.384 3.928 2.376 10.596 4.484 13.968-2.746 2.666-7.684.452-11.358.28-3.506 5.538 6.846 6.58 11.288 5.268 1.216-.358 3.32-2.18 3.61-3 1.234-3.466-1.254-4.986-2.534-6.234-2.84-2.768-3.492-6.62-5.49-10.282m21.098 3.62c-.268-.036-.59.06-.976.34-.25 9.232 6.61 16.874 11.726 23.04 2.5 3.01 5.512 4.73 2.738 9.406-4.472 1.7-11.71 6.57-17.928 5.505-3.3-.564-2.556-4.31-3.74-6.345-2.276 2.994-1.384 7.523.96 9.56 10.958 1.084 18.416-3.588 25.104-7.886-.266-1.684 2.024-4.72 1.388-7.252-.22-.872-2.204-2.136-3.408-3.454-4.906-5.35-11.628-13.344-14.3-19.596-.24-.56-.402-3.164-1.564-3.318m-77.96 17.27c-2.534-.04-4.83 1.63-5.372 5.566 1.124-.736 2.03-2.83 4.056-1.834-1.78 3.474-1.352 10.24 1.07 12.44-.014-4.124-.656-11.174 2.86-10.96 2.462.148 2.96 5.42 5.056 6.616 1.446-6.956-3.444-11.764-7.67-11.828m100.102 20.72c-5.346 2.44-9.66 5.993-16.644 6.663-.338 1.154-.194 4.067-.008 5.981 9.134-.19 13.54-6.718 16.652-12.644m-43.768 3.841c2.67 7.147 14.706 9.667 24.886 9.159-.016-2.117-.006-4.26-.43-5.996-7.92.232-18.63-.1-24.456-3.162m-1.106 5.716c-5.146.006-.806 2.869.066 3.989 1.804 2.32 3.92 6.277 7.216 8.029 5.196 2.76 15.516 1.602 19.26.08 1.384-.56 2.5-2.113 3.014-3.425-11.68.28-25.526 1.443-29.556-8.672m38.872 19.66c4 3.222 6.416 6.254 10.252 9.7 2.08 1.866 6.176 4.102 6.59 7.12.23 1.684-.802 5.81-1.182 7.704-1.68 8.308-5.46 19.284-9.06 27.99-1.308 3.164-2.56 7.12-4.286 7.804-4.728 1.872-10.466-.182-14.484 2.32 5.4-9.37 11.28-18.222 16.572-27.704-.806-1.88-2.782-2.682-3.356-4.776 3.716-7.018 2.008-28.806-7.476-24.206 1.326-1.948 4.808-3.556 6.43-5.952m-83.448 4.96c.862-.34 7.154 7.846 8.084 8.51 5.1 3.62 11.432 6.48 17.354 9.306.362 2.718 1.2 6.24 2.676 10.952 1.626 5.204 2.968 12.548 9.844 8.796-.654 2.972-4.474 4.816-3.42 8.282.66 2.174 7.88 4.86 10.168 6.152 4.222 2.38 8.074 3.696 11.318 5.088-14.74.404-28.582 1.604-42.204 3.458-1.632-2.528-.974-6.424-1.146-10.45-.188-4.372 1.63-14.228-.088-14.84-1.942-.69-2.306 3.246-2.376 4.114-.364 4.616 2.198 14.39-.328 19.916-2.764-.782-4.126-2.86-6.716-3.804-1.016 3.2 2.104 3.354 1.784 5.386-.424 2.686-5.514.44-5.486 4.434 3.314.532 8.398-1.03 11.94.464.926 10.866 2.414 21.162 4.044 32.704-14.096-.732-23.22-7.736-33.61-12.594-.646-22.98-4.308-46.82-13.376-66.28 9.512-7.34 20.156-15.104 31.54-19.592zm78.164 5.252c.632.03 1.226.188 1.768.504 2.064 1.204 2.942 8.072 3.102 11.412.134 2.77-.252 5.566-1.38 7.034-5.804-.17-11.048-.86-15.64-2.156.314-1.88-.27-3.73.2-5.086 1.278-.92 3.422-.904 5.356-1.12-1.672-.824-4.02-1.15-5.95-.674-.046-1.308-.632-2.116-.986-3.14 2.854-1.018 9.108-6.992 13.53-6.774m-10.4.254c-2.436 1.588-4.51 3.574-6.848 5.27-5.186.258-8.016-.358-11.826-3.336.06-.24.444-.132.46-.426 5.55 2.474 12.61-1.008 18.214-1.508m-54.694.098c2.894 2.01 8.494 1.514 12.756 2.262.22 1.366-.884 3.16-.864 5.062-3.586-.22-14.854-4.32-11.892-7.324m19.544 1.146q.464-.012 1 .09c4.608.88 9.968 3.004 13.536 4.954 2.18 1.192 3.442 2.664 6.75 2.92-.014.44-.034.88-.05 1.324-1.812 1.19-4.738 1.176-6.726 2.176 2.932.128 5.24.834 7.236 1.83l-.13 3.318c-3.322 2.274-6.356 5.66-10.266 7.792-1.85 1.008-8.34 3.604-10.306 3.144-1.114-.258-1.214-1.64-1.66-2.94-.946-2.79-3.128-7.228-3.32-11.424-.226-4.97-.712-13.09 3.936-13.184m26.588 6.926q.411-.032.78.022c4.252.626 3.944 9.444-2.784 7.34-.506-2.888-1.092-3.712-.866-6.23 1.084-.722 2.044-1.066 2.87-1.132m3.872 10.028c2.436.26 4.364 3.62 7.84 3.4-.558 9.064-.266 18.16-2.796 26.464-4.714-8.644-7.488-19.08-13.59-26.434.644-.684 1.22-1.442 1.852-2.142 2.764 1.156 4.568-1.516 6.694-1.288m14.016 2.884c3.356-.026 6.104 2.168 7.614 4.594-4.728 8.1-9.252 16.416-14.86 23.56 2.35-6.916 3.358-18.49 3.714-27.314a8.5 8.5 0 0 1 3.532-.84m-25.54 3.086c5.6 7.108 9.008 16.25 12.76 25.074-8.864-2.672-17.92-7.008-25.688-11.404 1.524-6.608 7.5-10.032 12.928-13.67m59.022 23.456c2.434.06 4.852 2.036 5.91 3.638 1.912 2.888 3.698 11.39 4.7 15.904 1.494 6.718-1.864 13.258-7.206 14.554-3.888.944-9.852 1.194-12.398-.036 3.116-1.702 7.798-1.712 11.404-2.88-5.166-2.224-12.81-.128-19.022-.516-.75-7.67-1.316-15.986-3.134-22.04 3.626-3.854 12.386-4.78 17.36-7.962a4.16 4.16 0 0 1 2.386-.662m-.422 7.156c-6.366.188-11.34 1.874-14.18 5.876 5.166.33 8.886-4.816 14.18-5.876m-25.08 1.57c.45.02.894.07 1.32.166 3.384 5.82 4.112 15.498 4 22.522-2.11.408-3.48 1.616-6.04 1.536-.654-8.002-2.512-16.416-3.276-24.04 1.22-.024 2.642-.24 3.996-.184m-39.206.086c6.68-.108 13.16.284 18.77 1.452 1.37 8.906.86 17.69 1.86 26.42 1.324 11.616.332 24.868 2.6 35.752-12.346 3.826-29.18 3.456-43.148-.784-6.294-19.286-9.726-37.592-12.094-59.37 9.174-1.716 20.874-3.29 32.012-3.47m29.648.768c2.206 7.974 2.074 18.12 3.158 27.134-3.336.732-5.776 1.09-9.366 1.63-.714-9.364-1.26-18.59-1.132-27.942 2.544-.852 4.788-.8 7.34-.822m28.972 4.592c-2.52.032-4.788.58-5.76 2.064 4.38.36 9.444-.34 13.76-.796-1.968-.68-5.144-1.306-8-1.268m-.722 6.48c-2.256.028-4.246.456-5.268 1.554 4.608.386 10.636.482 15.486.378-1.966-.916-6.458-1.98-10.218-1.932m-29.436 21.472c.472-.074.9-.09 1.254.004.696 6.09 3.11 12.262 2.808 18.932-2.68.904-4.22 1.696-7.814 1.69-.252-5.668-1.012-14.332-.784-19.736 1.324.088 3.122-.668 4.536-.89"/><path fill="#81b0c4" d="M135.871 149.473a8.4 8.4 0 0 0-3.534.84c-.356 8.824-1.36 20.398-3.712 27.312 5.61-7.142 10.132-15.46 14.86-23.558-1.512-2.426-4.258-4.62-7.614-4.594m-25.54 3.088c-5.428 3.64-11.4 7.064-12.926 13.672 7.768 4.396 16.824 8.73 25.688 11.402-3.752-8.82-7.16-17.964-12.762-25.074"/><path fill="#f0d6b7" d="M126.545 128.391c-2.436 1.59-4.51 3.574-6.848 5.272-5.186.256-8.016-.36-11.826-3.338.062-.24.446-.132.46-.426 5.55 2.474 12.608-1.008 18.214-1.508"/><path fill="#1d1919" d="M125.18 153.955a1.882 1.882 0 1 1-3.763.001 1.882 1.882 0 0 1 3.763-.001m1.882 8.722a1.882 1.882 0 1 1-3.765 0 1.882 1.882 0 0 1 3.765 0"/></g><defs><clipPath id="a"><path fill="#ebebeb" d="M.91.5h188v256H.91z"/></clipPath></defs></svg>
