<svg xmlns="http://www.w3.org/2000/svg" width="220" height="256" fill="none" viewBox="0 0 220 256"><g fill-rule="evenodd" clip-path="url(#a)" clip-rule="evenodd"><path fill="#d3edf6" d="M26.749 246.066c.047.709-.286.851-.817.473-1.125-.802-2.387-1.495-3.297-2.499-4.564-5.04-7.867-10.794-9.432-17.467-.635-2.718-.68-5.443-.48-8.252.389-5.387 0-10.759-1.45-16.005-.095-.349-.313-.666-.695-1.45l-2.763 3.37-.333-.201c.083-7.763-.183-15.504-1.57-23.253l-3.058 7.229-.508-.089c-.226-1.157-.478-2.309-.675-3.469C.52 177.651.326 170.774.706 163.929c.59-10.586 2.337-20.972 7.268-30.552 1.387-2.694 3.066-5.207 5.3-7.505-1.141.343-2.3.64-3.421 1.044-1.176.423-2.316.949-3.722 1.534 1.469-3.86 3.421-7.245 5.959-10.256 2.505-2.972 5.18-5.803 7.883-8.808l-6.272-2.344-.443-.417c.435-.227.91-.402 1.297-.695 6.123-4.642 13.13-7.285 20.502-9.126 2.343-.583 1.932-.148 2.097-2.599.266-3.966.698-7.92 1.062-11.88l.362-.03 5.378 10.242c-.585-15.705.544-31.173 4.882-46.297l.368-.004c.028.506.093 1.012.075 1.515-.128 3.316.195 6.553 1.524 9.641.922 2.145 2.267 3.907 4.464 5.246.92-9.269 3.397-18.042 6.314-26.97l4.373 4.932a73.2 73.2 0 0 1 4.205-17.81l6.226 7.931 3.691-17.467 2.621 5.75c-.183 9.133 4.281 16.128 10.541 22.492l-6.926 3.498c7.261-.591 12.483-3.094 16.203-7.73 1.099-1.721 2.371-3.357 3.257-5.181 1.331-2.735 1.229-2.81-1.27-4.487-6.684-4.477-11.215-10.554-13.61-18.228 2.858-3.67 6.824-5.584 10.959-7.042l.528 8.202c1.107-.587 1.901-.992 2.682-1.423 6.863-3.779 14.171-6.322 21.847-7.828 1.477-.288 2.968-.491 4.458-.709.168-.024.365.124.548.191L124.74 6.48c-2.623 2.091-4.707 4.653-6.518 7.453l-.254.254-.004.252c-.258.268-.595.494-.764.809-1.367 2.553-2.777 5.087-4.018 7.704-.724 1.524-1.159 3.184-1.748 4.854l11.537 1.099.203.44c-8.288 7.463-16.59 14.912-24.294 23.297l8.251 1.13c-2.339.956-4.445 1.684-6.428 2.657-5.777 2.834-11.18 6.17-15.084 11.502-3.023 4.128-6.166 8.17-9.257 12.247a8228 8228 0 0 1-7.253-7.276l-1.853 8.459 5.15 4.634c-.272.522-.56 1.036-.814 1.566-1.61 3.38-3.355 6.701-4.775 10.157-1.477 3.6-1.81 7.481-2.086 11.343-.317 4.436-.811 8.863-.951 13.302-.169 5.378-.2 10.772.709 16.118.798 4.706 1.41 9.448 2.346 14.125.58 2.887 1.61 5.683 2.44 8.519l.348-.069 3.436-6.894.343.087c1.24 5.945 3.005 11.728 5.534 17.244 2.518 5.49 5.417 10.756 9.982 15.016v-7.273l.508.006c.933.485 1.87.967 2.784 1.487a160 160 0 0 0 19.907 9.598c8.296 3.316 16.555 6.715 24.434 10.949 2.44 1.311 4.894 2.709 7.025 4.452 4.838 3.962 9.481 8.165 14.202 12.271l-.392.925c-1.546 3.092-3.118 6.17-4.642 9.275-1.345 2.741-2.638 5.506-3.954 8.261l-.341-.053v-9.547c-.543 1.225-.758 2.464-1.087 3.673a1355 1355 0 0 1-4.072 14.706c-.421 1.475-1.477 2.324-2.928 2.901-1.698.675-3.283.46-4.913-.054l.015.008-.472-.218c-2.474-1.842-4.947-3.689-7.428-5.526-.634-.467-1.3-.892-1.926-1.319l.898 9.137-.477.246c-10.122-8.251-22.5-12.341-33.72-18.566-3.646-2.322-7.303-4.626-10.934-6.977-.97-.628-1.85-1.386-2.989-2.247l.557 4.496-.305.213-10.368-7.117c.181-1.412.451-2.82.526-4.236.135-2.586.456-5.214.161-7.761-.713-6.154-3.911-10.876-9.017-14.375a69 69 0 0 1-5.985-4.61c-1.05-.902-1.864-2.101-2.097-3.397l5.957.534c-1.772-3.303-3.535-6.227-4.935-9.315-1.402-3.099-2.739-6.289-2.566-10.206 1.042 1.416 1.719 2.733 3.269 3.361-.53-5.222.231-10.165 1.083-15.07.847-4.898 2.025-9.74 3.06-14.608-3.61 6.323-7.294 12.595-8.402 20.228l-2.98-3.137c-.13 1.894-.38 3.604-.342 5.311.086 3.824.23 7.652.5 11.467.307 4.352 1.496 8.499 3.214 12.512 1.959 4.581 5.315 8.145 8.424 11.902 1.977 2.385 3.67 4.971 4.118 8.113.486 3.399.805 6.82 1.197 10.233l.788 11.549c-2.261.465-8.576-1.061-9.9-2.499l1.062-.567c-1.136-.981-2.391-1.837-3.346-2.95-1.45-1.689-1.735-3.869-2.074-6.002-.088-.548-.533-1.038-.811-1.554-.528.479-1.223.871-1.532 1.465-.26.497-.197 1.259-.055 1.851.262 1.099.597 2.2 1.055 3.23 1.38 3.121 2.875 6.189 4.24 9.314 1.678 3.834 3.058 7.757 2.964 12.032-.028 1.253-.284 1.489-1.438 1.028a55 55 0 0 1-4.576-2.115c-1.174-.602-2.284-1.327-3.565-2.081v1.347l-.104.088c-.366-.185-.782-.309-1.093-.563-1.32-1.079-2.611-2.199-3.911-3.302l.008.01-.264-.528-2.33-5.799-.212.854-.376.792c-1.751-3.21-2.674-6.424-3.147-9.805-.851 2.891.059 5.65.44 8.61l.769-.833c.664 1.339 1.237 2.638 1.936 3.867a39 39 0 0 0 2.32 3.596c.423.587 1.043 1.032 1.57 1.54 1.23 3.097 2.498 6.183 3.117 9.807l-6.662-1.974c-2.685-1.203-5.432-2.298-7.592-4.411-.106-.102-.311-.1-.47-.147l-.097-.331-.096.065.19.27 2.214 4.617-.158.325-3.46-1.207zm2.71-4.175-2.604-6.284-.856.583L24.25 228c-1.676 3.208 1.615 12.359 5.21 13.891m28.65-102.213-.037-.108-.091.024.037.108z"/><path fill="#e9f5fa" d="M157.785 218.007c-4.722-4.106-9.365-8.308-14.202-12.272-2.132-1.743-4.586-3.141-7.026-4.451-7.877-4.232-16.138-7.631-24.434-10.949a160.5 160.5 0 0 1-19.907-9.598c-.914-.52-1.85-1.002-2.783-1.487l-.508-.006v7.273c-4.566-4.258-7.463-9.527-9.982-15.016-2.53-5.515-4.295-11.299-5.535-17.244l-.343-.087-3.436 6.893-.347.07c-.83-2.837-1.861-5.632-2.44-8.52-.937-4.677-1.549-9.419-2.347-14.124-.906-5.346-.876-10.74-.71-16.118.139-4.439.635-8.869.952-13.302.276-3.86.61-7.741 2.086-11.343 1.419-3.456 3.166-6.778 4.775-10.157.254-.532.542-1.044.815-1.566l.508.373c3.22 2.652 6.473 5.265 9.63 7.991.602.518 1.052 1.439 1.178 2.24.244 1.531.224 3.11.277 4.67.087 2.617.766 3.727 3.234 4.517 8.432 2.694 17.016 4.218 25.919 3.18 2.479-.291 4.556-1.228 5.998-3.31a155 155 0 0 0 3.708-5.581c1.363-2.162 1.733-2.308 4.232-1.93 1.126.17 1.491.692 1.465 1.743-.041 1.601-.008 3.204-.026 4.805-.039 3.563 1.918 5.603 5.185 6.357a65 65 0 0 0 8.468 1.38c3.6.337 7.247.662 10.762-.673-.859 2.225-1.711 4.452-2.58 6.674-.382.978-.732 1.977-1.221 2.902-.715 1.349-.949 2.558.502 3.572l.262.28-.002-.006.69 1.323c1.63 3.317 3.442 6.562 4.84 9.975 2.202 5.385 2.983 11.092 3.135 16.888.25 6.807-1.05 13.335-3.619 19.613-.747 1.822-1.41 3.83-2.665 5.272-5.653 6.51-12.841 9.466-21.504 8.574l-2.497-.29c.12.253.323.459.575.583 5.829 3.391 11.656 6.784 17.491 10.164.315.183.683.273 1.024.407 1.089.957 2.186 1.904 3.267 2.871l5.159 4.638.396.276c1.747-1.505 3.425-3.025 5.179-4.447 5.187-4.212 10.892-7.554 16.985-10.309 4.448-2.009 8.737-4.376 13.097-6.583.254-.128.516-.248 1.142-.211l-1.559 5.951-.339 1.198-.106.057.047.047.057-.106c2.022-.959 4.102-1.81 6.044-2.907 1.614-.912 3.062-2.111 4.586-3.18-.288.65-.524 1.331-.878 1.945-2.633 4.583-6.152 8.442-9.986 12.03-1.091 1.02-2.267 1.948-3.551 3.045l.329-5.796c-5.62 4.675-10.327 9.697-14.885 14.874l-.341-.11-.471-6.796c-4.956 4.462-9.852 8.647-13.769 13.824M91.04 114.632c.073.699.085 1.199.183 1.682.69 3.491 2.677 6.167 5.416 8.296 5.648 4.397 12.26 6.489 19.186 7.647 6.242 1.045 12.55.608 18.836.443.283-.006.561-.097 1.102-.199l-1.443-3.021c-.717-1.473-1.473-2.928-2.156-4.417-.495-1.081-.16-1.829.868-2.54 2.162-1.495 4.212-3.161 6.392-4.821a9.2 9.2 0 0 0-5.275-2.107c-5.378-.414-10.768-.833-16.16-.922-8.903-.149-17.81-.041-26.95-.041m28.328 36.697.498-.099c.723-1.459 1.542-2.879 2.146-4.387.739-1.853 1.436-3.618 3.519-4.425 1.129-.437 2.155-1.142 3.226-1.725l-.104-.398c-9.348.579-18.505-.441-27.715-3.417.246 3.949 1.248 7.294 2.898 10.658l3.553-3.958c1.118 3.019 1.867 5.959 4.137 8.505l4.346-6.418zm8.345 35.093-.025-.075-.107-.023.03.128zM76.371 80.184c3.09-4.08 6.23-8.121 9.256-12.248 3.905-5.33 9.308-8.667 15.084-11.501 1.983-.974 4.088-1.7 6.428-2.658l-8.25-1.13c7.704-8.384 16.005-15.833 24.293-23.295l-.203-.441-11.536-1.1c.591-1.668 1.024-3.33 1.747-4.853 1.241-2.615 2.651-5.15 4.019-7.705.168-.315.506-.542.764-.808.426.168.841.4 1.284.495 6.259 1.356 12.523 2.684 18.781 4.041 1.707.37 1.733.38 1.733-1.448V8.116c2.06-.565 4.1-1.232 6.187-1.674a471 471 0 0 1 14.537-2.873c2.424-.433 4.896-.586 7.55-.89l-5.14 8.874.288.206c2.186-.645 4.346-1.41 6.565-1.898 2.233-.494 4.524-.71 7.005-1.079v3.608c6.093-.757 11.963-.63 17.991.515-.392.796-.715 1.42-1.01 2.058-1.028 2.214-2.039 4.439-3.074 6.647-.44.943-.219 1.461.825 1.762 2.459.71 4.897 1.5 7.339 2.27.475.15.935.351 1.593.6-1.057 1.289-2.07 2.439-2.989 3.66-2.602 3.45-5.169 6.928-7.737 10.405-.142.193-.174.465-.26.703l-5.179 8.07c-1.58 2.686-3.167 5.37-4.728 8.068-.113.197-.034.504-.042.762-.774 1.127-1.664 2.194-2.304 3.393-3.009 5.652-6.043 11.298-8.889 17.032-2.79 5.622-5.37 11.345-8.028 17.03-.158.337-.199.725-.294 1.091l-12.839-2.625c-1.404-1.918-3.49-2.09-5.083-.42-3.578.113-7.156.29-10.736.316-1.837.015-3.724-.016-5.506-.41-5.506-1.215-10.971-2.615-16.455-3.942-.904-2.194-4.047-2.531-5.589-1.144l-.378-.012c-6.794-1.156-13.615-1.954-20.53-1.676-.32.012-.739-.197-.97-.439-1.857-1.956-3.684-3.943-5.52-5.92m23.363 3.954.676-.293c2.922-1.53 5.953-2.45 9.299-1.772.649.132 1.319.167 2.099.26-1.964-2.996-6.914-3.263-9.659-1.48-1.196.775-2.348 1.647-2.415 3.285m12.586-6.724c-1.178-2.824-4.894-4.222-8.222-3.305-2.792.766-5.423 3.757-5.13 6.085 3.726-4.21 8.23-4.588 13.352-2.78m36.712 5.389c3.631.339 6.78 1.536 9.029 4.725.162-2.637-.864-4.185-2.999-5.353-1.999-1.095-4.429-.79-6.03.628m6.402 10.134c-.307-2.938-1.225-5.311-4.149-6.148-1.503-.43-3.025-.185-4.301 1.03 3.828 1.052 5.181 1.172 8.45 5.118"/><path fill="#b3e0ee" d="M158.577 153.369c-.154-5.797-.932-11.504-3.135-16.888-1.398-3.414-3.21-6.658-4.839-9.976l-.691-1.323c1.241.374 2.474.776 3.726 1.112 1.822.489 3.641 1.054 5.5 1.339.991.152 2.066-.206 3.098-.362.399-.061.785-.201 1.402-.364l-.502 2.485c4.149-1.928 7.152-4.892 9.58-8.363 2.418-3.458 4.486-7.16 6.664-10.691l.973 1.64c1.754-2.743.545-10.843-2.348-15.665.735 0 1.343-.043 1.942.006 3.806.31 7.686.272 11.128 2.312 2.729 1.616 4.677 3.907 5.983 6.933l-2.913-.163c2.903 4.7 4.021 9.566 3.566 15.135l-2.245-1.784c-.108.532-.185 1.081-.334 1.609-.449 1.579-.942 3.143-1.377 4.726-.116.422-.081.884-.116 1.326.471.013.991.163 1.408.015 2.379-.845 4.732-1.764 7.095-2.652.985-.369 1.989-.695 2.962-1.095 1.028-.422 1.41-.057 1.339.979-2.676.933-5.356 1.862-8.027 2.806-.342.122-.655.331-.98.5 3.385-.376 4.728-.197 6.459 1.012 1.26.88 1.443 1.975.323 3.046-.869.831-1.912 1.489-2.919 2.159-.604.405-1.288.687-2.126 1.124l1.163.441c-1.845 1.211-3.621 2.255-5.257 3.484-2.033 1.53-4.075 3.09-5.879 4.872-1.439 1.42-1 2.412 1.013 2.574 2.469.2 4.954.208 7.431.293l1.59.002-1.174 1.518-.059.097.051-.103c.928 0 1.869.089 2.779-.037.573-.081 1.378-.351 1.593-.78.466-.931 1.217-1.046 2.038-1.201 1.605-.303 3.218-.571 4.811-.93 1.274-.289 2.526-.691 3.785-1.043l.187.264-2.82 2.628-.422-1.549c-4.474 2.056-8.893 3.92-13.144 6.112-2.05 1.058-3.779 2.737-5.654 4.136l-.104.118.118-.101 1.201.085-4.699 3.964c.749.652 1.351 1.51 2.157 1.802 1.518.553 3.139.982 4.744 1.097 2.42.173 4.862.033 7.294.025l.063-.533-1.903-.782 9.699-1.168c-6.617 4.072-14.255 3.643-21.571 4.87.012 1.979 1.67 2.911 2.731 4.271l-.791.654 2.296 1.926c.437.687.035.736-.532.764-4.222.211-8.308-.504-12.225-2.011-2.387-.919-4.669-2.111-7.004-3.168-.219-.099-.481-.106-.725-.156l-.036-.094-.074-.02.104.12 1.016 2.279c-1.345-.254-2.682-.642-4.037-.733-3.143-.211-6.118.658-9.043 1.704l-1.073.324c.085-1.083.238-2.168.24-3.253.01-4.403-.021-8.804-.061-13.207.002-.162-.269-.329-.413-.493"/><path fill="#65c1dd" d="M157.784 218.007c3.918-5.175 8.814-9.363 13.768-13.824l.471 6.796.341.109c4.557-5.174 9.265-10.199 14.885-14.874l-.329 5.797c1.284-1.097 2.46-2.026 3.551-3.046 3.834-3.588 7.353-7.446 9.986-12.03.352-.613.589-1.294.878-1.944l.25-.012.038.032c-.847 2.765-1.605 5.561-2.562 8.288-2.096 5.965-6.064 10.835-9.474 16.044-3.429 5.244-6.57 10.677-9.817 16.041-.252.416-.327.939-.484 1.412l-.099.146.134-.112c1.489-.77 2.974-1.548 4.468-2.31 1.375-.703 2.761-1.389 4.364-1.869l-1.018 1.92c-3.556 6.849-7.072 13.719-10.683 20.539-1.438 2.719-3.039 5.354-4.665 7.965-.28.453-1.058.841-1.609.843-7.219.042-14.437-.114-21.652.04-5.222.11-9.186-2.34-12.904-5.536l-.173-.323c1.632.514 3.217.729 4.913.055 1.451-.577 2.507-1.427 2.928-2.902a1317 1317 0 0 0 4.072-14.705c.329-1.209.544-2.451 1.087-3.674v9.547l.341.053c1.316-2.755 2.609-5.522 3.954-8.261 1.523-3.104 3.096-6.183 4.642-9.275z"/><path fill="#65c2dd" d="m68.306 220.224 10.368 7.117.305-.213-.557-4.497c1.138.862 2.02 1.62 2.99 2.247 3.63 2.349 7.287 4.655 10.934 6.977l-7.75 2.111c9.04 3.871 17.196 9.326 21.115 19.653-2.664.177-5.092.387-7.524.494-5.227.228-10.455.443-15.685.589-7.552.212-15.106.354-22.658.533-2.194.051-4.388.095-6.579.183-3.49.138-6.227-1.205-8.228-4.066-.236-.339-.516-.646-.847-1.058l-2.418 1.678c-1.433-1.219-2.66-2.607-3.405-4.391l6.662 1.975c-.62-3.625-1.888-6.711-3.117-9.807l-.715-2.304c1.3 1.103 2.59 2.22 3.91 3.301.312.254.726.38 1.094.563l.175.278-.071-.365v-1.347c1.282.753 2.391 1.479 3.565 2.08a55 55 0 0 0 4.576 2.115c1.154.461 1.41.224 1.438-1.028.094-4.275-1.288-8.2-2.964-12.032-1.367-3.127-2.863-6.193-4.24-9.313a18.7 18.7 0 0 1-1.055-3.231c-.14-.593-.205-1.353.055-1.851.309-.593 1.004-.983 1.532-1.465.28.516.723 1.008.81 1.555.34 2.133.624 4.313 2.075 6.001.955 1.112 2.21 1.967 3.346 2.951l-1.062.566c1.325 1.439 7.64 2.965 9.9 2.499l-.788-11.548.76.392c1.351.878 2.7 1.77 4.053 2.658"/><path fill="#ebf7fe" d="m192.446 171.314-2.295-1.926.79-.655c-1.059-1.359-2.717-2.292-2.731-4.27 7.319-1.228 14.954-.799 21.571-4.871l-9.699 1.169 1.903.782-.063.532c-2.432.008-4.874.149-7.293-.024-1.606-.116-3.227-.545-4.745-1.097-.806-.295-1.406-1.15-2.157-1.802l4.699-3.964-1.201-.086-.014-.016c1.873-1.398 3.602-3.078 5.654-4.135 4.249-2.192 8.67-4.055 13.144-6.111l.422 1.548 2.821-2.627-.187-.264c-1.262.351-2.512.754-3.786 1.042-1.592.36-3.206.628-4.811.931-.821.154-1.572.272-2.038 1.201-.215.428-1.017.698-1.592.78-.911.128-1.851.036-2.78.036l.008.006 1.175-1.517-1.591-.002c-2.477-.086-4.962-.094-7.43-.293-2.012-.162-2.451-1.152-1.014-2.574 1.804-1.784 3.844-3.344 5.88-4.872 1.635-1.229 3.411-2.274 5.256-3.485l-1.162-.441c.837-.436 1.521-.719 2.125-1.123 1.008-.673 2.05-1.331 2.919-2.16 1.12-1.071.937-2.164-.323-3.045-1.731-1.209-3.074-1.386-6.458-1.012.327-.169.637-.378.979-.5 2.672-.945 5.351-1.873 8.027-2.806 2.186.087 4.395.004 6.549.307 2.962.416 4.538 2.722 6.166 4.868l-.177.323-2.978-.959c1.767 3.019 3.354 5.855 3.464 9.348-.228-.126-.433-.175-.531-.307-.123-.166-.162-.396-.312-.8-.821 1.969-1.211 3.661-2.142 4.969-1.568 2.211-1.503 4.133-.333 6.522.837 1.709.872 3.812 1.264 5.74l-.492.195-1.256-1.544c-.156 2.651-.189 5.035-1.493 7.204l-.571-1.31c-.93.857-1.857 1.636-2.674 2.515-.223.24-.225.807-.15 1.189.427 2.212 1.16 4.403.327 6.743l-.967-.451c-1.355 2.973-3.801 4.482-6.835 4.817-3.295.364-6.538-.217-9.657-1.393-.392-.145-.804-.218-1.205-.325"/><path fill="#515053" d="m147.141 93.828 12.838 2.625 1.077.354c.88.286 1.205.904.941 1.765-.332 1.083-.642 2.19-1.142 3.198-.27.549-.841 1.085-1.402 1.321-.973.41-1.548 1.05-1.975 1.981-.593 1.296-1.193 2.613-1.987 3.791-.711 1.057-1.682 1.938-2.54 2.899-3.515 1.335-7.162 1.01-10.762.673a65 65 0 0 1-8.468-1.38c-3.265-.753-5.224-2.793-5.185-6.357.018-1.601-.014-3.204.026-4.805.027-1.05-.339-1.573-1.465-1.743-2.497-.378-2.866-.234-4.232 1.93a153 153 0 0 1-3.708 5.581c-1.442 2.083-3.517 3.021-5.997 3.31-8.901 1.036-17.486-.488-25.92-3.18-2.468-.79-3.144-1.9-3.234-4.517-.053-1.56-.032-3.136-.276-4.67-.126-.799-.577-1.72-1.179-2.24-3.157-2.726-6.41-5.339-9.63-7.99L72.413 86l-5.15-4.635 1.852-8.458 7.254 7.276c1.836 1.977 3.663 3.964 5.524 5.918.232.242.648.454.971.44 6.912-.28 13.735.517 20.529 1.675l.378.013 5.589 1.144c5.482 1.326 10.949 2.726 16.455 3.941 1.78.394 3.67.425 5.506.41 3.578-.026 7.156-.203 10.736-.317zm-46.117-3.43c-3.74-.215-7.48-.503-11.225-.611-1.504-.043-2.353.815-2.532 2.302q-.48 3.957-.74 7.934c-.168 2.698.096 3.027 2.703 3.909 7.2 2.434 14.63 3.208 22.192 3.082 2.764-.045 4.797-1.276 6.181-3.533 1.144-1.863 2.117-3.834 3.068-5.805.827-1.715.569-2.495-1.268-3.098-2.794-.92-5.662-1.615-8.499-2.408zm41.653 5.403-.041.276c-1.434 0-2.873-.06-4.303.019-1.258.069-2.513.251-3.757.463-1.635.278-2.678 1.241-2.836 2.93-.169 1.757-.311 3.527-.307 5.29.006 3.072.567 3.751 3.517 4.462a45.3 45.3 0 0 0 12.804 1.209c1.044-.049 2.085-.285 3.119-.482 1.369-.262 2.353-.989 2.915-2.33 1.008-2.408 2.146-4.76 3.131-7.174.821-2.012.62-2.538-1.491-2.887-4.234-.703-8.499-1.197-12.751-1.776"/><path fill="#4f4e51" d="M102.527 37.264c-3.72 4.636-8.941 7.14-16.203 7.73l6.927-3.498c-6.26-6.361-10.724-13.359-10.541-22.491.317-5.606 2.032-10.728 5.286-15.318.313-.44.707-.824 1.06-1.235l.2.094.014.493c-.223.37-.56.713-.652 1.112-1.272 5.557-1.253 11.091.565 16.534 1.97 5.898 5.689 10.533 10.565 14.304.949.735 1.855 1.517 2.779 2.275"/><path fill="#66c2dd" d="M158.577 153.369c.146.167.416.331.416.498.043 4.401.071 8.803.061 13.206-.002 1.085-.156 2.168-.239 3.253-.931 3.832-1.664 7.723-2.839 11.477-1.82 5.83-4.835 11.078-8.592 15.893-.341-.132-.711-.222-1.024-.407-5.835-3.382-11.662-6.773-17.491-10.164a1.25 1.25 0 0 1-.575-.584c.833.098 1.662.206 2.497.291 8.663.892 15.851-2.066 21.504-8.574 1.253-1.443 1.918-3.45 2.665-5.272 2.566-6.283 3.867-12.811 3.617-19.617"/><path fill="#ebf7fd" d="M139.771 8.115v9.417c0 1.828-.026 1.82-1.733 1.448-6.258-1.357-12.521-2.686-18.781-4.04-.443-.096-.856-.328-1.284-.497l.004-.252.254-.254c1.81-2.8 3.895-5.361 6.518-7.452l7.176-5.721c-.013.422.063.875-.057 1.267-.557 1.79-1.171 3.566-1.88 5.7 3.479-1.297 6.506-2.89 9.785-3.438z"/><path fill="#737f84" d="M102.527 37.265c-.924-.758-1.83-1.54-2.775-2.274-4.874-3.769-8.594-8.405-10.565-14.303-1.82-5.443-1.839-10.978-.565-16.535.091-.4.429-.743.652-1.111l1.63 6.327c2.395 7.674 6.926 13.75 13.61 18.229 2.501 1.674 2.603 1.749 1.27 4.486-.886 1.822-2.158 3.46-3.257 5.18"/><path fill="#4f4e51" d="M179.494 57.906c.01-.256-.071-.565.043-.762 1.56-2.698 3.147-5.38 4.727-8.068 2.751-.563 5.547-.96 8.241-1.723 5.986-1.692 11.28-4.628 15.513-9.295.503-.555 1.032-1.085 1.55-1.625-2.15 6.095-5.366 11.534-10.039 16.036-4.456 4.293-9.947 5.825-15.996 5.7-1.347-.027-2.692-.171-4.039-.263"/><path fill="#737f84" d="M209.568 36.434c-.518.54-1.049 1.071-1.55 1.626-4.233 4.667-9.525 7.602-15.513 9.295-2.694.762-5.492 1.16-8.241 1.723l5.179-8.07c7.327 1.182 13.761-1.067 19.718-5.145l.846-.532z"/><path fill="#65c1dd" d="m201.587 184.977.057-.354.114.033-.132.353z"/><path fill="#737f84" d="m89.06 2.454.123-.14.075.235z"/><path fill="#b3e0ee" d="m68.307 220.225-4.058-2.663-.76-.393c-.392-3.413-.71-6.834-1.197-10.234-.449-3.141-2.14-5.727-4.118-8.112-3.11-3.757-6.465-7.321-8.423-11.902-1.717-4.013-2.908-8.16-3.215-12.512a240 240 0 0 1-.5-11.467c-.038-1.705.212-3.417.342-5.311l2.98 3.137c1.108-7.633 4.791-13.905 8.402-20.228-1.035 4.868-2.21 9.71-3.06 14.608-.85 4.905-1.613 9.848-1.083 15.07-1.55-.628-2.229-1.945-3.27-3.361-.17 3.917 1.165 7.107 2.567 10.206 1.398 3.088 3.163 6.01 4.935 9.315l-5.957-.534c.232 1.296 1.046 2.495 2.097 3.397a70 70 0 0 0 5.985 4.61c5.106 3.501 8.304 8.22 9.017 14.375.295 2.547-.026 5.174-.16 7.761-.074 1.418-.344 2.826-.525 4.238m-27.114 17.219.715 2.304c-.53-.508-1.148-.955-1.57-1.54a39 39 0 0 1-2.32-3.596c-.698-1.229-1.273-2.528-1.937-3.867l-.768.834c-.382-2.961-1.294-5.718-.44-8.611.473 3.381 1.397 6.595 3.146 9.805l.376-.792.211-.854 2.33 5.799.265.528z"/><path fill="#b4e1ee" d="M29.46 241.891c-3.594-1.53-6.886-10.681-5.21-13.891l1.75 8.19.855-.583z"/><path fill="#b3e0ee" d="m58.11 139.679-.092.024-.037-.107.092-.025z"/><path fill="#4f4e51" d="M91.04 114.631c9.138 0 18.046-.108 26.951.04 5.39.09 10.78.508 16.16.923a9.2 9.2 0 0 1 5.275 2.107c-2.182 1.659-4.23 3.325-6.392 4.821-1.026.711-1.361 1.459-.868 2.54.683 1.489 1.439 2.944 2.156 4.417l1.442 3.021c-.54.101-.818.193-1.101.199-6.288.164-12.595.599-18.836-.443-6.928-1.156-13.538-3.251-19.186-7.648-2.739-2.129-4.726-4.805-5.416-8.295-.1-.482-.112-.984-.185-1.682"/><path fill="#d3edf6" d="m119.369 151.329-3.499-5.665-4.346 6.419c-2.27-2.546-3.019-5.486-4.137-8.505l-3.553 3.957c-1.65-3.364-2.652-6.706-2.897-10.658 9.209 2.974 18.367 3.996 27.715 3.417l.103.399c-1.073.585-2.099 1.288-3.226 1.725-2.083.804-2.782 2.572-3.519 4.425-.604 1.507-1.422 2.927-2.146 4.386z"/><path fill="#66c2dd" d="m127.713 186.421-.102.03-.03-.128.107.023z"/><path fill="#d4edf6" d="M112.32 77.414c-5.122-1.806-9.626-1.428-13.352 2.777-.293-2.328 2.338-5.317 5.13-6.085 3.328-.916 7.044.484 8.222 3.308m-12.588 6.721c.069-1.636 1.221-2.507 2.415-3.283 2.745-1.782 7.695-1.516 9.659 1.48-.78-.093-1.448-.127-2.098-.26-3.345-.678-6.378.24-9.3 1.772zm49.3-1.333c1.599-1.42 4.031-1.725 6.03-.628 2.136 1.169 3.16 2.717 2.999 5.354-2.247-3.19-5.396-4.387-9.029-4.726"/><path fill="#cdebf4" d="M155.434 92.936c-3.269-3.946-4.622-4.065-8.45-5.12 1.276-1.215 2.798-1.46 4.301-1.03 2.924.84 3.842 3.212 4.149 6.15"/><path fill="#ebf7fe" d="m198.054 147.484-.051.104.059-.098zm-6.831 7.615-.118.102.104-.118z"/><path fill="#d3edf6" d="m46.3 241.218.072.365-.175-.278z"/><path fill="#e8f4f8" d="M110.906 92.171c2.837.792 5.705 1.487 8.499 2.408 1.837.603 2.095 1.383 1.268 3.098-.949 1.97-1.924 3.942-3.068 5.805-1.386 2.257-3.417 3.488-6.181 3.533-7.564.126-14.992-.648-22.192-3.082-2.607-.882-2.871-1.211-2.703-3.909.167-2.65.425-5.297.74-7.934.179-1.487 1.026-2.347 2.531-2.302 3.745.11 7.485.396 11.226.611l-1.03 3.225a11.7 11.7 0 0 0-.476 7.288c.661 2.629 2.944 4.024 5.326 3.395 2.165-.573 4.538-3.412 4.764-5.701 1.115-2.004 1.26-4.208 1.296-6.435"/><path fill="#ecf5f9" d="M142.676 95.802c4.253.579 8.518 1.07 12.748 1.773 2.111.35 2.312.876 1.491 2.888-.985 2.413-2.123 4.766-3.131 7.174-.561 1.343-1.544 2.07-2.916 2.33-1.032.197-2.074.433-3.118.482-4.304.207-8.615-.2-12.804-1.209-2.95-.711-3.513-1.39-3.517-4.462-.004-1.766.14-3.533.306-5.29.161-1.689 1.201-2.652 2.837-2.93 1.243-.212 2.499-.395 3.756-.464 1.431-.079 2.869-.018 4.304-.018zm5.643 5.305c-.212.447-.309.762-.49 1.016-.794 1.131-1.463 2.405-2.452 3.334-2.132 1.997-4.785 1.402-5.986-1.26-.477-1.063-.725-2.231-1.091-3.385-.274 3.052.022 5.199.914 6.701.898 1.511 2.158 2.097 3.828 1.778 2.975-.567 5.508-4.391 5.277-8.184m-8.333-.577-.243.231c.501.632.881 1.54 1.534 1.823.908.394 1.489-.496 1.913-1.242.183-.33.308-.688.37-1.06.207-1.213-.341-2.473-1.131-2.686-.864-.232-1.894.648-2.258 1.95z"/><path fill="#778287" d="M99.994 93.625c.099 1.465.055 2.956.335 4.385.337 1.706 1.193 3.163 3.056 3.677 1.865.516 3.383-.177 4.701-1.439.539-.514 1.016-1.09 1.522-1.64-.226 2.291-2.599 5.129-4.764 5.702-2.382.63-4.665-.766-5.326-3.395a11.7 11.7 0 0 1 .476-7.29m48.325 7.481c.231 3.793-2.302 7.617-5.275 8.182-1.67.319-2.927-.266-3.827-1.778-.892-1.502-1.189-3.649-.915-6.701.364 1.154.612 2.323 1.091 3.385 1.201 2.662 3.855 3.259 5.986 1.26.989-.929 1.658-2.203 2.452-3.334.179-.252.277-.567.488-1.014"/><path fill="#1c1c1c" d="m139.986 100.529.185-.981c.366-1.302 1.396-2.182 2.258-1.95.788.213 1.338 1.473 1.131 2.686-.062.372-.187.73-.37 1.06-.422.746-1.005 1.636-1.913 1.242-.653-.283-1.035-1.193-1.534-1.823zm-38.298-4.851c.055-1.41 1-2.587 2.078-2.595.907-.006 1.66 1.09 1.608 2.335-.061 1.39-1.14 2.683-2.209 2.643-.959-.037-1.534-.961-1.477-2.383"/></g><defs><clipPath id="a"><path fill="#ebebeb" d="M0 0h220v256H0z"/></clipPath></defs></svg>
