<svg width="256" height="244" viewBox="0 0 256 244" fill="none" xmlns="http://www.w3.org/2000/svg">
<g clip-path="url(#clip0_18_557)">
<path d="M177.381 170.199C186.828 169.222 193.995 161.08 193.669 151.31C193.344 141.54 185.199 133.724 175.426 133.724H174.775C164.676 134.05 156.857 142.517 157.183 152.613C157.509 157.498 159.464 161.732 162.395 164.663C151.319 186.482 134.379 202.44 108.969 215.793C91.7032 224.911 73.7859 228.168 55.8685 225.888C41.2088 223.934 29.8068 217.421 22.6398 206.674C12.2152 190.716 11.2379 173.456 20.0337 156.195C26.2233 143.82 35.9964 134.701 42.1861 130.142C40.883 125.908 38.9284 118.743 37.9511 113.533C-9.28569 147.728 -4.39913 193.973 9.93478 215.793C20.6852 232.076 42.5119 242.172 66.6189 242.172C73.1343 242.172 79.6497 241.52 86.1651 239.892C127.864 231.75 159.464 206.999 177.381 170.199ZM234.717 129.816C209.958 100.831 173.472 84.8736 131.773 84.8736H126.561C123.629 79.0116 117.439 75.1036 110.598 75.1036H109.946C99.8475 75.4292 92.029 83.8966 92.3548 93.9924C92.6805 103.762 100.825 111.578 110.598 111.578H111.249C118.416 111.253 124.606 106.693 127.212 100.506H133.076C157.835 100.506 181.29 107.67 202.465 121.674C218.754 132.421 230.482 146.425 236.997 163.36C242.535 177.038 242.209 190.39 236.345 201.789C227.224 219.049 211.913 228.494 191.715 228.494C178.684 228.494 166.305 224.586 159.789 221.655C156.206 224.911 149.69 230.122 145.13 233.379C159.138 239.892 173.472 243.474 187.154 243.474C218.428 243.474 241.558 226.214 250.354 208.954C259.801 190.065 259.149 157.498 234.717 129.816ZM69.2251 175.735C69.5508 185.505 77.6951 193.321 87.4682 193.321H88.1198C98.2187 192.996 106.037 184.528 105.711 174.433C105.386 164.663 97.2413 156.846 87.4682 156.846H86.8167C86.1651 156.846 85.1878 156.846 84.5363 157.172C71.1797 135.027 65.6416 110.927 67.5962 84.8736C68.8993 65.3335 75.4147 48.3987 86.8167 34.395C96.264 22.3452 114.507 16.4832 126.886 16.1575C161.418 15.5062 176.078 58.4945 177.055 75.7549C181.29 76.7319 188.457 79.0116 193.344 80.6399C189.434 27.8816 156.857 0.525391 125.583 0.525391C96.264 0.525391 69.2251 21.6939 58.4746 52.9581C43.4892 94.6437 53.2623 134.701 71.5055 166.291C69.8766 168.571 68.8993 172.153 69.2251 175.735Z" fill="#764ABC"/>
</g>
<defs>
<clipPath id="clip0_18_557">
<rect width="256" height="242.949" fill="white" transform="translate(0 0.525391)"/>
</clipPath>
</defs>
</svg>
