<svg xmlns="http://www.w3.org/2000/svg" width="257" height="112" fill="none" viewBox="0 0 257 112">
  <g clip-path="url(#a)">
    <path fill="#20b6ff" d="M217.188 72.31C124.247 64.903 47.599 87.49 30.196 96.006c-9.627 4.444-10.368 9.998-8.887 12.96 1.111 2.222 5.925 3.703 10.738 1.111C69.075 90.082 143.502 74.16 217.188 78.603a3.32 3.32 0 0 0 3.332-3.332c0-1.482-1.481-2.963-3.332-2.963m22.957-28.142c-4.073 4.443-9.627 7.776-11.478 6.295-1.852-1.481 0-7.036 0-7.036 9.257-5.924 27.03-21.106 27.03-32.955 0-10.738-9.627-14.07-19.625-4.073-8.146 8.887-14.07 19.996-17.403 31.844-5.184 5.184-13.7 11.85-21.106 11.85-4.073 0-4.814-2.963-4.443-6.666 6.294 0 24.068-5.184 24.068-19.995 0-2.592-1.111-4.813-2.962-6.665q-2.778-2.777-6.665-2.221c-8.147 0-18.144 8.146-23.328 19.995-1.111-.37-2.592-.74-3.703-1.481 1.481-2.963 2.222-5.925 3.333-8.887 1.11-6.295-1.482-9.998-6.295-9.257-3.333 0-7.036 2.962-8.146 9.257-.371 3.332.37 6.665 1.481 9.257-2.222 7.035-11.109 15.552-14.071 15.181-2.962-.37.37-12.59 3.333-21.846 1.851-1.852 2.962-3.703 4.073-6.295.74-1.851.37-4.073-1.481-4.814-4.444-1.851-9.628.37-11.479 4.814-1.111 2.222-2.222 4.443-3.333 7.035-2.592 2.963-6.294 7.036-7.405 6.665-1.481-1.11 4.073-8.516 3.332-12.96-.37-3.332-3.703-5.924-7.035-5.554-5.184.74-11.479 10.368-11.479 10.368.741-1.851 1.111-3.703 1.481-5.554-.37-3.703-7.035-5.184-10.368 1.481-2.221 6.295-4.073 12.96-4.813 19.625-1.481 2.962-7.036 11.849-11.479 12.22-3.703.37.741-15.923 1.481-16.663 1.852-2.963 4.444-9.257 4.073-12.22 0-1.48-.37-2.592-1.481-3.332s-2.592-1.111-3.703-.74c-2.221.74-4.073 2.22-5.184 4.072-1.48-1.851-4.073-2.962-6.665-2.592C73.89 23.8 64.632 49.72 65.743 61.939c.74 6.665 4.073 10.739 9.627 9.628C81.665 70.829 86.85 61.2 86.85 61.2s1.481 7.776 8.516 7.035c5.184-1.48 9.628-4.813 12.96-9.257 0 .37-.37.74-.37 1.481-1.111 6.665 9.627 5.925 10.368.74 3.332-24.808 11.479-34.806 13.7-34.806 1.852 0-5.184 11.48-1.111 16.293 3.333 3.703 8.887.74 13.701-3.333-.741 2.962-1.111 6.295-1.481 9.257-.371 7.036 2.221 12.59 8.886 12.22 8.887-.37 18.144-11.48 24.439-21.847 1.481 1.11 3.333 1.851 5.184 2.222-.741 2.592-.741 5.184-.741 7.405.371 8.147 5.925 11.109 12.59 10.739 7.406-.37 16.292-5.925 22.217-11.48 0 .371 0 .741-.37.741-.371 4.073.37 11.109 5.924 11.479 6.295.37 17.403-5.925 22.957-12.96 4.074-2.222-.74-6.665-4.073-2.962m5.925-33.325c.74 0 1.111.74 1.111 1.48 0 7.036-17.033 21.477-17.033 21.477s11.108-22.957 15.922-22.957m-41.472 14.44c.741 0 1.111 0 1.481.741.371.74.371 1.111.371 1.481 0 4.073-5.184 7.036-11.109 7.036 3.333-4.814 6.665-9.257 9.257-9.257M89.811 36.023c-.37 4.073-7.776 22.957-11.479 22.957-4.813.37 2.592-26.29 10.368-26.29 1.481 0 1.481 1.111 1.111 3.333m-62.577 5.184c4.813 0-4.073 24.808-2.963 35.547s12.96 7.776 12.22 1.48C35.01 67.497 42.415 33.8 49.45 33.8c5.184 0-5.925 22.958-3.703 37.399 1.48 9.257 14.07 6.665 12.59.37-4.074-18.885 9.256-37.028 7.405-50.359-.74-5.554-4.073-8.516-7.406-8.516-11.849 0-21.476 24.439-21.476 24.439s1.481-13.7-8.516-14.441C14.274 21.952-.168 57.498.203 89.712c.37 10.368 12.96 8.517 12.22.37-.741-14.44 7.405-48.876 14.81-48.876"/>
  </g>
  <defs>
    <clipPath id="a">
      <path fill="#ebebeb" d="M.183.36h256v111.282h-256z"/>
    </clipPath>
  </defs>
</svg>
