<svg width="256" height="256" viewBox="0 0 256 256" fill="none" xmlns="http://www.w3.org/2000/svg">
<g clip-path="url(#clip0_18_1240)">
<mask id="mask0_18_1240" style="mask-type:luminance" maskUnits="userSpaceOnUse" x="0" y="0" width="256" height="256">
<path d="M256 0H0V256H256V0Z" fill="white"/>
</mask>
<g mask="url(#mask0_18_1240)">
<path d="M191.227 0H64.7743C29.0003 0 0 29.0003 0 64.7743V191.227C0 227 29.0003 256 64.7743 256H191.227C227 256 256 227 256 191.227V64.7743C256 29.0003 227 0 191.227 0Z" fill="#00DDB3"/>
<path d="M191.227 0H64.7743C29.0003 0 0 29.0003 0 64.7743V191.227C0 227 29.0003 256 64.7743 256H191.227C227 256 256 227 256 191.227V64.7743C256 29.0003 227 0 191.227 0Z" fill="#00DDB3"/>
<path d="M194.566 57.3359C150.5 57.3359 134.171 88.7996 121.041 114.076L112.462 130.248C98.5592 157.054 88.1696 173.348 61.4002 173.348C59.7379 173.348 58.0919 173.674 56.5561 174.31C55.0203 174.946 53.6251 175.879 52.4501 177.055C51.2754 178.23 50.3436 179.625 49.7081 181.16C49.0725 182.696 48.7456 184.341 48.7461 186.003C48.7466 187.664 49.0743 189.309 49.7107 190.844C50.3471 192.379 51.2796 193.774 52.4551 194.948C54.828 197.32 58.0447 198.656 61.4002 198.661C105.484 198.661 121.814 167.196 134.944 141.92L143.505 125.749C157.425 98.9412 167.814 82.6484 194.566 82.6484C196.23 82.6508 197.878 82.326 199.416 81.6908C200.954 81.0556 202.351 80.1228 203.528 78.9471C204.705 77.7716 205.638 76.3757 206.275 74.8391C206.913 73.3026 207.241 71.6555 207.24 69.992C207.234 66.6345 205.896 63.4166 203.52 61.0442C201.144 58.6719 197.924 57.3372 194.566 57.3359Z" fill="white"/>
</g>
</g>
<defs>
<clipPath id="clip0_18_1240">
<rect width="256" height="256" fill="white"/>
</clipPath>
</defs>
</svg>
