<svg width="257" height="256" viewBox="0 0 257 256" fill="none"
  xmlns="http://www.w3.org/2000/svg">
  <g clip-path="url(#clip0_75_1201)">
    <path d="M181.556 -0.0078125H75.5555C34.1342 -0.0078125 0.555542 33.5708 0.555542 74.9922V180.992C0.555542 222.414 34.1342 255.992 75.5555 255.992H181.556C222.977 255.992 256.556 222.414 256.556 180.992V74.9922C256.556 33.5708 222.977 -0.0078125 181.556 -0.0078125Z" fill="#398CCB"/>
    <path fill-rule="evenodd" clip-rule="evenodd" d="M128.279 37.4922L163.817 57.9962V69.2702L206.833 94.1112V136.604L218.371 143.265V184.296L182.856 204.8L167.088 195.681L128.752 217.815L90.6445 195.809L75.098 204.8L39.5824 184.261V143.265L50.671 136.864V94.1112L92.763 69.8112L92.7865 69.8102V57.9962L128.279 37.4922ZM163.817 79.9317V99.0037L128.302 119.508L92.7865 99.0037V80.4602L92.763 80.4612L59.9015 99.4422V131.534L75.098 122.761L110.613 143.265V184.261L99.8685 190.475L128.752 207.154L157.865 190.348L147.34 184.261V143.265L182.856 122.761L197.602 131.275V99.4422L163.817 79.9317ZM156.571 178.977V153.95L178.24 166.458V191.485L156.571 178.977ZM209.14 153.915L187.471 166.423V191.485L209.14 178.942V153.915ZM48.8132 178.942V153.915L70.4825 166.423V191.45L48.8132 178.942ZM101.383 153.915L79.713 166.423V191.45L101.383 178.942V153.915ZM161.187 145.954L182.856 133.446L204.525 145.954L182.856 158.473L161.187 145.954ZM75.098 133.411L53.4285 145.954L75.098 158.438L96.767 145.954L75.098 133.411ZM102.017 93.6732V68.6462L123.663 81.1652V106.181L102.017 93.6732ZM154.563 68.6462L132.917 81.1652V106.169L154.563 93.6732V68.6462ZM106.633 60.6612L128.279 48.1537L149.948 60.6612L128.279 73.1692L106.633 60.6612Z" fill="#EBEBEB"/>
  </g>
  <defs>
    <clipPath id="clip0_75_1201">
      <rect width="256" height="256" fill="#EBEBEB" transform="translate(0.555542 -0.0078125)"/>
    </clipPath>
  </defs>
</svg>
