<svg xmlns="http://www.w3.org/2000/svg" width="260" height="256" fill="none" viewBox="0 0 260 256"><path fill="#12fff7" fill-rule="evenodd" d="M.224 44.138C.224 19.761 20.246 0 44.945 0h169.942c24.699 0 44.721 19.761 44.721 44.138v142.649c0 25.219-32.335 36.164-48.017 16.254l-49.028-62.246v75.481c0 21.939-18.021 39.724-40.249 39.724H44.945C20.246 256 .224 236.239.224 211.862zm44.721-8.828c-4.94 0-8.944 3.953-8.944 8.828v167.724c0 4.875 4.004 8.827 8.944 8.827h78.71c2.47 0 3.13-1.975 3.13-4.413v-101.22c0-25.22 32.336-36.165 48.018-16.254l49.028 62.246V44.138c0-4.875.468-8.828-4.472-8.828z" clip-rule="evenodd"/><path fill="url(#a)" fill-rule="evenodd" d="M.224 44.138C.224 19.761 20.246 0 44.945 0h169.942c24.699 0 44.721 19.761 44.721 44.138v142.649c0 25.219-32.335 36.164-48.017 16.254l-49.028-62.246v75.481c0 21.939-18.021 39.724-40.249 39.724H44.945C20.246 256 .224 236.239.224 211.862zm44.721-8.828c-4.94 0-8.944 3.953-8.944 8.828v167.724c0 4.875 4.004 8.827 8.944 8.827h78.71c2.47 0 3.13-1.975 3.13-4.413v-101.22c0-25.22 32.336-36.165 48.018-16.254l49.028 62.246V44.138c0-4.875.468-8.828-4.472-8.828z" clip-rule="evenodd"/><path fill="url(#b)" fill-rule="evenodd" d="M.224 44.138C.224 19.761 20.246 0 44.945 0h169.942c24.699 0 44.721 19.761 44.721 44.138v142.649c0 25.219-32.335 36.164-48.017 16.254l-49.028-62.246v75.481c0 21.939-18.021 39.724-40.249 39.724H44.945C20.246 256 .224 236.239.224 211.862zm44.721-8.828c-4.94 0-8.944 3.953-8.944 8.828v167.724c0 4.875 4.004 8.827 8.944 8.827h78.71c2.47 0 3.13-1.975 3.13-4.413v-101.22c0-25.22 32.336-36.165 48.018-16.254l49.028 62.246V44.138c0-4.875.468-8.828-4.472-8.828z" clip-rule="evenodd"/><path fill="#b9ffb3" d="M214.888 0c24.699 0 44.721 19.761 44.721 44.138v142.649c0 25.219-32.335 36.164-48.017 16.254l-49.028-62.246v75.481c0 21.939-18.02 39.724-40.249 39.724 2.47 0 4.472-1.976 4.472-4.414v-136.53c0-25.22 32.335-36.165 48.018-16.254l49.027 62.246V8.828c0-4.876-4.004-8.828-8.944-8.828"/><defs><linearGradient id="a" x1="259.609" x2="34.902" y1="256" y2="-2.927" gradientUnits="userSpaceOnUse"><stop stop-color="#b9ffb3"/><stop offset="1" stop-color="#b9ffb3" stop-opacity="0"/></linearGradient><linearGradient id="b" x1="259.608" x2="106.08" y1="256" y2="195.493" gradientUnits="userSpaceOnUse"><stop stop-color="#1a1a1a" stop-opacity=".9"/><stop offset="1" stop-color="#1a1a1a" stop-opacity="0"/></linearGradient></defs></svg>