<svg width="257" height="256" viewBox="0 0 257 256" fill="none"
  xmlns="http://www.w3.org/2000/svg">
  <path d="M0.333252 256V0H256.333V256H0.333252ZM16.0709 59.8033H60.1366V15.7377H16.0709V59.8033ZM76.2242 59.8033H120.289V15.7377H76.2242V59.8033ZM136.027 59.8033H180.093V15.7377H136.027V59.8033ZM196.18 59.8033H240.596V15.7377H196.18V59.8033ZM16.0709 119.956H60.1366V75.8909H16.0709V119.956ZM76.2242 119.956H120.289V75.8909H76.2242V119.956ZM136.027 119.956H180.093V75.8909H136.027V119.956ZM196.18 119.956H240.596V75.8909H196.18V119.956ZM16.0709 179.76H60.1366V135.694H16.0709V179.76ZM76.2242 179.76H120.289V135.694H76.2242V179.76ZM136.027 179.76H180.093V135.694H136.027V179.76ZM196.18 179.76H240.596V135.694H196.18V179.76ZM16.0709 240.262H60.1366V195.497H16.0709V240.262ZM76.2242 240.262H120.289V195.497H76.2242V240.262ZM136.027 240.262H180.093V195.497H136.027V240.262ZM196.18 240.262H240.596V195.497H196.18V240.262Z" fill="#EBEBEB"/>
</svg>
