<svg xmlns="http://www.w3.org/2000/svg" width="257" height="249" fill="none" viewBox="0 0 257 249"><g clip-path="url(#a)"><path fill="#ebebeb" d="M4.957 146.677h12.288v9.76H4.96z"/><path fill="#326ce5" d="M151.15 141.157a4.2 4.2 0 0 0-.99-.076 4.3 4.3 0 0 0-1.649.428 4.313 4.313 0 0 0-2.087 5.584l-.03.043 9.869 23.84a50.36 50.36 0 0 0 20.358-25.577l-25.426-4.293zm-39.567 3.373a4.31 4.31 0 0 0-4.129-3.348 4.2 4.2 0 0 0-.848.076l-.043-.051-25.208 4.28a50.56 50.56 0 0 0 20.296 25.394l9.768-23.604-.076-.093a4.27 4.27 0 0 0 .24-2.654m21.111 9.259a4.304 4.304 0 0 0-7.588.011h-.02l-12.396 22.415a50.5 50.5 0 0 0 27.557 1.417 53 53 0 0 0 4.967-1.387l-12.427-22.456zm39.242-52.066-19.072 17.069.01.055a4.3 4.3 0 0 0-1.365 4.204 4.32 4.32 0 0 0 3.054 3.195l.026.101 24.703 7.119a51.22 51.22 0 0 0-7.356-31.743m-35.433 1.911a4.32 4.32 0 0 0 2.44 3.687 4.32 4.32 0 0 0 4.403-.402l.075.033 20.87-14.798a50.74 50.74 0 0 0-29.261-14.108l1.45 25.578zm-22.101 3.381a4.31 4.31 0 0 0 4.403.395 4.3 4.3 0 0 0 2.43-3.693l.105-.05 1.45-25.618q-2.627.315-5.208.896a50.3 50.3 0 0 0-24.226 13.202l21.006 14.891zm-11.197 19.357a4.31 4.31 0 0 0 2.959-5.488 4.3 4.3 0 0 0-1.268-1.914l.02-.1-19.178-17.154a50.28 50.28 0 0 0-7.137 31.833l24.583-7.094zm18.629 7.534 7.074 3.399 7.051-3.391 1.752-7.615-4.881-6.105h-7.854l-4.899 6.092z"/><path fill="#326ce5" d="m245.859 148.918-20.16-87.566a15.74 15.74 0 0 0-8.439-10.497l-81.601-38.96a15.73 15.73 0 0 0-13.544 0l-81.584 38.98a15.74 15.74 0 0 0-8.44 10.498l-20.128 87.562a15.4 15.4 0 0 0-.005 6.722q.22 1.013.569 1.989a15.2 15.2 0 0 0 2.44 4.385l56.471 70.212c.247.302.519.584.788.869a15.5 15.5 0 0 0 2.978 2.467 16.1 16.1 0 0 0 4.464 1.938c1.293.355 2.627.54 3.967.549h.881l89.68-.02q.818-.003 1.632-.096a15.5 15.5 0 0 0 2.301-.438 16 16 0 0 0 1.598-.511q.615-.227 1.209-.503a16 16 0 0 0 1.711-.949 15.4 15.4 0 0 0 3.746-3.316l1.722-2.14 54.73-68.085a15.3 15.3 0 0 0 2.442-4.38q.356-.978.579-1.994a15.4 15.4 0 0 0-.007-6.721zm-84.638 34.056q.342 1.012.811 1.971a3.84 3.84 0 0 0-.378 2.88 45.6 45.6 0 0 0 4.33 7.754 41 41 0 0 1 2.619 3.892c.196.365.453.929.639 1.314a4.91 4.91 0 0 1 .487 3.947 4.9 4.9 0 0 1-2.598 3.011 4.91 4.91 0 0 1-3.976.097 4.9 4.9 0 0 1-2.742-2.881c-.186-.383-.445-.891-.604-1.251a41 41 0 0 1-1.417-4.476 45.5 45.5 0 0 0-3.349-8.212 3.86 3.86 0 0 0-2.492-1.513c-.158-.27-.737-1.329-1.047-1.878a63.2 63.2 0 0 1-45.068-.116l-1.105 2.004a3.97 3.97 0 0 0-2.105 1.024 34.2 34.2 0 0 0-3.78 8.774 40 40 0 0 1-1.41 4.476c-.157.357-.419.861-.605 1.241v.01l-.007.01a4.91 4.91 0 0 1-4.743 3.255 4.91 4.91 0 0 1-3.596-1.707 4.9 4.9 0 0 1-1.146-3.811c.086-.68.314-1.334.668-1.921.184-.388.43-.949.625-1.314a41 41 0 0 1 2.618-3.902 47.7 47.7 0 0 0 4.42-7.945 4.85 4.85 0 0 0-.435-2.762l.889-2.13a63.55 63.55 0 0 1-28.163-35.161l-2.127.362a5.4 5.4 0 0 0-2.81-.989 45.7 45.7 0 0 0-8.509 2.505 41 41 0 0 1-4.385 1.679c-.353.096-.861.194-1.264.282-.033.01-.06.025-.093.033l-.076.007a4.9 4.9 0 0 1-3.945-.388 4.9 4.9 0 0 1-2.4-5.205 4.9 4.9 0 0 1 4.18-3.923L47.2 142l.043-.013c.408-.096.931-.232 1.304-.302a41 41 0 0 1 4.685-.378 45.6 45.6 0 0 0 8.753-1.437 6.8 6.8 0 0 0 2.1-2.117l2.044-.597a63.2 63.2 0 0 1 9.97-44.056l-1.57-1.394a5.4 5.4 0 0 0-.981-2.82 45.5 45.5 0 0 0-7.263-5.103 41 41 0 0 1-4.048-2.366c-.297-.222-.69-.554-1.012-.816l-.073-.05a5.176 5.176 0 0 1-1.2-7.2 4.7 4.7 0 0 1 3.891-1.722 5.82 5.82 0 0 1 3.404 1.284c.332.261.788.609 1.082.863a41 41 0 0 1 3.218 3.414 45.6 45.6 0 0 0 6.585 5.949c.893.47 1.934.57 2.9.282.28.206 1.224.88 1.763 1.25a62.8 62.8 0 0 1 31.908-18.228 64 64 0 0 1 8.829-1.36l.116-2.064a5.33 5.33 0 0 0 1.586-2.525 45.6 45.6 0 0 0-.544-8.856 41 41 0 0 1-.667-4.645c-.012-.355.008-.846.013-1.251 0-.046-.013-.09-.013-.136a4.91 4.91 0 0 1 2.889-4.985 4.908 4.908 0 0 1 6.879 4.98c0 .428.025.997.01 1.39a41 41 0 0 1-.67 4.642 45.7 45.7 0 0 0-.553 8.859 3.87 3.87 0 0 0 1.596 2.442c.017.352.075 1.53.118 2.18a64 64 0 0 1 40.536 19.585l1.858-1.326c.999.171 2.025.06 2.963-.322a45.8 45.8 0 0 0 6.583-5.957 41 41 0 0 1 3.225-3.413c.302-.257.755-.605 1.083-.864a4.908 4.908 0 1 1 6.084 7.636c-.327.264-.76.634-1.074.868a41 41 0 0 1-4.059 2.367 45.8 45.8 0 0 0-7.263 5.102 3.86 3.86 0 0 0-.916 2.767c-.272.25-1.226 1.095-1.732 1.553a63.45 63.45 0 0 1 10.173 43.95l1.971.574a5.5 5.5 0 0 0 2.107 2.12 45.7 45.7 0 0 0 8.756 1.44q2.352.054 4.683.375c.41.076 1.007.239 1.422.335a4.9 4.9 0 0 1 3.381 2.062 4.896 4.896 0 0 1-1.612 7.064 4.896 4.896 0 0 1-3.941.39l-.071-.01c-.033-.008-.063-.025-.096-.033-.402-.088-.906-.176-1.258-.269a41 41 0 0 1-4.381-1.692 45.6 45.6 0 0 0-8.521-2.505 3.86 3.86 0 0 0-2.734 1.015 57 57 0 0 0-2.087-.365 63.55 63.55 0 0 1-28.151 35.413"/><path fill="#ebebeb" d="M256.503 151.16 234.51 55.63a17.16 17.16 0 0 0-9.209-11.455L136.278 1.672a17.15 17.15 0 0 0-14.777 0L32.486 44.2a17.17 17.17 0 0 0-9.212 11.45l-21.95 95.535A16.97 16.97 0 0 0 4.6 165.471l61.612 76.607a17.334 17.334 0 0 0 13.305 6.349l98.803-.025a17.35 17.35 0 0 0 13.307-6.339l61.59-76.614a17.04 17.04 0 0 0 3.288-14.287zm-10.642 4.476a16 16 0 0 1-.576 1.994 15.3 15.3 0 0 1-2.442 4.38l-54.73 68.082-1.719 2.14a15.4 15.4 0 0 1-3.749 3.318q-.824.528-1.707.952-.594.274-1.208.498-.788.299-1.601.514-1.134.305-2.301.438-.813.091-1.632.096l-89.682.02h-.879a15.4 15.4 0 0 1-3.967-.547 16 16 0 0 1-4.461-1.941 15.5 15.5 0 0 1-2.98-2.467c-.27-.284-.542-.564-.789-.868L14.97 162.033a15.3 15.3 0 0 1-2.44-4.388 16 16 0 0 1-.568-1.989 15.4 15.4 0 0 1 .005-6.722l20.127-87.565a15.73 15.73 0 0 1 8.44-10.498l81.585-38.973a15.72 15.72 0 0 1 13.544 0l81.598 38.96a15.73 15.73 0 0 1 8.439 10.499l20.16 87.565a15.4 15.4 0 0 1 .002 6.719z"/><path fill="#ebebeb" d="M210.69 141.9c-.418-.096-1.012-.26-1.42-.335a41 41 0 0 0-4.683-.378 45.7 45.7 0 0 1-8.758-1.437 5.5 5.5 0 0 1-2.107-2.12l-1.971-.574a63.45 63.45 0 0 0-10.171-43.95c.504-.458 1.461-1.304 1.73-1.553a3.87 3.87 0 0 1 .916-2.77 45.7 45.7 0 0 1 7.263-5.1q2.097-1.066 4.058-2.366c.315-.234.745-.604 1.075-.869a4.907 4.907 0 0 0 1.209-7.203 4.91 4.91 0 0 0-7.291-.432c-.332.262-.785.604-1.082.863a41 41 0 0 0-3.228 3.414 45.8 45.8 0 0 1-6.583 5.956 5.43 5.43 0 0 1-2.963.322l-1.858 1.327A64 64 0 0 0 134.29 65.11c-.046-.65-.101-1.825-.119-2.18a3.87 3.87 0 0 1-1.593-2.442 45.7 45.7 0 0 1 .554-8.861q.466-2.301.664-4.64c.015-.393-.007-.964-.007-1.39a4.91 4.91 0 0 0-2.894-4.981 4.91 4.91 0 0 0-5.635 1.198 4.9 4.9 0 0 0-1.239 3.788c0 .046.01.091.013.136-.005.403-.026.897-.013 1.252q.2 2.342.667 4.644c.468 2.928.65 5.894.544 8.857a5.33 5.33 0 0 1-1.586 2.525l-.116 2.064c-2.971.246-5.921.7-8.829 1.36a62.8 62.8 0 0 0-31.906 18.226 73 73 0 0 1-1.762-1.249c-.968.29-2.01.189-2.903-.282a45.6 45.6 0 0 1-6.583-5.948 41 41 0 0 0-3.215-3.414c-.297-.254-.753-.604-1.082-.866a5.82 5.82 0 0 0-3.407-1.284 4.7 4.7 0 0 0-3.892 1.722 5.176 5.176 0 0 0 1.201 7.2l.076.05c.32.265.712.6 1.01.816a41 41 0 0 0 4.047 2.366 45.6 45.6 0 0 1 7.263 5.108c.584.83.924 1.805.982 2.817l1.563 1.398a63.2 63.2 0 0 0-9.964 44.055l-2.044.594a6.75 6.75 0 0 1-2.1 2.115 45.7 45.7 0 0 1-8.753 1.443c-1.566.035-3.13.162-4.682.377-.378.068-.899.202-1.307.302l-.043.01-.07.02a4.906 4.906 0 0 0-4.14 5.95 4.9 4.9 0 0 0 6.31 3.567l.076-.011c.03-.007.057-.025.09-.03.403-.09.909-.189 1.264-.284a41 41 0 0 0 4.38-1.679 45.7 45.7 0 0 1 8.514-2.505 5.4 5.4 0 0 1 2.807.992l2.13-.365a63.55 63.55 0 0 0 28.163 35.161l-.889 2.13c.414.858.565 1.818.436 2.762a47.7 47.7 0 0 1-4.42 7.942 41 41 0 0 0-2.619 3.902c-.194.368-.44.932-.627 1.317a4.9 4.9 0 0 0-.49 3.944 4.9 4.9 0 0 0 2.592 3.012 4.9 4.9 0 0 0 5.65-1.044 4.9 4.9 0 0 0 1.067-1.728l.007-.01v-.01c.187-.383.449-.884.605-1.241a40 40 0 0 0 1.41-4.476 34.1 34.1 0 0 1 3.781-8.774 3.97 3.97 0 0 1 2.104-1.027l1.108-2.001a63.2 63.2 0 0 0 45.065.113c.31.554.889 1.611 1.042 1.878.997.16 1.892.704 2.493 1.515a45.6 45.6 0 0 1 3.353 8.212 41 41 0 0 0 1.417 4.477c.159.36.418.868.604 1.251a4.91 4.91 0 0 0 6.718 2.784 4.92 4.92 0 0 0 2.598-3.011 4.9 4.9 0 0 0-.487-3.947c-.186-.385-.443-.949-.637-1.314a41 41 0 0 0-2.618-3.892 45.6 45.6 0 0 1-4.33-7.754 3.83 3.83 0 0 1 .378-2.88 17 17 0 0 1-.816-1.971 63.54 63.54 0 0 0 28.15-35.414c.632.101 1.732.292 2.09.365a3.86 3.86 0 0 1 2.731-1.014 45.6 45.6 0 0 1 8.517 2.505 41 41 0 0 0 4.383 1.692c.352.093.856.181 1.261.269.033.01.063.025.096.033l.07.01a4.9 4.9 0 0 0 5.46-1.729 4.9 4.9 0 0 0 .881-3.861 4.9 4.9 0 0 0-2.26-3.252 4.9 4.9 0 0 0-1.908-.674m-46.402-49.74-20.87 14.795-.073-.033a4.308 4.308 0 0 1-6.842-3.285l-.023-.01-1.45-25.578a50.74 50.74 0 0 1 29.258 14.11m-39.315 28.032h7.854l4.884 6.104-1.752 7.616-7.054 3.393-7.074-3.401-1.755-7.618zm-7.392-41.25a52 52 0 0 1 5.211-.895l-1.452 25.615-.106.05a4.31 4.31 0 0 1-2.43 3.693 4.31 4.31 0 0 1-4.402-.395l-.041.025-21.005-14.893a50.3 50.3 0 0 1 24.225-13.2m-31.843 22.776 19.178 17.152-.02.106a4.305 4.305 0 0 1-1.692 7.398l-.02.084-24.583 7.094a50.28 50.28 0 0 1 7.137-31.834m25.678 45.567-9.768 23.601a50.56 50.56 0 0 1-20.29-25.396l25.204-4.28.043.055q.42-.08.846-.075a4.294 4.294 0 0 1 3.546 1.961 4.3 4.3 0 0 1 .346 4.038zm28.83 30.353a50.5 50.5 0 0 1-27.556-1.418l12.396-22.415h.02a4.307 4.307 0 0 1 7.588-.008h.093l12.426 22.454a52 52 0 0 1-4.967 1.387m16.016-6.657-9.868-23.842.03-.043a4.3 4.3 0 0 1-.075-3.21 4.3 4.3 0 0 1 2.164-2.371 4.3 4.3 0 0 1 1.647-.428c.331-.016.664.009.989.073l.043-.053 25.429 4.297a50.37 50.37 0 0 1-20.359 25.577m23.03-37.512-24.706-7.117-.023-.103a4.32 4.32 0 0 1-3.055-3.197 4.31 4.31 0 0 1 1.368-4.205l-.012-.05 19.072-17.069a51.24 51.24 0 0 1 7.356 31.741"/></g><defs><clipPath id="a"><path fill="#ebebeb" d="M.91 0h256v249H.91z"/></clipPath></defs></svg>
