<svg xmlns="http://www.w3.org/2000/svg" width="256" height="252" fill="none" viewBox="0 0 256 252">
  <g clip-path="url(#a)">
    <path fill="#e32286" d="M14.85 159.804c-5.247-16.324-6.76-33.556-3.734-51.291 1.312-7.356 3.33-14.41 5.55-21.564 0 0 13.923-45.648 61.04-66.507 0 0 16.245-8.565 40.661-9.17 0 0-3.329-3.224-5.448-4.635-11.502-7.658-28.654-10.177-39.046.605-3.128 3.224-5.751 6.751-8.677 9.976-3.33 3.628-7.366 6.65-12.007 8.363-4.036 1.512-8.071 1.21-12.208 1.915-4.238.706-8.576 2.217-12.007 4.938-3.733 3.023-5.246 7.054-5.65 11.689-.403 3.627-.302 7.356-.504 10.984-.505 10.68-3.935 13.704-11.603 19.65-3.229 2.418-5.953 5.642-7.97 9.068-6.054 10.682 3.632 21.766 4.136 32.548.101 2.217-.1 4.434-.908 6.55-.807 2.318-2.421 3.829-3.733 5.744-1.816 2.519-3.027 5.542-2.522 8.666.504 3.124 2.118 6.046 3.632 8.767 2.926 4.836 6.558 9.169 10.392 13.301.202 0 .404.202.605.403"/>
    <path fill="url(#b)" d="M207.461 198.443c23.164-10.089 33.035-27.544 33.035-27.544 21.654-29.562 14.301-60.738 14.301-60.738-13.798 30.067-26.387 38.34-26.387 38.34 33.941-51.759.201-83.036.201-83.036 13.798 29.461-4.532 65.379-4.532 65.379-15.41 32.488-37.265 44.091-37.265 44.091 24.373 4.54 42.301-11.905 42.301-11.905-34.949 37.835-72.818 36.019-72.818 36.019 15.913 17.858 39.783 16.344 39.783 16.344-31.223 7.366-60.531-3.026-84.602-23.104-4.533-3.733-8.863-7.769-12.892-12.108 0 0-3.626-3.834-4.331-4.842l-.1-.101c-.504 18.665 18.934 36.019 18.934 36.019-24.373-10.09-35.553-31.984-35.553-31.984s-16.417-28.048-4.532-60.031c11.884-31.984 47.84-38.844 47.84-38.844 29.712 14.427 54.891 18.968 54.891 18.968 53.078 8.878 50.056-17.152 50.056-17.152.504-22.399-33.236-46.21-33.236-46.21C132.427-8.69 78.04 20.164 78.04 20.164c-47.035 20.885-60.934 66.59-60.934 66.59-2.216 7.163-4.23 14.226-5.54 21.591-5.136 29.966 2.62 58.317 19.439 83.54 26.186 39.147 68.689 52.667 68.689 52.667 62.948 21.389 105.954-10.09 105.954-10.09 39.581-27.241 47.538-58.72 47.538-58.72-31.927 25.022-45.725 22.701-45.725 22.701m-49.15-147.204a5.42 5.42 0 0 1 5.439 5.449 5.42 5.42 0 0 1-5.439 5.448 5.42 5.42 0 0 1-5.439-5.448 5.42 5.42 0 0 1 5.439-5.449"/>
    <path fill="url(#c)" d="M225.618 82.314c.504-22.37-33.295-46.152-33.295-46.152-60.234-44.539-114.717-15.72-114.717-15.72C30.488 41.303 16.565 86.95 16.565 86.95c-2.725 7.76-5.146 19.65-5.146 19.65-2.926 14.914-1.614 28.719-1.614 28.719 1.21 13.2 4.136 22.068 4.136 22.068 3.027 9.472 4.44 12.394 4.44 12.394-.101-.302-.606-2.519-.606-2.519s-4.237-20.355-.302-39.904c0 0 3.43-20.355 17.353-36.075 0 0 22.6-32.144 64.674-19.549 0 0 9.08 3.225 12.208 4.837 3.128 1.512 8.576 3.83 8.576 3.83 29.764 14.41 54.988 18.944 54.988 18.944 53.373 8.968 50.346-17.03 50.346-17.03M158.12 62.463a5.423 5.423 0 0 1-5.449-5.442 5.423 5.423 0 0 1 5.449-5.441 5.42 5.42 0 0 1 5.448 5.441 5.423 5.423 0 0 1-5.448 5.442"/>
    <path fill="url(#d)" d="M123.614 41.805 89.209 31.124c-.202 0-1.211-.504-3.027 0 0 0-20.28 5.139-16.749 16.223 0 0 2.119 6.953 7.87 13.705l37.835-1.814z"/>
  </g>
  <defs>
    <linearGradient id="b" x1="39.36" x2="164.922" y1="232.748" y2="99.407" gradientUnits="userSpaceOnUse">
      <stop stop-color="#e01d84"/>
      <stop offset=".401" stop-color="#df1d85"/>
      <stop offset=".77" stop-color="#932c87"/>
      <stop offset="1" stop-color="#5d2f88"/>
    </linearGradient>
    <linearGradient id="d" x1="68.941" x2="123.584" y1="45.973" y2="45.973" gradientUnits="userSpaceOnUse">
      <stop stop-color="#e01d84"/>
      <stop offset=".238" stop-color="#da1e85"/>
      <stop offset=".658" stop-color="#c72085"/>
      <stop offset=".999" stop-color="#b52284"/>
    </linearGradient>
    <radialGradient id="c" cx="0" cy="0" r="1" gradientTransform="matrix(122.67 .29281 -.24534 102.447 177.144 63.978)" gradientUnits="userSpaceOnUse">
      <stop stop-color="#e01d84"/>
      <stop offset=".139" stop-color="#de1e85"/>
      <stop offset=".285" stop-color="#d62085"/>
      <stop offset=".434" stop-color="#c92386"/>
      <stop offset=".586" stop-color="#b72786"/>
      <stop offset=".739" stop-color="#9d2b87"/>
      <stop offset=".891" stop-color="#7c2e88"/>
      <stop offset="1" stop-color="#5d2f88"/>
    </radialGradient>
    <clipPath id="a">
      <path fill="#ebebeb" d="M0 0h256v252H0z"/>
    </clipPath>
  </defs>
</svg>
