<svg width="234" height="256" viewBox="0 0 234 256" fill="none" xmlns="http://www.w3.org/2000/svg">
<g clip-path="url(#clip0_18_1523)">
<path d="M231.305 103.21C231.305 87.9396 212.182 73.468 182.863 64.4938C189.629 34.6107 186.622 10.8359 173.371 3.22411C170.317 1.43864 166.747 0.592862 162.847 0.592862V11.0708C165.008 11.0708 166.747 11.4937 168.203 12.2924C174.593 15.9573 177.366 29.9121 175.203 47.8607C174.687 52.2775 173.842 56.929 172.808 61.6746C163.598 59.4193 153.543 57.6809 142.971 56.5532C136.629 47.8607 130.051 39.9671 123.425 33.0602C138.743 18.8235 153.121 11.0237 162.894 11.0237V0.545898C149.972 0.545898 133.057 9.75517 115.955 25.7303C98.8514 9.8491 81.937 0.73386 69.0161 0.73386V11.2117C78.7419 11.2117 93.1663 18.9644 108.484 33.1072C101.906 40.0141 95.3275 47.8607 89.0783 56.5532C78.4593 57.6809 68.4046 59.4193 59.1956 61.7216C58.1145 57.023 57.316 52.4653 56.7518 48.0957C54.5444 30.1471 57.2687 16.1922 63.6126 12.4804C65.0215 11.6346 66.8538 11.2588 69.0161 11.2588V0.780823C65.0688 0.780823 61.4976 1.6266 58.3971 3.41208C45.1936 11.0237 42.2339 34.7516 49.0463 64.5408C19.8213 73.5621 0.791992 87.9869 0.791992 103.21C0.791992 118.481 19.9152 132.953 49.2344 141.926C42.4682 171.81 45.4752 195.584 58.726 203.196C61.7802 204.981 65.3503 205.827 69.2976 205.827C82.2186 205.827 99.134 196.618 116.237 180.643C133.339 196.524 150.255 205.64 163.175 205.64C167.122 205.64 170.693 204.794 173.794 203.008C186.997 195.396 189.958 171.668 183.144 141.88C212.276 132.905 231.305 118.434 231.305 103.21ZM170.13 71.8705C168.391 77.9322 166.23 84.1804 163.786 90.4297C161.86 86.6715 159.84 82.9123 157.631 79.153C155.47 75.3945 153.167 71.7296 150.865 68.1587C157.537 69.1454 163.974 70.3671 170.13 71.8705ZM148.609 121.91C144.945 128.254 141.186 134.268 137.286 139.86C130.285 140.47 123.191 140.799 116.048 140.799C108.953 140.799 101.858 140.47 94.9052 139.906C91.0051 134.314 87.1986 128.348 83.534 122.051C79.9628 115.896 76.7215 109.647 73.7608 103.352C76.6743 97.0551 79.9628 90.7585 83.4877 84.6038C87.1524 78.261 90.9106 72.2465 94.8106 66.6551C101.812 66.0443 108.906 65.7154 116.048 65.7154C123.144 65.7154 130.239 66.0443 137.192 66.6081C141.092 72.1995 144.898 78.1665 148.563 84.463C152.134 90.6177 155.375 96.867 158.336 103.164C155.375 109.459 152.134 115.756 148.609 121.91ZM163.786 115.803C166.252 121.926 168.417 128.167 170.271 134.502C164.115 136.006 157.631 137.275 150.912 138.262C153.214 134.644 155.516 130.932 157.678 127.126C159.84 123.368 161.86 119.561 163.786 115.803ZM116.142 165.937C111.772 161.425 107.403 156.398 103.08 150.901C107.309 151.089 111.632 151.23 116.001 151.23C120.418 151.23 124.788 151.136 129.064 150.901C125.031 156.142 120.717 161.161 116.142 165.937ZM81.1847 138.262C74.5131 137.275 68.0757 136.053 61.921 134.55C63.6588 128.488 65.821 122.239 68.2638 115.99C70.1907 119.749 72.2111 123.508 74.4185 127.267C76.627 131.026 78.8827 134.69 81.1847 138.262ZM115.908 40.484C120.277 44.9946 124.647 50.0221 128.969 55.5195C124.741 55.3315 120.418 55.1906 116.048 55.1906C111.632 55.1906 107.262 55.2845 102.987 55.5195C107.02 50.2784 111.333 45.2593 115.908 40.484ZM81.1374 68.1587C78.8354 71.7766 76.5335 75.4885 74.3723 79.2938C72.2111 83.053 70.1907 86.8123 68.2638 90.5705C65.7971 84.4473 63.6333 78.2064 61.7802 71.8705C67.9349 70.414 74.4185 69.1454 81.1374 68.1587ZM38.6155 126.985C21.9827 119.89 11.2229 110.587 11.2229 103.21C11.2229 95.8332 21.9827 86.4834 38.6155 79.4356C42.6563 77.6968 47.0732 76.1463 51.6309 74.6898C54.309 83.8988 57.8329 93.4839 62.2026 103.304C57.8802 113.078 54.4025 122.615 51.7717 131.778C47.1205 130.321 42.7035 128.724 38.6155 126.985ZM63.8941 194.128C57.5041 190.463 54.7314 176.509 56.8936 158.559C57.4106 154.143 58.2553 149.491 59.2891 144.745C68.4991 147.001 78.5539 148.74 89.1255 149.867C95.4683 158.559 102.046 166.453 108.672 173.36C93.3544 187.597 78.9762 195.396 69.2031 195.396C67.0892 195.35 65.3041 194.926 63.8941 194.128ZM175.345 158.325C177.553 176.273 174.828 190.228 168.484 193.94C167.075 194.786 165.243 195.162 163.081 195.162C153.355 195.162 138.931 187.409 123.613 173.266C130.191 166.359 136.769 158.513 143.019 149.82C153.638 148.692 163.692 146.954 172.901 144.652C173.982 149.397 174.828 153.955 175.345 158.325ZM193.434 126.985C189.393 128.724 184.976 130.275 180.419 131.731C177.741 122.522 174.217 112.937 169.847 103.116C174.171 93.3431 177.647 83.8053 180.278 74.6427C184.93 76.0993 189.346 77.6968 193.482 79.4356C210.114 86.5296 220.874 95.8332 220.874 103.21C220.827 110.587 210.067 119.937 193.434 126.985Z" fill="#61DAFB"/>
<path d="M116.001 124.683C127.861 124.683 137.474 115.069 137.474 103.209C137.474 91.3508 127.861 81.7373 116.001 81.7373C104.143 81.7373 94.5291 91.3508 94.5291 103.209C94.5291 115.069 104.143 124.683 116.001 124.683ZM11.2592 242.798H4.17094V255.006H0.170898V224.829H10.1607C13.5597 224.829 16.1712 225.603 17.995 227.151C19.8327 228.697 20.7516 230.95 20.7516 233.906C20.7516 235.786 20.2403 237.423 19.2178 238.819C18.2092 240.214 16.7999 241.258 14.9898 241.948L22.078 254.757V255.006H17.8085L11.2592 242.798ZM4.17094 239.544H10.2851C12.261 239.544 13.8292 239.032 14.9898 238.01C16.1642 236.988 16.7514 235.62 16.7514 233.906C16.7514 232.041 16.1919 230.611 15.0727 229.617C13.9673 228.622 12.3646 228.117 10.2643 228.104H4.17094V239.544ZM35.0527 255.421C32.0126 255.421 29.5392 254.426 27.6325 252.436C25.7257 250.432 24.7723 247.758 24.7723 244.415V243.71C24.7723 241.486 25.1937 239.503 26.0366 237.762C26.8933 236.007 28.0816 234.639 29.6014 233.658C31.1352 232.663 32.7932 232.165 34.5756 232.165C37.4913 232.165 39.7576 233.126 41.3735 235.046C42.9904 236.967 43.7984 239.716 43.7984 243.295V244.891H28.6066C28.6618 247.103 29.3044 248.892 30.5341 250.26C31.7776 251.613 33.3528 252.291 35.2597 252.291C36.614 252.291 37.7603 252.014 38.6996 251.462C39.6399 250.909 40.4615 250.177 41.1665 249.265L43.5084 251.089C41.6288 253.976 38.8109 255.421 35.0527 255.421ZM34.5756 235.316C33.0281 235.316 31.7293 235.883 30.6792 237.015C29.6291 238.135 28.9797 239.71 28.731 241.741H39.9645V241.451C39.8542 239.503 39.3289 237.997 38.3896 236.932C37.4493 235.855 36.178 235.316 34.5756 235.316ZM62.0997 255.006C61.878 254.563 61.6983 253.776 61.5607 252.643C59.7777 254.494 57.6502 255.421 55.1769 255.421C52.9664 255.421 51.1498 254.799 49.7261 253.555C48.3172 252.297 47.6122 250.708 47.6122 248.788C47.6122 246.453 48.4969 244.643 50.2651 243.358C52.047 242.058 54.5486 241.409 57.7678 241.409H61.4987V239.648C61.4987 238.308 61.0973 237.243 60.2967 236.456C59.4951 235.655 58.3131 235.254 56.7519 235.254C55.3839 235.254 54.2376 235.599 53.312 236.29C52.3864 236.981 51.9231 237.817 51.9231 238.798H48.0682C48.0682 237.679 48.4622 236.601 49.2491 235.564C50.0508 234.515 51.1288 233.686 52.4831 233.077C53.851 232.47 55.3492 232.165 56.9798 232.165C59.5644 232.165 61.588 232.815 63.0526 234.114C64.5172 235.399 65.2768 237.175 65.3325 239.44V249.762C65.3325 251.821 65.5952 253.458 66.1205 254.674V255.006H62.0997ZM55.7369 252.084C56.9389 252.084 58.0788 251.773 59.1568 251.151C60.2337 250.529 61.0144 249.721 61.4987 248.726V244.125H58.4928C53.7953 244.125 51.4461 245.499 51.4461 248.249C51.4461 249.451 51.8474 250.391 52.648 251.068C53.4497 251.744 54.4793 252.084 55.7369 252.084ZM80.3379 252.291C81.7059 252.291 82.9015 251.876 83.9238 251.047C84.9461 250.218 85.5124 249.182 85.6227 247.938H89.2506C89.1813 249.223 88.7389 250.446 87.9236 251.607C87.1083 252.768 86.0167 253.693 84.6488 254.384C83.2945 255.075 81.8582 255.421 80.3379 255.421C77.2847 255.421 74.8525 254.405 73.0422 252.374C71.2466 250.328 70.3483 247.537 70.3483 244V243.358C70.3483 241.175 70.7486 239.233 71.5503 237.534C72.3519 235.834 73.4982 234.515 74.9912 233.575C76.4967 232.635 78.2724 232.165 80.3169 232.165C82.8322 232.165 84.9188 232.919 86.5767 234.425C88.2483 235.931 89.1392 237.886 89.2506 240.29H85.6227C85.5124 238.839 84.9597 237.651 83.9648 236.725C82.9845 235.786 81.7679 235.316 80.3169 235.316C78.369 235.316 76.8561 236.02 75.7781 237.43C74.7148 238.825 74.1822 240.85 74.1822 243.503V244.228C74.1822 246.811 74.7148 248.801 75.7781 250.197C76.8424 251.593 78.3627 252.291 80.3379 252.291ZM98.7632 227.151V232.58H102.95V235.544H98.7632V249.451C98.7632 250.349 98.9502 251.026 99.3232 251.482C99.6962 251.924 100.332 252.146 101.23 252.146C101.671 252.146 102.28 252.063 103.053 251.897V255.006C102.044 255.282 101.064 255.421 100.11 255.421C98.3976 255.421 97.1053 254.901 96.2343 253.866C95.3644 252.83 94.9294 251.358 94.9294 249.451V235.544H90.8455V232.58H94.9294V227.151H98.7632ZM141.77 255.006H137.769L122.577 231.751V255.006H118.577V224.829H122.577L137.811 248.187V224.829H141.77V255.006ZM162.081 255.006C161.859 254.563 161.679 253.776 161.542 252.643C159.759 254.494 157.631 255.421 155.158 255.421C152.947 255.421 151.13 254.799 149.707 253.555C148.298 252.297 147.593 250.708 147.593 248.788C147.593 246.453 148.477 244.643 150.246 243.358C152.028 242.058 154.53 241.409 157.749 241.409H161.48V239.648C161.48 238.308 161.078 237.243 160.277 236.456C159.476 235.655 158.294 235.254 156.733 235.254C155.365 235.254 154.219 235.599 153.293 236.29C152.367 236.981 151.904 237.817 151.904 238.798H148.049C148.049 237.679 148.443 236.601 149.23 235.564C150.032 234.515 151.11 233.686 152.464 233.077C153.832 232.47 155.33 232.165 156.961 232.165C159.544 232.165 161.569 232.815 163.034 234.114C164.498 235.399 165.258 237.175 165.314 239.44V249.762C165.314 251.821 165.576 253.458 166.102 254.674V255.006H162.081ZM155.718 252.084C156.92 252.084 158.06 251.773 159.138 251.151C160.215 250.529 160.995 249.721 161.48 248.726V244.125H158.474C153.776 244.125 151.427 245.499 151.427 248.249C151.427 249.451 151.828 250.391 152.629 251.068C153.431 251.744 154.46 252.084 155.718 252.084ZM176.526 227.151V232.58H180.713V235.544H176.526V249.451C176.526 250.349 176.713 251.026 177.086 251.482C177.459 251.924 178.095 252.146 178.993 252.146C179.434 252.146 180.043 252.063 180.817 251.897V255.006C179.807 255.282 178.827 255.421 177.873 255.421C176.161 255.421 174.868 254.901 173.997 253.866C173.127 252.83 172.692 251.358 172.692 249.451V235.544H168.609V232.58H172.692V227.151H176.526ZM189.377 255.006H185.542V232.58H189.377V255.006ZM185.231 226.632C185.231 226.011 185.418 225.485 185.791 225.057C186.177 224.628 186.744 224.415 187.49 224.415C188.237 224.415 188.803 224.628 189.19 225.057C189.576 225.485 189.77 226.011 189.77 226.632C189.77 227.254 189.576 227.772 189.19 228.187C188.803 228.601 188.237 228.809 187.49 228.809C186.744 228.809 186.177 228.601 185.791 228.187C185.418 227.772 185.231 227.254 185.231 226.632ZM202.931 249.804L208.485 232.58H212.403L204.361 255.006H201.438L193.314 232.58H197.231L202.931 249.804ZM225.107 255.421C222.068 255.421 219.594 254.426 217.688 252.436C215.781 250.432 214.828 247.758 214.828 244.415V243.71C214.828 241.486 215.249 239.503 216.092 237.762C216.948 236.007 218.136 234.639 219.656 233.658C221.19 232.663 222.848 232.165 224.63 232.165C227.546 232.165 229.812 233.126 231.429 235.046C233.045 236.967 233.854 239.716 233.854 243.295V244.891H218.661C218.717 247.103 219.359 248.892 220.589 250.26C221.832 251.613 223.408 252.291 225.314 252.291C226.669 252.291 227.816 252.014 228.755 251.462C229.694 250.909 230.517 250.177 231.222 249.265L233.564 251.089C231.684 253.976 228.865 255.421 225.107 255.421ZM224.63 235.316C223.084 235.316 221.784 235.883 220.734 237.015C219.684 238.135 219.034 239.71 218.787 241.741H230.019V241.451C229.909 239.503 229.383 237.997 228.444 236.932C227.505 235.855 226.234 235.316 224.63 235.316Z" fill="#61DAFB"/>
</g>
<defs>
<clipPath id="clip0_18_1523">
<rect width="234" height="256" fill="white"/>
</clipPath>
</defs>
</svg>
