<svg width="227" height="256" viewBox="0 0 227 256" fill="none" xmlns="http://www.w3.org/2000/svg">
<path d="M111.908 213.873L38.0866 171.288C37.1907 170.751 36.5934 169.795 36.5934 168.72V102.902C36.5934 101.768 37.8477 101.051 38.8033 101.588L124.51 151.041C125.704 151.758 127.197 150.862 127.197 149.488V117.416C127.197 116.161 126.54 114.967 125.406 114.31L22.319 54.8231C21.4231 54.2855 20.2286 54.2855 19.3327 54.8231L5.83465 62.6471C4.93876 63.1847 4.3415 64.1403 4.3415 65.2154V187.474C4.3415 188.549 4.93876 189.505 5.83465 190.042L111.728 251.201C112.624 251.739 113.819 251.739 114.715 251.201L203.646 199.837C204.841 199.12 204.841 197.448 203.646 196.731L175.934 180.725C174.799 180.068 173.485 180.068 172.35 180.725L114.954 213.873C114.058 214.41 112.863 214.41 111.967 213.873H111.908Z" fill="white"/>
<path d="M220.608 62.5866L114.714 1.48713C113.818 0.949601 112.624 0.949601 111.728 1.48713L55.765 33.7988C54.5705 34.5155 54.5705 36.1878 55.765 36.9045L83.2389 52.7916C84.3736 53.4485 85.6876 53.4485 86.8224 52.7916L111.907 38.3379C112.803 37.8004 113.998 37.8004 114.894 38.3379L188.715 80.9224C189.61 81.4599 190.208 82.4155 190.208 83.4906V149.607C190.208 150.861 190.865 152.056 191.999 152.713L219.473 168.54C220.668 169.257 222.161 168.361 222.161 166.987V65.2145C222.161 64.1395 221.564 63.1838 220.668 62.6463L220.608 62.5866Z" fill="white"/>
</svg>
