<svg width="256" height="256" viewBox="0 0 256 256" fill="none" xmlns="http://www.w3.org/2000/svg">
<g clip-path="url(#clip0_18_785)">
<rect width="256" height="256" fill="#1C79CA"/>
<path d="M91.0909 186V69.6364H130.409C139.538 69.6364 147 71.2841 152.795 74.5795C158.629 77.8371 162.947 82.25 165.75 87.8182C168.553 93.3864 169.955 99.5985 169.955 106.455C169.955 113.311 168.553 119.542 165.75 125.148C162.985 130.754 158.705 135.223 152.909 138.557C147.114 141.852 139.689 143.5 130.636 143.5H102.455V131H130.182C136.432 131 141.451 129.92 145.239 127.761C149.027 125.602 151.773 122.686 153.477 119.011C155.22 115.299 156.091 111.114 156.091 106.455C156.091 101.795 155.22 97.6288 153.477 93.9545C151.773 90.2803 149.008 87.4015 145.182 85.3182C141.356 83.197 136.28 82.1364 129.955 82.1364H105.182V186H91.0909Z" fill="white"/>
<path d="M191.932 226H188.409C188.201 224.987 187.836 224.097 187.315 223.33C186.804 222.562 186.179 221.919 185.44 221.398C184.711 220.867 183.902 220.47 183.011 220.205C182.121 219.939 181.193 219.807 180.227 219.807C178.466 219.807 176.87 220.252 175.44 221.142C174.02 222.032 172.888 223.344 172.045 225.077C171.212 226.81 170.795 228.936 170.795 231.455C170.795 233.973 171.212 236.099 172.045 237.832C172.888 239.565 174.02 240.877 175.44 241.767C176.87 242.657 178.466 243.102 180.227 243.102C181.193 243.102 182.121 242.97 183.011 242.705C183.902 242.439 184.711 242.046 185.44 241.526C186.179 240.995 186.804 240.347 187.315 239.58C187.836 238.803 188.201 237.913 188.409 236.909H191.932C191.667 238.396 191.184 239.726 190.483 240.901C189.782 242.075 188.911 243.074 187.869 243.898C186.828 244.712 185.658 245.332 184.361 245.759C183.073 246.185 181.695 246.398 180.227 246.398C177.746 246.398 175.54 245.792 173.608 244.58C171.676 243.367 170.156 241.644 169.048 239.409C167.94 237.174 167.386 234.523 167.386 231.455C167.386 228.386 167.94 225.735 169.048 223.5C170.156 221.265 171.676 219.542 173.608 218.33C175.54 217.117 177.746 216.511 180.227 216.511C181.695 216.511 183.073 216.724 184.361 217.151C185.658 217.577 186.828 218.202 187.869 219.026C188.911 219.84 189.782 220.834 190.483 222.009C191.184 223.173 191.667 224.504 191.932 226ZM213.533 224.182C213.363 222.742 212.672 221.625 211.46 220.83C210.247 220.034 208.761 219.636 206.999 219.636C205.711 219.636 204.585 219.845 203.619 220.261C202.662 220.678 201.914 221.251 201.374 221.98C200.844 222.709 200.579 223.538 200.579 224.466C200.579 225.242 200.763 225.91 201.133 226.469C201.512 227.018 201.995 227.477 202.582 227.847C203.169 228.206 203.784 228.505 204.428 228.741C205.072 228.969 205.664 229.153 206.204 229.295L209.158 230.091C209.916 230.29 210.759 230.564 211.687 230.915C212.624 231.265 213.519 231.743 214.371 232.349C215.233 232.946 215.943 233.713 216.502 234.651C217.061 235.588 217.34 236.739 217.34 238.102C217.34 239.674 216.928 241.095 216.104 242.364C215.29 243.633 214.097 244.641 212.525 245.389C210.962 246.137 209.064 246.511 206.829 246.511C204.746 246.511 202.942 246.175 201.417 245.503C199.902 244.83 198.709 243.893 197.837 242.69C196.976 241.488 196.488 240.091 196.374 238.5H200.011C200.105 239.598 200.475 240.508 201.119 241.227C201.772 241.937 202.596 242.468 203.59 242.818C204.594 243.159 205.674 243.33 206.829 243.33C208.174 243.33 209.381 243.112 210.451 242.676C211.521 242.231 212.369 241.616 212.994 240.83C213.619 240.034 213.931 239.106 213.931 238.045C213.931 237.08 213.661 236.294 213.121 235.688C212.582 235.081 211.871 234.589 210.991 234.21C210.11 233.831 209.158 233.5 208.136 233.216L204.556 232.193C202.283 231.54 200.484 230.607 199.158 229.395C197.833 228.183 197.17 226.597 197.17 224.636C197.17 223.008 197.61 221.587 198.491 220.375C199.381 219.153 200.574 218.206 202.07 217.534C203.576 216.852 205.257 216.511 207.113 216.511C208.988 216.511 210.655 216.848 212.113 217.52C213.571 218.183 214.727 219.092 215.579 220.247C216.441 221.402 216.895 222.714 216.942 224.182H213.533ZM239.041 224.182C238.871 222.742 238.179 221.625 236.967 220.83C235.755 220.034 234.268 219.636 232.507 219.636C231.219 219.636 230.092 219.845 229.126 220.261C228.17 220.678 227.422 221.251 226.882 221.98C226.352 222.709 226.087 223.538 226.087 224.466C226.087 225.242 226.271 225.91 226.641 226.469C227.019 227.018 227.502 227.477 228.089 227.847C228.677 228.206 229.292 228.505 229.936 228.741C230.58 228.969 231.172 229.153 231.712 229.295L234.666 230.091C235.424 230.29 236.267 230.564 237.195 230.915C238.132 231.265 239.027 231.743 239.879 232.349C240.741 232.946 241.451 233.713 242.01 234.651C242.569 235.588 242.848 236.739 242.848 238.102C242.848 239.674 242.436 241.095 241.612 242.364C240.798 243.633 239.605 244.641 238.033 245.389C236.47 246.137 234.571 246.511 232.337 246.511C230.253 246.511 228.449 246.175 226.925 245.503C225.41 244.83 224.216 243.893 223.345 242.69C222.483 241.488 221.996 240.091 221.882 238.5H225.518C225.613 239.598 225.982 240.508 226.626 241.227C227.28 241.937 228.104 242.468 229.098 242.818C230.102 243.159 231.181 243.33 232.337 243.33C233.681 243.33 234.889 243.112 235.959 242.676C237.029 242.231 237.876 241.616 238.501 240.83C239.126 240.034 239.439 239.106 239.439 238.045C239.439 237.08 239.169 236.294 238.629 235.688C238.089 235.081 237.379 234.589 236.499 234.21C235.618 233.831 234.666 233.5 233.643 233.216L230.064 232.193C227.791 231.54 225.992 230.607 224.666 229.395C223.34 228.183 222.678 226.597 222.678 224.636C222.678 223.008 223.118 221.587 223.999 220.375C224.889 219.153 226.082 218.206 227.578 217.534C229.084 216.852 230.765 216.511 232.621 216.511C234.496 216.511 236.162 216.848 237.621 217.52C239.079 218.183 240.234 219.092 241.087 220.247C241.948 221.402 242.403 222.714 242.45 224.182H239.041Z" fill="white"/>
</g>
<defs>
<clipPath id="clip0_18_785">
<rect width="256" height="256" fill="white"/>
</clipPath>
</defs>
</svg>
