<svg xmlns="http://www.w3.org/2000/svg" width="256" height="158" fill="none" viewBox="0 0 256 158"><g clip-path="url(#a)"><path fill="#ebebeb" d="M238.371 157.892H18.395C8.431 157.892 0 149.461 0 139.497V18.395C0 8.431 8.431 0 18.395 0h219.21C247.569 0 256 8.431 256 18.395v121.102c0 9.964-7.665 18.395-17.629 18.395M18.395 12.264c-3.066 0-6.131 3.065-6.131 6.131v121.102c0 3.832 3.065 6.132 6.131 6.132h219.21c3.832 0 6.132-3.066 6.132-6.132V18.395c0-3.832-3.066-6.131-6.132-6.131zM36.79 121.101V36.79h24.527l24.527 30.66 24.527-30.66h24.527v84.312h-24.527V72.814l-24.527 30.659-24.527-30.659v48.288zm154.06 0-36.79-40.623h24.527V36.79h24.527v42.923h24.527z"/></g><defs><clipPath id="a"><path fill="#ebebeb" d="M0 0h256v158H0z"/></clipPath></defs></svg>
