<svg xmlns="http://www.w3.org/2000/svg" width="256" height="257" fill="none" viewBox="0 0 256 257"><g clip-path="url(#a)"><path fill="#000" d="M188.235.5H67.765C30.339.5 0 30.84 0 68.265v120.47C0 226.16 30.34 256.5 67.765 256.5h120.47c37.425 0 67.765-30.34 67.765-67.765V68.265C256 30.839 225.66.5 188.235.5"/><path fill="#d9d9d9" d="M175.377 182.271V73.641h13.428v108.63zM109.896 184.534q-12.598 0-22.254-5.205-9.655-5.205-15.163-14.559-5.43-9.43-5.431-22.103v-68.95l13.579-.075v67.893q0 7.695 2.565 13.428 2.64 5.658 6.94 9.43t9.43 5.657q5.204 1.81 10.334 1.811 5.205 0 10.411-1.886a29.4 29.4 0 0 0 9.429-5.582q4.3-3.772 6.865-9.506 2.565-5.732 2.565-13.352V73.642h13.579v69.025q0 12.597-5.507 22.027-5.431 9.43-15.088 14.635t-22.254 5.205"/></g><defs><clipPath id="a"><path fill="#ebebeb" d="M0 .5h256v256H0z"/></clipPath></defs></svg>
