<svg width="256" height="250" viewBox="0 0 256 250" fill="none" xmlns="http://www.w3.org/2000/svg">
<g clip-path="url(#clip0_21_1752)">
<path d="M85.6258 201.078C85.6258 202.111 84.4387 202.936 82.9419 202.936C81.2387 203.091 80.0516 202.265 80.0516 201.078C80.0516 200.046 81.2387 199.22 82.7355 199.22C84.2839 199.065 85.6258 199.891 85.6258 201.078ZM69.5742 198.756C69.2129 199.788 70.2452 200.975 71.7935 201.285C73.1355 201.801 74.6839 201.285 74.9935 200.252C75.3032 199.22 74.3226 198.033 72.7742 197.569C71.4323 197.207 69.9355 197.723 69.5742 198.756ZM92.3871 197.878C90.8903 198.24 89.8581 199.22 90.0129 200.407C90.1677 201.44 91.5097 202.111 93.0581 201.749C94.5548 201.388 95.5871 200.407 95.4323 199.375C95.2774 198.394 93.8839 197.723 92.3871 197.878ZM126.348 0.0976562C54.7613 0.0976562 0 54.446 0 126.033C0 183.272 36.0258 232.252 87.4839 249.491C94.0903 250.678 96.4129 246.601 96.4129 243.246C96.4129 240.046 96.2581 222.394 96.2581 211.556C96.2581 211.556 60.129 219.298 52.5419 196.175C52.5419 196.175 46.6581 181.156 38.1935 177.285C38.1935 177.285 26.3742 169.182 39.0194 169.336C39.0194 169.336 51.871 170.369 58.9419 182.652C70.2452 202.575 89.1871 196.846 96.5677 193.44C97.7548 185.182 101.11 179.452 104.826 176.046C75.9742 172.846 46.8645 168.665 46.8645 119.014C46.8645 104.82 50.7871 97.6977 59.0452 88.6138C57.7032 85.2589 53.3161 71.4267 60.3871 53.5686C71.1742 50.2138 96 67.5041 96 67.5041C106.323 64.6138 117.419 63.117 128.413 63.117C139.406 63.117 150.503 64.6138 160.826 67.5041C160.826 67.5041 185.652 50.1622 196.439 53.5686C203.51 71.4783 199.123 85.2589 197.781 88.6138C206.039 97.7493 211.097 104.872 211.097 119.014C211.097 168.82 180.697 172.794 151.845 176.046C156.594 180.123 160.619 187.865 160.619 199.994C160.619 217.388 160.465 238.911 160.465 243.143C160.465 246.498 162.839 250.575 169.394 249.388C221.006 232.252 256 183.272 256 126.033C256 54.446 197.935 0.0976562 126.348 0.0976562ZM50.1677 178.111C49.4968 178.627 49.6516 179.814 50.529 180.794C51.3548 181.62 52.5419 181.982 53.2129 181.311C53.8839 180.794 53.729 179.607 52.8516 178.627C52.0258 177.801 50.8387 177.44 50.1677 178.111ZM44.5935 173.93C44.2323 174.601 44.7484 175.427 45.7806 175.943C46.6064 176.459 47.6387 176.304 48 175.582C48.3613 174.911 47.8452 174.085 46.8129 173.569C45.7806 173.259 44.9548 173.414 44.5935 173.93ZM61.3161 192.304C60.4903 192.975 60.8 194.523 61.9871 195.504C63.1742 196.691 64.671 196.846 65.3419 196.02C66.0129 195.349 65.7032 193.801 64.671 192.82C63.5355 191.633 61.9871 191.478 61.3161 192.304ZM55.4323 184.717C54.6065 185.233 54.6065 186.575 55.4323 187.762C56.2581 188.949 57.6516 189.465 58.3226 188.949C59.1484 188.278 59.1484 186.936 58.3226 185.749C57.6 184.562 56.2581 184.046 55.4323 184.717Z" fill="white"/>
</g>
<defs>
<clipPath id="clip0_21_1752">
<rect width="256" height="250" fill="white"/>
</clipPath>
</defs>
</svg>
