<svg xmlns="http://www.w3.org/2000/svg" width="257" height="256" fill="none" viewBox="0 0 257 256">
  <g clip-path="url(#a)">
    <path fill="#639" d="M128.759 256c70.692 0 128-57.308 128-128s-57.308-128-128-128-128 57.308-128 128 57.307 128 128 128"/>
    <path fill="#ebebeb" d="M57.445 199.314c-19.2-19.2-29.257-44.8-29.257-69.486l99.657 98.743c-25.6-.914-51.2-10.057-70.4-29.257m93.257 26.514L30.93 106.057c10.057-44.8 50.286-78.628 97.829-78.628 33.828 0 63.086 16.457 81.371 41.142l-13.714 11.886c-15.543-21.028-40.229-34.743-67.657-34.743-35.657 0-65.829 22.857-77.714 54.857l105.142 105.143c26.515-9.143 46.629-32 53.029-59.428H165.33V128h64c0 47.543-33.828 87.771-78.628 97.828"/>
  </g>
  <defs>
    <clipPath id="a">
      <path fill="#ebebeb" d="M.759 0h256v256h-256z"/>
    </clipPath>
  </defs>
</svg>
