<svg width="245" height="256" viewBox="0 0 245 256" fill="none"
  xmlns="http://www.w3.org/2000/svg">
  <g clip-path="url(#clip0_21_2228)">
    <path d="M15.3719 11.0218L156.743 0.580822C174.107 -0.909532 178.57 0.0953934 189.488 8.03259L234.616 39.824C242.059 45.2915 244.537 46.7818 244.537 52.7347V227.089C244.537 238.016 240.569 244.479 226.679 245.467L62.5097 255.406C52.0858 255.9 47.1207 254.409 41.6618 247.452L8.43115 204.24C2.46973 196.286 0 190.333 0 183.375V28.3951C0 19.4615 3.9686 12.0097 15.3719 11.0218Z" fill="#EBEBEB"/>
    <path d="M156.743 0.580822L15.3719 11.0218C3.9686 12.0097 0 19.4615 0 28.3951V183.375C0 190.333 2.46973 196.286 8.43115 204.24L41.6618 247.452C47.1207 254.409 52.0858 255.9 62.5097 255.406L226.679 245.467C240.56 244.479 244.537 238.016 244.537 227.089V52.7347C244.537 47.0884 242.306 45.4618 235.74 40.6415C235.362 40.3694 234.985 40.0969 234.607 39.824L189.488 8.03259C178.57 0.0953934 174.107 -0.909532 156.743 0.580822ZM66.2228 49.8817C52.8182 50.7845 49.7778 50.9889 42.1642 44.7975L22.8067 29.4C20.8394 27.4072 21.8273 24.9204 26.7838 24.4265L162.687 14.4965C174.099 13.5001 180.043 17.4772 184.506 20.9518L207.815 37.8397C208.811 38.3421 211.29 41.3143 208.309 41.3143L67.9601 49.7625L66.2228 49.8817ZM50.5954 225.599V77.5853C50.5954 71.1214 52.5797 68.1407 58.5241 67.6382L219.721 58.2022C225.188 57.7082 227.658 61.1829 227.658 67.6382V214.664C227.658 221.128 226.662 226.595 217.736 227.089L63.4806 236.031C54.5555 236.525 50.5954 233.553 50.5954 225.599ZM202.867 85.5225C203.855 89.9936 202.867 94.4646 198.396 94.9756L190.961 96.4489V205.73C184.506 209.205 178.561 211.189 173.596 211.189C165.659 211.189 163.675 208.702 157.731 201.259L109.111 124.766V198.772L124.491 202.256C124.491 202.256 124.491 211.198 112.083 211.198L77.8731 213.182C76.8767 211.189 77.8731 206.224 81.3393 205.236L90.2729 202.758V104.906L77.8731 103.901C76.8767 99.4296 79.355 92.9743 86.3043 92.4718L123.01 90.0021L173.596 167.483V98.9357L160.703 97.4539C159.706 91.9779 163.675 88.0007 168.631 87.5153L202.867 85.5225Z" fill="black"/>
  </g>
  <defs>
    <clipPath id="clip0_21_2228">
      <rect width="244.537" height="256" fill="#EBEBEB"/>
    </clipPath>
  </defs>
</svg>
