<svg xmlns="http://www.w3.org/2000/svg" width="215" height="256" fill="none" viewBox="0 0 215 256"><g clip-path="url(#a)"><path fill="#ff3e00" d="M200.658 34.078a77.96 77.96 0 0 0-47.815-31.99 77.83 77.83 0 0 0-56.697 9.548L36.426 49.04a68.1 68.1 0 0 0-20.16 19.611 68.2 68.2 0 0 0-10.53 26.103A72.44 72.44 0 0 0 13.2 141.3a68.2 68.2 0 0 0-10.783 25.766 73.3 73.3 0 0 0 .747 28.675 73.2 73.2 0 0 0 11.695 26.182C38.914 256 85.363 265.974 119.37 244.364l59.721-38.234a68.1 68.1 0 0 0 20.16-19.611 68.2 68.2 0 0 0 10.53-26.103 72.45 72.45 0 0 0-7.465-45.715A68.2 68.2 0 0 0 213.1 88.935a73.28 73.28 0 0 0-12.442-54.857"/><path fill="#ebebeb" d="M90.34 225.247c-19.077 4.987-39.814-2.494-50.597-19.117a44.14 44.14 0 0 1-7.465-33.247c.175-1.677.452-3.343.83-4.987l1.658-3.325 3.318 1.663A76.3 76.3 0 0 0 61.31 177.87l1.659.831v2.494a13.32 13.32 0 0 0 2.488 8.312 14.08 14.08 0 0 0 14.93 5.818 13.3 13.3 0 0 0 4.148-1.663l58.891-37.402a12.46 12.46 0 0 0 5.806-8.312 13.32 13.32 0 0 0-2.488-9.974 14.1 14.1 0 0 0-6.56-5.24 14.07 14.07 0 0 0-8.37-.578 13.3 13.3 0 0 0-3.318 1.662l-23.225 14.13a43 43 0 0 1-11.612 5.818c-19.078 4.987-39.814-3.324-50.597-19.117a44.1 44.1 0 0 1-7.07-15.87 44.1 44.1 0 0 1-.395-17.376 40.8 40.8 0 0 1 6.23-15.647 40.7 40.7 0 0 1 12.018-11.782l59.721-38.234a43 43 0 0 1 11.612-4.987c19.078-4.987 39.814 2.494 50.597 18.286a44.1 44.1 0 0 1 7.465 33.247 42.6 42.6 0 0 1-.829 5.818l-1.659 3.325-3.318-2.494A76.3 76.3 0 0 0 154.208 77.3h-1.659v-2.494a13.32 13.32 0 0 0-2.488-9.143 14.1 14.1 0 0 0-6.561-5.24 14.07 14.07 0 0 0-8.369-.578 13.3 13.3 0 0 0-4.148 1.663L72.092 99.74a12.46 12.46 0 0 0-5.806 8.312 13.33 13.33 0 0 0 2.488 9.974 14.1 14.1 0 0 0 6.56 5.24 14.07 14.07 0 0 0 8.37.578 13.3 13.3 0 0 0 3.318-1.662l23.225-14.13a43.1 43.1 0 0 1 11.612-5.818c19.078-4.987 39.814 2.493 50.597 19.117a44.125 44.125 0 0 1 7.465 33.246 40.8 40.8 0 0 1-6.231 15.648 40.7 40.7 0 0 1-12.017 11.781l-59.721 37.403a43.1 43.1 0 0 1-11.612 5.818"/></g><defs><clipPath id="a"><path fill="#ebebeb" d="M.759 0h214v256h-214z"/></clipPath></defs></svg>
