<svg width="256" height="136" viewBox="0 0 256 136" fill="none"
  xmlns="http://www.w3.org/2000/svg">
  <g clip-path="url(#clip0_16_52)">
    <path d="M127.991 133.143C197.379 133.143 253.629 103.977 253.629 68C253.629 32.0226 197.379 2.85718 127.991 2.85718C58.6035 2.85718 2.35376 32.0226 2.35376 68C2.35376 103.977 58.6035 133.143 127.991 133.143Z" fill="#6C7EB7" stroke="url(#paint0_radial_16_52)" stroke-width="5.46578"/>
    <path fill-rule="evenodd" clip-rule="evenodd" d="M37.6329 106.572L51.4014 37.1431H83.241C97.0095 38.0002 103.894 44.8574 103.894 56.8574C103.894 77.4288 87.5437 89.4288 72.9147 88.5716H57.4251L53.983 106.572H37.6329ZM60.8672 75.7145L65.1699 50.0002H76.3568C82.3805 50.0002 86.6831 52.5716 86.6831 57.7145C85.8226 72.2859 78.9384 74.8573 71.1936 75.7145H60.8672Z" fill="black" stroke="#EBEBEB" stroke-width="1.98756" stroke-linejoin="round"/>
    <path d="M98.7332 88.5716L112.502 19.1431H128.852L125.41 37.1431H140.899C154.668 38.0002 159.831 44.8574 158.11 53.4288L152.086 88.5716H134.875L140.899 56.8573C141.76 52.5716 141.76 50.0002 135.736 50.0002H122.828L115.083 88.5716H98.7332Z" fill="black" stroke="#EBEBEB" stroke-width="1.98756" stroke-linejoin="round"/>
    <path fill-rule="evenodd" clip-rule="evenodd" d="M152.944 106.572L166.712 37.1431H198.552C212.32 38.0002 219.205 44.8574 219.205 56.8574C219.205 77.4288 202.855 89.4288 188.226 88.5716H172.736L169.294 106.572H152.944ZM176.178 75.7145L180.481 50.0002H191.668C197.691 50.0002 201.994 52.5716 201.994 57.7145C201.134 72.2859 194.249 74.8573 186.505 75.7145H176.178Z" fill="black" stroke="#EBEBEB" stroke-width="1.98756" stroke-linejoin="round"/>
  </g>
  <defs>
    <radialGradient id="paint0_radial_16_52" cx="0" cy="0" r="1" gradientUnits="userSpaceOnUse" gradientTransform="translate(66.4979 8.87791) scale(189.587 169.969)">
      <stop stop-color="#DDDCE9"/>
      <stop offset="0.37" stop-color="#5664A3"/>
      <stop offset="1"/>
    </radialGradient>
    <clipPath id="clip0_16_52">
      <rect width="256" height="135" fill="#EBEBEB" transform="translate(0 0.5)"/>
    </clipPath>
  </defs>
</svg>
