<svg width="257" height="256" viewBox="0 0 257 256" fill="none" xmlns="http://www.w3.org/2000/svg">
<g clip-path="url(#clip0_16_36)">
<path d="M128.759 256C199.451 256 256.759 198.692 256.759 128C256.759 57.3076 199.451 0 128.759 0C58.0663 0 0.758789 57.3076 0.758789 128C0.758789 198.692 58.0663 256 128.759 256Z" fill="#663399"/>
<path d="M57.4446 199.314C38.2446 180.114 28.1875 154.514 28.1875 129.828L127.845 228.571C102.245 227.657 76.6446 218.514 57.4446 199.314ZM150.702 225.828L30.9304 106.057C40.9875 61.257 81.2161 27.4285 128.759 27.4285C162.587 27.4285 191.845 43.8856 210.13 68.5713L196.416 80.457C180.873 59.4285 156.187 45.7142 128.759 45.7142C93.1018 45.7142 62.9304 68.5713 51.0446 100.571L156.187 205.714C182.702 196.571 202.816 173.714 209.216 146.286H165.33V128H229.33C229.33 175.543 195.502 215.771 150.702 225.828Z" fill="white"/>
</g>
<defs>
<clipPath id="clip0_16_36">
<rect width="256" height="256" fill="white" transform="translate(0.758789)"/>
</clipPath>
</defs>
</svg>
