<svg xmlns="http://www.w3.org/2000/svg" width="257" height="124" fill="none" viewBox="0 0 257 124">
  <g fill-rule="evenodd" clip-path="url(#a)" clip-rule="evenodd">
    <path fill="#29abe2" d="M.129 61.68v60.838h256V.836l-37.869 43.88L180.391 88.6l-.371-.008-.371-.006-37.44-43.794L104.769.997l-.477-.04-.477-.039-.163 59.922-.163 59.922-51.068-59.581L1.354 1.6.74 1.22.13.843z"/>
    <path fill="#19a2d6" d="M.129 61.72v60.8h103.68v-1.392L52.285 61.024.76.92H.13zm229.76-30.582-25.92 30.13-12.07 13.998-12.07 13.998.87 1.189.87 1.189 11.84 13.694 11.84 13.693 1.372 1.746 1.372 1.745h48.136V.92l-.16.043-.16.043z"/>
    <path fill="#0f9dce" d="M.129 61.72v60.8h103.68v-1.392L52.285 61.024.76.92H.13zm217.92-16.869-37.76 43.846-.174.473-.174.474 3.527 3.798 3.527 3.798 10.727 12.602 10.727 12.602 23.84.038 23.84.038V.92l-.16.043-.16.043z"/>
    <path fill="#0e97c6" d="M.129 61.72v60.8h103.68v-1.392L52.285 61.024.76.92H.13zm238.695-38.69-.82.988-.891-.342-.891-.341.367.593.367.593-.863.52-.863.519-3.15 3.564-3.151 3.564-2.515 2.836-2.516 2.836-10.301 11.84-10.302 11.84-11.708 13.581-11.709 13.581 2.084 2.593 2.084 2.592.496-.173.498-.174L202.769 71 220.5 47.96 230.352 35l9.853-12.96h-.559z"/>
    <path fill="#0e91be" d="M.129 61.72v60.8h103.68v-1.392L52.285 61.024.76.92H.13zm215.299-13.98-.457.738.739-.457.739-.457V47h-.565zm-7.292 12.052-7.352 6.295-.443-.274-.444-.274-.463.75-.463.749.899-.522.899-.52-2.88 2.911-2.88 2.912-2.56 3.064-2.56 3.065-1.6 1.731-1.6 1.73-2.88 3.339-2.88 3.339-.416.736-.416.737 2.176 2.507 2.176 2.506.212-.266.213-.267L196.375 79l11.5-15.04 3.952-5.28 3.954-5.28-.146.049-.146.049zm-4.868 2.027-.457.739.739-.457.739-.457v-.564h-.565z"/>
    <path fill="#22b573" d="M.129 61.72v60.8h103.68v-1.392L52.285 61.024.76.92H.13z"/>
    <path fill="#20af70" d="m3.649 4.76.395.64h.64l-.395-.64-.396-.64h-.64zm3.84 4.48.395.64h.64l-.395-.64-.396-.64h-.64zm3.84 4.48.395.64h.64l-.395-.64-.396-.64h-.64zm3.84 4.48.395.64h.64l-.395-.64-.396-.64h-.64zm3.84 4.48.395.64h.64l-.395-.64-.396-.64h-.64zm3.84 4.48.395.64h.64l-.395-.64-.396-.64h-.64zm3.84 4.48.395.64h.64l-.395-.64-.396-.64h-.64zm3.84 4.48.395.64h.64l-.395-.64-.396-.64h-.64zm3.84 4.48.395.64h.64l-.395-.64-.396-.64h-.64zm3.84 4.48.395.64h.64l-.395-.64-.396-.64h-.64zm3.84 4.48.395.64h.64l-.395-.64-.396-.64h-.64zm3.84 4.48.395.64h.64l-.395-.64-.396-.64h-.64zm3.84 4.48.395.64h.64l-.395-.64-.396-.64h-.64zm3.84 4.48.395.64h.64L54.21 63l-.396-.64h-.64zm3.84 4.48.395.64h.64l-.395-.64-.396-.64h-.64zm3.84 4.48.395.64h.64l-.395-.64-.396-.64h-.64zm3.84 4.48.395.64h.64l-.395-.64-.396-.64h-.64zm3.84 4.48.395.64h.64l-.395-.64-.396-.64h-.64zm3.84 4.48.395.64h.64l-.395-.64-.396-.64h-.64zm3.84 4.48.395.64h.64l-.395-.64-.396-.64h-.64zm3.84 4.48.395.64h.64l-.395-.64-.396-.64h-.64zm3.84 4.48.395.64h.64l-.395-.64-.396-.64h-.64zm3.84 4.479.395.64h.64l-.395-.64-.396-.64h-.64zm3.84 4.48.395.64h.64l-.395-.64-.396-.64h-.64zm3.84 4.48.395.64h.64l-.395-.64-.396-.64h-.64zm3.84 4.48.395.64h.64l-.395-.64-.396-.64h-.64z"/>
  </g>
  <defs>
    <clipPath id="a">
      <path fill="#ebebeb" d="M0 .5h257v123H0z"/>
    </clipPath>
  </defs>
</svg>
