<svg width="169" height="256" viewBox="0 0 169 256" fill="none"
  xmlns="http://www.w3.org/2000/svg">
  <g clip-path="url(#clip0_81_1354)">
    <path d="M167.154 153.048L167.154 153.048C162.406 129.315 147.922 109.096 128.03 96.7525C128.028 96.7525 128.023 96.7486 128.022 96.7479L128 96.7347C127.994 96.7301 127.987 96.7259 127.98 96.7221L127.968 96.7142C126.123 95.5722 124.236 94.5001 122.311 93.5003L69.0138 66.7848L66.1489 65.3478C65.9816 65.267 65.815 65.1845 65.6492 65.1006C65.6379 65.0945 65.6258 65.0888 65.6142 65.0834C65.6029 65.0768 65.591 65.0721 65.5805 65.0662C65.5795 65.0655 65.5784 65.065 65.5772 65.0649L65.5461 65.049L65.5415 65.0464L65.5124 65.0318C65.5101 65.0302 65.5077 65.0289 65.5051 65.0279L65.4787 65.0146C65.4754 65.013 65.4721 65.0114 65.4688 65.01C65.4621 65.006 65.4555 65.0021 65.4476 64.9988C65.4431 64.9965 65.4387 64.9941 65.4344 64.9915L65.4192 64.9842C65.4109 64.98 65.4027 64.9756 65.3947 64.971C59.8637 62.128 55.1436 57.9294 51.6754 52.7674C47.7589 46.9372 45.4751 39.9199 45.4751 32.3685C45.4744 18.3365 53.3676 6.14941 64.9558 0L47.7536 8.7895C19.4404 22.9193 0 52.1665 0 85.9562L1.27708 100.781V100.778C1.29889 100.784 1.32137 100.793 1.34318 100.8L1.27774 100.781C5.91673 127.547 22.8955 150.081 46.1513 162.3L46.1539 162.301L46.1837 162.317L46.1903 162.32C46.1995 162.325 46.2101 162.332 46.2187 162.336C46.2323 162.345 46.2464 162.352 46.261 162.359L46.3496 162.405L46.3608 162.411L46.3833 162.423C46.3886 162.426 46.3939 162.428 46.3992 162.432C46.4058 162.435 46.4131 162.439 46.4203 162.443L46.4369 162.452L46.4567 162.462L46.4785 162.474L46.493 162.482C46.5059 162.488 46.5184 162.494 46.5307 162.502L51.875 165.181C51.8684 165.165 51.8638 165.15 51.8572 165.134L51.877 165.181H51.875L51.8757 165.182L58.2346 168.368L102.692 190.653C114.926 196.584 123.368 209.119 123.368 223.628V223.712L123.367 223.748V223.88L123.366 223.913V223.965L123.366 223.984V224.049L123.365 224.066V224.112L123.364 224.132V224.145L123.364 224.22V224.226C123.213 233.676 119.481 242.257 113.466 248.671C110.698 251.625 107.461 254.101 103.885 255.999L114.932 250.357L121.089 247.214C149.4 233.081 168.843 203.832 168.843 170.04L167.155 153.047" fill="#7CBA3D"/>
    <path d="M0 85.9555C0 52.1672 19.4404 22.9193 47.7536 8.78883L64.9565 0C53.3689 6.15007 45.4744 18.3365 45.4744 32.3678C45.4744 39.9199 47.7589 46.9372 51.6754 52.7674C45.8466 67.3559 42.4542 82.3246 41.312 97.2205C33.7333 101.051 25.359 103.044 16.8671 103.037C16.0256 103.037 15.1815 103.017 14.3328 102.977C9.90785 102.778 5.52367 102.041 1.27708 100.781L0 85.9555ZM123.366 223.986V223.966V223.986V223.986Z" fill="#C5D83E"/>
    <path d="M51.8764 165.183L46.5307 162.502C46.5184 162.495 46.5059 162.488 46.4931 162.482L46.4779 162.475L46.456 162.463L46.4362 162.453L46.4203 162.444C46.4135 162.44 46.4064 162.437 46.3992 162.433L46.3833 162.424L46.3609 162.412L46.3496 162.407C46.3199 162.39 46.2915 162.377 46.261 162.36C46.2494 162.355 46.2382 162.349 46.2273 162.342L46.2187 162.337L46.191 162.322L46.1837 162.318L46.154 162.302L46.1513 162.301C22.8949 150.081 5.91609 127.546 1.2771 100.779C5.52367 102.038 9.90784 102.776 14.3328 102.975C15.1822 103.015 16.0256 103.034 16.8671 103.034C25.359 103.041 33.7334 101.049 41.312 97.2178C39.5161 120.649 43.2819 143.897 51.8764 165.183Z" fill="url(#paint0_linear_81_1354)"/>
    <path d="M69.0144 66.7844L66.1489 65.348C65.9816 65.2674 65.815 65.1852 65.6492 65.1014C65.6379 65.0952 65.6258 65.0892 65.6142 65.0836C65.6029 65.077 65.591 65.0723 65.5805 65.0664C65.5795 65.0657 65.5784 65.0652 65.5772 65.0651L65.5461 65.0492L65.5415 65.0466L65.5124 65.032C65.5103 65.0304 65.5081 65.0291 65.5058 65.0281L65.4793 65.0148C65.4761 65.0131 65.4728 65.0116 65.4694 65.0102L65.4483 64.999C65.4433 64.9967 65.4385 64.9943 65.4337 64.9917L65.4192 64.9844C65.4109 64.9805 65.4028 64.9763 65.3947 64.9719C59.8636 62.1287 55.1435 57.9298 51.6754 52.7676C45.8466 67.3561 42.4542 82.3248 41.312 97.2207C51.2214 92.2096 59.3691 84.2986 64.6702 74.5414L69.0144 66.7844ZM167.154 153.048C146.873 166.464 122.617 174.24 96.7056 174.24C94.7325 174.24 92.7494 174.195 90.7591 174.103C79.716 173.601 68.7841 171.674 58.2353 168.369L102.692 190.653C114.926 196.585 123.367 209.119 123.367 223.629V223.881C123.366 223.891 123.366 223.903 123.366 223.914V224.049L123.364 224.067V224.146L123.363 224.221V224.227C123.213 233.677 119.481 242.258 113.466 248.671C110.698 251.626 107.461 254.102 103.885 256L114.932 250.358L121.089 247.215C149.4 233.081 168.843 203.833 168.843 170.041L167.154 153.048Z" fill="url(#paint1_linear_81_1354)"/>
    <path d="M96.7065 174.239C94.7327 174.239 92.7497 174.195 90.7593 174.103C79.7163 173.601 68.7844 171.673 58.2355 168.368L51.8766 165.182C43.2821 143.896 39.5156 120.65 41.3116 97.2209C51.2207 92.2096 59.3682 84.2987 64.6692 74.5415L69.0133 66.7852L122.311 93.5007C124.236 94.5002 126.123 95.572 127.968 96.7139L127.98 96.7218L128 96.735C128.007 96.7383 128.015 96.7429 128.022 96.7482L128.03 96.7522C147.922 109.096 162.407 129.314 167.154 153.049C146.873 166.463 122.619 174.239 96.7058 174.239" fill="url(#paint2_linear_81_1354)"/>
  </g>
  <defs>
    <linearGradient id="paint0_linear_81_1354" x1="10.1991" y1="112.364" x2="-4.78955" y2="147.443" gradientUnits="userSpaceOnUse">
      <stop stop-color="#AACE36"/>
      <stop offset="1" stop-color="#2FA042"/>
    </linearGradient>
    <linearGradient id="paint1_linear_81_1354" x1="41.3127" y1="114.372" x2="170.594" y2="126.634" gradientUnits="userSpaceOnUse">
      <stop stop-color="#79A933"/>
      <stop offset="0.13" stop-color="#70A333"/>
      <stop offset="0.34" stop-color="#559332"/>
      <stop offset="0.58" stop-color="#277B2F"/>
      <stop offset="0.86" stop-color="#005F27"/>
      <stop offset="1" stop-color="#005020"/>
    </linearGradient>
    <linearGradient id="paint2_linear_81_1354" x1="58.2966" y1="66.7846" x2="107.425" y2="180.664" gradientUnits="userSpaceOnUse">
      <stop stop-color="#79AB35"/>
      <stop offset="0.53" stop-color="#7CBA3D"/>
      <stop offset="1" stop-color="#00AA4B"/>
    </linearGradient>
    <clipPath id="clip0_81_1354">
      <rect width="169" height="256" fill="#EBEBEB"/>
    </clipPath>
  </defs>
</svg>
