<svg xmlns="http://www.w3.org/2000/svg" width="256" height="256" fill="none" viewBox="0 0 256 256">
  <g clip-path="url(#a)">
    <path fill="#1c79ca" d="M0 0h256v256H0z"/>
    <path fill="#ebebeb" d="M91.09 186V69.637h39.319q13.694 0 22.386 4.943 8.75 4.886 12.955 13.239 4.205 8.352 4.205 18.636t-4.205 18.693q-4.147 8.41-12.841 13.409-8.693 4.944-22.273 4.943h-28.181V131h27.727q9.375 0 15.057-3.238t8.238-8.75q2.614-5.568 2.614-12.557t-2.614-12.5q-2.556-5.511-8.295-8.636-5.74-3.182-15.227-3.182h-24.773V186zm100.842 40h-3.523q-.312-1.52-1.094-2.67a7.3 7.3 0 0 0-1.875-1.932 8 8 0 0 0-2.429-1.193 9.7 9.7 0 0 0-2.784-.398q-2.642 0-4.787 1.336-2.13 1.335-3.395 3.934-1.25 2.6-1.25 6.378t1.25 6.378q1.265 2.599 3.395 3.935 2.145 1.335 4.787 1.335 1.449 0 2.784-.398a8.1 8.1 0 0 0 2.429-1.179 7.5 7.5 0 0 0 1.875-1.946q.782-1.165 1.094-2.67h3.523q-.397 2.23-1.449 3.991a10.9 10.9 0 0 1-2.614 2.997 11.4 11.4 0 0 1-3.508 1.861q-1.932.639-4.134.639-3.721 0-6.619-1.818t-4.56-5.17-1.662-7.955 1.662-7.955 4.56-5.17 6.619-1.818q2.202 0 4.134.639a11.3 11.3 0 0 1 3.508 1.875 10.7 10.7 0 0 1 2.614 2.983q1.051 1.747 1.449 3.991m21.601-1.818q-.255-2.159-2.073-3.352t-4.461-1.193q-1.932 0-3.38.625-1.435.625-2.245 1.719a4.12 4.12 0 0 0-.795 2.485q0 1.166.554 2.003a4.9 4.9 0 0 0 1.449 1.378q.88.54 1.846.895.966.34 1.776.554l2.954.795a26 26 0 0 1 2.529.824q1.406.526 2.684 1.435a7.3 7.3 0 0 1 2.131 2.301q.838 1.406.838 3.452 0 2.358-1.236 4.261-1.221 1.904-3.579 3.026-2.344 1.122-5.696 1.122-3.125 0-5.412-1.009-2.272-1.009-3.58-2.812-1.292-1.805-1.463-4.191h3.637q.141 1.648 1.108 2.728.98 1.065 2.471 1.591 1.506.511 3.239.511 2.017 0 3.622-.653 1.605-.668 2.543-1.847.937-1.193.937-2.784 0-1.449-.81-2.358t-2.13-1.477a22 22 0 0 0-2.855-.995l-3.58-1.022q-3.41-.981-5.398-2.799t-1.988-4.758q0-2.443 1.321-4.262 1.335-1.832 3.579-2.84 2.259-1.023 5.043-1.023 2.813 0 5 1.008 2.188.994 3.466 2.728 1.293 1.733 1.363 3.934zm25.508 0q-.255-2.159-2.074-3.352t-4.46-1.193q-1.932 0-3.381.625-1.434.625-2.244 1.719a4.12 4.12 0 0 0-.795 2.485q0 1.166.554 2.003a4.9 4.9 0 0 0 1.448 1.378q.881.54 1.847.895.966.34 1.776.554l2.954.795a26 26 0 0 1 2.529.824q1.406.526 2.684 1.435a7.3 7.3 0 0 1 2.131 2.301q.838 1.406.838 3.452 0 2.358-1.236 4.261-1.221 1.904-3.579 3.026-2.345 1.122-5.696 1.122-3.126 0-5.412-1.009-2.273-1.009-3.58-2.812-1.292-1.805-1.463-4.191h3.636q.142 1.648 1.108 2.728.981 1.065 2.472 1.591 1.505.511 3.239.511 2.016 0 3.622-.653 1.605-.668 2.542-1.847.938-1.193.938-2.784 0-1.449-.81-2.358t-2.13-1.477a22 22 0 0 0-2.856-.995l-3.579-1.022q-3.41-.981-5.398-2.799t-1.988-4.758q0-2.443 1.321-4.262 1.335-1.832 3.579-2.84 2.259-1.023 5.043-1.023 2.812 0 5 1.008 2.187.994 3.466 2.728 1.292 1.733 1.363 3.934z"/>
  </g>
  <defs>
    <clipPath id="a">
      <path fill="#ebebeb" d="M0 0h256v256H0z"/>
    </clipPath>
  </defs>
</svg>
