<svg width="257" height="182" viewBox="0 0 257 182" fill="none"
  xmlns="http://www.w3.org/2000/svg">
  <g clip-path="url(#clip0_74_1048)">
    <mask id="mask0_74_1048" style="mask-type:luminance" maskUnits="userSpaceOnUse" x="49" y="0" width="208" height="182">
      <path d="M49.2129 0H256.759V181.049H49.2129V0Z" fill="#EBEBEB"/>
    </mask>
    <g mask="url(#mask0_74_1048)">
      <path d="M152.986 0.00366211L256.759 181.049H49.2129L152.986 0.00366211Z" fill="#C30F2E"/>
    </g>
    <mask id="mask1_74_1048" style="mask-type:luminance" maskUnits="userSpaceOnUse" x="0" y="26" width="178" height="156">
      <path d="M0.758545 26.9707H177.391V181.524H0.758545V26.9707Z" fill="#EBEBEB"/>
    </mask>
    <g mask="url(#mask1_74_1048)">
      <path d="M89.0731 26.9707L177.388 181.524H0.758545L89.0731 26.9707Z" fill="#DD0330"/>
    </g>
    <path d="M239.162 135.297H18.9255V132.878H239.162V135.297Z" fill="#EBEBEB"/>
    <mask id="mask2_74_1048" style="mask-type:luminance" maskUnits="userSpaceOnUse" x="28" y="88" width="199" height="84">
      <path d="M28.2043 88.2373H226.07V171.035H28.2043V88.2373Z" fill="#EBEBEB"/>
    </mask>
    <g mask="url(#mask2_74_1048)">
      <path d="M205.139 170.67C204.278 170.67 203.468 170.313 202.791 169.636C198.746 165.573 198.569 149.051 198.764 124.306C198.875 110.784 199.022 92.2636 196.865 90.8025C194.76 91.6748 194.55 106.975 194.414 117.104C194.252 128.889 194.086 141.082 192.172 147.291C191.602 149.132 190.866 150.817 189.386 150.681C187.299 150.497 186.626 147.203 185.069 134.203C184.421 128.804 183.751 123.224 182.967 121.064C182.864 120.792 182.776 120.574 182.699 120.405C181.863 122.293 180.899 127.483 180.229 131.086C179.301 136.062 178.426 140.762 177.329 142.812C176.482 144.387 175.139 146.441 173.262 146.044C170.704 145.506 169.938 140.35 169.71 137.324C169.71 111.87 166.379 108.907 165.713 108.572L165.606 108.653L165.444 108.616C163.067 109.654 162.938 117.91 162.816 125.893C162.721 131.748 162.618 138.384 161.764 144.594C160.656 152.643 159.316 154.196 157.649 154.1C153.81 153.839 153.7 140.619 153.7 139.113C153.7 138.642 153.711 138.086 153.725 137.472C153.799 134.395 153.931 128.671 152.04 126.868C151.789 126.629 151.436 126.353 151.16 126.43C149.813 126.769 148.414 131.145 147.951 132.584C147.803 133.04 147.686 133.416 147.586 133.673C147.509 133.887 147.41 134.189 147.292 134.553C146.272 137.648 145.113 140.736 143.133 141.498C142.4 141.782 141.635 141.719 140.917 141.314C139.964 140.773 139.187 139.669 138.462 137.832C138.065 136.817 137.726 135.786 137.38 134.752C136.961 133.489 136.53 132.183 135.996 130.942C135.577 129.978 134.531 129.544 133.199 129.779C130.431 130.273 129.967 133.07 129.577 137.28C129.507 138.013 129.441 138.73 129.349 139.408C129.338 139.606 128.849 145.786 128.536 147.751C127.671 153.14 126.534 155.263 124.645 155.109C119.986 154.711 117.847 134.273 117.962 125.639C118.05 119.047 116.857 116.64 116.143 116.257C116.07 116.224 115.956 116.161 115.683 116.353C114.84 116.923 114.09 118.701 114.322 120.567C116.887 140.887 114.995 164.159 110.361 169.4C108.9 171.049 106.913 171.027 105.529 169.636C101.48 165.573 101.311 149.051 101.502 124.306C101.613 110.784 101.756 92.2636 99.603 90.8024C97.4978 91.6747 97.2917 106.975 97.1518 117.104C96.9899 128.889 96.8242 141.082 94.9067 147.291C94.3362 149.132 93.6001 150.817 92.1242 150.681C90.0336 150.497 89.3638 147.203 87.8032 134.203C87.1555 128.804 86.4856 123.224 85.7016 121.064C85.6023 120.791 85.5139 120.574 85.433 120.405C84.6012 122.293 83.6369 127.483 82.967 131.086C82.0395 136.062 81.1635 140.762 80.063 142.812C79.2165 144.387 77.8731 146.441 75.9997 146.044C73.4418 145.506 72.6762 140.35 72.448 137.324C72.4442 111.87 69.1171 108.907 68.4509 108.572L68.3442 108.653L68.1786 108.616C65.8046 109.654 65.6758 117.91 65.5507 125.893C65.4586 131.748 65.3556 138.384 64.5017 144.593C63.3939 152.643 62.0652 154.211 60.3906 154.1C56.5444 153.839 56.434 140.618 56.434 139.113C56.434 138.642 56.4487 138.086 56.4634 137.472C56.537 134.395 56.6695 128.671 54.7777 126.868C54.5274 126.629 54.1741 126.353 53.898 126.43C52.551 126.769 51.1487 131.145 50.6923 132.584C50.5451 133.037 50.4199 133.416 50.3279 133.673C50.247 133.883 50.1476 134.185 50.0298 134.549C49.0103 137.645 47.8509 140.736 45.8745 141.498C45.1384 141.782 44.3691 141.719 43.6551 141.314C42.7018 140.773 41.9216 139.669 41.2002 137.832C40.8027 136.816 40.4604 135.786 40.1181 134.752C39.6985 133.489 39.2642 132.183 38.7305 130.942C38.3146 129.978 37.2657 129.544 35.9333 129.779C32.746 130.346 31.9915 134.299 31.3842 139.017L31.2774 139.857L28.8667 139.536L28.9808 138.712C29.5071 134.575 30.3095 128.322 35.5101 127.402C37.9576 126.967 40.096 127.983 40.9573 129.985C41.5351 131.325 41.9878 132.68 42.4221 133.993C42.746 134.984 43.0773 135.974 43.46 136.953C44.1336 138.66 44.6562 139.102 44.8513 139.209C46.0695 138.83 47.3136 135.042 47.7258 133.795C47.8546 133.394 47.965 133.062 48.0534 132.827C48.138 132.595 48.2484 132.256 48.3809 131.848C49.4777 128.417 50.8542 124.704 53.2981 124.085C54.0453 123.894 55.201 123.92 56.456 125.12C59.1207 127.663 58.9809 133.6 58.8889 137.53C58.8742 138.119 58.8595 138.657 58.8595 139.113C58.8595 145.385 59.7906 149.768 60.501 151.274C60.869 150.504 61.4984 148.642 62.0983 144.266C62.9301 138.2 63.0369 131.642 63.1252 125.856C63.2871 115.617 63.4012 108.193 67.1075 106.448C67.6596 106.11 68.5761 105.926 69.5441 106.415C73.1289 108.219 74.8698 118.3 74.8698 137.232C75.0943 140.158 75.882 143.239 76.5297 143.681C76.5335 143.614 77.0597 143.29 77.9246 141.671C78.8485 139.952 79.7686 135.006 80.5783 130.644C82.3708 121.031 83.1841 117.656 85.3041 117.479C86.9199 117.321 87.667 119.374 87.9799 120.239C88.8632 122.661 89.5184 128.127 90.2103 133.916C90.7513 138.406 91.5206 144.818 92.3045 147.413C92.3891 147.184 92.4849 146.912 92.5879 146.577C94.4024 140.699 94.568 128.69 94.7263 117.07C94.9472 100.931 95.2305 90.9311 98.175 88.8442C98.8301 88.3805 99.6288 88.2664 100.409 88.5277C103.858 89.6724 104.123 99.7828 103.928 124.328C103.788 142.127 103.615 164.281 107.251 167.932C107.568 168.252 107.792 168.252 107.873 168.252C108.043 168.252 108.285 168.09 108.543 167.799C112.224 163.636 114.553 141.778 111.914 120.872C111.587 118.27 112.592 115.536 114.307 114.358C115.253 113.706 116.342 113.622 117.284 114.126C119.43 115.267 120.472 119.15 120.387 125.672C120.236 137.059 122.971 150.387 124.756 152.514C125.039 152.043 125.599 150.751 126.136 147.369C126.438 145.499 126.935 139.216 126.942 139.154C127.03 138.443 127.097 137.755 127.159 137.056C127.527 133.132 127.98 128.252 132.772 127.402C135.216 126.967 137.354 127.979 138.219 129.985C138.797 131.325 139.246 132.679 139.68 133.993C140.012 134.983 140.343 135.974 140.726 136.953C141.396 138.66 141.922 139.102 142.113 139.209C143.332 138.83 144.579 135.042 144.988 133.798C145.12 133.397 145.231 133.062 145.315 132.827C145.404 132.599 145.51 132.256 145.639 131.848C146.74 128.417 148.116 124.704 150.564 124.085C151.304 123.894 152.463 123.92 153.718 125.12C156.383 127.663 156.243 133.6 156.155 137.53C156.136 138.119 156.121 138.657 156.121 139.113C156.121 145.385 157.053 149.768 157.763 151.274C158.127 150.504 158.757 148.642 159.364 144.266C160.196 138.2 160.295 131.642 160.391 125.856C160.549 115.616 160.663 108.193 164.369 106.448C164.922 106.11 165.838 105.926 166.81 106.415C170.391 108.219 172.135 118.3 172.135 137.232C172.36 140.158 173.148 143.239 173.792 143.681C173.799 143.614 174.318 143.29 175.19 141.671C176.114 139.952 177.031 135.006 177.844 130.644C179.629 121.031 180.446 117.655 182.566 117.479C184.185 117.321 184.933 119.374 185.245 120.239C186.125 122.661 186.78 128.127 187.48 133.916C188.013 138.406 188.782 144.818 189.57 147.413C189.651 147.184 189.747 146.912 189.85 146.577C191.664 140.699 191.826 128.69 191.988 117.07C192.205 100.931 192.492 90.9311 195.437 88.8442C196.096 88.3804 196.891 88.2664 197.671 88.5277C201.123 89.6723 201.388 99.7828 201.19 124.328C201.05 142.127 200.877 164.281 204.509 167.932C204.833 168.252 205.054 168.252 205.139 168.252C205.304 168.252 205.547 168.09 205.801 167.799C209.489 163.636 211.815 141.778 209.176 120.872C208.834 118.149 209.607 115.403 211.017 114.347C211.727 113.809 212.592 113.699 213.387 114.034C215.441 114.91 216.832 118.664 217.642 125.517C217.98 128.388 218.282 131.491 218.573 134.553C219.213 141.237 220.082 150.243 221.256 152.223C221.617 151.763 222.353 150.519 223.446 147.184L225.753 147.939C224.057 153.095 222.728 155.039 220.998 154.84C218.308 154.542 217.531 149.106 216.158 134.785C215.868 131.737 215.569 128.653 215.231 125.797C214.2 117.056 212.448 116.264 212.43 116.257C212.088 116.43 211.293 118.248 211.587 120.567C214.145 140.887 212.261 164.163 207.623 169.4C206.876 170.243 206.037 170.67 205.139 170.67Z" fill="#EBEBEB"/>
    </g>
  </g>
  <defs>
    <clipPath id="clip0_74_1048">
      <rect width="256" height="182" fill="#EBEBEB" transform="translate(0.758545)"/>
    </clipPath>
  </defs>
</svg>
