<svg xmlns="http://www.w3.org/2000/svg" width="214" height="256" fill="none" viewBox="0 0 214 256"><g clip-path="url(#a)"><path fill="#ff3e00" d="M199.899 34.078a77.96 77.96 0 0 0-47.814-31.99 77.83 77.83 0 0 0-56.698 9.548L35.668 49.04a68.1 68.1 0 0 0-20.16 19.611 68.2 68.2 0 0 0-10.53 26.103 72.44 72.44 0 0 0 7.465 46.546 68.2 68.2 0 0 0-10.783 25.766 73.3 73.3 0 0 0 .747 28.675 73.2 73.2 0 0 0 11.695 26.182C38.155 256 84.605 265.974 118.612 244.364l59.721-38.234a68.1 68.1 0 0 0 20.16-19.611 68.2 68.2 0 0 0 10.53-26.103 72.44 72.44 0 0 0-7.465-45.715 68.2 68.2 0 0 0 10.783-25.766 73.3 73.3 0 0 0-.747-28.675 73.2 73.2 0 0 0-11.695-26.182"/><path fill="#ebebeb" d="M89.581 225.247c-19.077 4.987-39.814-2.494-50.597-19.117a44.1 44.1 0 0 1-7.07-15.871 44.1 44.1 0 0 1-.395-17.376c.176-1.677.453-3.343.83-4.987l1.659-3.325 3.318 1.663A76.3 76.3 0 0 0 60.55 177.87l1.66.831v2.494a13.32 13.32 0 0 0 2.488 8.312 14.08 14.08 0 0 0 14.93 5.818 13.3 13.3 0 0 0 4.147-1.663l58.892-37.402a12.47 12.47 0 0 0 5.806-8.312 13.32 13.32 0 0 0-2.488-9.974 14.1 14.1 0 0 0-6.561-5.24 14.07 14.07 0 0 0-8.37-.578 13.3 13.3 0 0 0-3.318 1.662l-23.224 14.13a43 43 0 0 1-11.613 5.818c-19.077 4.987-39.814-3.324-50.597-19.117a44.1 44.1 0 0 1-7.07-15.87 44.1 44.1 0 0 1-.395-17.376 40.8 40.8 0 0 1 6.231-15.647 40.7 40.7 0 0 1 12.017-11.782l59.721-38.234a43.1 43.1 0 0 1 11.613-4.987c19.077-4.987 39.814 2.494 50.597 18.286a44.144 44.144 0 0 1 7.465 33.247 42.4 42.4 0 0 1-.83 5.818l-1.659 3.325-3.318-2.494A76.2 76.2 0 0 0 153.45 77.3h-1.659v-2.494a13.32 13.32 0 0 0-2.489-9.143 14.1 14.1 0 0 0-6.56-5.24 14.08 14.08 0 0 0-8.37-.578 13.3 13.3 0 0 0-4.147 1.663L71.333 99.74a12.46 12.46 0 0 0-5.806 8.312 13.33 13.33 0 0 0 2.489 9.974 14.1 14.1 0 0 0 6.56 5.24 14.07 14.07 0 0 0 8.37.578 13.3 13.3 0 0 0 3.318-1.662l23.224-14.13a43.1 43.1 0 0 1 11.613-5.818c19.077-4.987 39.814 2.493 50.597 19.117a44.144 44.144 0 0 1 7.465 33.246 40.8 40.8 0 0 1-6.231 15.648 40.7 40.7 0 0 1-12.017 11.781l-59.721 37.403a43.1 43.1 0 0 1-11.613 5.818"/></g><defs><clipPath id="a"><path fill="#ebebeb" d="M0 0h214v256H0z"/></clipPath></defs></svg>
