<svg xmlns="http://www.w3.org/2000/svg" width="257" height="108" fill="none" viewBox="0 0 257 108"><path fill="#ae007f" fill-rule="evenodd" d="M236.798 25.11c.527-4.511.881-10.141 2.645-14.015 1.339 4.015 1.788 9.212 4.527 12.235 3.568-.834 7.513-.629 11.174.158-2.197 2.898-6.969 4.858-9.827 6.724 3.441 2.899 5.11 6.277 7.001 10.293-4.993-.095-9.543-4.435-13.385-6.773-3.316 3.749-5.646 7.393-10.506 8.74 1.75-3.755 5.852-6.985 6.37-10.873-3.891-1.45-8.708-4.552-11.236-7.7 4.015.242 9.228.754 13.237 1.227" clip-rule="evenodd"/><path fill="#97bd00" fill-rule="evenodd" d="M240.939 53.685c.379-3.275.631-7.377 1.915-10.19.975 2.923 1.298 6.685 3.289 8.882 2.569-.605 5.457-.464 8.104.11-1.593 2.087-5.048 3.536-7.11 4.883 2.504 2.094 3.723 4.552 5.07 7.472-3.622-.07-6.936-3.229-9.724-4.906-2.393 2.71-4.094 5.362-7.63 6.34 1.276-2.718 4.26-5.08 4.614-7.89-2.818-1.056-6.315-3.306-8.149-5.592 2.89.182 6.692.553 9.599.891" clip-rule="evenodd"/><path fill="#f07f00" fill-rule="evenodd" d="M228.53 76.244c.262-2.276.441-5.094 1.322-7.04.67 2.016.899 4.615 2.278 6.127 1.778-.418 3.763-.315 5.604.08-1.109 1.447-3.495 2.44-4.919 3.376 1.724 1.458 2.558 3.143 3.496 5.159-2.506-.049-4.782-2.222-6.725-3.403-1.663 1.883-2.836 3.71-5.277 4.394.883-1.882 2.937-3.497 3.189-5.442-1.951-.732-4.37-2.282-5.63-3.872 2.016.117 4.638.377 6.638.612" clip-rule="evenodd"/><path fill="#005cab" fill-rule="evenodd" d="M43.019 74.794c-2.065 0-25.433 22.772-27.709 25.459-1.905 2.116-2.937 6.007-6.204 6.448-3.474.464-4.268-.891-5.939-3.505-1.582-2.48-3.495-6.898-.731-8.692 2.668-1.718 35.779-32.087 36.811-33.322 1.284-1.317-.127-4.568-.74-9.466-.788-6.3-1.189-12.07-.701-18.3.488-6.401 2.016-14.291 3.677-20.495 1.016-3.796.425-11.285 5.708-11.51 1.07.258 9.198 5.88 7.009 13.29-3.165 10.622-6.205 22.566-5.267 33.945.171 2.197 1.062 4.102 2.455 3.094C66.38 41.008 89.852 29.377 95.853 27.307c2.889-.921 5.85-1.647 8.849-2.016 2.151.242 3.78 2.268 5.483 3.701 8.495 7.283-8.008 33.119-9.411 40.984 1.316 0 2.749-2 5.269-4.275a501 501 0 0 0 9.952-9.277c4.708-3.543 8.827-6.795 14.803-7.559 14.379-1.826 10.079 18.882 6.834 26.286 1.85 0 6.378-5.215 10.008-8.656 1.82-1.723 3.842-3.55 5.684-5.25 2.191-2.017 3.205-3.065 4.858-2.252 1.113.314 5.914 3.227 6.183 7.675.227 3.609-1.252 7.142-1.968 10.6-.607 2.896-.457 12.322 3.447 12.338 1.544-1.12 3.56-1.59 5.394-1.905 2.961-.496 2.82.472 5.261 1.377 3.826 1.417.369 6.851-1.646 8.859-2.702 2.693-6.568 4.473-10.442 4.408-4.259-.07-7.605-2.693-9.526-6.378-1.049-2.015-2.401-9.48-2.923-11.691-.518-2.175-.069-4.781-2.377-2.576-6.511 6.283-13.227 12.119-19.851 18.307-7.297 6.813-14.267-2.544-12.943-10.188 1.298-7.472 7.746-16.6 8.905-24.007-3.08 0-8.268 5.376-10.229 7.597-3.189 3.606-6.725 7.6-10.321 11.385-3.624 3.804-6.727 7.307-10.363 11.095-2.623 2.733-5.624 6.621-10.049 6.873-2.18-.344-5.652-3.975-6.242-8.589-.498-3.858.48-8.095 1.95-11.639 4.27-10.244 15.946-31.88 18.679-42.645-5.606.544-29.361 11.528-45.086 24.63-4.552 3.756-.347 10.624 1.552 15.197 2.038 4.89 8.053 13.732 9.849 15.235 4.708 3.915.945 7.372-3.725 7.128-1.984-1.403-4.385-2.923-6.243-4.781-2.024-2.022-3.772-4.33-5.356-6.692-3.227-4.778-6.305-10.301-7.142-16.102m169.011-61.025c-1.331-4.953-7.521 2.606-10.623 6.608-8.583 11.046-16.409 33.534-17.67 37.676-3.842 12.701-5.33 28.355 2.983 39.535 4.836 6.521 13.356 7.015 21.709 4.616 4.308-1.238 8.622-4.332 10.095-7.694 1.22-2.802 1.851-8.015-4.299-4.04-2.379 1.536-6.741 3.23-14.56 3.104-2.621-.048-6.928-3.811-8.085-7.702-2.032-6.34-1.165-14.803-1.165-14.803 1.77-10.93 6.841-22.772 11.29-32.708 1.725-3.836 6.984-13.395 8.954-16.442 0 .008 2.52-3.967 1.391-8.188z" clip-rule="evenodd"/></svg>