<svg xmlns="http://www.w3.org/2000/svg" width="250" height="256" fill="none" viewBox="0 0 250 256"><g clip-path="url(#a)"><path fill="url(#b)" d="M145.204 251.46c-6.514 8.203-19.721 3.709-19.878-6.765l-2.295-153.197H226.04c18.658 0 29.063 21.55 17.462 36.162z"/><path fill="url(#c)" fill-opacity=".2" d="M145.204 251.46c-6.514 8.203-19.721 3.709-19.878-6.765l-2.295-153.197H226.04c18.658 0 29.063 21.55 17.462 36.162z"/><path fill="#3ecf8e" d="M103.311 4.954c6.513-8.203 19.721-3.708 19.878 6.766l1.006 153.197H22.475c-18.659 0-29.065-21.55-17.462-36.163z"/></g><defs><linearGradient id="b" x1="2738" x2="8644.67" y1="3488.25" y2="5965.5" gradientUnits="userSpaceOnUse"><stop stop-color="#249361"/><stop offset="1" stop-color="#3ecf8e"/></linearGradient><linearGradient id="c" x1="372.618" x2="4164.42" y1="-2069.09" y2="5068.77" gradientUnits="userSpaceOnUse"><stop/><stop offset="1" stop-opacity="0"/></linearGradient><clipPath id="a"><path fill="#ebebeb" d="M.224 0h249v256h-249z"/></clipPath></defs></svg>
