<svg xmlns="http://www.w3.org/2000/svg" width="179" height="256" fill="none" viewBox="0 0 179 256">
  <g fill-rule="evenodd" clip-path="url(#a)" clip-rule="evenodd">
    <path fill="#ebebeb" d="M126.85 7.705c2.078 2.58 3.138 6.06 5.257 13.022l46.294 152.081a192.6 192.6 0 0 0-55.347-18.738L92.911 52.207a3.923 3.923 0 0 0-7.528.012L55.605 154.018A192.7 192.7 0 0 0 .007 172.785L46.53 20.692c2.126-6.95 3.189-10.424 5.267-13a17.1 17.1 0 0 1 6.93-5.127c3.07-1.234 6.704-1.234 13.971-1.234h33.229c7.278 0 10.916 0 13.989 1.236a17.1 17.1 0 0 1 6.934 5.138"/>
    <path fill="#ff5d01" d="M132.39 180.046c-7.632 6.526-22.865 10.977-40.412 10.977-21.535 0-39.586-6.705-44.376-15.722-1.712 5.168-2.096 11.082-2.096 14.86 0 0-1.128 18.551 11.775 31.455 0-6.7 5.432-12.129 12.132-12.129 11.484 0 11.471 10.017 11.46 18.147v.724c0 12.339 7.54 22.914 18.265 27.374a24.9 24.9 0 0 1-2.5-10.904c0-11.767 6.908-16.15 14.936-21.241 6.389-4.052 13.487-8.552 18.378-17.583a33.2 33.2 0 0 0 4.002-15.843c0-3.526-.548-6.925-1.564-10.115"/>
    <path fill="url(#b)" d="M132.39 180.046c-7.632 6.526-22.865 10.977-40.412 10.977-21.535 0-39.586-6.705-44.376-15.722-1.712 5.168-2.096 11.082-2.096 14.86 0 0-1.128 18.551 11.775 31.455 0-6.7 5.432-12.129 12.132-12.129 11.484 0 11.471 10.017 11.46 18.147v.724c0 12.339 7.54 22.914 18.265 27.374a24.9 24.9 0 0 1-2.5-10.904c0-11.767 6.908-16.15 14.936-21.241 6.389-4.052 13.487-8.552 18.378-17.583a33.2 33.2 0 0 0 4.002-15.843c0-3.526-.548-6.925-1.564-10.115"/>
  </g>
  <defs>
    <linearGradient id="b" x1="166.753" x2="121.567" y1="126.96" y2="221.554" gradientUnits="userSpaceOnUse">
      <stop stop-color="#ff1639"/>
      <stop offset="1" stop-color="#ff1639" stop-opacity="0"/>
    </linearGradient>
    <clipPath id="a">
      <path fill="#ebebeb" d="M0 0h178.759v256H0z"/>
    </clipPath>
  </defs>
</svg>
