<svg width="242" height="256" viewBox="0 0 242 256" fill="none" xmlns="http://www.w3.org/2000/svg">
<g clip-path="url(#clip0_15_4)">
<path d="M242 42.678L233.262 179.802L149.712 0L242 42.678ZM184.131 219.986L121.001 255.982L57.8692 219.986L70.7092 188.89H171.291L184.131 219.986ZM121.001 68.2498L154.081 148.617H87.9191L121.001 68.2498ZM8.64905 179.802L0 42.678L92.2877 0L8.64905 179.802Z" fill="url(#paint0_linear_15_4)"/>
<path d="M242 42.678L233.262 179.802L149.712 0L242 42.678ZM184.131 219.986L121.001 255.982L57.8692 219.986L70.7092 188.89H171.291L184.131 219.986ZM121.001 68.2498L154.081 148.617H87.9191L121.001 68.2498ZM8.64905 179.802L0 42.678L92.2877 0L8.64905 179.802Z" fill="url(#paint1_linear_15_4)"/>
</g>
<defs>
<linearGradient id="paint0_linear_15_4" x1="6067.3" y1="23276.3" x2="23641.1" y2="14919" gradientUnits="userSpaceOnUse">
<stop stop-color="#E40035"/>
<stop offset="0.24" stop-color="#F60A48"/>
<stop offset="0.352" stop-color="#F20755"/>
<stop offset="0.494" stop-color="#DC087D"/>
<stop offset="0.745" stop-color="#9717E7"/>
<stop offset="1" stop-color="#6C00F5"/>
</linearGradient>
<linearGradient id="paint1_linear_15_4" x1="5290.81" y1="3086.51" x2="17301.9" y2="16797.4" gradientUnits="userSpaceOnUse">
<stop stop-color="#FF31D9"/>
<stop offset="1" stop-color="#FF5BE1" stop-opacity="0"/>
</linearGradient>
<clipPath id="clip0_15_4">
<rect width="242" height="256" fill="white"/>
</clipPath>
</defs>
</svg>
