<svg xmlns="http://www.w3.org/2000/svg" width="256" height="244" fill="none" viewBox="0 0 256 244"><g clip-path="url(#a)"><path fill="#764abc" d="M177.381 170.199c9.447-.977 16.614-9.119 16.288-18.889-.325-9.77-8.47-17.586-18.243-17.586h-.651c-10.099.326-17.918 8.793-17.592 18.889.326 4.885 2.281 9.119 5.212 12.05-11.076 21.819-28.016 37.777-53.426 51.13-17.266 9.118-35.183 12.375-53.1 10.095-14.66-1.954-26.062-8.467-33.23-19.214-10.424-15.958-11.401-33.218-2.605-50.479 6.19-12.375 15.962-21.494 22.152-26.053-1.303-4.234-3.258-11.399-4.235-16.609-47.237 34.195-42.35 80.44-28.016 102.26 10.75 16.283 32.577 26.379 56.684 26.379 6.515 0 13.03-.652 19.546-2.28 41.699-8.142 73.299-32.893 91.216-69.693m57.336-40.383c-24.759-28.985-61.245-44.942-102.944-44.942h-5.212c-2.932-5.862-9.122-9.77-15.963-9.77h-.652c-10.099.325-17.917 8.793-17.591 18.888.325 9.77 8.47 17.586 18.243 17.586h.651c7.167-.325 13.357-4.885 15.963-11.072h5.864c24.759 0 48.214 7.164 69.389 21.168 16.289 10.747 28.017 24.751 34.532 41.686 5.538 13.678 5.212 27.03-.652 38.429-9.121 17.26-24.432 26.705-44.63 26.705-13.031 0-25.41-3.908-31.926-6.839-3.583 3.256-10.099 8.467-14.659 11.724 14.008 6.513 28.342 10.095 42.024 10.095 31.274 0 54.404-17.26 63.2-34.52 9.447-18.889 8.795-51.456-15.637-79.138M69.225 175.735c.326 9.77 8.47 17.586 18.243 17.586h.652c10.099-.325 17.917-8.793 17.591-18.888-.325-9.77-8.47-17.587-18.243-17.587h-.651c-.652 0-1.63 0-2.28.326-13.357-22.145-18.895-46.245-16.94-72.298 1.302-19.54 7.818-36.475 19.22-50.479 9.447-12.05 27.69-17.912 40.069-18.238 34.532-.65 49.192 42.338 50.169 59.598 4.235.977 11.402 3.257 16.289 4.885C189.434 27.882 156.857.525 125.583.525c-29.319 0-56.358 21.169-67.108 52.433-14.986 41.686-5.213 81.743 13.03 113.333-1.628 2.28-2.606 5.862-2.28 9.444"/></g><defs><clipPath id="a"><path fill="#ebebeb" d="M0 .525h256v242.95H0z"/></clipPath></defs></svg>
