<svg width="257" height="250" viewBox="0 0 257 250" fill="none"
  xmlns="http://www.w3.org/2000/svg">
  <g clip-path="url(#clip0_22_2315)">
    <path d="M86.5366 201.076C86.5366 202.109 85.3495 202.934 83.8527 202.934C82.1495 203.089 80.9624 202.263 80.9624 201.076C80.9624 200.044 82.1495 199.218 83.6462 199.218C85.1946 199.063 86.5366 199.889 86.5366 201.076ZM70.485 198.754C70.1237 199.786 71.1559 200.973 72.7043 201.283C74.0463 201.799 75.5946 201.283 75.9043 200.251C76.214 199.218 75.2333 198.031 73.685 197.567C72.343 197.205 70.8462 197.722 70.485 198.754ZM93.2979 197.876C91.8011 198.238 90.7688 199.218 90.9237 200.405C91.0785 201.438 92.4204 202.109 93.9688 201.747C95.4656 201.386 96.4979 200.405 96.343 199.373C96.1882 198.392 94.7946 197.722 93.2979 197.876ZM127.259 0.0957031C55.6721 0.0957031 0.910767 54.4441 0.910767 126.031C0.910767 183.27 36.9366 232.251 88.3946 249.489C95.0011 250.676 97.3237 246.599 97.3237 243.244C97.3237 240.044 97.1688 222.392 97.1688 211.554C97.1688 211.554 61.0398 219.296 53.4527 196.173C53.4527 196.173 47.5688 181.154 39.1043 177.283C39.1043 177.283 27.285 169.18 39.9301 169.334C39.9301 169.334 52.7817 170.367 59.8527 182.651C71.1559 202.573 90.0979 196.844 97.4785 193.438C98.6656 185.18 102.02 179.451 105.737 176.044C76.885 172.844 47.7753 168.663 47.7753 119.012C47.7753 104.818 51.6979 97.6957 59.9559 88.6118C58.614 85.257 54.2269 71.4247 61.2979 53.5667C72.085 50.2118 96.9108 67.5022 96.9108 67.5022C107.233 64.6118 118.33 63.1151 129.324 63.1151C140.317 63.1151 151.414 64.6118 161.737 67.5022C161.737 67.5022 186.562 50.1602 197.349 53.5667C204.42 71.4763 200.033 85.257 198.691 88.6118C206.949 97.7473 212.008 104.87 212.008 119.012C212.008 168.818 181.608 172.792 152.756 176.044C157.504 180.122 161.53 187.863 161.53 199.992C161.53 217.386 161.375 238.909 161.375 243.141C161.375 246.496 163.749 250.573 170.304 249.386C221.917 232.251 256.911 183.27 256.911 126.031C256.911 54.4441 198.846 0.0957031 127.259 0.0957031ZM51.0785 178.109C50.4075 178.625 50.5624 179.812 51.4398 180.792C52.2656 181.618 53.4527 181.98 54.1237 181.309C54.7946 180.792 54.6398 179.605 53.7624 178.625C52.9366 177.799 51.7495 177.438 51.0785 178.109ZM45.5043 173.928C45.143 174.599 45.6592 175.425 46.6914 175.941C47.5172 176.457 48.5495 176.302 48.9108 175.58C49.2721 174.909 48.7559 174.083 47.7237 173.567C46.6914 173.257 45.8656 173.412 45.5043 173.928ZM62.2269 192.302C61.4011 192.973 61.7108 194.522 62.8979 195.502C64.085 196.689 65.5817 196.844 66.2527 196.018C66.9237 195.347 66.614 193.799 65.5817 192.818C64.4463 191.631 62.8979 191.476 62.2269 192.302ZM56.343 184.715C55.5172 185.231 55.5172 186.573 56.343 187.76C57.1688 188.947 58.5624 189.463 59.2333 188.947C60.0592 188.276 60.0592 186.934 59.2333 185.747C58.5108 184.56 57.1688 184.044 56.343 184.715Z" fill="#EBEBEB"/>
  </g>
  <defs>
    <clipPath id="clip0_22_2315">
      <rect width="256" height="250" fill="#EBEBEB" transform="translate(0.910767 -0.000976562)"/>
    </clipPath>
  </defs>
</svg>
