<svg width="256" height="130" viewBox="0 0 256 130" fill="none" xmlns="http://www.w3.org/2000/svg">
<path d="M49.6522 108.513V124.357H47.7955L39.1617 111.917H39.0069V124.357H37.0883V108.513H38.945L47.6098 120.984H47.7645V108.513H49.6522ZM57.4178 124.604C56.345 124.604 55.4037 124.349 54.594 123.839C53.7894 123.328 53.1602 122.614 52.7063 121.696C52.2576 120.778 52.0333 119.705 52.0333 118.477C52.0333 117.239 52.2576 116.159 52.7063 115.236C53.1602 114.313 53.7894 113.596 54.594 113.085C55.4037 112.574 56.345 112.319 57.4178 112.319C58.4906 112.319 59.4293 112.574 60.2338 113.085C61.0436 113.596 61.6728 114.313 62.1215 115.236C62.5754 116.159 62.8023 117.239 62.8023 118.477C62.8023 119.705 62.5754 120.778 62.1215 121.696C61.6728 122.614 61.0436 123.328 60.2338 123.839C59.4293 124.349 58.4906 124.604 57.4178 124.604ZM57.4178 122.964C58.2327 122.964 58.9032 122.755 59.4292 122.338C59.9553 121.92 60.3447 121.371 60.5974 120.69C60.8502 120.009 60.9765 119.272 60.9765 118.477C60.9765 117.683 60.8502 116.943 60.5974 116.257C60.3447 115.571 59.9553 115.017 59.4292 114.594C58.9032 114.171 58.2327 113.959 57.4178 113.959C56.6029 113.959 55.9324 114.171 55.4063 114.594C54.8802 115.017 54.4908 115.571 54.2381 116.257C53.9854 116.943 53.859 117.683 53.859 118.477C53.859 119.272 53.9854 120.009 54.2381 120.69C54.4908 121.371 54.8802 121.92 55.4063 122.338C55.9324 122.755 56.6029 122.964 57.4178 122.964ZM69.4229 124.604C68.4326 124.604 67.5584 124.354 66.8003 123.854C66.0421 123.349 65.449 122.637 65.0209 121.719C64.5928 120.796 64.3788 119.705 64.3788 118.446C64.3788 117.198 64.5928 116.115 65.0209 115.197C65.449 114.279 66.0447 113.57 66.808 113.07C67.5713 112.569 68.4533 112.319 69.4538 112.319C70.2275 112.319 70.8387 112.448 71.2874 112.706C71.7412 112.959 72.0868 113.247 72.3241 113.572C72.5665 113.892 72.7547 114.155 72.8888 114.362H73.0435V108.513H74.8693V124.357H73.1054V122.531H72.8888C72.7547 122.748 72.5639 123.021 72.3163 123.351C72.0687 123.676 71.7155 123.968 71.2564 124.225C70.7974 124.478 70.1862 124.604 69.4229 124.604ZM69.6705 122.964C70.4028 122.964 71.0218 122.774 71.5272 122.392C72.0326 122.005 72.4169 121.471 72.6799 120.79C72.943 120.104 73.0745 119.313 73.0745 118.415C73.0745 117.528 72.9455 116.752 72.6877 116.087C72.4298 115.416 72.0481 114.895 71.5427 114.524C71.0372 114.147 70.4132 113.959 69.6705 113.959C68.8968 113.959 68.2521 114.158 67.7364 114.555C67.2258 114.947 66.8415 115.481 66.5836 116.156C66.3309 116.827 66.2046 117.58 66.2046 118.415C66.2046 119.261 66.3335 120.03 66.5914 120.721C66.8544 121.407 67.2412 121.953 67.7518 122.361C68.2676 122.763 68.9071 122.964 69.6705 122.964ZM82.7954 124.604C81.6504 124.604 80.6628 124.352 79.8324 123.846C79.0072 123.336 78.3702 122.624 77.9215 121.711C77.4779 120.793 77.2562 119.725 77.2562 118.508C77.2562 117.291 77.4779 116.218 77.9215 115.29C78.3702 114.356 78.9943 113.629 79.7937 113.108C80.5983 112.582 81.537 112.319 82.6098 112.319C83.2287 112.319 83.8398 112.422 84.4433 112.629C85.0467 112.835 85.596 113.17 86.0911 113.634C86.5863 114.093 86.9808 114.702 87.2748 115.46C87.5688 116.218 87.7158 117.152 87.7158 118.261V119.034H78.5559V117.456H85.859C85.859 116.786 85.7249 116.187 85.4567 115.661C85.1937 115.135 84.8172 114.72 84.3272 114.416C83.8424 114.111 83.2699 113.959 82.6098 113.959C81.8825 113.959 81.2533 114.14 80.7221 114.501C80.196 114.857 79.7911 115.321 79.5075 115.893C79.2238 116.466 79.082 117.08 79.082 117.735V118.787C79.082 119.684 79.2367 120.445 79.5461 121.069C79.8608 121.688 80.2966 122.16 80.8536 122.485C81.4106 122.804 82.0579 122.964 82.7954 122.964C83.2751 122.964 83.7083 122.897 84.0951 122.763C84.4871 122.624 84.8249 122.418 85.1086 122.144C85.3923 121.866 85.6115 121.52 85.7662 121.108L87.5301 121.603C87.3444 122.201 87.0324 122.727 86.594 123.181C86.1556 123.63 85.6141 123.98 84.9694 124.233C84.3247 124.481 83.6 124.604 82.7954 124.604ZM94.6943 110.215V108.513H106.577V110.215H101.595V124.357H99.6766V110.215H94.6943ZM111.896 124.604C110.751 124.604 109.764 124.352 108.933 123.846C108.108 123.336 107.471 122.624 107.022 121.711C106.579 120.793 106.357 119.725 106.357 118.508C106.357 117.291 106.579 116.218 107.022 115.29C107.471 114.356 108.095 113.629 108.895 113.108C109.699 112.582 110.638 112.319 111.711 112.319C112.33 112.319 112.941 112.422 113.544 112.629C114.148 112.835 114.697 113.17 115.192 113.634C115.687 114.093 116.082 114.702 116.376 115.46C116.67 116.218 116.817 117.152 116.817 118.261V119.034H107.657V117.456H114.96C114.96 116.786 114.826 116.187 114.558 115.661C114.295 115.135 113.918 114.72 113.428 114.416C112.943 114.111 112.371 113.959 111.711 113.959C110.983 113.959 110.354 114.14 109.823 114.501C109.297 114.857 108.892 115.321 108.608 115.893C108.325 116.466 108.183 117.08 108.183 117.735V118.787C108.183 119.684 108.338 120.445 108.647 121.069C108.962 121.688 109.397 122.16 109.955 122.485C110.512 122.804 111.159 122.964 111.896 122.964C112.376 122.964 112.809 122.897 113.196 122.763C113.588 122.624 113.926 122.418 114.21 122.144C114.493 121.866 114.712 121.52 114.867 121.108L116.631 121.603C116.445 122.201 116.133 122.727 115.695 123.181C115.257 123.63 114.715 123.98 114.07 124.233C113.426 124.481 112.701 124.604 111.896 124.604ZM118.941 124.357V112.474H120.704V114.331H120.859C121.107 113.696 121.506 113.204 122.058 112.853C122.61 112.497 123.273 112.319 124.047 112.319C124.83 112.319 125.483 112.497 126.004 112.853C126.53 113.204 126.94 113.696 127.234 114.331H127.358C127.662 113.717 128.118 113.229 128.727 112.868C129.336 112.502 130.065 112.319 130.916 112.319C131.979 112.319 132.848 112.652 133.524 113.317C134.199 113.977 134.537 115.006 134.537 116.404V124.357H132.711V116.404C132.711 115.527 132.471 114.9 131.992 114.524C131.512 114.147 130.947 113.959 130.298 113.959C129.462 113.959 128.815 114.212 128.356 114.717C127.897 115.218 127.667 115.852 127.667 116.621V124.357H125.81V116.218C125.81 115.543 125.591 114.998 125.153 114.586C124.714 114.168 124.15 113.959 123.459 113.959C122.984 113.959 122.541 114.086 122.128 114.338C121.72 114.591 121.39 114.942 121.138 115.39C120.89 115.834 120.766 116.347 120.766 116.93V124.357H118.941ZM137.222 128.813V112.474H138.986V114.362H139.202C139.336 114.155 139.522 113.892 139.759 113.572C140.002 113.247 140.347 112.959 140.796 112.706C141.25 112.448 141.864 112.319 142.637 112.319C143.638 112.319 144.52 112.569 145.283 113.07C146.046 113.57 146.642 114.279 147.07 115.197C147.498 116.115 147.712 117.198 147.712 118.446C147.712 119.705 147.498 120.796 147.07 121.719C146.642 122.637 146.049 123.349 145.291 123.854C144.533 124.354 143.658 124.604 142.668 124.604C141.905 124.604 141.294 124.478 140.835 124.225C140.376 123.968 140.022 123.676 139.775 123.351C139.527 123.021 139.336 122.748 139.202 122.531H139.048V128.813H137.222ZM139.017 118.415C139.017 119.313 139.148 120.104 139.411 120.79C139.674 121.471 140.058 122.005 140.564 122.392C141.069 122.774 141.688 122.964 142.421 122.964C143.184 122.964 143.821 122.763 144.332 122.361C144.847 121.953 145.234 121.407 145.492 120.721C145.755 120.03 145.887 119.261 145.887 118.415C145.887 117.58 145.758 116.827 145.5 116.156C145.247 115.481 144.863 114.947 144.347 114.555C143.836 114.158 143.194 113.959 142.421 113.959C141.678 113.959 141.054 114.147 140.548 114.524C140.043 114.895 139.661 115.416 139.403 116.087C139.146 116.752 139.017 117.528 139.017 118.415ZM151.67 108.513V124.357H149.844V108.513H151.67ZM157.857 124.635C157.104 124.635 156.421 124.494 155.807 124.21C155.193 123.921 154.706 123.506 154.345 122.964C153.984 122.418 153.803 121.758 153.803 120.984C153.803 120.303 153.937 119.751 154.205 119.328C154.474 118.9 154.832 118.565 155.281 118.323C155.729 118.08 156.225 117.9 156.766 117.781C157.313 117.657 157.862 117.559 158.414 117.487C159.136 117.394 159.721 117.325 160.17 117.278C160.624 117.227 160.954 117.141 161.16 117.023C161.372 116.904 161.478 116.698 161.478 116.404V116.342C161.478 115.579 161.269 114.986 160.851 114.563C160.438 114.14 159.812 113.928 158.971 113.928C158.099 113.928 157.416 114.119 156.921 114.501C156.426 114.882 156.078 115.29 155.876 115.723L154.144 115.104C154.453 114.382 154.866 113.82 155.381 113.418C155.902 113.01 156.47 112.727 157.083 112.567C157.702 112.402 158.311 112.319 158.909 112.319C159.291 112.319 159.729 112.366 160.224 112.458C160.725 112.546 161.207 112.729 161.671 113.008C162.14 113.286 162.53 113.706 162.839 114.269C163.149 114.831 163.303 115.584 163.303 116.528V124.357H161.478V122.748H161.385C161.261 123.006 161.055 123.282 160.766 123.576C160.477 123.87 160.093 124.12 159.613 124.326C159.134 124.532 158.548 124.635 157.857 124.635ZM158.136 122.995C158.858 122.995 159.466 122.853 159.961 122.57C160.462 122.286 160.838 121.92 161.091 121.471C161.349 121.023 161.478 120.551 161.478 120.055V118.384C161.4 118.477 161.23 118.562 160.967 118.64C160.709 118.712 160.41 118.776 160.07 118.833C159.734 118.885 159.407 118.931 159.087 118.972C158.772 119.009 158.517 119.039 158.321 119.065C157.847 119.127 157.403 119.228 156.991 119.367C156.583 119.501 156.253 119.705 156 119.978C155.753 120.246 155.629 120.613 155.629 121.077C155.629 121.711 155.864 122.191 156.333 122.516C156.807 122.835 157.408 122.995 158.136 122.995ZM171.15 112.474V114.021H164.992V112.474H171.15ZM166.787 109.627H168.613V120.953C168.613 121.469 168.687 121.855 168.837 122.113C168.992 122.366 169.188 122.536 169.425 122.624C169.667 122.707 169.923 122.748 170.191 122.748C170.392 122.748 170.557 122.737 170.686 122.717C170.815 122.691 170.918 122.67 170.995 122.655L171.367 124.295C171.243 124.341 171.07 124.388 170.849 124.434C170.627 124.486 170.346 124.512 170.005 124.512C169.489 124.512 168.984 124.401 168.489 124.179C167.999 123.957 167.591 123.619 167.267 123.166C166.947 122.712 166.787 122.139 166.787 121.448V109.627ZM178.098 124.604C176.953 124.604 175.965 124.352 175.135 123.846C174.309 123.336 173.672 122.624 173.224 121.711C172.78 120.793 172.558 119.725 172.558 118.508C172.558 117.291 172.78 116.218 173.224 115.29C173.672 114.356 174.297 113.629 175.096 113.108C175.901 112.582 176.839 112.319 177.912 112.319C178.531 112.319 179.142 112.422 179.746 112.629C180.349 112.835 180.898 113.17 181.393 113.634C181.888 114.093 182.283 114.702 182.577 115.46C182.871 116.218 183.018 117.152 183.018 118.261V119.034H173.858V117.456H181.161C181.161 116.786 181.027 116.187 180.759 115.661C180.496 115.135 180.119 114.72 179.629 114.416C179.145 114.111 178.572 113.959 177.912 113.959C177.185 113.959 176.556 114.14 176.024 114.501C175.498 114.857 175.093 115.321 174.81 115.893C174.526 116.466 174.384 117.08 174.384 117.735V118.787C174.384 119.684 174.539 120.445 174.848 121.069C175.163 121.688 175.599 122.16 176.156 122.485C176.713 122.804 177.36 122.964 178.098 122.964C178.577 122.964 179.011 122.897 179.397 122.763C179.789 122.624 180.127 122.418 180.411 122.144C180.695 121.866 180.914 121.52 181.068 121.108L182.832 121.603C182.647 122.201 182.335 122.727 181.896 123.181C181.458 123.63 180.916 123.98 180.272 124.233C179.627 124.481 178.902 124.604 178.098 124.604ZM190.863 124.357V108.513H200.425V110.215H192.782V115.568H199.93V117.27H192.782V122.655H200.549V124.357H190.863ZM204.808 117.208V124.357H202.982V112.474H204.746V114.331H204.901C205.179 113.727 205.602 113.242 206.17 112.876C206.737 112.505 207.469 112.319 208.367 112.319C209.171 112.319 209.875 112.484 210.479 112.814C211.082 113.139 211.552 113.634 211.887 114.3C212.222 114.96 212.39 115.795 212.39 116.806V124.357H210.564V116.93C210.564 115.996 210.322 115.269 209.837 114.748C209.352 114.222 208.687 113.959 207.841 113.959C207.258 113.959 206.737 114.086 206.278 114.338C205.824 114.591 205.466 114.96 205.203 115.445C204.94 115.929 204.808 116.517 204.808 117.208ZM219.869 129.061C218.987 129.061 218.229 128.947 217.595 128.72C216.96 128.498 216.432 128.205 216.009 127.838C215.591 127.477 215.258 127.09 215.011 126.678L216.465 125.657C216.63 125.873 216.839 126.121 217.092 126.399C217.344 126.683 217.69 126.928 218.128 127.134C218.572 127.346 219.152 127.451 219.869 127.451C220.828 127.451 221.62 127.219 222.244 126.755C222.868 126.291 223.18 125.564 223.18 124.574V122.16H223.025C222.891 122.376 222.701 122.645 222.453 122.964C222.211 123.279 221.86 123.56 221.401 123.808C220.947 124.05 220.333 124.171 219.56 124.171C218.6 124.171 217.739 123.944 216.976 123.49C216.217 123.037 215.617 122.376 215.173 121.51C214.735 120.643 214.515 119.591 214.515 118.353C214.515 117.136 214.729 116.076 215.158 115.174C215.586 114.266 216.181 113.565 216.945 113.07C217.708 112.569 218.59 112.319 219.591 112.319C220.364 112.319 220.978 112.448 221.432 112.706C221.891 112.959 222.242 113.247 222.484 113.572C222.732 113.892 222.922 114.155 223.056 114.362H223.242V112.474H225.006V124.697C225.006 125.719 224.774 126.549 224.31 127.188C223.851 127.833 223.232 128.305 222.453 128.604C221.679 128.909 220.818 129.061 219.869 129.061ZM219.807 122.531C220.54 122.531 221.158 122.364 221.664 122.028C222.169 121.693 222.554 121.211 222.817 120.582C223.08 119.952 223.211 119.199 223.211 118.323C223.211 117.466 223.082 116.711 222.824 116.056C222.566 115.401 222.185 114.888 221.679 114.516C221.174 114.145 220.55 113.959 219.807 113.959C219.034 113.959 218.389 114.155 217.873 114.547C217.362 114.939 216.978 115.465 216.72 116.125C216.468 116.786 216.341 117.518 216.341 118.323C216.341 119.148 216.47 119.878 216.728 120.512C216.991 121.141 217.378 121.636 217.889 121.997C218.404 122.353 219.044 122.531 219.807 122.531ZM227.695 124.357V112.474H229.52V124.357H227.695ZM228.623 110.493C228.267 110.493 227.96 110.372 227.702 110.13C227.45 109.887 227.323 109.596 227.323 109.255C227.323 108.915 227.45 108.624 227.702 108.381C227.96 108.139 228.267 108.018 228.623 108.018C228.979 108.018 229.283 108.139 229.536 108.381C229.794 108.624 229.923 108.915 229.923 109.255C229.923 109.596 229.794 109.887 229.536 110.13C229.283 110.372 228.979 110.493 228.623 110.493ZM234.037 117.208V124.357H232.211V112.474H233.975V114.331H234.129C234.408 113.727 234.831 113.242 235.398 112.876C235.966 112.505 236.698 112.319 237.595 112.319C238.4 112.319 239.104 112.484 239.707 112.814C240.311 113.139 240.78 113.634 241.115 114.3C241.451 114.96 241.618 115.795 241.618 116.806V124.357H239.793V116.93C239.793 115.996 239.55 115.269 239.065 114.748C238.58 114.222 237.915 113.959 237.069 113.959C236.486 113.959 235.966 114.086 235.507 114.338C235.053 114.591 234.694 114.96 234.431 115.445C234.168 115.929 234.037 116.517 234.037 117.208ZM249.283 124.604C248.138 124.604 247.151 124.352 246.32 123.846C245.495 123.336 244.858 122.624 244.409 121.711C243.966 120.793 243.744 119.725 243.744 118.508C243.744 117.291 243.966 116.218 244.409 115.29C244.858 114.356 245.482 113.629 246.282 113.108C247.086 112.582 248.025 112.319 249.098 112.319C249.717 112.319 250.328 112.422 250.931 112.629C251.535 112.835 252.084 113.17 252.579 113.634C253.074 114.093 253.469 114.702 253.763 115.46C254.057 116.218 254.204 117.152 254.204 118.261V119.034H245.044V117.456H252.347C252.347 116.786 252.213 116.187 251.945 115.661C251.682 115.135 251.305 114.72 250.815 114.416C250.33 114.111 249.758 113.959 249.098 113.959C248.37 113.959 247.741 114.14 247.21 114.501C246.684 114.857 246.279 115.321 245.995 115.893C245.712 116.466 245.57 117.08 245.57 117.735V118.787C245.57 119.684 245.725 120.445 246.034 121.069C246.349 121.688 246.784 122.16 247.341 122.485C247.898 122.804 248.546 122.964 249.283 122.964C249.763 122.964 250.196 122.897 250.583 122.763C250.975 122.624 251.313 122.418 251.596 122.144C251.88 121.866 252.099 121.52 252.254 121.108L254.018 121.603C253.832 122.201 253.52 122.727 253.082 123.181C252.643 123.63 252.102 123.98 251.457 124.233C250.813 124.481 250.088 124.604 249.283 124.604Z" fill="white"/>
<path d="M12.0983 22.4526C8.54 22.4526 5.61426 21.4246 3.32111 19.3687C1.10704 17.2337 0 14.6242 0 11.5404C0 8.3774 1.10704 5.76795 3.32111 3.71202C5.61426 1.57702 8.54 0.509521 12.0983 0.509521C15.5776 0.509521 18.4243 1.57702 20.6383 3.71202C22.9315 5.76795 24.0781 8.3774 24.0781 11.5404C24.0781 14.6242 22.9315 17.2337 20.6383 19.3687C18.4243 21.4246 15.5776 22.4526 12.0983 22.4526ZM22.2989 124.917H2.01639V29.332H22.2989V124.917Z" fill="white"/>
<path d="M29.2905 62.3059C29.2905 55.5056 30.5556 49.5355 33.086 44.3956C35.6955 39.2558 39.2143 35.3021 43.6424 32.5345C48.0706 29.7669 53.0127 28.3831 58.4688 28.3831C63.1342 28.3831 67.2065 29.332 70.6857 31.2298C74.2441 33.1276 76.9721 35.6184 78.8699 38.7023V29.332H99.1524V95.517H78.8699V86.1468C76.8931 89.2307 74.1255 91.7215 70.5671 93.6193C67.0879 95.517 63.0156 96.4659 58.3502 96.4659C52.9732 96.4659 48.0706 95.0821 43.6424 92.3145C39.2143 89.4679 35.6955 85.4746 33.086 80.3348C30.5556 75.1159 29.2905 69.1063 29.2905 62.3059ZM78.8699 62.4245C78.8699 57.3638 77.4466 53.3705 74.5999 50.4448C71.8323 47.5191 68.4321 46.0562 64.3994 46.0562C60.3666 46.0562 56.9269 47.5191 54.0802 50.4448C51.3126 53.2915 49.9288 57.2452 49.9288 62.3059C49.9288 67.3667 51.3126 71.3994 54.0802 74.4043C56.9269 77.33 60.3666 78.7929 64.3994 78.7929C68.4321 78.7929 71.8323 77.33 74.5999 74.4043C77.4466 71.4785 78.8699 67.4853 78.8699 62.4245Z" fill="white"/>
<path d="M106.235 62.3059C106.235 55.5056 107.5 49.5355 110.03 44.3956C112.64 39.2558 116.159 35.3021 120.587 32.5345C125.015 29.7669 129.957 28.3831 135.413 28.3831C139.762 28.3831 143.716 29.2925 147.274 31.1112C150.912 32.9299 153.758 35.3812 155.814 38.4651V7.74481H176.097V95.517H155.814V86.0282C153.916 89.1911 151.188 91.7215 147.63 93.6193C144.151 95.517 140.079 96.4659 135.413 96.4659C129.957 96.4659 125.015 95.0821 120.587 92.3145C116.159 89.4679 112.64 85.4746 110.03 80.3348C107.5 75.1159 106.235 69.1063 106.235 62.3059ZM155.814 62.4245C155.814 57.3638 154.391 53.3705 151.544 50.4448C148.777 47.5191 145.376 46.0562 141.344 46.0562C137.311 46.0562 133.871 47.5191 131.025 50.4448C128.257 53.2915 126.873 57.2452 126.873 62.3059C126.873 67.3667 128.257 71.3994 131.025 74.4043C133.871 77.33 137.311 78.7929 141.344 78.7929C145.376 78.7929 148.777 77.33 151.544 74.4043C154.391 71.4785 155.814 67.4853 155.814 62.4245Z" fill="white"/>
<path d="M249.601 61.357C249.601 63.2548 249.483 65.2317 249.246 67.2876H203.343C203.659 71.3994 204.964 74.5624 207.257 76.7765C209.629 78.9115 212.516 79.979 215.916 79.979C220.977 79.979 224.495 77.844 226.472 73.574H248.059C246.952 77.9231 244.936 81.8372 242.01 85.3165C239.164 88.7957 235.566 91.5238 231.217 93.5006C226.868 95.4775 222.005 96.4659 216.627 96.4659C210.143 96.4659 204.371 95.0821 199.31 92.3145C194.25 89.5469 190.296 85.5932 187.449 80.4534C184.602 75.3136 183.179 69.304 183.179 62.4245C183.179 55.5451 184.563 49.5355 187.331 44.3956C190.177 39.2558 194.131 35.3021 199.192 32.5345C204.252 29.7669 210.064 28.3831 216.627 28.3831C223.032 28.3831 228.726 29.7274 233.707 32.4159C238.689 35.1044 242.564 38.9395 245.331 43.9212C248.178 48.9029 249.601 54.7148 249.601 61.357ZM228.844 56.0195C228.844 52.5403 227.658 49.7727 225.286 47.7168C222.914 45.6608 219.949 44.6329 216.39 44.6329C212.99 44.6329 210.104 45.6213 207.732 47.5981C205.439 49.575 204.015 52.3821 203.462 56.0195H228.844Z" fill="white"/>
</svg>
