<svg xmlns="http://www.w3.org/2000/svg" width="246" height="256" fill="none" viewBox="0 0 246 256"><g fill="#43b02a" clip-path="url(#a)"><path d="M162.214 161.951a18.78 18.78 0 0 0-12.859 4.571 18.75 18.75 0 0 0-6.357 12.069.603.603 0 0 0 .603.753h37.301a.62.62 0 0 0 .456-.202.6.6 0 0 0 .147-.476 18.14 18.14 0 0 0-6.209-12.317 18.17 18.17 0 0 0-13.082-4.398"/><path d="m242.167 36.97-79.124 88.771a2.42 2.42 0 0 1-1.771.774 2.41 2.41 0 0 1-1.771-.774l-40.39-41.637a2.405 2.405 0 0 1 0-3.012L132.449 64a2.4 2.4 0 0 1 1.959-1.005A2.41 2.41 0 0 1 136.367 64l22.607 24.998a2.41 2.41 0 0 0 2.864.634c.319-.149.602-.365.828-.634L225.664 2.71a1.73 1.73 0 0 0-.487-2.435 1.73 1.73 0 0 0-.87-.276H2.46A1.885 1.885 0 0 0 .576 1.882v252.236A1.88 1.88 0 0 0 2.46 256h241.138a1.883 1.883 0 0 0 1.884-1.882V38.098a1.75 1.75 0 0 0-1.092-2.22 1.754 1.754 0 0 0-2.223 1.091M68.848 227.914a60.92 60.92 0 0 1-43.254-15.059 2.33 2.33 0 0 1 0-3.087l9.42-13.176a2.33 2.33 0 0 1 1.445-1.097 2.34 2.34 0 0 1 1.795.269 46.36 46.36 0 0 0 31.65 12.348c12.358 0 18.386-5.722 18.386-11.746 0-18.673-60.887-5.873-60.887-45.628 0-17.544 15.07-32.151 40.089-32.151a59.4 59.4 0 0 1 39.562 13.252 2.333 2.333 0 0 1 0 3.238l-9.27 12.875a2.34 2.34 0 0 1-3.39.376 45.84 45.84 0 0 0-28.937-9.938c-9.645 0-15.07 4.291-15.07 10.616 0 16.791 60.736 5.572 60.736 45.177 0 19.124-13.79 33.731-42.35 33.731zm132.777-36.668a2.03 2.03 0 0 1-.594 1.514 2.03 2.03 0 0 1-1.516.594h-55.763a.7.7 0 0 0-.459.251.678.678 0 0 0-.144.502 21.15 21.15 0 0 0 7.91 13.119 21.18 21.18 0 0 0 14.697 4.349 34.84 34.84 0 0 0 19.291-6.324 2.03 2.03 0 0 1 2.409-.151c.242.155.448.361.605.603l6.782 9.863a2.103 2.103 0 0 1-.452 2.786 50.3 50.3 0 0 1-30.896 9.638 39.8 39.8 0 0 1-16.261-2.498 39.78 39.78 0 0 1-22.948-22.559 39.7 39.7 0 0 1-2.764-16.205 39.962 39.962 0 0 1 11.548-29.249 40.01 40.01 0 0 1 29.144-11.861c23.436 0 39.336 17.543 39.336 43.219z"/></g><defs><clipPath id="a"><path fill="#ebebeb" d="M.576 0h245v256h-245z"/></clipPath></defs></svg>
