<svg width="256" height="206" viewBox="0 0 256 206" fill="none" xmlns="http://www.w3.org/2000/svg">
<g clip-path="url(#clip0_18_768)">
<path d="M28.2405 28.16C27.7575 14.29 38.564 1.5 53.171 1.5H202.848C217.454 1.5 228.261 14.29 227.778 28.16C227.314 41.4835 227.916 58.7425 232.26 72.815C236.617 86.931 243.965 95.8535 256 97V110C243.965 111.146 236.617 120.069 232.26 134.185C227.916 148.257 227.314 165.516 227.778 178.84C228.261 192.71 217.454 205.5 202.848 205.5H53.171C38.564 205.5 27.7575 192.71 28.241 178.84C28.7045 165.516 28.102 148.257 23.758 134.185C19.401 120.069 12.035 111.146 0 110V97C12.0345 95.8535 19.401 86.931 23.758 72.815C28.102 58.7425 28.7045 41.4835 28.2405 28.16Z" fill="url(#paint0_linear_18_768)"/>
<g filter="url(#filter0_d_18_768)">
<path d="M131.515 156.896C155.117 156.896 169.34 145.328 169.34 126.248C169.34 111.825 159.192 101.384 144.123 99.7308V99.1299C155.194 97.3271 163.882 87.036 163.882 75.543C163.882 59.1673 150.966 48.5 131.284 48.5H86.9999V156.896H131.515ZM104.222 62.2468H127.133C139.588 62.2468 146.66 67.8055 146.66 77.8713C146.66 88.6135 138.434 94.6227 123.519 94.6227H104.222V62.2468ZM104.222 143.15V107.468H126.978C143.277 107.468 151.734 113.478 151.734 125.196C151.734 136.915 143.508 143.15 127.978 143.15H104.222Z" fill="url(#paint1_linear_18_768)"/>
<path d="M131.515 156.896C155.117 156.896 169.34 145.328 169.34 126.248C169.34 111.825 159.192 101.384 144.123 99.7308V99.1299C155.194 97.3271 163.882 87.036 163.882 75.543C163.882 59.1673 150.966 48.5 131.284 48.5H86.9999V156.896H131.515ZM104.222 62.2468H127.133C139.588 62.2468 146.66 67.8055 146.66 77.8713C146.66 88.6135 138.434 94.6227 123.519 94.6227H104.222V62.2468ZM104.222 143.15V107.468H126.978C143.277 107.468 151.734 113.478 151.734 125.196C151.734 136.915 143.508 143.15 127.978 143.15H104.222Z" stroke="white" stroke-width="0.499033"/>
</g>
</g>
<defs>
<filter id="filter0_d_18_768" x="78.7659" y="42.2621" width="98.8085" height="124.864" filterUnits="userSpaceOnUse" color-interpolation-filters="sRGB">
<feFlood flood-opacity="0" result="BackgroundImageFix"/>
<feColorMatrix in="SourceAlpha" type="matrix" values="0 0 0 0 0 0 0 0 0 0 0 0 0 0 0 0 0 0 127 0" result="hardAlpha"/>
<feOffset dy="1.99613"/>
<feGaussianBlur stdDeviation="3.99226"/>
<feColorMatrix type="matrix" values="0 0 0 0 0 0 0 0 0 0 0 0 0 0 0 0 0 0 0.15 0"/>
<feBlend mode="normal" in2="BackgroundImageFix" result="effect1_dropShadow_18_768"/>
<feBlend mode="normal" in="SourceGraphic" in2="effect1_dropShadow_18_768" result="shape"/>
</filter>
<linearGradient id="paint0_linear_18_768" x1="38.0395" y1="6.89901" x2="261.74" y2="184.473" gradientUnits="userSpaceOnUse">
<stop stop-color="#9013FE"/>
<stop offset="1" stop-color="#6610F2"/>
</linearGradient>
<linearGradient id="paint1_linear_18_768" x1="94.7883" y1="55.6346" x2="144.767" y2="140.077" gradientUnits="userSpaceOnUse">
<stop stop-color="white"/>
<stop offset="1" stop-color="#F1E5FC"/>
</linearGradient>
<clipPath id="clip0_18_768">
<rect width="256" height="205" fill="white" transform="translate(0 0.5)"/>
</clipPath>
</defs>
</svg>
