<svg width="256" height="257" viewBox="0 0 256 257" fill="none"
  xmlns="http://www.w3.org/2000/svg">
  <rect y="0.0136719" width="256" height="256" rx="128" fill="#1B68B3"/>
  <path d="M122.085 79.2229C116.649 80.332 110.048 83.8266 105.389 88.0427C99.897 93.1457 100.784 92.7023 97.1233 91.648C92.9077 90.4278 85.2527 90.816 80.3714 92.5358C75.9336 94.0889 69.4435 98.3045 66.7256 101.466C62.0661 106.847 58.1275 117.941 58.8485 123.544C59.1813 126.206 59.126 126.262 55.8531 130.2C50.1951 136.968 47.8653 143.236 48.1981 150.947L48.3645 154.885L53.0798 156.161C55.6313 156.826 57.85 157.326 57.9058 157.214C58.0164 157.159 57.7947 156.272 57.4619 155.273C57.0737 154.219 56.9073 151.446 57.0737 148.672C57.2401 144.678 57.5729 143.347 58.9042 140.906C60.4019 138.133 63.7302 134.638 67.2249 132.197C68.7779 131.032 68.7779 130.977 68.1676 128.481C65.3943 117.387 71.3294 105.127 81.3142 101.356C87.6936 98.9702 93.2405 99.0259 99.7306 101.633C101.728 102.409 103.613 103.075 103.891 103.075C104.168 103.075 105.056 102.021 105.888 100.69C108.107 97.1954 113.931 91.8144 117.426 90.0397C125.691 85.8236 134.733 85.99 143.053 90.4278C147.213 92.6465 153.149 98.9148 154.924 102.909C156.033 105.35 156.477 105.849 157.254 105.571C161.192 103.852 162.856 103.574 165.685 103.852C169.957 104.351 174.062 106.403 177.112 109.565C180.773 113.337 181.938 116.166 182.216 122.213L182.438 127.26L185.988 129.091C190.204 131.254 194.863 136.08 197.026 140.407C198.08 142.57 198.635 144.956 199.023 148.894C199.356 151.889 199.689 154.497 199.855 154.663C200.244 154.996 207.288 155.606 207.621 155.273C208.01 154.829 207.843 149.56 207.288 145.621C205.902 136.247 203.294 131.976 193.31 122.989C191.535 121.381 191.091 120.548 190.37 117.054C189.149 111.174 187.097 107.18 183.214 103.297C178.166 98.2492 171.454 95.3649 164.687 95.3091C161.026 95.3091 160.36 94.9209 157.92 91.7038C154.147 86.6003 143.996 80.4431 137.451 79.2229C134.012 78.5572 125.413 78.6125 122.085 79.2229Z" fill="#EBEBEB"/>
  <path d="M146.992 129.757C147.824 130.367 148.489 131.254 148.489 131.754C148.489 133.362 141.778 139.631 138.005 141.517C134.566 143.181 134.067 143.292 127.965 143.292C121.863 143.292 121.364 143.181 117.981 141.517C114.042 139.575 110.825 136.746 108.717 133.418C107.441 131.365 107.386 131.199 108.329 130.201C109.271 129.202 109.216 129.147 106.775 129.147C104.002 129.147 101.395 130.589 99.5088 133.141C98.2329 134.86 98.5657 135.803 100.008 134.638C100.84 133.973 101.117 134.139 102.671 136.08C103.613 137.301 105.888 139.797 107.718 141.628C117.037 151.002 131.016 152.888 142.221 146.287C145.439 144.401 151.651 138.632 153.87 135.526C154.813 134.194 155.146 133.973 155.756 134.527C156.144 134.915 156.699 135.248 156.921 135.248C158.641 135.248 154.591 130.422 151.984 129.369C150.986 128.925 149.1 128.592 147.824 128.592L145.439 128.648L146.992 129.757Z" fill="#F77A18"/>
</svg>
