<svg xmlns="http://www.w3.org/2000/svg" width="188" height="256" fill="none" viewBox="0 0 188 256"><g clip-path="url(#a)"><path fill="#009ddc" d="m183.87 153.891-1.38-2.393-2.141-3.707-111.192 64.197 2.14 3.707c7.09 12.282 2.883 27.986-9.4 35.078l22.239-12.839 22.239-12.839 66.845-38.594c11.472-6.624 15.898-20.765 10.65-32.61"/><path fill="#963d97" d="m165.372 121.845 14.979 25.943-111.187 64.197-14.98-25.943z"/><path fill="#e03a3e" d="m150.393 95.9 14.979 25.943L54.184 186.04l-14.98-25.944z"/><path fill="#f5821f" d="M135.413 69.955 150.392 95.9 39.203 160.095l-14.979-25.944z"/><path fill="#61bb46" d="M16.5 69.425C4.218 76.516.01 92.221 7.1 104.503l2.14 3.707 44.164-25.498a26 26 0 0 0-1.828-3.887c-7.09-12.283-22.794-16.491-35.076-9.4"/><path fill="#fdb827" d="M53.404 82.711 9.24 108.209l14.98 25.944L135.41 69.957l-4.279-7.413-88.954 51.358c11.018-6.363 15.532-19.655 11.226-31.191"/><path fill="#ebebeb" d="M162.77 14.627c-7.092-12.282-22.797-16.49-35.079-9.399l-22.238 12.839L16.5 69.425c12.282-7.091 27.987-2.883 35.077 9.4a26 26 0 0 1 1.827 3.886c4.306 11.536-.207 24.828-11.226 31.191l88.954-51.358.13-.075 22.108-12.764c12.282-7.091 16.49-22.796 9.4-35.078M71.297 215.695l-12.839-22.239-22.238 12.839c-12.282 7.092-16.49 22.796-9.4 35.078 7.091 12.283 22.796 16.49 35.078 9.4 12.282-7.091 16.49-22.795 9.4-35.078"/><path fill="#231f20" d="m185.5 153.168-2.719-4.722.005-.003-14.979-25.943-14.98-25.945-1.181-2.05-.601-1.04-14.98-25.944-2.496-4.324 20.693-11.948c6.352-3.668 10.898-9.59 12.796-16.675 1.899-7.086.924-14.486-2.744-20.839C159.422 5.263 150.3 0 140.507 0a27.46 27.46 0 0 0-13.708 3.684l-22.238 12.84v-.002L15.609 67.88l-.003.001C9.255 71.548 4.711 77.47 2.813 84.555c-1.9 7.086-.925 14.486 2.743 20.839l1.248 2.162 16.763 29.034 13.196 22.856 14.98 25.944 4.278 7.413-20.693 11.948c-13.114 7.571-17.623 24.399-10.052 37.514C30.167 250.737 39.29 256 49.084 256h.001c4.793 0 9.533-1.273 13.707-3.683l.007-.004 111.313-64.269c12.185-7.034 17.081-22.027 11.389-34.876m-7.587-6.029-6.436 3.715L69.81 209.552l-10.7-18.532-2.496-4.324 101.668-58.698 6.435-3.715zM128.583 6.773a23.9 23.9 0 0 1 11.924-3.206c8.522 0 16.461 4.58 20.718 11.952 3.192 5.527 4.039 11.966 2.387 18.132a23.75 23.75 0 0 1-11.133 14.51l-99.426 57.402a27.32 27.32 0 0 0 2.512-22.04l.037-.022-.521-1.398-.007-.016-.002-.006-.735-1.969-.07.042a28 28 0 0 0-1.146-2.222C48.23 69.46 39.107 64.197 29.314 64.197h-.196zM8.643 103.612a23.75 23.75 0 0 1-2.386-18.133 23.74 23.74 0 0 1 11.134-14.51 23.9 23.9 0 0 1 11.924-3.206c1.864 0 3.7.22 5.476.64 6.342 1.498 11.916 5.553 15.24 11.313.191.33.37.666.546 1.006l.154.311a20 20 0 0 1 .43.913L32.91 92.483 9.893 105.774zm3.033 5.25 15.906-9.184 24.807-14.321q.001.007.005.016c.037.134.068.268.102.403.052.202.106.405.152.607.035.15.063.298.094.448q.062.284.115.567c.03.154.052.308.078.462q.046.277.087.553.032.236.059.471c.021.183.044.364.06.546q.023.237.04.474a24 24 0 0 1 .068 1.556 30 30 0 0 1-.01 1.011 23 23 0 0 1-.055 1.008 21 21 0 0 1-.097 1.003q-.027.231-.057.461-.037.269-.082.535-.035.227-.075.454-.05.269-.105.538-.044.221-.093.441-.062.273-.131.545c-.036.141-.068.283-.107.424-.05.189-.107.376-.163.563q-.056.198-.115.394-.102.317-.213.63c-.036.105-.068.21-.106.314q-.167.466-.355.924-.054.128-.11.255c-.094.221-.187.441-.288.658-.055.122-.116.242-.173.363q-.127.268-.261.535-.102.194-.206.386-.131.249-.267.495-.112.196-.23.391-.138.236-.28.47-.125.196-.251.39-.147.227-.297.45-.134.195-.27.385a23 23 0 0 1-1.914 2.359 24 24 0 0 1-.37.39 21 21 0 0 1-1.078 1.051q-.205.185-.415.366-.18.157-.36.311-.219.181-.442.357-.182.147-.368.291-.234.178-.476.351-.182.135-.365.265-.266.184-.537.361-.167.113-.337.224-.389.245-.789.479-.056.034-.113.069l1.783 3.088.002-.001.006-.003 54.525-31.48L130.48 64.98l2.496 4.324-4.386 2.533-103.717 59.881zm14.98 25.944 103.716-59.88 4.386-2.533 13.196 22.856-108.102 62.413zm28.174 48.802-13.196-22.857 108.104-62.413 13.196 22.856-6.436 3.715zm6.177 65.62a23.9 23.9 0 0 1-11.924 3.206c-8.523 0-16.461-4.58-20.718-11.952-6.588-11.412-2.664-26.054 8.746-32.642l20.694-11.948 3.9 6.756 8.047 13.939c6.589 11.41 2.664 26.053-8.745 32.641m111.321-64.272-99.61 57.51q.164-.282.32-.568.054-.093.106-.186.27-.496.518-1.004.076-.153.149-.308.204-.427.394-.861.049-.109.096-.217a27 27 0 0 0 .84-2.24l.08-.244q.17-.54.32-1.085l.078-.304q.117-.452.22-.905.031-.134.06-.266.118-.555.214-1.113.024-.146.048-.294.074-.46.132-.924.018-.141.036-.285.066-.565.108-1.132c.008-.094.011-.186.017-.28q.032-.47.045-.941l.009-.297q.011-.572-.002-1.145l-.009-.261q-.015-.477-.047-.954l-.02-.307a28 28 0 0 0-.114-1.149l-.032-.233a27 27 0 0 0-.144-.969l-.051-.314a27 27 0 0 0-.23-1.145l-.047-.2a27 27 0 0 0-.247-.982q-.042-.159-.086-.316a28 28 0 0 0-.347-1.134l-.055-.156a26 26 0 0 0-.48-1.311 26 26 0 0 0-.467-1.113q-.025-.054-.05-.106a27 27 0 0 0-.487-1.015l-.156-.306q-.276-.534-.577-1.06l-.018-.033-1.248-2.162 108.102-62.413 2.581 4.47c4.892 11.158.626 24.153-9.949 30.258"/></g><defs><clipPath id="a"><path fill="#ebebeb" d="M.932 0h187v256h-187z"/></clipPath></defs></svg>
