<svg xmlns="http://www.w3.org/2000/svg" width="237" height="256" fill="none" viewBox="0 0 237 256"><path fill="#005f9e" d="M235.075 55.385 152.121 7.63S139.075 0 117.906 0C95.998 0 83.444 7.877 83.444 7.877L6.398 51.939l116.923 67.199v135.877l77.046-43.815s13.785-7.631 24.123-25.6c9.108-16 10.339-31.262 10.339-31.262zM109.783 77.539s17.23-3.2 31.753 5.169A8068 8068 0 0 0 164.675 96v29.046c0 14.031-11.816 28.308-11.816 28.308v-51.2zm68.184 112.492-25.108 14.277v-13.539l19.447-11.077c18.461-13.292 21.661-33.23 21.661-39.877V79.262l-53.169-30.523s-8.123-5.416-22.646-5.416-22.4 4.923-22.4 4.923l-18.708 10.83-11.815-6.891 25.846-14.77s10.092-5.661 27.077-5.661c15.507 0 27.569 6.154 27.569 6.154l60.062 34.707v66.216c.246 9.846-4.431 34.707-27.816 51.2"/><path fill="#005f9e" d="m.49 95.999 81.97 47.015v14.031l-46.77-26.831-29.292 16.738 76.062 43.816v13.538L.983 157.537c.246 5.415 5.169 22.4 14.769 35.446 9.6 13.292 20.677 18.954 20.677 18.954l75.323 43.323V126.029L.49 62.029z"/></svg>