<svg xmlns="http://www.w3.org/2000/svg" width="256" height="182" fill="none" viewBox="0 0 256 182">
  <g clip-path="url(#a)">
    <path fill="#ebebeb" d="M249.257 101.726c-.865.878.416 1.87 1.559 1.479-2.333 3.382-5.362 3.519-7.191 2.212-.988-1.107 1.03-.406 2.637-.424 1.845-.021 3.304-.935 3.103-1.38-.779-.226-1.687.764-2.932.662-2.716-.222-6.15-.854-6.197-1.92-.034-.544.564-2.137 1.016-1.974.632.445.748 1.301 1.187 1.399.283.062.509-.608 1.29-1.329.309-.253.341-.08.341.105 0 .12.202.062.594-.551.778-1.276-.262-4.09-1.476-5.358-1.253-.77.193-2.125 1.476-2.186 2.92-.258.585-2.888-2.46-1.695-2.502.868-3.21 2.285-4.918 3.023-2.128.92-2.872.458-3.987.901-2.996 1.192-4.765 2.942-7.878 1.433-2.302-.995-1.136.329-.288 1.43.616.8 1.109 1.372-.095 1.85-4.059 1.923-2.965-1.471-4.646-1.585-3.581-3.758-.984-19.133-16.291-23.397-7.629-3.35-12.54-3.01-14.979-4.92 6.916-5.85 15.457 6.109 29.575 6.833 7.923.173 4.084 4.112 12.409 6.068 6.051 5.563 7.356 6.069 5.74-1.968-.276-2.06-2.658-.402-3.662-2.023-.576-1.156 1.596-1.38 4.1 1.094 4.651 4.487 6.997-.501 8.09 1.257.797 1.203 2.073-1.007 4.761-1.94 1.615-.562 3.346-1.51 3.22-1.887-.009-1.325-5.339-.892-7.161-2.186-1.913-1.668.57 2.114-1.312 2.842-3.152 1.48-5.134-.182-7.708-2.514 2.779-1.745 3.445-2.299 3.007-.875-.547 2.98 3.325-1.03 4.209-3.827 0-1.711 3.728-1.725 4.374-2.788-.133-.747-7.035-1.922-7.927-1.64-4.005.643-5.621 1.644-6.669.055-1.184-1.705-5.532-2.911-8.692-1.367-2.411 1.004-5.234.872-6.49 1.129-.714.145-.932.976-.344 1.222 2.269 1.654-5.76 1.449-9.184-.437-2.009-1.565-4.161-.472-4.81-4.21-1.06-4.29-1.606-.635-3.663-3.06-1.582-2.464-.989-3.61 2.351-1.204 1.148.766 2.842 1.914 3.772 2.624 2.515 1.958.699 1.825 1.038 3.171.352.342 1.612-.123 3.585-.674 2.42-.675 5.623-1.552 5.982-2.114-.309-.74-2.342-.868-4.114-1.576-1.253-.501-2.425-.789-3.084-.825-1.02.22-.384 1.653-2.27-.403.376-.785 4.193-.161 7.883-1.843 2.22-1.36 13.769-1.599 15.416-.109 4.058 1.961 3.683.918 2.842-1.312-.925-2.445-1.435-3.652-2.842-3.717-1.494.174 2.641 2.02 1.885 4.812-.272.413-.556-2.69-2.432-2.57-1.989.085-.195-1.111-.547-3.117-.382-1.325 2.59.468 6.56-3.772 1.428-1.688 2.778.414 2.624-2.843.045-2.352 1.39-4.964 2.187-6.505-1.72-1.056-4.473 3.262-7.161 4.538-1.841.811-1.152 1.792.846 2.283.505 1.037-2.432 3.163-5.046 2.992-2.722-.178-5.073-.7-5.039-1.94-.308-1.853 3.587-.23 3.772.218.943 1.466 2.241-.516-.492-4.319-2.494-3.423-2.426-1.544-2.733-3.006.136-1.169 1.452-2.382 2.186-3.827-.581-.793-1.862-.314-4.264 2.241-4.312 4.346-4.277 7.455-9.402 10.004-6.976-2.453-6.8-1.9-1.586 2.733-3.608 1.688-4.584.705-5.536 1.11-1.303.554-.323 1.044 3.568 2.608-6.355-.583-8.837-.06-8.929-.948.046-1.07.784-3.009.948-2.332.748 1.765 3.538.166 1.421-5.63-.652-1.978-1.575-2.306 3.335-5.194.689-.27.82-.219.82-.547-.363-.748-2.456-.694-4.48-.074-1.708.523-2.715 1.67-4.485 1.714-3.617.902-8.57 5.462-10.223 5.194-.76-.64-1.687-2.057-2.679-3.773-.32 1.314-.629 2.685-1.148 2.953-1.382-.888-2.891-3.342-3.662-3.116-1.633 4.325 1.032 6.068.601 7.489-.497 1.628 2.893 1.356-.328 3.39-4.298 3.183-7.24 3.784-6.615.6.49-3.578.863 3.39 2.57-.163.783-4.383-2.406-8.665.437-9.294 3.854-1.877-3.936-2.15-6.888-.492-2.32 1.009-3.07 1.185-6.177 1.093 2.431-1.937 6.402-2.782 11.121-4.444 2.013-.708 4.144-2.48 5.661-2.826 2.62-.788 12.528 5.066 12.519 2.843-.026-.741-.982-1.766-1.397-2.955-.449-1.291 0-2.242-.899-3.441-1.054-1.298.712.299 2.843-2.023 3.695-4.098 1.011 2.865 3.826-.765.791-1.98.386-3.402.78-4.994.337-1.368 1.997-1.803 2.5-2.933-3.251-1.564-5.483 2.273-8.637 4.647-1.161.78-.054.775.102 1.13.204.465.473.905-2.89 1.002-3.303-.2-4.054.21-4.373-1.968.193-1.57.706-1.74 1.07-.602.186.582-.136 1.435.898.11 1.219-1.585.114-3.055.874-2.734.807.76.163 2.333 1.039 2.187 1.657-2.25 1.806-4.842-.219-8.419-1.045-1.354 3.254-3 1.859-3.826-3.291-1.201-7.184 4.801-11.371 7.598-.853-.083-1.093-1.245-2.132-.874-2.587 3.362-.697 7.849-8.021 6.345-.864.06 3.104 2.562.149 3.276-.854-.007-2.961 1.736-2.132 1.421.409-.149.914-.206 2.383.6.811.444 2.071.604 2.059.844-.011.24-.396.434-.779.743-10.824 2.228-13.284 9.54-16.782 10.441-1.326-.088.093-.844-1.531-1.312-1.922-.478.489 1.768-1.093 2.405-2.452.13-5.699-2.623-7.435-5.685.872-3.029 1.429-.508 3.827-.164 1.431.165 1.771 1.86 3.061 2.187 2.49-.423 2.369-5.343 1.694-7.27-.682-1.344-1.361.061-1.53-1.258 0-.71.273-.82 1.257-.601 1.869.37 2.378-.89 3.772-1.312.273 0 .437.437.437.929 0 .478.043.658.302.485 2.52-2.713 7.1-2.471 6.901-4.476-.514-.378-8.185-1.56-9.772-1.038-2.415.73 2.362 1.58.164 2.24-2.762.366-4.156-.193-3.539-3.047.063-.261.177-.615.423-.833.328-.164.547 0 .547.382 0 .492.328.383.929-.218 1.941-2.884-.229-6.489 2.515-7.435 1.811-.887 1.946-1.414.382-1.913-4.737-.45-5.386 2.204-6.942 2.35-1.485.104-4.009 1.492-6.336 3.618-.274.142-.333-.04-.333-.502-.421-3.235-5.954 3.754-8.474 1.258-.837-.91-1.278-.592-1.327.09-.051.718.41 1.896-.149 1.768-.868-.625-3.308 2.128-1.476 1.804 2.539-.198 3.359.28-1.421 2.515-5.077 2.583-7.706 2.451-7.271 3.28.571.636 1.802.59 3.321.875.912.17 1.435 1.366 2.911.71 1.202-.524 2.782-.37 4.483 0-.307 2.57-.452 6.346 0 6.67.955.427.174-.71 1.039-.82.703.178 1.449 2.566.601 3.608-1.05 1.049.827.968 1.421.218.898-1.29 1.347.011 1.914 1.093 1.1 2.51 1.555 1.03 2.35 2.351.969 1.256 3.515 2.39 6.177 3.225.93.165.875.274-.437.93-2.424 1.339-.927 2.08-2.241 2.897-5.474 5.87-4.004 15.108 2.146 19.912 5.588 4.366 6.502 2.98 11.794 4.36 4.81 1.654 14.846 1.92 16.618 3.881 2.393 3.179 1.028 8.846-2.077 10.223-13.375 2.15-30.139-5.685-35.314-22.96-1.016-1.474.745-2.933.085-6.444-1.604-3.736-2.007.19-3.693 2.344-6.286-3.992-11.361-6.471-11.371-7.599.22-1.468 1.951 2.25 3.663 1.203 2.727-2.448 1.488-6.535-4.264-12.901C107.541 31.528 68.255 6.16 48.411.512q-1.64 0-1.476.656c4.72 4.22 10.416 5.216 15.744 12.3-.467 1.086-3.595 1.602-3.827 2.46.403.637 1.662.421 2.237.589 4.972 1.448 8.278 5.792 7.002 7.283-1.582 1.433-5.03-.15-5.467 1.968.276.798 1.343.016 4.81 1.804 7.911 4.658 8.825 10.21-1.42 6.232-12.04-4.114-24.477-7.19-30.067-4.32-5.093 2.306 4.355 1.05 9.457 3.718 2.3 1.542 2.314 1.767.602 2.734-5.006 1.201-13.08.724-18.696 1.803-2.98.876-4.816-.103-6.67 2.68-.016 1.858 6.556-.287 10.824.655 2.28.75-.074 2.783-3.334 3.663-10.581 2.96-20.58 4.706-22.741 6.997C2.593 54.041.707 54.068.305 55.233c-.237.597-1.476.458 10.14-2.207 4.729-1.085 15.979-1.375 16.92-.745-.091.691-2.075 1.349-2.187 2.57 0 .465.165.6 1.062.405 8.779-2.652 22.745-1.763 27.847.15 1.594.597 1.737 2.627 1.65 3.818.425 4.237-6.186 6.633-5.85 9.238.461 1.707.986-.2 6.232-1.312 3.936-.834 13.298 1.592 16.783 5.521 9.426 10.442 1.233 11.867-1.476 15.362-.374.727-.54 1.553.08 2.354.787.441 2.489-2.306 8.393-2.464 4.175.567 13.725 6.068 14.65 7.654-19.924 9.992-37.573 17.181-44.942 15.939-8.95-3.909-24.304-8.528-30.775-15.106-.141-.824 6.874 1.044 10.227 4.36C28.022 91.742 17.54 92.628 14.034 86c-1.69-3.192-1.197-10.869-2.25-15.953-.338-.534-.759-.885-.94-.646C9.557 71.1 7.712 82.375 7.63 87.705c-.121 5.129 2.474 12.026 4.92 18.313.9-.695 1.827-4.118 1.64-7.653 11.607 12.983 18.35 12.755 21.885 16.201-19.474 6.242-25.103 15.672-25.876 26.93-2.715 12.173 11.407 27.571 38.267 21.102 3.74-1.289 5.622 5.817 11.524 5.685.842.012 2.155-2.457 2.197.383-.155 1.927 2.11 1.633 2.241.382.205-2.767-.682-3.355 1.367-3.006 2.915.633 2.414-3.308 3.499.054.595 1.826 1.347 1.827 2.296-.437.415-1.997-1.683-4.398-2.46-8.528 2.972 1.982 2.996 2.171 2.952.601-.137-1.763-2.155-4.228-6.333-3.403-1.845.365-2.626 1.68-5.093 2.529-.646.016-.557.522-.68.654-.618.398-1.916-.179-2.108-.6.911-1.512 7.79-4.473 9.612-16.682 2.828-.48 6.731-.026 9.576-.21 3.588-.231 4.653-1.389 6.396-1.694 1.72.69-.599 3.065-.218 4.264 1.056.171 5.418-1.449 5.23-5.737.29-1.452 1.11-.933 1.657-.659 2.358 1.164 8.01.309 10.32 3.808 1.007 1.242.477 2.027-.206 2.15-2.272.202-2.563 3.362-.219 4.046 3.345.991 4.865.581 5.412 3.225.171 2.241 3.656.055 3.827 1.531-.263 1.651.572 2.1.71 3.146.096.725-1.257-.01-1.312 3.632-.301 3.376 2.926 4.569 3.608 4.647.732.028 1.252-.678.11-1.257-.725-.557 1.992.177 3.717-1.531 2.274-2.942 6.83.643 12.598 4.013 1.889.798 2.754.77 6.699 3.258 4.701 3.355 5.371-4.082 6.506 1.694.308 1.57 1.348.875 1.585-2.077.271-4.366-1.624-3.129-.164-5.74.368-.838.81-1.421 1.245-1.353.667.105 1.726.863 2.144 1.626 1.253 2.337 1.914-1.353.164-3.772-4.299-4.231-5.893-2.455-6.833-3.662-.342-.667.902-.809 2.515 0 1.428.661 1.297-.014.054-1.64-6.901-5.159-9.601 2.323-13.557 1.421-9.635-4.17-15.416-9.198-12.129-21.315.749-2.19 3.003.613 3.546.634 1.156-.144.108-4.437-2.132-5.613-2.551-1.258-4.052-4.135-6.341-5.023-.887-.344-2.323-.205-5.631-.827 2.112-2.009 8.706-4.879 19.97-3.256 3.139.452 6.036 6.833 6.325 11.347.249 4.872 1.577 6.718 2.303 6.526 2.511-2.402-.349-7.469 6.389-11.227 6.737 4.881 11.536 9.267 21.265 10.167 1.148.219 1.258.492.984 2.296-1.748 8.46-.391 4.043 1.367 5.85 1.251 1.825-1.13 9.391 1.312 7.38.934-1.024 1.144-.543 1.858 1.148.956 2.7.128 5.309 1.422 5.412 1.009-.023 1.244 2.962-.055 2.405-2.303.106-4.047 2.378-3.347 5.521.373 1.669 1.434 2.624 3.019 4.428-.261-1.902-.662-4.24-.411-4.548.528.075 1.117 1.089 2.494 1.387 1.536.331 3.549-.216 5.406 1.084 2.308 2.239 3.151 4.619 6.615 7.216 1.252.938 3.414 2.737 5.002 4.336 1.689 1.771 4.322-1.721 5.713-.564.825.687-.531 2.497-.375 3.013.178.586.804.392 2.179-1.1 1.319-1.986 1.481-3.098.601-5.138-.492-.93-.383-.984 1.257-.711 2.128.304 2.533-.078 3.718-2.023.501-.821 2.009-.15 2.077 1.476.109 2.009.632 1.471 1.859.11 2.327-2.884-.542-6.141-2.843-6.56-2.836-.748-.273-1.736-5.029-3.444-4.15-1.718-4.173.583-8.091.82-7.794-2.321-9.948-8.391-9.676-23.179.266-3.471 2.181-2.768 2.187-.547.082 3.421 2.35-.463 2.186 4.1-.326 4.617 2.319.553 3.28 4.21 1.103 2.868 1.322.874 3.007 2.514 1.286 1.293 1.517-.186 2.46.82.451 1.401-3.939-1.042-5.467 4.264-.659 2.006 1.476 3.185 3.28 3.444 1.784.031-.078-.789-.164-1.694.359-.632 1.487.529 2.952-.492 1.234-1.131 3.54 1.756 5.576 2.186.383 0 .766.383.93.766 4.141 3.986 9.625 9.616 12.026 8.965 2.523-.175 3.138-1.219 3.499.547.44 2.525 3.229.651 2.679-1.914-.387-2.827-1.647-4.795.109-4.537 1.168-.091 2.049-1.19 3.28-2.952.517 1.35 1.029 2.561 1.531 3.553.73-.032 1.007-1.027 1.202-3.061.252-2.68-6.659-7.986-7.981-7.872-2.298-.11-3.279 2.087-6.191 1.667-3.253-.469-8.651-5.225-9.061-6.532-4.606-10.483-10.072-20.596-8.528-23.835 1.835-7.702 4.17-7.784 4.578-10.201.739-4.372-1.017-6.135 1.053-8.604 7.171-5.014 11.024-9.412 12.464-13.995 1.381 2.32 3.607 8.805 6.987 14.356-1.604.407-5.71.683-5.651 1.264.043.43 4.706.832 8.23.288 2.779-.517.994.576 2.57.82 2.443.174-1.238 2.296-3.161 4.722-.575.945 2.09.763 5.183-1.606 1.538-1.174 2.453-1.452 2.837-1.337.388.116.723.275 1.154-1.068.179-3.514 7.311.56 14.794 4.797.847.584 1.298 1.708 2.098 1.435 1.387-5.023-.936-8.644 2.077-9.075 2.71-.949 4.066-3.383 4.538-2.296.2 1.017 1.746.016 1.804-2.022.184-2.261 1.145-3.454 1.639-4.866-.555-.597-4.742 2.594-6.394 4.127M163.21 70.922c-4.824-.916-13.092-2.328-14.213-7.599.244-1.61 2.983-4.614 3.554-4.209.508.657-.886 3.23-.547 4.155.898 0 2.35-1.406 3.827-2.132.556.328-.144 2.549 1.093 2.733.437 0 .82.383.82.82.297 1.163 2.145 3.284 5.248 5.685.765.438.815.622.218.547M38.571 141.715c1.075-.05 3.58-.05 1.585 2.843-1.027 1.779-1.297 2.986.438 2.678 1.49-.811.214 4.155-.547 4.756-3.954 1.859-18.959-3.903-19.024-6.833.704-5.029 11.805-14.028 19.899-15.197.465-.152 1.737 6.304-1.476 8.692-1.57 1.588-3.033 3.613-.875 3.061"/>
  </g>
  <defs>
    <clipPath id="a">
      <path fill="#ebebeb" d="M0 .428h256v181.146H0z"/>
    </clipPath>
  </defs>
</svg>
