<svg width="257" height="257" viewBox="0 0 257 257" fill="none"
  xmlns="http://www.w3.org/2000/svg">
  <g clip-path="url(#clip0_81_1635)">
    <mask id="mask0_81_1635" style="mask-type:luminance" maskUnits="userSpaceOnUse" x="0" y="1" width="256" height="256">
      <path d="M0 1H256V257H0V1Z" fill="#EBEBEB"/>
    </mask>
    <g mask="url(#mask0_81_1635)">
      <mask id="mask1_81_1635" style="mask-type:luminance" maskUnits="userSpaceOnUse" x="0" y="1" width="256" height="256">
        <path d="M192 1H64C47.0261 1 30.7475 7.74284 18.7452 19.7452C6.74284 31.7475 0 48.0261 0 65L0 193C0 209.974 6.74284 226.253 18.7452 238.255C30.7475 250.257 47.0261 257 64 257H192C208.974 257 225.253 250.257 237.255 238.255C249.257 226.253 256 209.974 256 193V65C256 48.0261 249.257 31.7475 237.255 19.7452C225.253 7.74284 208.974 1 192 1Z" fill="#EBEBEB"/>
      </mask>
      <g mask="url(#mask1_81_1635)">
        <path d="M192 1H64C47.0261 1 30.7475 7.74284 18.7452 19.7452C6.74284 31.7475 0 48.0261 0 65L0 193C0 209.974 6.74284 226.253 18.7452 238.255C30.7475 250.257 47.0261 257 64 257H192C208.974 257 225.253 250.257 237.255 238.255C249.257 226.253 256 209.974 256 193V65C256 48.0261 249.257 31.7475 237.255 19.7452C225.253 7.74284 208.974 1 192 1Z" fill="#794DFF"/>
        <path d="M192 1H64C47.0261 1 30.7475 7.74284 18.7452 19.7452C6.74284 31.7475 0 48.0261 0 65L0 193C0 209.974 6.74284 226.253 18.7452 238.255C30.7475 250.257 47.0261 257 64 257H192C208.974 257 225.253 250.257 237.255 238.255C249.257 226.253 256 209.974 256 193V65C256 48.0261 249.257 31.7475 237.255 19.7452C225.253 7.74284 208.974 1 192 1Z" fill="url(#paint0_linear_81_1635)"/>
        <path fill-rule="evenodd" clip-rule="evenodd" d="M178.065 164.739L133.665 110.027C132.904 109.091 131.941 108.338 130.848 107.827C129.755 107.315 128.56 107.057 127.354 107.073C126.147 107.088 124.96 107.376 123.88 107.916C122.801 108.455 121.857 109.232 121.121 110.187L80.9365 162.355C80.1888 163.326 79.2279 164.113 78.1279 164.654C77.0279 165.195 75.8184 165.476 74.5926 165.475H57.3606C55.8524 165.475 54.3748 165.049 53.0983 164.246C51.8219 163.443 50.7984 162.295 50.1461 160.935C49.4938 159.575 49.2392 158.059 49.4116 156.561C49.584 155.062 50.1764 153.643 51.1205 152.467L121.105 65.1152C121.851 64.1837 122.796 63.431 123.871 62.9122C124.946 62.3935 126.124 62.1218 127.317 62.1172C128.511 62.1126 129.69 62.3752 130.769 62.8856C131.848 63.396 132.799 64.1414 133.553 65.0672L206.553 154.651C207.507 155.824 208.109 157.243 208.289 158.744C208.47 160.246 208.221 161.767 207.572 163.133C206.923 164.498 205.901 165.652 204.623 166.46C203.345 167.268 201.864 167.698 200.353 167.699H184.273C183.083 167.698 181.908 167.432 180.834 166.92C179.76 166.408 178.814 165.663 178.065 164.739ZM133.345 152.867L154.065 176.491C158.601 181.659 154.929 189.763 148.057 189.763H108.681C107.177 189.764 105.705 189.341 104.431 188.543C103.157 187.745 102.134 186.604 101.478 185.252C100.823 183.899 100.561 182.389 100.725 180.895C100.888 179.401 101.469 177.983 102.401 176.803L121.049 153.179C121.776 152.257 122.697 151.507 123.746 150.981C124.796 150.455 125.948 150.167 127.122 150.136C128.295 150.106 129.461 150.334 130.536 150.805C131.612 151.275 132.571 151.985 133.345 152.867Z" fill="url(#paint1_linear_81_1635)"/>
      </g>
      <path d="M192 6.32813H63.9999C56.2954 6.32813 48.6663 7.84578 41.5484 10.7944C34.4304 13.7431 27.963 18.0649 22.5154 23.5132C17.0678 28.9615 12.7468 35.4296 9.79917 42.5479C6.8515 49.6663 5.33489 57.2956 5.33594 65.0001V193C5.33594 208.559 11.5166 223.48 22.5182 234.482C33.5199 245.483 48.4413 251.664 63.9999 251.664H192C199.704 251.665 207.334 250.149 214.452 247.201C221.571 244.253 228.039 239.932 233.487 234.485C238.935 229.037 243.257 222.57 246.206 215.452C249.154 208.334 250.672 200.705 250.672 193V65.0001C250.673 57.2949 249.156 49.665 246.208 42.5461C243.26 35.4272 238.938 28.9588 233.49 23.5104C228.041 18.062 221.573 13.7403 214.454 10.7921C207.335 7.84395 199.705 6.32707 192 6.32813Z" stroke="url(#paint2_linear_81_1635)" stroke-width="16"/>
    </g>
  </g>
  <defs>
    <linearGradient id="paint0_linear_81_1635" x1="232" y1="17" x2="24" y2="237" gradientUnits="userSpaceOnUse">
      <stop stop-opacity="0"/>
      <stop offset="1" stop-opacity="0.38"/>
    </linearGradient>
    <linearGradient id="paint1_linear_81_1635" x1="128.857" y1="62.1232" x2="128.857" y2="189.763" gradientUnits="userSpaceOnUse">
      <stop stop-color="white"/>
      <stop offset="1" stop-color="white" stop-opacity="0.6"/>
    </linearGradient>
    <linearGradient id="paint2_linear_81_1635" x1="128" y1="1.00013" x2="128" y2="257" gradientUnits="userSpaceOnUse">
      <stop stop-color="white" stop-opacity="0.28"/>
      <stop offset="1" stop-color="white" stop-opacity="0.04"/>
    </linearGradient>
    <clipPath id="clip0_81_1635">
      <rect width="256" height="256" fill="#EBEBEB" transform="translate(0.212891 0.5)"/>
    </clipPath>
  </defs>
</svg>
