<svg xmlns="http://www.w3.org/2000/svg" width="256" height="134" fill="none" viewBox="0 0 256 134"><g clip-path="url(#a)"><path fill="#00618a" d="M-.005 120.917h8.434V87.613l13.056 29.033c1.541 3.514 3.65 4.758 7.785 4.758 4.136 0 6.164-1.244 7.705-4.758l13.056-29.033v33.304h8.435v-33.25c0-3.243-1.299-4.812-3.974-5.622-6.407-2-10.705-.27-12.652 4.055l-12.813 28.653L16.62 86.1c-1.866-4.326-6.245-6.056-12.651-4.055-2.677.81-3.974 2.379-3.974 5.622zM65.478 93.809h8.431v18.348c-.079.997.32 3.337 4.94 3.409 2.357.037 18.192 0 18.34 0V93.72h8.451c.039 0-.008 29.792-.008 29.919.047 7.348-9.117 8.944-13.34 9.067h-26.63v-5.673c.046 0 26.61.005 26.677-.002 5.428-.573 4.787-3.271 4.786-4.179v-2.212H79.2c-8.34-.077-13.65-3.717-13.716-7.904-.006-.388.18-18.744-.005-18.927"/><path fill="#e48e00" d="M112.14 120.917h24.247c2.839 0 5.596-.594 7.786-1.622 3.649-1.675 5.433-3.946 5.433-6.92v-6.163c0-2.433-2.027-4.704-6.001-6.217-2.109-.812-4.704-1.244-7.218-1.244h-10.218c-3.405 0-5.028-1.027-5.433-3.298-.081-.27-.081-.487-.081-.757v-3.838c0-.217 0-.434.081-.703.405-1.73 1.298-2.218 4.298-2.487.244 0 .567-.055.811-.055h24.086v-5.622H126.25c-3.406 0-5.19.216-6.812.702-5.028 1.569-7.217 4.056-7.217 8.381v4.92c0 3.785 4.298 7.028 11.515 7.785.812.054 1.622.108 2.433.108h8.758c.325 0 .65 0 .893.054 2.676.217 3.811.703 4.623 1.676.486.486.648.973.648 1.514v4.92c0 .595-.405 1.352-1.216 2-.73.649-1.946 1.082-3.569 1.19-.324 0-.567.054-.891.054H112.14zM202.22 111.132c0 5.784 4.297 9.029 12.975 9.678.811.054 1.622.107 2.433.107h21.977v-5.622h-22.139c-4.947 0-6.812-1.244-6.812-4.217V81.991h-8.434zM154.989 111.426V91.381c0-5.092 3.576-8.181 10.645-9.156a16 16 0 0 1 2.276-.162h16.009c.812 0 1.544.054 2.357.162 7.07.975 10.645 4.064 10.645 9.156v20.045c0 4.132-1.518 6.343-5.018 7.784l8.308 7.499h-9.793l-6.721-6.067-6.767.429h-9.02c-1.544 0-3.169-.218-4.957-.705-5.363-1.462-7.964-4.28-7.964-8.94m9.103-.487c0 .271.081.542.162.867.488 2.33 2.682 3.63 6.014 3.63h7.662l-7.039-6.354h9.793l6.139 5.541c1.131-.602 1.876-1.525 2.136-2.709.08-.27.08-.541.08-.812V91.869c0-.217 0-.488-.08-.76-.488-2.166-2.683-3.412-5.933-3.412h-12.758c-3.738 0-6.176 1.626-6.176 4.172z"/><path fill="#00618a" d="M247.025 72.664c-5.184-.14-9.145.341-12.53 1.77-.962.405-2.496.416-2.653 1.621.528.555.61 1.382 1.031 2.064.808 1.308 2.173 3.06 3.391 3.98 1.33 1.004 2.701 2.079 4.128 2.948 2.537 1.548 5.369 2.431 7.813 3.981 1.439.914 2.87 2.064 4.274 3.095.695.51 1.161 1.303 2.064 1.622v-.147c-.474-.604-.596-1.434-1.032-2.064l-1.916-1.917c-1.874-2.487-4.253-4.671-6.781-6.486-2.016-1.447-6.53-3.403-7.371-5.75l-.148-.147c1.43-.16 3.104-.678 4.424-1.032 2.216-.594 4.197-.44 6.486-1.031l3.095-.885v-.59c-1.157-1.187-1.982-2.758-3.243-3.833-3.301-2.81-6.904-5.619-10.614-7.96-2.058-1.3-4.6-2.143-6.781-3.244-.733-.37-2.022-.562-2.507-1.18-1.145-1.46-1.769-3.31-2.652-5.011-1.851-3.564-3.668-7.456-5.307-11.204-1.119-2.557-1.849-5.078-3.243-7.371-6.694-11.006-13.899-17.648-25.061-24.177-2.375-1.389-5.234-1.937-8.256-2.653l-4.864-.295c-.99-.414-2.02-1.625-2.948-2.212-3.698-2.336-13.182-7.416-15.921-.737-1.729 4.217 2.585 8.331 4.127 10.467 1.083 1.5 2.47 3.18 3.243 4.865.509 1.108.597 2.218 1.033 3.39 1.072 2.888 2.004 6.03 3.39 8.698.701 1.35 1.473 2.773 2.359 3.98.543.741 1.474 1.068 1.621 2.212-.91 1.274-.962 3.251-1.474 4.865-2.304 7.264-1.435 16.294 1.916 21.67 1.029 1.65 3.451 5.19 6.781 3.833 2.914-1.187 2.263-4.864 3.096-8.108.189-.736.073-1.276.442-1.769v.148l2.654 5.306c1.964 3.163 5.449 6.468 8.403 8.699 1.531 1.156 2.737 3.156 4.717 3.832v-.147h-.148c-.383-.599-.983-.846-1.473-1.327-1.154-1.13-2.437-2.537-3.391-3.833-2.686-3.647-5.06-7.638-7.223-11.793-1.033-1.984-1.931-4.173-2.802-6.192-.335-.779-.331-1.955-1.031-2.359-.954 1.48-2.358 2.676-3.096 4.423-1.179 2.792-1.332 6.198-1.768 9.73-.259.092-.144.028-.296.147-2.053-.496-2.775-2.61-3.537-4.422-1.93-4.586-2.289-11.97-.591-17.248.44-1.366 2.426-5.667 1.622-6.929-.384-1.259-1.65-1.987-2.359-2.949-.876-1.189-1.752-2.755-2.359-4.128-1.579-3.575-2.317-7.589-3.979-11.203-.795-1.728-2.14-3.476-3.243-5.012-1.223-1.701-2.591-2.955-3.538-5.013-.337-.731-.795-1.902-.295-2.653.159-.508.383-.72.884-.885.855-.659 3.237.22 4.127.59 2.365.982 4.338 1.917 6.34 3.243.961.638 1.933 1.87 3.095 2.212h1.327c2.075.477 4.4.148 6.339.736 3.427 1.042 6.498 2.662 9.287 4.423 8.497 5.365 15.444 13.003 20.196 22.113.765 1.467 1.096 2.867 1.769 4.423 1.359 3.137 3.07 6.366 4.422 9.434 1.349 3.061 2.664 6.15 4.57 8.698 1.003 1.34 4.874 2.058 6.634 2.801 1.233.521 3.254 1.065 4.422 1.769 2.232 1.346 4.394 2.948 6.487 4.423 1.046.737 4.262 2.353 4.422 3.685"/><path fill="#00618a" fill-rule="evenodd" d="M181.131 16.498c-1.081-.02-1.846.117-2.654.294v.147h.148c.515 1.06 1.425 1.742 2.063 2.654l1.474 3.096.148-.147c.912-.644 1.331-1.673 1.326-3.244-.366-.384-.419-.867-.737-1.327-.421-.611-1.237-.96-1.768-1.474" clip-rule="evenodd"/><path fill="#e48e00" fill-rule="evenodd" d="M243.564 115.134c0 3.714 2.934 6.216 6.216 6.216s6.215-2.502 6.215-6.216c0-3.712-2.934-6.215-6.215-6.215-3.282 0-6.216 2.503-6.216 6.215m11.039 0c0 2.818-2.154 4.923-4.823 4.923-2.702 0-4.824-2.105-4.824-4.923s2.122-4.923 4.824-4.923c2.669 0 4.823 2.106 4.823 4.923m-3.149 3.547h1.392l-2.038-3.115c1.094-.117 1.922-.647 1.922-1.94 0-1.442-.911-2.038-2.668-2.038h-2.768v7.093h1.193v-3.066h1.111zm-2.967-4.06v-2.039h1.375c.714 0 1.575.133 1.575.962 0 .993-.779 1.077-1.674 1.077z" clip-rule="evenodd"/></g><defs><clipPath id="a"><path fill="#ebebeb" d="M-.005.5h256v133h-256z"/></clipPath></defs></svg>
