<svg width="264" height="264" viewBox="0 0 264 264" fill="none"
  xmlns="http://www.w3.org/2000/svg">
  <path fill-rule="evenodd" clip-rule="evenodd" d="M248.213 248.214C258.87 237.559 260.878 223.145 259.703 210.697C258.513 198.088 253.882 184.398 247.307 170.742C241.382 158.436 233.482 145.347 223.921 132C233.482 118.653 241.382 105.564 247.307 93.2585C253.882 79.6023 258.513 65.9118 259.703 53.3034C260.878 40.8549 258.87 26.442 248.213 15.7864C237.558 5.13087 223.146 3.12209 210.696 4.2972C198.089 5.48724 184.398 10.1182 170.742 16.6934C158.435 22.6186 145.346 30.5183 132.001 40.0789C118.654 30.5183 105.565 22.6186 93.2576 16.6934C79.6014 10.1182 65.911 5.48724 53.3039 4.2972C40.8549 3.12209 26.442 5.13087 15.7864 15.7864C5.13087 26.442 3.12209 40.8549 4.2972 53.3034C5.48738 65.9118 10.1182 79.6023 16.6934 93.2585C22.6188 105.564 30.5183 118.653 40.0789 132C30.5183 145.347 22.6188 158.436 16.6934 170.742C10.1182 184.398 5.48738 198.088 4.2972 210.697C3.12209 223.145 5.13087 237.559 15.7864 248.214C26.442 258.869 40.8549 260.879 53.3039 259.704C65.911 258.513 79.6014 253.881 93.2576 247.307C105.565 241.381 118.654 233.481 132.001 223.922C145.346 233.481 158.435 241.381 170.742 247.307C184.398 253.881 198.089 258.513 210.696 259.704C223.146 260.879 237.558 258.869 248.213 248.214ZM132.001 199.767C143.907 190.46 156.015 179.763 167.889 167.89C179.764 156.016 190.46 143.906 199.768 132C190.46 120.094 179.764 107.984 167.889 96.11C156.015 84.237 143.907 73.5405 132.001 64.2327C120.093 73.5405 107.985 84.237 96.1105 96.11C84.2361 107.984 73.5396 120.094 64.2319 132C73.5396 143.906 84.2361 156.016 96.1105 167.89C107.985 179.763 120.093 190.46 132.001 199.767ZM148.151 211.635C159.357 202.614 170.594 192.529 181.562 181.562C192.528 170.595 202.614 159.356 211.636 148.15C238.118 186.673 248.308 220.776 234.542 234.541C220.775 248.309 186.673 238.119 148.151 211.635ZM52.3644 148.15C61.3873 159.356 71.4716 170.595 82.4379 181.562C93.4056 192.529 104.643 202.614 115.85 211.635C77.3266 238.119 43.2252 248.309 29.4587 234.541C15.6921 220.776 25.8817 186.673 52.3644 148.15ZM52.3644 115.85C61.3873 104.644 71.4716 93.405 82.4379 82.4387C93.4056 71.471 104.643 61.3867 115.85 52.3652C77.3266 25.8817 43.2252 15.6921 29.4587 29.4587C15.6921 43.2252 25.8817 77.3274 52.3644 115.85ZM148.151 52.3652C159.357 61.3867 170.594 71.471 181.562 82.4387C192.528 93.405 202.614 104.644 211.636 115.85C238.118 77.3274 248.308 43.2252 234.542 29.4587C220.775 15.6921 186.673 25.8817 148.151 52.3652Z" fill="#EBEBEB" stroke="#EBEBEB" stroke-width="6.84796"/>
</svg>
