<svg xmlns="http://www.w3.org/2000/svg" width="261" height="256" fill="none" viewBox="0 0 261 256"><g clip-path="url(#a)"><path fill="#0f80cc" d="M180.546 11.361H19.84C9.069 11.361.257 20.171.257 30.937v177.148c0 10.764 8.812 19.573 19.583 19.573h105.845c-1.202-52.641 16.783-154.801 54.861-216.297"/><path fill="url(#b)" d="M174.707 17.071H19.84c-7.648 0-13.872 6.22-13.872 13.865V195.16c35.074-13.455 87.717-25.065 124.115-24.538 7.315-38.228 28.812-113.147 44.624-153.55"/><path fill="#003b57" d="M218.031 5.563c-11.007-9.81-24.333-5.87-37.485 5.798-1.953 1.733-3.901 3.656-5.839 5.71-22.499 23.857-43.384 68.049-49.872 101.798 2.527 5.123 4.502 11.661 5.802 16.656.333 1.281.634 2.484.874 3.507.571 2.421.878 3.991.878 3.991s-.202-.763-1.029-3.162c-.158-.46-.333-.963-.541-1.554a17 17 0 0 0-.348-.857c-1.467-3.411-5.527-10.608-7.314-13.742-1.528 4.506-2.879 8.721-4.009 12.535 5.158 9.433 8.301 25.599 8.301 25.599s-.272-1.048-1.568-4.704c-1.151-3.234-6.882-13.272-8.24-15.618-2.323 8.569-3.245 14.355-2.413 15.764 1.615 2.729 3.154 7.439 4.505 12.648 3.053 11.733 5.175 26.018 5.175 26.018s.068.946.183 2.403c-.424 9.854-.169 20.07.594 29.304 1.011 12.224 2.915 22.725 5.342 28.345l1.647-.898c-3.563-11.072-5.011-25.583-4.377-42.317.959-25.579 6.848-56.426 17.729-88.577 18.383-48.534 43.889-87.475 67.232-106.071-21.276 19.206-50.072 81.375-58.692 104.397-9.652 25.78-16.492 49.972-20.614 73.151 7.112-21.73 30.108-31.07 30.108-31.07s11.279-13.904 24.46-33.768c-7.896 1.8-20.86 4.881-25.203 6.706-6.405 2.685-8.132 3.601-8.132 3.601s20.75-12.629 38.551-18.348c24.482-38.542 51.155-93.295 24.295-117.245"/></g><defs><linearGradient id="b" x1="9735.71" x2="9735.71" y1="381.519" y2="16835.5" gradientUnits="userSpaceOnUse"><stop stop-color="#97d9f6"/><stop offset=".92" stop-color="#0f80cc"/><stop offset="1" stop-color="#0f80cc"/></linearGradient><clipPath id="a"><path fill="#ebebeb" d="M-.005 0h260.129v256H-.006z"/></clipPath></defs></svg>
