<svg xmlns="http://www.w3.org/2000/svg" width="258" height="210" fill="none" viewBox="0 0 258 210"><g clip-path="url(#a)"><path fill="#ebebeb" fill-rule="evenodd" d="M182.109 4.949c-4.11 4.798-9.036 10.771-12.247 14.85-.933 1.186-3.732 4.556-6.221 7.49-2.488 2.932-5.497 6.55-6.686 8.038s-4.613 5.56-7.608 9.05c-2.995 3.489-5.076 6.752-4.625 7.25.451.5.21.559-.536.13-1.528-.877-4.115 3.05-2.845 4.32.445.445.189.64-.568.432-.756-.207-4.491 3.44-8.299 8.106-7.043 8.632-10.257 10.934-30.196 21.62L85.876 95.03c-4.51 2.42-11.43 6.237-15.379 8.484-12.337 7.02-12.211 6.093 1.523-11.24 2.488-3.14 5.645-7.212 7.016-9.05 1.371-1.836 4.537-6.082 7.037-9.437s4.227-6.615 3.838-7.245c-.4-.646-.147-.799.58-.349.751.465 2.121-.545 3.286-2.422 8.848-14.264 14.131-19.294 27.73-26.397 7.309-3.82 13.29-7.38 13.29-7.914s.848-.645 1.883-.248c1.035.399 1.644.255 1.354-.317a691 691 0 0 1-2.731-5.566c-1.211-2.488-2.505-4.779-2.876-5.09s-1.017-1.966-1.436-3.676c-1.021-4.175-2.969-3.726-15.423 3.558-.933.545-4.746 2.45-8.473 4.231-3.727 1.782-9.2 4.626-12.16 6.32-2.96 1.695-5.383 2.779-5.383 2.408s-.646-.14-1.434.516c-1.402 1.164-9.953 5.703-33.348 17.708-14.324 7.348-14.364 6.78-.78-11.215 10.816-14.325 10.816-14.325 8.068-16.487-1.511-1.187-4.913-3.971-7.563-6.185-4.816-4.023-4.816-4.023-8.314.813-1.924 2.66-3.778 5.092-4.12 5.403s-4.422 5.655-9.065 11.877c-4.643 6.22-8.766 11.565-9.162 11.876s-2.186 2.65-3.98 5.2c-1.792 2.547-5.804 7.969-8.915 12.047C-.994 78.276-.559 76.414 5.364 86.47c2.133 3.622 3.878 7.057 3.878 7.635 0 1.512 27.063-11.485 31.503-15.13.84-.69 2.154-1.346 2.92-1.458.764-.112 4.95-2.221 9.301-4.687 11.962-6.778 16.653-6.927 9.385-.298-.341.311-1.852 2.347-3.356 4.525-1.505 2.177-3.391 4.633-4.192 5.458-.8.824-9.155 11.768-18.567 24.319-9.411 12.551-18.077 23.887-19.257 25.189-2.127 2.35-2.11 2.393 2.134 5.334 2.352 1.631 5.273 4.891 6.49 7.246a442 442 0 0 0 2.406 4.616c.105.185 2.416-.888 5.134-2.384 2.72-1.495 10.797-5.918 17.951-9.828 7.154-3.911 15.299-8.391 18.098-9.959 2.8-1.566 6.617-3.605 8.484-4.529s4.233-2.401 5.26-3.285c1.351-1.16 2.087-1.247 2.663-.315.738 1.192-2.379 5.548-6.117 8.552-.872.7-1.216 1.873-.763 2.605.45.732.358 1.191-.207 1.021-1.038-.314-10.364 9.207-10.42 10.637-.017.422-.667 1.44-1.445 2.262-6.494 6.865-13.086 15.477-12.415 16.219.451.499.21.558-.536.129-1.553-.89-4.086 3.034-2.845 4.408.444.492.244.574-.445.181-.709-.405-4.723 3.568-9.247 9.151-4.395 5.425-8.937 10.882-10.091 12.127-8.322 8.968-8.594 10.092-3.438 14.236 2.64 2.123 5.183 3.733 5.649 3.578s.721.275.565.954c-.876 3.833 3.41 3.36 10.153-1.119 3.843-2.553 7.225-4.641 7.516-4.641.29 0 5.787-3.123 12.215-6.941 6.427-3.817 14.485-8.483 17.907-10.37 3.421-1.886 6.39-3.853 6.597-4.371.209-.517.915-.941 1.573-.941s3.796-1.604 6.974-3.564c3.18-1.96 7.563-4.563 9.74-5.784 4.173-2.339 20.566-11.961 46.982-27.575 8.732-5.162 18.149-10.61 20.925-12.109 2.779-1.499 4.911-3.333 4.74-4.078-.171-.743.217-1.027.861-.629.644.399 4.226-1.131 7.959-3.399 9.099-5.526 9.918-4.713 3.587 3.566-14.905 19.49-22.838 29.633-25.977 33.212-18.25 20.811-19.644 24.119-14.128 33.517 2.873 4.895 5.366 9.09 5.54 9.323.173.233 2.884-1.421 6.022-3.676s5.983-4.099 6.321-4.099c.66 0 16.225-9.349 32.749-19.668 5.599-3.498 11.356-6.865 12.793-7.483 1.555-.668 2.286-1.653 1.805-2.432-.524-.846-.31-1 .605-.434.825.51 2.755-.119 4.639-1.511 2.169-1.604 3.478-1.976 3.996-1.138.424.687.269 1.572-.344 1.969-1.016.657-16.142 24.562-16.142 25.508 0 .223-2.102 3.554-4.672 7.401-2.625 3.932-4.235 7.408-3.676 7.936 7.323 6.917 15.728 9.977 17.836 6.492 1.207-1.998 3.92-6.306 6.031-9.575s3.517-6.463 3.124-7.098-.165-1.015.503-.844c.67.171 1.853-.803 2.63-2.164.776-1.36 5.993-9.743 11.592-18.628s10.689-16.998 11.311-18.03a1049 1049 0 0 1 2.523-4.161c1.23-2.02.936-2.63-2.566-5.301-2.177-1.66-5.463-6.002-7.304-9.649-4.134-8.188-4.859-8.652-8.953-5.736-1.803 1.284-3.661 2.334-4.128 2.334s-2.679 1.396-4.916 3.101c-2.236 1.705-4.079 2.851-4.097 2.545-.017-.306-2.28 1.098-5.03 3.12-2.748 2.022-5.494 3.676-6.1 3.676s-1.906.718-2.888 1.595c-2.965 2.648-14.912 8.844-15.643 8.112-.376-.374.628-2.076 2.228-3.78 2.963-3.153 12.049-14.397 16.154-19.987 1.244-1.694 3.28-4.222 4.524-5.618s3.535-4.237 5.09-6.314c1.556-2.078 5.119-6.684 7.918-10.237s7.381-9.524 10.18-13.268c2.8-3.744 6.744-7.708 8.767-8.808 2.163-1.178 3.676-2.889 3.676-4.159 0-1.188.527-3.144 1.17-4.347.645-1.204.772-2.196.283-2.206-.488-.01-2.482-1.409-4.433-3.11-10.228-8.923-8.485-8.68-15.36-2.137-3.371 3.207-9.149 7.358-12.841 9.224-8.302 4.197-11.964 6.814-10.95 7.828.427.426-.184.407-1.355-.042-1.581-.606-1.896-.438-1.222.653.613.99.397 1.29-.663.918-.864-.303-3.091.523-4.949 1.834s-4.402 2.936-5.655 3.611c-9.823 5.299-23.914 13.393-29.187 16.766-3.493 2.235-6.606 4.063-6.92 4.063-.312 0-6.468 3.563-13.679 7.918-7.21 4.355-13.32 7.918-13.576 7.918-.819 0-21.378 12.177-24.316 14.402-1.556 1.179-4.482 2.809-6.504 3.622-2.023.813-3.676 1.814-3.676 2.225s-1.4 1.354-3.111 2.096c-1.711.743-5.782 2.883-9.05 4.758-6.851 3.93-7.744 2.59-2.256-3.393 8.19-8.928 28.535-34.361 28.245-35.307-.171-.557.155-.727.722-.375.568.35 2.355-1.094 3.971-3.211 1.614-2.118 3.595-4.531 4.402-5.362.806-.833 3.91-4.709 6.896-8.617 2.988-3.907 6.789-7.968 8.449-9.023 1.659-1.055 3.329-2.355 3.71-2.889s.889-.814 1.131-.622c.368.293 11.518-5.61 37.766-19.996a12053 12053 0 0 1 17.533-9.566c7.154-3.898 16.062-8.78 19.794-10.85 3.733-2.07 10.423-5.642 14.866-7.938 8.078-4.173 8.078-4.173 3.646-13.054-2.437-4.886-4.701-8.882-5.029-8.882s-3.241 1.46-6.474 3.243c-3.233 1.784-9.95 5.41-14.927 8.06s-9.558 5.203-10.18 5.673c-2.721 2.056-23.734 12.44-24.596 12.153-.524-.175.125-1.475 1.443-2.89s7.482-8.779 13.697-16.364c11.301-13.792 11.301-13.792 4.723-19.707-7.982-7.178-7.879-7.169-12.995-1.196m49.589 12.914a1.07 1.07 0 0 1-1.509 0c-.414-.415-.075-.755.754-.755s1.169.34.755.755m21.868 56.3c0 .275-.588.862-1.307 1.306-.808.5-.998.31-.497-.498.805-1.304 1.804-1.751 1.804-.808" clip-rule="evenodd"/></g><defs><clipPath id="a"><path fill="#ebebeb" d="M.738 0h257v210h-257z"/></clipPath></defs></svg>
