<svg xmlns="http://www.w3.org/2000/svg" width="257" height="256" fill="none" viewBox="0 0 257 256">
  <g clip-path="url(#a)">
    <path fill="#01579b" d="M53.14 203.791 9.346 159.995C4.15 154.669.932 147.141.932 139.782c0-3.407 1.92-8.733 3.369-11.782l40.427-84.204z"/>
    <path fill="#40c4ff" d="M203.048 52.209 159.252 8.413C155.432 4.573 147.471 0 140.733 0c-5.797 0-11.481 1.167-15.151 3.369L44.747 43.796zM105.35 256h106.111v-45.471l-79.16-25.276-72.422 25.276z"/>
    <path fill="#29b6f6" d="M44.728 180.209c0 13.513 1.694 16.826 8.413 23.582l6.738 6.738H211.46l-74.097-84.204-92.636-82.53z"/>
    <path fill="#01579b" d="M179.466 43.777H44.728L211.461 210.51h45.471V106.092L203.029 52.19c-7.565-7.585-14.284-8.413-23.563-8.413"/>
    <path fill="#ebebeb" d="M54.835 205.466c-6.738-6.756-8.413-13.419-8.413-25.257V45.471l-1.675-1.675v136.413c-.019 11.838-.019 15.113 10.088 25.257" opacity=".2"/>
    <path fill="#263238" d="M255.257 104.417v104.418h-45.471l1.675 1.694h45.471V106.093z" opacity=".2"/>
    <path fill="#ebebeb" d="M203.048 52.209c-8.356-8.357-15.188-8.413-25.257-8.413H44.747l1.675 1.675H177.79c5.025 0 17.71-.847 25.257 6.738" opacity=".2"/>
    <path fill="url(#b)" d="m255.257 104.418-52.209-52.21-43.796-43.795C155.432 4.573 147.471 0 140.733 0c-5.797 0-11.481 1.167-15.151 3.369L44.747 43.796 4.32 128c-1.45 3.068-3.37 8.394-3.37 11.782 0 7.359 3.238 14.868 8.414 20.213l40.352 40.07c.96 1.185 2.089 2.39 3.425 3.726l1.675 1.675 5.044 5.044 43.796 43.796 1.675 1.675h106.093V210.51h45.47V106.093z" opacity=".2"/>
  </g>
  <defs>
    <radialGradient id="b" cx="0" cy="0" r="1" gradientTransform="translate(12798.1 12797.6)scale(12798.1)" gradientUnits="userSpaceOnUse">
      <stop stop-color="#ebebeb" stop-opacity=".1"/>
      <stop offset="1" stop-color="#ebebeb" stop-opacity="0"/>
    </radialGradient>
    <clipPath id="a">
      <path fill="#ebebeb" d="M.932 0h256v256h-256z"/>
    </clipPath>
  </defs>
</svg>
