<svg width="224" height="257" viewBox="0 0 224 257" fill="none"
  xmlns="http://www.w3.org/2000/svg">
  <g clip-path="url(#clip0_75_1246)">
    <path fill-rule="evenodd" clip-rule="evenodd" d="M111.077 37.9862L190.33 83.0723L222.08 64.7416L111.365 0.826634L0.0975952 64.7416L31.8474 83.0723L111.072 37.9862" fill="#52B0E7"/>
    <path fill-rule="evenodd" clip-rule="evenodd" d="M0.656106 65.0837L32.6935 83.5775V175.088L111.08 220.355V256.661L0.0800781 192.913L0.659302 65.0811" fill="#3C76C3"/>
    <path fill-rule="evenodd" clip-rule="evenodd" d="M80.3694 111.077L111.228 128.891V165.193L95.2252 155.946L80.3754 147.373L80.3696 111.077" fill="#2E9D4D"/>
    <path fill-rule="evenodd" clip-rule="evenodd" d="M142.659 110.74L111.23 128.883V165.187L142.082 147.363L142.659 110.74Z" fill="#256F44"/>
    <path fill-rule="evenodd" clip-rule="evenodd" d="M221.507 65.0838L189.469 83.5776V174.078L151.143 197.21L111.083 220.353V256.66L111.371 256.826L221.611 193.188L221.509 65.0795" fill="#2E3B69"/>
    <path fill-rule="evenodd" clip-rule="evenodd" d="M111.224 128.883L80.3651 111.069V110.851L111.224 93.0341L111.604 92.8139L127.224 101.833L142.653 110.739L111.224 128.883Z" fill="#9FD62B"/>
    <path fill-rule="evenodd" clip-rule="evenodd" d="M41.1277 132.872L71.9863 150.687V186.989L55.9836 177.741L41.1338 169.168L41.1281 132.872" fill="#3C76C3"/>
    <path fill-rule="evenodd" clip-rule="evenodd" d="M102.847 132.872L71.988 150.687V186.989L102.843 169.166L102.847 132.872Z" fill="#2E3B69"/>
    <path fill-rule="evenodd" clip-rule="evenodd" d="M71.9863 150.688L41.1303 132.875L56.7496 123.639L71.9871 114.839L102.847 132.875L71.9871 150.688" fill="#52B0E7"/>
    <path fill-rule="evenodd" clip-rule="evenodd" d="M120.542 133.806L151.4 151.621V187.923L135.398 178.675L120.548 170.103L120.542 133.806" fill="#3C76C3"/>
    <path fill-rule="evenodd" clip-rule="evenodd" d="M182.264 133.806L151.406 151.621V187.923L182.26 170.101L182.264 133.806Z" fill="#2E3B69"/>
    <path fill-rule="evenodd" clip-rule="evenodd" d="M151.399 151.62L120.542 133.807V133.589L136.161 124.571L151.399 115.771L182.259 133.807L151.399 151.62Z" fill="#52B0E7"/>
    <path fill-rule="evenodd" clip-rule="evenodd" d="M81.6155 156.698L112.473 174.513V210.814L96.4713 201.568L81.6207 192.994L81.6152 156.698" fill="#3C76C3"/>
    <path fill-rule="evenodd" clip-rule="evenodd" d="M143.333 156.698L112.474 174.513V210.814L143.329 192.992L143.333 156.698Z" fill="#2E3B69"/>
    <path fill-rule="evenodd" clip-rule="evenodd" d="M112.476 174.508L81.6199 156.694V156.477L97.2383 147.459L112.476 138.658L143.336 156.694L112.476 174.508Z" fill="#52B0E7"/>
    <path fill-rule="evenodd" clip-rule="evenodd" d="M80.3694 62.5362L111.228 80.3513V116.653L95.2252 107.406L80.3754 98.833L80.3696 62.5362" fill="#3C76C3"/>
    <path fill-rule="evenodd" clip-rule="evenodd" d="M142.659 62.2082L111.23 80.3505V116.654L142.082 98.8297L142.659 62.2082Z" fill="#2E3B69"/>
    <path fill-rule="evenodd" clip-rule="evenodd" d="M111.224 80.3516L80.3651 62.5365V62.3189L111.224 44.502L111.604 44.2827L127.224 53.3008L142.653 62.2075L111.224 80.3516Z" fill="#52B0E7"/>
    <path fill-rule="evenodd" clip-rule="evenodd" d="M41.1277 84.3417L71.9863 102.156V138.458L55.9836 129.211L41.1338 120.638L41.1281 84.3417" fill="#3C76C3"/>
    <path fill-rule="evenodd" clip-rule="evenodd" d="M102.847 84.3417L71.988 102.156V138.458L102.843 120.636L102.847 84.3417Z" fill="#2E3B69"/>
    <path fill-rule="evenodd" clip-rule="evenodd" d="M71.9863 102.156L41.1303 84.3437L56.7496 75.108L71.9871 66.3067L102.847 84.3437L71.9871 102.156" fill="#52B0E7"/>
    <path fill-rule="evenodd" clip-rule="evenodd" d="M120.542 85.2735L151.4 103.089V139.391L135.398 130.143L120.548 121.569L120.542 85.2735Z" fill="#3C76C3"/>
    <path fill-rule="evenodd" clip-rule="evenodd" d="M182.264 85.2735L151.406 103.089V139.391L182.26 121.568L182.264 85.2735Z" fill="#2E3B69"/>
    <path fill-rule="evenodd" clip-rule="evenodd" d="M151.399 103.089L120.542 85.2755V85.0579L136.161 76.0398L151.399 67.2393L182.259 85.2755L151.399 103.089Z" fill="#52B0E7"/>
    <path fill-rule="evenodd" clip-rule="evenodd" d="M81.6155 108.167L112.473 125.981V162.283L96.4713 153.036L81.6207 144.463L81.6152 108.167" fill="#3C76C3"/>
    <path fill-rule="evenodd" clip-rule="evenodd" d="M143.333 108.167L112.474 125.981V162.283L143.329 144.46L143.333 108.167Z" fill="#2E3B69"/>
    <path fill-rule="evenodd" clip-rule="evenodd" d="M112.476 125.973L81.6199 108.16V107.943L97.2383 98.9236L112.476 90.1231L143.336 108.16L112.476 125.973Z" fill="#52B0E7"/>
  </g>
  <defs>
    <clipPath id="clip0_75_1246">
      <rect width="223" height="257" fill="#EBEBEB" transform="translate(0.0400391 -0.00292969)"/>
    </clipPath>
  </defs>
</svg>
