<svg width="257" height="172" viewBox="0 0 257 172" fill="none"
  xmlns="http://www.w3.org/2000/svg">
  <g clip-path="url(#clip0_74_1109)">
    <path d="M144.119 171.167H238.839C241.861 171.167 244.754 170.105 247.372 168.607C249.99 167.108 252.688 165.228 254.199 162.633C255.709 160.038 256.76 157.095 256.759 154.099C256.757 151.103 255.712 148.161 254.199 145.568L190.199 35.4867C188.688 32.8925 186.842 31.0111 184.225 29.5133C181.608 28.0156 177.861 26.9533 174.839 26.9533C171.816 26.9533 168.922 28.0156 166.305 29.5133C163.688 31.0111 161.842 32.8925 160.332 35.4867L144.119 63.6467L111.692 9.03132C110.18 6.43736 108.337 3.70419 105.719 2.20667C103.101 0.709141 100.208 0.5 97.1852 0.5C94.1627 0.5 91.2699 0.709141 88.6519 2.20667C86.0341 3.70419 83.3371 6.43736 81.8252 9.03132L2.46522 145.568C0.952239 148.161 0.759867 151.103 0.758551 154.099C0.757236 157.095 0.954516 160.038 2.46522 162.633C3.97592 165.227 6.67424 167.108 9.29188 168.607C11.9095 170.105 14.8025 171.167 17.8252 171.167H77.5586C101.227 171.167 118.455 160.549 130.465 140.447L159.479 90.1L174.839 63.6467L221.772 143.86H159.479L144.119 171.167ZM76.7052 143.86H34.8919L97.1852 36.34L128.759 90.1L107.844 126.559C99.8681 139.602 90.775 143.86 76.7052 143.86Z" fill="#00DC82"/>
  </g>
  <defs>
    <clipPath id="clip0_74_1109">
      <rect width="256" height="171" fill="#EBEBEB" transform="translate(0.758545 0.5)"/>
    </clipPath>
  </defs>
</svg>
