<svg xmlns="http://www.w3.org/2000/svg" width="256" height="256" fill="none" viewBox="0 0 256 256"><path fill="#858585" d="M137.176 196.434c0-32.898 26.6-59.566 59.412-59.566S256 163.536 256 196.434C256 229.331 229.4 256 196.588 256s-59.412-26.669-59.412-59.566"/><path fill="#ccc" d="M137.176 59.566c0-32.897 26.6-59.566 59.412-59.566S256 26.669 256 59.566v53.609c0 3.289-2.66 5.957-5.941 5.957H143.117c-3.281 0-5.941-2.668-5.941-5.957z"/><path fill="#4d4d4d" d="M118.824 196.434c0 32.897-26.6 59.566-59.412 59.566S0 229.331 0 196.434v-53.609c0-3.291 2.66-5.957 5.941-5.957h106.942c3.281 0 5.941 2.666 5.941 5.957z"/></svg>