<svg xmlns="http://www.w3.org/2000/svg" width="259" height="256" fill="none" viewBox="0 0 259 256"><path fill="url(#a)" d="M255.513 38.538 135.959 252.325c-2.471 4.414-8.812 4.439-11.316.05L2.716 38.563c-2.733-4.792 1.357-10.588 6.787-9.62l119.683 21.39a6.5 6.5 0 0 0 2.31 0l117.178-21.357c5.407-.984 9.522 4.764 6.839 9.562"/><path fill="url(#b)" d="M186.193.889 97.726 18.222a3.246 3.246 0 0 0-2.619 2.99l-5.446 91.928a3.253 3.253 0 0 0 3.975 3.359l24.634-5.693a3.26 3.26 0 0 1 3 .843 3.25 3.25 0 0 1 .913 2.979l-7.32 35.838a3.255 3.255 0 0 0 2.472 3.817 3.24 3.24 0 0 0 1.659-.061l15.211-4.626c2.358-.716 4.626 1.357 4.131 3.771l-11.635 56.293c-.724 3.521 3.959 5.44 5.911 2.423l1.301-2.015 72.096-143.88c1.212-2.415-.876-5.162-3.517-4.65l-25.361 4.895a3.242 3.242 0 0 1-3.731-4.09L189.946 4.98a3.24 3.24 0 0 0-.726-3.101 3.24 3.24 0 0 0-3.027-.99"/><defs><linearGradient id="a" x1="-.264" x2="148.536" y1="21.304" y2="223.386" gradientUnits="userSpaceOnUse"><stop stop-color="#41d1ff"/><stop offset="1" stop-color="#bd34fe"/></linearGradient><linearGradient id="b" x1="122.318" x2="149.236" y1="5.592" y2="190.242" gradientUnits="userSpaceOnUse"><stop stop-color="#ffea83"/><stop offset=".083" stop-color="#ffdd35"/><stop offset="1" stop-color="#ffa800"/></linearGradient></defs></svg>