<svg xmlns="http://www.w3.org/2000/svg" width="256" height="256" fill="none" viewBox="0 0 256 256">
  <g clip-path="url(#a)">
    <path fill="#35bdb2" d="M255.078.45H1.745v253.333h253.333z"/>
    <path fill="#ebebeb" fill-rule="evenodd" d="m166.181 88.109 20.705-25.267q-15.909-13.104-25.494-16.887t-31.249-5.505q-29.704 1.977-41.215 12.342-16.834 15.16-19.087 38.371 1.794 24.711 14.426 32.82t30.88 16.562l31.719 14.462q6.252 4.978 5.135 12.069t-8.929 10.037q-9.2 3.542-14.708 3.542t-22.667-3.542l-21.43-14.08-21.189 26.46q11.827 10.486 19.308 14.544 7.482 4.059 28.651 9.372 16.105.748 23.863 0 7.756-.747 23.451-5.344 13.51-6.935 19.045-12.251t9.49-15.159q4.584-10.446 4.155-20.69t-6.659-22.615q-8.953-10.762-18.201-15.937-9.25-5.175-37.817-17.047-11.205-3.6-14.808-6.599-3.604-3-4.723-9.658 1.103-9.431 6.314-11.946 5.212-2.517 19.753-2.516 9.467.538 14.651 2.515 5.183 1.98 16.63 11.947" clip-rule="evenodd"/>
  </g>
  <defs>
    <clipPath id="a">
      <path fill="#ebebeb" d="M0 0h256v256H0z"/>
    </clipPath>
  </defs>
</svg>
