<svg width="256" height="256" viewBox="0 0 256 256" fill="none" xmlns="http://www.w3.org/2000/svg">
<g clip-path="url(#clip0_18_950)">
<path d="M237 125.696L125.696 237C121.355 241.342 121.355 248.392 125.696 252.744C130.037 257.085 137.088 257.085 141.44 252.744L252.744 141.44C257.085 137.088 257.085 130.037 252.744 125.696C248.392 121.355 241.342 121.355 237 125.696ZM214.74 3.25593L3.25593 214.74C-1.08531 219.081 -1.08531 226.131 3.25593 230.483C7.60784 234.824 14.6584 234.824 18.9996 230.483L230.483 18.9996C234.824 14.6584 234.824 7.60784 230.483 3.25593C226.131 -1.08531 219.081 -1.08531 214.74 3.25593Z" fill="white"/>
</g>
<defs>
<clipPath id="clip0_18_950">
<rect width="256" height="256" fill="white"/>
</clipPath>
</defs>
</svg>
