<svg xmlns="http://www.w3.org/2000/svg" width="256" height="256" fill="none" viewBox="0 0 256 256"><path fill="#858585" d="M137.176 196.435c0-32.899 26.6-59.566 59.412-59.566S256 163.536 256 196.435C256 229.332 229.4 256 196.588 256s-59.412-26.668-59.412-59.565"/><path fill="#ccc" d="M137.176 59.566C137.176 26.67 163.776 0 196.588 0S256 26.67 256 59.566v53.61c0 3.289-2.66 5.956-5.941 5.956H143.117c-3.281 0-5.941-2.667-5.941-5.956z"/><path fill="#4d4d4d" d="M118.824 196.435c0 32.897-26.6 59.565-59.412 59.565S0 229.332 0 196.435v-53.61c0-3.29 2.66-5.956 5.941-5.956h106.942c3.281 0 5.941 2.666 5.941 5.956z"/></svg>