<svg width="261" height="256" viewBox="0 0 261 256" fill="none" xmlns="http://www.w3.org/2000/svg">
<path fill-rule="evenodd" clip-rule="evenodd" d="M0.883301 44.136C0.883301 19.7593 20.9058 -0.00195312 45.6048 -0.00195312H215.546C240.246 -0.00195312 260.268 19.7593 260.268 44.136V186.785C260.268 212.004 227.933 222.949 212.25 203.039L163.222 140.793V216.274C163.222 238.213 145.202 255.998 122.973 255.998H45.6048C20.9058 255.998 0.883301 236.237 0.883301 211.86V44.136ZM45.6048 35.3084C40.665 35.3084 36.6605 39.2607 36.6605 44.136V211.86C36.6605 216.735 40.665 220.688 45.6048 220.688H124.315C126.785 220.688 127.445 218.712 127.445 216.274V115.054C127.445 89.8348 159.78 78.8891 175.463 98.8001L224.491 161.046V44.136C224.491 39.2607 224.958 35.3084 220.019 35.3084H45.6048Z" fill="#12FFF7"/>
<path fill-rule="evenodd" clip-rule="evenodd" d="M0.883301 44.136C0.883301 19.7593 20.9058 -0.00195312 45.6048 -0.00195312H215.546C240.246 -0.00195312 260.268 19.7593 260.268 44.136V186.785C260.268 212.004 227.933 222.949 212.25 203.039L163.222 140.793V216.274C163.222 238.213 145.202 255.998 122.973 255.998H45.6048C20.9058 255.998 0.883301 236.237 0.883301 211.86V44.136ZM45.6048 35.3084C40.665 35.3084 36.6605 39.2607 36.6605 44.136V211.86C36.6605 216.735 40.665 220.688 45.6048 220.688H124.315C126.785 220.688 127.445 218.712 127.445 216.274V115.054C127.445 89.8348 159.78 78.8891 175.463 98.8001L224.491 161.046V44.136C224.491 39.2607 224.958 35.3084 220.019 35.3084H45.6048Z" fill="url(#paint0_linear_20_536)"/>
<path fill-rule="evenodd" clip-rule="evenodd" d="M0.883301 44.136C0.883301 19.7593 20.9058 -0.00195312 45.6048 -0.00195312H215.546C240.246 -0.00195312 260.268 19.7593 260.268 44.136V186.785C260.268 212.004 227.933 222.949 212.25 203.039L163.222 140.793V216.274C163.222 238.213 145.202 255.998 122.973 255.998H45.6048C20.9058 255.998 0.883301 236.237 0.883301 211.86V44.136ZM45.6048 35.3084C40.665 35.3084 36.6605 39.2607 36.6605 44.136V211.86C36.6605 216.735 40.665 220.688 45.6048 220.688H124.315C126.785 220.688 127.445 218.712 127.445 216.274V115.054C127.445 89.8348 159.78 78.8891 175.463 98.8001L224.491 161.046V44.136C224.491 39.2607 224.958 35.3084 220.019 35.3084H45.6048Z" fill="url(#paint1_linear_20_536)"/>
<path d="M215.547 -0.00195312C240.247 -0.00195312 260.269 19.7593 260.269 44.136V186.785C260.269 212.004 227.934 222.949 212.251 203.039L163.223 140.793V216.274C163.223 238.213 145.203 255.998 122.974 255.998C125.444 255.998 127.446 254.022 127.446 251.584V115.054C127.446 89.8348 159.781 78.8891 175.464 98.8001L224.492 161.046V8.82563C224.492 3.95029 220.488 -0.00195312 215.547 -0.00195312Z" fill="#B9FFB3"/>
<defs>
<linearGradient id="paint0_linear_20_536" x1="260.268" y1="255.998" x2="35.5616" y2="-2.92916" gradientUnits="userSpaceOnUse">
<stop stop-color="#B9FFB3"/>
<stop offset="1" stop-color="#B9FFB3" stop-opacity="0"/>
</linearGradient>
<linearGradient id="paint1_linear_20_536" x1="260.268" y1="255.998" x2="106.739" y2="195.491" gradientUnits="userSpaceOnUse">
<stop stop-color="#1A1A1A" stop-opacity="0.9"/>
<stop offset="1" stop-color="#1A1A1A" stop-opacity="0"/>
</linearGradient>
</defs>
</svg>
