<svg width="256" height="234" viewBox="0 0 256 234" fill="none" xmlns="http://www.w3.org/2000/svg">
<g clip-path="url(#clip0_18_1498)">
<path d="M30.5494 1.09766H147.35C163.658 1.09766 176.907 14.335 176.907 30.627C176.907 46.9191 163.658 60.1564 147.35 60.1564H30.5494C14.2422 60.1564 0.992516 46.9191 0.992516 30.627C0.992516 14.335 14.2422 1.09766 30.5494 1.09766ZM223.587 60.1564C206.925 60.1564 193.418 46.9356 193.418 30.627C193.418 14.3184 206.925 1.09766 223.587 1.09766C240.248 1.09766 253.755 14.3184 253.755 30.627C253.755 46.9356 240.248 60.1564 223.587 60.1564ZM108.213 89.2785H223.587C239.894 88.0566 253.959 100.479 255.182 116.771C256.405 133.063 243.971 147.115 227.664 148.337H224.81H108.213C91.9055 149.559 77.8405 137.136 76.6175 120.844C75.3944 104.552 87.8287 90.5004 104.136 89.2785H106.99H108.213ZM30.5494 174.201H147.35C163.658 174.201 176.907 187.438 176.907 203.73C176.907 220.022 163.658 233.26 147.35 233.26H30.5494C14.2422 233.26 0.992516 220.022 0.992516 203.73C0.992516 187.438 14.2422 174.201 30.5494 174.201ZM223.587 233.26C206.925 233.26 193.418 220.039 193.418 203.73C193.418 187.422 206.925 174.201 223.587 174.201C240.248 174.201 253.755 187.422 253.755 203.73C253.755 220.039 240.248 233.26 223.587 233.26Z" fill="#FF5722"/>
<path d="M31.3947 84.0127C48.2391 84.0127 61.7968 97.5704 61.7968 114.415C61.7968 131.259 48.2391 144.817 31.3947 144.817C14.5502 144.612 0.992516 131.054 0.992516 114.415C0.992516 97.5704 14.5502 84.0127 31.3947 84.0127Z" fill="#FF1744"/>
</g>
<defs>
<clipPath id="clip0_18_1498">
<rect width="256" height="233.198" fill="white" transform="translate(0 0.401367)"/>
</clipPath>
</defs>
</svg>
