<svg xmlns="http://www.w3.org/2000/svg" width="256" height="257" fill="none" viewBox="0 0 256 257"><g clip-path="url(#a)"><path fill="url(#b)" d="M116.85 5.045 4.529 117.274a15.397 15.397 0 0 0 0 21.813L116.85 251.316c6.039 6.033 15.792 6.033 21.831 0l47.094-47.056c5.408-5.404 5.408-14.165 0-19.568s-14.176-5.404-19.584 0l-35.702 35.672c-1.503 1.502-3.784 1.502-5.287 0l-89.696-89.622c-1.504-1.502-1.504-3.781 0-5.283l89.696-89.623c1.503-1.501 3.784-1.501 5.287 0l35.702 35.673c5.408 5.404 14.176 5.404 19.584 0 5.408-5.403 5.408-14.164 0-19.568l-47.089-47.05c-6.064-5.904-15.821-5.856-21.836.154"/><path fill="url(#c)" d="M116.85 5.045 4.529 117.274a15.397 15.397 0 0 0 0 21.813L116.85 251.316c6.039 6.033 15.792 6.033 21.831 0l47.094-47.056c5.408-5.404 5.408-14.165 0-19.568s-14.176-5.404-19.584 0l-35.702 35.672c-1.503 1.502-3.784 1.502-5.287 0l-89.696-89.622c-1.504-1.502-1.504-3.781 0-5.283l89.696-89.623c3.742-3.226 9.849-9.76 18.815-11.29q9.996-1.703 21.857 7.5L138.686 4.89c-6.064-5.903-15.821-5.855-21.836.155"/><path fill="url(#d)" d="M196.646 174.254c5.408 5.404 14.176 5.404 19.584 0l34.74-34.71a15.4 15.4 0 0 0 .001-21.812l-35.043-34.89c-5.42-5.397-14.191-5.389-19.602.018-5.408 5.403-5.408 14.164 0 19.568l23.667 23.648c1.503 1.502 1.503 3.781 0 5.283l-23.347 23.327c-5.408 5.404-5.408 14.165 0 19.568"/><path fill="url(#e)" d="M128.327 159.043c16.749 0 30.326-13.567 30.326-30.302s-13.577-30.302-30.326-30.302S98 112.006 98 128.742s13.578 30.302 30.327 30.302"/></g><defs><linearGradient id="b" x1="11789" x2="22462.7" y1=".501" y2="6518.81" gradientUnits="userSpaceOnUse"><stop stop-color="#4285eb"/><stop offset="1" stop-color="#2ec7ff"/></linearGradient><linearGradient id="c" x1="13220.6" x2="7948.76" y1=".5" y2="27246.9" gradientUnits="userSpaceOnUse"><stop stop-color="#29cdff"/><stop offset=".379" stop-color="#148eff"/><stop offset="1" stop-color="#0a60ff"/></linearGradient><linearGradient id="d" x1="4598.77" x2="-2260.73" y1="-1212.24" y2="9515.46" gradientUnits="userSpaceOnUse"><stop stop-color="#fa816e"/><stop offset=".415" stop-color="#f74a5c"/><stop offset="1" stop-color="#f51d2c"/></linearGradient><linearGradient id="e" x1="4230.2" x2="1947.83" y1="-2064.54" y2="7065.26" gradientUnits="userSpaceOnUse"><stop stop-color="#fa8e7d"/><stop offset=".513" stop-color="#f74a5c"/><stop offset="1" stop-color="#f51d2c"/></linearGradient><clipPath id="a"><path fill="#ebebeb" d="M0 .5h256v256H0z"/></clipPath></defs></svg>
