<svg width="257" height="100" viewBox="0 0 257 100" fill="none" xmlns="http://www.w3.org/2000/svg">
<g clip-path="url(#clip0_20_616)">
<path d="M139.946 0.61444C136.594 0.75444 130.93 1.65444 130.93 2.03444C130.93 2.19244 134.922 4.19244 135.228 4.19244C135.508 4.19244 140.142 6.50444 141.172 7.14444C142.516 8.00444 143.478 8.78444 143.196 8.78444C143.016 8.78444 138.258 6.94244 136.454 6.16844C134.986 5.55044 128.884 3.73044 125.914 3.02844C124.306 2.65244 123.626 2.51244 120.892 2.01244C116.86 1.27644 112.118 1.23244 110.056 1.91044C107.102 2.87044 106.438 4.05044 106.438 8.40244C106.438 10.8024 106.556 11.8164 107.078 13.9724C107.306 14.9104 107.946 16.9724 108.244 17.6684C108.33 17.8884 108.61 18.5684 108.844 19.1684C109.086 19.7624 109.814 21.3004 110.454 22.5584C114.048 29.6924 119.43 35.6384 127.016 40.8704C129.408 42.5104 135.908 45.6204 138.516 46.3644C139.18 46.5444 139.4 46.9184 138.86 46.9184C138.26 46.9184 132.76 45.4024 131.634 44.9264C131.205 44.7365 130.771 44.5617 130.33 44.4024C126.416 42.8244 121.416 39.5744 117.282 35.8784C112.751 31.8484 109.13 26.901 106.658 21.3644C105.072 17.7844 103.994 13.6144 103.728 9.98044C103.572 7.90244 103.408 7.40244 102.868 7.42644C102.688 7.42644 100.978 7.36444 99.0938 7.26244C93.9698 7.04244 86.9698 7.60644 80.0398 8.80244C66.7898 11.0584 52.4938 16.2704 37.7818 24.2144C35.3352 25.5392 32.9179 26.9175 30.5318 28.3484C30.2518 28.5124 29.3678 29.0504 28.5638 29.5504C27.7658 30.0504 26.8218 30.6064 26.4778 30.8244C25.7178 31.2704 17.3058 36.9804 16.2978 37.7384C15.9218 38.0124 14.8758 38.7924 13.9938 39.4344C9.99983 42.3864 1.30583 49.4804 0.80583 50.2004C0.56383 50.5604 0.94583 50.7404 1.46183 50.5604C1.72783 50.4564 2.40783 50.3164 2.95383 50.2404C3.51583 50.1524 4.96183 49.7784 6.16383 49.3804C7.38383 48.9964 8.69583 48.5984 9.07183 48.4964C12.0478 47.8004 13.2518 47.5584 14.9918 47.3004C15.7818 47.2004 16.9458 47.0204 17.6018 46.9184C25.7578 45.7224 29.6498 45.4264 33.2818 45.6984C41.1718 46.3384 48.7198 47.6844 53.0398 49.2144C56.2738 50.3784 62.8518 53.9344 65.7438 56.0664C67.4158 57.3264 72.7898 62.6764 73.9778 64.2924C74.8978 65.5744 75.9218 66.6924 76.1638 66.6924C76.2438 66.6924 76.3438 62.6124 76.3678 57.6444L76.4218 48.6204L86.9858 48.5604C95.2978 48.5204 97.6018 48.5824 97.7438 48.7604C97.9458 49.0204 98.4298 49.8804 100.016 52.8084C101.524 55.6284 102.266 56.9884 102.728 57.8004C102.968 58.2464 103.524 59.2784 103.994 60.0984C104.43 60.9184 105.25 62.4344 105.814 63.4724C106.376 64.5124 106.836 65.3944 106.836 65.4324C106.836 65.6124 107.664 66.6924 107.806 66.6924C107.884 66.6924 108.086 66.3864 108.226 66.0524C108.384 65.6924 108.806 64.8944 109.15 64.2924C109.51 63.6924 110.15 62.5204 110.594 61.7004C111.04 60.8804 111.642 59.7404 111.962 59.2004C112.844 57.6204 113.766 55.9104 114.532 54.5124C115.344 52.9676 116.18 51.4354 117.04 49.9164C117.298 49.4164 117.62 48.8924 117.72 48.7604C117.884 48.5804 120.25 48.5184 128.806 48.5564L139.666 48.6184L139.726 66.2524C139.766 80.1424 139.822 83.8624 140.026 83.8624C140.142 83.8384 140.946 83.3764 141.774 82.7984C142.938 81.9864 143.438 81.4864 143.978 80.5644C145.204 78.4704 148.68 75.1744 151.008 73.8924C153.837 72.3283 156.88 71.1868 160.04 70.5044C163.25 69.8244 164.196 69.7244 171.486 69.4644C184.79 69.0044 186.758 68.9244 186.86 68.8244C186.922 68.7704 186.744 68.2464 186.478 67.6444C186.198 67.0664 185.718 65.9884 185.376 65.2704C184.11 62.5364 184.11 61.6204 185.438 60.2784C186.338 59.3384 188.664 58.5184 192.664 57.7224C193.322 57.5824 194.15 57.4024 194.484 57.2864C194.83 57.1844 195.25 57.1064 195.43 57.1064C195.938 57.1064 199.93 56.1284 200.774 55.8084C201.354 55.5684 204.486 54.8884 208.22 54.1684C209.844 53.8484 214.064 53.0124 217.556 52.3084C219.766 51.8724 222.072 51.4104 222.672 51.2924C223.274 51.1764 224.142 50.9964 224.58 50.9184C225.024 50.8184 225.602 50.6924 225.884 50.6524C226.164 50.5984 227.572 50.3164 229 50.0204C230.071 49.7856 231.147 49.5768 232.228 49.3944C233.236 49.3004 240.806 47.4804 242.548 46.9184C245.322 46.0184 246.142 45.6604 247.892 44.4884C249.774 43.2084 250.298 42.5124 252.164 38.7924C254.236 34.6604 254.532 33.9644 255.118 32.2224C256.018 29.4504 255.962 28.3944 254.814 27.2304C254.008 26.4344 252.282 25.6144 251.024 25.4344C250.08 25.3164 249.954 25.3544 249.494 25.8544C249.212 26.1544 248.97 26.5124 248.97 26.6364C248.97 26.8164 248.65 27.6924 247.75 29.8484C247.664 30.0684 247.486 30.6064 247.344 31.0424C247.228 31.4884 246.984 32.1064 246.844 32.4424C246.586 33.0024 246.564 32.9024 246.664 31.3484C246.766 29.8084 247.024 28.5124 247.61 26.5504C247.712 26.1764 247.852 25.5364 247.908 25.1364L248.008 24.4164L245.922 23.5824C243.752 22.6824 241.882 21.9024 240.806 21.4184C240.438 21.2864 239.54 20.9264 238.798 20.6444C238.032 20.3644 237.11 20.0044 236.728 19.8244C236.032 19.5163 235.328 19.2249 234.618 18.9504C233.274 18.4264 228.578 16.8324 224.578 15.5744C221.908 14.7556 219.234 13.9489 216.556 13.1544C215.613 12.9147 214.676 12.656 213.744 12.3784C213.424 12.2924 212.634 12.0744 212.032 11.9184C208.5 10.9424 207.58 10.6984 206.312 10.3384C205.613 10.1373 204.91 9.95055 204.204 9.77844C203.822 9.68444 202.784 9.44244 201.9 9.22244C200.352 8.84044 193.868 7.34844 190.352 6.54244L187.844 5.96444C187.4 5.86444 186.604 5.70644 186.04 5.60444C185.494 5.50444 184.352 5.28444 183.524 5.10444C182.704 4.95044 180.938 4.60444 179.61 4.38644C178.29 4.15244 176.704 3.87244 176.102 3.77044C170.556 2.77044 170.182 2.71444 160.242 1.61444C154.118 0.91844 145.882 0.33244 143.876 0.43444C143.556 0.43444 141.776 0.51244 139.946 0.61444ZM116.736 10.4564C122.04 12.1764 127.196 14.5124 130.728 16.7924C133.54 18.6064 137.032 21.5044 137.978 22.8004L138.376 23.3404L137.618 23.0424C137.198 22.8624 136.314 22.4824 135.65 22.1604C132.118 20.5204 131.736 20.3864 131.736 20.7464C131.736 20.8404 132.556 22.1604 133.54 23.6364C134.548 25.1364 135.344 26.4564 135.344 26.5764C135.344 26.6764 134.97 26.5124 134.5 26.1924C132.696 24.9564 128.46 23.1764 128.22 23.5364C128.158 23.6364 129.46 25.2924 131.134 27.2304C132.774 29.1684 134.142 30.8244 134.142 30.9504C134.142 31.2464 133.822 31.2064 132.298 30.6444C130.728 30.0904 130.33 30.0284 130.33 30.4104C130.33 30.6684 133.72 35.2384 135.064 36.8164C135.446 37.2544 135.75 37.6764 135.75 37.7764C135.75 38.2544 131.048 35.2004 127.72 32.5664C122.96 28.7704 118.36 23.6764 115.94 19.4664C113.946 16.0264 113.266 14.1764 113.266 12.1364C113.266 10.9424 113.322 10.7004 113.766 10.2764C114.026 10.0044 114.352 9.77644 114.47 9.77644C114.586 9.77644 115.594 10.0824 116.736 10.4564ZM180.118 17.5664C182.04 17.9104 184.672 18.3644 185.938 18.5904C187.204 18.8104 188.75 19.0664 189.352 19.1684C189.954 19.2864 190.812 19.4424 191.258 19.5424C191.698 19.6444 192.564 19.8244 193.166 19.9644C195.15 20.4044 195.634 20.5044 198.884 21.2624C202.376 22.0824 203.142 22.2384 204.204 22.4564C205.11 22.6364 206.008 22.9804 206.008 23.1364C206.008 23.2004 205.352 23.5824 204.548 23.9964C202.9 24.8164 202.556 24.8784 195.774 25.1364C191.158 25.3324 188.688 25.2764 186.438 24.9164C181.898 24.2164 179.556 22.9424 177.728 20.1844C177.088 19.2464 176.666 18.9644 175.196 18.5904C174.656 18.4264 173.83 18.2064 173.392 18.0664C172.946 17.9264 172.188 17.7064 171.704 17.5664C170.258 17.1924 171.08 16.9724 173.994 16.9724C176 16.9724 177.408 17.1064 180.118 17.5664ZM204.266 45.4664C204.101 45.5056 203.93 45.5056 203.766 45.4664C203.626 45.4024 203.726 45.3644 204.008 45.3644C204.282 45.3644 204.384 45.4044 204.268 45.4644L204.266 45.4664ZM203.4 45.7004C203.4 45.8004 203.166 45.9404 202.86 46.0044C202.236 46.1604 199.79 46.8644 198.986 47.1204C198.704 47.2224 197.798 47.5044 196.978 47.7404C194.908 48.3404 189.892 49.9724 188.548 50.4964C186.016 51.4564 180.072 54.6064 179.236 55.4504C177.986 56.6684 177.602 57.9804 177.79 60.4964C177.844 61.5584 177.986 62.8964 178.11 63.4724C178.352 64.7324 178.21 65.0744 177.728 64.4504C177.244 63.8324 176.22 61.5984 175.922 60.4964C175.758 60.0044 175.58 59.3404 175.478 59.0204C175.118 57.8864 175.258 56.5424 175.822 55.7304C176.58 54.5664 179.314 52.7144 182.524 51.1764C184.048 50.4344 188.484 48.9164 192.564 47.7224C193.384 47.4824 194.29 47.2004 194.572 47.1224C197.462 46.1444 203.4 45.2064 203.4 45.7004ZM139.908 47.0424C139.844 47.0984 139.666 47.1224 139.524 47.0584C139.36 47.0044 139.424 46.9424 139.642 46.9424C139.868 46.9184 139.986 46.9824 139.908 47.0424Z" fill="#850000"/>
<path d="M97.8061 85.6606V99.6366H107.806C115.314 99.6366 117.86 99.5766 118.04 99.3966C118.344 99.0966 118.408 71.6846 118.102 71.6846C118.002 71.6846 117.862 71.8406 117.798 72.0206C117.718 72.2006 115.532 75.6146 112.922 79.6066C108.79 85.9186 107.642 87.4566 107.642 86.6766C107.642 86.5366 100.798 75.8566 99.0481 73.2766C98.8136 72.9428 98.6069 72.5903 98.4301 72.2226C98.2661 71.9186 98.0701 71.6826 97.9701 71.6826C97.8841 71.6826 97.8061 77.9726 97.8061 85.6606Z" fill="#850000"/>
</g>
<defs>
<clipPath id="clip0_20_616">
<rect width="256" height="100" fill="white" transform="translate(0.039978 -0.00292969)"/>
</clipPath>
</defs>
</svg>
