<svg width="256" height="138" viewBox="0 0 256 138" fill="none" xmlns="http://www.w3.org/2000/svg">
<path d="M59.293 67.1719C62.2714 61.9746 60.4465 55.3932 55.2169 52.472C49.9872 49.5508 43.3333 51.3958 40.3549 56.5931L5.39287 117.601C2.41446 122.799 4.23943 129.38 9.46904 132.301C14.6987 135.223 21.3526 133.378 24.331 128.18L59.293 67.1719Z" fill="#C5F74F"/>
<path d="M134.652 20.3936C137.63 15.1963 135.805 8.61492 130.576 5.69367C125.346 2.77243 118.692 4.61753 115.714 9.81481L80.7516 70.8232C77.7732 76.0205 79.5981 82.6018 84.8277 85.5231C90.0574 88.4443 96.7113 86.5992 99.6897 81.4019L134.652 20.3936Z" fill="#C5F74F"/>
<path d="M250.607 20.3975C253.586 15.2002 251.761 8.61882 246.531 5.69758C241.301 2.77634 234.647 4.62143 231.669 9.81872L196.707 70.8271C193.729 76.0244 195.554 82.6057 200.783 85.527C206.013 88.4482 212.667 86.6031 215.645 81.4058L250.607 20.3975Z" fill="#C5F74F"/>
<path d="M175.224 67.1719C178.203 61.9746 176.378 55.3932 171.148 52.472C165.918 49.5508 159.265 51.3958 156.286 56.5931L121.324 117.601C118.346 122.799 120.171 129.38 125.4 132.301C130.63 135.223 137.284 133.378 140.262 128.18L175.224 67.1719Z" fill="#C5F74F"/>
</svg>
