<svg width="256" height="52" viewBox="0 0 256 52" fill="none"
  xmlns="http://www.w3.org/2000/svg">
  <g clip-path="url(#clip0_18_1221)">
    <path d="M243.846 8.2219L245.055 0H255.695L254.546 8.2219H243.846Z" fill="#FF4B4B"/>
    <path d="M12.4538 41.5932C9.35039 41.5932 6.90196 41.3715 5.10846 40.9282C3.31496 40.4848 2.01517 39.7594 1.2091 38.7518C0.403034 37.7442 0 36.3739 0 34.6408C0 33.8751 0.0604551 33.1093 0.181365 32.3435L0.362731 31.0135C0.685158 28.7565 1.30986 27.0436 2.23684 25.8748C3.16382 24.706 4.61474 23.8798 6.58961 23.3962C8.56448 22.9125 11.3857 22.6707 15.0533 22.6707H16.2624C19.124 22.6707 21.3608 22.8823 22.9729 23.3055C24.5851 23.7287 25.7539 24.4239 26.4793 25.3912H26.6607L26.963 22.5498C27.0436 21.8243 27.0839 21.3608 27.0839 21.1593C27.0839 20.1921 26.8824 19.4867 26.4793 19.0434C26.0763 18.6001 25.4617 18.3079 24.6355 18.1668C23.8092 18.0257 22.5901 17.9552 20.9779 17.9552H19.7688C17.8746 17.9552 16.4337 18.0459 15.4463 18.2273C14.4589 18.4086 13.7737 18.6907 13.3908 19.0736C13.0079 19.4565 12.756 19.9905 12.6351 20.6757L12.5747 20.8571H2.53912L2.66003 19.9502C2.98245 17.6529 3.71799 15.9199 4.86664 14.7511C6.01529 13.5823 7.82894 12.7661 10.3076 12.3027C12.7863 11.8392 16.343 11.6074 20.9779 11.6074H22.4289C26.2577 11.6074 29.2301 11.8593 31.346 12.3631C33.4619 12.8669 35.0136 13.7838 36.001 15.1138C36.9885 16.4438 37.4822 18.3985 37.4822 20.978C37.4822 22.0259 37.3411 23.6178 37.059 25.7539L34.8826 41.1095H24.4239L24.968 37.8449H24.8471C24.0007 38.8122 23.1745 39.5578 22.3684 40.0818C21.5623 40.6057 20.4943 40.9886 19.1643 41.2304C17.8343 41.4723 16.0206 41.5932 13.7233 41.5932H12.4538ZM18.0761 35.1245C20.2525 35.1245 21.8646 35.0338 22.9125 34.8524C23.9604 34.6711 24.6858 34.3688 25.0889 33.9456C25.4919 33.5224 25.7539 32.8876 25.8748 32.0413L25.9957 31.5576C26.036 31.3561 26.0562 31.074 26.0562 30.7112C26.0562 30.147 25.8748 29.7137 25.5121 29.4115C25.1493 29.1092 24.4743 28.8976 23.4868 28.7767C22.4994 28.6558 21.0384 28.5953 19.1038 28.5953H18.4388C16.2624 28.5953 14.6402 28.6961 13.5722 28.8976C12.5041 29.0991 11.7686 29.4115 11.3656 29.8346C10.9625 30.2578 10.7006 30.8926 10.5796 31.739L10.5192 32.2226L10.4587 32.8272C10.4587 33.4317 10.6804 33.9053 11.1237 34.2479C11.5671 34.5904 12.2825 34.8222 13.2699 34.9431C14.2573 35.064 15.6579 35.1245 17.4715 35.1245H18.0761Z" fill="#EBEBEB"/>
    <path d="M42.8323 12.0911H53.4724L52.7469 16.6252H52.8678C53.7545 15.3758 54.7318 14.3884 55.7999 13.6629C56.8679 12.9374 58.1375 12.4135 59.6086 12.0911C61.0796 11.7686 62.8832 11.6074 65.0193 11.6074H65.5634C68.707 11.6074 71.226 11.9097 73.1203 12.5142C75.0145 13.1188 76.4151 14.1465 77.3219 15.5975C78.2287 17.0484 78.6821 19.0233 78.6821 21.5221C78.6821 22.57 78.5814 23.9604 78.3799 25.6935L76.143 41.1095H65.5029L67.6189 26.0562C67.7398 25.2098 67.8002 24.4844 67.8002 23.8798C67.8002 22.711 67.5786 21.8344 67.1352 21.25C66.6919 20.6656 66.0067 20.2727 65.0797 20.0711C64.1528 19.8696 62.8631 19.7689 61.2106 19.7689H60.5456C58.4498 19.7689 56.7772 20.0107 55.5278 20.4943C54.2784 20.978 53.3414 21.7135 52.7167 22.7009C52.092 23.6884 51.6587 25.0083 51.4169 26.6607L49.3614 41.1095H38.7213L42.8323 12.0911Z" fill="#EBEBEB"/>
    <path d="M79.9817 41.1093L84.0927 12.0908H94.7328L90.6218 41.1093H79.9817Z" fill="#EBEBEB"/>
    <path d="M98.7528 12.0911H109.393L108.667 16.6252H108.788C109.877 15.0534 111.307 13.8241 113.081 12.9374C114.854 12.0508 117.131 11.6074 119.912 11.6074H120.638C124.023 11.6074 126.572 12.1011 128.285 13.0886C129.998 14.076 131.116 15.6781 131.64 17.8948H131.701C132.829 15.799 134.411 14.2271 136.447 13.1793C138.482 12.1314 141.071 11.6074 144.215 11.6074H144.88C147.742 11.6074 150.009 11.8895 151.681 12.4538C153.354 13.018 154.573 13.9652 155.339 15.2952C156.105 16.6252 156.487 18.459 156.487 20.7966C156.487 21.8848 156.346 23.5171 156.064 25.6935L153.888 41.1095H143.248L145.424 25.9957C145.545 25.1494 145.606 24.4239 145.606 23.8194C145.606 22.7312 145.414 21.8949 145.031 21.3105C144.648 20.7261 144.094 20.323 143.369 20.1014C142.643 19.8797 141.676 19.7689 140.467 19.7689H139.862C137.807 19.7689 136.225 19.9905 135.117 20.4339C134.008 20.8772 133.212 21.5724 132.729 22.5196C132.245 23.4667 131.882 24.8068 131.64 26.5398L129.585 41.1095H118.945L121.061 25.9957C121.182 25.4315 121.242 24.7262 121.242 23.8798C121.242 22.7513 121.051 21.8848 120.668 21.2802C120.285 20.6757 119.741 20.2727 119.036 20.0711C118.33 19.8696 117.393 19.7689 116.224 19.7689H115.62C113.524 19.7689 111.932 19.9905 110.844 20.4339C109.756 20.8772 108.96 21.5624 108.456 22.4893C107.952 23.4163 107.579 24.7866 107.337 26.6003L105.282 41.1095H94.6419L98.7528 12.0911Z" fill="#EBEBEB"/>
    <path d="M174.998 41.5932C171.008 41.5932 167.854 41.311 165.537 40.7468C163.219 40.1825 161.497 39.1548 160.368 37.6636C159.24 36.1724 158.675 34.0363 158.675 31.2553C158.675 29.6835 158.776 28.2527 158.978 26.963L159.098 25.8144C159.663 21.784 160.63 18.7613 162 16.7461C163.371 14.7309 165.275 13.3707 167.713 12.6654C170.152 11.9601 173.547 11.6074 177.9 11.6074H179.774C183.522 11.6074 186.535 11.8694 188.812 12.3933C191.089 12.9173 192.792 13.8644 193.921 15.2347C195.049 16.605 195.613 18.5195 195.613 20.978C195.613 22.1468 195.533 23.235 195.372 24.2425L194.767 28.7767H169.134L169.013 29.744C168.892 30.3485 168.832 30.8523 168.832 31.2553C168.832 32.3032 169.084 33.0791 169.587 33.5829C170.091 34.0867 170.817 34.4192 171.764 34.5804C172.711 34.7416 174.091 34.8222 175.905 34.8222H177.054C179.028 34.8222 180.53 34.7114 181.558 34.4897C182.585 34.268 183.311 33.9254 183.734 33.462C184.157 32.9985 184.429 32.3435 184.55 31.4972V31.3762H194.525L194.404 32.2831C194.042 34.7819 193.205 36.6963 191.895 38.0263C190.586 39.3563 188.752 40.2833 186.394 40.8073C184.036 41.3312 180.923 41.5932 177.054 41.5932H174.998ZM185.517 23.2753L185.638 22.1871C185.719 21.9049 185.759 21.5019 185.759 20.978C185.759 20.1719 185.558 19.5573 185.155 19.1341C184.752 18.7109 184.097 18.4086 183.19 18.2273C182.283 18.0459 181.003 17.9552 179.351 17.9552H178.142C176.006 17.9552 174.384 18.1164 173.275 18.4389C172.167 18.7613 171.371 19.2852 170.887 20.0107C170.404 20.7361 170.061 21.8243 169.859 23.2753H185.517Z" fill="#EBEBEB"/>
    <path d="M193.269 51.3867C192.382 51.3867 191.657 51.3463 191.093 51.2657L191.274 50.238C191.919 50.3186 192.624 50.3589 193.39 50.3589C194.357 50.3589 195.113 50.1675 195.657 49.7846C196.201 49.4017 196.645 48.7266 196.987 47.7593C197.33 46.7921 197.642 45.3613 197.924 43.467L202.337 12.0908H203.607L199.194 43.5275C198.912 45.5024 198.549 47.054 198.106 48.1825C197.662 49.311 197.058 50.1272 196.292 50.631C195.526 51.1348 194.519 51.3867 193.269 51.3867Z" fill="#EBEBEB" stroke="#EBEBEB" stroke-width="0.934307"/>
    <path d="M220.567 41.5328C216.415 41.5328 213.292 41.3817 211.196 41.0794C209.1 40.7771 207.609 40.2028 206.722 39.3564C205.836 38.51 205.392 37.2002 205.392 35.4268C205.392 34.8626 205.423 34.3487 205.483 33.8852C205.543 33.4217 205.614 32.928 205.695 32.4041H206.964C206.763 33.4923 206.662 34.4596 206.662 35.3059C206.662 36.7568 207.055 37.835 207.841 38.5403C208.627 39.2456 209.977 39.7292 211.891 39.9912C213.806 40.2532 216.697 40.3842 220.567 40.3842H222.682C226.229 40.3842 228.929 40.1625 230.783 39.7191C232.637 39.2758 233.947 38.5907 234.713 37.6637C235.479 36.7367 235.983 35.4067 236.224 33.6736C236.386 32.666 236.466 31.8398 236.466 31.195C236.466 29.9859 236.093 29.069 235.348 28.4443C234.602 27.8196 233.272 27.3863 231.358 27.1445C229.443 26.9027 226.572 26.7616 222.743 26.7213C218.833 26.681 215.861 26.4896 213.826 26.147C211.79 25.8044 210.38 25.2704 209.594 24.5449C208.808 23.8194 208.415 22.7917 208.415 21.4617C208.415 20.8571 208.516 19.9302 208.717 18.6808C208.959 16.8268 209.513 15.4061 210.38 14.4187C211.246 13.4312 212.687 12.7259 214.702 12.3027C216.718 11.8796 219.66 11.668 223.529 11.668H225.04C228.506 11.668 231.186 11.8493 233.081 12.2121C234.975 12.5748 236.345 13.1995 237.192 14.0862C238.038 14.9728 238.461 16.2424 238.461 17.8948C238.461 18.5397 238.381 19.4868 238.219 20.7362H237.01C237.172 19.6077 237.252 18.6808 237.252 17.9553C237.252 16.585 236.879 15.5371 236.134 14.8116C235.388 14.0862 234.149 13.5723 232.416 13.27C230.683 12.9678 228.204 12.8166 224.98 12.8166H223.468C219.841 12.8166 217.111 13.0081 215.277 13.3909C213.443 13.7738 212.153 14.3784 211.408 15.2046C210.662 16.0308 210.168 17.2701 209.926 18.9226C209.765 19.9705 209.685 20.7564 209.685 21.2803C209.685 22.4088 210.037 23.2653 210.743 23.8497C211.448 24.4341 212.728 24.8472 214.581 25.089C216.435 25.3308 219.196 25.4719 222.864 25.5122C226.894 25.5525 229.947 25.7339 232.023 26.0563C234.098 26.3787 235.559 26.9228 236.406 27.6886C237.252 28.4543 237.675 29.5828 237.675 31.0741C237.675 31.7189 237.595 32.6257 237.434 33.7945C237.151 35.8097 236.557 37.3614 235.65 38.4496C234.743 39.5378 233.272 40.3237 231.237 40.8073C229.202 41.291 226.33 41.5328 222.622 41.5328H220.567Z" fill="#EBEBEB" stroke="#EBEBEB" stroke-width="0.934307"/>
  </g>
  <defs>
    <clipPath id="clip0_18_1221">
      <rect width="256" height="52" fill="#EBEBEB"/>
    </clipPath>
  </defs>
</svg>
