<svg xmlns="http://www.w3.org/2000/svg" width="256" height="226" fill="none" viewBox="0 0 256 226"><g fill-rule="evenodd" clip-path="url(#a)" clip-rule="evenodd"><path fill="#fefefe" d="M40.49 38.839h165.047v141.793H40.491z"/><path fill="#c7764e" d="m182.88 19.353 6.401 27.832 6.544 10.677-67.22 46.73-71.826-46.95 15.663-15.973 1.34-18.07-1.516-4.242z"/><path fill="#aa6b44" d="m11.916 93.436 25.625-22.857 8.054-2.187 27.573 49.269L.06 153.422zM254.898 153.29l-77.593-29.931 29.535-60.304 36.169 30.571z"/><path fill="#bcac9c" d="m216.502 71.754 2.35-16.987 4.943-19.529 2.54-22.578 1.661-3.146 5.025 2.896 17.228 13.934-7.24 67.282zM38.569 71.734C30.66 80.16 20.96 86.399 11.917 93.435c-3.352-22.292-6.15-44.645-7.11-67.19 7.007-2.089 13.37-.279 19.474 3.177a15.6 15.6 0 0 1 3.97 3.939c4.55 12.487 12.287 24.136 10.318 38.373"/><path fill="#d1d2c3" d="m196.611 202.515 45.715-29.169q-22.946 41.147-42.091 47.949-19.146 6.804-62.075-10.936l23.769-6.159 1.977-.257zM57.395 221.294Q31.4 213.372 10.75 171.239l49.027 32.293 33.096.709 9.029 7.44q-18.509 17.536-44.506 9.613"/><path fill="#9c5d3e" d="m233.336 11.328-40.878 23.036 16.24 14.046-13.731 9.015-24.128-27.732 12.043-10.343 48.473-17.303z"/><path fill="#9c5d3d" d="M84.506 33.462 58.015 57.507 47.72 47.416l5.618-4.276 9.144-8.221-9.975-10.572-30.291-10.689L23.697.76l48.569 18.598z"/><path fill="#fefefe" d="m163.89 204.952-12.939-20.229-10.198-10.533-2.67-22.962-20.395-.531-7.213 6.383q6.287 11.522 4.73 17.11-1.557 5.589-14.342 17.389l-10.242 13.373-23.31-44.152 4.252-14.335 14.849-13.305 6.659-7.092 6.688-4.462 27.841-15.409 27.645 15.344 4.594 4.208 6.322 6.349 2.89 1.377 18.837 27.313z"/><path fill="#c37d55" d="m197.946 59.405 15.21 8.73-47.528 45.317v-20.3h-25.454l54.793-35.727zM34.827 62.118l19.164-11.151 55.333 40.166q-23.137 1.728-23.137 2.02 0 .29 1.928 19.129z"/><path fill="#c8764a" d="M155.753 23.068H94.13l.012-1.197h62.03z"/><path fill="#fbfbfd" d="m67.31 160.801-11.395 11.466-28.054 3.845-16.678-3.845 11.954-30.762 39.396-19.245 14.099 6.95 12.412 5.109z"/><path fill="#9c5c3c" d="m91.266 114.999-19.618 6.655-22.521-46.352"/><path fill="#c39379" d="m74.515 117.516 27.675 4.746-11.147 13.345q-8.409.468-16.627-3.378-8.22-3.847-11.885-9.967l9.646-4.857z"/><path fill="#fbfbfd" d="m166.161 134.333 12.494-5.138 14.003-6.847 40.69 21.91 9.594 28.009-44.346-3.845-10.708-7.634z"/><path fill="#9c5c3c" d="m205.382 75.519-24.435 46.158-14.827-9.16z"/><path fill="#b2b6bf" d="m108.87 172.688 7.568 24.138-25.475 8.307z"/><path fill="#b2b5bf" d="m163.38 204.646-24.959-9.385 7.472-24.768z"/><path fill="#ac937c" d="M207.025 47.9q-12.729-4.584-16.134-9.761-3.404-5.176.623-13.822l39.412-12.987-5.186 22.99zM24.042 31.016v-20.97l41.412 16.558q3.62 5.343-1.544 11.707t-15.79 9.656z"/><path fill="#a99d8b" d="m163.119 204.191-10.128 10.468H98.183l-6.214-10.513 26.141-9.683h21.495z"/><path fill="#212022" d="m72.105 117.516 16.753-4.919 13.332 9.683-15.622 4.945z"/><path fill="#7e828b" d="m146.497 172.363-6.891 22.098-24.034 2.269-7.021-24.23z"/><path fill="#dfebed" d="M12.092 172.423q33.802-22.129 56.58-12.92 22.779 9.21 23.877 45.45l-30.394 3.135zM192.547 208.155l-30.585-3.202q7.218-38.688 24.581-45.549t55.697 13.831z"/><path fill="#212022" d="M146.495 172.362 128.35 183.58l-19.798-11.081q-1.09-15.2-.053-18.851 1.036-3.65 6.898-5.253 19.807-.7 24.374.048c4.566.747 6.724-.748 7.722 5.205q.997 5.953-.998 18.714"/><path fill="#d0c2b1" d="M231.355 2.047c6.284-1.973 20.253 16.507 18.898 24.294q-1.355 7.788-24.462 7.68-.72-30.002 5.564-31.974"/><path fill="#c29278" d="m183.011 117.372 9.648 4.977q-6.114 7.614-11.877 9.81t-16.927 1.164l-8.23-10.974 12-4.977z"/><path fill="#452922" d="m194.343 57.324 31.312-23.208-7.058 39.381z"/><path fill="#e2b48f" d="m233.349 144.261 21.549 9.026-12.754 20.404z"/><path fill="#212022" d="m155.754 122.415 10.367-9.897 17.341 4.831-14.397 9.831z"/><path fill="#d0c2b1" d="M25.658 32.297Q5.347 34.818 4.804 26.246C4.263 17.673 18.967-.607 23.666.756q4.698 1.365 1.992 31.54"/><path fill="#442822" d="M61.001 54.957 38.648 72.265 25.756 31.939z"/><path fill="#e1b28e" d="M12.09 172.424.061 153.419l23.577-11.796z"/></g><defs><clipPath id="a"><path fill="#ebebeb" d="M0 .674h256v224.653H0z"/></clipPath></defs></svg>
