<svg xmlns="http://www.w3.org/2000/svg" width="256" height="139" fill="none" viewBox="0 0 256 139"><path fill="#c5f74f" d="M59.293 67.675a10.704 10.704 0 0 0-4.076-14.7c-5.23-2.921-11.884-1.076-14.862 4.121L5.393 118.104a10.704 10.704 0 0 0 4.076 14.7c5.23 2.922 11.884 1.076 14.862-4.121zm75.359-46.778a10.704 10.704 0 0 0-4.076-14.7c-5.23-2.922-11.884-1.077-14.862 4.12l-34.962 61.01a10.704 10.704 0 0 0 4.076 14.699c5.23 2.921 11.883 1.076 14.862-4.121zm115.955.003a10.703 10.703 0 0 0-4.076-14.7c-5.23-2.92-11.884-1.076-14.862 4.122L196.707 71.33a10.704 10.704 0 0 0 4.076 14.7c5.23 2.921 11.884 1.076 14.862-4.121zm-75.383 46.775a10.703 10.703 0 0 0-4.076-14.7c-5.23-2.921-11.883-1.076-14.862 4.121l-34.962 61.008a10.704 10.704 0 0 0 4.076 14.7c5.23 2.922 11.884 1.076 14.862-4.121z"/></svg>