<svg width="254" height="256" viewBox="0 0 254 256" fill="none" xmlns="http://www.w3.org/2000/svg">
<circle cx="93.5" cy="31.5" r="13.5" fill="white"/>
<circle cx="161.5" cy="223.5" r="13.5" fill="white"/>
<path d="M125.889 0.901497C115.494 0.949748 105.567 1.83537 96.8321 3.37937C71.1005 7.92055 66.4286 17.4256 66.4286 34.9546V58.105H127.236V65.8218H66.4286H43.6083C25.9362 65.8218 10.4619 76.4327 5.62173 96.6183C0.0386688 119.756 -0.20897 134.194 5.62173 158.353C9.9441 176.336 20.2665 189.149 37.9387 189.149H58.8455V161.397C58.8455 141.348 76.2108 123.663 96.8321 123.663H157.568C174.475 123.663 187.972 109.757 187.972 92.7953V34.9546C187.972 18.4928 174.07 6.12678 157.568 3.37937C147.122 1.64237 136.284 0.853246 125.889 0.901497ZM93.0051 19.521C99.286 19.521 104.415 24.7285 104.415 31.1316C104.415 37.512 99.286 42.6714 93.0051 42.6714C86.7016 42.6714 81.5949 37.512 81.5949 31.1316C81.5949 24.7285 86.7016 19.521 93.0051 19.521Z" fill="url(#paint0_linear_17_14)"/>
<path d="M195.555 65.822V92.7955C195.555 113.708 177.807 131.309 157.568 131.309H96.8322C80.1955 131.309 66.4287 145.533 66.4287 162.176V220.017C66.4287 236.479 80.7584 246.161 96.8322 250.884C116.08 256.538 134.538 257.56 157.568 250.884C172.877 246.456 187.972 237.546 187.972 220.017V196.866H127.236V189.149H187.972H218.375C236.047 189.149 242.633 176.836 248.779 158.353C255.127 139.325 254.857 121.027 248.779 96.6185C244.411 79.0441 236.07 65.822 218.375 65.822H195.555ZM161.395 212.3C167.699 212.3 172.805 217.459 172.805 223.84C172.805 230.243 167.699 235.45 161.395 235.45C155.114 235.45 149.985 230.243 149.985 223.84C149.985 217.459 155.114 212.3 161.395 212.3Z" fill="url(#paint1_linear_17_14)"/>
<defs>
<linearGradient id="paint0_linear_17_14" x1="1.34106" y1="0.899414" x2="141.432" y2="120.401" gradientUnits="userSpaceOnUse">
<stop stop-color="#5A9FD4"/>
<stop offset="1" stop-color="#306998"/>
</linearGradient>
<linearGradient id="paint1_linear_17_14" x1="159.934" y1="221.893" x2="109.7" y2="151.427" gradientUnits="userSpaceOnUse">
<stop stop-color="#FFD43B"/>
<stop offset="1" stop-color="#FFE873"/>
</linearGradient>
</defs>
</svg>
