<svg width="261" height="256" viewBox="0 0 261 256" fill="none" xmlns="http://www.w3.org/2000/svg">
<g clip-path="url(#clip0_42_541)">
<path d="M181.289 11.3594H20.5831C9.81244 11.3594 1 20.1694 1 30.9348V208.083C1 218.847 9.81244 227.656 20.5831 227.656H126.428C125.227 175.015 143.211 72.8549 181.289 11.3594Z" fill="#0F80CC"/>
<path d="M175.451 17.0693H20.5831C12.9353 17.0693 6.71179 23.2884 6.71179 30.9342V195.157C41.7859 181.702 94.428 170.092 130.827 170.619C138.141 132.391 159.638 57.4724 175.451 17.0693Z" fill="url(#paint0_linear_42_541)"/>
<path d="M218.774 5.56123C207.768 -4.24969 194.441 -0.308771 181.289 11.3586C179.337 13.092 177.389 15.015 175.451 17.0692C152.951 40.9266 132.067 85.1181 125.578 118.867C128.106 123.99 130.08 130.528 131.38 135.523C131.713 136.804 132.014 138.007 132.254 139.03C132.826 141.451 133.133 143.021 133.133 143.021C133.133 143.021 132.931 142.258 132.103 139.859C131.946 139.399 131.77 138.897 131.562 138.305C131.473 138.061 131.35 137.764 131.215 137.448C129.747 134.037 125.687 126.84 123.901 123.706C122.372 128.212 121.022 132.427 119.891 136.241C125.049 145.674 128.193 161.84 128.193 161.84C128.193 161.84 127.92 160.793 126.624 157.136C125.473 153.902 119.742 143.865 118.384 141.518C116.062 150.087 115.139 155.873 115.971 157.282C117.587 160.011 119.126 164.721 120.477 169.93C123.529 181.663 125.651 195.948 125.651 195.948C125.651 195.948 125.72 196.894 125.835 198.351C125.411 208.205 125.665 218.421 126.428 227.655C127.44 239.879 129.343 250.38 131.77 256L133.417 255.102C129.854 244.03 128.407 229.519 129.041 212.785C129.999 187.206 135.888 156.359 146.77 124.208C165.153 75.6744 190.658 36.7334 214.002 18.1366C192.725 37.3428 163.929 99.5116 155.309 122.534C145.657 148.314 138.818 172.506 134.695 195.685C141.807 173.955 164.803 164.615 164.803 164.615C164.803 164.615 176.083 150.711 189.263 130.847C181.368 132.647 168.403 135.728 164.061 137.553C157.655 140.238 155.929 141.155 155.929 141.155C155.929 141.155 176.678 128.525 194.48 122.806C218.962 84.2645 245.634 29.5114 218.774 5.56123Z" fill="#003B57"/>
</g>
<defs>
<linearGradient id="paint0_linear_42_541" x1="9736.45" y1="381.517" x2="9736.45" y2="16835.5" gradientUnits="userSpaceOnUse">
<stop stop-color="#97D9F6"/>
<stop offset="0.920245" stop-color="#0F80CC"/>
<stop offset="1" stop-color="#0F80CC"/>
</linearGradient>
<clipPath id="clip0_42_541">
<rect width="260.129" height="256" fill="white" transform="translate(0.738281 -0.00195312)"/>
</clipPath>
</defs>
</svg>
