<svg width="171" height="256" viewBox="0 0 171 256" fill="none" xmlns="http://www.w3.org/2000/svg">
<g clip-path="url(#clip0_21_1793)">
<path d="M42.6666 255.999C66.2821 255.999 85.3333 236.948 85.3333 213.333V170.666H42.6666C19.0511 170.666 -6.10352e-05 189.717 -6.10352e-05 213.333C-6.10352e-05 236.948 19.0511 255.999 42.6666 255.999Z" fill="#0ACF83"/>
<path d="M-6.10352e-05 128.001C-6.10352e-05 104.385 19.0511 85.334 42.6666 85.334H85.3333V170.667H42.6666C19.0511 170.667 -6.10352e-05 151.616 -6.10352e-05 128.001Z" fill="#A259FF"/>
<path d="M0 42.6667C0 19.0512 19.0512 0 42.6667 0H85.3333V85.3333H42.6667C19.0512 85.3333 0 66.2822 0 42.6667Z" fill="#F24E1E"/>
<path d="M85.3333 0H128C151.615 0 170.667 19.0512 170.667 42.6667C170.667 66.2822 151.615 85.3333 128 85.3333H85.3333V0Z" fill="#FF7262"/>
<path d="M170.667 128.001C170.667 151.616 151.615 170.667 128 170.667C104.384 170.667 85.3333 151.616 85.3333 128.001C85.3333 104.385 104.384 85.334 128 85.334C151.615 85.334 170.667 104.385 170.667 128.001Z" fill="#1ABCFE"/>
</g>
<defs>
<clipPath id="clip0_21_1793">
<rect width="170.667" height="256" fill="white"/>
</clipPath>
</defs>
</svg>
