<svg xmlns="http://www.w3.org/2000/svg" width="170" height="256" fill="none" viewBox="0 0 170 256">
  <g clip-path="url(#a)">
    <path fill="#7cba3d" d="M167.913 153.048c-4.748-23.733-19.232-43.952-39.125-56.296l-.007-.004-.022-.013q-.01-.008-.02-.013l-.013-.008a86 86 0 0 0-5.656-3.214L69.773 66.785l-2.865-1.437a30 30 0 0 1-.535-.265l-.034-.017-.003-.001-.031-.016-.005-.003-.029-.014-.007-.004-.026-.013-.01-.005-.022-.011-.013-.007-.015-.008-.025-.013a36.8 36.8 0 0 1-13.719-12.204 36.46 36.46 0 0 1-6.2-20.399c0-14.032 7.892-26.219 19.48-32.368L48.513 8.79C20.2 22.92.76 52.165.76 85.956l1.277 14.825v-.003l.066.022-.065-.019c4.639 26.766 21.617 49.3 44.873 61.519l.003.001.03.016.006.003.029.016.042.023.088.046.012.006.022.012.016.009.021.011.017.009.02.01.021.012.015.008.037.02 5.345 2.679-.018-.047.02.047h-.002v.001l6.36 3.186 44.457 22.285c12.234 5.931 20.675 18.466 20.675 32.975v.252l-.001.033v.052l-.001.019v.128l-.001.02v.013l-.001.075v.006c-.15 9.45-3.882 18.031-9.897 24.445a36.7 36.7 0 0 1-9.581 7.328l11.047-5.642 6.157-3.143c28.31-14.133 47.753-43.382 47.753-77.174l-1.687-16.993"/>
    <path fill="#c5d83e" d="M.759 85.956c0-33.789 19.44-63.037 47.753-77.167L65.715 0C54.128 6.15 46.233 18.337 46.233 32.368c0 7.552 2.285 14.57 6.201 20.4-5.829 14.588-9.221 29.557-10.363 44.453a54.1 54.1 0 0 1-26.98 5.756 54.5 54.5 0 0 1-13.055-2.196zm123.366 138.03v-.02z"/>
    <path fill="url(#b)" d="m52.635 165.182-5.345-2.68-.038-.02-.015-.007-.022-.012-.02-.011-.016-.009-.02-.01-.017-.009-.022-.012-.011-.006-.089-.047-.034-.017-.008-.006-.028-.015-.007-.003-.03-.016-.003-.001c-23.256-12.22-40.235-34.755-44.874-61.523a54.6 54.6 0 0 0 13.056 2.197q1.274.059 2.534.059a54.1 54.1 0 0 0 24.445-5.817c-1.796 23.432 1.97 46.679 10.564 67.965"/>
    <path fill="url(#c)" d="m69.773 66.784-2.865-1.436a29 29 0 0 1-.535-.264l-.034-.018h-.003l-.031-.017-.005-.002-.029-.015-.006-.004-.027-.013-.01-.005-.021-.011-.014-.007-.015-.008-.025-.012a36.8 36.8 0 0 1-13.719-12.204c-5.829 14.588-9.221 29.557-10.363 44.453a54.65 54.65 0 0 0 23.358-22.68zm98.14 86.264c-20.282 13.416-44.537 21.192-70.449 21.192q-2.96 0-5.946-.137a128.3 128.3 0 0 1-32.524-5.734l44.457 22.284c12.234 5.932 20.675 18.466 20.675 32.976v.252q-.002.016-.002.033v.135l-.001.018v.079l-.001.075v.006c-.15 9.45-3.882 18.031-9.897 24.444a36.7 36.7 0 0 1-9.581 7.329l11.047-5.642 6.157-3.143c28.31-14.134 47.753-43.382 47.753-77.174z"/>
    <path fill="url(#d)" d="M97.465 174.24a129 129 0 0 1-5.947-.137 128.3 128.3 0 0 1-32.524-5.734l-6.359-3.186c-8.594-21.286-12.36-44.533-10.565-67.962a54.65 54.65 0 0 0 23.358-22.679l4.344-7.756L123.07 93.5q2.888 1.5 5.657 3.213l.012.008.02.014.022.013.008.004c19.892 12.343 34.376 32.562 39.124 56.296-20.281 13.415-44.535 21.191-70.448 21.191"/>
  </g>
  <defs>
    <linearGradient id="b" x1="10.958" x2="-4.031" y1="112.364" y2="147.443" gradientUnits="userSpaceOnUse">
      <stop stop-color="#aace36"/>
      <stop offset="1" stop-color="#2fa042"/>
    </linearGradient>
    <linearGradient id="c" x1="42.072" x2="171.353" y1="114.372" y2="126.634" gradientUnits="userSpaceOnUse">
      <stop stop-color="#79a933"/>
      <stop offset=".13" stop-color="#70a333"/>
      <stop offset=".34" stop-color="#559332"/>
      <stop offset=".58" stop-color="#277b2f"/>
      <stop offset=".86" stop-color="#005f27"/>
      <stop offset="1" stop-color="#005020"/>
    </linearGradient>
    <linearGradient id="d" x1="59.055" x2="108.184" y1="66.785" y2="180.665" gradientUnits="userSpaceOnUse">
      <stop stop-color="#79ab35"/>
      <stop offset=".53" stop-color="#7cba3d"/>
      <stop offset="1" stop-color="#00aa4b"/>
    </linearGradient>
    <clipPath id="a">
      <path fill="#ebebeb" d="M.759 0h169v256h-169z"/>
    </clipPath>
  </defs>
</svg>
