<svg xmlns="http://www.w3.org/2000/svg" width="268" height="237" fill="none" viewBox="0 0 268 237">
  <path stroke="#ebebeb" stroke-linecap="round" stroke-width="10.667" d="m158.308 118.35-24.381 23.844m19.505-50.072-46.324 45.303m26.819 37.476c70.693 0 127.999-25.211 127.999-56.313 0-31.1-57.306-56.313-127.999-56.313-70.691 0-128 25.212-128 56.313s57.309 56.313 128 56.313Zm-49.883-28.156c35.347 59.854 86.332 95.767 113.881 80.218 27.552-15.552 21.231-76.68-14.116-136.531-35.345-59.856-86.333-95.77-113.88-80.218C42.377 25.764 48.7 86.89 84.044 146.745Zm0-56.313C48.699 150.286 42.38 211.41 69.927 226.963c27.552 15.549 78.537-20.367 113.882-80.218 35.347-59.856 41.668-120.98 14.119-136.531-27.552-15.552-78.537 20.364-113.884 80.218Z"/>
</svg>
