<svg xmlns="http://www.w3.org/2000/svg" width="259" height="158" fill="none" viewBox="0 0 259 158"><path fill="#efcca3" d="M216.117 49.41c-.42-8.765.77-16.55-3.225-23.14C203.287 9.86 179.302.325 131.407.325c-47.965 0-73.14 9.605-82.675 26.155-3.785 6.8-3.365 14.375-3.995 23.14-.42 7.01-3.575 14.375-2.175 22.37 1.615 10.38 2.175 20.755 3.785 30.365 1.19 7.785 11.99 14.375 12.975 21.81 2.805 20.405 23.985 29.735 71.95 29.735v1.615h-1.19 1.4V153.9c47.965 0 68.3-9.395 70.895-29.735.98-7.575 11.01-13.955 12.2-21.81 1.615-9.605 2.175-19.985 3.785-30.365 1.4-7.99-1.825-15.565-2.245-22.58"/><path fill="#ccac8d" d="M130.632 56.635c8.555.21 14.585 5.61 20.195 10.59 6.59 5.82 17.81 9.815 22.37 14.795 4.63 4.98 10.59 9.96 12.765 17.81 2.175 7.785 2.805 17.81 2.805 20.405s1.4 1.965 5.4 0c9.395-4.63 19.775-16.97 19.775-16.97-1.19 7.785-11.36 14.795-12.41 22.16-2.385 20.405-22.16 30.155-71.105 30.155h-.21 1.19"/><path fill="#ccac8d" d="M162.186 40.995c1.825 6.17 8.205 27.14-4.205 20.195 0 0 5.19 3.015 8.415 14.375 3.365 11.36 11.57 12.765 11.57 12.765s13.395 2.595 23.35-5.96c8.415-7.225 9.815-19.985 6.17-29.735-3.575-9.605-9.96-12.55-19.355-14.585-9.325-2.24-28.115-3.995-25.945 2.945"/><path fill="#000" d="M185.962 81.385c9.72 0 17.6-7.88 17.6-17.6s-7.88-17.6-17.6-17.6-17.6 7.88-17.6 17.6 7.88 17.6 17.6 17.6"/><path fill="#ebebeb" d="M181.401 60.635a4.63 4.63 0 1 0 0-9.26 4.63 4.63 0 0 0 0 9.26"/><path fill="#efcca3" d="M159.172 63.015s15.78 10.8 24.405 21.39c8.555 10.59 8.415 12.55 8.415 12.55l-6.17 2.805s-8.765-16.55-19.565-22.79c-11.01-6.17-12.2-11.36-12.2-11.36z"/><path fill="#ccac8d" d="M131.262 56.635c-8.555.21-15.005 5.61-20.755 10.59-6.59 5.82-18.16 9.815-22.79 14.795s-10.8 9.96-12.975 17.81c-2.175 7.785-3.015 17.81-3.015 20.405s.42 2.805-5.4 0c-9.395-4.42-19.775-16.97-19.775-16.97 1.19 7.785 11.36 14.795 12.41 22.16 2.805 20.405 22.58 30.155 71.525 30.155h.98"/><path fill="#56332b" d="M177.547 90.365c-9.605-11.78-24.965-22.79-46.35-22.79h-.21c-21.39 0-36.745 11.01-46.35 22.79-9.96 12.2-9.185 16.97-9.185 28.54 0 41.935 14.795 29.945 24.545 35.13 9.96 4.98 20.405 3.365 30.995 3.365h.21c10.8 0 20.965 1.4 30.995-3.575 9.815-4.98 24.545 7.365 24.545-34.57.2-11.5.83-16.69-9.195-28.89"/><path fill="#442823" d="M130.212 77.955s-1.4 19.355-4.205 23.14l5.19-1.19z"/><path fill="#442823" d="M131.617 77.955s1.4 19.355 4.205 23.14l-5.19-1.19z"/><path fill="#56332b" d="M114.857 73.395c-1.965-4.63 5.19-11.99 16.55-12.2 11.36 0 18.585 7.365 16.55 12.2-1.965 4.77-9.185 6.17-16.55 6.38-7.155-.21-14.59-1.61-16.55-6.38"/><path fill="#000" d="M131.407 77.955c0-.77 6.8-.98 10.38-3.365 0 0-7.365 2.385-8.975 1.4-1.615-.77-1.965-3.225-1.965-3.225s-.63 2.385-1.825 3.225c-1.4.77-9.815-1.4-9.815-1.4s11.22 2.805 11.22 3.365c0 .63-.21 2.595-.21 3.995 0 4.98 0 17.39.77 18.375 1.19 1.825.77-13.395.77-18.375-.14-1.545-.14-3.155-.35-3.995"/><path fill="#7f4a41" d="M131.827 104.74c3.365 0 9.395 2.385 14.795 6.17-5.19-5.82-11.36-9.815-14.795-9.815-3.575 0-11.22 4.42-16.55 10.8 5.54-4.35 12.76-7.155 16.55-7.155"/><path fill="#442823" d="M130.422 140.085c-7.575 0-15.005-2.385-21.81-4.205-1.4-.42-2.805.63-4.205.21-12.55-3.995-22.79-10.8-28.96-19.355v1.965c0 41.935 14.795 30.155 24.545 35.13 9.96 4.98 20.405 3.365 30.995 3.365h.21c10.8 0 20.965 1.4 30.995-3.575 9.815-4.98 24.545 7.225 24.545-34.78 0-1.615 0-3.225.21-4.63-5.82 9.395-16.41 16.76-29.59 21.18-1.19.42-3.995-.63-5.19-.42-7.16 2.52-13.54 5.115-21.745 5.115"/><path fill="#442823" d="M111.417 117.575s-4.98 15.005-1.615 21.6l-4.63-1.965c.075-.07 3.51-15.29 6.245-19.635M151.037 117.575s4.98 15.005 1.615 21.6l4.63-1.965c-.07-.07-3.65-15.29-6.245-19.635"/><path fill="#ccac8d" d="M98.657 40.995c-1.825 6.17-8.205 27.14 4.205 20.195 0 0-5.19 3.015-8.415 14.375S82.877 88.33 82.877 88.33s-13.395 2.595-23.35-5.96c-8.415-7.225-9.815-19.985-6.17-29.735 3.575-9.815 9.96-12.55 19.355-14.585 9.395-2.24 27.98-3.995 25.945 2.945"/><path fill="#000" d="M131.262 101.165c5.4 0 22.16 11.57 22.37 25.735v-.77c0-14.795-13.605-26.575-22.37-26.575s-22.37 11.99-22.37 26.575v.77c.145-14.165 16.975-25.735 22.37-25.735"/><path fill="#331712" d="M135.581 73.524c.864-.223 1.227-1.71.811-3.323s-1.453-2.74-2.316-2.516c-.864.222-1.227 1.71-.811 3.322.415 1.613 1.453 2.74 2.316 2.516M127.739 71.074c.493-1.59.203-3.094-.649-3.359-.852-.264-1.943.811-2.436 2.401s-.203 3.094.649 3.359c.852.264 1.943-.811 2.436-2.401"/><path fill="#000" d="M75.867 81.385c9.72 0 17.6-7.88 17.6-17.6s-7.88-17.6-17.6-17.6-17.6 7.88-17.6 17.6 7.88 17.6 17.6 17.6"/><path fill="#ebebeb" d="M80.492 60.635a4.63 4.63 0 1 0 0-9.26 4.63 4.63 0 0 0 0 9.26"/><path fill="#7f4a41" d="M136.452 64c0-.21-4.63 1.965-5.82 2.175-1.19-.21-5.82-2.385-5.82-2.175h11.64"/><path fill="#efcca3" d="M101.462 63.015s-15.78 10.8-24.405 21.39c-8.555 10.59-8.415 12.55-8.415 12.55l6.17 2.805s8.765-16.55 19.565-22.79c10.8-6.17 12.2-11.36 12.2-11.36z"/><path fill="#ccac8d" d="M66.892 31.04s-5.4 14.795-17.39 20.965c-.006 0 18.79-2.17 17.39-20.965M192.971 31.04s5.4 14.795 17.39 20.965c.005 0-18.79-2.17-17.39-20.965M158.822 58.6s-11.78-12.41-27.56-12.765h.42c-15.99.42-27.56 12.765-27.56 12.765 13.815-9.605 25.595-9.395 27.56-9.395-.275-.005 13.325-.215 27.14 9.395M145.007 32.65s-5.96-8.415-13.955-8.555h.42c-5.96.21-13.815 8.555-13.815 8.555 6.8-6.59 13.815-6.38 13.815-6.38s6.525-.21 13.535 6.38M75.866 93.94s-9.395 4.63-16.2 1.825h-.21c-5.96-3.365-8.975-13.605-8.975-13.605s6.03 18.02 25.385 11.78M185.402 93.94s9.395 4.63 16.2 1.825c7.995-3.365 9.185-13.605 9.185-13.605s-6.03 18.02-25.385 11.78"/><path fill="#ccac8d" d="M86.667 30.06c5.19-.98 13.815-1.19 20.545.98 8.555 3.015 1.614 13.955 3.364 14.585 1.826.63 4.205-7.575 20.195-6.8 16.201.77 17.951 7.995 20.196 6.8 2.175-1.19-2.175-19.985 21.95-15.57 0 0-25.386-6.8-24.196 11.57 0 0-14.584-11.22-34.989-1.19.35 0 5.54-17.18-27.065-10.375M175.162 30.06c.42 0 .63.21.77.21.21 0-.14-.21-.77-.21M79.722 5.445s-21.6 27.14-24.755 37.585c-3.225 10.59-5.61 53.925-8.415 60.095L36.597 60.35l18.375-44.53zM181.191 5.445s21.6 27.14 24.755 37.585c3.225 10.59 5.61 53.925 8.415 60.095l9.96-42.775-18.375-44.53z"/><path fill="#56332b" d="M180.142 5.445s23.14 19.355 29.945 41.725c6.8 22.37 3.995 49.58 9.185 52.945 7.435 4.84 15.85-23.7 18.655-26.715 4.42-4.77 19.005-16.97 19.985-19.145S228.322 18.7 214.997 12.11c-16.275-7.65-36.19-8.21-34.855-6.665"/><path fill="#442823" d="M199.987 17.435s27.35 34.99 27 78.54l11.01-22.37c-.285 0-9.89-28.61-38.01-56.17"/><path fill="#56332b" d="M79.722 5.445S56.582 24.8 49.777 47.17s-3.995 49.58-9.185 52.945c-7.435 4.84-15.85-23.7-18.655-26.715-4.42-4.77-19.005-16.97-19.985-19.145S31.542 18.7 44.867 12.11c16.275-7.65 36.19-8.21 34.855-6.665"/><path fill="#442823" d="M59.877 17.435s-27.35 34.99-27 78.54l-10.8-22.37c.075 0 9.68-28.61 37.8-56.17"/><path fill="#ccac8d" d="M45.152 96.745s1.965 10.8 5.19 14.165.98-2.595.98-2.595-3.365-1.825-2.805-15.57c.63-13.74-3.365 4-3.365 4M215.551 96.745s-1.965 10.8-5.19 14.165-.98-2.595-.98-2.595 3.365-1.825 2.805-15.57c-.63-13.74 3.365 4 3.365 4"/><path fill="#442823" d="M110.437 90.155a1.615 1.615 0 1 0 0-3.23 1.615 1.615 0 0 0 0 3.23M101.252 99.765a1.615 1.615 0 1 0 0-3.23 1.615 1.615 0 0 0 0 3.23M98.237 90.155a1.615 1.615 0 1 0 0-3.23 1.615 1.615 0 0 0 0 3.23M149.427 90.155a1.616 1.616 0 1 0-.001-3.231 1.616 1.616 0 0 0 .001 3.23M158.612 99.765a1.615 1.615 0 1 0 0-3.23 1.615 1.615 0 0 0 0 3.23M161.627 90.155a1.615 1.615 0 1 0 0-3.23 1.615 1.615 0 0 0 0 3.23"/></svg>
