<svg xmlns="http://www.w3.org/2000/svg" width="257" height="210" fill="none" viewBox="0 0 257 210">
  <g clip-path="url(#a)">
    <path fill="#D5D5D5" d="M254.724 2.15a3.44 3.44 0 0 0-2.339-.781c-2.327 0-5.339 1.58-6.962 2.426l-.642.329a22.1 22.1 0 0 1-8.696 2.191c-3.096.098-5.761.28-9.234.642-20.574 2.112-29.75 17.88-38.589 33.13-4.813 8.296-9.782 16.912-16.595 23.495a45 45 0 0 1-4.487 3.81c-7.052 5.242-15.908 8.986-22.797 11.635-6.632 2.536-13.874 4.815-20.866 7.02-6.413 2.017-12.462 3.925-18.026 5.993a193 193 0 0 1-6.524 2.271c-5.07 1.644-8.722 2.905-14.065 6.583a90 90 0 0 0-5.587 4.116 59 59 0 0 0-11.15 11.742 69.4 69.4 0 0 1-9.366 11.24c-1.127 1.104-3.127 1.646-6.124 1.646-3.506 0-7.76-.724-12.26-1.489-4.642-.822-9.439-1.603-13.553-1.603-3.34 0-5.9.544-7.81 1.645 0 0-3.22 1.877-4.577 4.303l1.335.602a27.3 27.3 0 0 1 5.695 4.114 28.6 28.6 0 0 0 5.923 4.214c.686.25 1.31.646 1.829 1.159-.56.823-1.383 1.885-2.25 3.02-4.749 6.214-7.518 10.141-5.93 12.278a5 5 0 0 0 2.468.558c10.352 0 15.916-2.689 22.95-6.096 2.04-.986 4.117-2 6.585-3.044 4.114-1.785 8.543-4.632 13.242-7.646 6.144-4.005 12.571-8.121 18.81-10.105a51.3 51.3 0 0 1 15.825-2.221c6.584 0 13.513.878 20.197 1.737 4.979.641 10.138 1.299 15.201 1.604 1.964.113 3.785.171 5.552.171a64 64 0 0 0 7.086-.369l.566-.199c3.548-2.179 5.214-6.861 6.823-11.389 1.036-2.913 1.913-5.529 3.291-7.192q.123-.12.263-.219a.33.33 0 0 1 .403.063v.132c-.821 17.701-7.949 28.941-15.157 38.934l-4.813 5.16s6.74 0 10.573-1.483c13.993-4.181 24.552-13.397 32.236-28.096a120 120 0 0 0 5.078-11.594c.129-.329 1.341-.937 1.227.765-.042.502-.076 1.061-.118 1.647 0 .345.001.697-.065 1.052-.199 2.47-.781 7.688-.781 7.688l4.321-2.315c10.417-6.582 18.448-19.862 24.54-40.528 2.534-8.608 4.393-17.159 6.031-24.687 1.958-9.055 3.645-16.815 5.58-19.827 3.036-4.721 7.67-7.915 12.154-11.017.61-.42 1.227-.824 1.827-1.269 5.638-3.956 11.242-8.524 12.477-17.043v-.19c.897-6.353.14-7.974-.725-8.713m-14.509 206.646h-20.574v-35.838h18.558c7.092 0 13.85 1.335 13.75 9.284 0 5.604-3.48 7.152-7.15 7.742 5.21.446 8.343 3.769 8.343 9.136.034 8.039-7.018 9.678-12.927 9.678zm-1.538-20.201c7.102 0 8.69-2.733 8.69-6.206 0-5.217-3.178-6.402-8.69-6.402H223.93v12.606zm.197 3.028H223.93v14.145h15.586c4.371 0 8.986-1.44 8.986-6.945 0-6.355-5.309-7.2-9.628-7.2m-62.749-18.667h16.187c13.603 0 20.4 7.499 20.301 17.918.099 10.83-7.403 17.924-19.108 17.924h-17.382zm4.467 3.18v29.535h12.346c10.821 0 14.943-7.302 14.943-14.896 0-8.585-5.16-14.639-14.941-14.639zM159 186.808v-4.173h6.782v26.161h-6.758v-4.211c-1.785 3.028-5.457 4.763-9.925 4.763-9.332 0-14.549-6.584-14.549-14.155 0-7.299 4.938-13.166 13.555-13.166 4.889.058 8.961 1.703 10.895 4.781m-17.282 8.74c0 4.813 3.028 8.935 8.889 8.935 5.66 0 8.738-4.024 8.738-8.787 0-4.766-3.186-8.838-9.053-8.838-5.634 0-8.566 4.064-8.566 8.69zm-19.948-19.817a3.42 3.42 0 0 1 1.037-2.556 3.42 3.42 0 0 1 2.584-.966 3.56 3.56 0 0 1 2.619 1.024 3.56 3.56 0 0 1 1.061 2.604 3.41 3.41 0 0 1-2.277 3.29c-.45.159-.927.222-1.403.185a3.5 3.5 0 0 1-2.592-1 3.47 3.47 0 0 1-1.029-2.581m.298 6.904h6.754v19.117c0 1.185.249 2.032 1.235 2.032q.652-.015 1.291-.146l1.046 4.937a11.8 11.8 0 0 1-4.467.825c-2.83 0-5.861-.825-5.861-7.252zm-17.326 26.163h-6.746v-26.161h6.746v5.861a10.36 10.36 0 0 1 9.433-6.411 12.2 12.2 0 0 1 4.222.691l-1.441 4.939a14.8 14.8 0 0 0-3.572-.496c-4.871 0-8.642 3.671-8.642 9.054zM82.754 186.81v-4.173h6.758v26.161h-6.758v-4.211c-1.785 3.028-5.455 4.763-9.925 4.763-9.34 0-14.55-6.584-14.55-14.155 0-7.299 4.94-13.166 13.556-13.166 4.912.058 8.985 1.703 10.919 4.781m-17.282 8.74c0 4.813 3.028 8.935 8.889 8.935 5.654 0 8.732-4.024 8.732-8.787s-3.178-8.838-9.053-8.838c-5.63 0-8.559 4.064-8.559 8.69zm-18.409-22.592 9.266 35.84h-6.992l-6.174-25.819-11.635 25.819h-5.907l-11.57-25.665-6.356 25.665H.848l9.184-35.84h6.056L28.6 200.71l12.458-27.752z"/>
  </g>
  <defs>
    <clipPath id="a">
      <path fill="#D5D5D5" d="M.253.408h256v209.183h-256z"/>
    </clipPath>
  </defs>
</svg>
