<svg xmlns="http://www.w3.org/2000/svg" width="256" height="192" fill="none" viewBox="0 0 256 192">
  <g clip-path="url(#a)">
    <path fill="#2d4552" d="M84.554 108.45c-9.511 2.698-15.75 7.431-19.86 12.159 3.937-3.446 9.21-6.608 16.322-8.624 7.276-2.061 13.483-2.048 18.61-1.058v-4.011c-4.376-.399-9.392-.081-15.074 1.532zM64.26 74.736l-35.32 9.306s.644.909 1.837 2.122l29.945-7.89s-.425 5.468-4.11 10.36c6.97-5.274 7.648-13.898 7.648-13.898m29.564 83.007c-49.703 13.388-76-44.215-83.96-74.111C6.184 69.83 4.58 59.379 4.15 52.635q-.06-.916.026-1.831C1.598 50.96.365 52.3.616 56.173c.429 6.741 2.034 17.191 5.713 30.997 7.956 29.892 34.258 87.494 83.96 74.106 10.82-2.915 18.947-8.222 25.047-15-5.623 5.078-12.661 9.08-21.51 11.467m9.341-118.259v3.538h19.495c-.399-1.252-.803-2.38-1.204-3.538z"/>
    <path fill="#2d4552" d="M127.017 68.617c8.769 2.49 13.405 8.637 15.856 14.078l9.777 2.776s-1.333-19.038-18.555-23.93c-16.109-4.578-26.024 8.95-27.23 10.701 4.686-3.34 11.529-6.072 20.152-3.625m77.817 14.165c-16.125-4.599-26.035 8.958-27.223 10.685 4.691-3.335 11.529-6.07 20.15-3.611 8.755 2.493 13.386 8.632 15.844 14.077l9.791 2.786s-1.357-19.043-18.562-23.937m-9.711 50.199L113.8 110.246s.881 4.462 4.257 10.242l68.47 19.142c5.637-3.261 8.596-6.649 8.596-6.649m-56.38 48.936C74.351 164.654 82.137 82.609 92.554 43.732c4.29-16.022 8.7-27.93 12.357-35.914-2.181-.45-3.99.701-5.775 4.331-3.883 7.876-8.849 20.702-13.655 38.654-10.415 38.877-18.202 120.917 46.188 138.18 30.349 8.13 53.993-4.227 71.618-23.633-16.73 15.153-38.089 23.649-64.544 16.567"/>
    <path fill="#e2574c" d="M103.165 138.516v-16.557l-45.999 13.045s3.4-19.749 27.39-26.555c7.276-2.062 13.483-2.048 18.609-1.059V39.483h23.034c-2.507-7.749-4.934-13.715-6.972-17.86-3.37-6.861-6.827-2.313-14.671 4.249-5.526 4.614-19.488 14.462-40.5 20.124-21.014 5.667-38 4.163-45.09 2.936-10.048-1.734-15.304-3.939-14.81 3.702.429 6.741 2.034 17.193 5.712 30.997 7.957 29.894 34.258 87.494 83.962 74.106 12.982-3.499 22.147-10.413 28.499-19.225h-19.164zM28.937 84.041l35.323-9.306s-1.028 13.589-14.27 17.078c-13.245 3.488-21.052-7.772-21.052-7.772"/>
    <path fill="#2ead33" d="M236.101 40.27c-9.181 1.61-31.209 3.615-58.432-3.68-27.231-7.293-45.296-20.046-52.455-26.043-10.148-8.499-14.61-14.405-19.004-5.47-3.884 7.88-8.85 20.703-13.655 38.658-10.416 38.877-18.202 120.917 46.188 138.18 64.374 17.249 98.645-57.697 109.063-96.577 4.806-17.95 6.914-31.54 7.495-40.305.662-9.928-6.157-7.045-19.197-4.76zM106.736 72.436s10.148-15.782 27.357-10.89c17.222 4.89 18.555 23.93 18.555 23.93zm42.009 70.817c-30.27-8.868-34.94-33.006-34.94-33.006l81.318 22.736c0-.005-16.414 19.027-46.378 10.27m28.751-49.609s10.134-15.77 27.339-10.865c17.205 4.899 18.561 23.938 18.561 23.938z"/>
    <path fill="#d65348" d="M87.09 126.52 57.167 135s3.252-18.517 25.296-25.858L65.517 45.55l-1.464.445C43.04 51.66 26.054 50.158 18.965 48.93 8.916 47.199 3.66 44.99 4.153 52.635c.43 6.741 2.035 17.191 5.713 30.997 7.957 29.892 34.258 87.494 83.961 74.106l1.465-.459zM28.94 84.042l35.323-9.306S63.234 88.325 49.99 91.814c-13.245 3.487-21.052-7.772-21.052-7.772"/>
    <path fill="#1d8d22" d="m150.108 143.585-1.37-.333c-30.27-8.865-34.94-33.005-34.94-33.005l41.933 11.72 22.201-85.307-.268-.072c-27.23-7.292-45.296-20.046-52.454-26.043-10.148-8.499-14.611-14.405-19.004-5.47-3.88 7.88-8.847 20.703-13.654 38.658-10.415 38.877-18.201 120.917 46.189 138.18l1.319.298zm-43.374-71.15s10.147-15.782 27.357-10.89c17.221 4.891 18.554 23.93 18.554 23.93z"/>
    <path fill="#c04b41" d="m88.615 126.084-8.026 2.279c1.896 10.687 5.238 20.946 10.482 30.007.913-.201 1.818-.376 2.75-.63a58 58 0 0 0 6.872-2.359c-5.86-8.697-9.737-18.716-12.078-29.297m-3.134-75.278c-4.124 15.392-7.814 37.547-6.8 59.768a46 46 0 0 1 5.873-2.129l1.485-.332c-1.81-23.736 2.103-47.925 6.515-64.38a322 322 0 0 1 3.356-11.647 104 104 0 0 1-5.946 3.529 305 305 0 0 0-4.483 15.191"/>
  </g>
  <defs>
    <clipPath id="a">
      <path fill="#ebebeb" d="M0 .288h256v191.423H0z"/>
    </clipPath>
  </defs>
</svg>
