<svg width="257" height="194" viewBox="0 0 257 194" fill="none" xmlns="http://www.w3.org/2000/svg">
<g clip-path="url(#clip0_20_1057)">
<path d="M141.161 191.913L211.145 147.657C211.404 147.498 211.742 147.568 211.902 147.827C212.061 148.085 211.991 148.424 211.732 148.584L141.519 192.978C141.43 193.038 141.33 193.068 141.231 193.068L141.161 191.913Z" fill="url(#paint0_linear_20_1057)"/>
<path d="M141.23 193.069C141.171 193.069 141.101 193.059 141.041 193.039L45.6276 157.479C45.3388 157.37 45.1993 157.061 45.3089 156.772C45.4185 156.483 45.7273 156.344 46.0161 156.453L141.181 191.913L141.23 193.069Z" fill="url(#paint1_linear_20_1057)"/>
<path d="M241.355 23.0486L230.339 41.2867L186.084 60.1024L183.623 61.1483L143.85 98.3416C143.083 99.1085 142.565 100.204 142.476 100.812C142.436 101.021 142.256 100.931 142.087 100.921C141.908 100.911 141.659 100.981 141.639 100.762C141.619 99.9652 141.529 99.0787 140.244 98.2818L120.313 85.3727L105.78 75.9499L64.8419 65.4513L30.5771 56.666L8.87268 22.949L9.20138 22.5705L9.22131 22.5406L90.6998 1.36417C90.8194 1.32432 90.8393 1.34377 90.8891 1.41397L118.679 43.0397L119.227 43.8565C119.825 44.7331 119.885 45.2709 119.885 45.6594H120.393C120.393 45.6295 120.393 45.5996 120.393 45.5698C120.393 45.5299 120.393 45.4801 120.403 45.4303C120.403 45.4004 120.413 45.3705 120.413 45.3307C120.423 45.2909 120.423 45.251 120.433 45.2112C120.443 45.1713 120.443 45.1315 120.452 45.0817C120.482 44.9422 120.522 44.7829 120.562 44.6235C120.572 44.5737 120.592 44.5239 120.602 44.484C120.652 44.3247 120.701 44.1553 120.761 43.996C120.791 43.9362 120.811 43.8665 120.841 43.8067C120.921 43.6075 121 43.4282 121.09 43.2688C121.17 43.1095 121.249 42.98 121.329 42.8704L146.38 6.43416C146.44 6.34452 146.47 6.30468 146.599 6.3246L241.196 22.6004L241.355 23.0486Z" fill="#E8B67F"/>
<path d="M120.313 85.3633H120.303L105.78 75.9504L64.8418 65.4519L119.885 45.66L120.034 45.3711V45.66L120.313 85.3633Z" fill="url(#paint2_linear_20_1057)"/>
<path d="M119.885 45.6598L64.8419 65.4418L59.8814 64.1668L30.5771 56.6465L8.87268 22.9295L9.22131 22.5211L90.6998 1.34464C90.8194 1.30479 90.8393 1.32424 90.8891 1.39444L118.679 43.0202L119.227 43.837C119.825 44.7335 119.885 45.2713 119.885 45.6598Z" fill="url(#paint3_linear_20_1057)"/>
<path d="M120.079 47.7612L68.0344 66.4674L59.9164 64.3856L118.714 43.249L119.262 44.0658C119.86 44.9423 119.92 45.4802 119.92 45.8687H120.069L120.079 47.7612Z" fill="url(#paint4_linear_20_1057)"/>
<path d="M31.3242 56.8453L30.5871 56.656L8.88269 22.9391L9.21139 22.5605L31.3242 56.8453Z" fill="#D2A679"/>
<path d="M186.084 60.1018L183.623 61.1477L143.85 98.3409C143.083 99.1079 142.565 100.204 142.476 100.811C142.436 101.02 142.256 100.931 142.087 100.921C141.908 100.911 141.659 100.981 141.639 100.761C141.619 99.9645 141.529 99.078 140.244 98.2812L120.313 85.3621L120.044 45.6687V45.3799L120.413 45.6687L186.084 60.1018Z" fill="url(#paint5_linear_20_1057)"/>
<path d="M241.355 23.0486L230.339 41.2866L190.058 58.4091L186.093 60.0924L120.403 45.6594C120.363 45.1514 120.711 43.9959 121.09 43.2588C121.17 43.0995 121.249 42.97 121.329 42.8604L146.38 6.42417C146.44 6.33452 146.47 6.29468 146.599 6.3146L241.196 22.5904L241.355 23.0486Z" fill="url(#paint6_linear_20_1057)"/>
<path d="M190.058 58.4092L183.633 61.1384L182.807 61.9353L120.034 48.06L120.323 45.6496H120.403C120.363 45.1416 120.712 43.9861 121.09 43.249L190.058 58.4092Z" fill="url(#paint7_linear_20_1057)"/>
<path opacity="0.75" d="M121.777 45.958V86.3088L120.313 85.3625H120.303L118.381 84.1075V46.1971L119.885 45.6592H120.393L121.777 45.958Z" fill="url(#paint8_linear_20_1057)"/>
<path d="M140.842 192.42L45.3488 156.791C44.8109 156.562 44.7312 156.054 44.7013 155.426C44.7013 155.426 40.5975 74.0474 40.5876 74.0374C40.5776 73.8283 40.8366 73.6988 40.8167 73.5693C40.7469 73.2605 40.1593 72.0951 39.97 71.9756L1.19299 49.9425L1.5217 49.1955L105.78 75.9499L140.234 98.2718C141.519 99.0687 141.619 99.9552 141.629 100.752C141.639 100.971 141.898 100.901 142.077 100.911C142.256 100.921 142.426 101.011 142.466 100.802C142.555 100.194 143.073 99.0986 143.84 98.3416L183.613 61.1483L255.739 30.4893L256.177 31.0969L217.241 65.3119C216.484 66.0689 216.135 66.9952 216.284 67.3737L212.3 147.129C212.24 147.637 212.001 147.786 211.493 148.135L141.689 192.321C141.41 192.5 141.111 192.55 140.842 192.42Z" fill="#BF9064"/>
<path d="M142.077 100.911L141.39 192.46C141.201 192.51 141.011 192.5 140.832 192.42L45.3389 156.801C44.801 156.572 44.7213 156.054 44.6914 155.436C44.6914 155.436 40.5776 74.0574 40.5776 74.0475V74.0275C40.5776 74.0076 40.5776 73.9877 40.5876 73.9678C40.5876 73.9478 40.5976 73.9379 40.6075 73.9279C40.6175 73.908 40.6274 73.898 40.6374 73.8781C40.6474 73.8582 40.6573 73.8482 40.6673 73.8283C40.7071 73.7686 40.7669 73.7088 40.7868 73.659C40.7968 73.649 40.7968 73.6391 40.7968 73.6291C40.7968 73.6291 40.7968 73.6291 40.7968 73.6191L141.639 100.792C141.679 100.971 141.918 100.902 142.077 100.911Z" fill="#BD8F63"/>
<path opacity="0.54" d="M141.4 192.192V192.451C141.211 192.501 141.021 192.491 140.842 192.411L45.3487 156.792C44.9702 156.633 44.8208 156.324 44.7511 155.945L141.4 192.192Z" fill="url(#paint9_linear_20_1057)"/>
<path d="M98.2202 136.66L135.194 148.752L135.105 184.81L98.8179 171.483L98.2202 136.66ZM116.747 160.885L116.837 177.589L134.745 184.168L134.746 167.14L116.747 160.885ZM122.038 166.281L125.657 172.041L129.202 168.935L129.819 169.639L126.161 172.843L129.828 178.679L129.296 179.012L125.683 173.262L122.155 176.354L121.538 175.65L125.179 172.459L121.507 166.615L122.038 166.281ZM132.694 172.768V174.411L133.64 174.72V176.573L132.694 176.194V177.688L130.622 174.541L132.694 172.768ZM129.507 170.766L130.234 170.995V177.559L129.507 177.3V170.766ZM98.9473 154.699L99.2163 171.144L116.329 177.399L116.229 160.735L98.9473 154.699ZM125.702 174.302L127.574 177.32L123.839 175.965L125.702 174.302ZM128.59 171.533V175.816L126.648 173.076L128.59 171.533ZM121.18 167.718L121.897 167.957V174.511L121.18 174.262V167.718ZM122.793 169.481L124.646 172.339L122.793 173.764V169.481ZM107.314 161.542L108.022 161.771L108.023 162.192C110.128 163.039 112.208 165.15 113.211 168.435C112.554 167.329 111.976 167.12 110.95 167.469C110.571 166.682 109.456 166.263 108.789 166.682C108.606 166.335 108.338 166.075 108.046 165.908L108.081 172.16C108.081 172.738 107.683 173.256 106.697 173.057C105.8 172.837 105.432 172.15 105.531 170.975L106.029 171.054C106.029 171.841 106.089 172.29 106.687 172.429C107.195 172.549 107.424 172.359 107.424 171.891L107.358 165.69C107.075 165.67 106.813 165.74 106.627 165.905C106.398 165.327 105.312 164.55 104.495 165.128C103.918 164.211 102.832 163.863 102.224 164.53C103 162.185 105.108 161.362 107.318 161.955L107.314 161.542ZM118.65 167.648L120.672 170.835L118.67 172.499L118.709 170.935L117.733 170.706V168.893L118.65 169.232V167.648ZM123.779 168.335L127.564 169.71L125.672 171.373L123.779 168.335ZM116.717 143.234L116.757 160.267L134.756 166.542V149.141L116.717 143.234ZM120.074 157.946L130.832 161.622V163.763L120.074 160.058V157.946ZM110.811 162.01C110.88 162.08 110.88 162.827 110.651 162.996C110.542 163.046 110.372 163.056 110.233 162.946C110.093 162.837 110.014 162.678 110.073 162.438C110.133 162.199 110.731 161.94 110.811 162.01ZM111.807 160.307C111.886 160.377 111.886 161.124 111.647 161.293C111.538 161.343 111.368 161.353 111.229 161.243C111.089 161.134 111.01 160.974 111.07 160.735C111.129 160.496 111.727 160.237 111.807 160.307ZM109.018 160.237C109.097 160.307 109.097 161.054 108.858 161.223C108.749 161.273 108.579 161.283 108.44 161.173C108.3 161.064 108.221 160.905 108.281 160.665C108.34 160.426 108.938 160.167 109.018 160.237ZM106.199 159.829C106.278 159.898 106.278 160.646 106.039 160.815C105.93 160.865 105.76 160.875 105.621 160.765C105.482 160.655 105.402 160.496 105.462 160.257C105.521 160.018 106.119 159.759 106.199 159.829ZM128.381 148.633L130.991 153.783L129.208 153.175V160.636L127.425 160.018L127.435 152.617L125.662 152.039L128.381 148.633ZM98.6087 137.298L98.9175 154.101L116.239 160.058L116.09 143.035L98.6087 137.298ZM122.494 146.671L125.104 151.82L123.321 151.213V158.673L121.538 158.056L121.558 150.655L119.775 150.077L122.494 146.671ZM102.483 140.674L103.898 141.142L104.555 143.523L103.818 143.473L105.92 148.553L104.834 144.37L105.452 144.36L104.824 141.441L112.125 143.852V147.866C112.125 149.39 110.472 151.312 108.141 150.356L108.151 154.39L111.498 156.542L103.4 153.733L106.657 153.892L106.597 149.898C104.286 149.211 102.613 146.432 102.613 144.738L102.483 140.674Z" fill="#322214"/>
<path d="M142.077 100.911C141.679 100.921 141.38 101.449 141.37 101.927L141.28 101.967L40.5776 74.0373C40.5676 73.848 40.7868 73.7285 40.8067 73.609C40.8167 73.599 40.8167 73.5891 40.8067 73.5791C40.737 73.2703 40.1493 72.1049 39.96 71.9854L1.19299 49.9424L1.5217 49.1953L105.77 75.9398H105.78L140.234 98.2617C141.519 99.0685 141.619 99.9451 141.629 100.742C141.629 100.752 141.629 100.772 141.639 100.782C141.679 100.971 141.918 100.901 142.077 100.911Z" fill="url(#paint10_linear_20_1057)"/>
<path d="M217.251 65.3021C216.494 66.0591 216.145 66.9855 216.294 67.364L142.954 102.067L142.804 101.948C142.794 101.37 142.426 100.981 142.147 100.922C142.296 100.941 142.436 100.991 142.476 100.802C142.495 100.683 142.525 100.543 142.575 100.394C142.615 100.264 142.675 100.125 142.744 99.9753C142.954 99.4972 143.272 98.9792 143.681 98.521C143.741 98.4613 143.8 98.3916 143.86 98.3318L183.633 61.1385L255.759 30.4795L256.197 31.0871L217.251 65.3021Z" fill="#CD9C6B"/>
<path d="M96.8157 110.035C96.9252 110.065 96.9651 110.075 96.9651 109.985L96.5866 89.7251C96.5567 89.0378 96.3874 87.6831 95.5606 87.1353L58.8355 64.8233L41.6234 60.3809L78.9462 82.6829C79.8825 83.3004 79.9622 84.4559 80.002 85.3125L80.5399 105.015C80.5399 105.114 80.5598 105.134 80.6295 105.164L96.8157 110.035Z" fill="url(#paint11_linear_20_1057)"/>
<path d="M142.077 100.911C141.669 100.921 141.37 101.479 141.37 101.967C141.36 102.007 141.29 101.997 141.28 101.967C141.201 100.881 140.752 99.6658 140.165 99.2375L105.432 76.8459L105.77 75.9395H105.78L140.234 98.2614C141.519 99.0682 141.619 99.9447 141.629 100.742C141.629 100.752 141.629 100.771 141.639 100.781C141.679 100.971 141.918 100.901 142.077 100.911Z" fill="#D4A271"/>
<path d="M105.77 75.9496L105.432 76.846L1.19299 49.9422L1.5217 49.2051L105.77 75.9496Z" fill="#DEB37E"/>
<path d="M216.304 67.3631L212.32 147.118C212.26 147.626 212.021 147.776 211.513 148.124L141.709 192.31C141.609 192.38 141.499 192.42 141.4 192.45L142.087 100.901C142.266 100.911 142.436 101 142.476 100.791C142.476 100.761 142.486 100.741 142.486 100.712L216.284 67.2734C216.284 67.3232 216.294 67.3432 216.304 67.3631Z" fill="#DBAD77"/>
<path opacity="0.54" d="M212.32 147.09V147.13C212.26 147.638 212.021 147.787 211.513 148.136L141.709 192.321C141.609 192.391 141.499 192.431 141.4 192.461V192.202L212.32 147.09Z" fill="url(#paint12_linear_20_1057)"/>
<path d="M211.015 112.387L209.421 144.859L186.213 159.312L187.408 125.515L211.015 112.387ZM198.604 135.894L187.07 142.677L186.522 158.664L198.006 151.522L198.604 135.894ZM193.096 142.757L193.075 143.295C194.453 142.607 195.755 143.087 196.303 145.367C195.925 144.839 195.237 145.048 194.779 146.124C194.57 145.675 193.504 146.044 193.345 146.98C193.26 146.828 193.107 146.773 192.932 146.792L192.678 152.957C192.658 153.485 192.628 154.052 191.96 154.461C191.652 154.6 190.835 154.71 190.944 153.564L191.333 153.265C191.303 153.993 191.492 154.212 191.891 153.973C192.369 153.684 192.279 153.226 192.299 152.797L192.514 146.957C192.234 147.141 191.98 147.463 191.911 147.847C191.791 147.488 190.636 147.707 190.496 148.733C190.167 148.295 189.271 148.723 188.932 149.829C189.557 146.958 191.102 144.574 192.641 143.548L192.658 143.076L193.096 142.757ZM209.929 129.2L198.933 135.705L198.325 151.373L209.202 144.53L209.929 129.2ZM206.533 134.48L206.852 134.778L204.455 140.215L206.433 142.946L206.115 143.623L204.142 140.924L201.772 146.303L201.443 146.004L203.857 140.535L201.811 137.737L202.17 137.059L204.171 139.823L206.533 134.48ZM199.839 140.725L201.084 142.239L199.76 145.088V143.833L199.202 144.171L199.232 142.548L199.789 142.219L199.839 140.725ZM201.991 138.753L201.732 144.759L201.284 145.058L201.533 139.071L201.991 138.753ZM204.092 141.89L205.158 143.295L202.867 144.689L204.092 141.89ZM191.891 142.329C191.94 142.329 191.911 143.016 191.741 143.355C191.681 143.474 191.572 143.604 191.482 143.614C191.393 143.623 191.353 143.524 191.403 143.265C191.452 143.006 191.841 142.329 191.891 142.329ZM202.489 139.569L203.545 140.874L202.31 143.315L202.489 139.569ZM194.919 141.084C194.959 141.093 194.929 141.781 194.769 142.109C194.71 142.229 194.6 142.358 194.51 142.368C194.421 142.378 194.381 142.279 194.431 142.02C194.48 141.761 194.869 141.084 194.919 141.084ZM199.341 119.329L187.687 125.864L187.08 142.169L198.644 135.356L199.341 119.329ZM207.021 135.695L206.742 141.691L206.344 141.95L206.613 135.964L207.021 135.695ZM193.823 140.635C193.873 140.635 193.843 141.323 193.674 141.661C193.614 141.781 193.504 141.91 193.415 141.92C193.325 141.93 193.285 141.831 193.335 141.572C193.385 141.313 193.773 140.635 193.823 140.635ZM205.995 137.438L205.836 141.263L204.8 140.028L205.995 137.438ZM208.465 135.615L208.405 137.089L208.983 136.771L208.913 138.404L208.356 138.733L208.336 140.077L207.13 138.633L208.465 135.615ZM195.686 138.663C195.735 138.663 195.706 139.35 195.536 139.689C195.476 139.809 195.367 139.938 195.277 139.948C195.188 139.958 195.148 139.858 195.198 139.599C195.247 139.34 195.636 138.663 195.686 138.663ZM205.427 136.352L204.192 139.181L203.126 137.737L205.427 136.352ZM196.632 122.796L196.482 126.899C196.423 128.294 195.307 130.824 193.644 131.88L193.464 135.755L195.686 135.276L190.277 138.404L192.528 136.263L192.648 132.458C191.203 133.284 190.048 131.75 190.118 130.196L190.247 126.431L191.223 125.903L191.542 127.716L191.014 128.145L192.179 131.521L191.731 128.443L192.13 127.985L191.821 125.565L196.632 122.796ZM210.776 112.974L199.62 119.21L198.923 135.237L209.979 128.623L210.776 112.974ZM207.868 126.79L207.728 128.692L201.194 132.557L201.284 130.635L207.868 126.79ZM203.246 118.572L204.69 121.62L203.604 122.228L203.276 129.071L202.24 129.669L202.439 122.826L201.393 123.453L203.246 118.572ZM206.872 116.56L208.276 119.558L207.121 120.206L206.881 126.999L205.776 127.617L206.124 120.774L205.039 121.391L206.872 116.56Z" fill="#322214"/>
<path d="M184.211 61.9254L144.777 98.5808C143.661 99.6466 142.924 101.24 142.954 102.067C142.934 102.107 142.834 102.137 142.794 102.067C142.844 101.43 142.436 100.991 142.137 100.922C142.286 100.941 142.426 100.991 142.466 100.802C142.486 100.682 142.515 100.543 142.565 100.394C142.605 100.264 142.665 100.125 142.735 99.9753C142.974 99.4374 143.362 98.8198 143.84 98.3417L183.613 61.1484L184.211 61.9254Z" fill="#D7AA77"/>
<path d="M175.515 106.39C175.515 106.499 175.565 106.549 175.635 106.519L187.478 100.443C187.498 100.433 187.508 100.413 187.518 100.373L188.175 80.96C188.195 79.8942 188.793 78.8384 189.61 78.1113L228.944 42.7607L216.972 47.8905L177.438 83.7092C176.422 84.7053 176.073 85.8806 176.053 86.8767L175.515 106.39Z" fill="url(#paint13_linear_20_1057)"/>
<path d="M184.211 61.9252L256.187 31.0869L255.749 30.4893L183.623 61.1383L184.211 61.9252Z" fill="#F8CE93"/>
</g>
<defs>
<linearGradient id="paint0_linear_20_1057" x1="3638.9" y1="2399.73" x2="3675.96" y2="2458.27" gradientUnits="userSpaceOnUse">
<stop/>
<stop offset="1" stop-opacity="0"/>
</linearGradient>
<linearGradient id="paint1_linear_20_1057" x1="4857.35" y1="1986.68" x2="4852.52" y2="1999.67" gradientUnits="userSpaceOnUse">
<stop/>
<stop offset="1" stop-opacity="0"/>
</linearGradient>
<linearGradient id="paint2_linear_20_1057" x1="4585.89" y1="1906.89" x2="5216.62" y2="2168.33" gradientUnits="userSpaceOnUse">
<stop stop-color="#C37A44"/>
<stop offset="0.4442" stop-color="#BB713D"/>
<stop offset="0.6406" stop-color="#A05728"/>
<stop offset="1" stop-color="#964E23"/>
</linearGradient>
<linearGradient id="paint3_linear_20_1057" x1="7055.39" y1="3932.99" x2="5687.3" y2="2012.75" gradientUnits="userSpaceOnUse">
<stop stop-color="#E9B880"/>
<stop offset="1" stop-color="#E4AF76"/>
</linearGradient>
<linearGradient id="paint4_linear_20_1057" x1="3121.86" y1="1230.11" x2="3095.98" y2="1158.83" gradientUnits="userSpaceOnUse">
<stop stop-color="#C37A45" stop-opacity="0"/>
<stop offset="0.1334" stop-color="#C37A45"/>
<stop offset="0.2945" stop-color="#D08D55"/>
<stop offset="0.5021" stop-color="#DEA167"/>
<stop offset="0.6966" stop-color="#E8AF73"/>
<stop offset="0.8631" stop-color="#ECB477"/>
<stop offset="1" stop-color="#ECB477" stop-opacity="0"/>
</linearGradient>
<linearGradient id="paint5_linear_20_1057" x1="3251.81" y1="1653.37" x2="2000.76" y2="4528.65" gradientUnits="userSpaceOnUse">
<stop offset="0.0881" stop-color="#AF6938"/>
<stop offset="0.4829" stop-color="#9A5227"/>
<stop offset="0.7792" stop-color="#8D4520"/>
</linearGradient>
<linearGradient id="paint6_linear_20_1057" x1="5097.38" y1="3087.4" x2="5820.24" y2="1787.73" gradientUnits="userSpaceOnUse">
<stop offset="0.0327" stop-color="#E4AF76"/>
<stop offset="1" stop-color="#E9B880"/>
</linearGradient>
<linearGradient id="paint7_linear_20_1057" x1="3594.92" y1="986.348" x2="3603.48" y2="948.369" gradientUnits="userSpaceOnUse">
<stop stop-color="#AF6A38" stop-opacity="0"/>
<stop offset="0.086" stop-color="#AF6A38"/>
<stop offset="0.1977" stop-color="#B87542"/>
<stop offset="0.5828" stop-color="#D59C66"/>
<stop offset="0.7771" stop-color="#E4AF76"/>
<stop offset="0.9239" stop-color="#E4AF76" stop-opacity="0"/>
</linearGradient>
<linearGradient id="paint8_linear_20_1057" x1="146.271" y1="2078.4" x2="435.091" y2="2078.4" gradientUnits="userSpaceOnUse">
<stop stop-color="#743F1A" stop-opacity="0"/>
<stop offset="0.4929" stop-color="#743F1A" stop-opacity="0.8872"/>
<stop offset="0.5" stop-color="#743F1A" stop-opacity="0.9"/>
<stop offset="0.5297" stop-color="#743F1A" stop-opacity="0.8466"/>
<stop offset="1" stop-color="#743F1A" stop-opacity="0"/>
</linearGradient>
<linearGradient id="paint9_linear_20_1057" x1="4867.62" y1="1986.11" x2="4869.94" y2="1979.91" gradientUnits="userSpaceOnUse">
<stop stop-color="#322214"/>
<stop offset="0.2397" stop-color="#322314" stop-opacity="0.9891"/>
<stop offset="1" stop-color="#322214" stop-opacity="0"/>
</linearGradient>
<linearGradient id="paint10_linear_20_1057" x1="7239.84" y1="2594.68" x2="7160.54" y2="2859.34" gradientUnits="userSpaceOnUse">
<stop offset="0.0476" stop-color="#C69866"/>
<stop offset="0.4156" stop-color="#BA8C5E"/>
<stop offset="0.8135" stop-color="#B5875B"/>
</linearGradient>
<linearGradient id="paint11_linear_20_1057" x1="3530.28" y1="2387.36" x2="1650.24" y2="299.359" gradientUnits="userSpaceOnUse">
<stop stop-color="#845F35"/>
<stop offset="0.4311" stop-color="#91673C"/>
<stop offset="0.4407" stop-color="#976A40"/>
<stop offset="0.8737" stop-color="#986B40"/>
<stop offset="1" stop-color="#AB8157"/>
</linearGradient>
<linearGradient id="paint12_linear_20_1057" x1="3687.31" y1="2415.8" x2="3691.82" y2="2422.9" gradientUnits="userSpaceOnUse">
<stop stop-color="#322214" stop-opacity="0"/>
<stop offset="1" stop-color="#322214"/>
</linearGradient>
<linearGradient id="paint13_linear_20_1057" x1="2614.9" y1="4036.01" x2="2977.53" y2="2202.17" gradientUnits="userSpaceOnUse">
<stop stop-color="#A9794B"/>
<stop offset="0.3857" stop-color="#AE7F53"/>
<stop offset="0.4557" stop-color="#AC7D50"/>
<stop offset="0.6236" stop-color="#A9794B"/>
<stop offset="1" stop-color="#B2875D"/>
</linearGradient>
<clipPath id="clip0_20_1057">
<rect width="256" height="193.245" fill="white" transform="translate(0.344238 0.37207)"/>
</clipPath>
</defs>
</svg>
