<svg xmlns="http://www.w3.org/2000/svg" width="256" height="236" fill="none" viewBox="0 0 256 236">
  <path fill="#36687f" d="M237.196 42.81c6.265-.014 12.534 0 18.798-.007.004 64.272.013 128.544-.004 192.816q-108.794-.004-217.59 0c-2.557.06-5.198-.046-7.551-.978-4.907-1.769-8.305-6.094-8.243-10.594-.013-15.57 0-31.137-.004-46.704 6.273-3.199 12.574-6.361 18.84-9.567 65.252-.042 130.506.049 195.754-.046q.05-62.46 0-124.92"/>
  <path fill="#ebebeb" d="M129.628 41.22c8.656-1.1 17.632-.546 25.883 2.407 6.236 2.25 12.125 6.123 15.691 11.82 2.262 3.566 3.382 7.802 3.332 12.017-.05 3.85.412 7.91-1.328 11.493-3.208 6.868-10.218 11.158-17.357 12.983 6.443 1.311 12.846 4.052 17.373 8.963 3.457 3.615 5.436 8.601 5.365 13.612-.079 4.861.487 9.859-1.083 14.558-2.091 6.706-7.119 12.162-13.083 15.707-8.406 5.056-18.427 6.814-28.133 6.552-8.142-.233-16.477-1.649-23.645-5.698-5.878-3.224-10.672-8.41-13.3-14.587-1.52-3.432-2.408-7.119-2.832-10.841q12.393 0 24.787.003c.438 3.562 2.104 7.06 5.006 9.251 3.741 2.891 8.731 3.42 13.3 3.037 4.094-.354 8.385-2.095 10.638-5.706 2.129-3.241 2.149-7.26 2.062-10.997.117-3.449-1.112-7.052-3.773-9.342-3.25-2.837-7.635-3.866-11.826-4.237-3.852-.242-7.714-.058-11.571-.145-.054-5.894-.021-11.788-.016-17.678 4.977-.162 10.054.467 14.932-.8 3.103-.825 6.21-2.649 7.527-5.71 1.241-2.607.912-5.553.949-8.348-.012-2.578-.72-5.314-2.628-7.155-2.603-2.608-6.502-3.299-10.051-3.212-3.503-.037-7.177 1.059-9.646 3.636-2.266 2.25-3.395 5.412-3.666 8.548-8.264.062-16.532.012-24.8.025.283-7.523 3.757-14.766 9.181-19.944 6.135-5.873 14.39-9.084 22.712-10.213"/>
  <path fill="#7fc5de" d="M.297 25.142C14.017 16.92 27.705 8.622 41.417.379c.012 63.654-.042 127.307.024 190.961-6.264 3.811-12.566 7.569-18.839 11.371-7.54 4.49-14.995 9.126-22.58 13.533.071-62.37.008-124.745.03-187.116.091-1.32-.3-2.741.245-3.986"/>
  <path fill="#39a5cc" d="M129.628 41.22c-8.322 1.129-16.577 4.34-22.712 10.213-5.424 5.177-8.898 12.42-9.181 19.944 8.268-.013 16.536.037 24.8-.026.271-3.136 1.4-6.298 3.666-8.547 2.469-2.578 6.143-3.673 9.646-3.636 3.549-.087 7.448.604 10.051 3.212 1.908 1.84 2.616 4.577 2.628 7.155-.037 2.795.292 5.74-.949 8.348-1.317 3.061-4.424 4.885-7.527 5.71-4.878 1.266-9.955.637-14.932.8-.005 5.89-.038 11.783.016 17.677 3.857.088 7.719-.096 11.571.146 4.191.371 8.576 1.399 11.826 4.236 2.661 2.291 3.89 5.894 3.773 9.343.087 3.736.067 7.756-2.062 10.996-2.253 3.611-6.544 5.353-10.638 5.706-4.569.384-9.559-.146-13.3-3.036-2.902-2.192-4.568-5.689-5.006-9.251q-12.394-.005-24.787-.004c.424 3.723 1.311 7.41 2.832 10.842 2.628 6.177 7.422 11.363 13.3 14.587 7.168 4.048 15.503 5.465 23.645 5.698 9.706.262 19.727-1.496 28.133-6.552 5.964-3.545 10.992-9.001 13.083-15.707 1.57-4.699 1.004-9.697 1.083-14.558.071-5.011-1.908-9.997-5.365-13.612-4.527-4.91-10.93-7.652-17.373-8.963 7.139-1.825 14.149-6.115 17.357-12.984 1.74-3.582 1.278-7.643 1.328-11.492.05-4.215-1.07-8.451-3.332-12.017-3.566-5.698-9.455-9.571-15.691-11.82-8.251-2.954-17.227-3.508-25.883-2.408M41.417.38c60.629-.017 121.259 0 181.888-.01 3.732-.049 7.427 1.534 10.014 4.216 2.428 2.541 3.89 6.015 3.861 9.543.029 9.56-.005 19.123.016 28.682q.051 74.238 0 148.475c-65.248.112-130.502.004-195.755.054-.066-63.653-.012-127.307-.024-190.96"/>
</svg>
