<svg width="256" height="182" viewBox="0 0 256 182" fill="none" xmlns="http://www.w3.org/2000/svg">
<g clip-path="url(#clip0_20_1591)">
<path d="M249.257 101.714C248.392 102.592 249.673 103.584 250.816 103.193C248.483 106.576 245.454 106.712 243.625 105.405C242.637 104.298 244.655 105 246.262 104.981C248.107 104.96 249.566 104.046 249.365 103.601C248.586 103.375 247.678 104.365 246.433 104.264C243.717 104.042 240.283 103.41 240.235 102.344C240.202 101.799 240.8 100.207 241.252 100.369C241.884 100.814 242 101.67 242.439 101.768C242.722 101.831 242.948 101.16 243.729 100.439C244.038 100.187 244.07 100.359 244.07 100.544C244.07 100.664 244.272 100.606 244.663 99.9929C245.442 98.7173 244.402 95.9029 243.187 94.6356C241.935 93.8657 243.381 92.5104 244.663 92.4489C247.583 92.1915 245.249 89.5607 242.203 90.7543C239.702 91.6221 238.994 93.0393 237.286 93.7776C235.158 94.6971 234.414 94.2354 233.299 94.6787C230.303 95.8701 228.533 97.6206 225.421 96.1116C223.119 95.1161 224.284 96.44 225.133 97.5421C225.749 98.3415 226.242 98.9137 225.038 99.3916C220.979 101.314 222.072 97.9201 220.392 97.8062C216.811 94.0479 219.407 78.673 204.101 74.409C196.472 71.0587 191.561 71.399 189.122 69.489C196.038 63.6397 204.579 75.598 218.697 76.3223C226.62 76.4953 222.781 80.4342 231.106 82.3903C237.157 87.9535 238.462 88.4589 236.846 80.4223C236.569 78.3619 234.187 80.0201 233.184 78.3997C232.608 77.2433 234.78 77.0196 237.284 79.493C241.935 83.9802 244.281 78.9919 245.374 80.7504C246.171 81.953 247.447 79.7435 250.135 78.8097C251.75 78.2484 253.481 77.3002 253.355 76.9237C253.346 75.598 248.016 76.0308 246.194 74.737C244.281 73.0697 246.763 76.8508 244.882 77.5797C241.73 79.0602 239.748 77.3975 237.174 75.065C239.953 73.3202 240.619 72.7667 240.181 74.1903C239.634 77.1697 243.506 73.1608 244.39 70.3637C244.39 68.6522 248.118 68.6387 248.763 67.5757C248.631 66.8286 241.729 65.6534 240.837 65.9357C236.832 66.578 235.215 67.579 234.168 65.9904C232.984 64.2854 228.635 63.0793 225.476 64.6237C223.065 65.6274 220.242 65.4958 218.986 65.7521C218.272 65.8978 218.054 66.7282 218.642 66.9744C220.911 68.628 212.882 68.423 209.458 66.537C207.449 64.9722 205.297 66.0656 204.648 62.3277C203.588 58.0364 203.042 61.6922 200.985 59.2664C199.403 56.8033 199.996 55.6575 203.336 58.0637C204.484 58.8291 206.178 59.9771 207.108 60.6877C209.623 62.6448 207.807 62.5124 208.146 63.8584C208.498 64.2001 209.758 63.735 211.731 63.1841C214.151 62.5088 217.354 61.6324 217.713 61.0704C217.404 60.3301 215.371 60.2027 213.599 59.4942C212.346 58.9931 211.174 58.7057 210.515 58.6691C209.495 58.8884 210.131 60.3224 208.245 58.2667C208.621 57.4808 212.438 58.1047 216.128 56.4238C218.348 55.0639 229.897 54.8248 231.544 56.3144C235.602 58.2756 235.227 57.2326 234.386 55.0024C233.461 52.557 232.951 51.3506 231.544 51.2851C230.05 51.4594 234.185 53.3044 233.429 56.0976C233.157 56.5101 232.873 53.4076 230.997 53.5264C229.008 53.6119 230.802 52.416 230.45 50.4104C230.067 49.0848 233.04 50.8785 237.01 46.6384C238.438 44.9506 239.788 47.0519 239.634 43.7958C239.679 41.4435 241.024 38.8311 241.821 37.2905C240.101 36.2343 237.348 40.5518 234.659 41.8278C232.819 42.6396 233.508 43.6198 235.506 44.1115C236.011 45.1484 233.074 47.274 230.46 47.1031C227.738 46.9252 225.387 46.4027 225.421 45.1625C225.113 43.3106 229.008 44.9336 229.193 45.3811C230.136 46.8469 231.434 44.8652 228.701 41.0625C226.207 37.639 226.275 39.5182 225.967 38.0558C226.104 36.8873 227.42 35.6744 228.154 34.2292C227.573 33.4365 226.292 33.9149 223.89 36.4705C219.578 40.8165 219.612 43.9256 214.488 46.4745C207.512 44.0216 207.688 44.5748 212.902 49.2078C209.294 50.8956 208.318 49.9125 207.366 50.3174C206.063 50.8718 207.043 51.3608 210.934 52.9251C204.579 52.342 202.096 52.8659 202.005 51.9776C202.051 50.907 202.789 48.9686 202.953 49.6451C203.701 51.4105 206.491 49.8108 204.374 44.0145C203.722 42.0376 202.799 41.7094 207.709 38.8212C208.398 38.5509 208.529 38.6025 208.529 38.2745C208.166 37.5267 206.072 37.5807 204.049 38.2006C202.341 38.7237 201.334 39.8711 199.564 39.9145C195.946 40.8165 190.994 45.3768 189.341 45.1078C188.581 44.4691 187.654 43.0512 186.662 41.3358C186.342 42.6494 186.033 44.0199 185.514 44.2878C184.131 43.4007 182.623 40.9461 181.852 41.1718C180.218 45.4973 182.883 47.2398 182.453 48.6611C181.956 50.2894 185.345 50.0175 182.125 52.0504C177.827 55.2348 174.885 55.835 175.51 52.6518C176 49.0736 176.372 56.0406 178.08 52.4878C178.863 48.1053 175.674 43.8231 178.517 43.1945C182.371 41.3176 174.581 41.0443 171.629 42.7025C169.309 43.7112 168.559 43.887 165.452 43.7958C167.883 41.8578 171.854 41.0128 176.573 39.3515C178.586 38.6429 180.717 36.8716 182.234 36.5252C184.854 35.7371 194.762 41.5909 194.753 39.3678C194.727 38.6269 193.77 37.6023 193.356 36.4129C192.907 35.1218 193.356 34.1711 192.457 32.9718C191.403 31.6744 193.169 33.2709 195.3 30.9492C198.995 26.851 196.311 33.8144 199.126 30.1839C199.917 28.2041 199.512 26.7818 199.906 25.1901C200.243 23.8227 201.903 23.3873 202.406 22.2572C199.155 20.6931 196.923 24.5302 193.769 26.9039C192.608 27.6845 193.715 27.6789 193.871 28.0348C194.075 28.4993 194.344 28.9393 190.981 29.0359C187.678 28.8354 186.927 29.2454 186.608 27.0679C186.801 25.4978 187.314 25.3276 187.678 26.4666C187.864 27.0481 187.542 27.9015 188.576 26.5759C189.795 24.9912 188.689 23.5216 189.45 23.8426C190.257 24.602 189.613 26.1753 190.489 26.0292C192.146 23.7792 192.295 21.1874 190.27 17.6106C189.225 16.2563 193.523 14.6109 192.129 13.7839C188.838 12.5832 184.945 18.5855 180.758 21.3826C179.905 21.2993 179.665 20.1375 178.626 20.5079C176.039 23.8699 177.929 28.3571 170.605 26.8536C169.741 26.9141 173.709 29.4153 170.754 30.1292C169.9 30.1224 167.793 31.8649 168.622 31.5505C169.031 31.4016 169.536 31.3447 171.005 32.1496C171.816 32.5938 173.076 32.7547 173.064 32.9939C173.053 33.2344 172.668 33.4285 172.285 33.7372C161.461 35.9648 159.001 43.2765 155.502 44.1785C154.177 44.0903 155.595 43.3339 153.972 42.8665C152.05 42.3884 154.461 44.634 152.878 45.2718C150.427 45.4019 147.18 42.6484 145.444 39.5865C146.316 36.5575 146.873 39.0778 149.27 39.4225C150.702 39.5868 151.042 41.2832 152.332 41.6091C154.822 41.1862 154.701 36.2666 154.026 34.3385C153.344 32.995 152.665 34.4006 152.496 33.0812C152.496 32.3705 152.769 32.2612 153.753 32.4799C155.622 32.8496 156.131 31.5894 157.525 31.1679C157.798 31.1679 157.962 31.6052 157.962 32.0972C157.962 32.5755 158.005 32.7549 158.264 32.5819C160.784 29.8688 165.364 30.1111 165.165 28.1065C164.651 27.7281 156.98 26.5454 155.393 27.0679C152.978 27.7983 157.755 28.6489 155.557 29.3092C152.795 29.6747 151.401 29.1152 152.018 26.2616C152.081 26.0002 152.195 25.6461 152.441 25.4279C152.769 25.2639 152.988 25.4279 152.988 25.8106C152.988 26.3025 153.316 26.1932 153.917 25.5919C155.858 22.7082 153.688 19.1037 156.432 18.1573C158.243 17.2706 158.378 16.7428 156.814 16.2439C152.077 15.7952 151.428 18.4488 149.872 18.5946C148.387 18.6979 145.863 20.086 143.536 22.2128C143.262 22.3548 143.202 22.1715 143.202 21.7106C142.782 18.4752 137.248 25.4643 134.729 22.9679C133.892 22.059 133.451 22.3763 133.402 23.0584C133.351 23.7759 133.812 24.9547 133.253 24.8266C132.384 24.2012 129.944 26.9546 131.777 26.6305C134.316 26.4324 135.136 26.9107 130.356 29.1452C125.279 31.7282 122.65 31.5963 123.085 32.4252C123.656 33.0609 124.887 33.0153 126.406 33.2999C127.318 33.4706 127.841 34.6665 129.317 34.0105C130.519 33.4865 132.099 33.6408 133.8 34.0105C133.493 36.5808 133.348 40.3562 133.8 40.6798C134.755 41.1075 133.974 39.9709 134.838 39.8598C135.541 40.038 136.287 42.4268 135.44 43.4678C134.39 44.5173 136.267 44.4361 136.861 43.6865C137.759 42.3971 138.208 43.6977 138.774 44.7798C139.875 47.2887 140.33 45.8099 141.125 47.1305C142.094 48.3862 144.64 49.5209 147.302 50.3558C148.232 50.5198 148.177 50.6291 146.865 51.2851C144.441 52.6238 145.938 53.3654 144.624 54.1824C139.15 60.0522 140.62 69.2903 146.769 74.0947C152.358 78.4605 153.272 77.0741 158.564 78.4543C163.374 80.108 173.41 80.3733 175.182 82.3356C177.575 85.5139 176.21 91.1809 173.105 92.5582C159.73 94.7085 142.966 86.873 137.791 69.5983C136.775 68.1245 138.536 66.6651 137.876 63.1545C136.272 59.4187 135.869 63.3438 134.183 65.4984C127.897 61.506 122.822 59.0269 122.812 57.8998C123.032 56.4308 124.763 60.1495 126.475 59.1024C129.202 56.6538 127.963 52.5673 122.211 46.2011C107.541 31.5164 68.2548 6.14886 48.4109 0.5C47.3176 0.5 46.8256 0.718647 46.9349 1.15601C51.6545 5.37547 57.351 6.37237 62.6788 13.456C62.2117 14.5425 59.0836 15.0586 58.8522 15.9159C59.2544 16.5533 60.5139 16.3376 61.0887 16.505C66.0606 17.9532 69.3671 22.2975 68.0908 23.7879C66.5092 25.2207 63.0602 23.6385 62.6242 25.7559C62.9002 26.5541 63.9669 25.7719 67.4348 27.5599C75.3452 32.2187 76.2593 37.7697 66.0135 33.7918C53.9732 29.6782 41.5366 26.6032 35.947 29.4732C30.8545 31.7786 40.3015 30.523 45.4043 33.1905C47.7035 34.732 47.7176 34.9577 46.0056 35.9238C41.0003 37.1256 32.9266 36.6482 27.3097 37.7278C24.3307 38.6029 22.494 37.6247 20.6404 40.4065C20.6238 42.2651 27.1963 40.1198 31.4644 41.0625C33.7435 41.8117 31.3895 43.8449 28.1297 44.7252C17.5487 47.6854 7.5508 49.4311 5.38846 51.7224C2.59295 54.0294 0.706849 54.0562 0.304492 55.2211C0.0683291 55.8186 -1.17154 55.6789 10.4451 53.0139C15.1736 51.9292 26.4239 51.6391 27.3644 52.2691C27.2739 52.9608 25.2894 53.6178 25.1777 54.8384C25.1777 55.304 25.3429 55.4392 26.2401 55.2439C35.0188 52.5919 48.9849 53.4809 54.0871 55.3942C55.6805 55.9917 55.8244 58.0211 55.7362 59.2118C56.1623 63.4492 49.5513 65.845 49.8869 68.4504C50.3481 70.157 50.8728 68.2496 56.1189 67.1384C60.0549 66.3047 69.4165 68.7305 72.9015 72.6597C82.3279 83.1018 74.1345 84.5267 71.4255 88.021C71.0515 88.7478 70.8859 89.5745 71.5052 90.3753C72.2926 90.8166 73.9948 88.0688 79.8988 87.9116C84.0739 88.4788 93.6235 93.9796 94.5494 95.5649C74.6246 105.558 56.9761 112.746 49.6071 111.505C40.6568 107.596 25.3034 102.976 18.8323 96.3984C18.6906 95.574 25.7061 97.4418 29.0591 100.758C28.0216 91.7302 17.5404 92.6165 14.0338 85.9887C12.3448 82.7963 12.8367 75.1197 11.7844 70.0357C11.4462 69.501 11.0252 69.15 10.8436 69.3897C9.55675 71.088 7.71175 82.363 7.62981 87.693C7.50846 92.8219 10.1034 99.7196 12.5498 106.006C13.4501 105.311 14.3766 101.888 14.1898 98.3529C25.7972 111.336 32.5394 111.108 36.0747 114.554C16.6008 120.797 10.9721 130.226 10.1991 141.485C7.48397 153.657 21.6062 169.055 48.4656 162.586C52.2058 161.298 54.0875 168.404 59.9896 168.272C60.8315 168.283 62.145 165.815 62.1869 168.654C62.0317 170.581 64.2962 170.287 64.4282 169.037C64.6327 166.269 63.7458 165.681 65.7949 166.03C68.7104 166.663 68.2093 162.723 69.2936 166.085C69.8887 167.911 70.6414 167.912 71.5895 165.647C72.0051 163.65 69.9069 161.25 69.1295 157.119C72.1023 159.101 72.1259 159.29 72.0815 157.721C71.9448 155.958 69.9272 153.492 65.7493 154.318C63.9043 154.682 63.1224 155.997 60.6562 156.846C60.0095 156.862 60.0985 157.369 59.9756 157.5C59.3581 157.899 58.0604 157.321 57.8683 156.901C58.7793 155.388 65.6582 152.427 67.4804 140.218C70.308 139.738 74.211 140.192 77.0562 140.009C80.6444 139.778 81.709 138.619 83.4521 138.314C85.1727 139.005 82.8533 141.379 83.2335 142.578C84.29 142.749 88.6522 141.129 88.4643 136.841C88.7547 135.389 89.5748 135.909 90.1215 136.182C92.4786 137.347 98.1313 136.491 100.441 139.99C101.448 141.232 100.918 142.018 100.235 142.141C97.9626 142.342 97.6722 145.503 100.016 146.186C103.361 147.177 104.881 146.767 105.428 149.411C105.599 151.653 109.084 149.466 109.255 150.942C108.992 152.593 109.827 153.042 109.965 154.088C110.061 154.813 108.708 154.078 108.653 157.721C108.351 161.097 111.579 162.29 112.261 162.367C112.993 162.396 113.513 161.689 112.371 161.11C111.646 160.553 114.363 161.288 116.088 159.579C118.362 156.637 122.918 160.222 128.686 163.592C130.575 164.39 131.44 164.363 135.385 166.85C140.086 170.205 140.756 162.768 141.891 168.545C142.199 170.115 143.239 169.419 143.476 166.467C143.747 162.101 141.852 163.338 143.312 160.727C143.679 159.889 144.122 159.306 144.557 159.374C145.224 159.479 146.283 160.237 146.701 161.001C147.954 163.338 148.614 159.648 146.865 157.229C142.566 152.997 140.972 154.773 140.032 153.566C139.689 152.9 140.934 152.757 142.547 153.566C143.975 154.227 143.844 153.553 142.601 151.926C135.7 146.767 133 154.249 129.044 153.347C119.409 149.178 113.628 144.149 116.915 132.032C117.664 129.843 119.918 132.646 120.461 132.667C121.616 132.523 120.569 128.229 118.329 127.053C115.778 125.795 114.277 122.919 111.988 122.03C111.101 121.686 109.665 121.825 106.357 121.203C108.469 119.194 115.063 116.324 126.327 117.947C129.466 118.4 132.363 124.781 132.652 129.294C132.901 134.166 134.229 136.012 134.955 135.82C137.466 133.418 134.606 128.351 141.344 124.593C148.081 129.475 152.88 133.861 162.609 134.761C163.757 134.979 163.866 135.253 163.593 137.057C161.845 145.517 163.202 141.1 164.96 142.906C166.211 144.731 163.83 152.297 166.272 150.286C167.206 149.262 167.415 149.743 168.13 151.434C169.086 154.134 168.258 156.744 169.552 156.846C170.561 156.823 170.796 159.808 169.497 159.251C167.194 159.357 165.45 161.63 166.15 164.772C166.523 166.441 167.584 167.397 169.169 169.201C168.908 167.298 168.507 164.96 168.758 164.652C169.286 164.727 169.875 165.741 171.252 166.039C172.788 166.371 174.801 165.823 176.658 167.123C178.966 169.362 179.809 171.743 183.273 174.339C184.525 175.277 186.687 177.077 188.275 178.675C189.964 180.446 192.597 176.954 193.988 178.111C194.813 178.798 193.457 180.608 193.613 181.125C193.791 181.71 194.417 181.516 195.792 180.025C197.111 178.039 197.273 176.926 196.393 174.886C195.901 173.957 196.01 173.902 197.65 174.175C199.778 174.48 200.183 174.098 201.368 172.153C201.869 171.331 203.376 172.002 203.445 173.629C203.554 175.638 204.077 175.099 205.304 173.738C207.631 170.854 204.761 167.597 202.461 167.178C199.625 166.43 202.188 165.442 197.432 163.734C193.281 162.017 193.259 164.317 189.341 164.554C181.547 162.234 179.393 156.163 179.665 141.375C179.93 137.905 181.846 138.608 181.852 140.829C181.934 144.249 184.201 140.365 184.038 144.929C183.712 149.545 186.357 145.481 187.318 149.138C188.421 152.006 188.64 150.012 190.325 151.653C191.611 152.945 191.842 151.466 192.785 152.473C193.236 153.873 188.846 151.431 187.318 156.737C186.659 158.742 188.794 159.921 190.598 160.181C192.382 160.211 190.52 159.391 190.434 158.486C190.793 157.854 191.921 159.016 193.386 157.994C194.62 156.863 196.926 159.75 198.962 160.181C199.345 160.181 199.728 160.563 199.892 160.946C204.033 164.932 209.517 170.563 211.918 169.911C214.441 169.737 215.056 168.692 215.417 170.458C215.857 172.983 218.646 171.11 218.096 168.545C217.708 165.717 216.449 163.75 218.205 164.007C219.373 163.916 220.254 162.817 221.485 161.055C222.002 162.405 222.513 163.616 223.016 164.609C223.746 164.576 224.023 163.582 224.218 161.547C224.47 158.867 217.558 153.562 216.237 153.675C213.939 153.565 212.958 155.762 210.046 155.343C206.792 154.874 201.395 150.118 200.985 148.81C196.379 138.328 190.913 128.214 192.457 124.975C194.292 117.274 196.627 117.191 197.035 114.775C197.774 110.402 196.018 108.639 198.088 106.17C205.259 101.157 209.112 96.7585 210.552 92.1756C211.933 94.4955 214.159 100.981 217.539 106.531C215.935 106.939 211.829 107.215 211.888 107.796C211.931 108.225 216.594 108.627 220.118 108.084C222.896 107.566 221.112 108.659 222.688 108.904C225.131 109.077 221.449 111.2 219.527 113.625C218.952 114.571 221.617 114.388 224.71 112.02C226.248 110.845 227.163 110.567 227.547 110.683C227.935 110.799 228.27 110.957 228.701 109.614C228.88 106.101 236.012 110.175 243.495 114.411C244.342 114.995 244.793 116.119 245.593 115.846C246.98 110.824 244.657 107.202 247.67 106.772C250.38 105.822 251.736 103.388 252.207 104.476C252.408 105.492 253.954 104.491 254.011 102.453C254.196 100.193 255.157 98.9992 255.651 97.5876C255.096 96.99 250.909 100.181 249.257 101.714ZM163.21 70.9103C158.386 69.9947 150.118 68.5825 148.997 63.3117C149.241 61.7015 151.98 58.697 152.55 59.1024C153.059 59.7594 151.665 62.3323 152.004 63.2571C152.902 63.2571 154.354 61.8509 155.83 61.125C156.387 61.4531 155.687 63.6739 156.924 63.8584C157.361 63.8584 157.744 64.241 157.744 64.6784C158.04 65.8415 159.889 67.9618 162.992 70.3637C163.757 70.801 163.807 70.9849 163.21 70.9103ZM38.5709 141.703C39.6461 141.653 42.1516 141.653 40.1562 144.546C39.1292 146.325 38.8589 147.532 40.5936 147.225C42.0833 146.414 40.8077 151.379 40.0469 151.981C36.0927 153.839 21.0881 148.077 21.023 145.147C21.7264 140.118 32.8283 131.119 40.9215 129.95C41.3871 129.799 42.6586 136.254 39.4456 138.642C37.8756 140.231 36.4128 142.255 38.5709 141.703Z" fill="white"/>
</g>
<defs>
<clipPath id="clip0_20_1591">
<rect width="256" height="181.146" fill="white" transform="translate(0 0.416016)"/>
</clipPath>
</defs>
</svg>
