<svg xmlns="http://www.w3.org/2000/svg" width="257" height="212" fill="none" viewBox="0 0 257 212">
  <g clip-path="url(#a)">
    <path fill="url(#b)" d="m118.972 211.596 41.787-3.258s14.291-2.327 22.679-16.133l-29.514-7.136z"/>
    <path fill="url(#c)" d="M61.186 113.709c-12.427.621-35.418 2.793-35.418 2.793l100.195 72.756 22.834 5.739 34.641-2.637-100.815-72.911s-8.078-5.74-19.728-5.74z"/>
    <path fill="url(#d)" d="m190.429 99.282 43.029-2.637s14.757-2.171 23.146-15.823l-30.603-7.601z"/>
    <path fill="url(#e)" d="M129.535 0c-12.893.465-36.504 2.327-36.504 2.327l104.388 74.462 23.612 6.05 35.727-2.172L151.749 6.05S143.05 0 130.778 0z"/>
    <path fill="url(#f)" d="M.914 132.635c-.155.156-.155.311-.155.465l27.495 19.857 72.854 52.744c15.378 11.014 36.194 6.36 46.758-10.704l-55.612-40.023-45.204-32.887c-5.592-4.034-11.806-5.895-18.02-5.895-10.873 0-21.592 5.739-28.116 16.443"/>
    <path fill="url(#g)" d="M68.642 18.305c0 .155-.156.31-.31.465l28.581 20.323 28.583 20.166 47.534 33.818c16 11.325 37.437 6.826 48-10.083l-28.893-20.632-28.893-20.477-47.223-33.663c-5.903-4.189-12.583-6.205-19.108-6.205-11.028.155-21.747 5.74-28.27 16.288"/>
    <path fill="url(#h)" d="m48.448 41.264 36.815 40.334c1.71 2.327 3.573 4.498 5.748 6.36l71.767 78.806 35.728-2.172c10.563-16.91 6.214-39.868-9.786-51.193l-47.534-33.818-28.427-20.167-28.583-20.321z"/>
    <path fill="url(#i)" d="M48.137 41.73C37.73 58.483 42.08 81.133 57.768 92.3l47.068 33.509 29.049 20.476 28.893 20.477c10.563-16.908 6.213-39.868-9.787-51.192L48.448 41.264c0 .155-.156.31-.31.465"/>
  </g>
  <defs>
    <linearGradient id="b" x1="192.877" x2="137.908" y1="-6.897" y2="264.415" gradientUnits="userSpaceOnUse">
      <stop stop-color="#1593f5"/>
      <stop offset="1" stop-color="#0084ce"/>
    </linearGradient>
    <linearGradient id="c" x1="187.485" x2="-42.998" y1="286.958" y2="-82.84" gradientUnits="userSpaceOnUse">
      <stop stop-color="#1593f5"/>
      <stop offset="1" stop-color="#0084ce"/>
    </linearGradient>
    <linearGradient id="d" x1="339.214" x2="200.417" y1="293.181" y2="44.056" gradientUnits="userSpaceOnUse">
      <stop stop-color="#ebebeb"/>
      <stop offset="1" stop-color="#15abff"/>
    </linearGradient>
    <linearGradient id="e" x1="93.038" x2="210.861" y1="-145.576" y2="124.472" gradientUnits="userSpaceOnUse">
      <stop stop-color="#ebebeb"/>
      <stop offset="1" stop-color="#79cfff"/>
    </linearGradient>
    <linearGradient id="f" x1="225.654" x2="38.355" y1="-42.851" y2="216.838" gradientUnits="userSpaceOnUse">
      <stop stop-color="#0057e5"/>
      <stop offset="1" stop-color="#0084ce"/>
    </linearGradient>
    <linearGradient id="g" x1="183.188" x2="124.285" y1="-52.662" y2="109.871" gradientUnits="userSpaceOnUse">
      <stop stop-color="#ebebeb"/>
      <stop offset="1" stop-color="#15abff"/>
    </linearGradient>
    <linearGradient id="h" x1="256.761" x2="-39.267" y1="271.507" y2="-119.363" gradientUnits="userSpaceOnUse">
      <stop stop-color="#ebebeb"/>
      <stop offset="1" stop-color="#79cfff"/>
    </linearGradient>
    <linearGradient id="i" x1="205.114" x2="53.237" y1="-92.117" y2="208.118" gradientUnits="userSpaceOnUse">
      <stop stop-color="#ebebeb"/>
      <stop offset="1" stop-color="#79cfff"/>
    </linearGradient>
    <clipPath id="a">
      <path fill="#ebebeb" d="M.759 0h256v212h-256z"/>
    </clipPath>
  </defs>
</svg>
