<svg xmlns="http://www.w3.org/2000/svg" width="255" height="256" fill="none" viewBox="0 0 255 256">
  <g clip-path="url(#a)">
    <circle cx="94.432" cy="31.5" r="13.5" fill="#ebebeb"/>
    <circle cx="162.432" cy="223.5" r="13.5" fill="#ebebeb"/>
    <path fill="url(#b)" d="M126.821.901c-10.395.049-20.322.934-29.057 2.478-25.731 4.542-30.403 14.047-30.403 31.576v23.15h60.807v7.717H44.541c-17.673 0-33.147 10.61-37.987 30.796-5.583 23.138-5.83 37.576 0 61.735 4.322 17.983 14.645 30.796 32.317 30.796h20.907v-27.752c0-20.049 17.365-37.734 37.986-37.734H158.5c16.907 0 30.404-13.906 30.404-30.868v-57.84c0-16.462-13.902-28.828-30.404-31.576C148.055 1.642 137.216.853 126.821.901m-32.884 18.62c6.281 0 11.41 5.208 11.41 11.61 0 6.381-5.129 11.54-11.41 11.54-6.303 0-11.41-5.159-11.41-11.54 0-6.402 5.107-11.61 11.41-11.61"/>
    <path fill="url(#c)" d="M196.487 65.822v26.973c0 20.912-17.748 38.514-37.987 38.514H97.764c-16.636 0-30.403 14.223-30.403 30.867v57.84c0 16.462 14.33 26.145 30.403 30.868 19.248 5.653 37.706 6.675 60.736 0 15.309-4.428 30.404-13.339 30.404-30.868v-23.15h-60.736v-7.717h91.139c17.672 0 24.258-12.314 30.404-30.796 6.348-19.028 6.078-37.326 0-61.735-4.368-17.574-12.709-30.796-30.404-30.796zM162.327 212.3c6.304 0 11.411 5.159 11.411 11.539 0 6.404-5.107 11.611-11.411 11.611-6.281 0-11.41-5.207-11.41-11.611 0-6.38 5.129-11.539 11.41-11.539"/>
  </g>
  <defs>
    <linearGradient id="b" x1="2.273" x2="142.364" y1=".899" y2="120.401" gradientUnits="userSpaceOnUse">
      <stop stop-color="#5a9fd4"/>
      <stop offset="1" stop-color="#306998"/>
    </linearGradient>
    <linearGradient id="c" x1="160.866" x2="110.632" y1="221.893" y2="151.427" gradientUnits="userSpaceOnUse">
      <stop stop-color="#ffd43b"/>
      <stop offset="1" stop-color="#ffe873"/>
    </linearGradient>
    <clipPath id="a">
      <path fill="#ebebeb" d="M.932 0h254v256h-254z"/>
    </clipPath>
  </defs>
</svg>
