<svg xmlns="http://www.w3.org/2000/svg" width="249" height="256" fill="none" viewBox="0 0 249 256"><g clip-path="url(#a)"><path fill="#69d3a7" d="M7.798 161.914a128.1 128.1 0 0 1-4.555-33.907c0-52.49 32.967-100.486 82.04-119.413l6.433 16.652C49.476 41.54 21.105 82.835 21.105 128.007c0 9.909 1.317 19.722 3.91 29.179z"/><path fill="url(#b)" d="M229.646 77.298c-19.096-36.662-56.687-59.44-98.076-59.44-14.666 0-28.92 2.823-42.337 8.374L82.387 9.744C97.986 3.29 114.531 0 131.57 0c48.084 0 91.738 26.451 113.922 69.047z"/><path fill="#ebebeb" d="M93.253 101.597c10.358 0 18.795 5.524 23.13 15.158l.343.754 17.395-5.907-.37-.891c-6.736-16.405-22.252-26.602-40.498-26.602-12.827 0-23.254 4.112-31.87 12.555-8.56 8.387-12.895 18.94-12.895 31.371 0 12.321 4.335 22.819 12.896 31.207 8.615 8.442 19.042 12.554 31.87 12.554 18.245 0 33.761-10.197 40.497-26.589l.37-.89-17.422-5.921-.33.781c-3.882 9.47-12.525 15.131-23.116 15.131-7.216 0-13.308-2.522-18.137-7.484-4.884-5.029-7.353-11.347-7.353-18.775 0-7.484 2.414-13.678 7.353-18.941 4.816-4.989 10.92-7.511 18.137-7.511"/><path fill="#ebebeb" d="m202.209 85.727-24.79 62.728-24.955-62.728H132.05l34.997 85.616-24.9 60.385 17.849 3.55 61.502-149.551z"/><path fill="url(#c)" d="m145.341 223.944-4.349 10.526c-.864 2.083-2.84 3.494-5.062 3.59-1.468.055-2.95.096-4.445.096-51.186-.027-96.472-36.113-107.694-85.836l-17.423 3.934c6.297 27.89 22.101 53.203 44.504 71.294 22.664 18.296 51.213 28.397 80.421 28.452h.26c1.715 0 3.416-.041 5.118-.109 9.164-.384 17.354-6.127 20.852-14.637l5.68-13.76z"/></g><defs><linearGradient id="b" x1="118.217" x2="215.629" y1="-8.264" y2="95.852" gradientUnits="userSpaceOnUse"><stop offset=".094" stop-color="#58d09e"/><stop offset=".988" stop-color="#58d09e" stop-opacity="0"/></linearGradient><linearGradient id="c" x1="1.875" x2="187.979" y1="186.248" y2="235.783" gradientUnits="userSpaceOnUse"><stop offset=".077" stop-color="#58d09e"/><stop offset=".762" stop-color="#ebebeb"/></linearGradient><clipPath id="a"><path fill="#ebebeb" d="M.576 0h248v256h-248z"/></clipPath></defs></svg>
