<svg width="216" height="256" viewBox="0 0 216 256" fill="none" xmlns="http://www.w3.org/2000/svg">
<path d="M209.174 194.773L124.653 15.2835C122.534 10.7964 118.11 7.83598 113.097 7.56155C107.953 7.26152 103.345 9.74267 100.745 13.9646L9.07661 162.438C6.23706 167.065 6.29338 172.772 9.2384 177.343L54.0476 246.756C56.7182 250.899 61.3457 253.297 66.1544 253.297C67.5183 253.297 68.8884 253.104 70.2371 252.706L200.305 214.236C204.289 213.058 207.546 210.239 209.251 206.502C210.956 202.766 210.923 198.486 209.174 194.773ZM190.25 202.473L79.8903 235.113C76.5193 236.111 73.2875 233.195 73.9962 229.794L113.421 40.9829C114.158 37.4521 119.039 36.891 120.579 40.1606L193.578 195.174C194.954 198.098 193.383 201.547 190.25 202.473Z" fill="white"/>
</svg>
