<svg width="214" height="256" viewBox="0 0 214 256" fill="none" xmlns="http://www.w3.org/2000/svg">
<path d="M128 168C150.091 168 168 150.091 168 128C168 105.909 150.091 88 128 88C105.909 88 88 105.909 88 128C88 150.091 105.909 168 128 168Z" fill="#654BF6"/>
<path d="M200.07 222.705C203.473 226.108 203.132 231.742 199.132 234.421C178.787 248.049 154.317 255.996 127.99 255.996C101.663 255.996 77.1922 248.049 56.8467 234.421C52.8481 231.742 52.5064 226.108 55.9096 222.705L85.141 193.473C87.7831 190.832 91.8815 190.413 95.2069 192.117C105.04 197.155 116.183 199.996 127.99 199.996C139.797 199.996 150.94 197.155 160.774 192.117C164.099 190.413 168.196 190.832 170.839 193.473L200.07 222.705Z" fill="#654BF6"/>
<path d="M199.142 21.576C203.142 24.2544 203.483 29.8887 200.08 33.292L170.849 62.5236C168.206 65.1655 164.107 65.5828 160.782 63.8793C150.949 58.842 139.806 56 127.999 56C88.2351 56 55.9997 88.2355 55.9997 128C55.9997 139.807 58.8417 150.95 63.879 160.784C65.5825 164.109 65.1652 168.206 62.5233 170.849L33.2918 200.081C29.8886 203.483 24.2543 203.142 21.5758 199.144C7.94819 178.798 0 154.327 0 128C0 57.3076 57.3073 0 127.999 0C154.327 0 178.798 7.94823 199.142 21.576Z" fill="#654BF6" fill-opacity="0.5"/>
</svg>
