<svg width="256" height="110" viewBox="0 0 256 110" fill="none" xmlns="http://www.w3.org/2000/svg">
<g clip-path="url(#clip0_18_697)">
<path d="M240.232 88.4669C240.232 100.023 230.542 109.477 218.698 109.477H37.6988C25.8551 109.477 16.1648 100.023 16.1648 88.4669V21.5567C16.1648 10.0018 25.8551 0.546387 37.6988 0.546387H218.698C230.542 0.546387 240.232 10.0018 240.232 21.5567V88.4669Z" fill="url(#paint0_linear_18_697)"/>
<mask id="mask0_18_697" style="mask-type:luminance" maskUnits="userSpaceOnUse" x="0" y="0" width="256" height="110">
<path d="M0 0.286621H256V109.714H0" fill="white"/>
</mask>
<g mask="url(#mask0_18_697)">
<path fill-rule="evenodd" clip-rule="evenodd" d="M245.068 40.1927C245.068 32.0014 246.33 27.1708 246.33 18.35C246.33 4.69754 241.284 0.286621 230.142 0.286621H221.943V9.94786H224.466C230.142 9.94786 231.403 11.8385 231.403 18.7697C231.403 25.2801 230.772 31.7916 230.772 39.3533C230.772 49.0145 233.926 52.7949 240.232 54.2649V54.8954C233.926 56.3654 230.772 60.1467 230.772 69.808C230.772 77.3687 231.403 83.4604 231.403 90.3916C231.403 97.5326 229.932 99.4223 224.466 99.4223V99.6321H221.943V109.714H230.142C241.284 109.714 246.33 105.303 246.33 91.6517C246.33 82.62 245.068 77.9993 245.068 69.808C245.068 65.3971 247.801 60.7763 256 60.3566V49.4342C247.801 49.2244 245.068 44.6036 245.068 40.1927ZM151.937 53.0047C145.419 50.4845 139.533 49.0145 139.533 44.8135C139.533 41.6637 142.055 39.773 146.68 39.773C151.305 39.773 155.51 41.6637 160.136 45.0243L168.545 33.8921C163.288 29.9019 156.141 25.7008 146.47 25.7008C132.175 25.7008 122.504 33.8921 122.504 45.444C122.504 55.7358 131.544 60.9862 139.113 63.9271C145.629 66.4473 151.937 68.5479 151.937 72.7479C151.937 75.8987 149.413 77.9993 143.738 77.9993C138.481 77.9993 133.226 75.8987 127.55 71.4878L119.351 83.6703C125.657 88.9206 135.328 92.4911 143.317 92.4911C160.136 92.4911 169.175 83.6703 169.175 72.1184C169.175 60.5664 160.136 55.7358 151.937 53.0047ZM202.812 53.0047C196.505 50.4845 190.619 49.0145 190.619 44.8135C190.619 41.6637 193.141 39.773 197.766 39.773C202.391 39.773 206.596 41.6637 211.222 45.0243L219.63 33.8921C214.374 29.9019 207.227 25.7008 197.556 25.7008C183.26 25.7008 173.59 33.8921 173.59 45.444C173.59 55.7358 182.63 60.9862 190.198 63.9271C196.715 66.4473 203.022 68.5479 203.022 72.7479C203.022 75.8987 200.499 77.9993 194.823 77.9993C189.567 77.9993 184.311 75.8987 178.636 71.4878L170.226 83.6703C176.533 88.9206 186.204 92.4911 194.193 92.4911C211.01 92.4911 220.051 83.6703 220.051 72.1184C220.051 60.5664 211.01 55.7358 202.812 53.0047ZM77.9353 51.9545C79.1966 43.5534 84.2417 39.5631 90.1281 39.5631C97.6969 39.5631 100.641 44.8135 100.641 51.9545H77.9353ZM116.617 55.7358C116.827 38.7227 107.577 25.491 89.9181 25.491C74.5715 25.491 59.856 38.303 60.2761 58.4659C60.2761 79.2594 73.9413 91.4408 92.0206 91.4408C99.5893 91.4408 107.998 88.7108 114.515 84.2999L108.208 73.1686C103.583 75.8987 99.1682 77.1588 94.5432 77.1588C86.1342 77.1588 79.6167 73.1686 77.9353 63.5064H115.987C116.197 62.0364 116.617 59.0965 116.617 55.7358Z" fill="#FAF9F8"/>
</g>
<mask id="mask1_18_697" style="mask-type:luminance" maskUnits="userSpaceOnUse" x="0" y="0" width="256" height="110">
<path d="M0 0.286621H256V109.714H0" fill="white"/>
</mask>
<g mask="url(#mask1_18_697)">
<path fill-rule="evenodd" clip-rule="evenodd" d="M59.2249 76.7391C57.7536 76.7391 55.8611 75.479 55.8611 71.4878V0.286621H26.0081C14.6564 0.286621 9.61027 4.69754 9.61027 18.35C9.61027 27.3807 10.8716 32.4221 10.8716 40.1927C10.8716 44.6036 8.13892 49.2244 -0.0600014 49.6441V60.5665C8.13892 60.7763 10.8716 65.3971 10.8716 69.808C10.8716 77.5796 9.61027 82.1993 9.61027 91.231C9.61027 104.883 14.6565 109.294 25.7981 109.294H33.997V99.6321H31.4744C26.2192 99.6321 24.5368 97.5326 24.5368 90.6014C24.5368 83.6703 25.1679 77.7894 25.1679 70.0178C25.1679 60.3566 22.0142 56.5752 15.7067 55.1053V54.4757C22.0142 53.0047 25.1679 49.2244 25.1679 39.5631C25.1679 32.0014 24.5368 25.9107 24.5368 18.9795C24.5368 12.0484 26.0081 10.1587 31.4744 10.1587H37.1507V70.4375C37.1507 83.2496 41.5658 91.6517 54.3898 91.6517C58.3837 91.6517 61.5374 91.0211 63.85 90.1807L61.7475 76.5293C60.4862 76.7391 59.856 76.7391 59.2249 76.7391Z" fill="#FAF9F8"/>
</g>
</g>
<defs>
<linearGradient id="paint0_linear_18_697" x1="11219.5" y1="0.546387" x2="11219.5" y2="10893.6" gradientUnits="userSpaceOnUse">
<stop stop-color="#2E4F82"/>
<stop offset="1" stop-color="#182E4D"/>
</linearGradient>
<clipPath id="clip0_18_697">
<rect width="256" height="109.427" fill="white" transform="translate(0 0.286621)"/>
</clipPath>
</defs>
</svg>
