<svg xmlns="http://www.w3.org/2000/svg" width="224" height="257" fill="none" viewBox="0 0 224 257"><g fill-rule="evenodd" clip-path="url(#a)" clip-rule="evenodd"><path fill="#52b0e7" d="m111.077 37.989 79.253 45.086 31.75-18.33L111.365.828.098 64.744l31.75 18.33 79.224-45.085"/><path fill="#3c76c3" d="M.656 65.087 32.694 83.58v91.511l78.386 45.267v36.306l-111-63.748.58-127.832"/><path fill="#2e9d4d" d="m80.37 111.08 30.858 17.814v36.302l-16.003-9.247-14.85-8.573z"/><path fill="#256f44" d="m142.659 110.743-31.429 18.142v36.304l30.852-17.824z"/><path fill="#2e3b69" d="M221.507 65.087 189.469 83.58v90.5l-38.326 23.132-40.06 23.143v36.306l.288.167 110.24-63.639-.102-128.108"/><path fill="#9fd62b" d="m111.224 128.886-30.859-17.814v-.218l30.859-17.817.38-.22 15.62 9.019 15.429 8.906z"/><path fill="#3c76c3" d="m41.128 132.875 30.858 17.815v36.302l-16.002-9.248-14.85-8.573z"/><path fill="#2e3b69" d="M102.847 132.875 71.988 150.69v36.302l30.855-17.823z"/><path fill="#52b0e7" d="M71.986 150.69 41.13 132.878l15.62-9.236 15.237-8.8 30.86 18.036-30.86 17.812"/><path fill="#3c76c3" d="m120.542 133.809 30.858 17.815v36.302l-16.002-9.248-14.85-8.572z"/><path fill="#2e3b69" d="m182.264 133.809-30.858 17.815v36.302l30.854-17.822z"/><path fill="#52b0e7" d="m151.399 151.624-30.857-17.814v-.217l15.619-9.019 15.238-8.799 30.86 18.035z"/><path fill="#3c76c3" d="m81.616 156.701 30.857 17.815v36.301l-16.002-9.247-14.85-8.573z"/><path fill="#2e3b69" d="m143.333 156.701-30.859 17.815v36.301l30.855-17.822z"/><path fill="#52b0e7" d="M112.476 174.511 81.62 156.697v-.217l15.618-9.018 15.238-8.801 30.86 18.036z"/><path fill="#3c76c3" d="m80.37 62.54 30.858 17.814v36.302l-16.003-9.248-14.85-8.572z"/><path fill="#2e3b69" d="M142.659 62.211 111.23 80.354v36.303l30.852-17.824z"/><path fill="#52b0e7" d="M111.224 80.354 80.365 62.539v-.218l30.859-17.816.38-.22 15.62 9.018 15.429 8.907z"/><path fill="#3c76c3" d="m41.128 84.344 30.858 17.814v36.302l-16.002-9.246-14.85-8.574z"/><path fill="#2e3b69" d="m102.847 84.344-30.859 17.814v36.302l30.855-17.822z"/><path fill="#52b0e7" d="M71.986 102.16 41.13 84.347l15.62-9.235 15.237-8.802 30.86 18.037-30.86 17.813"/><path fill="#3c76c3" d="m120.542 85.277 30.858 17.815v36.302l-16.002-9.248-14.85-8.573z"/><path fill="#2e3b69" d="m182.264 85.277-30.858 17.815v36.302l30.854-17.823z"/><path fill="#52b0e7" d="m151.399 103.092-30.857-17.814v-.217l15.619-9.018 15.238-8.8 30.86 18.035z"/><path fill="#3c76c3" d="m81.616 108.169 30.857 17.815v36.302l-16.002-9.247-14.85-8.574z"/><path fill="#2e3b69" d="m143.333 108.169-30.859 17.815v36.302l30.855-17.823z"/><path fill="#52b0e7" d="M112.476 125.976 81.62 108.164v-.218l15.618-9.019 15.238-8.8 30.86 18.037z"/></g><defs><clipPath id="a"><path fill="#ebebeb" d="M.04 0h223v257H.04z"/></clipPath></defs></svg>
