<svg xmlns="http://www.w3.org/2000/svg" width="256" height="244" fill="none" viewBox="0 0 256 244"><g clip-path="url(#a)"><path fill="#606060" d="M31.84 98.287c2.908 0 5.26.398 7.046 1.198q2.678 1.194 2.678 2.989c0 1.462-.367 3.121-1.092 4.98q-1.094 2.789-2.084 4.582-.398.398-.992.1-.596-.298-.596-1.096.596-1.39.596-3.986 0-2.789-1.488-4.581-1.49-1.794-4.067-1.793-3.375 0-5.457 2.092-2.083 2.093-2.083 5.875-.002 3.19 1.686 6.077a70 70 0 0 0 3.77 5.779 57 57 0 0 1 3.87 6.177q1.785 3.288 1.785 7.471 0 7.17-5.753 11.154-5.756 3.988-15.08 3.986-6.746 0-10.615-2.191-3.87-2.189-3.87-4.781 0-.794.595-2.192c.397-.927.924-1.923 1.589-2.99a46 46 0 0 1 2.183-3.188q1.188-1.591 2.578-2.587.595-.401 1.093.197.494.599.1 1.196c-.795.795-1.388 1.628-1.787 2.491q-.595 1.296-.595 3.486c0 2.389.793 4.352 2.382 5.875q2.38 2.293 6.15 2.292 5.157 0 8.036-2.888 2.876-2.887 2.877-7.074 0-3.784-1.687-7.071a77 77 0 0 0-3.67-6.377 84 84 0 0 1-3.671-6.277 14.24 14.24 0 0 1-1.686-6.774c0-3.45 1.453-6.341 4.365-8.664 2.906-2.319 7.205-3.487 12.895-3.487m54.167 1q.991.399.796 1.096-.201.698-1.787 1.095c-1.985 0-4.266.069-6.845.199q-3.873.201-8.235.597c-2.649 6.511-4.83 12.849-6.548 19.027q-2.58 9.263-2.579 15.042-.002 6.771 5.158 6.771 5.156.001 11.51-8.962.594-.4 1.09 0 .493.398.299 1.394a36 36 0 0 1-8.533 9.664q-5.162 4.083-10.119 4.082c-3.442 0-5.987-.825-7.64-2.49q-2.48-2.49-2.48-6.875c0-3.848.924-9.164 2.776-15.937 1.853-6.774 4.233-13.677 7.146-20.72-3.443.399-6.616.935-9.524 1.595q-.996-.195-.497-.996c.328-.529.924-1.096 1.786-1.693.857-.6 1.884-1.128 3.074-1.595q1.786-.696 3.373-.697h1.588q.793 0 1.588-.198 2.519-5.656 5.357-11.158c1.851-3.587 3.702-6.838 5.556-9.763q1.19-1.392 3.273-2.491 2.083-1.092 4.067-1.693 1.98-.597 3.276-.698 1.285-.095 1.092.698c-2.252 3.456-4.465 7.306-6.649 11.555a209 209 0 0 0-6.25 13.349q3.77-.198 7.638-.199z"/><path fill="#b3d107" d="M206.392-.395c1.984 0 3.601.5 4.861 1.495q1.883 1.494 2.579 3.986.693 2.49.198 5.677-.496 3.19-2.281 6.376-.398.398-.993 0-.594-.399-.793-.997.398-2.39-1.687-3.985-2.084-1.592-6.448-1.594-8.137 0-16.369 6.077-8.236 6.081-15.973 16.038-7.74 9.966-14.485 22.913a217 217 0 0 0-11.708 26.696c-3.306 9.164-5.921 18.262-7.836 27.294-1.918 9.034-2.875 17.266-2.875 24.706q-.002 5.974 3.373 5.976 2.38 0 4.661-1.994c1.52-1.327 3.276-3.318 5.26-5.977q.594-.393 1.089.101.494.502.3 1.293c-2.649 3.986-5.755 7.306-9.327 9.961-3.571 2.66-6.815 3.986-9.723 3.986q-3.77 0-5.256-2.193-1.489-2.187-1.489-5.576c0-6.243 1.32-14.049 3.97-23.409 2.644-9.364 6.179-19.258 10.615-29.686q6.646-15.639 15.377-31.179 8.73-15.538 18.157-27.99c6.281-8.3 12.6-15.042 18.948-20.223q9.517-7.773 17.856-7.772zM30.22 244.416q-2.976 0-4.863-1.493-1.883-1.494-2.579-3.986-.691-2.492-.198-5.678.498-3.188 2.281-6.375.4-.4.992 0 .595.397.793.997c-.262 1.594.298 2.921 1.688 3.984q2.083 1.592 6.448 1.593 8.138 0 16.37-6.078 8.235-6.075 15.974-16.034 7.739-9.964 14.484-22.913a217 217 0 0 0 11.705-26.697q4.963-13.746 7.839-27.294t2.875-24.704q.001-5.978-3.373-5.977c-1.588 0-3.142.661-4.661 1.991-1.52 1.326-3.276 3.321-5.26 5.979q-.594.393-1.09-.101-.492-.5-.298-1.297c2.648-3.982 5.754-7.306 9.326-9.962q5.358-3.982 9.723-3.981c2.514 0 4.265.726 5.256 2.189q1.49 2.192 1.49 5.581.002 9.362-3.97 23.409-3.965 14.044-10.615 29.685-6.646 15.638-15.377 31.178-8.731 15.539-18.157 27.991c-6.28 8.3-12.6 15.043-18.95 20.221q-9.519 7.772-17.853 7.772"/><path fill="#606060" d="M164.256 149.29q-8.335 0-8.334-9.164c0-2.123.228-4.581.693-7.369.462-2.792 1.193-5.677 2.184-8.667s2.147-6.009 3.471-9.068a56 56 0 0 1 4.762-8.763 66 66 0 0 0-4.165 2.888 33 33 0 0 0-3.572 3.087q-.596.404-1.092-.298-.496-.696-.099-1.294c2.248-2.392 5.457-4.846 9.624-7.373 4.165-2.52 8.166-4.515 12.005-5.976q.99.001 1.487.5.494.5.101 1.292a76.5 76.5 0 0 0-10.22 18.13q-3.869 9.766-3.869 18.928c0 3.854 1.193 5.777 3.572 5.777q2.577 0 6.349-3.486 3.77-3.486 7.939-9.166 4.163-5.677 8.432-12.848a194 194 0 0 0 7.839-14.546q.594-1.194 3.47-2.39 2.877-1.199 5.854-1.198c1.985 0 2.579.536 1.786 1.597a192 192 0 0 0-4.861 9.662 74 74 0 0 0-3.472 8.865 59 59 0 0 0-2.084 8.864c-.466 2.991-.694 6.276-.694 9.861 0 4.254 1.122 6.375 3.374 6.375q3.371.001 7.539-5.977.597-.391 1.19 0 .595.406.398 1.197-3.377 5.179-7.441 7.871-4.07 2.688-7.44 2.687-8.335 0-8.334-9.761-.001-10.159 3.571-20.123-7.542 13.747-15.873 21.816c-5.558 5.383-10.256 8.07-14.09 8.07m81.943-51.004c2.907 0 5.26.399 7.045 1.198q2.679 1.195 2.679 2.989-.002 2.194-1.091 4.98c-.731 1.86-1.423 3.386-2.085 4.582-.267.267-.594.299-.992.101q-.594-.3-.595-1.096.596-1.392.596-3.986 0-2.789-1.488-4.582-1.49-1.792-4.068-1.792-3.372 0-5.456 2.091-2.084 2.094-2.083 5.875 0 3.192 1.686 6.077a70 70 0 0 0 3.77 5.78 57 57 0 0 1 3.87 6.176q1.785 3.289 1.786 7.472 0 7.17-5.754 11.154c-3.839 2.66-8.865 3.985-15.08 3.985q-6.748.001-10.616-2.191-3.87-2.187-3.869-4.781 0-.794.595-2.192.593-1.39 1.587-2.989a46 46 0 0 1 2.183-3.189q1.189-1.59 2.58-2.586.595-.402 1.09.197.494.598.101 1.196-1.19 1.194-1.787 2.491c-.397.862-.595 2.027-.595 3.485 0 2.39.794 4.352 2.382 5.875q2.379 2.294 6.15 2.293 5.157 0 8.038-2.889c1.914-1.923 2.876-4.283 2.876-7.073 0-2.523-.565-4.881-1.686-7.072a77 77 0 0 0-3.671-6.376 85 85 0 0 1-3.672-6.278 14.2 14.2 0 0 1-1.686-6.773q-.001-5.178 4.364-8.664c2.907-2.32 7.206-3.488 12.896-3.488"/></g><defs><clipPath id="a"><path fill="#ebebeb" d="M0 .005h256v243.99H0z"/></clipPath></defs></svg>
