<svg width="249" height="256" viewBox="0 0 249 256" fill="none"
  xmlns="http://www.w3.org/2000/svg">
  <g clip-path="url(#clip0_20_658)">
    <path d="M7.7977 161.91C4.77954 150.919 3.24292 139.502 3.24292 128.004C3.24292 75.5124 36.2096 27.5167 85.2823 8.58984L91.7164 25.2417C49.4758 41.5372 21.105 82.8308 21.105 128.004C21.105 137.912 22.422 147.725 25.0149 157.182L7.7977 161.91Z" fill="#69D3A7"/>
    <path d="M229.646 77.2936C210.55 40.632 172.96 17.854 131.57 17.854C116.904 17.854 102.65 20.6772 89.2333 26.2278L82.3874 9.74046C97.9858 3.28533 114.531 -0.00390625 131.57 -0.00390625C179.654 -0.00390625 223.308 26.4472 245.492 69.0429L229.646 77.2936Z" fill="url(#paint0_linear_20_658)"/>
    <path d="M93.2532 101.593C103.611 101.593 112.048 107.117 116.383 116.751L116.726 117.505L134.121 111.598L133.751 110.708C127.015 94.3023 111.499 84.1055 93.2532 84.1055C80.4255 84.1055 69.9994 88.2175 61.3839 96.6596C52.8231 105.047 48.488 115.6 48.488 128.031C48.488 140.352 52.8231 150.85 61.3839 159.238C69.9994 167.68 80.4255 171.792 93.2532 171.792C111.499 171.792 127.015 161.595 133.751 145.204L134.121 144.313L116.699 138.392L116.369 139.173C112.487 148.644 103.844 154.304 93.2532 154.304C86.0367 154.304 79.9455 151.782 75.1162 146.821C70.2324 141.791 67.7631 135.473 67.7631 128.045C67.7631 120.561 70.1775 114.367 75.1162 109.104C79.9316 104.116 86.0367 101.593 93.2532 101.593Z" fill="#D5D5D5"/>
    <path d="M202.209 85.7227L177.419 148.451L152.464 85.7227H132.05L167.047 171.339L142.147 231.724L159.996 235.274L221.498 85.7227H202.209Z" fill="#D5D5D5"/>
    <path d="M145.341 223.94L140.992 234.466C140.128 236.549 138.152 237.96 135.93 238.056C134.462 238.111 132.98 238.152 131.485 238.152C80.2994 238.125 35.0132 202.039 23.7911 152.316L6.36792 156.25C12.6649 184.14 28.4692 209.453 50.8723 227.545C73.5362 245.841 102.085 255.941 131.293 255.996C131.334 255.996 131.553 255.996 131.553 255.996C133.268 255.996 134.969 255.955 136.671 255.887C145.835 255.503 154.025 249.761 157.523 241.25L163.203 227.49L145.341 223.94Z" fill="url(#paint1_linear_20_658)"/>
  </g>
  <defs>
    <linearGradient id="paint0_linear_20_658" x1="118.217" y1="-8.26747" x2="215.629" y2="95.8482" gradientUnits="userSpaceOnUse">
      <stop offset="0.0939" stop-color="#58D09E"/>
      <stop offset="0.9883" stop-color="#58D09E" stop-opacity="0"/>
    </linearGradient>
    <linearGradient id="paint1_linear_20_658" x1="1.87537" y1="186.244" x2="187.979" y2="235.779" gradientUnits="userSpaceOnUse">
      <stop offset="0.0774" stop-color="#58D09E"/>
      <stop offset="0.7617" stop-color="#D5D5D5"/>
    </linearGradient>
    <clipPath id="clip0_20_658">
      <rect width="248" height="256" fill="#D5D5D5" transform="translate(0.575928 -0.00390625)"/>
    </clipPath>
  </defs>
</svg>
