<svg xmlns="http://www.w3.org/2000/svg" width="257" height="257" fill="none" viewBox="0 0 257 257"><path fill="#ebebeb" d="M128.911 4.5c-68.49 0-124 55.51-124 124s55.51 124 124 124 124-55.51 124-124-55.51-124-124-124m64.18 40.252.046-.146 1.598-6.006.726.532a107 107 0 0 1 9.542 7.994l-.194.628-.044.146a6.06 6.06 0 0 1-6.976 4.02 6.035 6.035 0 0 1-4.725-4.802 6 6 0 0 1 .027-2.366m-27.706 11.432.046-.146c.92-3.1 4.214-4.94 7.41-4.118 3.148.872 5.038 4.118 4.262 7.314v.146l-6.49 23.976-.532-.436a64.6 64.6 0 0 0-10.22-6.2zm-21.506-26.69.046-.146 2.906-10.8.872.144c3.68.63 7.362 1.454 10.946 2.422l-3.052 11.382-.044.146a6.06 6.06 0 0 1-6.976 4.02 6.035 6.035 0 0 1-4.725-4.802 6 6 0 0 1 .027-2.366M98.929 47.9l.046-.146 7.652-28.432.824-.144a116 116 0 0 1 11.528-1.648c.194.872.194 1.84-.046 2.712l-.044.146-8.234 30.516-.046.146a6.06 6.06 0 0 1-6.976 4.02 6.035 6.035 0 0 1-4.725-4.802 6 6 0 0 1 .027-2.366zm-70.332 65.39c-.92 3.1-4.214 4.94-7.362 4.116a5.74 5.74 0 0 1-3.004-1.84 111 111 0 0 1 12.934-40.59c.484 0 .968.046 1.452.194a6.084 6.084 0 0 1 4.312 7.314l-.046.146-8.234 30.516zm24.8 16.66v.148l-8.234 30.516-.046.144c-.92 3.052-4.068 4.844-7.216 4.118-3.246-.776-5.232-4.068-4.458-7.314v-.146l8.236-30.516.044-.146c.92-3.1 4.214-4.94 7.412-4.116 3.148.872 5.038 4.114 4.262 7.312m2.374-41.56c-3.246-.774-5.232-4.068-4.456-7.312l.044-.146 8.234-30.516.046-.146c.92-3.1 4.214-4.94 7.362-4.116a6.056 6.056 0 0 1 4.312 7.266l-.046.192-8.234 30.516-.046.146c-.92 3.052-4.068 4.842-7.216 4.116m15.984 104.192-.046.144c-.92 3.052-4.068 4.844-7.216 4.12-3.246-.776-5.232-4.07-4.456-7.316l.044-.146 8.234-30.516.046-.194.388-.92a54.5 54.5 0 0 0 10.462 7.12zM96.7 211.23l-.046.146-5.86 21.846-.824-.34a104 104 0 0 1-10.414-4.504l5.424-20.15.046-.146a6.024 6.024 0 0 1 7.362-4.116c3.198.824 5.086 4.066 4.312 7.264m33.858-15.452-.146.68v.144l-8.234 30.516-.046.146a6.06 6.06 0 0 1-6.974 4.02 6.065 6.065 0 0 1-4.7-7.168v-.146l8.236-30.516.044-.146a6.05 6.05 0 0 1 7.412-4.118 5.98 5.98 0 0 1 3.778 3.052l.194.872.29 1.404.194 1.02zm80.552 7.896c-17.244 18.842-40.882 31.726-67.474 35.262l-.242-1.6-.436-3.196-.388-2.324-.436-3.052-.58-3.73-.242-1.452-.532-3.536-.34-2.084-.436-2.712-.436-2.616-.436-2.52-.436-2.468-.388-2.422-.436-2.326-.388-2.228-.29-1.646-.34-1.6-.192-1.016-.388-2.034-.292-1.454-.338-1.792-.29-1.26-.24-1.21-.244-1.162-.146-.776-.34-1.452-.24-1.066-.242-1.066-.194-.678-.24-.968-.196-.92-.24-.92-.242-.874-.146-.532-.242-.824-.194-.774-.146-.532-.194-.486-.144-.436-.194-.678-.146-.484-.098-.29a18 18 0 0 0-.87-2.276l-.146-.29 1.114-2.908-4.408.146-1.21.046c-40.012.824-65.83-16.18-65.83-42.818 0-28.24 28.094-50.956 64.132-50.956 17.34 0 32.21 4.796 43.932 13.95 9.978 7.8 17.292 18.552 21.07 30.71l.096.29.096.34.194.628.29 1.164.776 2.712.822 3.1 1.406 5.134 2.228 8.138 3.584 13.368 4.07 15.21 6.538 24.46 2.47 9.202zm6.104-121.19-.046.146-8.234 30.516-.046.146c-.92 3.05-4.068 4.842-7.218 4.116-3.244-.774-5.23-4.068-4.456-7.314l.046-.146 8.234-30.516v-.144a6.154 6.154 0 0 1 7.41-4.118 6.122 6.122 0 0 1 4.31 7.314m20.828 40.688-8.284 30.516v.146c-.872 3.246-4.214 5.134-7.46 4.262-3.244-.872-5.134-4.214-4.26-7.46l.044-.144 8.234-30.516.046-.146c.92-3.1 4.214-4.94 7.362-4.118a6.056 6.056 0 0 1 4.312 7.266zm-98.474-20.344a7.752 7.752 0 0 1-13.23 5.48 7.747 7.747 0 0 1 0-10.96 7.75 7.75 0 0 1 10.96 0 7.75 7.75 0 0 1 2.27 5.48"/></svg>
