<svg xmlns="http://www.w3.org/2000/svg" width="257" height="130" fill="none" viewBox="0 0 257 130"><path fill="#ebebeb" d="M50.584 108.513v15.844h-1.857l-8.633-12.44h-.155v12.44H38.02v-15.844h1.857l8.665 12.471h.154v-12.471zm7.766 16.092q-1.61 0-2.824-.766-1.207-.766-1.888-2.143-.672-1.377-.673-3.218 0-1.857.673-3.242.68-1.384 1.888-2.151 1.214-.765 2.824-.765 1.608 0 2.816.765 1.215.766 1.887 2.151.681 1.385.681 3.242 0 1.84-.68 3.218-.675 1.377-1.888 2.143-1.207.766-2.816.766m0-1.64q1.222 0 2.011-.627t1.168-1.648q.38-1.02.38-2.212t-.38-2.221-1.168-1.663-2.011-.634q-1.223 0-2.012.634t-1.168 1.663a6.4 6.4 0 0 0-.38 2.221q0 1.191.38 2.212t1.168 1.648 2.012.627m12.005 1.64q-1.485 0-2.623-.75-1.137-.759-1.78-2.136-.64-1.385-.641-3.272 0-1.872.642-3.249t1.787-2.128q1.144-.75 2.646-.75 1.16 0 1.833.386.681.38 1.037.867.363.48.565.789h.154v-5.849h1.826v15.844h-1.764v-1.825h-.216q-.201.325-.573.82-.37.487-1.06.874-.689.38-1.833.379m.247-1.64q1.1 0 1.857-.573.758-.58 1.153-1.601.394-1.03.394-2.375 0-1.33-.386-2.329-.387-1.005-1.145-1.563-.759-.564-1.873-.564-1.16 0-1.934.595-.765.588-1.153 1.602-.379 1.005-.379 2.259 0 1.269.387 2.305.395 1.03 1.16 1.64.774.604 1.92.604m13.125 1.64q-1.717 0-2.963-.758-1.238-.767-1.91-2.135-.666-1.377-.666-3.203t.665-3.219q.674-1.4 1.873-2.181 1.206-.789 2.816-.789.928 0 1.833.309a4.5 4.5 0 0 1 1.648 1.006q.743.688 1.184 1.826.44 1.137.44 2.8v.774h-9.16v-1.578h7.304q0-1.006-.402-1.795a3.03 3.03 0 0 0-1.13-1.246q-.727-.456-1.717-.456-1.092 0-1.888.541-.789.534-1.215 1.393a4.1 4.1 0 0 0-.425 1.841v1.052q0 1.346.464 2.282.472.928 1.308 1.416.835.48 1.941.48.72 0 1.3-.201.588-.21 1.013-.619.426-.418.658-1.037l1.764.495a3.9 3.9 0 0 1-.936 1.578q-.657.674-1.625 1.053-.967.37-2.174.371m11.9-14.39v-1.702h11.882v1.702h-4.982v14.142h-1.919v-14.142zm17.201 14.39q-1.717 0-2.963-.758-1.238-.767-1.911-2.135-.665-1.377-.665-3.203t.665-3.219q.673-1.4 1.873-2.181 1.206-.789 2.816-.789.928 0 1.833.309a4.5 4.5 0 0 1 1.648 1.006q.743.688 1.184 1.826.441 1.137.441 2.8v.774h-9.16v-1.578h7.303q0-1.006-.402-1.795a3.03 3.03 0 0 0-1.13-1.246q-.727-.456-1.717-.456-1.092 0-1.888.541-.789.534-1.215 1.393a4.1 4.1 0 0 0-.425 1.841v1.052q0 1.346.464 2.282.472.928 1.307 1.416.836.48 1.942.48.72 0 1.3-.201a2.8 2.8 0 0 0 1.013-.619q.426-.418.658-1.037l1.764.495a3.9 3.9 0 0 1-.936 1.578q-.658.674-1.625 1.053-.967.37-2.174.371m7.044-.248v-11.883h1.764v1.857h.155a3 3 0 0 1 1.199-1.478q.828-.533 1.988-.533 1.176 0 1.958.533.789.527 1.23 1.478h.124a3.45 3.45 0 0 1 1.369-1.462q.913-.549 2.189-.549 1.594 0 2.608.998 1.013.99 1.013 3.086v7.953h-1.826v-7.953q0-1.314-.719-1.88-.72-.564-1.695-.564-1.253 0-1.941.758-.689.75-.689 1.903v7.736h-1.857v-8.138q0-1.014-.657-1.633-.658-.626-1.695-.626-.712 0-1.33.379a2.85 2.85 0 0 0-.99 1.052q-.372.665-.372 1.539v7.427zm18.282 4.457v-16.34h1.764v1.888h.216q.201-.309.557-.789.364-.487 1.037-.867.681-.386 1.841-.386 1.501 0 2.646.75t1.787 2.128q.642 1.377.642 3.249 0 1.887-.642 3.272-.642 1.377-1.779 2.136-1.138.75-2.623.75-1.145 0-1.833-.379-.689-.387-1.06-.874-.372-.495-.573-.82h-.155v6.282zm1.795-10.398q0 1.346.394 2.375.394 1.022 1.153 1.601.758.573 1.857.573 1.145 0 1.91-.604.774-.61 1.161-1.64.394-1.036.394-2.305 0-1.254-.386-2.259-.38-1.014-1.153-1.602-.767-.595-1.926-.595-1.114 0-1.873.564-.758.558-1.145 1.563-.387.999-.386 2.329m12.653-9.903v15.844h-1.826v-15.844zm6.187 16.123q-1.13 0-2.05-.426a3.5 3.5 0 0 1-1.462-1.245q-.542-.82-.542-1.981 0-1.02.402-1.655a2.84 2.84 0 0 1 1.076-1.006 5.7 5.7 0 0 1 1.485-.542 19 19 0 0 1 1.648-.294 76 76 0 0 1 1.756-.208q.681-.078.99-.256.318-.177.318-.619v-.061q0-1.146-.627-1.78-.619-.634-1.88-.634-1.308 0-2.05.572t-1.045 1.223l-1.733-.619q.464-1.084 1.238-1.687a4.65 4.65 0 0 1 1.702-.851 7 7 0 0 1 1.826-.247q.573 0 1.315.139a4.2 4.2 0 0 1 1.447.549q.704.418 1.168 1.261t.464 2.259v7.829h-1.825v-1.609h-.093q-.186.387-.619.828t-1.153.75-1.756.31m.278-1.64q1.083 0 1.826-.426.75-.425 1.13-1.098a2.8 2.8 0 0 0 .387-1.416v-1.671q-.117.14-.511.255a9 9 0 0 1-.898.194q-.502.077-.982.139-.472.054-.766.093a7 7 0 0 0-1.331.301 2.3 2.3 0 0 0-.99.612q-.37.402-.371 1.098 0 .952.704 1.439.711.48 1.802.48m13.015-10.522v1.548h-6.158v-1.548zm-4.363-2.847h1.826v11.326q0 .774.224 1.161.233.38.588.51.363.124.766.124.302 0 .495-.031l.309-.062.372 1.641a4 4 0 0 1-.519.139 4 4 0 0 1-.843.077 3.7 3.7 0 0 1-1.516-.333 3 3 0 0 1-1.223-1.013q-.479-.68-.479-1.717zm11.311 14.978q-1.718 0-2.964-.758-1.238-.767-1.91-2.135-.666-1.377-.666-3.203t.666-3.219q.672-1.4 1.872-2.181 1.206-.789 2.816-.789.928 0 1.833.309a4.5 4.5 0 0 1 1.648 1.006q.743.688 1.184 1.826.441 1.137.441 2.8v.774h-9.16v-1.578h7.303q0-1.006-.402-1.795a3.03 3.03 0 0 0-1.13-1.246q-.727-.456-1.717-.456-1.091 0-1.888.541-.79.534-1.214 1.393a4.1 4.1 0 0 0-.426 1.841v1.052q0 1.346.464 2.282.473.928 1.308 1.416.835.48 1.942.48.719 0 1.299-.201.588-.21 1.014-.619.425-.418.657-1.037l1.764.495a3.9 3.9 0 0 1-.936 1.578q-.657.674-1.625 1.053-.966.37-2.173.371m12.765-.248v-15.844h9.562v1.702h-7.643v5.354h7.148v1.702h-7.148v5.384h7.767v1.702zm13.945-7.148v7.148h-1.826v-11.883h1.764v1.857h.155a3.4 3.4 0 0 1 1.269-1.454q.85-.558 2.197-.557 1.206 0 2.112.495.905.487 1.408 1.485.503.99.503 2.507v7.55h-1.826v-7.427q0-1.4-.727-2.181-.728-.789-1.996-.789-.875 0-1.563.379a2.7 2.7 0 0 0-1.076 1.106q-.394.727-.394 1.764m15.061 11.852q-1.323 0-2.275-.34-.951-.333-1.586-.882a4.9 4.9 0 0 1-.998-1.161l1.455-1.021q.248.325.627.743.378.425 1.036.735.666.317 1.741.317 1.439 0 2.375-.696.936-.697.936-2.182v-2.414h-.155a10 10 0 0 1-.572.805q-.364.472-1.052.843-.681.364-1.842.364-1.439 0-2.583-.681-1.139-.68-1.803-1.981-.657-1.299-.658-3.156 0-1.825.642-3.18.643-1.361 1.788-2.104 1.145-.75 2.645-.75 1.161 0 1.842.386.688.38 1.052.867.37.48.572.789h.186v-1.888h1.764v12.224q0 1.531-.696 2.491-.689.968-1.857 1.416-1.16.456-2.584.456m-.062-6.529q1.098 0 1.857-.503.757-.503 1.152-1.447.396-.944.395-2.259 0-1.284-.387-2.267t-1.145-1.539q-.757-.557-1.872-.557-1.16 0-1.934.588-.766.588-1.153 1.578-.38.99-.379 2.197 0 1.238.387 2.189.395.945 1.16 1.486.774.534 1.919.534m7.887 1.825v-11.883h1.826v11.883zm.929-13.863q-.534 0-.921-.364a1.17 1.17 0 0 1-.379-.874q0-.51.379-.874.387-.364.921-.364t.913.364q.387.364.387.874t-.387.874a1.27 1.27 0 0 1-.913.364m5.414 6.715v7.148h-1.826v-11.883h1.764v1.857h.154a3.4 3.4 0 0 1 1.269-1.454q.851-.558 2.197-.557 1.207 0 2.112.495.906.487 1.408 1.485.504.99.503 2.507v7.55h-1.826v-7.427q0-1.4-.727-2.181-.727-.789-1.996-.789-.874 0-1.563.379a2.7 2.7 0 0 0-1.075 1.106q-.394.727-.394 1.764m15.246 7.396q-1.717 0-2.963-.758-1.237-.767-1.911-2.135-.665-1.377-.665-3.203t.665-3.219q.674-1.4 1.872-2.181 1.208-.789 2.817-.789.928 0 1.833.309a4.55 4.55 0 0 1 1.648 1.006q.743.688 1.184 1.826.441 1.137.441 2.8v.774h-9.16v-1.578h7.303q0-1.006-.402-1.795a3.04 3.04 0 0 0-1.13-1.246q-.727-.456-1.717-.456-1.092 0-1.888.541-.789.534-1.215 1.393a4.1 4.1 0 0 0-.425 1.841v1.052q0 1.346.464 2.282.472.928 1.307 1.416.836.48 1.942.48.72 0 1.3-.201a2.8 2.8 0 0 0 1.013-.619q.426-.418.658-1.037l1.764.495a3.9 3.9 0 0 1-.936 1.578q-.658.674-1.625 1.053-.967.37-2.174.371M13.03 22.453q-5.337 0-8.777-3.084Q.932 16.167.932 11.54q0-4.745 3.32-7.829Q7.694.51 13.03.51q5.22 0 8.54 3.202 3.44 3.084 3.44 7.829 0 4.625-3.44 7.828-3.32 3.084-8.54 3.084m10.2 102.464H2.948V29.332h20.283zM30.222 62.306q0-10.2 3.796-17.91 3.914-7.71 10.556-11.861T59.4 28.383q6.999 0 12.217 2.847 5.338 2.847 8.185 7.473v-9.37h20.282v66.184H79.802v-9.37q-2.966 4.626-8.303 7.472-5.22 2.847-12.217 2.847-8.066 0-14.708-4.151-6.642-4.27-10.556-11.98-3.795-7.828-3.796-18.029m49.58.119q0-7.591-4.27-11.98-4.152-4.389-10.201-4.389t-10.32 4.39q-4.15 4.27-4.15 11.86t4.15 12.099q4.27 4.388 10.32 4.388t10.2-4.389q4.27-4.387 4.27-11.98M107.166 62.306q0-10.2 3.796-17.91 3.914-7.71 10.556-11.861 6.643-4.152 14.827-4.152 6.524 0 11.861 2.728 5.456 2.729 8.54 7.354V7.745h20.282v87.772h-20.282v-9.489q-2.847 4.745-8.184 7.591-5.22 2.847-12.217 2.847-8.184 0-14.827-4.151-6.642-4.27-10.556-11.98-3.796-7.828-3.796-18.029m49.58.119q0-7.591-4.27-11.98-4.152-4.389-10.201-4.389-6.048 0-10.319 4.39-4.15 4.27-4.151 11.86t4.151 12.099q4.27 4.388 10.319 4.388t10.201-4.389q4.27-4.387 4.27-11.98M250.533 61.357q0 2.847-.356 5.93h-45.902q.474 6.17 3.914 9.49 3.558 3.202 8.658 3.202 7.592 0 10.557-6.405h21.587q-1.66 6.525-6.049 11.743-4.27 5.219-10.794 8.184-6.523 2.965-14.589 2.965-9.726 0-17.317-4.151-7.592-4.151-11.861-11.861t-4.27-18.03q0-10.318 4.151-18.028 4.27-7.71 11.861-11.861t17.436-4.152q9.607 0 17.08 4.033t11.624 11.505q4.27 7.473 4.27 17.436m-20.757-5.337q0-5.22-3.558-8.303t-8.896-3.084q-5.1 0-8.659 2.965-3.44 2.965-4.27 8.422z"/></svg>
