<svg width="256" height="256" viewBox="0 0 256 256" fill="none" xmlns="http://www.w3.org/2000/svg">
<rect x="18.5" y="39.5" width="177" height="177" stroke="white"/>
<path d="M53.9318 134H50.4091C50.2008 132.987 49.8362 132.097 49.3153 131.33C48.804 130.562 48.179 129.919 47.4403 129.398C46.7112 128.867 45.9015 128.47 45.0114 128.205C44.1212 127.939 43.1932 127.807 42.2273 127.807C40.4659 127.807 38.8703 128.252 37.4403 129.142C36.0199 130.032 34.8883 131.344 34.0455 133.077C33.2121 134.81 32.7955 136.936 32.7955 139.455C32.7955 141.973 33.2121 144.099 34.0455 145.832C34.8883 147.565 36.0199 148.877 37.4403 149.767C38.8703 150.657 40.4659 151.102 42.2273 151.102C43.1932 151.102 44.1212 150.97 45.0114 150.705C45.9015 150.439 46.7112 150.046 47.4403 149.526C48.179 148.995 48.804 148.347 49.3153 147.58C49.8362 146.803 50.2008 145.913 50.4091 144.909H53.9318C53.6667 146.396 53.1837 147.726 52.483 148.901C51.7822 150.075 50.911 151.074 49.8693 151.898C48.8277 152.712 47.6581 153.332 46.3608 153.759C45.0729 154.185 43.6951 154.398 42.2273 154.398C39.7462 154.398 37.5398 153.792 35.608 152.58C33.6761 151.367 32.1563 149.644 31.0483 147.409C29.9403 145.174 29.3864 142.523 29.3864 139.455C29.3864 136.386 29.9403 133.735 31.0483 131.5C32.1563 129.265 33.6761 127.542 35.608 126.33C37.5398 125.117 39.7462 124.511 42.2273 124.511C43.6951 124.511 45.0729 124.724 46.3608 125.151C47.6581 125.577 48.8277 126.202 49.8693 127.026C50.911 127.84 51.7822 128.834 52.483 130.009C53.1837 131.173 53.6667 132.504 53.9318 134ZM77.9334 132.182C77.7629 130.742 77.0716 129.625 75.8595 128.83C74.6474 128.034 73.1607 127.636 71.3993 127.636C70.1114 127.636 68.9845 127.845 68.0186 128.261C67.0622 128.678 66.3141 129.251 65.7743 129.98C65.244 130.709 64.9788 131.538 64.9788 132.466C64.9788 133.242 65.1635 133.91 65.5328 134.469C65.9116 135.018 66.3946 135.477 66.9817 135.847C67.5688 136.206 68.1843 136.505 68.8283 136.741C69.4722 136.969 70.0641 137.153 70.6038 137.295L73.5584 138.091C74.316 138.29 75.1588 138.564 76.0868 138.915C77.0243 139.265 77.9192 139.743 78.7714 140.349C79.6332 140.946 80.3434 141.713 80.9021 142.651C81.4608 143.588 81.7402 144.739 81.7402 146.102C81.7402 147.674 81.3283 149.095 80.5044 150.364C79.69 151.633 78.4968 152.641 76.9249 153.389C75.3624 154.137 73.4637 154.511 71.2288 154.511C69.1455 154.511 67.3415 154.175 65.8169 153.503C64.3018 152.83 63.1086 151.893 62.2374 150.69C61.3756 149.488 60.8879 148.091 60.7743 146.5H64.4107C64.5054 147.598 64.8747 148.508 65.5186 149.227C66.172 149.937 66.9959 150.468 67.9902 150.818C68.994 151.159 70.0735 151.33 71.2288 151.33C72.5735 151.33 73.7809 151.112 74.851 150.676C75.9211 150.231 76.7686 149.616 77.3936 148.83C78.0186 148.034 78.3311 147.106 78.3311 146.045C78.3311 145.08 78.0612 144.294 77.5214 143.688C76.9817 143.081 76.2714 142.589 75.3908 142.21C74.5101 141.831 73.5584 141.5 72.5357 141.216L68.9561 140.193C66.6834 139.54 64.8841 138.607 63.5584 137.395C62.2326 136.183 61.5697 134.597 61.5697 132.636C61.5697 131.008 62.0101 129.587 62.8908 128.375C63.7809 127.153 64.9741 126.206 66.4703 125.534C67.976 124.852 69.6569 124.511 71.5129 124.511C73.3879 124.511 75.0546 124.848 76.5129 125.52C77.9713 126.183 79.1266 127.092 79.9788 128.247C80.8406 129.402 81.2951 130.714 81.3425 132.182H77.9334ZM105.841 132.182C105.671 130.742 104.979 129.625 103.767 128.83C102.555 128.034 101.068 127.636 99.3071 127.636C98.0192 127.636 96.8923 127.845 95.9264 128.261C94.97 128.678 94.2219 129.251 93.6821 129.98C93.1518 130.709 92.8866 131.538 92.8866 132.466C92.8866 133.242 93.0713 133.91 93.4406 134.469C93.8194 135.018 94.3024 135.477 94.8895 135.847C95.4766 136.206 96.0921 136.505 96.7361 136.741C97.38 136.969 97.9719 137.153 98.5116 137.295L101.466 138.091C102.224 138.29 103.067 138.564 103.995 138.915C104.932 139.265 105.827 139.743 106.679 140.349C107.541 140.946 108.251 141.713 108.81 142.651C109.369 143.588 109.648 144.739 109.648 146.102C109.648 147.674 109.236 149.095 108.412 150.364C107.598 151.633 106.405 152.641 104.833 153.389C103.27 154.137 101.371 154.511 99.1366 154.511C97.0533 154.511 95.2493 154.175 93.7247 153.503C92.2096 152.83 91.0164 151.893 90.1452 150.69C89.2834 149.488 88.7957 148.091 88.6821 146.5H92.3185C92.4132 147.598 92.7825 148.508 93.4264 149.227C94.0798 149.937 94.9037 150.468 95.898 150.818C96.9018 151.159 97.9813 151.33 99.1366 151.33C100.481 151.33 101.689 151.112 102.759 150.676C103.829 150.231 104.676 149.616 105.301 148.83C105.926 148.034 106.239 147.106 106.239 146.045C106.239 145.08 105.969 144.294 105.429 143.688C104.889 143.081 104.179 142.589 103.299 142.21C102.418 141.831 101.466 141.5 100.443 141.216L96.8639 140.193C94.5912 139.54 92.792 138.607 91.4662 137.395C90.1404 136.183 89.4776 134.597 89.4776 132.636C89.4776 131.008 89.9179 129.587 90.7986 128.375C91.6887 127.153 92.8819 126.206 94.3781 125.534C95.8838 124.852 97.5647 124.511 99.4207 124.511C101.296 124.511 102.962 124.848 104.421 125.52C105.879 126.183 107.034 127.092 107.887 128.247C108.748 129.402 109.203 130.714 109.25 132.182H105.841ZM30.5227 176.909H34.7273L44.6136 201.057H44.9545L54.8409 176.909H59.0455V206H55.75V183.898H55.4659L46.375 206H43.1932L34.1023 183.898H33.8182V206H30.5227V176.909ZM93.0541 191.455C93.0541 194.523 92.5001 197.174 91.3922 199.409C90.2842 201.644 88.7643 203.367 86.8325 204.58C84.9007 205.792 82.6943 206.398 80.2132 206.398C77.7322 206.398 75.5257 205.792 73.5939 204.58C71.6621 203.367 70.1422 201.644 69.0342 199.409C67.9263 197.174 67.3723 194.523 67.3723 191.455C67.3723 188.386 67.9263 185.735 69.0342 183.5C70.1422 181.265 71.6621 179.542 73.5939 178.33C75.5257 177.117 77.7322 176.511 80.2132 176.511C82.6943 176.511 84.9007 177.117 86.8325 178.33C88.7643 179.542 90.2842 181.265 91.3922 183.5C92.5001 185.735 93.0541 188.386 93.0541 191.455ZM89.645 191.455C89.645 188.936 89.2236 186.81 88.3808 185.077C87.5475 183.344 86.4159 182.032 84.9859 181.142C83.5655 180.252 81.9746 179.807 80.2132 179.807C78.4518 179.807 76.8562 180.252 75.4263 181.142C74.0058 182.032 72.8742 183.344 72.0314 185.077C71.1981 186.81 70.7814 188.936 70.7814 191.455C70.7814 193.973 71.1981 196.099 72.0314 197.832C72.8742 199.565 74.0058 200.877 75.4263 201.767C76.8562 202.657 78.4518 203.102 80.2132 203.102C81.9746 203.102 83.5655 202.657 84.9859 201.767C86.4159 200.877 87.5475 199.565 88.3808 197.832C89.2236 196.099 89.645 193.973 89.645 191.455ZM110.355 206H101.377V176.909H110.752C113.574 176.909 115.989 177.491 117.997 178.656C120.004 179.812 121.543 181.473 122.613 183.642C123.683 185.801 124.218 188.386 124.218 191.398C124.218 194.428 123.679 197.037 122.599 199.224C121.519 201.402 119.947 203.079 117.883 204.253C115.819 205.418 113.309 206 110.355 206ZM104.9 202.875H110.127C112.533 202.875 114.526 202.411 116.108 201.483C117.689 200.555 118.868 199.234 119.644 197.52C120.421 195.806 120.809 193.765 120.809 191.398C120.809 189.049 120.426 187.027 119.659 185.332C118.892 183.628 117.746 182.321 116.221 181.412C114.697 180.493 112.798 180.034 110.525 180.034H104.9V202.875ZM151.618 176.909H155.141V196.17C155.141 198.159 154.672 199.935 153.735 201.497C152.807 203.05 151.495 204.277 149.8 205.176C148.105 206.066 146.116 206.511 143.834 206.511C141.552 206.511 139.563 206.066 137.868 205.176C136.173 204.277 134.857 203.05 133.919 201.497C132.991 199.935 132.527 198.159 132.527 196.17V176.909H136.05V195.886C136.05 197.307 136.363 198.571 136.988 199.679C137.613 200.777 138.503 201.644 139.658 202.278C140.823 202.903 142.215 203.216 143.834 203.216C145.454 203.216 146.846 202.903 148.01 202.278C149.175 201.644 150.065 200.777 150.681 199.679C151.306 198.571 151.618 197.307 151.618 195.886V176.909ZM164.576 206V176.909H168.099V202.875H181.621V206H164.576ZM189.476 206V176.909H207.033V180.034H192.999V189.864H206.124V192.989H192.999V202.875H207.26V206H189.476ZM231.691 184.182C231.521 182.742 230.829 181.625 229.617 180.83C228.405 180.034 226.918 179.636 225.157 179.636C223.869 179.636 222.742 179.845 221.776 180.261C220.82 180.678 220.072 181.251 219.532 181.98C219.002 182.709 218.737 183.538 218.737 184.466C218.737 185.242 218.921 185.91 219.291 186.469C219.669 187.018 220.152 187.477 220.739 187.847C221.327 188.206 221.942 188.505 222.586 188.741C223.23 188.969 223.822 189.153 224.362 189.295L227.316 190.091C228.074 190.29 228.917 190.564 229.845 190.915C230.782 191.265 231.677 191.743 232.529 192.349C233.391 192.946 234.101 193.713 234.66 194.651C235.219 195.588 235.498 196.739 235.498 198.102C235.498 199.674 235.086 201.095 234.262 202.364C233.448 203.633 232.255 204.641 230.683 205.389C229.12 206.137 227.221 206.511 224.987 206.511C222.903 206.511 221.099 206.175 219.575 205.503C218.06 204.83 216.866 203.893 215.995 202.69C215.133 201.488 214.646 200.091 214.532 198.5H218.168C218.263 199.598 218.632 200.508 219.276 201.227C219.93 201.937 220.754 202.468 221.748 202.818C222.752 203.159 223.831 203.33 224.987 203.33C226.331 203.33 227.539 203.112 228.609 202.676C229.679 202.231 230.526 201.616 231.151 200.83C231.776 200.034 232.089 199.106 232.089 198.045C232.089 197.08 231.819 196.294 231.279 195.688C230.739 195.081 230.029 194.589 229.149 194.21C228.268 193.831 227.316 193.5 226.293 193.216L222.714 192.193C220.441 191.54 218.642 190.607 217.316 189.395C215.99 188.183 215.328 186.597 215.328 184.636C215.328 183.008 215.768 181.587 216.649 180.375C217.539 179.153 218.732 178.206 220.228 177.534C221.734 176.852 223.415 176.511 225.271 176.511C227.146 176.511 228.812 176.848 230.271 177.52C231.729 178.183 232.884 179.092 233.737 180.247C234.598 181.402 235.053 182.714 235.1 184.182H231.691Z" fill="white"/>
</svg>
