<svg width="256" height="256" viewBox="0 0 256 256" fill="none" xmlns="http://www.w3.org/2000/svg">
<g clip-path="url(#clip0_20_1453)">
<path fill-rule="evenodd" clip-rule="evenodd" d="M127.783 190.561C184.419 267.77 239.847 169.012 239.765 109.622C239.67 39.4038 168.502 0.159424 127.738 0.159424C62.3114 0.159424 0.000244141 54.2332 0.000244141 128.217C0.000244141 210.451 71.4242 256 127.738 256C114.996 254.165 72.5287 245.066 71.9568 147.254C71.5728 81.0987 93.5372 54.6688 127.645 66.2961C128.409 66.579 165.267 81.1193 165.267 128.618C165.267 175.911 127.783 190.561 127.783 190.561Z" fill="url(#paint0_linear_20_1453)"/>
<path fill-rule="evenodd" clip-rule="evenodd" d="M127.717 66.2416C90.2933 53.3425 44.4487 84.1863 44.4487 145.967C44.4487 246.843 119.203 255.999 128.264 255.999C193.688 255.999 255.999 201.926 255.999 127.942C255.999 45.7079 184.576 0.158543 128.262 0.158543C143.859 -2.00094 212.327 17.038 212.327 110.618C212.327 171.643 161.201 204.865 127.95 190.672C127.186 190.389 90.3284 175.849 90.3284 128.35C90.3284 81.0524 127.717 66.2395 127.717 66.2416Z" fill="url(#paint1_linear_20_1453)"/>
</g>
<defs>
<linearGradient id="paint0_linear_20_1453" x1="35.6166" y1="40.1716" x2="215.942" y2="220.548" gradientUnits="userSpaceOnUse">
<stop/>
<stop offset="1" stop-color="white"/>
</linearGradient>
<linearGradient id="paint1_linear_20_1453" x1="224.119" y1="212.352" x2="43.7936" y2="31.9919" gradientUnits="userSpaceOnUse">
<stop/>
<stop offset="1" stop-color="white"/>
</linearGradient>
<clipPath id="clip0_20_1453">
<rect width="256" height="256" fill="white"/>
</clipPath>
</defs>
</svg>
