<svg xmlns="http://www.w3.org/2000/svg" width="171" height="256" fill="none" viewBox="0 0 171 256">
  <g clip-path="url(#a)">
    <path fill="#0acf83" d="M42.667 255.999c23.615 0 42.666-19.051 42.666-42.666v-42.667H42.667C19.05 170.666 0 189.717 0 213.333c0 23.615 19.051 42.666 42.667 42.666"/>
    <path fill="#a259ff" d="M0 128.001c0-23.616 19.051-42.667 42.667-42.667h42.666v85.333H42.667C19.05 170.667 0 151.616 0 128.001"/>
    <path fill="#f24e1e" d="M0 42.667C0 19.05 19.051 0 42.667 0h42.666v85.333H42.667C19.05 85.333 0 66.283 0 42.667"/>
    <path fill="#ff7262" d="M85.333 0H128c23.615 0 42.667 19.051 42.667 42.667 0 23.615-19.052 42.666-42.667 42.666H85.333z"/>
    <path fill="#1abcfe" d="M170.667 128.001c0 23.615-19.052 42.666-42.667 42.666s-42.667-19.051-42.667-42.666c0-23.616 19.051-42.667 42.667-42.667 23.615 0 42.667 19.051 42.667 42.667"/>
  </g>
  <defs>
    <clipPath id="a">
      <path fill="#ebebeb" d="M0 0h170.667v256H0z"/>
    </clipPath>
  </defs>
</svg>
