<svg width="195" height="256" viewBox="0 0 195 256" fill="none"
  xmlns="http://www.w3.org/2000/svg">
  <g clip-path="url(#clip0_21_1811)">
    <path d="M51.2144 0L24.2997 37.909V59.3381L0.877731 70.4783L0.666748 70.3786V210.182L91.9818 253.322L97.5627 255.957L103.142 253.322L194.459 210.182V70.3786L194.287 70.4595L170.857 59.3165V37.909L170.038 36.7558L143.941 0L117.025 37.909V37.9466L97.4399 10.3627L78.0063 37.7341L77.3113 36.7558L51.2144 0ZM55.976 22.0202L66.3864 36.6821H36.0425L46.3315 22.1922L55.976 22.0202ZM148.703 22.0202L159.113 36.6821H128.769L139.057 22.1922L148.703 22.0202ZM102.201 32.3844L112.612 47.0448H82.2693L92.5569 32.5549L102.201 32.3844ZM33.1653 44.0708H47.5569V92.5303L33.1653 85.7312V44.0708ZM54.9456 44.0708H69.265L69.2635 102.785L54.9442 96.0202L54.9456 44.0708ZM125.891 44.0708H140.284L140.282 95.9711L125.892 102.769L125.891 44.0708ZM147.671 44.0708H161.99V85.7153L147.671 92.4798V44.0708ZM79.3907 54.4335H93.7824V114.367L79.3907 107.568V54.4335ZM101.171 54.4335H115.49L115.489 107.684L101.17 114.449L101.171 54.4335ZM170.856 70.3598L183.527 75.5405L170.856 81.526V70.3598ZM24.2997 70.3786V81.5434L11.6306 75.5578L24.2997 70.3786ZM11.8257 87.9942L91.9818 125.86V240.978L11.8257 203.113V87.9942ZM183.298 87.9942V203.113L103.142 240.978V125.86L183.298 87.9942Z" fill="#EBEBEB"/>
  </g>
  <defs>
    <clipPath id="clip0_21_1811">
      <rect width="193.85" height="256" fill="#EBEBEB" transform="translate(0.666748)"/>
    </clipPath>
  </defs>
</svg>
