<svg xmlns="http://www.w3.org/2000/svg" width="256" height="154" fill="none" viewBox="0 0 256 154">
  <g clip-path="url(#a)">
    <path fill="#38bdf8" d="M127.506 0C93.504 0 72.26 17.018 63.753 51.066c12.746-17.02 27.627-23.401 44.623-19.146 9.704 2.422 16.639 9.468 24.32 17.277 12.499 12.701 26.967 27.406 58.563 27.406 34 0 55.246-17.019 63.753-51.075-12.749 17.03-27.627 23.411-44.625 19.156-9.703-2.424-16.63-9.468-24.32-17.277C173.575 14.705 159.111 0 127.506 0M63.753 76.603c-34 0-55.246 17.02-63.753 51.076 12.747-17.029 27.625-23.411 44.623-19.156 9.704 2.424 16.64 9.468 24.32 17.276 12.5 12.702 26.967 27.407 58.563 27.407 34 0 55.246-17.017 63.753-51.065-12.749 17.019-27.627 23.401-44.625 19.146-9.703-2.422-16.63-9.468-24.32-17.277-12.492-12.702-26.956-27.407-58.561-27.407"/>
  </g>
  <defs>
    <clipPath id="a">
      <path fill="#ebebeb" d="M0 0h256v154H0z"/>
    </clipPath>
  </defs>
</svg>
