<svg width="257" height="250" viewBox="0 0 257 250" fill="none" xmlns="http://www.w3.org/2000/svg">
<g clip-path="url(#clip0_21_1839)">
<path d="M45.7398 0H210.695C235.698 0 255.919 20.221 255.919 45.2233V203.804C255.919 228.806 235.698 249.027 210.695 249.027H45.7398C20.7374 249.027 0.516418 228.806 0.516418 203.804V45.2233C0.516418 20.221 20.7374 0 45.7398 0Z" fill="#001E36"/>
<path d="M51 178.573V68.8133C51 68.0666 51.32 67.64 52.0667 67.64C53.88 67.64 55.5867 67.64 58.04 67.5333C60.6 67.4266 63.2667 67.4266 66.1467 67.32C69.0267 67.2133 72.12 67.2133 75.4267 67.1066C78.7333 67 81.9333 67 85.1333 67C93.8799 67 101.133 68.0666 107.107 70.3066C112.44 72.12 117.347 75.1066 121.4 79.0533C124.813 82.4666 127.48 86.6266 129.187 91.2133C130.787 95.6933 131.64 100.28 131.64 105.08C131.64 114.253 129.507 121.826 125.24 127.8C120.973 133.773 115 138.253 108.067 140.813C100.813 143.48 92.8133 144.44 84.0667 144.44C81.5067 144.44 79.8 144.44 78.7333 144.333C77.6667 144.226 76.1733 144.226 74.1467 144.226V178.466C74.2533 179.213 73.72 179.853 72.9733 179.96C72.8667 179.96 72.76 179.96 72.5467 179.96H52.28C51.4267 179.96 51 179.533 51 178.573ZM74.2533 88.2266V124.066C75.7467 124.173 77.1333 124.28 78.4133 124.28H84.0667C88.2267 124.28 92.3867 123.64 96.3329 122.36C99.7469 121.4 102.733 119.373 105.08 116.706C107.32 114.04 108.387 110.413 108.387 105.72C108.493 102.413 107.64 99.1066 105.933 96.2266C104.12 93.4533 101.56 91.32 98.4669 90.1466C94.5199 88.5466 90.2533 87.9066 85.88 88.0133C83.1067 88.0133 80.6533 88.0133 78.6267 88.12C76.4933 88.0133 75 88.12 74.2533 88.2266Z" fill="#65A7F8"/>
<path d="M198.2 117.56C195 115.853 191.587 114.68 187.96 113.933C184.013 113.08 180.067 112.546 176.013 112.546C173.88 112.44 171.64 112.76 169.613 113.293C168.227 113.613 167.053 114.36 166.307 115.426C165.773 116.28 165.453 117.346 165.453 118.306C165.453 119.266 165.88 120.226 166.52 121.08C167.48 122.253 168.76 123.213 170.147 123.96C172.6 125.24 175.16 126.413 177.72 127.48C183.48 129.4 189.027 132.066 194.147 135.266C197.667 137.506 200.547 140.493 202.573 144.12C204.28 147.533 205.133 151.266 205.027 155.106C205.133 160.12 203.64 165.133 200.867 169.293C197.88 173.56 193.72 176.866 188.92 178.786C183.693 181.026 177.293 182.2 169.613 182.2C164.707 182.2 159.907 181.773 155.107 180.813C151.373 180.173 147.64 179 144.227 177.4C143.48 176.973 142.947 176.226 143.053 175.373V156.813C143.053 156.493 143.16 156.066 143.48 155.853C143.8 155.64 144.12 155.746 144.44 155.96C148.6 158.413 152.973 160.12 157.667 161.186C161.72 162.253 165.987 162.786 170.253 162.786C174.307 162.786 177.187 162.253 179.107 161.293C180.813 160.546 181.987 158.733 181.987 156.813C181.987 155.32 181.133 153.933 179.427 152.546C177.72 151.16 174.2 149.56 168.973 147.533C163.533 145.613 158.52 143.053 153.827 139.853C150.52 137.506 147.747 134.413 145.72 130.786C144.013 127.373 143.16 123.64 143.267 119.906C143.267 115.32 144.547 110.946 146.893 107C149.56 102.733 153.507 99.32 158.093 97.1866C163.107 94.6266 169.4 93.4533 176.973 93.4533C181.347 93.4533 185.827 93.7733 190.2 94.4133C193.4 94.84 196.493 95.6933 199.373 96.8666C199.8 96.9733 200.227 97.4 200.44 97.8266C200.547 98.2533 200.653 98.68 200.653 99.1066V116.493C200.653 116.92 200.44 117.346 200.12 117.56C199.16 117.773 198.627 117.773 198.2 117.56Z" fill="#65A7F8"/>
</g>
<defs>
<clipPath id="clip0_21_1839">
<rect width="256" height="250" fill="white" transform="translate(0.516418)"/>
</clipPath>
</defs>
</svg>
