<svg xmlns="http://www.w3.org/2000/svg" width="257" height="173" fill="none" viewBox="0 0 257 173">
  <g fill="#ebebeb" clip-path="url(#a)">
    <path d="M168.581 3.397a4.81 4.81 0 0 1 6.825 0l79.141 79.457a4.86 4.86 0 0 1 0 6.852l-79.148 79.463a4.81 4.81 0 0 1-6.825 0l-79.14-79.456a4.86 4.86 0 0 1 0-6.853z"/>
    <path d="M59.01 89.737a4.836 4.836 0 0 1 0-6.825l66.223-66.487c2.225-2.233 1.752-5.969-1.067-7.38C112.67 3.288 99.736 0 86.011 0 38.537 0 .04 38.651.04 86.324s38.497 86.324 85.97 86.324c13.723 0 26.659-3.29 38.156-9.048 2.819-1.411 3.292-5.146 1.067-7.38z"/>
  </g>
  <defs>
    <clipPath id="a">
      <path fill="#ebebeb" d="M.04 0h256v173H.04z"/>
    </clipPath>
  </defs>
</svg>
