<svg width="256" height="256" viewBox="0 0 256 256" fill="none" xmlns="http://www.w3.org/2000/svg">
<path d="M39.6688 53.8516L0.308963 93.2611L61.0082 154.142L-0.00012207 215.334L39.2366 254.76L100.368 193.552L161.168 254.323L200.528 214.913L39.6688 53.8516Z" fill="#53B9FF"/>
<path d="M139.834 154.143L100.369 193.551L161.169 254.323L200.529 214.914L139.834 154.143Z" fill="#119EFF"/>
<path d="M139.834 154.143L100.369 193.551L115.562 208.659L139.834 154.143Z" fill="black" fill-opacity="0.2"/>
<path d="M193.624 100.494L254.756 39.2861L215.379 0L154.265 61.0853L93.4602 0.309482L54.1003 39.719L214.96 200.781L254.32 161.371L193.624 100.494Z" fill="#53B9FF"/>
<path d="M114.799 100.497L154.265 61.0873L93.4602 0.311523L54.1003 39.721L114.799 100.497Z" fill="#119EFF"/>
<path d="M114.798 100.496L154.264 61.0867L139.068 45.9746L114.798 100.496Z" fill="black" fill-opacity="0.2"/>
</svg>
