<svg xmlns="http://www.w3.org/2000/svg" width="256" height="250" fill="none" viewBox="0 0 256 250">
  <g clip-path="url(#a)">
    <path fill="#ebebeb" d="M85.626 201.078c0 1.033-1.187 1.858-2.684 1.858-1.703.155-2.89-.671-2.89-1.858 0-1.032 1.187-1.858 2.683-1.858 1.549-.155 2.89.671 2.89 1.858m-16.052-2.322c-.361 1.032.671 2.219 2.22 2.529 1.341.516 2.89 0 3.2-1.033s-.671-2.219-2.22-2.683c-1.342-.362-2.838.154-3.2 1.187m22.813-.878c-1.497.362-2.529 1.342-2.374 2.529.155 1.033 1.497 1.704 3.045 1.342 1.497-.361 2.53-1.342 2.374-2.374-.155-.981-1.548-1.652-3.045-1.497M126.348.098C54.761.098 0 54.446 0 126.033c0 57.239 36.026 106.219 87.484 123.458 6.606 1.187 8.929-2.89 8.929-6.245 0-3.2-.155-20.852-.155-31.69 0 0-36.129 7.742-43.716-15.381 0 0-5.884-15.019-14.349-18.89 0 0-11.819-8.103.826-7.949 0 0 12.852 1.033 19.923 13.316 11.303 19.923 30.245 14.194 37.626 10.788 1.187-8.258 4.542-13.988 8.258-17.394-28.852-3.2-57.961-7.381-57.961-57.032 0-14.194 3.922-21.316 12.18-30.4-1.342-3.355-5.729-17.187 1.342-35.045C71.174 50.214 96 67.504 96 67.504c10.323-2.89 21.419-4.387 32.413-4.387s22.09 1.497 32.413 4.387c0 0 24.826-17.342 35.613-13.935 7.071 17.91 2.684 31.69 1.342 35.045 8.258 9.135 13.316 16.258 13.316 30.4 0 49.806-30.4 53.78-59.252 57.032 4.749 4.077 8.774 11.819 8.774 23.948 0 17.394-.154 38.917-.154 43.149 0 3.355 2.374 7.432 8.929 6.245C221.006 232.252 256 183.272 256 126.033 256 54.446 197.935.098 126.348.098M50.168 178.11c-.671.516-.516 1.703.361 2.683.826.826 2.013 1.188 2.684.517.67-.517.516-1.704-.361-2.684-.826-.826-2.013-1.187-2.684-.516m-5.574-4.181c-.362.671.154 1.497 1.187 2.013.825.516 1.858.361 2.219-.361.361-.671-.155-1.497-1.187-2.013-1.032-.31-1.858-.155-2.22.361m16.722 18.374c-.826.671-.516 2.219.671 3.2 1.187 1.187 2.684 1.342 3.355.516.67-.671.361-2.219-.671-3.2-1.136-1.187-2.684-1.342-3.355-.516m-5.884-7.587c-.826.516-.826 1.858 0 3.045s2.22 1.703 2.89 1.187c.826-.671.826-2.013 0-3.2-.722-1.187-2.064-1.703-2.89-1.032"/>
  </g>
  <defs>
    <clipPath id="a">
      <path fill="#ebebeb" d="M0 0h256v250H0z"/>
    </clipPath>
  </defs>
</svg>
