<svg xmlns="http://www.w3.org/2000/svg" width="256" height="254" fill="none" viewBox="0 0 256 254"><g clip-path="url(#a)"><path fill="#2855a3" d="m150.096 251.848.074.033c4.969 2.096 10.488 2.711 15.747 1.513C217.489 241.657 256 195.51 256 140.364V79.7c-4.533.986-9.233 2.098-13.807 3.357h-.042c-22.473 6.169-42.134 15.737-27.888 28.979 27.678 25.705-23.502 35.671-58.418 43.183-54.557 11.709-103.03 55.229-5.749 96.629"/><path fill="#6dd0f6" d="M0 116.231v24.039c0 9.875 9.66 16.815 19.036 13.72 11.134-3.675 24.016-6.897 38.879-9.536 125.755-22.283 106.491-31.475 96.86-37.496-9.631-6.044-26.25-20.208 25.306-30.553 26.482-5.33 54.725-8.267 75.919-9.863V.297H115.934C51.906.297 0 52.203 0 116.23"/><path fill="#c4c2c1" d="M242.193 83.057C247.759 81.465 256 79.7 256 79.7c-4.533.986-9.233 2.098-13.807 3.357"/><path fill="#22427a" d="M150.096 251.849c-40.565-17.263-55.787-34.896-55.791-50.436-.006-21.727 29.733-39.367 61.54-46.193 27.944-6.012 66.302-13.597 66.322-29.561.006-3.984-2.376-8.49-7.904-13.623-3.353-3.116-4.827-6.029-4.829-8.743-.009-8.814 15.533-15.52 32.717-20.236h.042c4.574-1.259 9.274-2.37 13.807-3.357v19.494c-16.956 6.084-28.328 14.521-16.556 25.433 27.678 25.705-23.502 35.67-58.419 43.183-49.038 10.535-93.167 46.752-30.929 84.039"/></g><defs><clipPath id="a"><path fill="#ebebeb" d="M0 0h256v254H0z"/></clipPath></defs></svg>
