<svg xmlns="http://www.w3.org/2000/svg" width="256" height="245" fill="none" viewBox="0 0 256 245"><g clip-path="url(#a)"><path fill="url(#b)" d="m255.991 132.806-56.839-10.515-6.504 11.262-16.008 27.715-41.563 71.963c-1.82 3.151-6.619 1.855-6.619-1.787v-67.045c0-3.409-2.404-6.341-5.736-6.995l-64.755-12.721L0 134.085c.088 3.011.8 6.008 2.153 8.781l47.842 83.02c6.675 11.583 18.998 18.709 32.326 18.691l91.747-.122c13.32-.018 25.619-7.169 32.267-18.76l46.82-81.648a21.44 21.44 0 0 0 2.836-11.241"/><path fill="url(#c)" d="M64.497 111.01 80.53 83.188l41.316-71.698c1.817-3.155 6.621-1.86 6.621 1.784v67.01c0 3.413 2.409 6.347 5.746 6.997l64.948 12.654L256 110.452a21.4 21.4 0 0 0-1.914-8.323 21 21 0 0 0-.932-1.838l-46.88-81.563C199.613 7.14 187.301 0 173.976 0h-92.06C68.57 0 56.241 7.162 49.589 18.779l-46.747 81.63c-.108.187-.201.38-.303.569a21.43 21.43 0 0 0-2.53 10.751l57.967 10.598z"/></g><defs><linearGradient id="b" x1="250.644" x2="4.603" y1="182.776" y2="185.055" gradientUnits="userSpaceOnUse"><stop stop-color="#3585a3"/><stop offset="1" stop-color="#00deae"/></linearGradient><linearGradient id="c" x1="12.399" x2="230.976" y1="62.67" y2="56.971" gradientUnits="userSpaceOnUse"><stop stop-color="#3585a3"/><stop offset="1" stop-color="#00deae"/></linearGradient><clipPath id="a"><path fill="#ebebeb" d="M0 0h256v245H0z"/></clipPath></defs></svg>
