<svg width="256" height="256" viewBox="0 0 256 256" fill="none"
  xmlns="http://www.w3.org/2000/svg">
  <g clip-path="url(#clip0_17_117)">
    <rect width="256" height="256" fill="#F8DC3D"/>
    <path d="M0 0H256V256H0" fill="#F7DF1E"/>
    <path d="M171.603 200C177.27 209.667 184.77 214.5 194.103 214.5C205.77 214.5 211.603 210 211.603 201C211.603 195.5 204.103 190.5 192.103 185.5C169.77 178.167 158.77 165.667 159.103 148C159.103 130 172.603 116 194.103 116C210.103 116 221.437 122.5 228.103 135.5L209.603 147.5C205.603 140.167 200.437 136.667 194.103 137C186.77 137.333 182.937 140.833 182.603 147.5C182.603 154.5 187.103 157.5 202.103 164C223.603 172.5 235.603 182 235.603 202.5C234.603 224.167 221.437 235.333 196.103 236C175.103 236 160.27 227.833 151.603 211.5L171.603 200Z" fill="black"/>
    <path d="M140.622 233.939H70V118H138.637V138.839H95.1394V164.64H138.637V185.479H95.1394V213.1H140.622V233.939Z" fill="black"/>
  </g>
  <defs>
    <clipPath id="clip0_17_117">
      <rect width="256" height="256" fill="#EBEBEB"/>
    </clipPath>
  </defs>
</svg>
