<svg width="249" height="256" viewBox="0 0 249 256" fill="none" xmlns="http://www.w3.org/2000/svg">
<g clip-path="url(#clip0_20_459)">
<path d="M185.879 186.508C187.513 172.911 187.024 170.915 197.151 173.119L199.722 173.344C207.51 173.697 217.698 172.091 223.684 169.31C236.569 163.33 244.207 153.351 231.505 155.971C202.525 161.951 200.533 152.137 200.533 152.137C231.135 106.734 243.926 49.0961 232.883 34.987C202.767 -3.49417 150.636 14.7026 149.764 15.173L149.485 15.225C143.76 14.0366 137.351 13.3269 130.152 13.2103C117.038 12.9939 107.087 16.6487 99.5382 22.3722C99.5382 22.3722 6.53939 -15.9424 10.8664 70.5564C11.7863 88.9572 37.2407 209.791 67.6027 173.294C78.7002 159.948 89.423 148.664 89.423 148.664C94.747 152.2 101.124 154.006 107.809 153.357L108.327 152.916C108.165 154.572 108.236 156.194 108.534 158.113C100.714 166.852 103.012 168.386 87.375 171.604C71.553 174.863 80.8481 180.668 86.9151 182.185C94.2725 184.025 111.291 186.631 122.793 170.534L122.335 172.37C125.402 174.825 125.196 190.013 125.629 200.863C126.064 211.714 126.791 221.84 129.003 227.811C131.216 233.78 133.826 249.157 154.376 244.753C171.551 241.082 184.682 235.785 185.879 186.508Z" fill="black"/>
<path d="M147.685 255.489C138.596 255.489 132.677 251.973 129.082 248.579C123.656 243.459 121.504 236.863 120.218 232.923L119.662 231.279C117.073 224.29 116.195 214.227 115.675 201.269C115.595 199.323 115.541 197.318 115.481 195.193C115.437 193.639 115.383 191.688 115.304 189.649C112.03 191.21 108.554 192.308 104.977 192.912C98.5683 194.007 91.6792 193.653 84.4966 191.857C79.4287 190.589 74.163 187.963 71.1618 183.906C62.414 191.568 54.0701 190.529 49.5245 189.012C41.5053 186.337 34.329 178.822 27.5835 166.04C22.7778 156.935 18.1302 145.071 13.7678 130.777C6.17106 105.885 1.34452 79.6665 0.915771 71.0582C-0.432912 44.1158 6.82042 24.8471 22.4697 13.7933C47.156 -3.64383 84.5591 6.61074 98.1958 11.2666C107.358 5.74492 118.137 3.05796 130.316 3.25152C136.858 3.35767 143.087 3.9321 148.873 4.96443C154.909 3.06628 166.831 0.34186 180.478 0.512527C205.622 0.812234 226.458 10.611 240.729 28.8494C250.915 41.8617 245.879 69.1871 241.972 84.3182C236.473 105.602 226.839 128.238 215.005 147.944C218.218 147.966 222.874 147.581 229.493 146.214C242.551 143.519 246.37 150.52 247.406 153.655C251.558 166.23 233.509 175.733 227.88 178.347C220.666 181.696 208.904 183.736 199.272 183.294L198.852 183.267L196.321 183.045L196.071 185.155L195.83 187.218C195.182 212.191 191.615 228.007 184.274 238.457C176.58 249.413 165.886 252.483 156.466 254.502C153.252 255.189 150.332 255.489 147.685 255.489ZM128.558 164.596C134.425 169.291 134.939 178.127 135.399 194.638C135.457 196.698 135.511 198.648 135.584 200.469C135.805 205.985 136.323 218.899 138.346 224.356C138.631 225.129 138.887 225.911 139.158 226.742C141.412 233.643 142.542 237.104 152.289 235.021C160.47 233.266 164.677 231.693 167.969 227.006C172.754 220.192 175.431 206.484 175.922 186.264L185.877 186.506L175.991 185.32L176.282 182.851C177.229 174.713 177.912 168.836 183.35 164.948C187.715 161.83 192.687 162.132 196.648 162.846C192.296 159.557 191.093 155.701 190.772 154.119L189.942 150.029L192.275 146.568C205.714 126.629 216.795 102.124 222.68 79.3335C228.729 55.9167 226.885 43.481 225.041 41.1291C200.629 9.93666 158.297 22.8157 153.877 24.2768L153.13 24.6806L149.383 25.3778L147.464 24.9803C142.174 23.8814 136.296 23.2736 129.996 23.1716C120.097 23.0051 112.111 25.3445 105.564 30.3126L101.02 33.7571L95.7482 31.5863C84.4842 26.9804 51.3998 17.7207 33.9419 30.0857C24.2513 36.9499 19.8369 50.3992 20.8192 70.0613C21.1439 76.5529 25.5542 101.127 32.8304 124.96C42.8852 157.896 52.0221 168.838 55.8371 170.109C56.5031 170.334 58.2306 168.992 59.9498 166.927C67.1178 158.334 74.5403 149.957 82.2072 141.806L87.9724 135.739L94.9427 140.37C97.7525 142.237 100.852 143.296 104.034 143.496L120.657 129.318L118.249 153.894C118.195 154.446 118.168 155.197 118.384 156.591L119.109 161.249L115.966 164.763L115.604 165.17L124.737 169.385L128.558 164.596Z" fill="black"/>
<path d="M231.505 155.971C202.523 161.95 200.531 152.137 200.531 152.137C231.133 106.731 243.924 49.0918 232.885 34.9868C202.769 -3.49225 150.634 14.7046 149.764 15.177L149.483 15.227C143.757 14.0385 137.349 13.3309 130.146 13.2143C117.031 13 107.085 16.6527 99.5361 22.3762C99.5361 22.3762 6.53523 -15.9363 10.8602 70.5604C11.7801 88.9633 37.2344 209.797 67.5964 173.3C78.6939 159.954 89.4147 148.67 89.4147 148.67C94.7408 152.206 101.116 154.012 107.799 153.363L108.319 152.922C108.157 154.578 108.232 156.2 108.527 158.119C100.706 166.858 103.004 168.392 87.3667 171.61C71.5447 174.869 80.8398 180.674 86.9088 182.191C94.2641 184.031 111.285 186.637 122.784 170.54L122.324 172.376C125.39 174.832 127.542 188.343 127.182 200.592C126.82 212.84 126.578 221.251 128.995 227.819C131.409 234.388 133.815 249.165 154.37 244.761C171.545 241.081 180.445 231.543 181.685 215.633C182.563 204.321 184.551 205.995 184.678 195.882L186.274 191.095C188.114 175.762 186.566 170.817 197.149 173.117L199.72 173.341C207.508 173.695 217.7 172.088 223.684 169.308C236.567 163.332 244.207 153.35 231.505 155.971Z" fill="#336791"/>
<path d="M148.723 249.351C131.59 249.351 126.162 235.783 123.941 230.234C120.69 222.103 119.989 190.546 120.713 164.667C120.724 164.231 120.821 163.801 120.999 163.402C121.176 163.003 121.431 162.643 121.748 162.344C122.066 162.044 122.439 161.81 122.847 161.655C123.255 161.5 123.69 161.427 124.127 161.441C124.562 161.453 124.992 161.551 125.39 161.728C125.788 161.906 126.147 162.161 126.447 162.478C126.746 162.795 126.981 163.167 127.136 163.575C127.291 163.982 127.365 164.416 127.353 164.852C126.518 194.7 127.702 221.749 130.108 227.768C133.863 237.153 139.557 245.361 155.656 241.912C170.939 238.634 176.663 232.84 179.212 218.061C181.169 206.72 185.038 174.455 185.515 168.089C185.546 167.654 185.664 167.229 185.86 166.839C186.056 166.45 186.328 166.103 186.658 165.818C186.989 165.534 187.372 165.317 187.787 165.181C188.201 165.045 188.639 164.992 189.074 165.025C189.951 165.092 190.767 165.504 191.341 166.171C191.916 166.838 192.202 167.706 192.137 168.584C191.64 175.213 187.789 207.415 185.758 219.191C182.748 236.647 174.966 244.564 157.049 248.406C154.004 249.058 151.238 249.349 148.723 249.351ZM55.8224 183.08C54.3249 183.075 52.8379 182.829 51.4184 182.352C40.2897 178.639 29.6896 160.515 19.9117 128.477C12.4689 104.091 7.75271 78.6365 7.33853 70.3633C6.11264 45.8373 12.4273 28.4855 26.1119 18.7928C53.1833 -0.38842 98.7243 17.8771 100.649 18.6638C101.465 18.9969 102.115 19.6404 102.456 20.4527C102.797 21.2649 102.802 22.1794 102.469 22.995C102.135 23.8106 101.492 24.4604 100.68 24.8015C99.8674 25.1427 98.9529 25.1472 98.1374 24.814C97.6982 24.6351 54.0283 7.13964 29.9373 24.2209C18.2362 32.5169 12.8644 47.9311 13.9696 70.0324C14.3171 77.0027 18.7232 101.845 26.2617 126.538C34.9907 155.139 44.9247 173.186 53.5184 176.052C54.8671 176.501 58.9714 177.869 64.8386 170.813C71.6808 162.596 78.7794 154.596 86.1241 146.824C86.7387 146.211 87.5687 145.863 88.4367 145.854C89.3047 145.846 90.1416 146.177 90.7682 146.778C91.3949 147.378 91.7616 148.2 91.7899 149.068C91.8181 149.935 91.5057 150.779 90.9194 151.42C90.8195 151.524 80.8313 161.966 69.9461 175.061C64.7907 181.261 59.8497 183.08 55.8224 183.08ZM200.325 155.097C199.723 155.096 199.132 154.932 198.617 154.622C198.101 154.311 197.679 153.866 197.396 153.335C197.114 152.803 196.981 152.205 197.012 151.603C197.043 151.002 197.237 150.421 197.574 149.921C228.508 104.018 239.366 48.5534 230.067 36.6691C218.362 21.7129 201.834 13.9018 180.94 13.4501C165.47 13.1171 153.173 17.0674 151.163 17.7564L150.657 17.9624C148.636 18.5972 147.085 17.49 146.501 16.1954C146.167 15.4537 146.117 14.6156 146.358 13.8392C146.6 13.0628 147.118 12.4017 147.814 11.9808C147.91 11.9246 148.213 11.7955 148.707 11.6144C152.122 10.3636 164.606 6.61724 180.068 6.79415C203.187 7.03974 222.285 15.954 235.293 32.5773C241.447 40.4425 241.462 58.5623 235.333 82.2933C229.084 106.488 217.327 132.49 203.079 153.634C202.442 154.585 201.393 155.097 200.325 155.097ZM201.907 176.347C196.625 176.347 191.89 175.602 189.055 173.904C186.141 172.158 185.585 169.785 185.512 168.526C184.717 154.56 192.422 152.129 196.352 151.02C195.804 150.192 195.026 149.218 194.221 148.212C191.929 145.348 188.79 141.427 186.372 135.562C185.993 134.646 184.807 132.517 183.433 130.051C175.984 116.693 160.485 88.8973 170.442 74.6633C175.05 68.076 184.226 65.4827 197.746 66.9292C193.769 54.8118 174.829 16.9072 129.888 16.1704C116.372 15.9456 105.287 20.102 96.9573 28.5125C78.3088 47.3462 78.9831 81.4233 78.9935 81.7647C79.005 82.2006 78.9305 82.6346 78.7743 83.0417C78.6181 83.4489 78.3832 83.8213 78.083 84.1376C77.7829 84.454 77.4234 84.7082 77.025 84.8856C76.6267 85.0631 76.1972 85.1603 75.7613 85.1718C75.3253 85.1832 74.8914 85.1088 74.4842 84.9525C74.0771 84.7963 73.7047 84.5614 73.3883 84.2613C73.0719 83.9611 72.8178 83.6016 72.6403 83.2032C72.4629 82.8049 72.3657 82.3755 72.3542 81.9395C72.3126 80.4264 71.6174 44.6655 92.2389 23.8379C101.89 14.0912 114.594 9.27922 129.998 9.53106C158.749 10.0035 177.256 24.6205 187.717 36.7982C199.12 50.0706 204.71 64.7105 205.17 69.5974C205.514 73.2314 202.906 73.9577 202.379 74.066L201.18 74.093C187.912 71.968 179.4 73.4436 175.88 78.4721C168.306 89.2969 182.969 115.59 189.23 126.819C190.828 129.682 191.981 131.753 192.51 133.031C194.566 138.018 197.249 141.369 199.403 144.062C201.299 146.431 202.941 148.485 203.528 150.895C203.801 151.374 207.67 157.097 230.629 152.358C236.384 151.172 239.834 152.185 240.89 155.376C242.965 161.651 231.322 168.971 224.876 171.964C219.1 174.649 209.882 176.347 201.907 176.347ZM192.133 167.978C192.862 168.713 196.506 169.981 204.053 169.656C210.763 169.369 217.839 167.91 222.085 165.939C227.515 163.416 231.141 160.596 233.018 158.671L231.977 158.862C217.298 161.893 206.914 161.489 201.116 157.661C200.726 157.404 200.351 157.125 199.992 156.827C199.363 157.074 198.783 157.237 198.369 157.353C195.08 158.275 191.679 159.231 192.133 167.978ZM97.3048 186.533C93.6584 186.533 89.8205 186.036 85.9014 185.055C81.8408 184.04 74.9954 180.982 75.0994 175.96C75.2181 170.326 83.4121 168.636 86.4966 168.001C97.6399 165.706 98.3663 164.786 101.848 160.363C102.864 159.075 104.127 157.47 105.851 155.547C108.409 152.683 111.204 151.232 114.159 151.232C116.218 151.232 117.906 151.929 119.021 152.394C122.576 153.867 125.542 157.43 126.761 161.691C127.862 165.535 127.336 169.236 125.284 172.11C118.547 181.544 108.871 186.533 97.3048 186.533ZM82.2737 176.245C83.2748 177.02 85.2812 178.054 87.5144 178.612C90.909 179.461 94.2016 179.892 97.3069 179.892C106.769 179.892 114.365 175.975 119.883 168.249C121.034 166.638 120.688 164.592 120.38 163.516C119.735 161.262 118.132 159.212 116.482 158.527C115.587 158.157 114.844 157.874 114.161 157.874C113.795 157.874 112.679 157.874 110.802 159.974C109.507 161.431 108.261 162.932 107.068 164.473C102.731 169.981 100.743 171.85 87.8391 174.507C84.6901 175.153 83.075 175.81 82.2737 176.245ZM107.809 160.927C107.016 160.926 106.25 160.641 105.649 160.124C105.048 159.607 104.651 158.893 104.531 158.109C104.449 157.558 104.393 157.003 104.365 156.446C95.9062 156.288 87.7454 152.658 81.5494 146.193C73.7154 138.02 70.1501 126.696 71.7694 115.126C73.5281 102.561 72.8704 91.4698 72.5165 85.511C72.4187 83.8543 72.348 82.6576 72.3521 81.8292C72.3584 80.7781 72.3792 77.9913 81.6951 73.2688C85.0085 71.5892 91.652 68.6587 98.9095 67.9074C110.933 66.6649 118.859 72.02 121.231 82.9885C127.636 112.601 121.739 125.699 117.433 135.265C116.632 137.046 115.874 138.728 115.269 140.357L114.734 141.794C112.459 147.894 110.492 153.164 111.096 157.099C111.162 157.53 111.142 157.97 111.039 158.394C110.935 158.818 110.749 159.216 110.491 159.568C110.233 159.92 109.908 160.217 109.535 160.443C109.162 160.669 108.748 160.819 108.317 160.885L107.809 160.927ZM79.0144 82.7491L79.1434 85.1197C79.5097 91.3095 80.1924 102.827 78.3442 116.048C77.0101 125.591 79.9239 134.904 86.3426 141.598C91.4148 146.889 98.0895 149.809 104.949 149.809H105.091C105.859 146.572 107.135 143.155 108.508 139.473L109.039 138.045C109.724 136.205 110.525 134.424 111.374 132.538C115.518 123.33 120.678 111.869 114.736 84.3934C113.56 78.9508 110.706 75.8018 106.017 74.7632C96.3849 72.6361 82.0302 79.8811 79.0144 82.7491ZM99.0573 81.3401C98.8908 82.5139 101.207 85.6484 104.229 86.0667C107.245 86.4892 109.826 84.0375 109.99 82.8636C110.155 81.6898 107.84 80.3952 104.818 79.9748C101.798 79.5543 99.2176 80.1662 99.0573 81.3401ZM104.922 87.2219L104.075 87.1636C102.202 86.9034 100.308 85.7233 99.0115 84.0042C98.5557 83.4006 97.8127 82.2309 97.9604 81.1861C98.1707 79.6542 100.04 78.7364 102.956 78.7364C103.607 78.7364 104.286 78.7843 104.968 78.88C106.562 79.1006 108.042 79.5606 109.135 80.1704C111.029 81.2277 111.168 82.4078 111.083 83.0176C110.85 84.7097 108.159 87.2219 104.922 87.2219ZM100.158 81.5357C100.252 82.26 102.046 84.6494 104.381 84.972L104.924 85.0094C107.081 85.0094 108.692 83.3132 108.881 82.7575C108.681 82.3787 107.295 81.4379 104.666 81.0716C104.1 80.9904 103.529 80.9494 102.958 80.9488C101.268 80.9488 100.371 81.3297 100.158 81.5357ZM190.913 78.9445C191.078 80.1184 188.763 83.2528 185.743 83.6732C182.726 84.0937 180.143 81.644 179.976 80.4701C179.818 79.2963 182.132 77.9996 185.15 77.5813C188.168 77.1588 190.747 77.7727 190.913 78.9445ZM185.046 84.2726C182.141 84.2726 179.633 82.0124 179.427 80.545C179.187 78.7843 182.087 77.446 185.071 77.0318C185.729 76.9402 186.38 76.8944 187.007 76.8944C189.583 76.8944 191.29 77.6499 191.461 78.8696C191.571 79.6584 190.965 80.876 189.923 81.9749C189.234 82.6971 187.787 83.948 185.816 84.2206L185.046 84.2726ZM187.009 78.0017C186.434 78.0017 185.835 78.0454 185.227 78.1286C182.228 78.547 180.438 79.75 180.526 80.3952C180.626 81.1049 182.54 83.1675 185.048 83.1675L185.666 83.1238C187.304 82.8969 188.534 81.8271 189.121 81.2111C190.043 80.2432 190.41 79.3316 190.366 79.0215C190.308 78.6094 189.2 78.0017 187.009 78.0017ZM195.261 146.358C194.66 146.358 194.069 146.195 193.553 145.885C193.037 145.576 192.615 145.132 192.332 144.601C192.049 144.07 191.915 143.472 191.946 142.872C191.977 142.271 192.17 141.689 192.506 141.19C199.578 130.627 198.283 119.857 197.032 109.44C196.498 105.002 195.948 100.413 196.09 96.0091C196.235 91.4781 196.812 87.7401 197.368 84.1249C198.027 79.8416 198.652 75.7955 198.394 70.9919C198.37 70.5565 198.433 70.1207 198.577 69.7095C198.722 69.2982 198.947 68.9195 199.238 68.595C199.529 68.2705 199.882 68.0066 200.275 67.8182C200.668 67.6299 201.095 67.5209 201.53 67.4974C201.966 67.4739 202.401 67.5363 202.813 67.6812C203.224 67.8261 203.602 68.0506 203.927 68.3419C204.251 68.6331 204.515 68.9855 204.704 69.3787C204.892 69.772 205.001 70.1985 205.025 70.6339C205.32 76.1244 204.615 80.7032 203.932 85.1343C203.405 88.5539 202.86 92.09 202.729 96.2214C202.602 100.122 203.099 104.264 203.626 108.647C204.958 119.723 206.467 132.278 198.025 144.884C197.721 145.338 197.31 145.71 196.828 145.967C196.346 146.224 195.808 146.358 195.261 146.358Z" fill="white"/>
</g>
<defs>
<clipPath id="clip0_20_459">
<rect width="248.715" height="256" fill="white" transform="translate(0 -0.00195312)"/>
</clipPath>
</defs>
</svg>
