<svg width="256" height="206" viewBox="0 0 256 206" fill="none"
  xmlns="http://www.w3.org/2000/svg">
  <g clip-path="url(#clip0_17_97)">
    <mask id="path-1-inside-1_17_97" fill="#EBEBEB">
      <path d="M256 56.1091C251.575 81.4906 243.659 105.242 232.249 125.967C223.633 139.007 215.017 150.417 206.401 162.759C202.908 169.977 200.579 177.196 199.182 184.415H198.484C192.663 192.332 184.745 197.222 175.43 200.249C162.856 204.44 149.117 206.536 136.077 205.838H134.68C121.64 206.536 108.833 204.673 96.4909 200.249C86.4781 197.454 78.3276 192.332 72.739 184.415C71.109 177.196 68.5477 169.977 64.822 162.759C56.2062 150.417 47.5901 139.007 38.9743 125.967C35.0326 118.727 31.4254 111.153 28.237 103.303C26.8512 104.594 25.5408 106.014 24.3044 107.571C18.7159 115.721 16.6198 125.036 18.7155 135.049C20.1127 145.76 25.9348 154.608 34.5505 160.895C42.4676 167.182 50.3847 170.21 59.6989 170.21C55.2747 171.607 50.3849 173.936 45.9607 174.635C34.5506 176.73 24.5377 174.634 15.2234 167.416C6.37469 160.197 0.786195 150.883 0.087616 139.472C-0.610902 128.062 2.88156 116.42 10.7986 106.407C15.0044 101.088 19.6044 96.9505 24.6687 93.8923C20.402 81.8026 17.1545 69.1441 15.2234 56.1091C18.9493 61.9305 29.6607 67.5195 49.6862 72.6423C72.0408 77.5324 100.683 81.2576 135.844 81.2576C170.307 81.2576 198.949 77.7652 221.303 72.6423C240.631 68.2181 251.342 62.6291 256 56.1091ZM33.3864 18.8513C29.195 21.8785 27.7976 24.4404 27.7976 27.4675C27.798 34.686 38.7424 40.2744 59.4665 45.3972C78.7938 49.5887 105.572 52.6159 135.611 52.616C166.814 52.616 192.429 49.5891 212.455 45.1648C234.111 40.2747 244.823 34.4528 244.823 27.2341C244.823 24.6728 243.193 22.3442 241.097 20.947C250.411 24.6726 255.534 29.5626 255.534 34.6853C255.534 41.6711 244.124 49.123 220.373 54.7117C198.018 60.3003 170.075 63.3279 134.913 63.3279C100.45 63.3279 71.8083 60.3002 49.4538 54.7117C25.7021 49.123 14.0587 41.904 13.3601 34.6853C13.3604 28.1655 20.3466 23.9741 33.3864 18.8513ZM150.514 0.455811C178.457 -2.10561 194.059 6.50953 196.155 16.988C197.785 25.1381 191.032 33.0553 170.773 34.6853C152.843 36.3153 142.365 31.4258 141.433 26.5359C140.968 23.9744 142.364 20.2486 150.98 19.3171C151.912 23.2757 156.802 27.4668 168.445 26.3025C176.828 25.6039 183.813 22.5768 182.882 17.9197C181.95 13.0298 173.102 10.2359 159.131 11.4001C130.722 13.9616 123.736 29.5632 99.5183 31.6589C82.2868 33.2889 68.3149 27.0016 66.4519 17.6873C65.7533 14.1944 65.7537 6.04384 83.9167 4.41382C93.2309 3.71526 100.682 5.34542 101.614 9.07104C101.847 10.4681 101.148 11.6324 98.82 12.7966C95.7929 11.1666 89.2725 10.2352 83.9167 10.7009C78.0954 11.1666 73.2058 13.0297 73.904 16.988C74.8355 20.9467 80.4243 23.2759 90.4372 22.3445C114.887 20.2486 114.654 3.71587 150.514 0.455811Z"/>
    </mask>
    <path d="M256 56.1091C251.575 81.4906 243.659 105.242 232.249 125.967C223.633 139.007 215.017 150.417 206.401 162.759C202.908 169.977 200.579 177.196 199.182 184.415H198.484C192.663 192.332 184.745 197.222 175.43 200.249C162.856 204.44 149.117 206.536 136.077 205.838H134.68C121.64 206.536 108.833 204.673 96.4909 200.249C86.4781 197.454 78.3276 192.332 72.739 184.415C71.109 177.196 68.5477 169.977 64.822 162.759C56.2062 150.417 47.5901 139.007 38.9743 125.967C35.0326 118.727 31.4254 111.153 28.237 103.303C26.8512 104.594 25.5408 106.014 24.3044 107.571C18.7159 115.721 16.6198 125.036 18.7155 135.049C20.1127 145.76 25.9348 154.608 34.5505 160.895C42.4676 167.182 50.3847 170.21 59.6989 170.21C55.2747 171.607 50.3849 173.936 45.9607 174.635C34.5506 176.73 24.5377 174.634 15.2234 167.416C6.37469 160.197 0.786195 150.883 0.087616 139.472C-0.610902 128.062 2.88156 116.42 10.7986 106.407C15.0044 101.088 19.6044 96.9505 24.6687 93.8923C20.402 81.8026 17.1545 69.1441 15.2234 56.1091C18.9493 61.9305 29.6607 67.5195 49.6862 72.6423C72.0408 77.5324 100.683 81.2576 135.844 81.2576C170.307 81.2576 198.949 77.7652 221.303 72.6423C240.631 68.2181 251.342 62.6291 256 56.1091ZM33.3864 18.8513C29.195 21.8785 27.7976 24.4404 27.7976 27.4675C27.798 34.686 38.7424 40.2744 59.4665 45.3972C78.7938 49.5887 105.572 52.6159 135.611 52.616C166.814 52.616 192.429 49.5891 212.455 45.1648C234.111 40.2747 244.823 34.4528 244.823 27.2341C244.823 24.6728 243.193 22.3442 241.097 20.947C250.411 24.6726 255.534 29.5626 255.534 34.6853C255.534 41.6711 244.124 49.123 220.373 54.7117C198.018 60.3003 170.075 63.3279 134.913 63.3279C100.45 63.3279 71.8083 60.3002 49.4538 54.7117C25.7021 49.123 14.0587 41.904 13.3601 34.6853C13.3604 28.1655 20.3466 23.9741 33.3864 18.8513ZM150.514 0.455811C178.457 -2.10561 194.059 6.50953 196.155 16.988C197.785 25.1381 191.032 33.0553 170.773 34.6853C152.843 36.3153 142.365 31.4258 141.433 26.5359C140.968 23.9744 142.364 20.2486 150.98 19.3171C151.912 23.2757 156.802 27.4668 168.445 26.3025C176.828 25.6039 183.813 22.5768 182.882 17.9197C181.95 13.0298 173.102 10.2359 159.131 11.4001C130.722 13.9616 123.736 29.5632 99.5183 31.6589C82.2868 33.2889 68.3149 27.0016 66.4519 17.6873C65.7533 14.1944 65.7537 6.04384 83.9167 4.41382C93.2309 3.71526 100.682 5.34542 101.614 9.07104C101.847 10.4681 101.148 11.6324 98.82 12.7966C95.7929 11.1666 89.2725 10.2352 83.9167 10.7009C78.0954 11.1666 73.2058 13.0297 73.904 16.988C74.8355 20.9467 80.4243 23.2759 90.4372 22.3445C114.887 20.2486 114.654 3.71587 150.514 0.455811Z" fill="#28334C"/>
    <path d="M256 56.1091L259.94 56.796L252.745 53.7841L256 56.1091ZM232.249 125.967L235.586 128.172L235.675 128.037L235.753 127.896L232.249 125.967ZM206.401 162.759L203.121 160.469L202.939 160.73L202.8 161.016L206.401 162.759ZM199.182 184.415V188.415H202.482L203.109 185.175L199.182 184.415ZM198.484 184.415V180.415H196.46L195.261 182.045L198.484 184.415ZM175.43 200.249L174.194 196.445L174.18 196.449L174.165 196.454L175.43 200.249ZM136.077 205.838L136.291 201.843L136.184 201.838H136.077V205.838ZM134.68 205.838V201.838H134.573L134.466 201.843L134.68 205.838ZM96.4909 200.249L97.8408 196.483L97.705 196.435L97.5661 196.396L96.4909 200.249ZM72.739 184.415L68.8372 185.296L69.0124 186.072L69.4711 186.722L72.739 184.415ZM64.822 162.759L68.3765 160.924L68.2543 160.687L68.1018 160.469L64.822 162.759ZM38.9743 125.967L35.4613 127.879L35.5429 128.029L35.637 128.172L38.9743 125.967ZM28.237 103.303L31.943 101.798L29.7588 96.4211L25.5112 100.376L28.237 103.303ZM24.3044 107.571L21.172 105.084L21.0848 105.193L21.0055 105.309L24.3044 107.571ZM18.7155 135.049L22.6819 134.531L22.6621 134.379L22.6307 134.229L18.7155 135.049ZM34.5505 160.895L37.038 157.763L36.9742 157.712L36.9084 157.664L34.5505 160.895ZM59.6989 170.21L60.9035 174.024L59.699 166.21L59.6989 170.21ZM45.9607 174.635L45.3368 170.683L45.2873 170.691L45.2381 170.7L45.9607 174.635ZM15.2234 167.416L12.6949 170.515L12.7336 170.547L12.7731 170.577L15.2234 167.416ZM0.087616 139.472L-3.90491 139.717L-3.90491 139.717L0.087616 139.472ZM10.7986 106.407L7.66089 103.926L7.66087 103.926L10.7986 106.407ZM24.6687 93.8923L26.7364 97.3164L29.5247 95.6327L28.4407 92.5611L24.6687 93.8923ZM15.2234 56.1091L18.5924 53.9528L11.2665 56.6953L15.2234 56.1091ZM49.6862 72.6423L48.6949 76.5175L48.7629 76.5349L48.8315 76.5499L49.6862 72.6423ZM135.844 81.2576V85.2576V81.2576ZM221.303 72.6423L220.411 68.7432L220.41 68.7434L221.303 72.6423ZM33.3864 18.8513L35.7284 22.094L31.9238 15.1283L33.3864 18.8513ZM27.7976 27.4675H23.7976V27.4678L27.7976 27.4675ZM59.4665 45.3972L58.5066 49.2803L58.5625 49.2942L58.6188 49.3063L59.4665 45.3972ZM135.611 52.616V56.616V52.616ZM212.455 45.1648L213.318 49.0706L213.327 49.0686L213.336 49.0666L212.455 45.1648ZM244.823 27.2341H248.823V27.234L244.823 27.2341ZM241.097 20.947L242.583 17.2331L238.878 24.2751L241.097 20.947ZM255.534 34.6853H259.534V34.6851L255.534 34.6853ZM220.373 54.7117L219.457 50.818L219.43 50.8244L219.403 50.8311L220.373 54.7117ZM134.913 63.3279V67.3279V63.3279ZM49.4538 54.7117L50.424 50.8311L50.397 50.8244L50.37 50.818L49.4538 54.7117ZM13.3601 34.6853L9.36008 34.6851L9.36007 34.8783L9.37868 35.0706L13.3601 34.6853ZM150.514 0.455811L150.877 4.43938L150.88 4.43911L150.514 0.455811ZM196.155 16.988L200.077 16.2036L200.077 16.2034L196.155 16.988ZM170.773 34.6853L170.452 30.6982L170.432 30.6999L170.411 30.7017L170.773 34.6853ZM141.433 26.5359L137.498 27.2514L137.501 27.268L137.504 27.2846L141.433 26.5359ZM150.98 19.3171L154.874 18.4009L154.064 14.9604L150.55 15.3403L150.98 19.3171ZM168.445 26.3025L168.113 22.3163L168.08 22.3191L168.047 22.3223L168.445 26.3025ZM182.882 17.9197L178.952 18.6684L178.956 18.6863L178.959 18.7041L182.882 17.9197ZM159.131 11.4001L158.798 7.41396L158.785 7.41509L158.771 7.41631L159.131 11.4001ZM99.5183 31.6589L99.1734 27.6738L99.1575 27.6752L99.1416 27.6767L99.5183 31.6589ZM66.4519 17.6873L62.5296 18.4717L62.5296 18.4718L66.4519 17.6873ZM83.9167 4.41382L83.6176 0.425021L83.5884 0.427211L83.5592 0.42983L83.9167 4.41382ZM101.614 9.07104L105.56 8.41345L105.533 8.25577L105.494 8.1007L101.614 9.07104ZM98.82 12.7966L96.9236 16.3185L98.7519 17.3029L100.609 16.3743L98.82 12.7966ZM83.9167 10.7009L84.2357 14.6882L84.2495 14.6871L84.2632 14.6859L83.9167 10.7009ZM73.904 16.988L69.9648 17.6829L69.9845 17.7942L70.0104 17.9042L73.904 16.988ZM90.4372 22.3445L90.0956 18.3591L90.0812 18.3603L90.0667 18.3617L90.4372 22.3445ZM256 56.1091L252.059 55.4222C247.699 80.4329 239.912 103.754 228.745 124.037L232.249 125.967L235.753 127.896C247.405 106.731 255.451 82.5482 259.94 56.796L256 56.1091ZM232.249 125.967L228.911 123.762C220.319 136.767 211.86 147.951 203.121 160.469L206.401 162.759L209.681 165.048C218.174 152.883 226.947 141.247 235.586 128.172L232.249 125.967ZM206.401 162.759L202.8 161.016C199.153 168.554 196.717 176.104 195.255 183.655L199.182 184.415L203.109 185.175C204.442 178.288 206.663 171.4 210.002 164.501L206.401 162.759ZM199.182 184.415V180.415H198.484V184.415V188.415H199.182V184.415ZM198.484 184.415L195.261 182.045C190.048 189.136 182.914 193.611 174.194 196.445L175.43 200.249L176.667 204.053C186.576 200.833 195.277 195.528 201.707 186.784L198.484 184.415ZM175.43 200.249L174.165 196.454C162.016 200.504 148.779 202.512 136.291 201.843L136.077 205.838L135.863 209.832C149.455 210.56 163.696 208.377 176.695 204.044L175.43 200.249ZM136.077 205.838V201.838H134.68V205.838V209.838H136.077V205.838ZM134.68 205.838L134.466 201.843C121.956 202.514 109.68 200.728 97.8408 196.483L96.4909 200.249L95.1411 204.014C107.985 208.618 121.324 210.559 134.894 209.832L134.68 205.838ZM96.4909 200.249L97.5661 196.396C88.2525 193.797 80.9618 189.128 76.0069 182.108L72.739 184.415L69.4711 186.722C75.6934 195.536 84.7037 201.112 95.4157 204.102L96.4909 200.249ZM72.739 184.415L76.6407 183.534C74.9373 175.99 72.2609 168.45 68.3765 160.924L64.822 162.759L61.2675 164.593C64.8346 171.504 67.2806 178.402 68.8372 185.296L72.739 184.415ZM64.822 162.759L68.1018 160.469C59.3632 147.951 50.9044 136.767 42.3117 123.762L38.9743 125.967L35.637 128.172C44.2758 141.247 53.0492 152.883 61.5422 165.048L64.822 162.759ZM38.9743 125.967L42.4874 124.054C38.6156 116.942 35.0732 109.504 31.943 101.798L28.237 103.303L24.5311 104.809C27.7776 112.801 31.4496 120.511 35.4613 127.879L38.9743 125.967ZM28.237 103.303L25.5112 100.376C23.9737 101.808 22.5281 103.376 21.172 105.084L24.3044 107.571L27.4369 110.059C28.5535 108.652 29.7287 107.38 30.9628 106.231L28.237 103.303ZM24.3044 107.571L21.0055 105.309C14.828 114.318 12.471 124.739 14.8004 135.868L18.7155 135.049L22.6307 134.229C20.7686 125.332 22.6037 117.124 27.6033 109.833L24.3044 107.571ZM18.7155 135.049L14.7491 135.566C16.3049 147.493 22.8023 157.274 32.1926 164.126L34.5505 160.895L36.9084 157.664C29.0674 151.942 23.9206 144.027 22.6819 134.531L18.7155 135.049ZM34.5505 160.895L32.063 164.028C40.5888 170.798 49.3628 174.21 59.6989 174.21L59.6989 170.21L59.699 166.21C51.4066 166.21 44.3465 163.567 37.038 157.763L34.5505 160.895ZM59.6989 170.21L58.4944 166.395C56.1813 167.126 53.6158 168.144 51.4664 168.924C49.1758 169.754 47.1487 170.397 45.3368 170.683L45.9607 174.635L46.5845 178.586C49.1969 178.173 51.8268 177.303 54.1932 176.445C56.7009 175.535 58.7924 174.691 60.9035 174.024L59.6989 170.21ZM45.9607 174.635L45.2381 170.7C34.865 172.606 26.0243 170.726 17.6736 164.254L15.2234 167.416L12.7731 170.577C23.0511 178.543 34.2362 180.855 46.6833 178.569L45.9607 174.635ZM15.2234 167.416L17.7519 164.316C9.60991 157.674 4.69894 149.335 4.08014 139.228L0.087616 139.472L-3.90491 139.717C-3.12655 152.43 3.13946 162.72 12.6949 170.515L15.2234 167.416ZM0.087616 139.472L4.08014 139.228C3.44306 128.822 6.61685 118.145 13.9362 108.888L10.7986 106.407L7.66087 103.926C-0.853728 114.695 -4.66486 127.303 -3.90491 139.717L0.087616 139.472ZM10.7986 106.407L13.9362 108.888C17.8835 103.896 22.1326 100.097 26.7364 97.3164L24.6687 93.8923L22.6009 90.4682C17.0762 93.8045 12.1253 98.2799 7.66089 103.926L10.7986 106.407ZM24.6687 93.8923L28.4407 92.5611C24.2533 80.6961 21.0711 68.2868 19.1802 55.5229L15.2234 56.1091L11.2665 56.6953C13.2378 70.0013 16.5507 82.9092 20.8967 95.2235L24.6687 93.8923ZM15.2234 56.1091L11.8543 58.2655C14.2962 62.0805 18.6731 65.3358 24.5832 68.2301C30.5677 71.1607 38.5395 73.9196 48.6949 76.5175L49.6862 72.6423L50.6776 68.7671C40.8075 66.2422 33.4108 63.6452 28.1017 61.0453C22.7182 58.409 19.8765 55.9591 18.5924 53.9528L15.2234 56.1091ZM49.6862 72.6423L48.8315 76.5499C71.4699 81.5021 100.398 85.2576 135.844 85.2576V81.2576V77.2576C100.967 77.2576 72.6117 73.5627 50.541 68.7347L49.6862 72.6423ZM135.844 81.2576V85.2576C170.57 85.2576 199.514 81.7393 222.197 76.5413L221.303 72.6423L220.41 68.7434C198.384 73.791 170.045 77.2576 135.844 77.2576V81.2576ZM221.303 72.6423L222.196 76.5415C241.599 72.0998 253.663 66.2618 259.255 58.4342L256 56.1091L252.745 53.7841C249.022 58.9964 239.662 64.3363 220.411 68.7432L221.303 72.6423ZM33.3864 18.8513L31.0445 15.6086C28.7157 17.2905 26.8756 19.0436 25.6282 21.0394C24.3275 23.1207 23.7976 25.2633 23.7976 27.4675H27.7976H31.7976C31.7976 26.6446 31.9664 25.9927 32.4122 25.2794C32.9114 24.4807 33.8657 23.4393 35.7284 22.094L33.3864 18.8513ZM27.7976 27.4675L23.7976 27.4678C23.7979 33.3938 28.3188 37.6247 33.9279 40.7203C39.7258 43.9202 48.0567 46.6972 58.5066 49.2803L59.4665 45.3972L60.4264 41.5141C50.1522 38.9744 42.6488 36.3958 37.7934 33.7162C32.7491 30.9323 31.7976 28.7597 31.7976 27.4673L27.7976 27.4675ZM59.4665 45.3972L58.6188 49.3063C78.2628 53.5665 105.329 56.6159 135.611 56.616V52.616V48.616C105.815 48.6159 79.3248 45.6108 60.3143 41.4881L59.4665 45.3972ZM135.611 52.616V56.616C167.067 56.616 192.974 53.5651 213.318 49.0706L212.455 45.1648L211.592 41.259C191.884 45.613 166.561 48.616 135.611 48.616V52.616ZM212.455 45.1648L213.336 49.0666C224.277 46.5959 232.808 43.8194 238.691 40.5755C244.416 37.4192 248.823 33.1239 248.823 27.2341H244.823H240.823C240.823 28.563 239.874 30.788 234.829 33.5698C229.942 36.2641 222.288 38.8437 211.574 41.263L212.455 45.1648ZM244.823 27.2341L248.823 27.234C248.823 22.9677 246.179 19.5276 243.316 17.6189L241.097 20.947L238.878 24.2751C240.207 25.1607 240.823 26.378 240.823 27.2342L244.823 27.2341ZM241.097 20.947L239.612 24.6609C243.99 26.412 247.099 28.3308 249.05 30.1888C250.988 32.0348 251.534 33.5594 251.534 34.6856L255.534 34.6853L259.534 34.6851C259.534 30.6885 257.518 27.2068 254.567 24.3958C251.628 21.5967 247.519 19.2076 242.583 17.2331L241.097 20.947ZM255.534 34.6853H251.534C251.534 35.9007 250.423 38.4758 244.827 41.7774C239.498 44.9217 231.146 48.0674 219.457 50.818L220.373 54.7117L221.289 58.6053C233.351 55.7673 242.579 52.3927 248.893 48.6674C254.94 45.0994 259.534 40.4557 259.534 34.6853H255.534ZM220.373 54.7117L219.403 50.8311C197.462 56.3163 169.865 59.3279 134.913 59.3279V63.3279V67.3279C170.284 67.3279 198.575 64.2843 221.343 58.5922L220.373 54.7117ZM134.913 63.3279V59.3279C100.656 59.3279 72.3619 56.3155 50.424 50.8311L49.4538 54.7117L48.4837 58.5922C71.2547 64.2849 100.244 67.3279 134.913 67.3279V63.3279ZM49.4538 54.7117L50.37 50.818C38.6683 48.0647 30.2378 44.9708 24.7448 41.8357C19.0411 38.5804 17.4934 35.8702 17.3415 34.3L13.3601 34.6853L9.37868 35.0706C9.9253 40.7191 14.5487 45.2277 20.7793 48.7837C27.2206 52.4601 36.4877 55.77 48.5377 58.6053L49.4538 54.7117ZM13.3601 34.6853L17.3601 34.6855C17.3602 33.1664 18.0538 31.5422 20.8656 29.4577C23.7791 27.2978 28.3461 25.129 34.8491 22.5743L33.3864 18.8513L31.9238 15.1283C25.3869 17.6964 19.9409 20.1847 16.1013 23.0311C12.1599 25.953 9.36034 29.6844 9.36008 34.6851L13.3601 34.6853ZM150.514 0.455811L150.88 4.43911C164.426 3.19734 174.622 4.70473 181.508 7.53215C188.441 10.3789 191.54 14.3122 192.233 17.7726L196.155 16.988L200.077 16.2034C198.673 9.18539 192.924 3.57184 184.547 0.131749C176.122 -3.32767 164.545 -4.84714 150.149 -3.52749L150.514 0.455811ZM196.155 16.988L192.233 17.7725C192.742 20.3191 192.073 22.8472 189.179 25.1538C186.051 27.6473 180.214 29.9128 170.452 30.6982L170.773 34.6853L171.094 38.6724C181.591 37.8278 189.26 35.3197 194.166 31.4096C199.306 27.3126 201.198 21.8071 200.077 16.2036L196.155 16.988ZM170.773 34.6853L170.411 30.7017C161.837 31.4812 155.306 30.6729 150.974 29.2542C148.802 28.5431 147.313 27.7216 146.396 26.9842C145.453 26.226 145.359 25.7664 145.363 25.7872L141.433 26.5359L137.504 27.2846C137.974 29.7503 139.539 31.7356 141.383 33.2186C143.253 34.7223 145.678 35.9381 148.484 36.8569C154.106 38.698 161.779 39.5194 171.135 38.6689L170.773 34.6853ZM141.433 26.5359L145.369 25.8203C145.334 25.6285 145.326 25.4469 145.63 25.1436C146.085 24.6884 147.543 23.712 151.41 23.294L150.98 19.3171L150.55 15.3403C145.801 15.8537 142.253 17.2059 139.973 19.4869C137.54 21.9198 137.067 24.8819 137.498 27.2514L141.433 26.5359ZM150.98 19.3171L147.087 20.2333C148.708 27.1243 156.401 31.5268 168.843 30.2826L168.445 26.3025L168.047 22.3223C157.203 23.4067 155.115 19.4271 154.874 18.4009L150.98 19.3171ZM168.445 26.3025L168.777 30.2887C173.264 29.9148 177.701 28.9028 181.037 27.126C184.225 25.4276 187.803 22.1301 186.804 17.1352L182.882 17.9197L178.959 18.7041C178.962 18.7155 179 18.6872 178.905 18.8252C178.738 19.0675 178.282 19.5294 177.276 20.0651C175.256 21.1407 172.009 21.9916 168.113 22.3163L168.445 26.3025ZM182.882 17.9197L186.811 17.171C185.898 12.3814 181.425 9.8092 176.995 8.54352C172.288 7.19889 166.055 6.80924 158.798 7.41396L159.131 11.4001L159.463 15.3863C166.177 14.8268 171.354 15.252 174.797 16.2357C178.517 17.2984 178.933 18.5681 178.952 18.6684L182.882 17.9197ZM159.131 11.4001L158.771 7.41631C143.745 8.77114 134.318 13.6263 125.856 18.1823C117.49 22.6872 110.359 26.7059 99.1734 27.6738L99.5183 31.6589L99.8631 35.644C112.895 34.5163 121.366 29.6863 129.649 25.2261C137.837 20.817 146.107 16.5906 159.49 15.384L159.131 11.4001ZM99.5183 31.6589L99.1416 27.6767C91.0653 28.4407 83.9582 27.3233 78.8041 25.1035C73.5541 22.8423 70.9451 19.7573 70.3742 16.9027L66.4519 17.6873L62.5296 18.4718C63.8216 24.9316 69.1301 29.6474 75.6396 32.451C82.2451 35.2959 90.7397 36.5072 99.895 35.6412L99.5183 31.6589ZM66.4519 17.6873L70.3742 16.9028C70.1323 15.6935 70.1138 14.2259 71.2115 12.8794C72.3996 11.422 75.6409 9.1726 84.2743 8.39781L83.9167 4.41382L83.5592 0.42983C74.0295 1.28506 68.1891 3.92589 65.0109 7.82451C61.7423 11.834 62.0728 16.1881 62.5296 18.4717L66.4519 17.6873ZM83.9167 4.41382L84.2159 8.40262C88.6193 8.07236 92.3495 8.31662 94.9387 8.96392C96.2373 9.28859 97.0578 9.66802 97.51 9.97674C97.9428 10.2723 97.8064 10.333 97.7335 10.0414L101.614 9.07104L105.494 8.1007C104.956 5.94631 103.539 4.40613 102.021 3.37C100.523 2.34706 98.724 1.66406 96.879 1.2028C93.181 0.278259 88.5283 0.056719 83.6176 0.425021L83.9167 4.41382ZM101.614 9.07104L97.6684 9.72864C97.6575 9.663 97.6398 9.48483 97.6912 9.24379C97.7444 8.99476 97.8443 8.80565 97.9224 8.69633C97.9891 8.60299 98.0008 8.62191 97.8572 8.73068C97.7122 8.84044 97.4548 9.00712 97.0311 9.21898L98.82 12.7966L100.609 16.3743C102.032 15.6629 103.45 14.7209 104.432 13.346C105.542 11.7923 105.834 10.0583 105.56 8.41345L101.614 9.07104ZM98.82 12.7966L100.716 9.27475C98.5889 8.12917 95.656 7.40559 92.8012 7.00223C89.8596 6.58659 86.5847 6.45384 83.5702 6.71596L83.9167 10.7009L84.2632 14.6859C86.6045 14.4823 89.2676 14.5824 91.682 14.9235C94.1832 15.277 96.024 15.8341 96.9236 16.3185L98.82 12.7966ZM83.9167 10.7009L83.5977 6.71367C80.4701 6.96388 77.1355 7.60917 74.5462 9.02529C73.2214 9.74982 71.8698 10.797 70.9418 12.3161C69.9615 13.9208 69.6281 15.7741 69.9648 17.6829L73.904 16.988L77.8432 16.2932C77.8308 16.2228 77.8468 16.3588 77.7688 16.4864C77.7432 16.5283 77.8469 16.3384 78.3849 16.0442C79.5211 15.4228 81.542 14.9037 84.2357 14.6882L83.9167 10.7009ZM73.904 16.988L70.0104 17.9042C70.8977 21.6756 73.9128 24.0488 77.4523 25.2785C80.9625 26.498 85.4972 26.8213 90.8077 26.3273L90.4372 22.3445L90.0667 18.3617C85.3643 18.7991 82.0981 18.4235 80.0778 17.7216C78.0868 17.0299 77.8417 16.2591 77.7977 16.0719L73.904 16.988ZM90.4372 22.3445L90.7789 26.3299C104.138 25.1846 110.996 19.9295 118.358 15.2027C125.447 10.6514 133.743 5.99696 150.877 4.43938L150.514 0.455811L150.152 -3.52776C131.425 -1.82528 121.908 3.41664 114.036 8.47071C106.437 13.3493 101.186 17.4084 90.0956 18.3591L90.4372 22.3445Z" fill="#EBEBEB" fill-opacity="0.2" mask="url(#path-1-inside-1_17_97)"/>
  </g>
  <defs>
    <clipPath id="clip0_17_97">
      <rect width="256" height="206" fill="#EBEBEB"/>
    </clipPath>
  </defs>
</svg>
