<svg xmlns="http://www.w3.org/2000/svg" width="256" height="206" fill="none" viewBox="0 0 256 206"><g clip-path="url(#a)"><mask id="b" fill="#ebebeb"><path d="M256 56.11c-4.425 25.381-12.341 49.133-23.751 69.857-8.616 13.04-17.232 24.451-25.848 36.792-3.493 7.219-5.822 14.438-7.219 21.656h-.698c-5.821 7.918-13.739 12.807-23.054 15.834-12.574 4.192-26.313 6.288-39.353 5.589h-1.397c-13.04.699-25.848-1.164-38.19-5.589-10.012-2.794-18.162-7.916-23.751-15.834-1.63-7.218-4.191-14.437-7.917-21.656-8.616-12.341-17.232-23.752-25.848-36.792a223 223 0 0 1-10.737-22.663 39 39 0 0 0-3.933 4.268c-5.588 8.15-7.684 17.464-5.588 27.477 1.397 10.712 7.219 19.56 15.834 25.847 7.918 6.287 15.835 9.314 25.149 9.314-4.424 1.397-9.314 3.726-13.738 4.425-11.41 2.096-21.423 0-30.738-7.219C6.375 160.198.786 150.883.088 139.473s2.794-23.053 10.71-33.065c4.206-5.32 8.806-9.457 13.87-12.515-4.266-12.09-7.514-24.748-9.445-37.783 3.726 5.821 14.438 11.41 34.463 16.533 22.355 4.89 50.997 8.615 86.158 8.615 34.463 0 63.105-3.492 85.459-8.615C240.631 68.219 251.342 62.63 256 56.11M33.386 18.852c-4.191 3.027-5.588 5.589-5.588 8.616 0 7.219 10.944 12.807 31.669 17.93 19.327 4.191 46.105 7.218 76.144 7.218 31.203 0 56.818-3.026 76.844-7.45 21.656-4.89 32.368-10.713 32.368-17.931 0-2.562-1.63-4.89-3.726-6.287 9.314 3.725 14.437 8.615 14.437 13.738 0 6.986-11.41 14.438-35.161 20.026-22.355 5.589-50.298 8.616-85.46 8.616-34.463 0-63.105-3.027-85.46-8.616-23.75-5.588-35.394-12.808-36.093-20.026 0-6.52 6.987-10.711 20.026-15.834M150.514.456c27.943-2.561 43.545 6.054 45.641 16.533 1.63 8.15-5.123 16.067-25.382 17.697-17.93 1.63-28.408-3.26-29.34-8.15-.465-2.561.931-6.287 9.547-7.218.932 3.958 5.822 8.15 17.465 6.985 8.383-.699 15.368-3.726 14.437-8.383-.932-4.89-9.78-7.684-23.751-6.52-28.409 2.562-35.395 18.164-59.613 20.26-17.231 1.63-31.203-4.658-33.066-13.972-.699-3.493-.698-11.644 17.465-13.274 9.314-.698 16.765.932 17.697 4.658.233 1.397-.466 2.561-2.794 3.725-3.027-1.63-9.547-2.561-14.903-2.096-5.822.466-10.711 2.33-10.013 6.288.931 3.958 6.52 6.287 16.533 5.356 24.45-2.096 24.217-18.629 60.077-21.889"/></mask><path fill="#28334c" d="M256 56.11c-4.425 25.381-12.341 49.133-23.751 69.857-8.616 13.04-17.232 24.451-25.848 36.792-3.493 7.219-5.822 14.438-7.219 21.656h-.698c-5.821 7.918-13.739 12.807-23.054 15.834-12.574 4.192-26.313 6.288-39.353 5.589h-1.397c-13.04.699-25.848-1.164-38.19-5.589-10.012-2.794-18.162-7.916-23.751-15.834-1.63-7.218-4.191-14.437-7.917-21.656-8.616-12.341-17.232-23.752-25.848-36.792a223 223 0 0 1-10.737-22.663 39 39 0 0 0-3.933 4.268c-5.588 8.15-7.684 17.464-5.588 27.477 1.397 10.712 7.219 19.56 15.834 25.847 7.918 6.287 15.835 9.314 25.149 9.314-4.424 1.397-9.314 3.726-13.738 4.425-11.41 2.096-21.423 0-30.738-7.219C6.375 160.198.786 150.883.088 139.473s2.794-23.053 10.71-33.065c4.206-5.32 8.806-9.457 13.87-12.515-4.266-12.09-7.514-24.748-9.445-37.783 3.726 5.821 14.438 11.41 34.463 16.533 22.355 4.89 50.997 8.615 86.158 8.615 34.463 0 63.105-3.492 85.459-8.615C240.631 68.219 251.342 62.63 256 56.11M33.386 18.852c-4.191 3.027-5.588 5.589-5.588 8.616 0 7.219 10.944 12.807 31.669 17.93 19.327 4.191 46.105 7.218 76.144 7.218 31.203 0 56.818-3.026 76.844-7.45 21.656-4.89 32.368-10.713 32.368-17.931 0-2.562-1.63-4.89-3.726-6.287 9.314 3.725 14.437 8.615 14.437 13.738 0 6.986-11.41 14.438-35.161 20.026-22.355 5.589-50.298 8.616-85.46 8.616-34.463 0-63.105-3.027-85.46-8.616-23.75-5.588-35.394-12.808-36.093-20.026 0-6.52 6.987-10.711 20.026-15.834M150.514.456c27.943-2.561 43.545 6.054 45.641 16.533 1.63 8.15-5.123 16.067-25.382 17.697-17.93 1.63-28.408-3.26-29.34-8.15-.465-2.561.931-6.287 9.547-7.218.932 3.958 5.822 8.15 17.465 6.985 8.383-.699 15.368-3.726 14.437-8.383-.932-4.89-9.78-7.684-23.751-6.52-28.409 2.562-35.395 18.164-59.613 20.26-17.231 1.63-31.203-4.658-33.066-13.972-.699-3.493-.698-11.644 17.465-13.274 9.314-.698 16.765.932 17.697 4.658.233 1.397-.466 2.561-2.794 3.725-3.027-1.63-9.547-2.561-14.903-2.096-5.822.466-10.711 2.33-10.013 6.288.931 3.958 6.52 6.287 16.533 5.356 24.45-2.096 24.217-18.629 60.077-21.889"/><path fill="#ebebeb" fill-opacity=".2" d="m256 56.11 3.94.687-7.195-3.012zm-23.751 69.857 3.337 2.205.089-.134.078-.142zm-25.848 36.792-3.28-2.29-.182.261-.139.287zm-7.219 21.656v4h3.3l.627-3.24zm-.698 0v-4h-2.024l-1.199 1.631zm-23.054 15.834-1.236-3.804-.014.005-.015.005zm-39.353 5.589.214-3.994-.107-.006h-.107zm-1.397 0v-4h-.107l-.107.006zm-38.19-5.589 1.35-3.765-.135-.049-.139-.038zM72.74 184.415l-3.902.881.175.776.46.65zm-7.917-21.656 3.554-1.834-.122-.237-.152-.219zm-25.848-36.792-3.513 1.913.082.15.094.142zm-10.737-22.663 3.706-1.505-2.184-5.377-4.248 3.955zm-3.933 4.268-3.132-2.488-.087.11-.08.116zm-5.588 27.477 3.966-.517-.02-.152-.031-.15zm15.834 25.847 2.488-3.133-.064-.05-.066-.048zM59.7 170.21l1.205 3.815-1.205-7.815zm-13.738 4.425-.624-3.951-.05.008-.049.009zm-30.738-7.219-2.528 3.1.039.031.04.031zM.088 139.473l-3.993.244zm10.71-33.065-3.137-2.481zm13.87-12.515 2.068 3.424 2.789-1.684-1.084-3.071zM15.224 56.11l3.37-2.157-7.326 2.743zm34.463 16.533-.991 3.875.068.017.069.016zm86.158 8.615v4zm85.459-8.615-.892-3.9-.001.001zM33.386 18.852l2.342 3.243-3.804-6.966zm-5.588 8.616h-4zm31.669 17.93-.96 3.883.056.014.056.012zm76.144 7.218v4zm76.844-7.45.863 3.905.009-.002.009-.002zm32.368-17.931h4zm-3.726-6.287 1.486-3.714-3.705 7.042zm14.437 13.738h4zm-35.161 20.026-.916-3.893-.027.006-.027.007zm-85.46 8.616v4zm-85.46-8.616.971-3.88-.027-.007-.027-.006zM13.36 34.686h-4v.193l.019.192zM150.514.456l.363 3.984h.003zm45.641 16.533 3.922-.785zm-25.382 17.697-.321-3.987-.02.001-.021.002zm-29.34-8.15-3.935.716.003.017.003.016zm9.547-7.218 3.894-.917-.81-3.44-3.514.38zm17.465 6.985-.332-3.986-.033.003-.033.003zm14.437-8.383-3.93.749.004.018.003.018zm-23.751-6.52-.333-3.985h-.013l-.014.002zM99.518 31.66l-.345-3.986-.016.002-.015.001zM66.452 17.688l-3.922.784zM83.917 4.414l-.3-3.988-.029.002-.029.002zm17.697 4.658 3.946-.658-.027-.158-.039-.155zm-2.794 3.725-1.896 3.522 1.828.985 1.857-.93zm-14.903-2.096.319 3.988.013-.001.014-.002zM73.904 16.99l-3.94.694.02.112.026.11zm16.533 5.356-.341-3.985h-.015l-.014.002zM256 56.11l-3.941-.687c-4.36 25.01-12.147 48.331-23.314 68.615l3.504 1.929 3.504 1.929c11.652-21.165 19.698-45.347 24.187-71.1zm-23.751 69.857-3.338-2.205c-8.592 13.005-17.051 24.19-25.79 36.707l3.28 2.29 3.28 2.29c8.493-12.166 17.266-23.802 25.905-36.877zm-25.848 36.792-3.601-1.742c-3.647 7.538-6.083 15.088-7.545 22.638l3.927.76 3.927.76c1.333-6.887 3.554-13.775 6.893-20.674zm-7.219 21.656v-4h-.698v8h.698zm-.698 0-3.223-2.369c-5.213 7.09-12.347 11.565-21.067 14.399l1.236 3.804 1.237 3.804c9.909-3.22 18.61-8.524 25.04-17.268zm-23.054 15.834-1.265-3.794c-12.149 4.049-25.386 6.058-37.874 5.389l-.214 3.994-.214 3.994c13.592.729 27.833-1.455 40.832-5.788zm-39.353 5.589v-4h-1.397v8h1.397zm-1.397 0-.214-3.994c-12.51.67-24.786-1.116-36.625-5.36l-1.35 3.765-1.35 3.766c12.844 4.604 26.183 6.544 39.753 5.817zm-38.19-5.589 1.076-3.852c-9.314-2.6-16.604-7.269-21.56-14.288l-3.267 2.306-3.268 2.307c6.222 8.815 15.233 14.391 25.945 17.38zM72.74 184.415l3.902-.881c-1.704-7.543-4.38-15.083-8.265-22.609l-3.554 1.834-3.555 1.835c3.568 6.911 6.014 13.809 7.57 20.702zm-7.917-21.656 3.28-2.29c-8.739-12.517-17.198-23.702-25.79-36.707l-3.338 2.205-3.337 2.205c8.639 13.075 17.412 24.711 25.905 36.877zm-25.848-36.792 3.513-1.913a219 219 0 0 1-10.544-22.255l-3.706 1.505-3.706 1.505a227 227 0 0 0 10.93 23.071zm-10.737-22.663-2.726-2.927a42.6 42.6 0 0 0-4.339 4.707l3.132 2.488 3.133 2.487a35 35 0 0 1 3.526-3.828zm-3.933 4.268-3.298-2.262c-6.178 9.008-8.535 19.429-6.206 30.559l3.915-.82 3.916-.819c-1.862-8.897-.027-17.105 4.972-24.396zm-5.588 27.477-3.967.518c1.556 11.926 8.053 21.708 17.444 28.56l2.358-3.231 2.357-3.231c-7.84-5.722-12.987-13.637-14.226-23.133zm15.834 25.847-2.487 3.132c8.526 6.771 17.3 10.182 27.636 10.182v-8c-8.292 0-15.352-2.643-22.661-8.447zM59.7 170.21l-1.205-3.814c-2.313.73-4.878 1.749-7.028 2.528-2.29.831-4.317 1.474-6.13 1.76l.625 3.951.624 3.951c2.612-.412 5.242-1.283 7.608-2.141 2.508-.909 4.6-1.754 6.71-2.42zm-13.738 4.425-.723-3.934c-10.373 1.905-19.214.025-27.564-6.446l-2.45 3.161-2.45 3.162c10.277 7.965 21.462 10.277 33.91 7.991zm-30.738-7.219 2.529-3.099C9.61 157.675 4.699 149.336 4.08 139.229l-3.992.244-3.993.244c.778 12.714 7.044 23.004 16.6 30.799zM.088 139.473l3.992-.244c-.637-10.407 2.537-21.084 9.856-30.341l-3.137-2.48-3.138-2.481c-8.515 10.768-12.326 23.377-11.566 35.79zm10.71-33.065 3.138 2.48c3.948-4.992 8.197-8.791 12.8-11.571l-2.067-3.424-2.068-3.424c-5.525 3.336-10.476 7.811-14.94 13.458zm13.87-12.515 3.773-1.331c-4.188-11.865-7.37-24.275-9.26-37.038l-3.958.586-3.956.586c1.97 13.306 5.284 26.214 9.63 38.528zM15.224 56.11l-3.369 2.156c2.442 3.815 6.82 7.07 12.73 9.965 5.984 2.93 13.955 5.69 24.11 8.287l.992-3.875.992-3.875c-9.87-2.525-17.267-5.122-22.576-7.722-5.384-2.636-8.225-5.086-9.51-7.093zm34.463 16.533-.855 3.907c22.639 4.953 51.567 8.708 87.013 8.708v-8c-34.877 0-63.232-3.695-85.303-8.523zm86.158 8.615v4c34.726 0 63.67-3.518 86.353-8.716l-.894-3.9-.893-3.898c-22.026 5.048-50.365 8.514-84.566 8.514zm85.459-8.615.893 3.899c19.403-4.442 31.467-10.28 37.059-18.107L256 56.11l-3.255-2.325c-3.723 5.212-13.083 10.552-32.334 14.959zM33.386 18.852l-2.342-3.243c-2.328 1.682-4.168 3.435-5.416 5.431-1.3 2.081-1.83 4.224-1.83 6.428h8c0-.823.168-1.475.614-2.188.5-.799 1.454-1.84 3.316-3.185zm-5.588 8.616h-4c0 5.926 4.52 10.157 10.13 13.253 5.798 3.2 14.129 5.977 24.579 8.56l.96-3.883.96-3.883c-10.275-2.54-17.778-5.119-22.634-7.798-5.044-2.784-5.995-4.957-5.995-6.25zm31.669 17.93-.848 3.909c19.644 4.26 46.71 7.31 76.992 7.31v-8c-29.796 0-56.286-3.006-75.297-7.128zm76.144 7.218v4c31.456 0 57.363-3.05 77.707-7.545l-.863-3.906-.863-3.905c-19.708 4.354-45.031 7.357-75.981 7.357zm76.844-7.45.881 3.901c10.941-2.47 19.472-5.247 25.355-8.49 5.725-3.157 10.132-7.453 10.132-13.342h-8c0 1.329-.949 3.554-5.994 6.335-4.887 2.695-12.541 5.274-23.255 7.694zm32.368-17.931h4c0-4.267-2.644-7.707-5.507-9.615l-2.219 3.328-2.219 3.328c1.329.885 1.945 2.103 1.945 2.959zm-3.726-6.287-1.485 3.714c4.378 1.75 7.487 3.67 9.438 5.527 1.938 1.846 2.484 3.37 2.484 4.497h8c0-3.997-2.016-7.479-4.967-10.29-2.939-2.799-7.048-5.188-11.984-7.162zm14.437 13.738h-4c0 1.215-1.111 3.79-6.707 7.092-5.329 3.144-13.681 6.29-25.37 9.04l.916 3.894.916 3.894c12.062-2.838 21.29-6.213 27.604-9.938 6.047-3.568 10.641-8.212 10.641-13.982zm-35.161 20.026-.97-3.88c-21.941 5.485-49.538 8.496-84.49 8.496v8c35.371 0 63.662-3.043 86.43-8.735zm-85.46 8.616v-4c-34.257 0-62.551-3.012-84.489-8.496l-.97 3.88-.97 3.88c22.77 5.694 51.76 8.736 86.429 8.736zm-85.46-8.616.917-3.893c-11.702-2.754-20.132-5.848-25.625-8.983-5.704-3.255-7.252-5.965-7.404-7.535l-3.98.385-3.982.385c.546 5.649 5.17 10.157 11.4 13.713 6.442 3.677 15.709 6.987 27.759 9.822zM13.36 34.686h4c0-1.519.694-3.143 3.506-5.228 2.913-2.16 7.48-4.328 13.983-6.883l-1.463-3.723-1.462-3.723c-6.537 2.568-11.983 5.056-15.823 7.903-3.941 2.922-6.74 6.653-6.74 11.654zM150.514.456l.366 3.984c13.546-1.242 23.742.265 30.628 3.093 6.933 2.847 10.032 6.78 10.725 10.24l3.922-.784 3.922-.785c-1.404-7.018-7.153-12.632-15.53-16.072-8.425-3.46-20.002-4.979-34.398-3.659zm45.641 16.533-3.922.784c.509 2.547-.16 5.075-3.054 7.381-3.128 2.494-8.965 4.76-18.727 5.545l.321 3.987.321 3.987c10.497-.845 18.166-3.353 23.072-7.263 5.14-4.097 7.032-9.602 5.911-15.206zm-25.382 17.697-.362-3.984c-8.574.78-15.105-.029-19.437-1.447-2.172-.711-3.661-1.533-4.578-2.27-.943-.758-1.037-1.218-1.033-1.197l-3.93.748-3.929.75c.47 2.465 2.035 4.45 3.879 5.933 1.87 1.504 4.295 2.72 7.101 3.639 5.622 1.84 13.295 2.662 22.651 1.811zm-29.34-8.15 3.936-.715c-.035-.192-.043-.373.261-.677.455-.455 1.913-1.431 5.78-1.85l-.43-3.976-.43-3.977c-4.749.513-8.297 1.865-10.577 4.147-2.433 2.432-2.906 5.394-2.475 7.764zm9.547-7.218-3.893.916c1.621 6.89 9.314 11.293 21.756 10.05l-.398-3.981-.398-3.98c-10.844 1.084-12.932-2.895-13.173-3.922zm17.465 6.985.332 3.986c4.487-.374 8.924-1.386 12.26-3.163 3.188-1.698 6.766-4.995 5.767-9.99l-3.922.784-3.923.785c.003.011.041-.017-.054.12-.167.243-.623.705-1.629 1.24-2.02 1.076-5.267 1.927-9.163 2.252zm14.437-8.383 3.929-.748c-.913-4.79-5.386-7.362-9.816-8.628-4.707-1.345-10.94-1.734-18.197-1.13l.333 3.987.332 3.986c6.714-.56 11.891-.134 15.334.85 3.72 1.062 4.136 2.332 4.155 2.432zm-23.751-6.52-.36-3.983c-15.026 1.355-24.454 6.21-32.915 10.766-8.366 4.505-15.497 8.523-26.683 9.491l.345 3.986.345 3.985c13.032-1.128 21.503-5.958 29.786-10.418 8.188-4.41 16.458-8.636 29.841-9.843zM99.518 31.66l-.376-3.983c-8.077.764-15.184-.353-20.338-2.573-5.25-2.261-7.859-5.346-8.43-8.2l-3.922.784-3.922.784c1.292 6.46 6.6 11.176 13.11 13.98 6.605 2.845 15.1 4.056 24.255 3.19zM66.452 17.688l3.922-.785c-.242-1.209-.26-2.676.838-4.023 1.188-1.457 4.429-3.707 13.062-4.482l-.357-3.984L83.559.43c-9.53.856-15.37 3.496-18.548 7.395-3.269 4.01-2.938 8.364-2.481 10.647zM83.917 4.414l.299 3.99c4.403-.331 8.134-.087 10.723.56 1.298.325 2.119.705 2.571 1.013.433.296.296.357.224.065l3.88-.97 3.88-.97c-.538-2.155-1.955-3.695-3.473-4.731-1.498-1.023-3.297-1.706-5.142-2.168C93.181.28 88.529.057 83.618.426zm17.697 4.658-3.946.657a1.4 1.4 0 0 1 .023-.485c.053-.249.153-.438.231-.547.067-.093.079-.075-.065.034a5.4 5.4 0 0 1-.826.489l1.789 3.577 1.789 3.578c1.423-.712 2.841-1.653 3.823-3.028 1.11-1.554 1.402-3.288 1.128-4.933zm-2.794 3.725 1.896-3.522c-2.127-1.145-5.06-1.869-7.915-2.272-2.941-.416-6.216-.549-9.23-.286l.346 3.984.346 3.985c2.341-.203 5.005-.103 7.419.238 2.501.354 4.342.91 5.242 1.395zm-14.903-2.096-.32-3.987c-3.127.25-6.462.896-9.05 2.312-1.326.724-2.677 1.771-3.605 3.29-.98 1.605-1.314 3.459-.977 5.367l3.939-.694 3.94-.695c-.013-.07.003.065-.075.193-.026.042.078-.148.616-.442 1.136-.622 3.157-1.14 5.85-1.356zM73.904 16.99l-3.894.916c.888 3.771 3.903 6.144 7.442 7.374 3.51 1.22 8.045 1.543 13.356 1.049l-.37-3.983-.371-3.983c-4.703.438-7.969.062-9.99-.64-1.99-.692-2.235-1.462-2.28-1.65zm16.533 5.356.342 3.985c13.359-1.145 20.217-6.4 27.579-11.127 7.089-4.551 15.385-9.205 32.519-10.763l-.363-3.984-.362-3.983c-18.727 1.702-28.244 6.944-36.116 11.998-7.599 4.879-12.85 8.938-23.94 9.889z" mask="url(#b)"/></g><defs><clipPath id="a"><path fill="#ebebeb" d="M0 0h256v206H0z"/></clipPath></defs></svg>
