<svg xmlns="http://www.w3.org/2000/svg" width="260" height="256" fill="none" viewBox="0 0 260 256"><path fill="#ff4438" d="M258.302 128c0 70.656-57.242 128-128 128-14.336 0-28.16-2.355-40.96-6.758h-.205a130 130 0 0 1-19.66-8.602c-.41-.205-.922-.512-1.434-.819-16.18-9.011-30.208-21.402-41.063-36.25-6.246-8.601-11.57-17.92-15.564-27.955C5.579 160.87 2.302 144.794 2.302 128c0-70.656 57.344-128 128-128s128 57.344 128 128"/><path fill="#ebebeb" d="M198.915 134.928c-10.642 12.495-22.095 26.92-45.116 26.92-20.476 0-28.111-17.038-28.69-30.781 4.512 8.859 13.304 16.129 26.955 15.788 26.375-.795 44.422-23.171 44.422-43.503 0-24.306-19.319-41.912-52.867-41.912-24.062 0-53.793 8.632-73.343 22.15-.231 13.97 8.098 32.142 11.106 30.099 16.89-11.359 30.309-18.742 43.381-22.49-19.32 20.217-65.592 67.128-71.26 75.419.578 7.61 10.641 27.942 15.5 27.942 1.505 0 2.778-.795 4.28-2.158 13.883-14.766 25.335-27.942 35.399-40.663 1.505 18.628 11.222 41.458 38.523 41.458 24.409 0 48.703-16.584 59.692-53.953 1.389-4.543-4.626-8.177-7.982-4.316m-27.879-30.213c0 11.813-12.378 17.606-23.599 17.606-6.016 0-10.643-1.477-14.346-3.408 6.826-9.541 13.42-19.422 20.592-29.872 12.61 1.931 17.353 8.519 17.353 15.674"/></svg>
