<svg xmlns="http://www.w3.org/2000/svg" width="256" height="90" fill="none" viewBox="0 0 256 90"><g clip-path="url(#a)"><path fill="#ebebeb" d="M37.718 5.612h17.193v57.349a26.03 26.03 0 0 1-3.534 13.791A24 24 0 0 1 41.5 85.79a32.04 32.04 0 0 1-14.658 3.19 33.2 33.2 0 0 1-13.473-2.65 21.47 21.47 0 0 1-9.542-8.032Q.293 72.918.293 64.728h17.308c.053 3.26.998 5.804 2.836 7.607a9.9 9.9 0 0 0 7.289 2.712q9.913 0 9.992-12.086zM93.061 89.06q-9.356 0-16.16-3.993a27 27 0 0 1-10.504-11.168 35.8 35.8 0 0 1-3.693-16.645 36 36 0 0 1 3.693-16.725 27.04 27.04 0 0 1 10.505-11.167 31.4 31.4 0 0 1 16.16-3.994 31.43 31.43 0 0 1 16.167 3.994 27 27 0 0 1 10.496 11.167 36 36 0 0 1 3.702 16.725 35.8 35.8 0 0 1-3.702 16.645 26.95 26.95 0 0 1-10.496 11.168q-6.811 4.003-16.168 3.993m19.561-83.447v9.277H73.509V5.612zM93.185 75.807a10.6 10.6 0 0 0 9.474-5.054l.147-.247q3.269-5.301 3.269-13.368 0-7.797-3.079-13.035l-.216-.359a10.6 10.6 0 0 0-9.622-5.3 10.73 10.73 0 0 0-9.572 5.058l-.146.242q-3.296 5.301-3.296 13.394 0 7.823 3.08 13.013l.216.355a10.74 10.74 0 0 0 9.411 5.308zM164.89 26.17v12.855h-11.609v29.916q0 3.534 1.608 4.77a6.63 6.63 0 0 0 3.899 1.253l.28-.007c.806.002 1.61-.072 2.403-.22l1.846-.336 2.651 12.731-.659.192c-.787.222-1.759.473-2.955.745a30 30 0 0 1-5.028.642l-.635.02q-9.321.415-14.958-4.028-5.508-4.343-5.558-13.142l.001-32.536h-8.437V26.171h8.437v-14.78h17.105v14.78zm26.24 62.853q-8.835 0-14.657-4.62-5.823-4.622-5.823-13.775 0-6.9 3.252-10.84a18.7 18.7 0 0 1 8.534-5.77 48.4 48.4 0 0 1 11.345-2.385 87 87 0 0 0 11.485-1.687q3.464-.884 3.455-3.853v-.247a7.44 7.44 0 0 0-2.386-5.902q-2.403-2.076-6.767-2.085a12.17 12.17 0 0 0-7.351 2.006 9.45 9.45 0 0 0-3.614 5.098l-15.823-1.282a21.1 21.1 0 0 1 8.773-13.376q7.015-4.93 18.094-4.939a37.3 37.3 0 0 1 12.846 2.174 21.37 21.37 0 0 1 9.666 6.768q3.675 4.602 3.675 11.944v41.605h-16.221v-8.553h-.477a17.83 17.83 0 0 1-6.732 7.006q-4.48 2.713-11.274 2.713m4.895-11.813a13.25 13.25 0 0 0 9.241-3.269 10.55 10.55 0 0 0 3.614-7.817v-6.858a10 10 0 0 1-3.11 1.202 50 50 0 0 1-4.506.883l-1.539.237c-.986.155-1.895.303-2.737.426a16.95 16.95 0 0 0-7.245 2.536 6.24 6.24 0 0 0-2.748 5.495 6.13 6.13 0 0 0 2.545 5.301 11 11 0 0 0 6.114 1.87zm50.796-58.99-.304-.001a9.2 9.2 0 0 1-6.511-2.553 8.07 8.07 0 0 1-2.73-6.123 8.04 8.04 0 0 1 2.73-6.105 9.72 9.72 0 0 1 13.058 0 8.04 8.04 0 0 1 2.73 6.105 8.08 8.08 0 0 1-2.523 5.933l-.207.19a9.23 9.23 0 0 1-6.243 2.554m-8.865 69.637V26.17h17.104v61.687z"/></g><defs><clipPath id="a"><path fill="#ebebeb" d="M0 .587h256v88.826H0z"/></clipPath></defs></svg>
