<svg width="203" height="256" viewBox="0 0 203 256" fill="none" xmlns="http://www.w3.org/2000/svg">
<path d="M101.179 56.2568C156.763 56.2568 201.878 100.5 202.353 155.255H202.357V250.765H160.927V230.277C144.452 244.988 124.158 255.998 101.179 255.998C45.2994 255.998 0.000222802 211.285 0 156.128C0.000170348 100.971 45.2994 56.257 101.179 56.2568ZM101.179 92.0195C67.9402 92.0196 40.9952 120.723 40.9951 156.129C40.9953 191.535 67.9402 220.237 101.179 220.237C134.417 220.237 161.363 191.535 161.363 156.129C161.363 120.723 134.417 92.0195 101.179 92.0195ZM198.433 33.1445H3.9248V0H198.433V33.1445Z" fill="#4FBCF4"/>
</svg>
