<svg xmlns="http://www.w3.org/2000/svg" width="256" height="206" fill="none" viewBox="0 0 256 206">
  <g clip-path="url(#a)">
    <mask id="b" fill="#ebebeb">
      <path d="M256 56.109c-4.425 25.381-12.341 49.133-23.751 69.857-8.616 13.04-17.232 24.451-25.848 36.792-3.493 7.219-5.822 14.438-7.219 21.657h-.698c-5.821 7.917-13.739 12.806-23.054 15.834-12.574 4.191-26.313 6.287-39.353 5.588h-1.397c-13.04.699-25.847-1.164-38.19-5.588-10.012-2.795-18.162-7.917-23.751-15.834-1.63-7.219-4.191-14.438-7.917-21.657-8.616-12.341-17.232-23.752-25.848-36.792a223 223 0 0 1-10.737-22.663 39 39 0 0 0-3.933 4.268c-5.588 8.15-7.684 17.464-5.588 27.477 1.397 10.712 7.219 19.56 15.834 25.847 7.918 6.287 15.835 9.314 25.149 9.314-4.424 1.398-9.314 3.727-13.738 4.425-11.41 2.096-21.423 0-30.738-7.218C6.375 160.197.786 150.882.088 139.472s2.794-23.052 10.71-33.065c4.206-5.319 8.806-9.457 13.87-12.515-4.266-12.09-7.514-24.748-9.445-37.783 3.726 5.821 14.438 11.41 34.463 16.533 22.355 4.89 50.997 8.615 86.158 8.615 34.463 0 63.105-3.492 85.459-8.615C240.631 68.218 251.342 62.63 256 56.11M33.386 18.85c-4.191 3.027-5.588 5.59-5.588 8.616 0 7.219 10.944 12.807 31.669 17.93 19.327 4.191 46.105 7.219 76.144 7.219 31.203 0 56.818-3.027 76.844-7.451 21.656-4.89 32.368-10.712 32.368-17.931 0-2.561-1.63-4.89-3.726-6.287 9.314 3.725 14.437 8.615 14.437 13.738 0 6.986-11.41 14.438-35.161 20.026-22.355 5.59-50.298 8.617-85.46 8.617-34.463 0-63.105-3.028-85.46-8.617-23.75-5.588-35.394-12.807-36.093-20.026 0-6.52 6.987-10.711 20.026-15.834M150.514.456c27.943-2.562 43.545 6.053 45.641 16.532 1.63 8.15-5.123 16.067-25.382 17.697-17.93 1.63-28.408-3.26-29.34-8.15-.465-2.56.931-6.287 9.547-7.218.932 3.959 5.822 8.15 17.465 6.985 8.383-.698 15.368-3.725 14.437-8.383-.932-4.89-9.78-7.683-23.751-6.52-28.409 2.562-35.395 18.164-59.613 20.26C82.287 33.289 68.315 27 66.452 17.687c-.699-3.493-.698-11.643 17.465-13.273 9.314-.699 16.765.931 17.697 4.657.233 1.397-.466 2.561-2.794 3.725-3.027-1.63-9.547-2.561-14.903-2.095-5.822.465-10.711 2.328-10.013 6.287.931 3.958 6.52 6.288 16.533 5.356 24.45-2.096 24.217-18.628 60.077-21.888"/>
    </mask>
    <path fill="#28334c" d="M256 56.109c-4.425 25.381-12.341 49.133-23.751 69.857-8.616 13.04-17.232 24.451-25.848 36.792-3.493 7.219-5.822 14.438-7.219 21.657h-.698c-5.821 7.917-13.739 12.806-23.054 15.834-12.574 4.191-26.313 6.287-39.353 5.588h-1.397c-13.04.699-25.847-1.164-38.19-5.588-10.012-2.795-18.162-7.917-23.751-15.834-1.63-7.219-4.191-14.438-7.917-21.657-8.616-12.341-17.232-23.752-25.848-36.792a223 223 0 0 1-10.737-22.663 39 39 0 0 0-3.933 4.268c-5.588 8.15-7.684 17.464-5.588 27.477 1.397 10.712 7.219 19.56 15.834 25.847 7.918 6.287 15.835 9.314 25.149 9.314-4.424 1.398-9.314 3.727-13.738 4.425-11.41 2.096-21.423 0-30.738-7.218C6.375 160.197.786 150.882.088 139.472s2.794-23.052 10.71-33.065c4.206-5.319 8.806-9.457 13.87-12.515-4.266-12.09-7.514-24.748-9.445-37.783 3.726 5.821 14.438 11.41 34.463 16.533 22.355 4.89 50.997 8.615 86.158 8.615 34.463 0 63.105-3.492 85.459-8.615C240.631 68.218 251.342 62.63 256 56.11M33.386 18.85c-4.191 3.027-5.588 5.59-5.588 8.616 0 7.219 10.944 12.807 31.669 17.93 19.327 4.191 46.105 7.219 76.144 7.219 31.203 0 56.818-3.027 76.844-7.451 21.656-4.89 32.368-10.712 32.368-17.931 0-2.561-1.63-4.89-3.726-6.287 9.314 3.725 14.437 8.615 14.437 13.738 0 6.986-11.41 14.438-35.161 20.026-22.355 5.59-50.298 8.617-85.46 8.617-34.463 0-63.105-3.028-85.46-8.617-23.75-5.588-35.394-12.807-36.093-20.026 0-6.52 6.987-10.711 20.026-15.834M150.514.456c27.943-2.562 43.545 6.053 45.641 16.532 1.63 8.15-5.123 16.067-25.382 17.697-17.93 1.63-28.408-3.26-29.34-8.15-.465-2.56.931-6.287 9.547-7.218.932 3.959 5.822 8.15 17.465 6.985 8.383-.698 15.368-3.725 14.437-8.383-.932-4.89-9.78-7.683-23.751-6.52-28.409 2.562-35.395 18.164-59.613 20.26C82.287 33.289 68.315 27 66.452 17.687c-.699-3.493-.698-11.643 17.465-13.273 9.314-.699 16.765.931 17.697 4.657.233 1.397-.466 2.561-2.794 3.725-3.027-1.63-9.547-2.561-14.903-2.095-5.822.465-10.711 2.328-10.013 6.287.931 3.958 6.52 6.288 16.533 5.356 24.45-2.096 24.217-18.628 60.077-21.888"/>
    <path fill="#ebebeb" fill-opacity=".2" d="m256 56.109 3.94.687-7.195-3.012zm-23.751 69.857 3.337 2.205.089-.134.078-.142zm-25.848 36.792-3.28-2.289-.182.261-.139.286zm-7.219 21.657v4h3.3l.627-3.24zm-.698 0v-4h-2.024l-1.199 1.63zm-23.054 15.834-1.236-3.805-.014.005-.015.005zm-39.353 5.588.214-3.994-.107-.006h-.107zm-1.397 0v-4h-.107l-.107.006zm-38.19-5.588 1.35-3.766-.135-.048-.139-.039zm-23.75-15.834-3.902.881.175.775.46.65zm-7.917-21.657 3.554-1.834-.122-.237-.152-.218zm-25.848-36.792-3.513 1.913.082.15.094.142zm-10.737-22.663 3.706-1.505-2.184-5.377-4.248 3.955zm-3.933 4.268-3.132-2.488-.087.11-.08.116zm-5.588 27.477 3.966-.517-.02-.152-.031-.15zm15.834 25.847 2.488-3.132-.064-.051-.066-.048zm25.149 9.314 1.205 3.815-1.205-7.815zm-13.738 4.425-.624-3.951-.05.008-.049.009zm-30.738-7.218-2.528 3.099.039.032.04.03zM.088 139.472l-3.993.245zm10.71-33.065-3.137-2.481zm13.87-12.515 2.068 3.424 2.789-1.684-1.084-3.071zM15.224 56.11l3.37-2.156-7.326 2.742zm34.463 16.533-.991 3.875.068.018.069.015zm86.158 8.615v4zm85.459-8.615-.892-3.899h-.001zM33.386 18.852l2.342 3.242-3.804-6.966zm-5.588 8.615h-4zm31.669 17.93-.96 3.883.056.014.056.012zm76.144 7.219v4zm76.844-7.451.863 3.905.009-.002.009-.002zm32.368-17.931h4zm-3.726-6.287 1.486-3.714-3.705 7.042zm14.437 13.738h4zm-35.161 20.026-.916-3.893-.027.006-.027.007zm-85.46 8.617v4zm-85.46-8.617.971-3.88-.027-.007-.027-.006zM13.36 34.685h-4v.193l.019.192zM150.514.455l.363 3.984h.003zm45.641 16.533 3.922-.785zm-25.382 17.697-.321-3.987-.02.002-.021.002zm-29.34-8.15-3.935.716.003.017.003.016zm9.547-7.218 3.894-.916-.81-3.44-3.514.38zm17.465 6.985-.332-3.986-.033.003-.033.003zm14.437-8.383-3.93.75.004.017.003.018zm-23.751-6.52-.333-3.985h-.013l-.014.002zM99.518 31.66l-.345-3.985-.016.001-.015.002zM66.452 17.687l-3.922.784zM83.917 4.414l-.3-3.99-.029.003-.029.003zm17.697 4.657 3.946-.658-.027-.157-.039-.156zm-2.794 3.725-1.896 3.522 1.828.985 1.857-.929zm-14.903-2.095.319 3.987.013-.001.014-.001zm-10.013 6.287-3.94.695.02.11.026.11zm16.533 5.356-.341-3.985-.015.001-.014.001zM256 56.11l-3.941-.687c-4.36 25.01-12.147 48.331-23.314 68.615l3.504 1.929 3.504 1.929c11.652-21.165 19.698-45.347 24.187-71.1zm-23.751 69.857-3.338-2.205c-8.592 13.005-17.051 24.19-25.79 36.708l3.28 2.289 3.28 2.29c8.493-12.166 17.266-23.802 25.905-36.877zm-25.848 36.792-3.601-1.742c-3.647 7.538-6.083 15.088-7.545 22.638l3.927.761 3.927.76c1.333-6.887 3.554-13.775 6.893-20.674zm-7.219 21.657v-4h-.698v8h.698zm-.698 0-3.223-2.37c-5.213 7.09-12.347 11.565-21.067 14.399l1.236 3.805 1.237 3.804c9.909-3.221 18.61-8.525 25.04-17.269zM175.43 200.25l-1.265-3.795c-12.149 4.05-25.386 6.058-37.874 5.389l-.214 3.994-.214 3.995c13.592.728 27.833-1.456 40.832-5.789zm-39.353 5.588v-4h-1.397v8h1.397zm-1.397 0-.214-3.994c-12.51.67-24.786-1.116-36.625-5.36l-1.35 3.766-1.35 3.765c12.844 4.604 26.183 6.545 39.753 5.818zm-38.19-5.588 1.076-3.853c-9.314-2.599-16.604-7.269-21.56-14.288l-3.267 2.307-3.268 2.306c6.222 8.815 15.233 14.391 25.945 17.38zm-23.75-15.835 3.902-.881c-1.704-7.544-4.38-15.084-8.265-22.61l-3.554 1.834-3.555 1.835c3.568 6.911 6.014 13.809 7.57 20.703zm-7.917-21.657 3.28-2.289c-8.739-12.518-17.198-23.703-25.79-36.708l-3.338 2.205-3.337 2.205c8.639 13.075 17.412 24.711 25.905 36.877zm-25.848-36.792 3.513-1.912a219 219 0 0 1-10.544-22.256l-3.706 1.505-3.706 1.506a227 227 0 0 0 10.93 23.07zm-10.737-22.663-2.726-2.927a43 43 0 0 0-4.339 4.707l3.132 2.488 3.133 2.487a35 35 0 0 1 3.526-3.827zm-3.933 4.268-3.298-2.262c-6.178 9.009-8.535 19.43-6.206 30.559l3.915-.82 3.916-.819c-1.862-8.897-.027-17.105 4.972-24.396zm-5.588 27.477-3.967.518c1.556 11.927 8.053 21.708 17.444 28.56l2.358-3.231 2.357-3.231c-7.84-5.722-12.987-13.637-14.226-23.133zm15.834 25.847-2.487 3.132c8.526 6.771 17.3 10.182 27.636 10.182v-8c-8.292 0-15.352-2.643-22.661-8.446zm25.149 9.314-1.205-3.814c-2.313.731-4.878 1.749-7.028 2.528-2.29.831-4.317 1.474-6.13 1.76l.625 3.951.624 3.951c2.612-.412 5.242-1.283 7.608-2.141 2.508-.909 4.6-1.754 6.71-2.42zm-13.738 4.425-.723-3.934c-10.373 1.905-19.214.026-27.564-6.446l-2.45 3.162-2.45 3.161c10.277 7.966 21.462 10.278 33.91 7.991zm-30.738-7.218 2.529-3.1C9.61 157.674 4.699 149.335 4.08 139.228l-3.992.244-3.993.245c.778 12.713 7.044 23.003 16.6 30.798zM.088 139.472l3.992-.244c-.637-10.407 2.537-21.083 9.856-30.34l-3.137-2.481-3.138-2.481c-8.515 10.768-12.326 23.377-11.566 35.791zm10.71-33.065 3.138 2.481c3.948-4.992 8.197-8.792 12.8-11.572l-2.067-3.424-2.068-3.424c-5.525 3.336-10.476 7.812-14.94 13.458zm13.87-12.515 3.773-1.331c-4.188-11.865-7.37-24.275-9.26-37.038l-3.958.586-3.956.586c1.97 13.306 5.284 26.214 9.63 38.528zM15.224 56.11l-3.369 2.156c2.442 3.815 6.82 7.07 12.73 9.965 5.984 2.93 13.955 5.69 24.11 8.287l.992-3.875.992-3.875c-9.87-2.525-17.267-5.122-22.576-7.722-5.384-2.636-8.225-5.086-9.51-7.092zm34.463 16.533-.855 3.908c22.639 4.952 51.567 8.707 87.013 8.707v-8c-34.877 0-63.232-3.695-85.303-8.523zm86.158 8.615v4c34.726 0 63.67-3.518 86.353-8.716l-.894-3.899-.893-3.899c-22.026 5.048-50.365 8.514-84.566 8.514zm85.459-8.615.893 3.9c19.403-4.442 31.467-10.28 37.059-18.108L256 56.109l-3.255-2.325c-3.723 5.212-13.083 10.552-32.334 14.959zM33.386 18.852l-2.342-3.244c-2.328 1.682-4.168 3.435-5.416 5.431-1.3 2.081-1.83 4.224-1.83 6.428h8c0-.823.168-1.474.614-2.188.5-.799 1.454-1.84 3.316-3.185zm-5.588 8.615h-4c0 5.927 4.52 10.157 10.13 13.253 5.798 3.2 14.129 5.977 24.579 8.56l.96-3.883.96-3.883c-10.275-2.54-17.778-5.118-22.634-7.798-5.044-2.784-5.995-4.957-5.995-6.249zm31.669 17.93-.848 3.91c19.644 4.26 46.71 7.309 76.992 7.309v-8c-29.796 0-56.286-3.005-75.297-7.128zm76.144 7.219v4c31.456 0 57.363-3.051 77.707-7.546l-.863-3.905-.863-3.906c-19.708 4.354-45.031 7.357-75.981 7.357zm76.844-7.451.881 3.901c10.941-2.47 19.472-5.247 25.355-8.49 5.725-3.157 10.132-7.452 10.132-13.342h-8c0 1.329-.949 3.554-5.994 6.336-4.887 2.694-12.541 5.273-23.255 7.693zm32.368-17.931h4c0-4.267-2.644-7.707-5.507-9.615l-2.219 3.328-2.219 3.328c1.329.886 1.945 2.103 1.945 2.959zm-3.726-6.287-1.485 3.714c4.378 1.75 7.487 3.67 9.438 5.528 1.938 1.846 2.484 3.37 2.484 4.496h8c0-3.997-2.016-7.479-4.967-10.29-2.939-2.799-7.048-5.188-11.984-7.162zm14.437 13.738h-4c0 1.215-1.111 3.79-6.707 7.092-5.329 3.145-13.681 6.29-25.37 9.04l.916 3.894.916 3.894c12.062-2.838 21.29-6.212 27.604-9.938 6.047-3.568 10.641-8.212 10.641-13.982zm-35.161 20.026-.97-3.88c-21.941 5.485-49.538 8.497-84.49 8.497v8c35.371 0 63.662-3.044 86.43-8.736zm-85.46 8.617v-4c-34.257 0-62.551-3.013-84.489-8.497l-.97 3.88-.97 3.881c22.77 5.693 51.76 8.736 86.429 8.736zm-85.46-8.617.917-3.893c-11.702-2.754-20.132-5.847-25.625-8.982-5.704-3.256-7.252-5.966-7.404-7.536l-3.98.385-3.982.385c.546 5.649 5.17 10.157 11.4 13.713 6.442 3.677 15.709 6.987 27.759 9.822zM13.36 34.685h4c0-1.519.694-3.143 3.506-5.228 2.913-2.16 7.48-4.328 13.983-6.883l-1.463-3.723-1.462-3.723c-6.537 2.568-11.983 5.056-15.823 7.903-3.941 2.922-6.74 6.653-6.74 11.654zM150.514.455l.366 3.984c13.546-1.242 23.742.265 30.628 3.093 6.933 2.847 10.032 6.78 10.725 10.24l3.922-.784 3.922-.785c-1.404-7.018-7.153-12.631-15.53-16.071-8.425-3.46-20.002-4.98-34.398-3.66zm45.641 16.533-3.922.784c.509 2.547-.16 5.075-3.054 7.382-3.128 2.493-8.965 4.759-18.727 5.544l.321 3.987.321 3.987c10.497-.844 18.166-3.352 23.072-7.263 5.14-4.097 7.032-9.602 5.911-15.206zm-25.382 17.697-.362-3.984c-8.574.78-15.105-.028-19.437-1.447-2.172-.711-3.661-1.533-4.578-2.27-.943-.758-1.037-1.218-1.033-1.197l-3.93.749-3.929.748c.47 2.466 2.035 4.451 3.879 5.934 1.87 1.504 4.295 2.72 7.101 3.639 5.622 1.84 13.295 2.662 22.651 1.812zm-29.34-8.15 3.936-.715c-.035-.192-.043-.373.261-.677.455-.455 1.913-1.431 5.78-1.85l-.43-3.976-.43-3.977c-4.749.514-8.297 1.866-10.577 4.147-2.433 2.433-2.906 5.395-2.475 7.764zm9.547-7.218-3.893.916c1.621 6.891 9.314 11.294 21.756 10.05l-.398-3.98-.398-3.98c-10.844 1.084-12.932-2.896-13.173-3.922zm17.465 6.985.332 3.986c4.487-.373 8.924-1.385 12.26-3.162 3.188-1.699 6.766-4.996 5.767-9.991l-3.922.784-3.923.785c.003.011.041-.017-.054.12-.167.243-.623.705-1.629 1.24-2.02 1.076-5.267 1.927-9.163 2.252zm14.437-8.383 3.929-.748c-.913-4.79-5.386-7.362-9.816-8.628-4.707-1.344-10.94-1.734-18.197-1.13l.333 3.987.332 3.986c6.714-.56 11.891-.134 15.334.85 3.72 1.062 4.136 2.332 4.155 2.432zm-23.751-6.52-.36-3.983c-15.026 1.355-24.453 6.21-32.915 10.766-8.366 4.505-15.497 8.524-26.683 9.492l.345 3.985.345 3.985c13.032-1.128 21.503-5.958 29.786-10.418 8.188-4.41 16.458-8.636 29.841-9.842zM99.518 31.66l-.376-3.982c-8.077.763-15.184-.354-20.338-2.574-5.25-2.261-7.859-5.346-8.43-8.2l-3.922.784-3.922.784c1.292 6.46 6.6 11.176 13.11 13.98 6.605 2.845 15.1 4.056 24.255 3.19zM66.452 17.687l3.922-.785c-.242-1.209-.26-2.676.838-4.023 1.188-1.457 4.429-3.707 13.062-4.481l-.357-3.984L83.559.43c-9.53.855-15.37 3.496-18.548 7.394-3.269 4.01-2.938 8.364-2.481 10.647zM83.917 4.414l.299 3.988c4.403-.33 8.134-.086 10.723.562 1.298.324 2.119.704 2.571 1.012.433.296.296.357.224.065l3.88-.97 3.88-.97c-.538-2.155-1.955-3.695-3.473-4.731-1.498-1.023-3.297-1.706-5.142-2.167C93.181.278 88.529.056 83.618.425zm17.697 4.657-3.946.657a1.4 1.4 0 0 1 .023-.484c.053-.25.153-.439.231-.548.067-.093.079-.074-.065.034-.145.11-.402.277-.826.489l1.789 3.577 1.789 3.578c1.423-.711 2.841-1.653 3.823-3.028 1.11-1.554 1.402-3.288 1.128-4.933zm-2.794 3.725 1.896-3.521c-2.127-1.146-5.06-1.87-7.915-2.273-2.941-.416-6.216-.548-9.23-.286l.346 3.985.346 3.985c2.341-.204 5.005-.104 7.419.237 2.501.354 4.342.91 5.242 1.395zm-14.903-2.095-.32-3.988c-3.127.25-6.462.896-9.05 2.312-1.326.725-2.677 1.772-3.605 3.29-.98 1.606-1.314 3.459-.977 5.368l3.939-.695 3.94-.695c-.013-.07.003.066-.075.193-.026.042.078-.148.616-.442 1.136-.622 3.157-1.14 5.85-1.356zm-10.013 6.287-3.894.916c.888 3.771 3.903 6.145 7.442 7.374 3.51 1.22 8.045 1.543 13.356 1.049l-.37-3.983-.371-3.983c-4.703.438-7.969.062-9.99-.64-1.99-.691-2.235-1.462-2.28-1.65zm16.533 5.356.342 3.986c13.359-1.146 20.217-6.4 27.579-11.127 7.089-4.552 15.385-9.206 32.519-10.764l-.363-3.983-.362-3.984c-18.727 1.702-28.244 6.944-36.116 11.998-7.599 4.879-12.85 8.938-23.94 9.889z" mask="url(#b)"/>
  </g>
  <defs>
    <clipPath id="a">
      <path fill="#ebebeb" d="M0 0h256v206H0z"/>
    </clipPath>
  </defs>
</svg>
