<svg xmlns="http://www.w3.org/2000/svg" width="261" height="256" fill="none" viewBox="0 0 261 256"><path fill="#00618a" d="M239.371 197.795c-14.168-.386-24.989.933-34.24 4.833-2.628 1.109-6.823 1.14-7.252 4.433 1.445 1.513 1.67 3.776 2.818 5.638 2.209 3.572 5.937 8.365 9.265 10.876 3.638 2.746 7.385 5.679 11.283 8.056 6.933 4.226 14.672 6.641 21.347 10.875 3.935 2.499 7.843 5.643 11.681 8.459 1.899 1.393 3.173 3.559 5.64 4.432v-.4c-1.296-1.652-1.631-3.919-2.82-5.643l-5.238-5.237c-5.119-6.797-11.621-12.767-18.531-17.724-5.51-3.956-17.841-9.299-20.139-15.709l-.403-.403c3.907-.441 8.479-1.853 12.086-2.822 6.057-1.622 11.471-1.203 17.724-2.818l8.458-2.417v-1.611c-3.16-3.243-5.415-7.537-8.861-10.473-9.022-7.68-18.865-15.354-29.002-21.754-5.624-3.547-12.571-5.853-18.531-8.861-2.005-1.013-5.527-1.54-6.85-3.224-3.132-3.989-4.835-9.047-7.249-13.694-5.056-9.739-10.021-20.373-14.501-30.619-3.055-6.987-5.052-13.874-8.863-20.142-18.291-30.074-37.979-48.223-68.478-66.064-6.49-3.795-14.305-5.291-22.563-7.253q-6.643-.4-13.291-.807c-2.707-1.127-5.519-4.437-8.056-6.043C34.701 5.296 8.783-8.588 1.302 9.666c-4.726 11.522 7.062 22.762 11.276 28.602 2.96 4.092 6.749 8.685 8.863 13.291 1.392 3.029 1.631 6.066 2.822 9.268 2.926 7.89 5.475 16.475 9.264 23.765 1.913 3.691 4.023 7.576 6.445 10.876 1.482 2.025 4.028 2.917 4.429 6.042-2.486 3.481-2.629 8.886-4.026 13.296-6.297 19.85-3.92 44.525 5.237 59.216 2.808 4.513 9.429 14.186 18.53 10.474 7.96-3.242 6.183-13.292 8.46-22.157.514-2.009.198-3.487 1.207-4.833v.403l7.253 14.501c5.368 8.644 14.89 17.676 22.962 23.771 4.185 3.161 7.479 8.623 12.891 10.473v-.405h-.403c-1.049-1.633-2.69-2.31-4.028-3.623-3.152-3.09-6.658-6.932-9.263-10.473-7.342-9.965-13.829-20.872-19.74-32.225-2.823-5.424-5.278-11.402-7.656-16.921-.917-2.126-.905-5.345-2.817-6.445-2.607 4.042-6.445 7.312-8.46 12.085-3.223 7.631-3.638 16.938-4.833 26.587-.706.252-.392.079-.807.401-5.611-1.353-7.581-7.127-9.668-12.084-5.273-12.531-6.254-32.706-1.613-47.131 1.202-3.734 6.627-15.486 4.43-18.936-1.048-3.439-4.508-5.43-6.443-8.057-2.396-3.25-4.787-7.528-6.45-11.28-4.314-9.768-6.329-20.737-10.873-30.613-2.174-4.722-5.847-9.501-8.863-13.696-3.338-4.652-7.08-8.077-9.668-13.698-.92-1.999-2.17-5.199-.807-7.253.433-1.385 1.049-1.963 2.417-2.416 2.337-1.802 8.845.6 11.277 1.609 6.46 2.684 11.852 5.24 17.325 8.865 2.624 1.742 5.283 5.11 8.458 6.043h3.626c5.671 1.302 12.023.402 17.323 2.012 9.365 2.845 17.757 7.274 25.377 12.086 23.218 14.662 42.203 35.53 55.189 60.426 2.089 4.01 2.993 7.833 4.833 12.086 3.712 8.574 8.388 17.396 12.081 25.782 3.688 8.365 7.28 16.807 12.491 23.769 2.739 3.658 13.318 5.621 18.128 7.655 3.369 1.422 8.892 2.909 12.086 4.831 6.096 3.679 12.005 8.058 17.726 12.087 2.855 2.013 11.644 6.434 12.081 10.073M59.306 44.317c-2.954-.056-5.043.322-7.252.803v.403h.402c1.41 2.894 3.898 4.76 5.638 7.252 1.342 2.823 2.686 5.64 4.03 8.459l.4-.399c2.497-1.76 3.639-4.57 3.624-8.865-1-1.05-1.146-2.368-2.013-3.623-1.148-1.674-3.375-2.626-4.829-4.03"/></svg>