<svg xmlns="http://www.w3.org/2000/svg" width="257" height="251" fill="none" viewBox="0 0 257 251">
  <g clip-path="url(#a)">
    <path fill="#ebebeb" d="M86.536 201.577c0 1.033-1.187 1.858-2.683 1.858-1.704.155-2.89-.671-2.89-1.858 0-1.032 1.186-1.858 2.683-1.858 1.549-.155 2.89.671 2.89 1.858m-16.051-2.322c-.361 1.032.67 2.219 2.22 2.529 1.341.516 2.89 0 3.2-1.032.309-1.033-.672-2.22-2.22-2.684-1.342-.362-2.839.154-3.2 1.187m22.813-.878c-1.497.362-2.53 1.342-2.374 2.529.154 1.033 1.496 1.704 3.045 1.342 1.497-.361 2.529-1.342 2.374-2.374-.155-.981-1.549-1.652-3.045-1.497M127.259.597C55.672.597.911 54.945.911 126.532c0 57.239 36.026 106.22 87.483 123.458 6.607 1.187 8.93-2.89 8.93-6.245 0-3.2-.155-20.852-.155-31.69 0 0-36.13 7.742-43.716-15.381 0 0-5.884-15.019-14.349-18.89 0 0-11.82-8.103.826-7.949 0 0 12.852 1.033 19.923 13.317 11.303 19.922 30.245 14.193 37.625 10.787 1.188-8.258 4.542-13.987 8.258-17.394-28.851-3.2-57.96-7.381-57.96-57.032 0-14.194 3.922-21.316 12.18-30.4-1.342-3.355-5.73-17.187 1.342-35.045C72.085 50.713 96.91 68.003 96.91 68.003c10.322-2.89 21.419-4.387 32.413-4.387s22.09 1.497 32.412 4.387c0 0 24.826-17.342 35.613-13.935 7.071 17.91 2.684 31.69 1.342 35.045 8.258 9.135 13.316 16.258 13.316 30.4 0 49.806-30.4 53.78-59.251 57.032 4.748 4.077 8.774 11.819 8.774 23.948 0 17.394-.155 38.917-.155 43.149 0 3.355 2.374 7.432 8.929 6.245 51.613-17.135 86.607-66.116 86.607-123.355C256.911 54.945 198.846.597 127.259.597M51.079 178.61c-.672.516-.517 1.703.36 2.683.827.826 2.014 1.188 2.685.517.67-.517.516-1.704-.362-2.684-.825-.826-2.013-1.187-2.684-.516m-5.575-4.181c-.361.671.155 1.497 1.187 2.013.826.516 1.858.361 2.22-.361.36-.671-.155-1.497-1.187-2.013-1.033-.31-1.858-.155-2.22.361m16.723 18.374c-.826.671-.516 2.219.67 3.2 1.188 1.187 2.685 1.342 3.356.516.67-.671.36-2.219-.671-3.2-1.136-1.187-2.684-1.342-3.355-.516m-5.884-7.587c-.826.516-.826 1.858 0 3.045s2.22 1.703 2.89 1.187c.826-.671.826-2.013 0-3.2-.722-1.187-2.064-1.703-2.89-1.032"/>
  </g>
  <defs>
    <clipPath id="a">
      <path fill="#ebebeb" d="M.91.5h256v250H.91z"/>
    </clipPath>
  </defs>
</svg>
