<svg width="261" height="256" viewBox="0 0 261 256" fill="none"
  xmlns="http://www.w3.org/2000/svg">
  <g clip-path="url(#clip0_20_502)">
    <path d="M240.131 197.793C225.962 197.407 215.142 198.726 205.891 202.626C203.263 203.735 199.068 203.766 198.638 207.059C200.083 208.572 200.308 210.835 201.456 212.697C203.665 216.269 207.394 221.062 210.722 223.573C214.359 226.319 218.107 229.252 222.004 231.629C228.937 235.855 236.677 238.27 243.351 242.505C247.286 245.003 251.195 248.147 255.032 250.963C256.932 252.356 258.206 254.522 260.673 255.395V254.995C259.376 253.343 259.042 251.076 257.853 249.353L252.615 244.115C247.495 237.318 240.994 231.348 234.084 226.391C228.574 222.435 216.242 217.092 213.944 210.682L213.542 210.279C217.448 209.838 222.021 208.426 225.628 207.457C231.685 205.835 237.098 206.254 243.351 204.639L251.81 202.222V200.611C248.649 197.368 246.395 193.074 242.949 190.138C233.927 182.458 224.083 174.784 213.947 168.384C208.323 164.837 201.376 162.531 195.415 159.523C193.411 158.51 189.889 157.983 188.565 156.299C185.434 152.31 183.73 147.252 181.317 142.605C176.261 132.866 171.296 122.232 166.816 111.986C163.76 104.999 161.764 98.1123 157.953 91.8444C139.661 61.7706 119.974 43.6214 89.4748 25.7799C82.9839 21.9853 75.1697 20.4885 66.9117 18.5272C62.4833 18.2609 58.0508 17.9905 53.6203 17.72C50.9137 16.5928 48.1019 13.2834 45.5646 11.6772C35.4608 5.29368 9.54291 -8.59019 2.0611 9.66427C-2.66458 21.1863 9.12381 32.4256 13.3375 38.2661C16.298 42.3579 20.0864 46.9515 22.2005 51.5574C23.5919 54.5861 23.8314 57.623 25.0227 60.825C27.9481 68.7156 30.4977 77.2999 34.2861 84.5897C36.1999 88.281 38.3099 92.1665 40.7316 95.4656C42.2139 97.4908 44.7594 98.3827 45.1599 101.508C42.6743 104.989 42.5318 110.394 41.1341 114.804C34.8374 134.654 37.2136 159.329 46.3718 174.02C49.1796 178.533 55.8005 188.206 64.9008 184.494C72.8616 181.252 71.0841 171.202 73.3612 162.337C73.8753 160.329 73.5594 158.85 74.569 157.504V157.907L81.8216 172.408C87.1894 181.052 96.7109 190.084 104.783 196.179C108.968 199.34 112.263 204.802 117.674 206.652V206.247H117.271C116.223 204.614 114.581 203.937 113.244 202.624C110.091 199.534 106.585 195.692 103.98 192.151C96.6387 182.186 90.1519 171.279 84.2412 159.926C81.417 154.502 78.9623 148.524 76.5839 143.005C75.6673 140.879 75.6797 137.66 73.7679 136.56C71.1605 140.602 67.3225 143.872 65.3076 148.645C62.0848 156.276 61.6699 165.583 60.4745 175.232C59.7685 175.484 60.0823 175.311 59.6673 175.633C54.0559 174.281 52.0864 168.506 49.9992 163.549C44.7264 151.018 43.7457 130.843 48.3868 116.418C49.5883 112.684 55.0139 100.932 52.8172 97.4826C51.7685 94.0431 48.3083 92.0529 46.3739 89.4248C43.977 86.1752 41.5863 81.8976 39.9243 78.1443C35.6095 68.377 33.5945 57.4083 29.0505 47.5316C26.8766 42.8101 23.2038 38.0307 20.1876 33.8356C16.8492 29.1843 13.1083 25.7592 10.5194 20.1376C9.59865 18.1391 8.34962 14.9391 9.7122 12.8849C10.1457 11.4996 10.761 10.9216 12.1297 10.4694C14.4668 8.6671 20.9741 11.0681 23.4061 12.0777C29.866 14.7616 35.2585 17.3174 40.7316 20.9427C43.3556 22.6852 46.0147 26.0524 49.1899 26.9856H52.8152C58.4864 28.2883 64.8389 27.3881 70.1385 28.9985C79.5032 31.8434 87.8954 36.2717 95.5156 41.0841C118.733 55.7463 137.718 76.6145 150.704 101.51C152.794 105.52 153.698 109.343 155.537 113.596C159.249 122.17 163.925 130.992 167.619 139.378C171.306 147.743 174.898 156.185 180.109 163.147C182.849 166.805 193.427 168.768 198.238 170.802C201.607 172.224 207.13 173.711 210.323 175.633C216.42 179.312 222.328 183.691 228.049 187.721C230.904 189.733 239.693 194.154 240.131 197.793ZM60.0657 44.3151C57.1114 44.2594 55.0221 44.6372 52.8131 45.1182V45.5208H53.2157C54.6257 48.4152 57.1135 50.2816 58.8539 52.7734C60.1958 55.5956 61.5398 58.4137 62.8838 61.2317L63.2843 60.8333C65.7803 59.0723 66.922 56.2625 66.9076 51.9683C65.9083 50.9174 65.7618 49.6003 64.8947 48.345C63.7468 46.6707 61.5192 45.719 60.0657 44.3151Z" fill="#00618A"/>
  </g>
  <defs>
    <clipPath id="clip0_20_502">
      <rect width="260.129" height="256" fill="#EBEBEB" transform="translate(0.754272 -0.00195312)"/>
    </clipPath>
  </defs>
</svg>
