<svg xmlns="http://www.w3.org/2000/svg" width="256" height="256" fill="none" viewBox="0 0 256 256"><circle cx="128" cy="128" r="128" fill="#b270ec"/><path fill="#ebebeb" stroke="#ebebeb" stroke-width="2" d="M119.652 121.888v10.75h-39.52v-10.75zm50.282 0v10.75h-39.52v-10.75zM59.757 158.232q0 3.063.368 6.081l.113.862v.002q.417 3.022 1.364 5.446l.28.681.004.009.004.011c.739 1.807 1.71 3.254 2.898 4.369 1.143 1.045 2.59 1.619 4.404 1.688l1.123.042-.172 1.111-1.03 6.619-.136.878-.888-.032c-3.339-.121-6.276-1.034-8.774-2.768-2.451-1.702-4.477-3.945-6.082-6.709-1.525-2.625-2.67-5.558-3.443-8.79v-.001a40.3 40.3 0 0 1-1.155-9.499v-9.728c0-5.428-1.115-9.137-3.126-11.36l-.005-.006c-1.973-2.213-5.074-3.427-9.513-3.464l-.991-.009v-10.339h1c4.442 0 7.54-1.18 9.509-3.354 2.01-2.223 3.126-5.95 3.126-11.418v-9.786q0-4.775 1.052-9.707l.002-.007c.74-3.355 1.904-6.374 3.501-9.047 1.42-2.42 3.252-4.423 5.494-5.998l.454-.31c2.5-1.693 5.5-2.578 8.952-2.698l.887-.031.136.877 1.03 6.619.173 1.117-1.129.036c-2.185.071-3.823.671-5.014 1.711-1.236 1.108-2.175 2.517-2.809 4.253l-.003.008c-.682 1.82-1.123 3.876-1.313 6.179a85 85 0 0 0-.291 6.998v9.786c0 4.739-.943 8.952-2.86 12.61-1.621 3.112-4.007 5.583-7.125 7.415 3.12 1.81 5.505 4.288 7.126 7.432 1.883 3.616 2.825 7.788 2.859 12.486zM221 133.657l-.983.016c-2.269.037-4.213.37-5.85.974l-.013.005c-1.572.557-2.841 1.434-3.831 2.63l.001.001c-.971 1.175-1.715 2.669-2.208 4.514-.494 1.851-.751 4.081-.751 6.707v9.728q0 4.724-1.104 9.494l-.001-.001c-.74 3.237-1.886 6.192-3.446 8.857l-.004.009c-1.604 2.684-3.627 4.899-6.067 6.634-2.504 1.779-5.466 2.694-8.844 2.775l-.878.021-.134-.868-1.03-6.619-.172-1.11 1.122-.043c1.782-.069 3.216-.644 4.365-1.695 1.221-1.119 2.223-2.569 2.993-4.375.745-1.787 1.28-3.829 1.597-6.134l.002-.016q.528-3.435.528-6.929v-9.728c0-3.115.386-6.012 1.168-8.686l.003-.01h.001c.821-2.691 2.077-5.041 3.775-7.035a19.8 19.8 0 0 1 2.995-2.849l.006-.004.006-.005a22 22 0 0 1 1.995-1.322 21 21 0 0 1-2.099-1.398l-.006-.005-.005-.003a17.7 17.7 0 0 1-3.003-2.976c-1.659-2.028-2.88-4.374-3.667-7.025l-.001-.004c-.782-2.673-1.168-5.551-1.168-8.628v-9.786q0-3.463-.339-6.985l-.001-.014c-.19-2.306-.617-4.368-1.269-6.192h-.001c-.668-1.736-1.625-3.147-2.864-4.255-1.154-1.032-2.771-1.632-4.957-1.703l-1.121-.036.165-1.11.981-6.62.131-.885.894.033c3.316.12 6.211.945 8.643 2.516 2.416 1.539 4.4 3.546 5.949 6.01l.319.52q2.347 3.928 3.39 8.713l.14.63a44.7 44.7 0 0 1 1.013 9.378v9.786c0 2.248.175 4.209.517 5.891.373 1.639.911 3.029 1.597 4.187.974 1.628 2.304 2.811 4.008 3.57 1.775.738 3.937 1.124 6.513 1.124h1z"/></svg>
