<svg xmlns="http://www.w3.org/2000/svg" width="256" height="256" fill="none" viewBox="0 0 256 256"><g fill-rule="evenodd" clip-path="url(#a)" clip-rule="evenodd"><path fill="#4e3188" d="M255.833 25.017c0-13.785-11.19-24.976-24.975-24.976H25.061C11.276.041.085 11.232.085 25.017v205.799c0 13.784 11.191 24.975 24.976 24.975h205.797c13.785 0 24.976-11.191 24.976-24.975z"/><path fill="url(#b)" d="M237.108 162.403v64.665c0 5.447-4.368 9.882-9.79 9.988h-66.041l-43.118-74.653zm-85.656 74.653H34.621l58.448-101.08zm-126.212-.657c-3.534-1.354-6.104-4.658-6.391-8.59l-.028-44.573 47.496-82.232h37.124zM137.393 100.85c3.234.014 6.329 1.914 8 4.729l.05.086 9.815 16.997.085.141c1.603 2.805 1.666 6.341.063 9.197-3.29 5.755-6.632 11.482-9.948 17.224-1.629 2.792-4.711 4.613-7.988 4.654-6.251.026-18.786.012-18.804.012-3.234-.014-6.378-1.738-8.052-4.554-.037-.061-.107-.186-.107-.186s-9.821-16.998-9.841-17.037c-1.605-2.806-1.603-6.431 0-9.287.023-.042.073-.126.073-.126s6.571-11.399 9.86-17.098c1.629-2.792 4.718-4.713 7.992-4.754l.165-.002 18.525.004zm92.944-81.547L152.601 153.89h84.507V28.762c0-4.387-2.835-8.118-6.771-9.46m-116.523-.532h107.003l-57.869 100.192-53.5-92.63zm24.021 73.726H71.23l33.303-57.657z"/></g><defs><radialGradient id="b" cx="0" cy="0" r="1" gradientTransform="translate(185.666 -22.253)scale(259.309)" gradientUnits="userSpaceOnUse"><stop stop-color="#f9a6ff"/><stop offset="1" stop-color="#ea73ff"/></radialGradient><clipPath id="a"><path fill="#ebebeb" d="M0 0h256v256H0z"/></clipPath></defs></svg>
