<svg width="204" height="256" viewBox="0 0 204 256" fill="none"
  xmlns="http://www.w3.org/2000/svg">
  <g clip-path="url(#clip0_18_1338)">
    <path d="M63.9492 248.525C74.6334 252.837 86.2407 255.387 98.4169 255.806C114.905 256.375 130.574 252.971 144.587 246.504C127.78 239.907 112.559 230.246 99.5896 218.239C91.176 231.718 78.7154 242.362 63.9692 248.525H63.9492Z" fill="#FF9100"/>
    <path d="M99.5647 218.239C69.9176 190.827 51.9427 151.14 53.4548 107.62C53.5096 106.203 53.5895 104.8 53.6643 103.383C48.3497 102.001 42.8105 101.173 37.1017 100.983C28.9326 100.698 21.0331 101.702 13.5627 103.817C5.64314 117.675 0.87744 133.574 0.27362 150.631C-1.25839 194.605 25.3447 233.025 63.9093 248.545C78.6755 242.382 91.1162 231.758 99.5298 218.259L99.5697 218.239H99.5647Z" fill="#FFC400"/>
    <path d="M99.5647 218.239C106.466 207.216 110.643 194.286 111.117 180.353C112.405 143.715 87.7677 112.177 53.6593 103.389C53.5645 104.806 53.4897 106.208 53.4497 107.625C51.9377 151.145 69.9176 190.833 99.5597 218.244L99.5647 218.239Z" fill="#FF9100"/>
    <path d="M107.32 0.364258C87.9025 15.9239 72.5724 36.4388 63.2855 60.0676C57.9709 73.6062 54.6275 88.1428 53.6643 103.383C87.7727 112.176 112.405 143.709 111.122 180.348C110.628 194.281 106.451 207.195 99.5697 218.234C112.559 230.24 127.78 239.881 144.567 246.499C178.296 230.899 202.209 197.359 203.611 157.697C204.5 131.987 194.629 109.072 180.676 89.7497C165.925 69.2946 107.335 0.384219 107.335 0.384219L107.32 0.364258Z" fill="#DD2C00"/>
  </g>
  <defs>
    <clipPath id="clip0_18_1338">
      <rect width="204" height="256" fill="#EBEBEB"/>
    </clipPath>
  </defs>
</svg>
