<svg xmlns="http://www.w3.org/2000/svg" width="256" height="256" fill="none" viewBox="0 0 256 256"><path fill="#35bdb2" d="M255.078.45H1.745v253.333h253.333z"/><path fill="#ebebeb" fill-rule="evenodd" d="m166.181 88.109 20.705-25.267q-15.909-13.105-25.494-16.888-9.585-3.782-31.249-5.505-29.704 1.977-41.215 12.343Q72.094 67.95 69.84 91.162q1.794 24.711 14.426 32.82t30.88 16.562l31.719 14.463q6.252 4.977 5.135 12.069-1.117 7.09-8.929 10.037-9.2 3.541-14.708 3.541t-22.667-3.541l-21.43-14.08-21.189 26.46q11.827 10.486 19.308 14.544 7.482 4.058 28.651 9.372 16.105.747 23.863 0 7.756-.748 23.451-5.344 13.51-6.936 19.045-12.252t9.49-15.159q4.584-10.445 4.155-20.69-.428-10.244-6.659-22.615-8.953-10.761-18.201-15.937-9.25-5.175-37.817-17.046-11.205-3.6-14.808-6.6-3.604-2.998-4.723-9.657 1.103-9.432 6.314-11.947 5.212-2.516 19.753-2.516 9.467.537 14.651 2.516 5.183 1.978 16.63 11.947" clip-rule="evenodd"/></svg>
