<svg width="256" height="244" viewBox="0 0 256 244" fill="none" xmlns="http://www.w3.org/2000/svg">
<g clip-path="url(#clip0_18_679)">
<path d="M31.8409 98.2869C34.7479 98.2869 37.0995 98.6855 38.8858 99.4846C40.6721 100.282 41.5643 101.276 41.5643 102.474C41.5643 103.936 41.1974 105.595 40.4716 107.454C39.7429 109.314 39.0482 110.84 38.3876 112.036C38.122 112.302 37.7932 112.334 37.3962 112.136C36.9993 111.936 36.7998 111.573 36.7998 111.04C37.1978 110.113 37.3962 108.784 37.3962 107.054C37.3962 105.196 36.9001 103.667 35.9077 102.473C34.9163 101.277 33.558 100.68 31.8409 100.68C29.5895 100.68 27.7732 101.377 26.3838 102.772C24.9955 104.166 24.3008 106.127 24.3008 108.647C24.3008 110.774 24.8612 112.8 25.9869 114.724C27.1482 116.711 28.4064 118.64 29.7569 120.503C31.1763 122.477 32.4686 124.54 33.6262 126.68C34.8171 128.872 35.4125 131.362 35.4125 134.151C35.4125 138.931 33.4939 142.65 29.6587 145.305C25.8215 147.965 20.7944 149.291 14.5795 149.291C10.0817 149.291 6.5432 148.561 3.96401 147.1C1.38282 145.64 0.0947266 144.048 0.0947266 142.319C0.0947266 141.79 0.292201 141.058 0.689153 140.127C1.08611 139.2 1.61337 138.204 2.27797 137.137C2.96076 136.044 3.68915 134.98 4.46121 133.949C5.25411 132.888 6.11217 132.026 7.03939 131.362C7.43635 131.095 7.80022 131.16 8.13202 131.559C8.46081 131.958 8.49489 132.357 8.23226 132.755C7.43735 133.55 6.84392 134.383 6.44497 135.246C6.04801 136.109 5.84954 137.273 5.84954 138.732C5.84954 141.121 6.64344 143.084 8.23226 144.607C9.81907 146.136 11.868 146.899 14.382 146.899C17.8203 146.899 20.4987 145.936 22.4183 144.011C24.3349 142.087 25.2952 139.727 25.2952 136.937C25.2952 134.415 24.7319 132.057 23.6082 129.866C22.4872 127.682 21.2625 125.555 19.9384 123.489C18.625 121.451 17.3999 119.357 16.2665 117.212C15.1516 115.13 14.5721 112.802 14.5805 110.438C14.5805 106.988 16.034 104.097 18.946 101.774C21.8519 99.4554 26.1513 98.2869 31.8409 98.2869ZM86.0069 99.2863C86.6685 99.552 86.9331 99.9194 86.8028 100.383C86.6675 100.849 86.0741 101.213 85.0155 101.478C83.0308 101.478 80.7503 101.547 78.1711 101.677C75.5899 101.81 72.8433 102.011 69.9363 102.274C67.287 108.785 65.1058 115.123 63.3876 121.301C61.6665 127.476 60.8094 132.491 60.8094 136.343C60.8094 140.857 62.5256 143.114 65.9668 143.114C69.4051 143.114 73.2413 140.128 77.4774 134.152C77.8724 133.885 78.2363 133.885 78.5661 134.152C78.8958 134.418 78.9951 134.881 78.8658 135.546C76.6235 139.256 73.7331 142.53 70.3333 145.21C66.892 147.933 63.5189 149.292 60.214 149.292C56.7717 149.292 54.2266 148.467 52.5747 146.802C50.9197 145.141 50.0937 142.851 50.0937 139.927C50.0937 136.079 51.0179 130.763 52.8704 123.99C54.7228 117.216 57.1035 110.313 60.0155 103.27C56.5733 103.669 53.3997 104.205 50.4917 104.865C49.8281 104.736 49.6617 104.402 49.9945 103.869C50.3233 103.34 50.9187 102.773 51.7808 102.176C52.6378 101.576 53.6653 101.048 54.8551 100.581C56.045 100.118 57.1697 99.8842 58.2282 99.8842H59.8161C60.3443 99.8842 60.8746 99.8188 61.4039 99.6859C63.0827 95.9159 64.8691 92.195 66.7607 88.5279C68.6122 84.9408 70.4626 81.6898 72.3171 78.765C73.109 77.837 74.2016 77.0066 75.5899 76.2739C76.9782 75.5472 78.3345 74.9806 79.6567 74.581C80.9778 74.1824 82.0695 73.9519 82.9325 73.8835C83.7906 73.8191 84.1525 74.0526 84.0252 74.581C81.7728 78.0373 79.5604 81.8871 77.3762 86.1365C75.1365 90.5103 73.0518 94.9625 71.1262 99.4846C73.6382 99.3538 76.1863 99.2863 78.7645 99.2863H86.0069Z" fill="#606060"/>
<path d="M206.392 -0.394043C208.376 -0.394043 209.993 0.105177 211.253 1.1006C212.508 2.09602 213.368 3.42559 213.832 5.0863C214.295 6.74601 214.359 8.63922 214.03 10.7639C213.699 12.8906 212.94 15.0153 211.749 17.139C211.483 17.4047 211.153 17.4047 210.756 17.139C210.36 16.8723 210.095 16.5422 209.963 16.1426C210.227 14.5483 209.667 13.2218 208.276 12.1579C206.888 11.0971 204.736 10.5636 201.828 10.5636C196.403 10.5636 190.947 12.5897 185.459 16.6408C179.968 20.694 174.644 26.0414 169.486 32.6783C164.327 39.3211 159.497 46.9604 155.001 55.591C150.506 64.2157 146.595 73.1346 143.293 82.2872C139.987 91.4513 137.372 100.55 135.457 109.581C133.539 118.615 132.582 126.848 132.582 134.288C132.582 138.269 133.704 140.263 135.955 140.263C137.542 140.263 139.095 139.599 140.616 138.269C142.136 136.943 143.892 134.952 145.876 132.293C146.272 132.031 146.635 132.063 146.965 132.393C147.295 132.729 147.394 133.158 147.265 133.687C144.616 137.672 141.51 140.993 137.938 143.648C134.367 146.307 131.123 147.634 128.215 147.634C125.701 147.634 123.95 146.903 122.959 145.44C121.967 143.981 121.47 142.124 121.47 139.865C121.47 133.621 122.79 125.816 125.44 116.456C128.084 107.091 131.619 97.1973 136.055 86.7691C140.486 76.3439 145.611 65.9508 151.432 55.591C157.252 45.2312 163.304 35.902 169.589 27.6005C175.87 19.3 182.189 12.5585 188.537 7.37708C194.882 2.19465 200.834 -0.394043 206.393 -0.394043H206.392ZM30.22 244.417C28.2352 244.417 26.6164 243.919 25.3573 242.923C24.1023 241.928 23.2423 240.598 22.7782 238.937C22.317 237.276 22.2509 235.385 22.5797 233.26C22.9125 231.133 23.6713 229.009 24.8612 226.885C25.1278 226.617 25.4566 226.617 25.8535 226.885C26.2495 227.148 26.5151 227.482 26.6464 227.881C26.3838 229.475 26.9441 230.802 28.3335 231.866C29.7218 232.926 31.873 233.458 34.782 233.458C40.207 233.458 45.6641 231.432 51.1512 227.381C56.6414 223.332 61.9672 217.985 67.1256 211.347C72.284 204.704 77.1136 197.066 81.6103 188.434C86.1048 179.809 90.0153 170.89 93.3154 161.737C96.6234 152.572 99.2377 143.475 101.154 134.443C103.072 125.409 104.029 117.176 104.029 109.738C104.029 105.753 102.906 103.762 100.656 103.762C99.0683 103.762 97.5145 104.423 95.9949 105.753C94.4752 107.078 92.719 109.074 90.7352 111.731C90.3393 111.993 89.9764 111.961 89.6456 111.63C89.3168 111.296 89.2176 110.865 89.3469 110.333C91.9953 106.351 95.1007 103.028 98.6733 100.372C102.244 97.7167 105.487 96.3902 108.396 96.3902C110.91 96.3902 112.661 97.1168 113.652 98.5793C114.645 100.042 115.142 101.901 115.142 104.16C115.142 110.403 113.821 118.204 111.172 127.569C108.528 136.934 104.991 146.826 100.557 157.255C96.1262 167.68 90.9999 178.073 85.1799 188.433C79.3589 198.793 73.3074 208.122 67.0233 216.423C60.7423 224.724 54.4231 231.466 48.0739 236.645C41.7276 241.826 35.7753 244.417 30.22 244.417Z" fill="#B3D107"/>
<path d="M164.256 149.291C158.699 149.291 155.922 146.236 155.922 140.127C155.922 138.003 156.15 135.545 156.615 132.757C157.077 129.965 157.808 127.081 158.799 124.09C159.791 121.1 160.946 118.082 162.27 115.023C163.594 111.965 165.187 109.032 167.032 106.259C165.608 107.168 164.218 108.132 162.867 109.148C161.605 110.091 160.411 111.122 159.295 112.235C158.898 112.505 158.533 112.404 158.203 111.937C157.872 111.473 157.839 111.041 158.104 110.643C160.352 108.25 163.561 105.796 167.728 103.269C171.893 100.75 175.894 98.7549 179.733 97.2935C180.393 97.2935 180.889 97.4615 181.22 97.7927C181.549 98.1268 181.584 98.5576 181.321 99.086C177.106 104.633 173.667 110.733 171.101 117.216C168.522 123.726 167.232 130.037 167.232 136.143C167.232 139.998 168.425 141.92 170.804 141.92C172.521 141.92 174.639 140.759 177.153 138.435C179.666 136.11 182.313 133.056 185.092 129.269C187.868 125.484 190.677 121.201 193.524 116.421C196.342 111.686 198.958 106.833 201.363 101.874C201.758 101.08 202.916 100.282 204.833 99.4846C206.751 98.6854 208.702 98.2869 210.687 98.2869C212.672 98.2869 213.266 98.8223 212.473 99.8832C210.763 103.057 209.141 106.279 207.612 109.545C206.266 112.422 205.106 115.384 204.14 118.411C203.219 121.307 202.522 124.271 202.056 127.275C201.59 130.265 201.362 133.55 201.362 137.135C201.362 141.39 202.484 143.511 204.736 143.511C206.983 143.511 209.497 141.52 212.275 137.534C212.673 137.272 213.07 137.272 213.465 137.534C213.863 137.804 213.993 138.203 213.863 138.731C211.612 142.184 209.131 144.807 206.422 146.601C203.709 148.393 201.229 149.289 198.982 149.289C193.425 149.289 190.648 146.036 190.648 139.528C190.648 132.754 191.837 126.048 194.219 119.404C189.19 128.568 183.901 135.841 178.346 141.221C172.788 146.603 168.09 149.291 164.256 149.291ZM246.199 98.2869C249.106 98.2869 251.459 98.6854 253.244 99.4846C255.03 100.282 255.923 101.276 255.923 102.474C255.923 103.936 255.557 105.595 254.832 107.454C254.101 109.314 253.409 110.84 252.747 112.036C252.48 112.302 252.153 112.334 251.755 112.136C251.359 111.936 251.16 111.573 251.16 111.04C251.557 110.113 251.756 108.784 251.756 107.054C251.756 105.196 251.26 103.667 250.268 102.473C249.276 101.277 247.918 100.68 246.2 100.68C243.951 100.68 242.134 101.377 240.744 102.772C239.354 104.167 238.661 106.127 238.661 108.647C238.661 110.774 239.222 112.8 240.347 114.724C241.509 116.711 242.767 118.64 244.117 120.503C245.537 122.477 246.829 124.54 247.987 126.68C249.177 128.872 249.773 131.362 249.773 134.151C249.773 138.931 247.854 142.65 244.019 145.305C240.18 147.965 235.154 149.291 228.939 149.291C224.439 149.291 220.903 148.561 218.323 147.1C215.742 145.64 214.454 144.048 214.454 142.319C214.454 141.79 214.652 141.058 215.049 140.127C215.445 139.2 215.972 138.204 216.636 137.137C217.319 136.044 218.047 134.98 218.819 133.949C219.611 132.888 220.472 132.026 221.399 131.362C221.796 131.095 222.159 131.16 222.489 131.559C222.818 131.958 222.853 132.357 222.59 132.755C221.796 133.55 221.201 134.383 220.803 135.246C220.406 136.109 220.208 137.273 220.208 138.732C220.208 141.121 221.002 143.084 222.59 144.607C224.177 146.136 226.225 146.899 228.74 146.899C232.178 146.899 234.857 145.936 236.778 144.011C238.692 142.087 239.654 139.727 239.654 136.937C239.654 134.415 239.089 132.057 237.968 129.866C236.846 127.682 235.621 125.555 234.297 123.489C232.984 121.451 231.759 119.356 230.625 117.212C229.51 115.13 228.93 112.802 228.939 110.438C228.939 106.988 230.392 104.097 233.303 101.774C236.21 99.4554 240.509 98.2869 246.199 98.2869Z" fill="#606060"/>
</g>
<defs>
<clipPath id="clip0_18_679">
<rect width="256" height="243.99" fill="white" transform="translate(0 0.00488281)"/>
</clipPath>
</defs>
</svg>
