<svg width="256" height="256" viewBox="0 0 256 256" fill="none" xmlns="http://www.w3.org/2000/svg">
<g clip-path="url(#clip0_18_959)">
<path d="M188.235 0H67.7646C30.3393 0 0 30.3393 0 67.7646V188.235C0 225.66 30.3393 256 67.7646 256H188.235C225.66 256 256 225.66 256 188.235V67.7646C256 30.3393 225.66 0 188.235 0Z" fill="black"/>
<path d="M175.377 181.771V73.1416H188.805V181.771H175.377Z" fill="#D9D9D9"/>
<path d="M109.896 184.034C101.498 184.034 94.0795 182.299 87.6423 178.829C81.2049 175.359 76.1507 170.506 72.4794 164.27C68.8584 157.983 67.0479 150.616 67.0479 142.167V73.217L80.6267 73.1416V141.035C80.6267 146.165 81.4816 150.641 83.1916 154.463C84.9517 158.235 87.265 161.378 90.1318 163.893C92.9984 166.407 96.1415 168.293 99.5613 169.55C103.032 170.757 106.476 171.361 109.896 171.361C113.366 171.361 116.836 170.732 120.307 169.475C123.777 168.218 126.92 166.357 129.736 163.893C132.603 161.378 134.891 158.21 136.601 154.387C138.311 150.565 139.166 146.115 139.166 141.035V73.1416H152.745V142.167C152.745 150.565 150.909 157.908 147.238 164.194C143.617 170.481 138.588 175.359 132.15 178.829C125.713 182.299 118.295 184.034 109.896 184.034Z" fill="#D9D9D9"/>
</g>
<defs>
<clipPath id="clip0_18_959">
<rect width="256" height="256" fill="white"/>
</clipPath>
</defs>
</svg>
