<svg width="256" height="154" viewBox="0 0 256 154" fill="none" xmlns="http://www.w3.org/2000/svg">
<g clip-path="url(#clip0_18_746)">
<path d="M127.506 0C93.5036 0 72.2599 17.0171 63.7529 51.0653C76.4995 34.0462 91.3798 27.6643 108.376 31.9196C118.08 34.3415 125.015 41.3877 132.696 49.196C145.195 61.898 159.663 76.603 191.259 76.603C225.259 76.603 246.505 59.5838 255.012 25.5277C242.263 42.5567 227.385 48.9387 210.387 44.6834C200.684 42.2595 193.757 35.2153 186.067 27.4069C173.575 14.7049 159.111 0 127.506 0ZM63.7529 76.603C29.7527 76.603 8.50703 93.6221 0 127.678C12.7466 110.649 27.6249 104.267 44.6231 108.523C54.3274 110.946 61.2626 117.991 68.9428 125.799C81.4424 138.501 95.9103 153.206 127.506 153.206C161.506 153.206 182.752 136.189 191.259 102.141C178.51 119.16 163.632 125.542 146.634 121.286C136.931 118.864 130.004 111.818 122.314 104.01C109.822 91.3079 95.3584 76.603 63.7529 76.603Z" fill="#38BDF8"/>
</g>
<defs>
<clipPath id="clip0_18_746">
<rect width="256" height="154" fill="white"/>
</clipPath>
</defs>
</svg>
