<svg xmlns="http://www.w3.org/2000/svg" width="257" height="256" fill="none" viewBox="0 0 257 256"><path fill="url(#a)" d="m185.798 89-.099-.05c-.05 0-.1-.049-.15-.099-.149-.15-.199-.398-.199-.597l5.13-31.428 24.106 24.106-25.052 10.659c-.05.05-.15.05-.2.05h-.099c-.05 0-.05-.05-.15-.1-.896-1.046-2.042-1.893-3.287-2.54m34.964-1.942 25.799 25.799c5.329 5.379 8.018 8.019 9.015 11.157.149.448.249.896.348 1.394L194.315 99.26c-.05 0-.05-.05-.1-.05-.249-.099-.548-.198-.548-.447 0-.25.299-.35.548-.449l.1-.05zm34.116 46.568c-1.344 2.491-3.934 5.08-8.317 9.513l-29.087 29.037-37.553-7.82-.199-.05c-.349-.049-.697-.099-.697-.398-.299-3.138-1.843-6.026-4.333-7.919-.15-.149-.1-.398-.05-.598v-.099l7.072-43.381.05-.149c.05-.349.099-.698.398-.698a11.72 11.72 0 0 0 7.72-4.432c.05-.05.1-.15.199-.199.2-.1.449 0 .698.099zM210.8 178.899l-47.813 47.814 8.168-50.254v-.05c0-.05 0-.149.05-.199.05-.149.249-.249.399-.299l.099-.05a12.14 12.14 0 0 0 4.632-3.436 1 1 0 0 1 .598-.399h.199zm-57.873 57.874-5.379 5.379-59.568-86.063c0-.05-.05-.05-.05-.1-.1-.149-.199-.249-.149-.399q0-.149.15-.298l.05-.1c.198-.249.348-.548.497-.797l.15-.249c.1-.149.199-.299.348-.398.15-.05.349-.05.498 0l65.993 13.597c.199.049.348.099.498.199.099.099.099.199.149.299a11.79 11.79 0 0 0 6.823 7.819c.2.1.1.299 0 .498-.049.1-.099.199-.099.299-.897 5.13-8.019 48.61-9.911 60.314m-11.257 11.256c-3.984 3.935-6.325 6.027-8.964 6.874-2.59.846-5.429.846-8.019 0-3.088-.997-5.778-3.636-11.157-9.015l-59.766-59.817 15.639-24.205c.05-.1.15-.249.249-.299.15-.099.398-.05.597 0 3.587 1.096 7.422.897 10.908-.548.2-.05.349-.099.498 0l.2.2zm-93.684-67.735L34.29 166.598l27.094-11.555c.05-.05.15-.05.2-.05.248 0 .348.249.497.448.25.399.548.847.847 1.245l.1.1c.1.099.05.249-.05.348zm-19.822-19.823-17.382-17.382c-2.939-2.938-5.08-5.08-6.575-6.923l52.794 10.958c.05 0 .15 0 .2.049.348.05.697.1.697.399 0 .348-.399.498-.747.597l-.15.05zm-26.945-33.17c.05-1.096.25-2.241.598-3.287.996-3.088 3.636-5.778 9.015-11.157l22.213-22.213a8839 8839 0 0 0 30.78 44.476c.199.249.398.499.149.698-.946 1.046-1.942 2.241-2.64 3.536-.05.149-.199.299-.348.398q-.15.075-.3 0zm37.753-42.584 29.833-29.883c2.79 1.245 13.05 5.528 22.164 9.413 6.922 2.939 13.198 5.579 15.19 6.475.199.1.399.15.448.349.05.1.05.249 0 .398-.946 4.383.349 8.965 3.487 12.153.199.199 0 .498-.15.747l-.099.15-30.332 46.966c-.1.149-.15.249-.299.348-.149.1-.398.05-.547 0-1.196-.299-2.391-.498-3.636-.498-1.096 0-2.291.199-3.487.399-.149 0-.249.05-.348-.05-.1-.1-.2-.199-.3-.349zm35.91-35.91L113.53 10.16c5.379-5.38 8.069-8.069 11.157-9.065a12.98 12.98 0 0 1 8.019 0c3.087.996 5.777 3.636 11.156 9.015l8.367 8.367-27.492 42.584c-.05.1-.15.249-.249.299-.15.1-.399.05-.598 0-4.383-1.345-9.164-.399-12.75 2.44-.199.2-.449.1-.648 0-3.685-1.494-31.626-13.298-35.61-14.991m83.174-24.454 25.401 25.4-6.126 37.903v.1c0 .1 0 .149-.05.248-.049.15-.199.15-.348.2-1.295.398-2.54.996-3.636 1.793-.05.05-.1.05-.149.1-.05.099-.15.149-.249.149-.1 0-.2 0-.299-.05L133.901 73.76l-.05-.05c-.249-.1-.548-.199-.548-.448a15.4 15.4 0 0 0-2.042-6.076c-.199-.299-.398-.648-.249-.947zM131.909 81.58l36.258 15.34c.199.1.398.199.498.398.05.1.05.25 0 .399-.1.547-.199 1.145-.199 1.743v.996c0 .249-.249.349-.498.448l-.05.05c-5.728 2.44-80.685 34.415-80.785 34.415s-.248.001-.348-.099c-.2-.199 0-.498.2-.747.049-.05.049-.1.099-.15l29.783-46.17.05-.099c.15-.299.349-.597.697-.597l.299.05c.698.099 1.295.198 1.893.198 4.532 0 8.716-2.191 11.256-5.976.05-.1.149-.2.249-.25.1-.099.398-.049.598.05M90.371 142.69l81.681-34.814s.099 0 .249.099c.448.449.847.748 1.195 1.046l.199.1c.15.1.349.199.349.349v.149l-6.973 42.982-.05.15c-.049.348-.099.697-.398.697-3.785.249-7.222 2.341-9.114 5.628l-.05.05c-.1.149-.199.299-.349.398a.7.7 0 0 1-.448 0l-65.146-13.447c-.149.049-1.095-3.387-1.145-3.387"/><defs><radialGradient id="a" cx="0" cy="0" r="1" gradientTransform="matrix(0 255.008 -293.769 0 128.589 .36)" gradientUnits="userSpaceOnUse"><stop stop-color="#20c6b7"/><stop offset="1" stop-color="#4d9abf"/></radialGradient></defs></svg>