<svg xmlns="http://www.w3.org/2000/svg" width="228" height="256" fill="none" viewBox="0 0 228 256"><g clip-path="url(#a)"><path fill="#ebebeb" d="m113.904.06 112.993 63.917V191.85l-112.993 63.917L.91 191.85V63.977z"/><path fill="#8ed6fb" d="m206.728 187.418-89.072 50.44v-39.227l55.516-30.572zm6.097-5.501V76.514L180.25 95.317v67.796zm-192.088 5.5 89.073 50.4v-39.228l-55.516-30.53-33.557 19.359zm-6.097-5.5V76.514l32.576 18.803v67.796zm3.796-112.225 91.374-51.68v37.95L51.267 88.154l-.47.256zm190.552 0-91.332-51.68v37.95l58.5 32.233.469.256 32.363-18.76"/><path fill="#1c78c0" d="m109.81 189.678-54.748-30.146V99.881l54.748 31.595zm7.846 0 54.749-30.102V99.881l-54.749 31.595zM58.728 92.973l55.005-30.23 54.961 30.23-54.961 31.724z"/></g><defs><clipPath id="a"><path fill="#ebebeb" d="M.475 0h226.87v256H.474z"/></clipPath></defs></svg>
