<svg width="256" height="250" viewBox="0 0 256 250" fill="none" xmlns="http://www.w3.org/2000/svg">
<g clip-path="url(#clip0_21_1949)">
<path d="M45.2233 0H210.179C235.181 0 255.402 20.221 255.402 45.2233V203.804C255.402 228.806 235.181 249.027 210.179 249.027H45.2233C20.221 249.027 0 228.806 0 203.804V45.2233C0 20.221 20.221 0 45.2233 0Z" fill="#001E36"/>
<path d="M50.4836 178.573V68.8133C50.4836 68.0666 50.8036 67.64 51.5503 67.64C53.3636 67.64 55.0703 67.64 57.5236 67.5333C60.0836 67.4266 62.7503 67.4266 65.6303 67.32C68.5103 67.2133 71.6036 67.2133 74.9103 67.1066C78.2169 67 81.4169 67 84.6169 67C93.3635 67 100.616 68.0666 106.59 70.3066C111.923 72.12 116.83 75.1066 120.883 79.0533C124.296 82.4666 126.963 86.6266 128.67 91.2133C130.27 95.6933 131.123 100.28 131.123 105.08C131.123 114.253 128.99 121.826 124.723 127.8C120.456 133.773 114.483 138.253 107.55 140.813C100.296 143.48 92.2969 144.44 83.5503 144.44C80.9903 144.44 79.2836 144.44 78.2169 144.333C77.1503 144.226 75.6569 144.226 73.6303 144.226V178.466C73.7369 179.213 73.2036 179.853 72.4569 179.96C72.3503 179.96 72.2436 179.96 72.0303 179.96H51.7636C50.9103 179.96 50.4836 179.533 50.4836 178.573ZM73.7369 88.2266V124.066C75.2303 124.173 76.6169 124.28 77.8969 124.28H83.5503C87.7103 124.28 91.8703 123.64 95.8165 122.36C99.2305 121.4 102.216 119.373 104.563 116.706C106.803 114.04 107.87 110.413 107.87 105.72C107.976 102.413 107.123 99.1066 105.416 96.2266C103.603 93.4533 101.043 91.32 97.9505 90.1466C94.0035 88.5466 89.7369 87.9066 85.3636 88.0133C82.5903 88.0133 80.1369 88.0133 78.1103 88.12C75.9769 88.0133 74.4836 88.12 73.7369 88.2266Z" fill="#65A7F8"/>
<path d="M197.683 117.56C194.483 115.853 191.07 114.68 187.443 113.933C183.496 113.08 179.55 112.546 175.496 112.546C173.363 112.44 171.123 112.76 169.096 113.293C167.71 113.613 166.536 114.36 165.79 115.426C165.256 116.28 164.936 117.346 164.936 118.306C164.936 119.266 165.363 120.226 166.003 121.08C166.963 122.253 168.243 123.213 169.63 123.96C172.083 125.24 174.643 126.413 177.203 127.48C182.963 129.4 188.51 132.066 193.63 135.266C197.15 137.506 200.03 140.493 202.056 144.12C203.763 147.533 204.616 151.266 204.51 155.106C204.616 160.12 203.123 165.133 200.35 169.293C197.363 173.56 193.203 176.866 188.403 178.786C183.176 181.026 176.776 182.2 169.096 182.2C164.19 182.2 159.39 181.773 154.59 180.813C150.856 180.173 147.123 179 143.71 177.4C142.963 176.973 142.43 176.226 142.536 175.373V156.813C142.536 156.493 142.643 156.066 142.963 155.853C143.283 155.64 143.603 155.746 143.923 155.96C148.083 158.413 152.456 160.12 157.15 161.186C161.203 162.253 165.47 162.786 169.736 162.786C173.79 162.786 176.67 162.253 178.59 161.293C180.296 160.546 181.47 158.733 181.47 156.813C181.47 155.32 180.616 153.933 178.91 152.546C177.203 151.16 173.683 149.56 168.456 147.533C163.016 145.613 158.003 143.053 153.31 139.853C150.003 137.506 147.23 134.413 145.203 130.786C143.496 127.373 142.643 123.64 142.75 119.906C142.75 115.32 144.03 110.946 146.376 107C149.043 102.733 152.99 99.32 157.576 97.1866C162.59 94.6266 168.883 93.4533 176.456 93.4533C180.83 93.4533 185.31 93.7733 189.683 94.4133C192.883 94.84 195.976 95.6933 198.856 96.8666C199.283 96.9733 199.71 97.4 199.923 97.8266C200.03 98.2533 200.136 98.68 200.136 99.1066V116.493C200.136 116.92 199.923 117.346 199.603 117.56C198.643 117.773 198.11 117.773 197.683 117.56Z" fill="#65A7F8"/>
</g>
<defs>
<clipPath id="clip0_21_1949">
<rect width="256" height="250" fill="white"/>
</clipPath>
</defs>
</svg>
