<svg xmlns="http://www.w3.org/2000/svg" width="196" height="256" fill="none" viewBox="0 0 196 256">
  <path fill="#493310" fill-rule="evenodd" d="M163.701 179.428c7.401-5.511 11.198-12.48 12.961-21.108 8.584 8.489 11.609 18.473 10.901 29.75-.96 15.292-7.984 26.436-22.485 32.423-1.136.471-2.16 1.707-2.785 2.839-6.797 12.314-16.795 20.108-30.885 22.336-1.181.185-2.36.858-3.376 1.546-16.755 11.307-43.39 11.266-60.232-.079a9.95 9.95 0 0 0-3.774-1.523c-12.67-2.191-22.295-8.873-28.808-19.842-1.893-3.192-4.094-5.339-7.517-6.902-24.454-11.161-24.037-47.343-8.74-59.949 1.493 3.685 2.645 7.556 4.574 10.995 1.944 3.471 4.657 6.51 7.034 9.739l1.164-.318c.402-4.045.94-8.081 1.173-12.133.328-5.707.578-11.428.594-17.144.02-6.978-2.589-12.412-9.179-15.806-4.824-2.486-9.641-5.238-13.84-8.638-10.265-8.312-10.005-19.516.371-27.555 2.492-1.928 3.97-4.131 4.262-7.249.613-6.569 1.645-13.12-3.06-18.913-1.305-1.606-1.961-3.836-2.585-5.882-3.039-9.944 1.854-17.872 12.16-19.489 2.97-.466 4.587-1.234 4.942-4.692.634-6.163-.689-10.395-6.366-13.364-4.52-2.366-9.56-3.74-14.55-5.626 5.831-8.377 14.502-12.197 24.664-12.81 13.436-.813 23.969 5.32 32.93 14.728 1.49 1.561 2.734 3.366 4.301 4.835.774.73 2.05 1.332 3.04 1.252.513-.044 1.205-1.67 1.287-2.625.673-7.888 4.237-14.255 10.053-19.445.99-.884 2.246-1.472 3.404-2.213l2.853 13.361 1.239-.012C91.47 9.21 98.774 3.755 108.339.316c-.2 3.205-.669 6.206-.494 9.169.172 2.839 1.008 5.64 1.658 9 5.44-3.795 10.176-7.734 16.38-7.571-1.336 5.082-2.787 10.031-3.898 15.056-.57 2.579.143 5.023 3.423 4.955 1.2-.025 2.68-.96 3.512-1.928 7.069-8.215 14.906-15.243 25.811-17.945 13.908-3.448 27.908 1.218 35.831 12.29-1.505.37-2.921.603-4.257 1.07-3.45 1.21-7.106 2.095-10.24 3.88-6.639 3.785-7.702 7.36-6.113 15.85.145.766 1.363 1.573 2.25 1.9 1.411.515 2.998.528 4.45.957 8.479 2.496 12.529 9.52 10.107 17.997a34 34 0 0 1-3.873 8.623c-4.312 6.865-2.712 13.936-.945 20.934.392 1.55 2.45 2.783 3.914 3.95 8.94 7.124 9.8 17.99 1.216 25.591-4.775 4.229-10.564 7.402-16.163 10.583-5.143 2.921-8.167 7.191-8.184 12.817-.043 10.642.609 21.287.977 31.934m-36.957-18.317-.041.031a.63.63 0 0 0 .231.589l.646 1.548c2.296 6.026 4.497 12.092 6.91 18.069 2.88 7.137.888 6.872 10.017 6.049l7.548-1.381c3.949-.077 4.977-2.049 4.668-5.893-.756-9.344-1.03-18.727-1.559-28.092-.675-11.939 3.995-20.457 15.182-25.521 4.063-1.84 7.928-4.668 11.083-7.841 4.798-4.829 3.433-12.164-2.424-15.523l-.504 4.135c-4.447-6.957-5.735-14.022-6.897-21.132l-.12-3.793a.58.58 0 0 0 .056-.714l1.815-13.744.701.104 1.022 4.304c1.468-2.568 2.676-4.344 3.547-6.266 3.419-7.564.343-12.624-8.058-12.515-5.008.064-10.118.807-14.98 2.04-12.69 3.218-23.095 10.806-33.455 18.386-1.035.758-2.118 1.452-3.18 2.174l-.491-.573 5.376-7.7 1.323-1.543a.72.72 0 0 0 .333-.498l20.102-16.103-12.222-6.52-.165.027-.886-.655c-14.115-6.62-29.126-7.97-44.265-6.162-8.302.99-16.353 4.07-24.518 6.204-4.809 1.868-9.381 4.098-12.499 7.533l20.092 16.33-.008-.032.724.997 5.657 8.152C71.12 72.008 65.36 67.93 59.433 64.11c-9.18-5.913-19.135-9.866-30.111-10.638-4.648-.327-10.141-.884-12.557 4.093-2.5 5.154.906 9.708 3.778 13.942.108.16.442.165.814.291l.464-4.017c.927 1.967 1.499 3.912 1.726 5.896.446 3.894.702 7.81 1.038 11.718-.757 3.702-1.253 7.486-2.347 11.087-1.117 3.676-2.82 7.174-4.267 10.752l-.824-.382-.237-3.681c-6.607 4.027-6.987 12.283-.638 17.346 3.836 3.057 8.219 5.512 12.579 7.818 8.202 4.335 11.93 11.274 11.8 20.195-.146 10.269-.768 20.534-1.358 30.792-.318 5.521-.483 5.513 4.534 6.685l8.274 1.414c2.633-.212 6.027 2.218 7.627-1.69 3.158-7.711 6.065-15.526 9.075-23.296.129-.181.194-.398.188-.62l.766-1.629 3.064-5.846.914.322c-1.368 13.702-6.195 26.62-10.308 40.049 22.935 0 45.244.002 67.551-.012.359 0 .717-.172.956-.233l-11.15-42.288 1.255-.386 4.156 8.39zm26.133 63.193c-8.422-.417-11.351 2.06-13.345 11.563 5.487-2.913 10.295-6.193 13.287-11.613l.115-.284zm24.468-48.801c-7.217 14.794-20.899 18.172-35.136 19.795l6.795 12.959-1.055 8.493c11.406-.706 21.415-4.129 27.854-13.952 5.995-9.15 5.733-19.266 2.55-29.566zm-159.43-1.16c-.041-.24-.045-.669-.132-.688-.26-.053-.79.025-.801.103-.541 4.222-1.524 8.461-1.451 12.681.251 14.726 8.202 24.782 22.418 28.682 3.268.896 6.7 1.202 10.195 1.804l-1.29-8.666 7.008-13.03c-15.075-1.412-28.769-5.561-35.947-20.886m118.132 51.431.813-1.497c1.212-2.768 2.628-5.469 3.601-8.318 3.129-9.189-.401-14.195-10.123-14.596a45 45 0 0 0-1.901-.037c-20.292-.002-40.584-.023-60.875.029a26.7 26.7 0 0 0-6.01.696c-6.023 1.414-8.39 4.965-6.802 10.917 1.032 3.875 2.866 7.537 4.34 11.297l.764 1.4.572.943c3.3 4.267 5.94 9.35 10.02 12.653 13.42 10.864 28.78 11.76 44.563 6.256 9.734-3.396 16.746-10.261 21.04-19.741zM175.96 20.299c-15.075-6.59-30.6-.822-39.548 14.703l5.252 2.55c6.881-10.224 16.415-16.564 28.282-15.348 1.683.174 3.512-1.069 6.014-1.905m-154.963.642c2.24.423 4.485 1.228 6.72 1.2 6.741-.091 12.875 1.523 17.962 6.01 3.183 2.805 6.003 6.024 9.143 9.22l4.792-2.46c-8.074-14.819-24.7-21.33-38.617-13.97m142.691 7.325c-.635.099-1.721.175-2.756.452-5.347 1.43-8.607 5.196-10.572 10.083-.601 1.493-.931 3.937-.13 4.975 1.662 2.156 3.119 5.114 7.253 3.717 2.772-.938 3.503-2.54 3.889-4.856.762-4.57 1.478-9.15 2.316-14.371m-131.513.208c.619 3.506 1.21 6.815 1.786 10.125.3 1.74.542 3.489.87 5.223.69 3.617 4.169 4.57 6.339 3.844 2.281-.764 5.145-3.718 5.363-5.952.593-6.039-7.954-13.275-14.358-13.24m10.737 195.861c3.349 4.975 7.79 8.799 14.278 11.72-3.513-6.429-4.61-14.136-14.278-11.72" clip-rule="evenodd"/>
  <path fill="#f5a900" fill-rule="evenodd" d="M24.583 85.4c-.336-3.91-.592-7.824-1.038-11.718a18.7 18.7 0 0 0-1.726-5.896l-.465 4.017c-.371-.126-.706-.13-.813-.29-2.872-4.235-6.278-8.79-3.778-13.943 2.415-4.977 7.909-4.42 12.556-4.093 10.977.774 20.934 4.727 30.111 10.638 5.927 3.82 11.687 7.897 18.073 11.472l-5.657-8.152-.725-.995.01.033c-1.246-2.963-2.28-6.035-3.784-8.861-2.51-4.726-6.081-9.097-3.81-15.005 8.165-2.137 16.216-5.213 24.518-6.204 15.139-1.809 30.15-.458 44.265 6.165l.886.652.161-.025c.181 5.211-1.817 9.652-4.443 14.033-1.565 2.611-2.317 5.708-3.434 8.588a.74.74 0 0 1-.33.5l-1.325 1.542-5.376 7.698.491.574c1.061-.722 2.145-1.416 3.179-2.173 10.36-7.581 20.763-15.17 33.456-18.387 4.862-1.233 9.974-1.976 14.98-2.04 8.401-.11 11.477 4.95 8.058 12.515-.871 1.924-2.079 3.7-3.547 6.266l-1.022-4.305-.702-.103-1.815 13.744-.171.21.114.506.119 3.793c-.402 1.08-1.15 2.157-1.158 3.239-.076 8.79.706 17.387 7.449 25.115-5.345 2.717-10.073 5.332-14.978 7.556-4.449 2.019-9.07 3.823-10.667 8.945-1.326 4.253-2.086 8.682-3.089 12.995l-2.471-6.855c-.721 16.713.043 33.072 5.361 48.872l-7.548 1.381c-5.041-7.668-10.068-15.344-15.155-22.98-.357-.535-1.169-.766-1.769-1.138l-.647-1.548.325-.459-.556-.13.044-.031-.554-.925-4.156-8.39-1.255.386 11.151 42.288c-.24.062-.599.233-.956.233-22.307.014-44.614.012-67.551.012 4.11-13.431 8.94-26.347 10.308-40.049l-.915-.322-3.065 5.847-.766 1.628a1.04 1.04 0 0 1-.186.62c-.743.592-1.691 1.049-2.199 1.8a811 811 0 0 0-10.975 16.663c-1.327 2.079-2.362 4.343-3.528 6.524l-8.275-1.415c5.564-15.76 6.256-32.086 5.519-48.602l-2.618 6.837c-.56-11.173-3.886-19.6-15.684-23.048-4.499-1.315-8.409-4.639-11.65-6.505 2.02-5.131 4.319-8.938 4.92-12.998.796-5.333.25-10.862.278-16.302m85.529.84.766-.79 1.866-2.164c-4.847.475-9.567 1.317-14.282 1.292-4.757-.026-9.511-.914-14.266-1.422l-.99-.277.99.275 1.52 3.053c8.476 9.635 15.558 9.827 24.084.647.165-.178.246-.434.366-.653zm-47.28 51.066 9.092-5.619c2.042-4.014 4.478-7.891 5.95-12.103.702-2.013 1.084-3.119 3.275-3.695 4.808-1.259 7.28-4.505 7.157-8.69l-4.816.589c-5.153-2.926-9.057-6.991-12.226-12.045-1.763-2.812-4.507-5.111-7.108-7.281-5.544-4.625-12.484-5.678-19.266-5.822-4.166-.087-8.376 1.895-12.565 2.948-.128.126-.268.138-.421.047l-1.105.471-.212.31c-.019.103.035.301.103.326 1.507.535 3.02 1.053 4.798 1.668-4.04 5.073-3.532 9.891-.446 15.16l1.602-5.642.772.072.39 3.988.51 1.77.298 1.183c-.42 12.783 11.012 21.989 28.009 21.675l-3.78 10.703-.174.307zm70.184-.002.301.182-.314-.17-3.646-10.82c19.809 1.958 27.937-11.509 28.652-23.81l.782-4.643.644.025 1.487 5.527c2.993-5.323 3.763-10.172-.426-15.084l4.972-1.953-2.069-.811c-1.011-.615-1.98-1.672-3.039-1.77-4.567-.429-9.181-.988-13.735-.736-9.047.5-16.493 4.442-21.595 12.069-3.392 5.07-7.046 9.736-12.67 12.476l-5.209-.591c.832 4.959 3.659 7.538 8.005 8.913 1.028.326 2.068 1.43 2.574 2.444 2.172 4.327 4.148 8.754 6.194 13.145z" clip-rule="evenodd"/>
  <path fill="#f5a800" fill-rule="evenodd" d="M59.086 224.264c-1.474-3.757-3.308-7.42-4.34-11.297-1.588-5.952.778-9.503 6.802-10.917a26.8 26.8 0 0 1 6.01-.696c20.292-.049 40.585-.031 60.875-.029q.951-.001 1.901.038c9.722.398 13.252 5.407 10.122 14.596-.97 2.849-2.386 5.549-3.6 8.318l-.814 1.496-.002.005c-2.624 1.705-5.177 3.532-7.886 5.091-6.811 3.908-14.233 5.679-22.008 6.612-10.634 1.278-21.008.469-30.96-3.346-5.13-1.968-9.857-4.986-14.767-7.528l-.572-.943zm73.079-6.14.836-1.503c2.325-5.987 1.285-7.609-5.043-7.684-4.699-.051-9.402-.091-14.101.013-4.56.099-5.574 1.573-4.358 5.939.549 2.28.782 4.701 1.714 6.813 2.368 5.382 6.649 8.386 10.44 7.752 5.159-.86 9.786-5.85 10.535-11.361zm-68.502-.004-.01-.018c.86 5.723 4.32 9.245 9.64 10.968 3.752 1.214 7.053-.479 8.876-3.406 1.99-3.198 2.878-7.081 4.247-10.667 1.304-4.468.384-5.897-4.158-6.031-4.057-.122-8.12-.058-12.181-.025-8.716.069-8.886.279-7.205 8.393z" clip-rule="evenodd"/>
  <path fill="#e08700" fill-rule="evenodd" d="M24.584 85.398c-.03 5.44.518 10.97-.273 16.296-.603 4.061-2.9 7.868-4.92 12.998 3.242 1.866 7.152 5.19 11.65 6.505 11.797 3.448 15.125 11.875 15.684 23.048l2.618-6.837c.735 16.516.044 32.84-5.518 48.603-5.017-1.171-4.852-1.163-4.534-6.685.593-10.257 1.212-20.524 1.359-30.793.13-8.92-3.599-15.859-11.801-20.195-4.36-2.304-8.741-4.758-12.58-7.818-6.348-5.064-5.968-13.318.639-17.346l.237 3.681.824.382c1.447-3.576 3.15-7.075 4.267-10.752 1.094-3.6 1.59-7.383 2.348-11.087m127.469 100.619c-5.318-15.802-6.082-32.161-5.362-48.871l2.472 6.854c1.001-4.315 1.763-8.743 3.088-12.994 1.598-5.12 6.218-6.927 10.668-8.946 4.903-2.223 9.633-4.837 14.978-7.556-6.743-7.727-7.526-16.324-7.449-25.115.008-1.082.755-2.16 1.158-3.24 1.162 7.111 2.451 14.178 6.898 21.133l.503-4.135c5.855 3.359 7.222 10.694 2.424 15.523-3.152 3.175-7.017 6.002-11.082 7.841-11.19 5.064-15.86 13.583-15.183 25.522.529 9.364.803 18.748 1.559 28.092.306 3.844-.723 5.815-4.672 5.892m27.111-78.26-.105.202.159.021z" clip-rule="evenodd"/>
  <path fill="#e08600" fill-rule="evenodd" d="M60.423 226.607c4.91 2.542 9.638 5.56 14.768 7.528 9.949 3.815 20.325 4.624 30.959 3.346 7.775-.933 15.197-2.704 22.008-6.613 2.711-1.556 5.262-3.385 7.886-5.091-4.294 9.481-11.305 16.345-21.039 19.741-15.783 5.504-31.143 4.606-44.563-6.255-4.079-3.306-6.72-8.388-10.019-12.656" clip-rule="evenodd"/>
  <path fill="#ebebeb" fill-rule="evenodd" d="M17.915 174.342c7.18 15.325 20.873 19.474 35.948 20.889l-7.01 13.029c-18.033-1.474-29.652-15.092-28.938-33.918m131.089 33.916q-3.395-6.481-6.795-12.959c14.237-1.625 27.919-5.003 35.136-19.795.228.937.68 1.881.647 2.81-.533 15.494-11.159 28.542-28.988 29.944" clip-rule="evenodd"/>
  <path fill="#c7c6c6" fill-rule="evenodd" d="M17.915 174.343c-.714 18.826 10.905 32.442 28.938 33.916l1.29 8.667c-3.497-.603-6.926-.909-10.194-1.805-14.216-3.897-22.167-13.956-22.419-28.682-.072-4.218.91-8.456 1.452-12.68.01-.081.54-.159.8-.103.087.018.092.448.133.687m131.088 33.916c17.83-1.402 28.456-14.45 28.99-29.946.033-.929-.421-1.872-.646-2.81l1.008-2.271c3.183 10.3 3.445 20.416-2.55 29.566-6.439 9.825-16.448 13.246-27.854 13.952z" clip-rule="evenodd"/>
  <path fill="#f0a500" fill-rule="evenodd" d="M175.96 20.298c-2.502.837-4.331 2.08-6.014 1.906-11.867-1.216-21.399 5.124-28.282 15.347l-5.252-2.55c8.948-15.524 24.473-21.293 39.548-14.703m-154.963.642c13.917-7.36 30.543-.848 38.617 13.969l-4.792 2.459c-3.14-3.196-5.962-6.413-9.143-9.22-5.087-4.485-11.221-6.101-17.962-6.01-2.236.03-4.48-.774-6.72-1.198" clip-rule="evenodd"/>
  <path fill="#de8500" fill-rule="evenodd" d="M163.689 28.266c-.841 5.22-1.555 9.8-2.317 14.37-.386 2.317-1.117 3.92-3.889 4.856-4.131 1.398-5.591-1.56-7.253-3.716-.801-1.038-.473-3.483.13-4.975 1.963-4.887 5.223-8.653 10.572-10.083 1.035-.277 2.121-.353 2.757-.452m-131.514.208c6.404-.035 14.951 7.2 14.359 13.242-.22 2.234-3.083 5.188-5.364 5.952-2.17.727-5.649-.227-6.338-3.844-.328-1.734-.57-3.485-.871-5.223-.576-3.312-1.167-6.621-1.786-10.127" clip-rule="evenodd"/>
  <path fill="#e08600" fill-rule="evenodd" d="M63.539 42.606c-2.271 5.908 1.3 10.279 3.81 15.004 1.502 2.827 2.538 5.897 3.785 8.861l-20.092-16.33c3.114-3.437 7.686-5.667 12.497-7.535" clip-rule="evenodd"/>
  <path fill="#de8600" fill-rule="evenodd" d="M125.491 65.814c1.117-2.88 1.868-5.976 3.433-8.588 2.626-4.383 4.625-8.822 4.443-14.033 4.131 2.2 8.258 4.4 12.226 6.518zm2.089 97.466c.601.372 1.412.603 1.769 1.138 5.087 7.636 10.114 15.312 15.156 22.98-9.129.823-7.137 1.088-10.017-6.049-2.411-5.977-4.612-12.043-6.908-18.069m-75.483 24.143c1.169-2.181 2.2-4.445 3.528-6.524A822 822 0 0 1 66.6 164.236c.508-.752 1.456-1.208 2.2-1.8-3.013 7.771-5.92 15.585-9.076 23.296-1.6 3.908-4.995 1.478-7.627 1.691" clip-rule="evenodd"/>
  <path fill="#eca200" fill-rule="evenodd" d="M42.912 224.335c9.668-2.416 10.764 5.291 14.278 11.72-6.488-2.923-10.931-6.745-14.278-11.72m109.907-.081c-2.992 5.418-7.8 8.7-13.288 11.613 1.997-9.503 4.926-11.98 13.345-11.563zm.057.05.056-.337-.113.287z" clip-rule="evenodd"/>
  <path fill="#de8600" fill-rule="evenodd" d="m126.702 161.141.556.13-.324.458a.62.62 0 0 1-.232-.588" clip-rule="evenodd"/>
  <path fill="#e08700" fill-rule="evenodd" d="m171.484 82.357-.114-.506.172-.21a.59.59 0 0 1-.058.716" clip-rule="evenodd"/>
  <path fill="#49330e" fill-rule="evenodd" d="M123.926 131.695c-2.046-4.389-4.022-8.818-6.194-13.145-.506-1.012-1.546-2.118-2.574-2.444-4.346-1.377-7.172-3.956-8.004-8.913l5.208.591c.979.068 1.978.303 2.93.175 4.556-.617 7.667-3.503 10.696-6.695 10.149-10.703 22.055-17.315 37.417-15.517l2.069.811-4.971 1.953c4.187 4.912 3.419 9.761.425 15.084l-1.486-5.527-.645-.025-.782 4.645c-2.184 5.131-4.263 10.311-9.592 13.189-7.754 4.186-15.539 6.018-23.382.454-3.351 5.091-1.371 10.283-1.115 15.364m25.668-28.78v-9.554c-8.039 4.732-14.902 9.332-20.402 15.719l-2.269 2.742c7.676 5.756 22.687 1.969 22.671-8.907" clip-rule="evenodd"/>
  <path fill="#49330f" fill-rule="evenodd" d="m38.612 104.937-.297-1.183-.51-1.769-.39-3.99-.773-.071-1.602 5.642c-3.086-5.269-3.594-10.087.446-15.16-1.777-.613-3.29-1.131-4.798-1.668-.068-.025-.124-.223-.103-.326l.213-.31 1.104-.47c.15.09.293.078.421-.048 5.752.632 11.683.59 17.216 2.05 8.69 2.294 15.4 8.052 21.403 14.619 3.338 3.65 7.174 6.39 12.546 5.531l4.817-.589c.121 4.187-2.35 7.431-7.158 8.69-2.19.576-2.572 1.682-3.274 3.695-1.472 4.214-3.909 8.089-5.95 12.101.51-5.141 2.258-10.377-1.12-15.429-4.087 3.054-8.544 4.173-13.365 3.308-8.79-1.582-15.3-6.206-18.826-14.623m28.102 4.073c-5.504-6.369-12.35-10.977-20.38-15.655v9.548c.127 11.107 15.295 14.629 22.554 9.012-.217-.399-.399-.859-.69-1.233-.456-.588-.986-1.119-1.484-1.672" clip-rule="evenodd"/>
  <path fill="#e08700" fill-rule="evenodd" d="M123.926 131.696c-.256-5.083-2.236-10.273 1.113-15.366 7.843 5.562 15.628 3.732 23.382-.454 5.329-2.88 7.408-8.058 9.592-13.188-.714 12.298-8.844 25.765-28.651 23.808l3.646 10.82.01-.013zm-85.314-26.758c3.526 8.417 10.033 13.041 18.828 14.623 4.82.867 9.278-.254 13.366-3.308 3.375 5.052 1.627 10.288 1.119 15.429l-9.092 5.623.01.011 3.78-10.703c-16.997.314-28.43-8.892-28.011-21.675" clip-rule="evenodd"/>
  <path fill="#de8600" fill-rule="evenodd" d="M83.49 107.784c-5.371.858-9.207-1.881-12.546-5.531-6.003-6.567-12.713-12.325-21.403-14.62-5.532-1.46-11.464-1.42-17.216-2.05 4.19-1.052 8.399-3.036 12.563-2.947 6.782.144 13.723 1.197 19.266 5.822 2.603 2.17 5.345 4.47 7.108 7.281 3.171 5.054 7.075 9.119 12.228 12.045" clip-rule="evenodd"/>
  <path fill="#df8600" fill-rule="evenodd" d="M163.402 85.747c-15.36-1.798-27.269 4.815-37.418 15.517-3.026 3.192-6.14 6.078-10.696 6.696-.952.13-1.951-.108-2.93-.176 5.624-2.74 9.28-7.405 12.67-12.476 5.102-7.626 12.549-11.57 21.595-12.069 4.557-.252 9.169.31 13.735.737 1.064.101 2.032 1.156 3.044 1.771m-77.688.459-1.52-3.054v.002c4.755.51 9.507 1.396 14.266 1.423 4.715.025 9.435-.818 14.282-1.293l-1.864 2.164-.766.79.052-.043c-4.761.802-9.509 2.106-14.289 2.23-3.365.091-6.773-1.422-10.161-2.22" clip-rule="evenodd"/>
  <path fill="#52380b" fill-rule="evenodd" d="M85.714 86.206c3.388.798 6.796 2.31 10.16 2.22 4.778-.125 9.527-1.428 14.288-2.229-.12.22-.201.475-.366.653-8.524 9.183-15.603 8.99-24.082-.644" clip-rule="evenodd"/>
  <path fill="#47310d" fill-rule="evenodd" d="M109.499 214.889c-1.216-4.366-.202-5.84 4.358-5.94 4.699-.103 9.402-.064 14.101-.012 6.328.074 7.37 1.697 5.044 7.684l-.837 1.503.021-.031c-1.098 1.189-2.166 2.409-3.303 3.564-5.157 5.235-10.814 4.897-15.278-.948-1.439-1.885-2.741-3.875-4.106-5.82" clip-rule="evenodd"/>
  <path fill="#47310e" fill-rule="evenodd" d="M62.872 217.331c-1.68-8.115-1.511-8.326 7.205-8.392 4.061-.033 8.124-.097 12.18.025 4.543.134 5.463 1.565 4.159 6.03-1.54 2.164-3.002 4.39-4.637 6.481-3.826 4.891-9.257 5.198-13.822.846-1.454-1.385-2.872-2.814-4.307-4.22l.008.019z" clip-rule="evenodd"/>
  <path fill="#dc8400" fill-rule="evenodd" d="M63.652 218.101c1.435 1.408 2.853 2.835 4.307 4.22 4.564 4.35 9.996 4.044 13.822-.846 1.635-2.092 3.096-4.317 4.636-6.481-1.368 3.586-2.254 7.47-4.246 10.667-1.825 2.928-5.124 4.621-8.876 3.407-5.322-1.722-8.782-5.244-9.643-10.967" clip-rule="evenodd"/>
  <path fill="#de8500" fill-rule="evenodd" d="M109.499 214.889c1.364 1.942 2.667 3.933 4.106 5.82 4.464 5.844 10.12 6.183 15.278.947 1.137-1.154 2.202-2.374 3.303-3.563-.75 5.51-5.376 10.5-10.535 11.361-3.789.634-8.073-2.37-10.441-7.752-.927-2.112-1.162-4.534-1.711-6.813" clip-rule="evenodd"/>
  <path fill="#493310" fill-rule="evenodd" d="m179.164 107.758.054.223-.159-.021z" clip-rule="evenodd"/>
  <path fill="#ebebeb" fill-rule="evenodd" d="M129.192 109.083c5.5-6.39 12.365-10.99 20.402-15.72v9.555c-3.316 4.226-7.063 8-12.835 7.994-2.523-.007-5.046-1.185-7.567-1.829" clip-rule="evenodd"/>
  <path fill="#c5c4c3" fill-rule="evenodd" d="M129.192 109.083c2.523.644 5.044 1.823 7.567 1.827 5.772.008 9.519-3.766 12.835-7.994.016 10.876-14.995 14.662-22.671 8.906z" clip-rule="evenodd"/>
  <path fill="#ebebeb" fill-rule="evenodd" d="M46.333 102.902v-9.549c8.029 4.68 14.877 9.287 20.38 15.656-3.17 2.859-9.603 2.948-14.248-.242-2.302-1.579-4.105-3.887-6.132-5.865" clip-rule="evenodd"/>
  <path fill="#c5c4c3" fill-rule="evenodd" d="M46.333 102.9c2.027 1.978 3.83 4.288 6.132 5.868 4.645 3.189 11.078 3.101 14.249.241.5.556 1.03 1.084 1.484 1.673.291.373.473.832.69 1.232-7.259 5.616-22.427 2.093-22.555-9.014" clip-rule="evenodd"/>
</svg>
