<svg xmlns="http://www.w3.org/2000/svg" width="212" height="256" fill="none" viewBox="0 0 212 256">
  <g clip-path="url(#a)">
    <path fill="#48a2ad" d="m205.087 137.679-1.469.826a9.18 9.18 0 0 0-2.845-6.242 11.206 11.206 0 0 0-15.985-2.37 11.2 11.2 0 0 0-3.566 4.757c-.459 1.01 6.517 10.097 6.242 11.106a18.35 18.35 0 0 0-9.913 10.923c.917-4.314-2.295-6.333-7.16-4.773a15.4 15.4 0 0 0-6.43 3.988 15.4 15.4 0 0 0-3.758 6.567c.642-4.314-2.846-6.608-7.802-5.415a12.94 12.94 0 0 0-9.913 9.729c.459-4.222-3.304-6.975-8.353-6.149a10.734 10.734 0 0 0-9.178 9.178c0-4.314-3.764-7.343-9.179-7.067a9.18 9.18 0 0 0-9.179 8.077 9.18 9.18 0 0 0-9.179-7.802c-5.048 0-9.178 2.937-9.178 7.16a10.83 10.83 0 0 0-9.73-9.179c-5.048-.643-9.178 2.111-8.169 6.425a12.95 12.95 0 0 0-10.096-9.638c-4.957-1.101-8.445 1.377-7.619 5.691a15.6 15.6 0 0 0-10.463-10.188c-4.865-1.561-8.078.55-7.068 4.864-1.01-4.314-11.84-22.487-13.034-25.149-3.212-7.435-9.178-9.73-14.594-4.957a11.02 11.02 0 0 0-2.386 10.739c-3.397-.918-5.14.735-3.855 4.314 6.792 20.01 13.584 40.203 19.183 60.58a56.26 56.26 0 0 0 11.84 26.526A59.2 59.2 0 0 0 49.6 240.664a146.8 146.8 0 0 0 56.725 10.28c21.903.23 43.537-4.84 63.058-14.778a33.13 33.13 0 0 0 16.062-15.879c4.865-12.299 8.445-25.241 12.208-37.541 4.314-14.043 7.526-28.913 13.034-42.038 1.377-4.039-1.194-5.507-5.599-3.029"/>
    <path fill="url(#b)" d="M105.681 194.04c53.42 0 96.836-17.44 96.836-38.918s-43.324-38.918-96.836-38.918-96.835 17.44-96.835 38.918 43.323 38.918 96.835 38.918"/>
    <path fill="url(#c)" d="M187.922 99.587a29.8 29.8 0 0 0-6.7-5.048s-61.681 20.01-104.637 17.899-36.715-6.884-58.377 6.884c0 0-5.966 8.536 1.285 13.768a132.4 132.4 0 0 0 34.696 16.613 8.16 8.16 0 0 1 4.497-1.927c40.937-14.136 120.608 3.946 129.236-48.189"/>
    <path fill="#eb5e8e" d="M187.831 99.59c-8.628 52.043-88.208 34.053-129.145 48.28a8.45 8.45 0 0 0-4.59 1.927c33.044 10.648 73.431 12.851 100.416 3.855 33.869-11.289 49.198-37.999 33.319-54.062"/>
    <path fill="url(#d)" d="M170.391 61.132a28.64 28.64 0 0 1 11.749 24.874c0 18.358-14.961 41.121-81.14 34.512-66.178-6.609-82.608-1.01-82.608-1.01S-1.71 91.972 40.237 91.972c37.633 0 93.531 4.59 106.657-3.763 19.734-12.116 20.468-12.483 23.497-27.077"/>
    <path fill="#f77ca5" d="M94.024 47.822C114.31 35.156 113.3 16.614 103.203.92a2.57 2.57 0 0 0-1.193 3.213 18.36 18.36 0 0 1 .642 17.164c-5.874 8.26-16.613 10.372-34.328 20.193S45.01 59.846 43.817 71.044a2.84 2.84 0 0 0 1.468 2.57A57.6 57.6 0 0 0 56.3 77.47c6.333-14.685 24.14-22.396 37.724-29.647"/>
    <path fill="url(#e)" d="M138.449 24.23A99 99 0 0 0 106.14.826a2.75 2.75 0 0 0-2.57 0c9.73 15.696 10.831 34.145-9.178 46.903C80.899 54.428 63 62.69 57.034 77.376a113.8 113.8 0 0 0 24.69 3.304c25.977.734 60.856-.643 66.822-10.831s.642-34.053-10.097-45.618"/>
    <path fill="#f79ebc" d="M168.372 57.644a25.4 25.4 0 0 0 1.102-3.764 41.03 41.03 0 0 0-23.222-13.951C163.875 77.56 71.904 69.392 45.745 70.953a25.79 25.79 0 0 0-21.111 10.922A124 124 0 0 1 42.99 75.36c41.213-9.822 107.942 31.391 125.381-17.715"/>
    <path fill="url(#f)" d="M172.319 59.754a18.4 18.4 0 0 0-2.57-5.874 18.5 18.5 0 0 1-1.193 3.763c-17.624 49.106-84.353 7.894-125.473 17.715a125.5 125.5 0 0 0-18.358 6.517 30.47 30.47 0 0 0-4.956 15.512c26.802-8.17 46.628 0 98.212.826s58.009-23.038 54.338-38.459"/>
    <path fill="url(#g)" d="M205.087 152.368a21.84 21.84 0 0 0-10.831 11.473c1.285-4.222-1.652-5.966-6.425-4.222a18.34 18.34 0 0 0-10.739 10.556c1.009-4.131-2.111-6.15-7.068-4.773a14.68 14.68 0 0 0-10.831 9.637c.735-4.038-2.662-6.333-7.71-5.415a12.4 12.4 0 0 0-10.005 9.179c.459-3.947-3.212-6.609-8.261-6.058a10.28 10.28 0 0 0-9.637 8.077c0-3.947-3.672-6.884-8.72-6.792-5.048.091-9.179 3.396-9.179 7.343a9.176 9.176 0 0 0-9.178-7.527c-5.049 0-9.18 2.662-9.18 6.609a10.46 10.46 0 0 0-9.178-8.261c-5.048-.643-9.178 1.927-8.352 5.966a12.39 12.39 0 0 0-9.913-9.179c-4.957-1.009-8.445 1.194-7.71 5.232a14.97 14.97 0 0 0-10.28-9.821c-4.865-1.469-8.078.459-7.16 4.589a18.36 18.36 0 0 0-10.464-10.739c-4.773-1.836-7.71 0-6.517 4.131a22.12 22.12 0 0 0-10.647-11.657c-4.681-2.295-7.343-.826-5.966 3.488 5.599 13.033 9.179 27.536 13.125 41.212a371 371 0 0 0 12.3 35.613 27.54 27.54 0 0 0 16.063 13.677 158.4 158.4 0 0 0 62.874 11.198 174.4 174.4 0 0 0 56.724-8.078 55.6 55.6 0 0 0 17.348-8.536 47.36 47.36 0 0 0 11.932-24.599c5.691-19.918 12.483-39.285 19.184-58.835 1.468-4.131-1.102-5.599-5.599-3.488"/>
  </g>
  <defs>
    <linearGradient id="c" x1="15.913" x2="187.922" y1="122.167" y2="122.167" gradientUnits="userSpaceOnUse">
      <stop stop-color="#ff85ae"/>
      <stop offset=".32" stop-color="#ff7da9"/>
      <stop offset=".82" stop-color="#ff669a"/>
      <stop offset="1" stop-color="#ff5c93"/>
    </linearGradient>
    <linearGradient id="d" x1="13.711" x2="182.14" y1="91.422" y2="91.422" gradientUnits="userSpaceOnUse">
      <stop stop-color="#ffb0cb"/>
      <stop offset=".79" stop-color="#f383a9"/>
      <stop offset="1" stop-color="#f0769f"/>
    </linearGradient>
    <linearGradient id="e" x1="86.865" x2="155.522" y1="40.752" y2="40.752" gradientUnits="userSpaceOnUse">
      <stop stop-color="#f697b7"/>
      <stop offset=".34" stop-color="#f78fb2"/>
      <stop offset=".86" stop-color="#f878a3"/>
      <stop offset="1" stop-color="#f9719f"/>
    </linearGradient>
    <linearGradient id="f" x1="19.86" x2="173.145" y1="76.001" y2="76.001" gradientUnits="userSpaceOnUse">
      <stop stop-color="#f78fb2"/>
      <stop offset=".27" stop-color="#f887ad"/>
      <stop offset=".7" stop-color="#fc709f"/>
      <stop offset="1" stop-color="#ff5c93"/>
    </linearGradient>
    <linearGradient id="g" x1="105.957" x2="105.957" y1="167.421" y2="246.174" gradientUnits="userSpaceOnUse">
      <stop stop-color="#4fe8ff"/>
      <stop offset=".5" stop-color="#4bddf3"/>
      <stop offset="1" stop-color="#45cee3"/>
    </linearGradient>
    <radialGradient id="b" cx="0" cy="0" r="1" gradientTransform="matrix(0 57.3669 -89.8596 0 87.002 168.408)" gradientUnits="userSpaceOnUse">
      <stop offset=".47" stop-color="#7a4c33"/>
      <stop offset="1" stop-color="#52423c"/>
    </radialGradient>
    <clipPath id="a">
      <path fill="#ebebeb" d="M0 0h212v256H0z"/>
    </clipPath>
  </defs>
</svg>
