<svg xmlns="http://www.w3.org/2000/svg" width="197" height="256" fill="none" viewBox="0 0 197 256"><g clip-path="url(#a)"><path fill="url(#b)" d="M195.998 84.299c0-15.042-3.939-29.144-10.878-41.365-18.399-18.936-58.42-23.323-68.359-.09-10.206 23.817 17.146 50.319 29.099 48.214 15.221-2.685-2.686-37.604-2.686-37.604 23.278 43.872 17.907 30.441-24.174 70.732-42.08 40.29-85.056 125.301-91.323 128.883a5 5 0 0 1-.851.447H191.88c2.909 0 4.789-3.088 3.491-5.685l-43.155-85.415a3.907 3.907 0 0 1 1.522-5.148c25.25-14.504 42.26-41.723 42.26-72.97"/><path fill="url(#c)" d="M195.998 84.299c0-15.042-3.939-29.144-10.878-41.365-18.399-18.936-58.42-23.323-68.359-.09-10.206 23.817 17.146 50.319 29.099 48.214 15.221-2.685-2.686-37.604-2.686-37.604 23.278 43.872 17.907 30.441-24.174 70.732-42.08 40.29-85.056 125.301-91.323 128.883a5 5 0 0 1-.851.447H191.88c2.909 0 4.789-3.088 3.491-5.685l-43.155-85.415a3.907 3.907 0 0 1 1.522-5.148c25.25-14.504 42.26-41.723 42.26-72.97"/><path fill="url(#d)" d="M27.677 253.069c6.266-3.582 49.242-88.637 91.323-128.928s47.452-26.86 24.174-70.73c0 0-89.086 124.897-121.318 186.675"/><path fill="url(#e)" d="M40.21 141.152c60.167-110.616 68.046-121.764 99.382-121.764 16.475 0 33.083 7.431 43.827 20.638C168.781 16.434 142.86.63 113.181.184H10.978a3.897 3.897 0 0 0-3.895 3.894v206.016c6.089-15.713 16.43-38.186 33.128-68.941z"/><path fill="url(#f)" d="M119 124.14c-42.08 40.29-85.056 125.346-91.323 128.928-6.268 3.581-16.788 4.029-22.384-2.239-5.954-6.67-15.221-17.458 34.918-109.677 60.166-110.618 68.045-121.765 99.381-121.765 16.475 0 33.083 7.43 43.827 20.637.582.94 1.164 1.925 1.746 2.91-18.4-18.936-58.42-23.323-68.358-.09-10.208 23.816 17.145 50.318 29.098 48.214 15.22-2.686-2.686-37.604-2.686-37.604C166.452 97.28 161.081 83.85 119 124.14"/><path fill="url(#g)" d="M45.135 146.076c60.166-110.619 68.046-121.765 99.381-121.765 13.565 0 27.219 5.059 37.605 14.19-10.744-12.265-26.681-19.114-42.528-19.114-31.337 0-39.216 11.147-99.382 121.764-50.14 92.22-40.873 103.009-34.919 109.68.85.94 1.836 1.746 2.866 2.417-5.239-7.611-7.566-25.294 36.977-107.172" opacity=".3"/></g><defs><linearGradient id="b" x1="72.205" x2="142.059" y1="136.251" y2="145.362" gradientUnits="userSpaceOnUse"><stop stop-color="#ff6533"/><stop offset=".157" stop-color="#ff5633"/><stop offset=".434" stop-color="#ff4333"/><stop offset=".714" stop-color="#ff3733"/><stop offset="1" stop-color="#f33"/></linearGradient><linearGradient id="c" x1="61.422" x2="200.41" y1="113.398" y2="173.524" gradientUnits="userSpaceOnUse"><stop stop-color="#bf3338"/><stop offset="1" stop-color="#f33"/></linearGradient><linearGradient id="d" x1="65.453" x2="87.342" y1="132.268" y2="142.776" gradientUnits="userSpaceOnUse"><stop stop-color="#ff6533"/><stop offset=".157" stop-color="#ff5633"/><stop offset=".434" stop-color="#ff4333"/><stop offset=".714" stop-color="#ff3733"/><stop offset="1" stop-color="#f33"/></linearGradient><linearGradient id="e" x1="98.009" x2="90.418" y1="164.637" y2="87.857" gradientUnits="userSpaceOnUse"><stop stop-color="#ff6533"/><stop offset=".157" stop-color="#ff5633"/><stop offset=".434" stop-color="#ff4333"/><stop offset=".714" stop-color="#ff3733"/><stop offset="1" stop-color="#f33"/></linearGradient><linearGradient id="f" x1="74.737" x2="102.557" y1="130.949" y2="142.505" gradientUnits="userSpaceOnUse"><stop stop-color="#fbb040"/><stop offset="1" stop-color="#fb8840"/></linearGradient><linearGradient id="g" x1="100.795" x2="58.125" y1="33.156" y2="316.25" gradientUnits="userSpaceOnUse"><stop stop-color="#ebebeb"/><stop offset="1" stop-color="#ebebeb" stop-opacity="0"/></linearGradient><clipPath id="a"><path fill="#ebebeb" d="M.081 0h196.394v256H.081z"/></clipPath></defs></svg>
