<svg xmlns="http://www.w3.org/2000/svg" width="256" height="250" fill="none" viewBox="0 0 256 250"><g clip-path="url(#a)"><path fill="#001e36" d="M45.223 0H210.18c25.002 0 45.223 20.221 45.223 45.223v158.581c0 25.002-20.221 45.223-45.223 45.223H45.223C20.221 249.027 0 228.806 0 203.804V45.224C0 20.22 20.221 0 45.223 0"/><path fill="#65a8f9" d="M128.601 180.213h-66.89q-1.698 0-1.697-1.867V70.542a1.352 1.352 0 0 1 1.528-1.529h20.712a1.05 1.05 0 0 1 1.144.709c.052.154.067.319.044.48v88.62h48.724q1.529 0 1.188 1.528l-3.055 18.335a1.62 1.62 0 0 1-.679 1.274c-.315.163-.664.25-1.019.254M145.407 95.837h18.505a2.304 2.304 0 0 1 2.206 1.698c.404.744.691 1.546.85 2.377q.354 1.64.509 3.311.167 1.782.17 3.82c3.173-3.696 7-6.775 11.289-9.083a31.8 31.8 0 0 1 15.704-3.82 1.35 1.35 0 0 1 1.528 1.528v20.542q0 1.19-1.698 1.188a42.86 42.86 0 0 0-19.948 3.566 18 18 0 0 0-5.687 3.904v53.818q0 1.528-1.358 1.528h-20.542a1.5 1.5 0 0 1-1.274-.425 1.496 1.496 0 0 1-.424-1.273v-58.401q0-3.733-.085-7.894a406 406 0 0 0-.255-8.234 54 54 0 0 0-.679-6.96.977.977 0 0 1 1.189-1.19"/></g><defs><clipPath id="a"><path fill="#ebebeb" d="M0 0h256v250H0z"/></clipPath></defs></svg>
