<svg width="256" height="256" viewBox="0 0 256 256" fill="none" xmlns="http://www.w3.org/2000/svg">
<g clip-path="url(#clip0_21_2211)">
<path d="M31.284 45.0867C43.2944 31.0877 58.1927 19.8541 74.9554 12.1577C91.7182 4.46128 109.948 0.484343 128.393 0.500046C199.156 0.500046 256.5 57.844 256.5 128.596C256.5 167.423 239.22 202.228 211.913 225.716L31.2947 45.0867H31.284ZM19.8813 60.5107L196.479 237.108C190.889 240.628 185.012 243.721 178.879 246.345L10.644 78.1214C13.2787 71.988 16.372 66.1 19.8813 60.5107ZM3.93467 98.2387L158.761 253.065C151.188 254.9 143.369 256.073 135.348 256.5L0.5 121.652C0.919464 113.758 2.06927 105.92 3.93467 98.2387ZM2.12133 150.1L106.9 254.889C80.7347 250.419 56.6019 237.938 37.8322 219.168C19.0624 200.398 6.58107 176.265 2.11067 150.1H2.12133Z" fill="white"/>
</g>
<defs>
<clipPath id="clip0_21_2211">
<rect width="256" height="256" fill="white"/>
</clipPath>
</defs>
</svg>
