<svg width="257" height="200" viewBox="0 0 257 200" fill="none"
  xmlns="http://www.w3.org/2000/svg">
  <g clip-path="url(#clip0_20_858)">
    <path d="M153.062 31.2437C150.852 33.4544 149.083 35.6651 148.199 38.3179C147.757 39.6444 147.314 40.5286 147.757 40.9708C148.199 43.1815 154.389 44.0658 156.599 44.0658L175.612 44.9501L190.202 46.7186L191.086 47.6029C191.086 48.9293 189.76 49.3715 188.876 49.3715H184.897C184.012 49.3715 182.686 50.2558 182.686 51.5822L181.359 65.2886H182.244L187.549 62.1936L192.413 59.5407C198.161 56.8879 203.466 52.4665 208.33 48.0451C211.867 44.9501 214.962 41.8551 216.289 37.4337C217.615 33.0122 214.52 29.4751 210.099 28.5908" stroke="#AB7F45" stroke-width="0.442142"/>
    <path d="M210.099 28.5911L203.909 27.7069L188.876 28.149C187.549 28.149 187.107 27.7069 187.549 26.3804L188.876 24.1697L196.834 17.5376L204.793 10.4633L209.656 5.15763V4.71549C201.428 4.46253 193.254 6.12762 185.781 9.57905C175.612 14.0005 165.884 19.7483 157.484 27.2647L153.062 31.244" stroke="#AB9655" stroke-width="0.442142"/>
    <path d="M210.541 28.5908L210.099 29.033V29.4751L207.888 34.7808L205.235 36.9915L199.487 39.6444L188.434 41.8551H180.917L174.285 40.9708L163.232 38.3179L160.137 36.9915L157.484 35.6651L155.273 33.4544L154.831 33.0122L154.389 32.5701L153.947 32.128L153.504 31.2437" stroke="#FFD259" stroke-width="0.442142"/>
    <path d="M14.2298 97.124L20.4198 95.3555" stroke="#AB836A" stroke-width="0.442142"/>
    <path d="M19.9777 95.3538L37.2212 87.8374L39.874 87.3952C43.8533 86.9531 43.8533 92.7009 44.2955 95.3538C44.2955 99.333 45.1797 103.312 46.9483 106.407C48.7169 109.502 52.254 110.387 55.7911 110.387C60.6547 109.944 65.5183 109.502 70.3818 108.176L86.2989 105.081L91.6046 103.754L94.2575 103.312C96.9103 103.754 97.7946 106.407 98.2367 108.618L98.6789 114.366C98.6789 115.692 98.2367 116.134 96.9103 116.577C96.026 116.577 94.6996 115.692 94.6996 114.808V112.597" stroke="#AB806F" stroke-width="0.442142"/>
    <path d="M95.1418 112.597L94.6996 110.387" stroke="#A4655A" stroke-width="0.442142"/>
    <path d="M94.6996 110.388L94.2575 107.735L93.8153 107.293L92.4889 107.735" stroke="#825451" stroke-width="0.442142"/>
    <path d="M92.0468 107.734L69.0554 112.597L58.0019 113.924C52.254 114.366 46.9483 113.924 43.8533 108.618C42.5269 106.407 41.2005 104.197 40.7583 101.544L39.8741 97.5645" stroke="#A4655A" stroke-width="0.442142"/>
    <path d="M40.3162 97.565V91.375H39.874L27.9362 96.2386" stroke="#825451" stroke-width="0.442142"/>
    <path d="M27.9362 96.2383L19.9777 99.7754V102.87" stroke="#A4655A" stroke-width="0.442142"/>
    <path d="M19.5355 102.871L22.1884 111.714C27.0519 121.883 34.5684 129.842 44.2955 135.147L46.5062 136.474" stroke="#AB806F" stroke-width="0.442142"/>
    <path d="M46.5062 136.475C57.4416 141.608 69.3555 144.323 81.4354 144.433C87.1832 143.991 92.4889 142.665 97.7946 140.454" stroke="#A65E4B" stroke-width="0.442142"/>
    <path d="M97.7946 140.453C102.658 138.242 107.522 135.589 111.501 132.052L113.27 130.726C116.365 127.631 119.46 123.651 121.67 119.23L123.439 114.809C125.65 108.176 127.418 101.544 127.86 94.47L127.418 84.3008" stroke="#825451" stroke-width="0.442142"/>
    <path d="M127.418 84.3007C126.976 78.5529 126.092 73.2472 123.881 68.3836L117.249 57.3301" stroke="#A4655A" stroke-width="0.442142"/>
    <path d="M117.249 57.3307C113.27 51.5828 108.848 46.7193 103.1 42.2979" stroke="#AB806F" stroke-width="0.442142"/>
    <path d="M103.542 42.2976L100.89 40.0869" stroke="#AB836A" stroke-width="0.442142"/>
    <path d="M100.447 40.0867C92.4889 34.781 83.6461 32.1282 74.3611 31.2439L65.5183 30.8018C46.5062 30.8018 30.1469 41.8553 18.2091 56.446C12.4613 63.9624 8.482 73.2474 5.387 82.5323C4.06058 86.9537 3.61844 91.3752 5.82915 95.3544C6.71343 96.6809 8.03985 97.5651 9.36628 97.5651L13.7877 97.123" stroke="#AB8666" stroke-width="0.442142"/>
    <path d="M100.447 40.0869L96.9103 40.9712H96.4682L95.5839 41.4133L95.1418 41.8555H94.2575L93.8153 42.2976L92.931 42.7398H92.4889L92.0468 43.1819H91.6046L91.1625 43.624H90.7203L89.3939 44.5083H88.0675C88.0675 44.6256 88.0209 44.7381 87.938 44.821C87.8551 44.9039 87.7426 44.9505 87.6253 44.9505L86.7411 45.3926H83.2039L82.7618 45.8348H75.2454L74.8032 46.2769H71.2661L70.824 46.719H68.6133L68.1711 47.1612" stroke="#FFC68F" stroke-width="0.442142"/>
    <path d="M68.1711 47.1615C64.1918 41.4136 57.5597 40.0872 50.9276 40.9715C43.4112 42.2979 35.0105 45.8351 30.1469 51.5829C25.2834 57.3307 24.3991 64.405 28.3784 70.595" stroke="#FFE2B1" stroke-width="0.442142"/>
    <path d="M28.3784 70.5938C27.4941 70.5938 27.0519 71.0359 27.0519 71.478L26.6098 71.9202L25.2834 73.2466V74.1309L23.5148 75.4573V76.3416L22.6305 76.7837V77.668L21.7462 78.1102V78.9944L20.862 79.8787L20.4198 80.3209V81.2051L19.9777 81.6473V82.0894L19.0934 82.9737L18.6513 83.4159V84.3001L18.2091 84.7423V85.1844L17.767 85.6266V86.0687C17.3248 86.5108 16.8827 86.5108 17.3248 86.953L16.8827 87.3951V88.2794C16.4405 88.7216 15.9984 88.7216 16.4405 89.1637L15.9984 89.6058V90.4901L15.5563 91.3744V91.8165C15.1141 92.2587 14.672 92.2587 15.1141 92.7008V93.143L14.672 94.0273L14.2298 94.4694V94.9115L13.7877 95.3537V97.1222" stroke="#FFC68F" stroke-width="0.442142"/>
    <path d="M103.1 42.2979V42.74H103.542V43.1821H102.658L101.774 43.6243H101.332L100.005 44.0664H98.6789L98.2367 44.5086L96.4682 44.9507L96.026 45.3928H95.1418L94.6996 45.835H94.2575L93.3732 47.1614H92.4889L91.6046 48.0457L91.1625 48.4878L90.2782 48.93V49.3721L87.1832 50.6985H86.2989L85.4146 51.1407H82.7618L81.8775 51.5828H74.3611V52.025H72.1504L70.824 52.4671" stroke="#FFBF98" stroke-width="0.442142"/>
    <path d="M71.2661 52.4666L70.3818 50.2559" stroke="#FFE0BF" stroke-width="0.442142"/>
    <path d="M70.3818 50.2561L68.6133 47.1611" stroke="#FFDFB6" stroke-width="0.442142"/>
    <path d="M69.9397 50.2561L68.1711 49.814L66.4025 48.9297H62.8654L58.8861 49.814L58.444 50.2561H58.0019L57.1176 50.6983L54.4647 51.5825C48.2747 53.7932 42.5269 57.3304 37.2212 61.7518L31.9155 67.0575L31.0312 68.3839H31.4734V71.0368L35.0105 74.1318L35.8948 75.016C36.3369 75.4582 36.7791 75.9003 36.3369 76.3425" stroke="#FFFCE2" stroke-width="0.442142"/>
    <path d="M36.3369 76.3428L32.3576 74.5742" stroke="#FFDCBA" stroke-width="0.442142"/>
    <path d="M32.3576 74.573L28.3784 70.5938" stroke="#FFDFB6" stroke-width="0.442142"/>
    <path d="M117.249 57.3301C118.575 62.6358 119.46 67.0572 119.46 70.5943V80.3214C119.46 85.6271 118.575 90.4907 115.922 95.3543L109.29 105.524C101.332 115.251 91.6046 123.209 80.1089 129.399C75.2454 132.052 70.3818 133.821 65.5183 134.705L50.0433 136.031" stroke="#F9A288" stroke-width="0.442142"/>
    <path d="M50.4855 136.031L46.9483 136.473" stroke="#FB9B78" stroke-width="0.442142"/>
    <path d="M19.5355 102.87C23.5148 101.986 27.9362 101.544 31.9155 101.986C34.1262 101.986 36.7791 101.986 38.5476 103.755C40.3162 105.523 42.0848 108.176 43.4112 111.271C44.7376 113.482 46.5062 114.808 49.6012 115.25H60.6547L90.7203 109.945C92.0468 109.502 92.4889 109.945 92.931 110.829L94.6996 112.597" stroke="#F9A288" stroke-width="0.442142"/>
    <path d="M19.9777 95.3549V94.9127H20.4198L20.862 94.4706L20.4198 94.0285L20.862 93.5863V92.702L21.3041 92.2599V91.8177L21.7462 91.3756V90.9335L22.1884 90.4913V90.0492L22.6305 89.607V89.1649L23.0727 88.7228V88.2806C23.5148 87.8385 23.957 87.8385 23.5148 87.3963V86.9542L23.957 86.512L24.3991 86.0699V85.1856L24.8412 84.7435V84.3013L25.7255 83.4171L26.1677 82.9749V82.0906L26.6098 81.6485V81.2063L27.4941 80.7642V79.8799L28.3784 79.4378V78.5535L29.7048 77.6692V76.7849L31.0312 75.9006V75.4585L31.9155 74.5742H32.3576" stroke="#FFBF98" stroke-width="0.442142"/>
    <path d="M36.7791 76.3418L40.7583 77.2261" stroke="#FFDDC4" stroke-width="0.442142"/>
    <path d="M40.3162 77.2269C50.9276 79.4376 61.539 73.6898 67.2868 65.2891" stroke="#FFDECE" stroke-width="0.442142"/>
    <path d="M67.2868 65.2889C70.3818 61.3096 71.2661 57.3304 70.824 52.4668" stroke="#FFDDC4" stroke-width="0.442142"/>
    <path d="M67.2868 65.2894L68.6133 61.7522V60.8679L69.4975 58.6572C69.9397 58.2151 69.4975 57.3308 69.0554 56.8887H65.5183L64.634 57.3308H64.1918L63.3076 57.773H62.8654L61.9811 58.2151H61.539V58.6572H61.0969L60.2126 59.0994H59.7704L58.8861 59.5415H58.444L57.5597 59.9837H57.1176L56.6754 60.4258H55.7912L55.349 60.8679L52.6962 61.7522L49.6012 63.5208L49.159 63.9629L48.2747 64.8472L46.9483 66.1736H46.064L45.1798 67.5001H44.2955L42.0848 70.1529H41.2005L37.6633 73.6901V75.4586L38.1055 75.9008L40.3162 77.2272" stroke="#FFFEF5" stroke-width="0.442142"/>
    <path d="M127.418 84.3008V89.1643L126.976 93.5858C126.092 100.218 124.323 106.85 122.112 113.04L120.344 117.019" stroke="#D0766A" stroke-width="0.442142"/>
    <path d="M120.344 117.02H119.017L117.691 118.346H116.807L112.385 120.999L109.732 122.767L107.522 124.094L103.985 126.305L99.5632 128.073L88.5096 132.494L73.4768 135.589L70.3818 136.032H69.4975L68.6133 136.474H64.634L60.6547 136.916H53.1383C52.254 137.358 51.3697 136.916 50.0433 136.032" stroke="#F48064" stroke-width="0.442142"/>
    <path d="M92.0468 107.734C93.3732 107.734 93.8153 109.503 94.2575 110.387" stroke="#D0766A" stroke-width="0.442142"/>
    <path d="M97.7946 140.453L101.332 137.8L103.1 136.474L104.869 134.705C110.617 130.284 116.365 124.094 120.344 117.02" stroke="#D26F5A" stroke-width="0.442142"/>
    <path d="M39.8741 97.5645L39.4319 95.7959C38.9898 94.9116 38.5476 94.0273 37.2212 94.0273L33.2419 94.9116L27.4941 96.2381" stroke="#D0766A" stroke-width="0.442142"/>
    <path fill-rule="evenodd" clip-rule="evenodd" d="M140.682 111.271C137.145 110.829 133.166 109.503 130.955 106.408C130.955 112.155 135.377 117.903 140.24 120.114L147.757 122.325C151.736 123.209 154.831 122.325 158.368 120.114C162.347 117.461 166.327 114.366 168.537 110.387C171.581 103.407 173.95 96.1526 175.612 88.7219C176.496 82.974 177.38 77.6683 176.496 71.9205C175.612 68.8255 174.727 65.7305 172.959 63.0777C172.517 62.6355 172.517 63.0777 172.517 63.5198C174.285 75.8998 171.632 88.2797 165.442 98.8911L161.463 103.755C158.71 106.381 155.441 108.406 151.864 109.7C148.286 110.994 144.478 111.529 140.682 111.271Z" stroke="#ABA1A0" stroke-width="0.442142"/>
    <path d="M141.567 96.6812L139.798 100.218V103.313L140.682 105.966L141.567 107.293L142.451 108.177L142.893 108.619C147.314 108.619 151.294 107.293 154.831 105.082C158.368 102.871 161.463 100.218 163.674 96.239C163.674 96.1218 163.627 96.0093 163.544 95.9264C163.461 95.8435 163.349 95.7969 163.232 95.7969L162.347 94.4705L161.021 94.0283L160.137 93.144H159.252V92.7019L155.273 92.2598L154.389 92.7019H153.504L152.178 93.144H151.294" stroke="#6C4D48" stroke-width="0.442142"/>
    <path d="M151.294 93.1431C155.273 88.7217 156.599 83.416 156.157 77.226C155.273 69.2675 147.314 63.0775 139.798 68.8253C135.819 71.4782 134.05 75.8996 133.166 80.321C131.84 86.9531 134.492 95.3538 141.567 96.6803" stroke="#ABA1A0" stroke-width="0.442142"/>
    <path d="M151.294 93.1445C148.641 96.2395 145.546 97.1238 141.567 96.6817" stroke="#C0ABA7" stroke-width="0.442142"/>
    <path d="M183.57 101.103C182.244 102.872 180.917 104.64 180.475 106.851L179.591 110.388V110.83C182.686 113.925 186.223 114.81 190.644 114.368C195.95 113.925 200.371 112.157 203.466 108.62L204.351 107.293L204.793 105.083L205.235 103.314V100.661L204.351 98.4505L202.14 96.6819L199.487 95.3555" stroke="#6C4D48" stroke-width="0.442142"/>
    <path d="M199.487 95.3539C200.814 92.2589 201.698 89.1639 201.256 85.6268C200.814 79.4368 196.392 73.6889 189.76 75.4575C185.339 76.3418 182.244 80.3211 180.917 84.3003C179.591 87.3953 179.149 90.0482 179.591 93.1432C180.033 96.2382 181.359 98.891 183.57 101.102" stroke="#ABA1A0" stroke-width="0.442142"/>
    <path d="M199.487 95.3555C198.161 98.4505 195.95 100.661 193.739 101.988C190.202 104.198 186.665 103.756 183.57 101.103" stroke="#C0ABA7" stroke-width="0.442142"/>
    <path fill-rule="evenodd" clip-rule="evenodd" d="M212.751 112.157C216.695 102.032 218.356 91.1625 217.615 80.3225L216.731 75.459H216.289V86.9547C214.962 94.0289 213.194 100.219 209.214 106.409C207 109.89 203.923 112.737 200.281 114.674C196.639 116.612 192.557 117.572 188.434 117.462C184.454 117.462 180.917 115.694 177.822 112.599V113.041L179.591 118.347C181.359 122.326 186.665 125.421 191.086 126.747C193.297 127.632 195.508 127.632 197.719 126.747C205.235 124.537 209.214 118.789 212.751 112.157Z" stroke="#ABA1A0" stroke-width="0.442142"/>
    <path d="M227.342 134.262V143.547C229.111 143.105 230.879 142.663 233.09 141.337C236.185 140.01 239.28 138.242 241.048 135.589C242.817 133.82 243.701 130.725 245.028 128.514V128.072H244.586" stroke="#825451" stroke-width="0.442142"/>
    <path d="M244.586 128.073L240.606 125.862H239.722L238.838 127.631C237.954 129.399 235.301 128.957 235.301 126.746C235.301 122.767 238.838 120.556 242.817 122.325C245.028 123.651 247.681 125.862 249.891 123.209C250.776 122.325 251.218 120.556 251.218 119.23V108.176L250.333 105.523" stroke="#A4655A" stroke-width="0.442142"/>
    <path d="M250.333 105.524C249.007 99.7762 246.354 95.3548 242.817 91.3755C240.606 88.2805 237.511 86.512 233.532 85.1855" stroke="#A56E58" stroke-width="0.442142"/>
    <path d="M233.532 85.1848C231.764 83.8584 229.995 83.4163 228.669 83.4163C225.574 82.9741 223.805 85.1848 222.479 87.3956L222.036 89.6063L221.152 94.4698C220.71 99.3334 219.384 104.197 218.057 108.176L218.499 108.618L219.826 110.387C223.805 116.135 226.016 122.325 226.9 129.399L227.342 134.263" stroke="#A4655A" stroke-width="0.442142"/>
    <path d="M233.532 85.1855L235.301 87.3963V88.2805L236.627 89.1648V90.0491L238.396 91.3755V92.2598L239.722 93.1441V94.0284L241.048 94.9127V95.7969L241.933 96.2391V97.1234L242.817 97.5655V98.4498L244.586 99.7762V100.661L245.47 101.545H246.354V102.429H246.796L250.333 105.524" stroke="#F39071" stroke-width="0.442142"/>
    <path d="M244.586 128.072C241.491 132.936 237.511 136.031 232.648 137.799H230.879C228.669 137.357 228.226 136.473 227.342 134.262" stroke="#D0766A" stroke-width="0.442142"/>
    <path d="M145.988 125.862C138.472 124.536 132.724 121.441 129.629 114.809H129.187L124.765 123.209C121.67 128.515 117.691 132.494 112.827 136.474" stroke="#A4655A" stroke-width="0.442142"/>
    <path d="M112.827 136.475C108.406 139.57 103.542 142.665 98.2367 144.875H97.7946C97.3525 147.086 97.7946 149.297 98.6789 150.623C100.447 152.834 102.658 155.045 104.869 156.371L107.08 158.582C110.175 161.677 114.596 165.214 118.575 166.54C120.786 167.425 122.555 168.751 124.323 170.52L129.187 175.825L133.608 181.131L135.819 182.015L154.389 186.437C161.021 187.763 168.095 187.763 175.169 187.321L185.781 185.11C192.871 182.818 199.469 179.219 205.235 174.499L213.636 165.656C218.863 158.534 222.071 150.132 222.921 141.338" stroke="#AB806F" stroke-width="0.442142"/>
    <path d="M222.921 141.338V139.127C222.479 129.842 220.71 121.442 216.731 113.041H216.289C212.751 121.442 207.446 128.074 198.161 130.727" stroke="#A4655A" stroke-width="0.442142"/>
    <path d="M198.161 130.726C192.413 132.494 186.665 130.283 181.802 126.746C175.612 122.767 174.285 117.019 173.401 109.945M173.401 109.945C173.401 109.503 173.401 109.503 173.401 109.945ZM173.401 109.945C170.306 116.135 165 120.998 159.252 124.093C155.273 126.304 150.852 127.188 145.988 125.862" stroke="#AB806F" stroke-width="0.442142"/>
    <path d="M198.161 130.727C198.603 135.59 202.14 138.685 206.119 140.454C209.214 141.78 212.309 142.223 215.404 142.665C218.057 143.107 220.71 142.665 222.921 141.338M112.827 136.475L114.154 136.917C115.922 139.128 119.017 140.012 122.112 140.012C126.092 140.012 130.513 139.57 134.492 138.243C139.798 136.917 143.335 133.822 145.546 128.958V127.19L145.988 125.863" stroke="#F9A288" stroke-width="0.442142"/>
    <path d="M68.1711 162.118H71.2661L76.5718 160.349L78.3404 159.465C83.2039 155.485 88.5096 153.717 95.1418 154.159L95.5839 153.717C95.5839 151.948 92.0468 150.622 90.7203 150.18" stroke="#825451" stroke-width="0.442142"/>
    <path d="M90.7203 150.18C83.2039 148.412 74.3611 151.949 69.4975 157.697C68.1711 159.023 67.729 160.35 67.2868 161.676V162.118H68.1711" stroke="#A4655A" stroke-width="0.442142"/>
    <path d="M91.1625 150.18L88.5096 152.833L80.1089 157.254L68.6133 162.118" stroke="#D0766A" stroke-width="0.442142"/>
    <path d="M78.3404 165.213L75.2454 169.192C74.3611 170.519 73.919 172.729 73.4768 174.94" stroke="#A56E58" stroke-width="0.442142"/>
    <path d="M73.4768 174.939C74.8032 175.381 76.5718 174.939 78.7825 174.497C82.3196 173.171 85.8568 171.844 89.8361 171.402H90.2782C94.6996 167.423 100.005 165.212 106.195 164.77V164.328C105.311 161.233 103.1 159.464 99.5632 158.58" stroke="#825451" stroke-width="0.442142"/>
    <path d="M99.5632 158.581C96.489 157.848 93.2983 157.744 90.183 158.276C87.0677 158.808 84.0921 159.964 81.4354 161.676L80.1089 163.002L78.3404 165.213" stroke="#A4655A" stroke-width="0.442142"/>
    <path d="M99.5632 158.58C99.121 161.233 97.7946 163.444 95.5839 164.77L89.3939 169.191L86.7411 170.518" stroke="#D0766A" stroke-width="0.442142"/>
    <path d="M86.7411 170.519V169.192L86.2989 168.75H85.8568L85.4146 168.308H84.9725L84.5304 167.866H84.0882L83.6461 167.424H83.2039C82.7618 166.981 82.7618 166.539 82.3196 166.981L81.8775 166.539H81.4354L80.9932 166.097H79.6668L78.7825 165.655H78.3404V165.213" stroke="#F39071" stroke-width="0.442142"/>
    <path d="M73.919 174.941L83.2039 172.288L87.1832 170.52" stroke="#D17F67" stroke-width="0.442142"/>
    <path d="M222.921 161.676L221.152 164.771H221.594L223.363 166.097" stroke="#825451" stroke-width="0.442142"/>
    <path d="M222.921 166.097L226.458 169.192L228.669 170.96L233.09 172.729V172.287C233.09 170.96 232.206 170.076 231.321 168.75C229.111 165.655 226.458 163.002 222.479 161.675M222.479 161.675C222.479 161.233 222.479 161.233 222.479 161.675ZM222.479 161.675C222.036 161.675 222.036 161.675 222.479 161.675Z" stroke="#A65E4B" stroke-width="0.442142"/>
    <path d="M223.363 166.097L222.921 161.676" stroke="#D26F5A" stroke-width="0.442142"/>
    <path d="M216.289 172.729L213.636 174.497V174.939L218.057 176.708" stroke="#825451" stroke-width="0.442142"/>
    <path d="M218.057 176.709L218.941 177.151" stroke="#A65E4B" stroke-width="0.442142"/>
    <path d="M218.499 177.15C220.268 177.592 221.594 178.476 222.921 179.803L225.574 181.129L229.553 184.224H229.995L229.553 181.571C228.226 178.476 226.9 175.381 224.689 172.729" stroke="#A56E58" stroke-width="0.442142"/>
    <path d="M224.689 172.729C223.363 170.961 221.594 169.634 219.384 168.75H218.941L215.846 172.729" stroke="#A65E4B" stroke-width="0.442142"/>
    <path d="M225.131 172.729L224.247 173.613V174.055H223.805L222.036 175.381H221.594L221.152 175.824L220.71 176.266L218.941 177.15" stroke="#F58961" stroke-width="0.442142"/>
    <path d="M218.057 176.708L216.289 172.729" stroke="#D26F5A" stroke-width="0.442142"/>
    <path d="M93.8153 173.613C88.9518 177.15 85.8568 181.13 83.6461 185.993C82.3196 188.646 81.8775 191.299 82.3196 194.394L83.2039 194.836H85.4146L94.2575 193.068" stroke="#A56E58" stroke-width="0.442142"/>
    <path d="M94.2575 193.069L103.1 190.858L111.059 189.531L118.575 187.321C120.786 186.879 122.555 185.552 123.439 183.784C124.765 181.573 124.765 179.362 123.439 177.151C122.112 174.941 120.786 173.172 118.575 171.846" stroke="#825451" stroke-width="0.442142"/>
    <path d="M118.575 171.845L115.038 169.634L106.195 168.75C101.774 169.192 97.7946 170.519 93.8153 173.614" stroke="#A4655A" stroke-width="0.442142"/>
    <path d="M118.575 171.846L119.46 174.499V176.267C118.575 178.92 116.807 181.131 114.596 182.899L108.406 187.321" stroke="#D0766A" stroke-width="0.442142"/>
    <path d="M108.406 187.32L99.121 177.15H98.2367L96.4682 174.94H95.5839L93.8153 173.613" stroke="#F39071" stroke-width="0.442142"/>
    <path d="M94.2575 193.068C99.121 191.742 103.542 189.531 108.406 187.32" stroke="#D17F67" stroke-width="0.442142"/>
    <path d="M206.119 181.131L201.698 184.668C201.604 184.751 201.528 184.853 201.477 184.967C201.425 185.082 201.398 185.206 201.398 185.331C201.398 185.457 201.425 185.581 201.477 185.695C201.528 185.809 201.604 185.911 201.698 185.994L203.466 186.879L213.194 189.532" stroke="#825451" stroke-width="0.442142"/>
    <path d="M213.194 189.53L225.574 193.509H226.9L227.342 192.183C226.9 186.435 223.805 182.898 218.941 181.129C217.615 180.687 216.731 180.245 216.289 180.687" stroke="#A56E58" stroke-width="0.442142"/>
    <path d="M216.289 180.688C213.194 180.246 208.772 179.804 206.119 181.13" stroke="#A65E4B" stroke-width="0.442142"/>
    <path d="M216.731 180.688L210.099 187.32" stroke="#F58961" stroke-width="0.442142"/>
    <path d="M210.099 187.321L207.004 183.784L206.561 181.131" stroke="#D26F5A" stroke-width="0.442142"/>
    <path d="M213.636 189.531L210.099 187.32" stroke="#D17F67" stroke-width="0.442142"/>
    <path fill-rule="evenodd" clip-rule="evenodd" d="M65.9604 79.8794C66.4025 82.0901 68.1711 83.4166 70.3818 83.8587C75.2454 85.1851 80.1089 83.4166 84.0882 80.3216C88.0675 77.2266 91.1625 71.4788 87.1832 66.6152L83.6461 64.8466C78.3404 63.0781 72.5925 66.6152 69.0554 70.5945L66.8447 73.6895C65.5183 75.458 65.0761 78.1109 65.9604 79.8794Z" stroke="#FFDECE" stroke-width="0.442142"/>
    <path fill-rule="evenodd" clip-rule="evenodd" d="M170.748 131.168C167.653 129.842 164.116 128.516 163.232 125.421L162.789 124.979L161.463 125.863C159.694 128.074 161.905 130.284 163.674 131.168C168.537 133.821 173.843 134.706 179.149 133.379V132.937L170.748 131.168Z" stroke="#AB806F" stroke-width="0.442142"/>
    <path d="M128.745 69.7104C130.955 65.7311 133.608 61.7519 136.703 58.6569C143.777 51.5826 155.273 50.6983 165 52.909C168.095 53.7933 170.748 55.1197 172.959 57.3305L174.727 58.6569L177.38 60.8676H177.822L178.264 58.2147L178.707 52.909C178.707 51.5826 178.264 51.1405 177.38 50.6983L169.422 48.9298L157.042 48.0455C152.178 47.6033 142.893 46.7191 143.777 39.6448C144.219 33.8969 149.525 28.5913 153.947 25.0541C166.616 13.844 181.772 5.81138 198.161 1.62061L210.541 0.736328C214.52 1.17847 214.962 4.7156 213.194 7.36845C211.867 9.13702 210.541 10.9056 208.33 12.232L196.392 22.8434V23.2856C201.256 22.8434 205.677 23.2856 209.656 24.1698C215.404 25.4963 220.268 28.5913 220.268 34.7812C220.71 39.2026 217.615 44.5083 214.52 48.0455C210.983 51.5826 206.561 55.1197 202.14 58.2147V58.6569C206.119 58.6569 209.214 59.5412 211.867 62.194C217.173 66.1733 220.268 71.9211 221.594 78.5533H222.036L232.206 79.8797C235.301 81.2061 239.722 82.9747 242.375 85.1854C247.652 89.6409 251.599 95.4642 253.783 102.016C255.967 108.568 256.303 115.595 254.755 122.325C254.313 124.536 252.986 126.305 250.776 127.631L250.333 128.073C249.007 130.284 248.123 132.937 246.354 135.147L244.586 138.242C241.048 142.222 234.859 145.759 229.995 147.085L228.669 147.969L226.9 150.18L224.689 156.812L226.458 159.023C230.437 160.792 233.532 163.887 235.743 168.308C236.627 170.077 237.511 171.845 237.069 173.614C236.627 175.824 234.859 176.709 232.648 176.709L232.206 177.151C233.532 180.246 234.859 184.667 232.648 187.32C232.206 187.762 231.321 188.204 230.437 187.762L229.995 188.204V189.973C230.437 191.742 231.321 194.837 229.553 196.605C227.784 198.374 225.574 197.931 223.363 197.047L210.099 192.626C207.004 191.299 203.024 190.415 197.276 189.531L188.434 189.089L178.264 189.531L171.19 189.973H153.062L144.662 189.089C140.682 188.647 136.261 188.647 132.282 189.531L122.997 190.857L119.017 191.742L113.27 193.068L100.89 195.721L85.8568 198.816C76.5718 200.584 77.4561 191.742 79.2247 186.436L84.5304 177.151V176.709C81.4354 178.035 78.7825 178.919 75.6875 179.362C72.1504 179.804 69.0554 178.035 69.4975 173.614C69.9397 170.961 70.824 168.308 72.5925 166.097L72.1504 165.655C69.4975 166.539 64.634 166.539 63.7497 163.444C62.8654 160.792 64.1918 157.697 65.9604 155.486C68.1711 152.391 71.2661 150.18 75.2454 148.412V147.969C65.5183 147.527 56.6754 144.874 47.3905 141.337C37.6633 137.358 29.7048 130.726 23.5148 121.883L18.2091 114.367C15.7738 110.437 13.7019 106.293 12.0191 101.987L11.577 101.545C8.03986 101.987 4.94487 101.102 2.73416 98.0075C0.965592 95.3546 0.0813091 92.2596 0.523451 88.2804C0.523451 83.4168 2.29202 78.9954 4.06058 74.574C7.59772 64.4047 13.7877 53.7933 22.1884 46.2769L28.8205 40.5291C37.6633 33.4548 49.6012 27.707 61.0969 27.2648C66.8447 26.8227 72.1504 27.2648 77.4561 27.707C88.5096 29.0334 98.2368 33.4548 106.637 40.0869C111.943 44.5083 116.807 49.814 121.228 56.4462C124.323 60.4254 126.976 64.8469 128.745 69.7104C128.745 70.1526 128.745 70.1526 128.745 69.7104ZM153.062 31.2441C150.852 33.4548 149.083 35.6655 148.199 38.3184C147.757 39.6448 147.314 40.5291 147.757 40.9712C148.199 43.1819 154.389 44.0662 156.599 44.0662L175.612 44.9505L190.202 46.7191L191.086 47.6033C191.086 48.9298 189.76 49.3719 188.876 49.3719H184.897C184.012 49.3719 182.686 50.2562 182.686 51.5826L181.359 65.289H182.244L187.549 62.194L192.413 59.5412C198.161 56.8883 203.466 52.4669 208.33 48.0455C211.867 44.9505 214.962 41.8555 216.289 37.4341C217.615 33.0127 214.52 29.4755 210.099 28.5913L203.909 27.707L188.876 28.1491C187.549 28.1491 187.107 27.707 187.549 26.3805L188.876 24.1698L196.834 17.5377L204.793 10.4634L209.656 5.15774V4.7156C201.428 4.46264 193.254 6.12773 185.781 9.57916C175.612 14.0006 165.884 19.7484 157.484 27.2648L153.062 31.2441ZM13.7877 97.1232L19.9777 95.3546L37.2212 87.8382L39.8741 87.3961C43.8533 86.9539 43.8533 92.7018 44.2955 95.3546C44.2955 99.3339 45.1798 103.313 46.9483 106.408C48.7169 109.503 52.254 110.387 55.7912 110.387C60.6547 109.945 65.5183 109.503 70.3818 108.177L86.2989 105.082L91.6046 103.755L94.2575 103.313C96.9103 103.755 97.7946 106.408 98.2368 108.619L98.6789 114.367C98.6789 115.693 98.2368 116.135 96.9103 116.577C96.026 116.577 94.6996 115.693 94.6996 114.809V112.598L94.2575 110.387L93.8153 107.735L93.3732 107.292L92.0468 107.735L69.0554 112.598L58.0019 113.925C52.254 114.367 46.9483 113.925 43.8533 108.619C42.5269 106.408 41.2005 104.197 40.7583 101.545L39.8741 97.5653V91.3754H39.4319L27.4941 96.2389L19.5355 99.7761V102.871L22.1884 111.714C27.0519 121.883 34.5684 129.842 44.2955 135.147L46.5062 136.474C57.4416 141.607 69.3555 144.322 81.4354 144.432C92.5201 143.614 103.054 139.276 111.501 132.052L113.27 130.726C116.365 127.631 119.46 123.652 121.67 119.23L123.439 114.809C125.65 108.177 127.418 101.545 127.86 94.4704L127.418 84.3011C126.976 78.5533 126.092 73.2476 123.881 68.384L117.249 57.3305C113.27 51.5826 108.848 46.7191 103.1 42.2976L100.447 40.0869C92.4889 34.7812 83.6461 32.1284 74.3611 31.2441L65.5183 30.802C46.5062 30.802 30.1469 41.8555 18.2091 56.4462C12.4613 63.9626 8.482 73.2476 5.38701 82.5325C4.06058 86.9539 3.61844 91.3754 5.82915 95.3546C6.71343 96.6811 8.03986 97.5653 9.36628 97.5653L13.7877 97.1232ZM140.682 111.272C137.145 110.83 133.166 109.503 130.955 106.408C130.955 112.156 135.377 117.904 140.24 120.115L147.757 122.325C151.736 123.21 154.831 122.325 158.368 120.115C162.347 117.462 166.327 114.367 168.537 110.387C171.581 103.408 173.95 96.1532 175.612 88.7225C176.496 82.9747 177.38 77.669 176.496 71.9211C175.612 68.8261 174.727 65.7311 172.959 63.0783C172.517 62.6362 172.517 63.0783 172.517 63.5204C174.285 75.9004 171.632 88.2804 165.442 98.8918L161.463 103.755C158.71 106.382 155.441 108.406 151.864 109.7C148.286 110.994 144.478 111.529 140.682 111.272ZM141.567 96.6811L139.798 100.218V103.313L140.682 105.966L141.567 107.292L142.451 108.177L142.893 108.619C147.314 108.619 151.294 107.292 154.831 105.082C158.368 102.871 161.463 100.218 163.674 96.2389C163.674 96.1217 163.627 96.0092 163.544 95.9263C163.461 95.8434 163.349 95.7968 163.232 95.7968L162.347 94.4704L161.021 94.0282L160.137 93.1439H159.252V92.7018L155.273 92.2596L154.389 92.7018H153.504L152.178 93.1439H151.294C155.273 88.7225 156.599 83.4168 156.157 77.2268C155.273 69.2683 147.314 63.0783 139.798 68.8261C135.819 71.479 134.05 75.9004 133.166 80.3218C131.84 86.9539 134.492 95.3546 141.567 96.6811ZM183.57 101.102C182.244 102.871 180.917 104.64 180.475 106.85L179.591 110.387V110.83C182.686 113.925 186.223 114.809 190.644 114.367C195.95 113.925 200.371 112.156 203.466 108.619L204.351 107.292L204.793 105.082L205.235 103.313V100.66L204.351 98.4496L202.14 96.6811L199.487 95.3546C200.814 92.2596 201.698 89.1647 201.256 85.6275C200.814 79.4375 196.392 73.6897 189.76 75.4583C185.339 76.3425 182.244 80.3218 180.917 84.3011C179.591 87.3961 179.149 90.0489 179.591 93.1439C180.033 96.2389 181.359 98.8918 183.57 101.102ZM212.751 112.156C216.695 102.032 218.356 91.1618 217.615 80.3218L216.731 75.4583H216.289V86.9539C214.962 94.0282 213.194 100.218 209.214 106.408C207 109.889 203.923 112.736 200.281 114.674C196.639 116.611 192.557 117.571 188.434 117.462C184.454 117.462 180.917 115.693 177.822 112.598V113.04L179.591 118.346C181.359 122.325 186.665 125.42 191.086 126.747C193.297 127.631 195.508 127.631 197.719 126.747C205.235 124.536 209.214 118.788 212.751 112.156ZM227.342 134.263V143.548C229.111 143.106 230.879 142.664 233.09 141.337C236.185 140.011 239.28 138.242 241.048 135.59C242.817 133.821 243.701 130.726 245.028 128.515V128.073H244.586L240.606 125.862H239.722L238.838 127.631C237.953 129.4 235.301 128.957 235.301 126.747C235.301 122.767 238.838 120.557 242.817 122.325C245.028 123.652 247.681 125.862 249.891 123.21C250.776 122.325 251.218 120.557 251.218 119.23V108.177L250.333 105.524C249.007 99.7761 246.354 95.3546 242.817 91.3754C240.606 88.2804 237.511 86.5118 233.532 85.1854C231.764 83.859 229.995 83.4168 228.669 83.4168C225.574 82.9747 223.805 85.1854 222.479 87.3961L222.036 89.6068L221.152 94.4704C220.71 99.3339 219.384 104.197 218.057 108.177L218.499 108.619L219.826 110.387C223.805 116.135 226.016 122.325 226.9 129.4L227.342 134.263ZM145.988 125.862C138.472 124.536 132.724 121.441 129.629 114.809H129.187L124.765 123.21C121.67 128.515 117.691 132.495 112.827 136.474C108.406 139.569 103.542 142.664 98.2368 144.874H97.7946C97.3525 147.085 97.7946 149.296 98.6789 150.622C100.447 152.833 102.658 155.044 104.869 156.37L107.08 158.581C110.175 161.676 114.596 165.213 118.575 166.539C120.786 167.424 122.555 168.75 124.323 170.519L129.187 175.824L133.608 181.13L135.819 182.014L154.389 186.436C161.021 187.762 168.095 187.762 175.169 187.32L185.781 185.109C192.871 182.818 199.469 179.218 205.235 174.498L213.636 165.655C218.863 158.533 222.071 150.131 222.921 141.337V139.127C222.479 129.842 220.71 121.441 216.731 113.04H216.289C212.751 121.441 207.446 128.073 198.161 130.726C192.413 132.495 186.665 130.284 181.802 126.747C175.612 122.767 174.285 117.02 173.401 109.945C173.401 109.503 173.401 109.503 173.401 109.945C170.306 116.135 165 120.999 159.252 124.094C155.273 126.305 150.852 127.189 145.988 125.862ZM68.1711 162.118H71.2661L76.5718 160.349L78.3404 159.465C83.2039 155.486 88.5096 153.717 95.1418 154.159L95.5839 153.717C95.5839 151.949 92.0468 150.622 90.7203 150.18C83.2039 148.412 74.3611 151.949 69.4975 157.697C68.1711 159.023 67.729 160.349 67.2868 161.676V162.118H68.1711ZM78.3404 165.213L75.2454 169.192C74.3611 170.519 73.919 172.729 73.4768 174.94C74.8032 175.382 76.5718 174.94 78.7825 174.498C82.3197 173.172 85.8568 171.845 89.8361 171.403H90.2782C94.6996 167.424 100.005 165.213 106.195 164.771V164.329C105.311 161.234 103.1 159.465 99.5632 158.581C96.489 157.848 93.2983 157.744 90.183 158.276C87.0677 158.808 84.0921 159.964 81.4354 161.676L80.1089 163.002L78.3404 165.213ZM222.479 161.676L220.71 164.771H221.152L222.921 166.097L226.458 169.192L228.669 170.961L233.09 172.729V172.287C233.09 170.961 232.206 170.077 231.321 168.75C229.111 165.655 226.458 163.002 222.479 161.676C222.479 161.234 222.479 161.234 222.479 161.676C222.036 161.676 222.036 161.676 222.479 161.676ZM215.846 172.729L213.194 174.498V174.94L217.615 176.709L218.499 177.151C220.268 177.593 221.594 178.477 222.921 179.804L225.574 181.13L229.553 184.225H229.995L229.553 181.572C228.226 178.477 226.9 175.382 224.689 172.729C223.363 170.961 221.594 169.634 219.384 168.75H218.941L215.846 172.729ZM93.8153 173.614C88.9518 177.151 85.8568 181.13 83.6461 185.994C82.3197 188.647 81.8775 191.299 82.3197 194.394L83.2039 194.837H85.4146L94.2575 193.068L103.1 190.857L111.059 189.531L118.575 187.32C120.786 186.878 122.555 185.552 123.439 183.783C124.765 181.572 124.765 179.362 123.439 177.151C122.112 174.94 120.786 173.172 118.575 171.845L115.038 169.634L106.195 168.75C101.774 169.192 97.7946 170.519 93.8153 173.614ZM206.119 181.13L201.698 184.667C201.604 184.75 201.528 184.852 201.477 184.967C201.425 185.081 201.398 185.205 201.398 185.33C201.398 185.456 201.425 185.58 201.477 185.694C201.528 185.809 201.604 185.911 201.698 185.994L203.466 186.878L213.194 189.531L225.574 193.51H226.9L227.342 192.184C226.9 186.436 223.805 182.899 218.941 181.13C217.615 180.688 216.731 180.246 216.289 180.688C213.194 180.246 208.772 179.804 206.119 181.13Z" fill="#564341"/>
    <path d="M210.099 28.5915L209.656 29.0336V29.4758L207.446 34.7815L204.793 36.9922L199.045 39.645L187.991 41.8557H180.475L173.843 40.9714L162.789 38.3186L159.694 36.9922L157.042 35.6657L154.831 33.455L154.389 33.0129L153.947 32.5707L153.504 32.1286L153.062 31.2443L157.484 27.265C167.886 18.315 179.887 11.4141 192.855 6.92653C198.161 5.15796 203.909 4.71582 209.656 4.71582V5.15796L204.793 10.4637L196.834 17.5379L188.876 24.1701L187.549 26.3808C187.107 27.7072 187.549 28.1493 188.876 28.1493L203.909 27.7072L210.099 28.5915Z" fill="#FFE868"/>
    <path d="M210.099 28.5908C214.52 29.4751 217.615 33.0122 216.289 37.4337C214.962 41.8551 211.867 44.9501 208.33 48.0451C203.466 52.4665 198.161 56.8879 192.413 59.5407L187.549 62.1936L182.244 65.2886H181.359L182.686 51.5822C182.686 50.2558 184.012 49.3715 184.897 49.3715H188.876C189.76 49.3715 191.086 48.9293 191.086 47.6029L190.202 46.7186L175.612 44.9501L156.599 44.0658C154.389 44.0658 148.199 43.1815 147.757 40.9708C147.314 40.5286 147.757 39.6444 148.199 38.3179C149.083 35.6651 150.852 33.4544 153.062 31.2437L153.504 32.128L153.947 32.5701L154.389 33.0122L154.831 33.4544L157.042 35.6651L159.694 36.9915L162.789 38.3179L173.843 40.9708L180.475 41.8551H187.992L199.045 39.6444L204.793 36.9915L207.446 34.7808L209.656 29.4751V29.033L210.099 28.5908Z" fill="#FFBB49"/>
    <path d="M100.447 40.0867L96.9103 40.971H96.4682L95.5839 41.4132L95.1418 41.8553H94.2575L93.8153 42.2974L92.931 42.7396H92.4889L92.0468 43.1817H91.6046L91.1625 43.6239H90.7203L89.3939 44.5081H88.0675C88.0675 44.6254 88.0209 44.7379 87.938 44.8208C87.8551 44.9037 87.7426 44.9503 87.6253 44.9503L86.7411 45.3924H83.2039L82.7618 45.8346H75.2454L74.8032 46.2767H71.2661L70.824 46.7189H68.6133L68.1711 47.161C64.1918 41.4132 57.5597 40.0867 50.9276 40.971C43.4112 42.2974 35.0105 45.8346 30.1469 51.5824C25.2834 57.3303 24.3991 64.4045 28.3784 70.5945C27.4941 70.5945 27.0519 71.0366 27.0519 71.4788L26.6098 71.9209L25.2834 73.2474V74.1316L23.5148 75.4581V76.3423L22.6305 76.7845V77.6688L21.7462 78.1109V78.9952L20.862 79.8795L20.4198 80.3216V81.2059L19.9777 81.648V82.0902L19.0934 82.9745L18.6513 83.4166V84.3009L18.2091 84.743V85.1852L17.767 85.6273V86.0695C17.3248 86.5116 16.8827 86.5116 17.3248 86.9537L16.8827 87.3959V88.2802C16.4405 88.7223 15.9984 88.7223 16.4405 89.1644L15.9984 89.6066V90.4909L15.5563 91.3752V91.8173C15.1141 92.2594 14.672 92.2594 15.1141 92.7016V93.1437L14.672 94.028L14.2298 94.4701V94.9123L13.7877 95.3544V97.123L9.36628 97.5651C8.03985 97.5651 6.71343 96.6809 5.82915 95.3544C3.61844 91.3752 4.06058 86.9537 5.387 82.5323C8.482 73.2474 12.4613 63.9624 18.2091 56.446C30.1469 41.8553 46.5062 30.8018 65.5183 30.8018L74.3611 31.2439C83.6461 32.1282 92.4889 34.781 100.447 40.0867Z" fill="#FFC98A"/>
    <path d="M100.447 40.0869L103.1 42.2976V42.7398H103.542V43.1819H102.658L101.774 43.624H101.332L100.005 44.0662H98.6789L98.2368 44.5083L96.4682 44.9505L96.026 45.3926H95.1418L94.6996 45.8348H94.2575L93.3732 47.1612H92.4889L91.6046 48.0455L91.1625 48.4876L90.2782 48.9297V49.3719L87.1832 50.6983H86.2989L85.4146 51.1405H82.7618L81.8775 51.5826H74.3611V52.0247H72.1504L70.824 52.4669L69.9397 50.2562L68.1711 47.1612L68.6133 46.719H70.824L71.2661 46.2769H74.8032L75.2454 45.8348H82.7618L83.2039 45.3926H86.7411L87.6254 44.9505C87.7426 44.9505 87.8551 44.9039 87.938 44.821C88.0209 44.7381 88.0675 44.6256 88.0675 44.5083H89.3939L90.7203 43.624H91.1625L91.6046 43.1819H92.0468L92.4889 42.7398H92.9311L93.8153 42.2976L94.2575 41.8555H95.1418L95.5839 41.4133L96.4682 40.9712H96.9103L100.447 40.0869Z" fill="#FFC293"/>
    <path d="M68.1711 47.1615L69.9397 50.2565L68.1711 49.8143L66.4026 48.93H62.8654L58.8861 49.8143L58.444 50.2565H58.0019L57.1176 50.6986L54.4647 51.5829C48.2747 53.7936 42.5269 57.3307 37.2212 61.7522L31.9155 67.0579L31.0312 68.3843H31.4734V71.0371L35.0105 74.1321L35.8948 75.0164C36.3369 75.4585 36.7791 75.9007 36.3369 76.3428L32.3576 74.5743L28.3784 70.595C24.3991 64.405 25.2834 57.3307 30.1469 51.5829C35.0105 45.8351 43.4112 42.2979 50.9276 40.9715C57.5597 40.0872 64.1918 41.4136 68.1711 47.1615Z" fill="#FFFBD8"/>
    <path d="M103.1 42.2979C108.848 46.7193 113.27 51.5828 117.249 57.3307C118.575 62.6364 119.46 67.0578 119.46 70.5949V80.322C119.46 85.6277 118.575 90.4913 115.922 95.3548L109.29 105.524C101.332 115.251 91.6046 123.21 80.1089 129.4C75.2454 132.053 70.3818 133.821 65.5183 134.705L50.0433 136.032L46.5062 136.474L44.2955 135.148C34.5684 129.842 27.0519 121.883 22.1884 111.714L19.5355 102.871C23.5148 101.987 27.9362 101.545 31.9155 101.987C34.1262 101.987 36.7791 101.987 38.5476 103.756C40.3162 105.524 42.0848 108.177 43.4112 111.272C44.7376 113.483 46.5062 114.809 49.6012 115.251H60.6547L90.7203 109.946C92.0468 109.503 92.4889 109.946 92.931 110.83L94.6996 112.598V114.809C94.6996 115.693 96.026 116.578 96.9103 116.578C98.2367 116.136 98.6789 115.693 98.6789 114.367L98.2367 108.619C97.7946 106.408 96.9103 103.756 94.2575 103.313L91.6046 103.756L86.2989 105.082L70.3818 108.177C65.5183 109.503 60.6547 109.946 55.7912 110.388C52.254 110.388 48.7169 109.503 46.9483 106.408C45.1798 103.313 44.2955 99.3341 44.2955 95.3548C43.8533 92.702 43.8533 86.9542 39.8741 87.3963L37.2212 87.8384L19.9777 95.3548V94.9127H20.4198L20.862 94.4706L20.4198 94.0284L20.862 93.5863V92.702L21.3041 92.2599V91.8177L21.7462 91.3756V90.9334L22.1884 90.4913V90.0491L22.6305 89.607V89.1649L23.0727 88.7227V88.2806C23.5148 87.8384 23.957 87.8384 23.5148 87.3963V86.9542L23.957 86.512L24.3991 86.0699V85.1856L24.8412 84.7434V84.3013L25.7255 83.417L26.1677 82.9749V82.0906L26.6098 81.6485V81.2063L27.4941 80.7642V79.8799L28.3784 79.4377V78.5535L29.7048 77.6692V76.7849L31.0312 75.9006V75.4585L31.9155 74.5742H32.3576L36.3369 76.3428L40.3162 77.227C50.9276 79.4377 61.539 73.6899 67.2868 65.2892C70.3818 61.3099 71.2661 57.3307 70.824 52.4671L72.1504 52.025H74.3611V51.5828H81.8775L82.7618 51.1407H85.4146L86.2989 50.6985H87.1832L90.2782 49.3721V48.93L91.1625 48.4878L91.6046 48.0457L92.4889 47.1614H93.3732L94.2575 45.835H94.6996L95.1418 45.3928H96.026L96.4682 44.9507L98.2367 44.5086L98.6789 44.0664H100.005L101.332 43.6243H101.774L102.658 43.1821H103.542V42.74H103.1V42.2979ZM65.9604 79.8799C66.4025 82.0906 68.1711 83.417 70.3818 83.8592C75.2454 85.1856 80.1089 83.417 84.0882 80.322C88.0675 77.227 91.1625 71.4792 87.1832 66.6156L83.6461 64.8471C78.3404 63.0785 72.5925 66.6156 69.0554 70.5949L66.8447 73.6899C65.5183 75.4585 65.0761 78.1113 65.9604 79.8799Z" fill="#FFBC9C"/>
    <path d="M69.9397 50.2561L70.824 52.4668C71.2661 57.3304 70.3818 61.3097 67.2868 65.2889L68.6133 61.7518V60.8675L69.4975 58.6568C69.9397 58.2147 69.4975 57.3304 69.0554 56.8882H65.5183L64.634 57.3304H64.1918L63.3076 57.7725H62.8654L61.9811 58.2147H61.539V58.6568H61.0969L60.2126 59.0989H59.7704L58.8861 59.5411H58.444L57.5597 59.9832H57.1176L56.6754 60.4254H55.7912L55.349 60.8675L52.6962 61.7518L49.6012 63.5204L49.159 63.9625L48.2747 64.8468L46.9483 66.1732H46.064L45.1798 67.4996H44.2955L42.0848 70.1525H41.2005L37.6633 73.6896V75.4582L38.1055 75.9003L40.3162 77.2268L36.3369 76.3425C36.7791 75.9003 36.3369 75.4582 35.8948 75.016L35.0105 74.1318L31.4734 71.0368V68.3839H31.0312L31.9155 67.0575L37.2212 61.7518C42.5269 57.3304 48.2747 53.7932 54.4647 51.5825L57.1176 50.6983L58.0019 50.2561H58.444L58.8861 49.814L62.8654 48.9297H66.4026L68.1711 49.814L69.9397 50.2561Z" fill="#FFFDEB"/>
    <path d="M67.2868 65.2894C61.539 73.6901 50.9276 79.4379 40.3162 77.2272L38.1055 75.9008L37.6633 75.4586V73.6901L41.2005 70.1529H42.0848L44.2955 67.5001H45.1798L46.064 66.1736H46.9483L48.2747 64.8472L49.159 63.9629L49.6012 63.5208L52.6962 61.7522L55.349 60.8679L55.7912 60.4258H56.6754L57.1176 59.9837H57.5597L58.444 59.5415H58.8861L59.7704 59.0994H60.2126L61.0969 58.6572H61.539V58.2151H61.9811L62.8654 57.773H63.3076L64.1918 57.3308H64.634L65.5183 56.8887H69.0554C69.4975 57.3308 69.9397 58.2151 69.4975 58.6572L68.6133 60.8679V61.7522L67.2868 65.2894Z" fill="#EBEBEB"/>
    <path d="M117.249 57.3301L123.881 68.3836C126.092 73.2472 126.976 78.5529 127.418 84.3007V89.1643L126.976 93.5857C126.092 100.218 124.323 106.85 122.112 113.04L120.344 117.019H119.017L117.691 118.346H116.807L112.385 120.998L109.732 122.767L107.522 124.093L103.985 126.304L99.5632 128.073L88.5096 132.494L73.4768 135.589L70.3818 136.031H69.4975L68.6133 136.473H64.634L60.6547 136.916H53.1383C52.254 137.358 51.3697 136.916 50.0433 136.031L65.5183 134.705C70.3818 133.821 75.2454 132.052 80.1089 129.399C91.6046 123.209 101.332 115.251 109.29 105.524L115.922 95.3543C118.575 90.4907 119.46 85.6271 119.46 80.3214V70.5943C119.46 67.0572 118.575 62.6358 117.249 57.3301Z" fill="#F28773"/>
    <path d="M130.955 106.408C133.166 109.503 137.145 110.829 140.682 111.271C148.641 111.713 155.273 109.06 161.463 103.755L165.442 98.8911C171.632 88.2797 174.285 75.8998 172.517 63.5198C172.517 63.0777 172.517 62.6355 172.959 63.0777C174.727 65.7305 175.612 68.8255 176.496 71.9205C177.38 77.6683 176.496 82.974 175.612 88.7219C173.95 96.1526 171.581 103.407 168.537 110.387C166.327 114.366 162.347 117.461 158.368 120.114C154.831 122.325 151.736 123.209 147.757 122.325L140.24 120.114C135.377 117.903 130.955 112.155 130.955 106.408ZM65.9604 79.8791C65.0761 78.1105 65.5183 75.4576 66.8447 73.6891L69.0554 70.5941C72.5925 66.6148 78.3404 63.0777 83.6461 64.8462L87.1832 66.6148C91.1625 71.4784 88.0675 77.2262 84.0882 80.3212C80.1089 83.4162 75.2454 85.1848 70.3818 83.8583C68.1711 83.4162 66.4025 82.0898 65.9604 79.8791Z" fill="#EBEBEB"/>
    <path d="M151.294 93.1431C148.641 96.2381 145.546 97.1224 141.567 96.6803C134.492 95.3538 131.84 86.9531 133.166 80.321C134.05 75.8996 135.819 71.4782 139.798 68.8253C147.314 63.0775 155.273 69.2675 156.157 77.226C156.599 83.416 155.273 88.7217 151.294 93.1431Z" fill="#EBEBEB"/>
    <path d="M28.3784 70.5938L32.3576 74.573H31.9155L31.0312 75.4573V75.8994L29.7048 76.7837V77.668L28.3784 78.5523V79.4366L27.4941 79.8787V80.763L26.6098 81.2051V81.6473L26.1677 82.0894V82.9737L25.7255 83.4159L24.8412 84.3001V84.7423L24.3991 85.1844V86.0687L23.957 86.5108L23.5148 86.953V87.3951C23.957 87.8373 23.5148 87.8373 23.0727 88.2794V88.7216L22.6305 89.1637V89.6058L22.1884 90.048V90.4901L21.7462 90.9323V91.3744L21.3041 91.8165V92.2587L20.862 92.7008V93.5851L20.4198 94.0273L20.862 94.4694L20.4198 94.9115H19.9777V95.3537L13.7877 97.1222V95.3537L14.2298 94.9115V94.4694L14.672 94.0273L15.1141 93.143V92.7008C14.672 92.2587 15.1141 92.2587 15.5563 91.8165V91.3744L15.9984 90.4901V89.6058L16.4405 89.1637C15.9984 88.7216 16.4405 88.7216 16.8827 88.2794V87.3951L17.3248 86.953C16.8827 86.5108 17.3248 86.5108 17.767 86.0687V85.6266L18.2091 85.1844V84.7423L18.6513 84.3001V83.4159L19.0934 82.9737L19.9777 82.0894V81.6473L20.4198 81.2051V80.3209L20.862 79.8787L21.7462 78.9944V78.1102L22.6305 77.668V76.7837L23.5148 76.3416V75.4573L25.2834 74.1309V73.2466L26.6098 71.9202L27.0519 71.478C27.0519 71.0359 27.4941 70.5938 28.3784 70.5938Z" fill="#FFC293"/>
    <path d="M199.487 95.3539C198.161 98.4489 195.95 100.66 193.739 101.986C190.202 104.197 186.665 103.755 183.57 101.102C181.359 98.891 180.033 96.2382 179.591 93.1432C179.149 90.0482 179.591 87.3953 180.917 84.3003C182.244 80.3211 185.339 76.3418 189.76 75.4575C196.392 73.6889 200.814 79.4368 201.256 85.6268C201.698 89.1639 200.814 92.2589 199.487 95.3539Z" fill="#EBEBEB"/>
    <path d="M212.751 112.157C209.214 118.789 205.235 124.537 197.719 126.747C195.508 127.632 193.297 127.632 191.086 126.747C186.665 125.421 181.359 122.326 179.591 118.347L177.822 113.041V112.599C180.917 115.694 184.454 117.462 188.434 117.462C197.276 117.462 204.351 113.483 209.214 106.409C213.194 100.219 214.962 94.0289 216.289 86.9547V75.459H216.731L217.615 80.3225V92.7025C216.731 98.8925 215.404 106.409 212.751 112.157Z" fill="#EBEBEB"/>
    <path d="M233.532 85.1848L235.301 87.3956V88.2798L236.627 89.1641V90.0484L238.396 91.3748V92.2591L239.722 93.1434V94.0277L241.048 94.912V95.7962L241.933 96.2384V97.1227L242.817 97.5648V98.4491L244.586 99.7755V100.66L245.47 101.544H246.354V102.428H246.796L250.333 105.523L251.218 108.176V119.23C251.218 120.556 250.776 122.325 249.891 123.209C247.681 125.862 245.028 123.651 242.817 122.325C238.838 120.556 235.301 122.767 235.301 126.746C235.301 128.957 237.953 129.399 238.838 127.63L239.722 125.862H240.606L244.586 128.073C241.491 132.936 237.511 136.031 232.648 137.8H230.879C228.669 137.358 228.226 136.473 227.342 134.263L226.9 129.399C226.016 122.325 223.805 116.135 219.826 110.387L218.499 108.618L218.057 108.176C219.384 104.197 220.71 99.3334 221.152 94.4698L222.036 89.6063L222.479 87.3956C223.805 85.1848 225.574 82.9741 228.669 83.4163C229.995 83.4163 231.764 83.8584 233.532 85.1848Z" fill="#F28773"/>
    <path d="M127.418 84.3008L127.86 94.47C127.418 101.544 125.65 108.176 123.439 114.809L121.67 119.23C119.46 123.651 116.365 127.631 113.27 130.726L111.501 132.052C107.522 135.589 102.658 138.242 97.7946 140.453L101.332 137.8L103.1 136.473L104.869 134.705C110.617 130.284 116.365 124.094 120.344 117.019L122.112 113.04C124.323 106.85 126.092 100.218 126.976 93.5858L127.418 89.1643V84.3008Z" fill="#AD6560"/>
    <path d="M233.532 85.1855C237.511 86.512 240.606 88.2805 242.817 91.3755C246.354 95.3548 249.007 99.7762 250.333 105.524L246.796 102.429H246.354V101.545H245.47L244.586 100.661V99.7762L242.817 98.4498V97.5655L241.933 97.1234V96.2391L241.048 95.7969V94.9127L239.722 94.0284V93.1441L238.396 92.2598V91.3755L236.627 90.0491V89.1648L235.301 88.2805V87.3963L233.532 85.1855Z" fill="#F4986E"/>
    <path d="M39.8741 97.565L39.4319 95.7964C38.9898 94.9121 38.5476 94.0278 37.2212 94.0278L33.2419 94.9121L27.4941 96.2386L39.4319 91.375H39.8741V97.565Z" fill="#AD6560"/>
    <path d="M141.567 96.6812C145.546 97.1233 148.641 96.239 151.294 93.144H152.178L153.504 92.7019H154.389L155.273 92.2598L159.252 92.7019V93.144H160.137L161.021 94.0283L162.347 94.4705L163.232 95.7969C163.349 95.7969 163.461 95.8435 163.544 95.9264C163.627 96.0093 163.674 96.1218 163.674 96.239C161.463 100.218 158.368 102.871 154.831 105.082C151.294 107.293 147.314 108.619 142.893 108.619L142.451 108.177L141.567 107.293L140.682 105.966L139.798 103.313V100.218L141.567 96.6812Z" fill="#81564F"/>
    <path d="M39.8741 97.5645L40.7583 101.544C41.2005 104.197 42.5269 106.407 43.8533 108.618C46.9483 113.924 52.254 114.366 58.0019 113.924L69.0554 112.597L92.0468 107.734C93.3732 107.734 93.8153 109.502 94.2575 110.387L94.6996 112.597L92.931 110.829C92.4889 109.944 92.0468 109.502 90.7203 109.944L60.6547 115.25H49.6012C46.5062 114.808 44.7376 113.482 43.4112 111.271C42.0848 108.176 40.3162 105.523 38.5476 103.754C36.7791 101.986 34.1262 101.986 31.9155 101.986C27.9362 101.544 23.5148 101.986 19.5355 102.87V99.7752L27.4941 96.2381L33.2419 94.9116L37.2212 94.0273C38.5476 94.0273 38.9898 94.9116 39.4319 95.7959L39.8741 97.5645Z" fill="#F28773"/>
    <path d="M199.487 95.3555L202.14 96.6819L204.351 98.4505L205.235 100.661V103.314L204.793 105.083L204.351 107.293L203.466 108.62C200.371 112.157 195.95 113.925 190.644 114.368C186.223 114.81 182.686 113.925 179.591 110.83V110.388L180.475 106.851C180.917 104.64 182.244 102.872 183.57 101.103C186.665 103.756 190.202 104.198 193.739 101.988C195.95 100.661 198.161 98.4505 199.487 95.3555Z" fill="#81564F"/>
    <path d="M94.2575 110.388C93.8153 109.504 93.3732 107.735 92.0468 107.735L93.3732 107.293L93.8153 107.735L94.2575 110.388Z" fill="#AD6560"/>
    <path d="M198.161 130.726C198.603 135.589 202.14 138.684 206.119 140.453C209.214 141.779 212.309 142.221 215.404 142.663C218.057 143.106 220.71 142.663 222.921 141.337C222.071 150.131 218.863 158.532 213.636 165.655L205.235 174.498C199.469 179.218 192.871 182.817 185.781 185.109L175.169 187.32C168.095 187.762 161.021 187.762 154.389 186.435C147.339 185.189 140.393 183.415 133.608 181.13L129.187 175.824L124.323 170.518C122.555 168.75 120.786 167.423 118.575 166.539C114.596 165.213 110.175 161.675 107.08 158.58L104.869 156.37C102.658 155.043 100.447 152.833 98.6789 150.622C97.7946 149.295 97.3525 147.085 97.7946 144.874H98.2367C103.542 142.663 108.406 139.568 112.827 136.473L114.154 136.916C115.922 139.126 119.017 140.011 122.112 140.011C126.092 140.011 130.513 139.568 134.492 138.242C139.798 136.916 143.335 133.821 145.546 128.957V127.188L145.988 125.862C150.852 127.188 155.273 126.304 159.252 124.093C165 120.998 170.306 116.135 173.401 109.945C173.401 109.503 173.401 109.503 173.401 109.945C174.285 117.019 175.612 122.767 181.802 126.746C186.665 130.283 192.413 132.494 198.161 130.726ZM170.748 131.168C167.653 129.841 164.116 128.515 163.232 125.42L162.789 124.978L161.463 125.862C159.694 128.073 161.905 130.283 163.674 131.168C168.537 133.821 173.843 134.705 179.149 133.378V132.936L170.748 131.168Z" fill="#FFBC9C"/>
    <path d="M222.921 141.338C220.71 142.665 218.057 143.107 215.404 142.665C212.309 142.222 209.214 141.78 206.119 140.454C202.14 138.685 198.603 135.59 198.161 130.727C207.446 128.074 212.751 121.442 216.289 113.041H216.731C220.71 121.442 222.479 129.842 222.921 139.127V141.338ZM145.988 125.863L145.546 127.19V128.958C143.335 133.822 139.798 136.917 134.492 138.243C130.513 139.57 126.092 140.012 122.112 140.012C119.017 140.012 115.922 139.127 114.154 136.917L112.827 136.475C117.691 132.495 121.67 128.516 124.765 123.21L129.187 114.81H129.629C132.724 121.442 138.472 124.537 145.988 125.863Z" fill="#F28773"/>
    <path d="M120.344 117.02C116.365 124.094 110.617 130.284 104.869 134.705L103.1 136.474L101.332 137.8L97.7946 140.453C87.6588 145.075 76.1896 145.861 65.5183 142.664C59.3283 141.337 53.1383 139.569 46.5062 136.474L50.0433 136.032C51.3697 136.916 52.254 137.358 53.1383 136.916H60.6547L64.634 136.474H68.6133L69.4975 136.032H70.3818L73.4768 135.589L88.5096 132.494L99.5632 128.073L103.985 126.305L107.522 124.094L109.732 122.767L112.385 120.999L116.807 118.346H117.691L119.017 117.02H120.344Z" fill="#F67954"/>
    <path d="M170.748 131.168L179.149 132.937V133.379C173.843 134.706 168.537 133.821 163.674 131.168C161.905 130.284 159.694 128.074 161.463 125.863L162.789 124.979L163.232 125.421C164.116 128.516 167.653 129.842 170.748 131.168Z" fill="#564341"/>
    <path d="M244.586 128.072H245.028V128.514C243.701 130.725 242.817 133.82 241.048 135.589C239.28 138.242 236.185 140.01 233.09 141.337C230.879 142.663 229.111 143.105 227.342 143.547V134.262C228.226 136.473 228.669 137.357 230.879 137.799H232.648C237.511 136.031 241.491 132.936 244.586 128.072Z" fill="#AD6560"/>
    <path d="M90.7203 150.18L88.0675 152.833L79.6668 157.255L68.1711 162.118H67.2868V161.676C67.729 160.35 68.1711 159.023 69.4975 157.697C74.3611 151.949 83.2039 148.412 90.7203 150.18Z" fill="#F28773"/>
    <path d="M90.7203 150.18C92.0468 150.622 95.5839 151.948 95.5839 153.717L95.1418 154.159C88.5096 153.717 83.2039 155.485 78.3404 159.465L76.5718 160.349L71.2661 162.118H68.1711L79.6668 157.254L88.0675 152.833L90.7203 150.18Z" fill="#AD6560"/>
    <path d="M99.5632 158.581C99.121 161.234 97.7946 163.445 95.5839 164.771L89.3939 169.193L86.7411 170.519V169.193L86.2989 168.75H85.8568L85.4146 168.308H84.9725L84.5304 167.866H84.0882L83.6461 167.424H83.2039C82.7618 166.982 82.7618 166.54 82.3196 166.982L81.8775 166.54H81.4354L80.9932 166.098H79.6668L78.7825 165.655H78.3404V165.213L80.1089 163.003L81.4354 161.676C83.6461 160.35 85.8568 159.023 88.5096 158.581C92.4889 157.697 96.026 157.697 99.5632 158.581Z" fill="#F28773"/>
    <path d="M99.5632 158.58C103.1 159.464 105.311 161.233 106.195 164.328V164.77C100.005 165.212 94.6996 167.423 90.2782 171.402H89.8361C85.8568 171.844 82.3196 173.171 78.7825 174.497C76.5718 174.939 74.8032 175.381 73.4768 174.939L82.7618 172.286L86.7411 170.518L89.3939 169.191L95.5839 164.77C97.7946 163.444 99.121 161.233 99.5632 158.58Z" fill="#AD6560"/>
    <path d="M222.921 166.097L222.479 161.675C222.036 161.675 222.036 161.675 222.479 161.675C222.479 161.233 222.479 161.233 222.479 161.675C226.458 163.002 229.111 165.655 231.321 168.75C232.206 170.076 233.09 170.96 233.09 172.287V172.729L228.669 170.96L226.458 169.192L222.921 166.097Z" fill="#F67954"/>
    <path d="M222.479 161.676L222.921 166.097L221.152 164.771H220.71L222.479 161.676Z" fill="#AD6560"/>
    <path d="M78.3404 165.213V165.655H78.7825L79.6668 166.097H80.9932L81.4354 166.539H81.8775L82.3196 166.981C82.7618 166.539 82.7618 166.981 83.2039 167.424H83.6461L84.0882 167.866H84.5304L84.9725 168.308H85.4146L85.8568 168.75H86.2989L86.7411 169.192V170.519L82.7618 172.287L73.4768 174.94C73.919 172.729 74.3611 170.519 75.2454 169.192L78.3404 165.213Z" fill="#F4986E"/>
    <path d="M224.689 172.729L223.805 173.614V174.056H223.363L221.594 175.382H221.152L220.71 175.824L220.268 176.266L218.499 177.151L217.615 176.709L215.846 172.729L218.941 168.75H219.384C221.594 169.634 223.363 170.961 224.689 172.729Z" fill="#F67954"/>
    <path d="M118.575 171.845L119.46 174.498V176.266C118.575 178.919 116.807 181.13 114.596 182.899L108.406 187.32L99.121 177.151H98.2367L96.4682 174.94H95.5839L93.8153 173.614C97.7946 170.519 101.774 169.192 106.195 168.75L115.038 169.634L118.575 171.845Z" fill="#F28773"/>
    <path d="M118.575 171.846C120.786 173.172 122.112 174.941 123.439 177.151C124.765 179.362 124.765 181.573 123.439 183.784C122.555 185.552 120.786 186.879 118.575 187.321L111.059 189.531L103.1 190.858L94.2575 193.069C99.121 191.742 103.542 189.531 108.406 187.321L114.596 182.899C116.807 181.131 118.575 178.92 119.46 176.267V174.499L118.575 171.846ZM215.846 172.73L217.615 176.709L213.194 174.941V174.499L215.846 172.73Z" fill="#AD6560"/>
    <path d="M224.689 172.729C226.9 175.381 228.226 178.476 229.553 181.571L229.995 184.224H229.553L225.574 181.129L222.921 179.803C221.594 178.476 220.268 177.592 218.499 177.15L220.268 176.266L220.71 175.824L221.152 175.381H221.594L223.363 174.055H223.805V173.613L224.689 172.729ZM93.8153 173.613L95.5839 174.939H96.4682L98.2367 177.15H99.121L108.406 187.319C103.542 189.53 99.121 191.741 94.2575 193.067L85.4146 194.836H83.2039L82.3196 194.393C81.8775 191.298 82.3196 188.646 83.6461 185.993C85.8568 181.129 88.9518 177.15 93.8153 173.613Z" fill="#F4986E"/>
    <path d="M216.289 180.688L209.656 187.32L206.561 183.783L206.119 181.13C208.772 179.804 213.194 180.246 216.289 180.688Z" fill="#F67954"/>
    <path d="M216.289 180.687C216.731 180.245 217.615 180.687 218.941 181.129C223.805 182.898 226.9 186.435 227.342 192.183L226.9 193.509H225.574L213.194 189.53L209.656 187.319L216.289 180.687Z" fill="#F4986E"/>
    <path d="M206.119 181.131L206.561 183.784L209.656 187.321L213.194 189.532L203.466 186.879L201.698 185.994C201.604 185.911 201.528 185.809 201.477 185.695C201.425 185.581 201.398 185.457 201.398 185.331C201.398 185.206 201.425 185.082 201.477 184.967C201.528 184.853 201.604 184.751 201.698 184.668L206.119 181.131Z" fill="#AD6560"/>
  </g>
  <defs>
    <clipPath id="clip0_20_858">
      <rect width="256" height="198.522" fill="#EBEBEB" transform="translate(0.0812988 0.734375)"/>
    </clipPath>
  </defs>
</svg>
