<svg xmlns="http://www.w3.org/2000/svg" width="256" height="230" fill="none" viewBox="0 0 256 230">
  <g clip-path="url(#a)">
    <path fill="#00435b" d="m157.414 142.961-4.892 8.489a8.25 8.25 0 0 1-7.154 4.134h-37.47a8.25 8.25 0 0 1-7.154-4.134l-4.892-8.489zm13.693-23.767-8.624 14.969h-71.7l-8.624-14.969zm-8.308-23.24 8.322 14.443H82.145l8.321-14.443zm-17.431-21.97a8.26 8.26 0 0 1 7.154 4.133l5.209 9.039H95.535l5.209-9.039a8.26 8.26 0 0 1 7.154-4.134z"/>
    <path fill="#002b3b" d="M53.363 70.044c-4.151-20.118-5.042-35.548-2.359-46.753 1.596-6.664 4.513-12.1 8.95-16.022 4.683-4.141 10.604-6.173 17.258-6.173 10.975 0 22.514 5.003 34.844 14.507 5.03 3.876 10.25 8.549 15.671 14.02.431-.555.919-1.079 1.463-1.563 15.326-13.652 28.23-22.134 39.266-25.404 6.562-1.945 12.724-2.13 18.334-.243 5.923 1.993 10.642 6.11 13.971 11.879 5.495 9.52 6.944 22.028 4.895 37.473-.835 6.295-2.262 13.153-4.279 20.583q1.143.136 2.279.51c19.445 6.442 33.215 13.369 41.552 21.284 4.96 4.71 8.199 9.954 9.37 15.758 1.235 6.126.03 12.271-3.295 18.035-5.485 9.505-15.569 17.002-29.935 22.941-5.768 2.384-12.295 4.543-19.587 6.486.332.751.591 1.548.763 2.385 4.151 20.118 5.042 35.548 2.359 46.753-1.596 6.664-4.513 12.1-8.949 16.022-4.684 4.141-10.605 6.173-17.258 6.173-10.976 0-22.515-5.003-34.845-14.507-5.083-3.918-10.361-8.649-15.844-14.195a11.7 11.7 0 0 1-2.076 2.431c-15.327 13.652-28.23 22.134-39.267 25.405-6.562 1.944-12.723 2.129-18.334.242-5.922-1.992-10.641-6.11-13.97-11.878-5.495-9.52-6.944-22.028-4.896-37.473.866-6.523 2.367-13.65 4.5-21.392a11.6 11.6 0 0 1-2.5-.535C32 150.352 18.23 143.425 9.894 135.509c-4.96-4.709-8.2-9.953-9.37-15.757-1.236-6.126-.03-12.271 3.295-18.035 5.484-9.505 15.568-17.002 29.934-22.94 5.94-2.456 12.685-4.673 20.242-6.66a12 12 0 0 1-.631-2.073"/>
    <path fill="#ff4154" d="M188.958 161.724a3.667 3.667 0 0 1 4.217 2.797l.024.113.206 1.07q10.026 52.685-14.124 52.685-23.629 0-60.158-44.957a3.669 3.669 0 0 1 2.766-5.978l.114-.001 1.283.009q15.372.084 29.887-1.071 17.134-1.364 35.785-4.667m-110.57-26.55.062.104.643 1.123q7.736 13.442 16.118 25.515 9.873 14.219 22.204 28.789a3.666 3.666 0 0 1-.309 5.059l-.093.084-.827.711q-40.8 34.944-53.036 13.952-11.978-20.547 8.685-74.721a3.67 3.67 0 0 1 6.553-.616M202.76 83.347l.111.036 1.024.353q50.36 17.511 38.267 38.487-11.829 20.515-68.773 29.873a3.666 3.666 0 0 1-3.758-5.477q8.156-13.868 14.691-27.596 7.411-15.57 13.911-33.425a3.67 3.67 0 0 1 4.415-2.284zM84.166 77.469a3.666 3.666 0 0 1 1.304 5.02q-8.156 13.868-14.692 27.597-7.411 15.57-13.91 33.424a3.67 3.67 0 0 1-4.527 2.252l-.112-.037-1.023-.353q-50.361-17.51-38.267-38.486Q24.768 86.37 81.712 77.012a3.67 3.67 0 0 1 2.454.457m107.785-57.496q11.978 20.547-8.685 74.72a3.67 3.67 0 0 1-6.554.617l-.061-.105-.644-1.122q-7.734-13.442-16.118-25.515-9.871-14.22-22.203-28.79a3.666 3.666 0 0 1 .308-5.059l.094-.083.827-.712q40.799-34.942 53.036-13.951M77.196 11.637q23.628 0 60.157 44.956a3.67 3.67 0 0 1 .822 2.344 3.67 3.67 0 0 1-3.588 3.635h-.114l-1.282-.009q-15.372-.083-29.887 1.072-17.135 1.362-35.785 4.666a3.67 3.67 0 0 1-4.218-2.797l-.024-.113-.206-1.07Q53.046 11.638 77.196 11.638"/>
    <path fill="#ffd94c" d="M110.91 74.442h31.453c4.6 0 8.848 2.459 11.138 6.447l15.793 27.505a12.83 12.83 0 0 1 0 12.779l-15.793 27.506a12.85 12.85 0 0 1-11.138 6.447H110.91c-4.6 0-8.849-2.46-11.138-6.447l-15.793-27.506a12.83 12.83 0 0 1 0-12.779l15.793-27.505a12.84 12.84 0 0 1 11.138-6.447m26.659 8.302c4.602 0 8.853 2.461 11.142 6.452l11.012 19.204a12.83 12.83 0 0 1 0 12.767l-11.012 19.204a12.85 12.85 0 0 1-11.142 6.453h-21.865a12.84 12.84 0 0 1-11.142-6.453l-11.013-19.204a12.83 12.83 0 0 1 0-12.767l11.013-19.204a12.84 12.84 0 0 1 11.142-6.452zm-5.167 9.08H120.87a12.84 12.84 0 0 0-11.134 6.441l-5.82 10.124a12.83 12.83 0 0 0 0 12.79l5.82 10.123a12.84 12.84 0 0 0 11.134 6.442h11.532c4.598 0 8.845-2.457 11.135-6.442l5.82-10.123a12.83 12.83 0 0 0 0-12.79l-5.82-10.124a12.84 12.84 0 0 0-11.135-6.441m-4.975 8.691c4.594 0 8.838 2.453 11.13 6.433l.825 1.433a12.83 12.83 0 0 1 0 12.806l-.825 1.433a12.85 12.85 0 0 1-11.13 6.433h-1.581a12.84 12.84 0 0 1-11.13-6.433l-.825-1.433a12.83 12.83 0 0 1 0-12.806l.825-1.433a12.84 12.84 0 0 1 11.13-6.433zm-.789 8.561a5.72 5.72 0 0 0-4.951 2.854 5.7 5.7 0 0 0 0 5.707 5.717 5.717 0 0 0 9.899 0 5.7 5.7 0 0 0 0-5.707 5.72 5.72 0 0 0-4.948-2.854m-46.328 5.708h10.281z"/>
  </g>
  <defs>
    <clipPath id="a">
      <path fill="#ebebeb" d="M0 .5h256v229H0z"/>
    </clipPath>
  </defs>
</svg>
