<svg width="227" height="256" viewBox="0 0 227 256" fill="none" xmlns="http://www.w3.org/2000/svg">
<g clip-path="url(#clip0_20_343)">
<path d="M217.433 56.772L124.137 2.59939C118.253 -0.751881 110.592 -0.751881 104.662 2.59939L10.3692 56.772C4.29711 60.265 0.00012207 66.83 0.00012207 73.852V182.053C0.00012207 189.075 4.40925 195.642 10.4813 199.154L35.3937 213.304C47.3009 219.169 51.509 219.169 56.9273 219.169C74.5575 219.169 84.6282 208.508 84.6282 189.913V83.0913C84.6282 81.5828 83.8433 79.338 82.3623 79.338H70.4657C68.9593 79.338 65.5869 81.5828 65.5869 83.0892V189.911C65.5869 198.154 58.1312 206.356 44.1971 199.389L18.4554 184.552C17.5583 184.065 16.9257 183.086 16.9257 182.053V73.852C16.9257 72.8323 18.1 71.8082 19.0034 71.2857L112.991 17.2062C113.869 16.709 115.16 16.709 116.036 17.2062L208.877 71.273C209.766 71.8082 209.453 72.8005 209.453 73.852V182.053C209.453 183.086 209.84 184.091 208.962 184.588L115.689 238.699C114.889 239.179 113.897 239.179 113.021 238.699L89.0987 224.42C88.3773 224.001 87.5204 223.851 86.8286 224.238C80.1726 228.011 78.9454 228.512 72.702 230.676C71.166 231.212 68.9001 232.14 73.5694 234.758L104.878 253.278C107.867 255.005 111.257 255.914 114.709 255.915C118.183 255.915 121.585 255.013 124.583 253.278L217.431 199.154C223.503 195.617 226.38 189.075 226.38 182.053V73.852C226.38 66.83 223.503 60.2819 217.433 56.772ZM143.677 164.908C118.869 164.908 113.404 158.063 111.582 145.727C111.371 144.398 110.243 142.809 108.891 142.809H96.766C95.266 142.809 94.06 144.629 94.06 146.122C94.06 161.918 102.648 181.057 143.68 181.057C173.382 181.057 190.411 169.516 190.411 149.091C190.411 128.839 176.729 123.524 147.924 119.712C118.807 115.864 115.85 113.919 115.85 107.098C115.85 101.475 118.355 93.9745 139.914 93.9745C159.177 93.9745 166.277 98.1085 169.199 111.093C169.449 112.313 170.564 113.189 171.823 113.189H183.996C184.745 113.189 185.46 112.887 185.985 112.351C186.493 111.776 186.762 111.055 186.694 110.28C184.809 87.9214 169.955 77.5016 139.912 77.5016C113.188 77.5016 97.2463 88.7868 97.2463 107.703C97.2463 128.221 113.108 133.891 138.761 136.428C169.449 139.437 171.835 143.922 171.835 149.958C171.835 160.441 163.419 164.908 143.677 164.908Z" fill="#83CD29"/>
</g>
<defs>
<clipPath id="clip0_20_343">
<rect width="226.38" height="256" fill="white" transform="translate(0 -0.000976562)"/>
</clipPath>
</defs>
</svg>
