<svg xmlns="http://www.w3.org/2000/svg" width="256" height="240" fill="none" viewBox="0 0 256 240">
  <g clip-path="url(#a)">
    <path fill="#76b3e1" d="M256 50.972S170.667-11.82 104.653 2.67l-4.829 1.61c-9.66 3.22-17.711 8.05-22.542 14.49l-3.219 4.83-24.152 41.862 41.863 8.05c17.71 11.27 40.251 16.102 61.182 11.27l74.063 14.492z"/>
    <path fill="url(#b)" d="M256 50.972S170.667-11.82 104.653 2.67l-4.829 1.61c-9.66 3.22-17.711 8.05-22.542 14.49l-3.219 4.83-24.152 41.862 41.863 8.05c17.71 11.27 40.251 16.102 61.182 11.27l74.063 14.492z" opacity=".3"/>
    <path fill="#518ac8" d="m77.282 50.972-6.439 1.61c-27.371 8.05-35.421 33.812-20.932 56.353 16.101 20.931 49.913 32.201 77.284 24.151l99.824-33.811S141.685 36.483 77.282 50.972"/>
    <path fill="url(#c)" d="m77.282 50.972-6.439 1.61c-27.371 8.05-35.421 33.812-20.932 56.353 16.101 20.931 49.913 32.201 77.284 24.151l99.824-33.811S141.685 36.483 77.282 50.972" opacity=".3"/>
    <path fill="url(#d)" d="M209.308 123.425c-18.439-23.036-49.008-32.588-77.283-24.15l-99.823 32.201L0 187.828l180.327 30.592 32.201-57.963c6.441-11.271 4.831-24.15-3.22-37.032"/>
    <path fill="url(#e)" d="M177.106 179.777c-18.439-23.036-49.006-32.588-77.282-24.15L0 187.828s85.333 64.402 151.346 48.303l4.83-1.612c27.371-8.049 37.031-33.81 20.93-54.742"/>
  </g>
  <defs>
    <linearGradient id="b" x1="37.836" x2="238.289" y1="-.549" y2="96.86" gradientUnits="userSpaceOnUse">
      <stop offset=".1" stop-color="#76b3e1"/>
      <stop offset=".3" stop-color="#dcf2fd"/>
      <stop offset="1" stop-color="#76b3e1"/>
    </linearGradient>
    <linearGradient id="c" x1="147.803" x2="112.704" y1="47.109" y2="163.999" gradientUnits="userSpaceOnUse">
      <stop stop-color="#76b3e1"/>
      <stop offset=".5" stop-color="#4377bb"/>
      <stop offset="1" stop-color="#1f3b77"/>
    </linearGradient>
    <linearGradient id="d" x1="23.184" x2="225.891" y1="97.987" y2="235.808" gradientUnits="userSpaceOnUse">
      <stop stop-color="#315aa9"/>
      <stop offset=".5" stop-color="#518ac8"/>
      <stop offset="1" stop-color="#315aa9"/>
    </linearGradient>
    <linearGradient id="e" x1="114.636" x2="32.845" y1="114.57" y2="414.525" gradientUnits="userSpaceOnUse">
      <stop stop-color="#4377bb"/>
      <stop offset=".5" stop-color="#1a336b"/>
      <stop offset="1" stop-color="#1a336b"/>
    </linearGradient>
    <clipPath id="a">
      <path fill="#ebebeb" d="M0 .5h256v239H0z"/>
    </clipPath>
  </defs>
</svg>
