<svg xmlns="http://www.w3.org/2000/svg" width="257" height="62" fill="none" viewBox="0 0 257 62">
  <g fill-rule="evenodd" clip-path="url(#a)" clip-rule="evenodd">
    <path fill="#ebebeb" d="M232.791.465c-10.458 0-16.366 2.02-19.759 6.751-3.544 4.942-4.256 12.744-4.256 23.732 0 21.57 3.337 30.587 24.015 30.587 2.484 0 10.974-.048 15.93-.653 1.928-.32 2.792-1.796 2.792-3.117v-2.383c0-1.853-1.401-3.252-3.26-3.252h-15.462c-11.667 0-13.771-2.75-14.07-18.386v-5.061c.099-16 2.203-18.813 14.07-18.813 10.943 0 13.042 2.497 13.406 16.582h-17.388v9.51h22.869c4.505 0 4.505-3.15 4.505-4.185v-3.036C255.857 6.807 250.609.465 232.791.465m-30.113.838-.249-.065c-2.13-.448-7.95-.773-10.836-.773-10.212 0-15.609 4.276-15.609 12.365v45.038c0 1.853 1.296 3.149 3.155 3.149h3.633c1.859 0 3.157-1.295 3.157-3.15v-44.21c0-1.997.505-3.787 6.598-3.787l9.023-.008c.883.106 1.726-.139 2.376-.689.708-.597 1.098-1.469 1.098-2.452V4.442c0-1.495-.856-2.64-2.346-3.139m-43.613-.113h-3.633c-1.858 0-3.157 1.295-3.157 3.15v47.79h-15.107c-9.345 0-13.136-.594-13.136-15.488V4.34c0-1.853-1.298-3.149-3.157-3.149h-3.529c-1.858 0-3.26 1.354-3.26 3.15v32.302c0 21.168 7.677 24.893 23.808 24.893 5.803 0 13.751 0 21.329-1.068l.176-.035c1.872-.467 2.821-1.54 2.821-3.185V4.339c0-1.853-1.298-3.149-3.155-3.149"/>
    <path fill="#74bb11" d="M102.882 2.67c-.466-.99-1.466-1.582-2.675-1.582h-4.669c-1.356 0-2.37.546-2.904 1.53l-6.92 10.11 6.058 8.286 10.577-15.173c1.161-1.41.759-2.687.533-3.17"/>
    <path fill="#009cd9" d="m66.397 2.501-.006-.01c-1.055-1.405-2.458-1.405-2.92-1.405h-4.567c-1.17 0-2.128.538-2.629 1.474-.515.959-.405 2.11.307 3.178L73.5 29.192 54.045 56.328c-.68 1.02-.775 2.155-.261 3.113.503.936 1.462 1.472 2.63 1.472h4.669c1.2 0 2.256-.623 2.784-1.605L85.644 29.3z"/>
    <path fill="#eb2084" d="M105.205 56.566 91.631 37.937 85.66 46.17l10.735 14.326.279.122c.426.192.887.293 1.354.296h4.565c1.103 0 2.039-.49 2.57-1.345.543-.877.558-1.97.042-3.002"/>
    <path fill="#ebebeb" d="M36.09 35.548v15.82c-4.624.709-11.67.866-14.071.866-10.624 0-11.788-2.903-11.788-9.067 0-5.769 2.159-7.62 8.882-7.62zM21.5.465c-3.283 0-7.759.085-13.328.755l-.252.056c-1.623.461-2.444 1.527-2.444 3.167v2.278c0 1.942 1.209 3.149 3.156 3.149H21.5c10.361 0 14.588 2.807 14.588 9.689v6.688H19.113c-13.268 0-18.93 5.06-18.93 16.92 0 13.218 5.86 18.368 20.902 18.368 6.093 0 17.308-.473 21.453-1.737 3.496-.97 3.496-3.64 3.496-4.518V18.94C46.034 6.508 38.007.464 21.5.464z"/>
  </g>
  <defs>
    <clipPath id="a">
      <path fill="#ebebeb" d="M.183.434h256v61.133h-256z"/>
    </clipPath>
  </defs>
</svg>
