<svg xmlns="http://www.w3.org/2000/svg" width="239" height="256" fill="none" viewBox="0 0 239 256">
  <g fill-rule="evenodd" clip-path="url(#a)" clip-rule="evenodd">
    <path fill="#412846" d="M120.03-.03.03 41.484l17.179 158.665L120.03 255.97z"/>
    <path fill="#4b314f" d="m119.03-.03 120 41.514-17.18 158.665-102.82 55.821z"/>
    <path fill="#ba2bd2" d="m179.132 87.587-.022-.068q8.199 9.114 8.422 21.642c.15 8.353-2.658 17.164-8.486 26.406 4.356-3.382 9.386-10.682 15.075-21.816 2.457 22.564-6.673 39.704-27.476 51.443 6.642-.612 15.46-4.979 26.397-13.118q-17.506 42.097-64.38 44.422c-30.2-.008-49.764-18.134-49.749-18.122-12.416-9.652-20.958-21.816-25.599-36.439-7.426-8.1-7.5-8.968-8.266-12.204s.484-4.141 2.66-7.308c1.45-2.111 1.791-5.149 1.046-9.057q-2.772-3.841-3.193-12.031-.001-3.958 5.29-8.352c3.525-2.93 5.69-5.183 6.473-6.734q.897-1.268.693-10.998-.055-9.556 10.625-10.399c10.68-.842 16.704-8.864 20.06-12.513 2.236-2.432 5.547-3.614 9.722-3.637 5.88-.275 11.228 1.976 15.836 6.62 11.477-.593 23.233 2.499 35.145 9.195 16.928 10.044 26.166 20.92 27.715 32.574-1.814 15.337-22.443 14.936-61.794-1.207q-30.888 8.739-30.381 37.873c-.014 17.824 8.623 30.775 25.851 38.842-8.397-8.234-11.973-15.155-10.769-20.886 17.467 20.659 37.362 28.38 59.651 23.166-9.827.343-17.611-2.815-23.469-9.522 15.066-.365 29.289-7.351 42.682-21.026-7.731 6.144-15.821 8.471-24.387 7.007q34.799-27.324 24.628-63.753m-42.107-2.803a3.403 3.403 0 0 0 3.406-3.4 3.404 3.404 0 0 0-3.406-3.401 3.403 3.403 0 0 0-3.405 3.4 3.403 3.403 0 0 0 3.405 3.401"/>
  </g>
  <defs>
    <clipPath id="a">
      <path fill="#ebebeb" d="M0 0h239v256H0z"/>
    </clipPath>
  </defs>
</svg>
