<svg xmlns="http://www.w3.org/2000/svg" width="257" height="256" fill="none" viewBox="0 0 257 256"><g clip-path="url(#a)"><path fill="#398ccb" d="M181.556 0h-106c-41.422 0-75 33.579-75 75v106c0 41.421 33.578 75 75 75h106c41.421 0 75-33.579 75-75V75c0-41.421-33.579-75-75-75"/><path fill="#ebebeb" fill-rule="evenodd" d="m128.279 37.5 35.538 20.504v11.274l43.016 24.841v42.493l11.538 6.661v41.031l-35.515 20.503-15.768-9.118-38.336 22.134-38.108-22.006-15.546 8.99-35.516-20.538v-40.996l11.089-6.401V94.119l42.092-24.3.023-.001V58.004zm35.538 42.44v19.072l-35.515 20.504-35.515-20.505V80.469l-.024.001L59.901 99.45v32.092l15.197-8.773 35.515 20.504v40.996l-10.745 6.213 28.884 16.679 29.113-16.805-10.525-6.087v-40.996l35.516-20.504 14.746 8.514V99.45zm-7.246 99.044v-25.026l21.669 12.507v25.027zm52.569-25.061-21.669 12.508v25.061l21.669-12.542zM48.813 178.95v-25.027l21.67 12.508v25.027zm52.57-25.027-21.67 12.508v25.027l21.67-12.508zm59.804-7.961 21.669-12.508 21.669 12.508-21.669 12.519zm-86.089-12.543-21.67 12.543 21.67 12.484 21.669-12.484zm26.919-39.738V68.654l21.646 12.519v25.015zm52.546-25.027-21.646 12.519v25.004l21.646-12.496zm-47.93-7.985 21.646-12.507 21.669 12.507-21.669 12.508z" clip-rule="evenodd"/></g><defs><clipPath id="a"><path fill="#ebebeb" d="M.556 0h256v256h-256z"/></clipPath></defs></svg>
