<svg width="256" height="222" viewBox="0 0 256 222" fill="none"
  xmlns="http://www.w3.org/2000/svg">
  <g clip-path="url(#clip0_62_22)">
    <path d="M69.1541 140.083C93.5172 138.503 119.251 141.518 136.774 150.743C154.905 160.287 162.634 175.455 161.379 190.053C160.194 203.815 150.885 216.277 137.234 220.076L136.585 220.252C115.915 225.534 94.2552 210.444 91.843 189.37L91.7428 188.363L91.7154 187.933C91.6513 185.789 92.4109 183.703 93.838 182.103C95.2652 180.502 97.2513 179.51 99.3879 179.329C101.524 179.149 103.649 179.794 105.325 181.132C107 182.47 108.099 184.399 108.396 186.523L108.443 186.953L108.496 187.477C109.771 198.488 121.645 206.767 132.435 204.011L133.032 203.845C139.177 201.984 144.045 195.978 144.678 188.616C145.28 181.63 141.972 172.421 128.966 165.574C115.35 158.406 93.1823 155.322 70.2406 156.811C47.2989 158.299 25.7193 164.223 13.1437 173.091L12.7838 173.33C10.9359 174.47 8.71766 174.849 6.59615 174.386C4.47464 173.923 2.61545 172.655 1.4101 170.849C0.204749 169.043 -0.252699 166.84 0.134085 164.703C0.520869 162.566 1.7217 160.663 3.48371 159.394L5.02804 158.337C21.2367 147.591 45.5541 141.616 69.1541 140.083ZM214.339 43.2735C236.686 44.048 256.355 61.9103 255.995 85.2711L255.963 86.4054C255.421 99.0767 250.604 110.16 241.834 118.306C233.147 126.378 221.2 131 207.276 132.095C199.645 132.694 189.487 130.772 178.681 128.713C167.367 126.556 154.044 123.939 138.597 122.31C108.325 119.114 69.9286 119.727 24.7923 135.658L22.6352 136.428C20.5591 137.127 18.2918 136.986 16.3186 136.034C14.3454 135.083 12.8231 133.396 12.0776 131.336C11.3321 129.276 11.4226 127.007 12.3299 125.013C13.2371 123.019 14.8889 121.459 16.9317 120.668L19.2208 119.848C67.2203 102.91 108.213 102.247 140.357 105.641C156.609 107.356 170.613 110.112 181.82 112.247C193.534 114.479 201.099 115.766 205.959 115.385C217.022 114.515 225.106 110.969 230.427 106.028C235.666 101.161 238.846 94.3776 239.217 85.6879L239.235 85.0456C239.429 71.8436 228.09 60.5185 213.786 60.0243L213.089 60.0083C199.818 59.8785 189.605 68.1445 186.972 81.1529C186.505 83.3055 185.209 85.1877 183.365 86.3925C181.521 87.5972 179.276 88.0276 177.117 87.5906C174.958 87.1536 173.058 85.8843 171.828 84.0572C170.597 82.2302 170.136 79.9922 170.542 77.8273C174.772 56.9402 191.949 43.0366 213.257 43.2485L214.339 43.2735Z" fill="#EBEBEB"/>
    <path d="M104.218 34.4478C105.357 14.228 124.028 -2.10587 144.603 0.846125L145.357 0.964569C161.162 3.59767 171.699 16.9431 173.196 31.4525C174.786 46.8503 166.419 62.8949 146.737 71.4115C113.603 85.7478 104.765 84.6066 42.6591 99.1843L36.4795 100.644L36.0558 100.735C33.9448 101.12 31.7666 100.681 29.97 99.5075C28.1733 98.3343 26.895 96.5167 26.3984 94.4291C25.9017 92.3416 26.2246 90.1431 27.3005 88.2865C28.3763 86.4299 30.1232 85.0566 32.1814 84.4494L32.5959 84.3378L38.9668 82.8345C102.872 67.824 108.683 69.6143 140.084 56.0274C153.712 50.1325 157.29 40.6023 156.525 33.1723C155.714 25.3367 150.243 18.9476 142.933 17.5559L142.22 17.4374C131.834 15.9455 121.57 24.5167 120.953 35.3703L120.93 35.8874L120.907 36.3201C120.729 38.4565 119.739 40.4434 118.141 41.8722C116.543 43.301 114.458 44.0631 112.315 44.0018C110.172 43.9406 108.134 43.0606 106.62 41.5428C105.106 40.025 104.231 37.9849 104.175 35.8418V35.4136L104.218 34.4478Z" fill="#EBEBEB"/>
  </g>
  <defs>
    <clipPath id="clip0_62_22">
      <rect width="256" height="221" fill="white" transform="translate(0 0.5)"/>
    </clipPath>
  </defs>
</svg>
