<svg width="256" height="256" viewBox="0 0 256 256" fill="none"
  xmlns="http://www.w3.org/2000/svg">
  <circle cx="128" cy="128" r="128" fill="#B270EC"/>
  <path d="M119.652 121.888V132.638H80.1318V121.888H119.652ZM169.934 121.888V132.638H130.414V121.888H169.934ZM59.7568 158.232C59.7568 160.274 59.8796 162.301 60.125 164.313L60.2383 165.175V165.177L60.3682 166.028C60.6495 167.707 61.0621 169.237 61.6016 170.623L61.8818 171.304L61.8857 171.313L61.8896 171.324C62.6285 173.131 63.5999 174.578 64.7881 175.693H64.7871C65.931 176.738 67.3774 177.312 69.1924 177.381L70.3154 177.423L70.1426 178.534L69.1133 185.153L68.9766 186.031L68.0889 185.999C64.7504 185.878 61.8129 184.965 59.3154 183.231C56.8637 181.529 54.8375 179.286 53.2334 176.521V176.522C51.7083 173.897 50.5624 170.964 49.79 167.732V167.731C49.0208 164.551 48.6348 161.384 48.6348 158.232V148.504C48.6348 143.076 47.5201 139.367 45.5088 137.144L45.5039 137.138C43.5313 134.925 40.4301 133.711 35.9912 133.674L35 133.665V123.326H36C40.4418 123.326 43.5401 122.146 45.5088 119.972L45.6943 119.759C47.5876 117.514 48.6348 113.851 48.6348 108.554V98.7676C48.6348 95.5851 48.9862 92.3494 49.6865 89.0615L49.6885 89.0537L49.832 88.4287C50.5754 85.323 51.6926 82.513 53.1904 80.0068C54.6093 77.5868 56.4418 75.5843 58.6836 74.0088L59.1377 73.6982C61.6389 72.006 64.638 71.1214 68.0898 71.001L68.9766 70.9697L69.1133 71.8467L70.1426 78.4658L70.3164 79.583L69.1875 79.6191C67.0023 79.6904 65.3636 80.2902 64.1729 81.3301C62.9368 82.438 61.998 83.8473 61.3643 85.583L61.3613 85.5908C60.7644 87.1831 60.3518 88.957 60.1309 90.918L60.0479 91.7695C59.8539 94.122 59.7568 96.4547 59.7568 98.7676V108.554C59.7568 113.293 58.8142 117.506 56.8965 121.164C55.2755 124.276 52.8901 126.747 49.7715 128.579C52.8921 130.389 55.2774 132.867 56.8975 136.011L57.2393 136.695C58.8947 140.151 59.7253 144.093 59.7568 148.497V158.232ZM221 133.657L220.017 133.673C217.748 133.71 215.804 134.043 214.167 134.647L214.154 134.652C212.582 135.209 211.313 136.086 210.323 137.282L210.324 137.283C209.414 138.384 208.704 139.766 208.212 141.455L208.116 141.797C207.622 143.648 207.365 145.878 207.365 148.504V158.232C207.365 161.381 206.996 164.546 206.261 167.726L206.26 167.725C205.52 170.962 204.374 173.917 202.814 176.582L202.81 176.591C201.306 179.107 199.434 181.211 197.195 182.894L196.743 183.225C194.239 185.004 191.277 185.919 187.899 186L187.021 186.021L186.887 185.153L185.857 178.534L185.685 177.424L186.807 177.381C188.589 177.312 190.023 176.737 191.172 175.686L191.398 175.472C192.517 174.384 193.443 173.004 194.165 171.311C194.91 169.524 195.445 167.482 195.762 165.177L195.764 165.161C196.116 162.871 196.292 160.561 196.292 158.232V148.504C196.292 145.389 196.678 142.492 197.46 139.818L197.463 139.808L198.42 140.1L197.464 139.808C198.285 137.117 199.541 134.767 201.239 132.773L201.58 132.384C202.386 131.486 203.271 130.666 204.234 129.924L204.24 129.92L204.246 129.915C204.88 129.442 205.546 129.002 206.241 128.593C205.509 128.166 204.808 127.702 204.142 127.195L204.136 127.19L204.131 127.187C202.996 126.299 201.994 125.307 201.128 124.211L200.822 123.827C199.318 121.889 198.199 119.671 197.461 117.186L197.46 117.182C196.678 114.509 196.292 111.631 196.292 108.554V98.7676C196.292 96.4594 196.179 94.1313 195.953 91.7832L195.952 91.7695C195.762 89.4628 195.335 87.4012 194.683 85.5771H194.682C194.056 83.9499 193.177 82.6091 192.049 81.5352L191.818 81.3223C190.664 80.2903 189.047 79.6904 186.861 79.6191L185.74 79.583L185.905 78.4736L186.886 71.8535L187.017 70.9678L187.911 71.001C191.227 71.1214 194.122 71.9464 196.554 73.5166L197.002 73.8105C199.216 75.3083 201.051 77.2167 202.503 79.5264L202.822 80.0469C204.388 82.6646 205.516 85.5714 206.212 88.7598L206.352 89.3906C207.027 92.5458 207.365 95.6719 207.365 98.7676V108.554C207.365 110.802 207.54 112.763 207.882 114.445C208.255 116.084 208.793 117.474 209.479 118.632L209.667 118.933C210.622 120.407 211.89 121.49 213.487 122.202C215.262 122.94 217.424 123.326 220 123.326H221V133.657Z" fill="#EBEBEB" stroke="#EBEBEB" stroke-width="2"/>
</svg>
