<svg xmlns="http://www.w3.org/2000/svg" width="256" height="256" fill="none" viewBox="0 0 256 256">
  <g clip-path="url(#a)">
    <path fill="#f05133" d="M251.173 116.598 139.395 4.828c-6.432-6.437-16.872-6.437-23.311 0l-23.21 23.213 29.441 29.442c6.844-2.311 14.689-.762 20.142 4.693 5.481 5.488 7.02 13.4 4.651 20.268l28.376 28.376c6.864-2.365 14.785-.837 20.267 4.655 7.663 7.661 7.663 20.077 0 27.74-7.665 7.667-20.08 7.667-27.749 0-5.762-5.767-7.188-14.234-4.269-21.334L137.27 95.416l-.003 69.641a19.8 19.8 0 0 1 5.189 3.71c7.661 7.661 7.661 20.074 0 27.747-7.664 7.661-20.084 7.661-27.74 0-7.662-7.673-7.662-20.086 0-27.747a19.6 19.6 0 0 1 6.423-4.281V94.199a19.35 19.35 0 0 1-6.424-4.281c-5.804-5.8-7.202-14.319-4.225-21.446L81.467 39.443 4.83 116.081c-6.44 6.443-6.44 16.883 0 23.321l111.772 111.77c6.435 6.437 16.871 6.437 23.315 0L251.172 139.93c6.437-6.441 6.437-16.884 0-23.323"/>
  </g>
  <defs>
    <clipPath id="a">
      <path fill="#ebebeb" d="M0 0h256v256H0z"/>
    </clipPath>
  </defs>
</svg>
