<svg width="257" height="108" viewBox="0 0 257 108" fill="none" xmlns="http://www.w3.org/2000/svg">
<path d="M13.5839 2.28603V73.966C13.5839 87.6108 18.005 96.7244 27.9199 97.006C41.3855 96.4172 42.9471 86.9964 43.0239 74.734V2.28603H54.2879V73.966C53.9807 92.526 48.6047 106.35 27.6639 106.99C6.14194 107.451 1.85138 91.3996 1.80786 74.222V2.54203H13.5839V2.28603ZM64.7839 2.28603H77.3279L91.1519 39.15L105.488 2.28603H117.008L96.7839 49.39L119.568 104.686H106.256L89.8719 62.19L73.4879 104.942H61.9679L84.4959 51.438L64.7839 2.28603ZM141.328 53.23H151.056C163.83 53.486 167.901 44.0908 167.952 33.262C167.952 20.5081 162.141 12.7206 150.032 12.526H141.072V53.23H141.328ZM129.552 2.28603H149.52C163.267 1.67419 172.432 7.20123 177.68 18.414C178.448 20.206 178.96 22.254 179.216 24.558C179.728 26.862 179.728 29.678 179.728 32.75C179.728 36.846 179.216 40.686 178.192 44.27C177.168 47.854 175.632 51.182 173.328 53.998C167.465 60.7564 159.043 62.9068 151.312 62.958H141.328V104.686H129.552V2.28603ZM189.2 28.91H199.696V104.686H189.2V28.91ZM200.208 2.28603V15.342H188.688V2.28603H200.208ZM211.728 28.91H221.456V40.43C221.712 39.662 222.224 38.382 222.992 36.846C223.76 35.31 224.784 33.774 226.064 32.494C227.344 30.958 229.136 29.678 230.928 28.654C232.976 27.63 235.28 27.118 238.096 27.118C254.992 27.886 254.48 44.3212 254.48 56.558V104.686H244.24V56.814C244.24 48.5452 243.83 38.0236 234.768 36.846C231.952 36.846 229.904 37.614 228.112 39.406C226.576 41.198 225.296 43.246 224.528 45.55C223.76 48.11 223.248 50.67 222.992 53.486C222.736 56.302 222.736 58.862 222.736 60.91V104.686H212.24V28.91H211.728Z" fill="white"/>
</svg>
