<svg xmlns="http://www.w3.org/2000/svg" width="256" height="257" fill="none" viewBox="0 0 256 257"><g clip-path="url(#a)"><path fill="url(#b)" d="m50.699 159.588 156.225-52.152c-3.122-19.523-5.347-32.565-7.924-42.519-2.777-10.706-4.978-13.57-5.842-14.562a30.5 30.5 0 0 0-10.973-7.97c-1.216-.52-4.626-1.728-15.654-1.064-11.669.705-26.987 3.089-51.246 6.93-24.25 3.84-39.56 6.313-50.869 9.241-10.7 2.776-13.573 4.985-14.566 5.849a30.6 30.6 0 0 0-7.963 10.97c-.52 1.216-1.729 4.624-1.065 15.658.705 11.666 3.09 26.988 6.931 51.24a2861 2861 0 0 0 2.946 18.379"/><path fill="url(#c)" d="M7.625 147.563c-7.427-46.92-11.149-70.38-3.098-89.214a71.1 71.1 0 0 1 18.6-25.604c15.423-13.467 38.88-17.18 85.796-24.612C155.854.69 179.312-3.021 198.16 5.028a71.1 71.1 0 0 1 25.595 18.595c13.477 15.427 17.191 38.886 24.618 85.814 7.435 46.919 11.149 70.387 3.097 89.214a71.1 71.1 0 0 1-18.591 25.604c-15.423 13.474-38.889 17.187-85.812 24.62-46.916 7.433-70.381 11.146-89.213 3.096a71.1 71.1 0 0 1-25.595-18.595C18.781 217.95 15.068 194.49 7.633 147.563zm82.762 83.325c12.565-.76 28.748-3.296 52.702-7.089 23.962-3.793 40.121-6.385 52.318-9.546 11.805-3.064 17.247-6.049 20.761-9.121a45.7 45.7 0 0 0 11.949-16.459c1.84-4.288 3.001-10.385 2.265-22.563-.761-12.562-3.298-28.749-7.091-52.705-3.794-23.955-6.379-40.126-9.54-52.312-3.066-11.81-6.059-17.25-9.124-20.763a45.7 45.7 0 0 0-16.455-11.954c-4.29-1.84-10.388-3-22.569-2.265-12.566.76-28.74 3.297-52.702 7.09-23.954 3.8-40.121 6.385-52.31 9.545-11.813 3.065-17.247 6.057-20.76 9.121a45.7 45.7 0 0 0-11.958 16.46c-1.833 4.288-2.993 10.385-2.257 22.563.76 12.57 3.29 28.748 7.091 52.704 3.794 23.956 6.379 40.127 9.54 52.313 3.065 11.809 6.05 17.25 9.124 20.763a45.7 45.7 0 0 0 16.455 11.954c4.29 1.84 10.38 3 22.57 2.264z"/></g><defs><linearGradient id="b" x1="6005.75" x2="8118.51" y1="896.885" y2="14093.7" gradientUnits="userSpaceOnUse"><stop stop-color="#66e3ff"/><stop offset="1" stop-color="#7064f9"/></linearGradient><linearGradient id="c" x1="10027.9" x2="14092.8" y1=".434" y2="25390.9" gradientUnits="userSpaceOnUse"><stop stop-color="#66e3ff"/><stop offset="1" stop-color="#7064f9"/></linearGradient><clipPath id="a"><path fill="#ebebeb" d="M0 .5h256v256H0z"/></clipPath></defs></svg>
