<svg xmlns="http://www.w3.org/2000/svg" width="234" height="256" fill="none" viewBox="0 0 234 256"><g fill="#61dafb" clip-path="url(#a)"><path d="M231.305 103.21c0-15.27-19.123-29.742-48.442-38.716 6.766-29.883 3.759-53.658-9.492-61.27-3.054-1.785-6.624-2.631-10.524-2.631V11.07c2.161 0 3.9.423 5.356 1.221 6.39 3.665 9.163 17.62 7 35.569-.516 4.417-1.361 9.068-2.395 13.814-9.21-2.256-19.265-3.994-29.837-5.122-6.342-8.692-12.92-16.586-19.546-23.493 15.318-14.237 29.696-22.036 39.469-22.036V.546c-12.922 0-29.837 9.21-46.939 25.184C98.851 9.85 81.937.734 69.016.734v10.478c9.726 0 24.15 7.752 39.468 21.895a222 222 0 0 0-19.406 23.446c-10.619 1.128-20.673 2.866-29.882 5.169a142 142 0 0 1-2.444-13.626c-2.208-17.949.517-31.904 6.86-35.616 1.41-.845 3.242-1.221 5.404-1.221V.78c-3.947 0-7.518.846-10.619 2.631-13.203 7.612-16.163 31.34-9.35 61.129C19.82 73.562.791 87.987.791 103.21c0 15.271 19.123 29.743 48.442 38.716-6.766 29.884-3.759 53.658 9.492 61.27 3.054 1.785 6.624 2.631 10.572 2.631 12.92 0 29.836-9.209 46.939-25.184 17.102 15.881 34.018 24.997 46.938 24.997 3.947 0 7.518-.846 10.619-2.632 13.203-7.612 16.164-31.34 9.35-61.128 29.132-8.975 48.161-23.446 48.161-38.67M170.13 71.87c-1.739 6.062-3.9 12.31-6.344 18.56-1.926-3.759-3.946-7.518-6.155-11.277-2.161-3.759-4.464-7.423-6.766-10.994 6.672.986 13.109 2.208 19.265 3.712m-21.521 50.04c-3.664 6.344-7.423 12.358-11.323 17.95-7.001.61-14.095.939-21.238.939-7.095 0-14.19-.329-21.143-.893a259 259 0 0 1-11.371-17.855 245 245 0 0 1-9.773-18.699c2.913-6.297 6.202-12.594 9.727-18.748 3.664-6.343 7.423-12.358 11.323-17.949 7.001-.61 14.095-.94 21.237-.94 7.096 0 14.191.33 21.144.893a259 259 0 0 1 11.371 17.855 245 245 0 0 1 9.773 18.701c-2.961 6.295-6.202 12.592-9.727 18.746m15.177-6.107a202 202 0 0 1 6.485 18.699 211 211 0 0 1-19.359 3.76c2.302-3.618 4.604-7.33 6.766-11.136 2.162-3.758 4.182-7.565 6.108-11.323m-47.644 50.134c-4.37-4.512-8.739-9.539-13.062-15.036 4.229.188 8.552.329 12.921.329 4.417 0 8.787-.094 13.063-.329a184 184 0 0 1-12.922 15.036m-34.957-27.675c-6.672-.987-13.11-2.209-19.264-3.712 1.738-6.062 3.9-12.311 6.343-18.56 1.927 3.759 3.947 7.518 6.154 11.277a313 313 0 0 0 6.767 10.995m34.723-97.778c4.369 4.51 8.739 9.538 13.061 15.035-4.228-.187-8.551-.328-12.921-.328-4.416 0-8.786.093-13.061.328a184 184 0 0 1 12.921-15.035m-34.77 27.675c-2.303 3.618-4.605 7.33-6.766 11.135a267 267 0 0 0-6.108 11.276 201 201 0 0 1-6.484-18.7 228 228 0 0 1 19.357-3.711m-42.523 58.826c-16.632-7.095-27.392-16.398-27.392-23.775s10.76-16.727 27.393-23.774c4.04-1.74 8.457-3.29 13.015-4.746 2.678 9.209 6.202 18.794 10.572 28.614-4.323 9.774-7.8 19.311-10.431 28.474-4.651-1.457-9.068-3.054-13.157-4.793m25.28 67.143c-6.39-3.665-9.164-17.619-7.001-35.569.517-4.416 1.361-9.068 2.395-13.814 9.21 2.256 19.265 3.995 29.837 5.122 6.342 8.692 12.92 16.586 19.546 23.493-15.318 14.237-29.696 22.036-39.469 22.036-2.114-.046-3.899-.47-5.309-1.268m111.45-35.803c2.208 17.948-.517 31.903-6.861 35.615-1.409.846-3.241 1.222-5.403 1.222-9.726 0-24.15-7.753-39.468-21.896a222 222 0 0 0 19.406-23.446c10.619-1.128 20.673-2.866 29.882-5.168 1.081 4.745 1.927 9.303 2.444 13.673m18.089-31.34c-4.041 1.739-8.458 3.29-13.015 4.746-2.678-9.209-6.202-18.794-10.572-28.615 4.324-9.773 7.8-19.31 10.431-28.473 4.652 1.456 9.068 3.054 13.204 4.793 16.632 7.094 27.392 16.397 27.392 23.774-.047 7.377-10.807 16.727-27.44 23.775"/><path d="M116.001 124.683c11.86 0 21.473-9.614 21.473-21.474 0-11.858-9.613-21.472-21.473-21.472-11.858 0-21.472 9.614-21.472 21.472 0 11.86 9.614 21.474 21.472 21.474M11.259 242.798H4.171v12.208h-4v-30.177h9.99q5.098 0 7.834 2.322 2.757 2.32 2.757 6.755 0 2.82-1.534 4.913-1.513 2.093-4.228 3.129l7.088 12.809v.249h-4.27zm-7.088-3.254h6.114q2.964 0 4.705-1.534 1.761-1.533 1.761-4.104 0-2.798-1.678-4.289-1.658-1.493-4.809-1.513H4.171zm30.882 15.877q-4.56 0-7.42-2.985-2.86-3.006-2.86-8.021v-.705q-.001-3.336 1.264-5.948 1.285-2.632 3.564-4.104 2.3-1.493 4.975-1.493 4.374 0 6.797 2.881 2.425 2.881 2.425 8.249v1.596H28.607q.082 3.317 1.927 5.369 1.866 2.03 4.726 2.031 2.03 0 3.44-.829a8.65 8.65 0 0 0 2.466-2.197l2.342 1.824q-2.819 4.331-8.455 4.332m-.477-20.105q-2.322 0-3.897 1.699-1.575 1.68-1.948 4.726h11.234v-.29q-.166-2.922-1.575-4.519-1.41-1.616-3.814-1.616m27.524 19.69q-.333-.664-.54-2.363-2.673 2.777-6.383 2.778-3.315 0-5.45-1.866-2.115-1.887-2.115-4.767 0-3.502 2.653-5.43 2.674-1.95 7.503-1.949h3.73v-1.761q0-2.01-1.201-3.192-1.203-1.202-3.545-1.202-2.052 0-3.44 1.036-1.389 1.036-1.389 2.508h-3.855q0-1.678 1.181-3.234 1.203-1.573 3.234-2.487 2.051-.911 4.497-.912 3.876 0 6.073 1.949 2.196 1.928 2.28 5.326v10.322q0 3.088.788 4.912v.332zm-6.363-2.922a6.74 6.74 0 0 0 3.42-.933q1.615-.933 2.342-2.425v-4.601h-3.006q-7.047 0-7.047 4.124 0 1.803 1.202 2.819 1.203 1.015 3.089 1.016m24.6.207q2.053 0 3.587-1.244 1.533-1.243 1.699-3.109h3.628q-.105 1.928-1.327 3.669-1.224 1.741-3.275 2.777a9.35 9.35 0 0 1-4.311 1.037q-4.58 0-7.296-3.047-2.693-3.069-2.694-8.374v-.642q0-3.275 1.202-5.824t3.441-3.959q2.259-1.41 5.326-1.41 3.773 0 6.26 2.26 2.506 2.259 2.674 5.865h-3.628q-.165-2.176-1.658-3.565-1.47-1.409-3.648-1.409-2.921 0-4.539 2.114-1.595 2.093-1.596 6.073v.725q0 3.875 1.596 5.969t4.56 2.094m18.426-25.14v5.429h4.187v2.964h-4.187v13.907q0 1.347.56 2.031.56.664 1.907.664.663 0 1.823-.249v3.109a11.1 11.1 0 0 1-2.943.415q-2.569-.001-3.876-1.555-1.305-1.554-1.305-4.415v-13.907h-4.084v-2.964h4.084v-5.429zm43.007 27.855h-4.001l-15.192-23.255v23.255h-4v-30.177h4l15.234 23.358v-23.358h3.959zm20.311 0q-.333-.664-.539-2.363-2.674 2.777-6.384 2.778-3.317 0-5.451-1.866-2.114-1.887-2.114-4.767 0-3.502 2.653-5.43 2.674-1.95 7.503-1.949h3.731v-1.761q0-2.01-1.203-3.192-1.202-1.202-3.544-1.202-2.052 0-3.44 1.036-1.389 1.036-1.389 2.508h-3.855q0-1.678 1.181-3.234 1.203-1.573 3.234-2.487 2.051-.911 4.497-.912 3.875 0 6.073 1.949 2.196 1.928 2.28 5.326v10.322q0 3.088.788 4.912v.332zm-6.363-2.922a6.74 6.74 0 0 0 3.42-.933q1.615-.933 2.342-2.425v-4.601h-3.006q-7.047 0-7.047 4.124 0 1.803 1.202 2.819 1.202 1.015 3.089 1.016m20.808-24.933v5.429h4.187v2.964h-4.187v13.907q0 1.347.56 2.031.56.664 1.907.664.662 0 1.824-.249v3.109q-1.514.415-2.944.415-2.569-.001-3.876-1.555-1.305-1.554-1.305-4.415v-13.907h-4.083v-2.964h4.083v-5.429zm12.851 27.855h-3.835V232.58h3.835zm-4.146-28.374q0-.932.56-1.575.58-.643 1.699-.642 1.12 0 1.7.642.58.643.58 1.575 0 .933-.58 1.555t-1.7.622-1.699-.622q-.56-.622-.56-1.555m17.7 23.172 5.554-17.224h3.918l-8.042 22.426h-2.923l-8.124-22.426h3.917zm22.176 5.617q-4.56 0-7.419-2.985-2.86-3.006-2.86-8.021v-.705q0-3.336 1.264-5.948 1.284-2.632 3.564-4.104 2.301-1.493 4.974-1.493 4.374 0 6.799 2.881 2.424 2.881 2.425 8.249v1.596h-15.193q.084 3.317 1.928 5.369 1.865 2.03 4.725 2.031 2.032 0 3.441-.829a8.7 8.7 0 0 0 2.467-2.197l2.342 1.824q-2.82 4.331-8.457 4.332m-.477-20.105q-2.32 0-3.896 1.699-1.576 1.68-1.947 4.726h11.232v-.29q-.166-2.922-1.575-4.519-1.408-1.616-3.814-1.616"/></g><defs><clipPath id="a"><path fill="#ebebeb" d="M0 0h234v256H0z"/></clipPath></defs></svg>
