<svg width="257" height="100" viewBox="0 0 257 100" fill="none"
  xmlns="http://www.w3.org/2000/svg">
  <g clip-path="url(#clip0_20_1086)">
    <path d="M175.224 9.5677V9.02769H174.344V9.5677H175.224ZM181.104 23.7277V23.9877H181.724C181.73 23.6923 181.791 23.4006 181.904 23.1277V22.5877C181.644 22.5877 181.384 23.0077 181.144 23.7477L181.104 23.7277ZM158.144 41.5677C156.857 39.3637 155.276 37.3451 153.444 35.5677C153.444 34.9277 154.444 33.9877 156.624 32.7277L162.844 27.3077C164.491 24.7374 165.347 21.74 165.304 18.6877V17.7677C165.064 15.0077 163.064 12.7877 159.304 11.0877C157.064 9.58103 153.064 8.74769 147.304 8.58769C140.77 9.46098 134.389 11.238 128.344 13.8677C126.011 15.5279 123.588 17.0569 121.084 18.4477V18.9077C121.346 18.8582 121.592 18.7486 121.804 18.5877C121.867 18.5723 121.933 18.5716 121.996 18.5856C122.059 18.5997 122.118 18.6282 122.168 18.6688C122.219 18.7095 122.259 18.7612 122.286 18.82C122.313 18.8788 122.326 18.943 122.324 19.0077L122.784 18.7677H123.004V18.9677C121.493 20.5094 119.793 21.8534 117.944 22.9677L118.204 23.4477H117.984L117.424 23.2477C117.424 23.4077 117.204 23.5277 116.744 23.5677V23.7677L117.284 24.4477C117.015 24.4409 116.75 24.3796 116.504 24.2677C115.604 24.3935 114.78 24.8411 114.184 25.5277L114.504 24.1477C115.531 19.8635 116.306 15.5227 116.824 11.1477V10.9077C115.961 10.3361 115.198 9.62664 114.564 8.80769C114.586 8.48138 114.586 8.154 114.564 7.82769V7.62769H114.344C111.891 11.321 107.151 17.621 100.124 26.5277C94.7911 32.861 92.0311 36.381 91.8444 37.0877C89.6644 39.3477 88.6244 40.7077 88.7244 41.0877C88.1444 41.4677 87.9044 41.8277 88.0044 42.2477C87.9717 42.26 87.9366 42.2649 87.9018 42.2622C87.8669 42.2595 87.833 42.2493 87.8025 42.2321C87.7721 42.215 87.7457 42.1914 87.7253 42.163C87.7049 42.1346 87.6909 42.1021 87.6844 42.0677C87.2279 42.8113 86.6228 43.4527 85.907 43.9517C85.1912 44.4507 84.3801 44.7966 83.5244 44.9677L81.5244 45.4077C81.4615 45.4171 81.4012 45.4394 81.3474 45.4732C81.2936 45.5071 81.2473 45.5517 81.2116 45.6044C81.1759 45.657 81.1515 45.7165 81.1399 45.779C81.1284 45.8415 81.1299 45.9058 81.1444 45.9677V46.2077L81.8644 46.0477V46.2477L80.2244 46.8877L77.3244 47.5677H75.8044C75.5844 47.7877 77.0244 47.5677 76.4644 47.6877L74.4644 48.1277C73.3044 48.3877 72.6844 48.2877 72.4644 47.8277H72.2444C72.2798 47.9857 72.2798 48.1496 72.2444 48.3077L72.4844 47.9877L70.9644 48.3477C70.8577 47.641 68.7977 45.0677 64.7844 40.6277C64.7844 39.7677 66.1244 38.5277 69.0244 36.9077L77.1844 29.7277C79.0111 27.381 80.0977 23.6144 80.4444 18.4277L80.3444 17.2477C80.0244 13.5877 77.3844 10.6477 72.3444 8.36769C69.4044 6.36769 64.1044 5.3077 56.4644 5.1477C47.9479 6.30592 39.6264 8.60662 31.7244 11.9877C28.6598 14.1758 25.4674 16.1794 22.1644 17.9877V18.6277C22.5074 18.5692 22.8343 18.4398 23.1244 18.2477C23.2043 18.2262 23.2881 18.2234 23.3692 18.2395C23.4504 18.2555 23.5267 18.29 23.5924 18.3403C23.6581 18.3905 23.7114 18.4552 23.7482 18.5293C23.7849 18.6034 23.8042 18.685 23.8044 18.7677L24.4444 18.4077H24.7644V18.7077C22.7424 20.689 20.5013 22.4336 18.0844 23.9077L18.4444 24.4677H18.1444L17.4644 24.2277C17.4644 24.4077 17.1644 24.5477 16.5044 24.6077V24.9477L17.2444 25.7677C16.9015 25.7647 16.5622 25.6968 16.2444 25.5677C15.3501 25.7533 14.5064 26.13 13.7711 26.672C13.0359 27.2139 12.4264 27.9083 11.9844 28.7077L12.3444 29.2677C12.9603 28.5963 13.6752 28.023 14.4644 27.5677V28.4877C14.1252 28.5591 13.8006 28.6876 13.5044 28.8677L14.3444 29.9877C15.7912 28.4568 17.4239 27.113 19.2044 25.9877C20.0844 26.2077 20.5444 26.4877 20.5644 26.7877H21.2444C25.5709 23.4827 30.3896 20.8776 35.5244 19.0677V19.7077C34.6444 21.041 34.0511 21.7077 33.7444 21.7077C33.7659 22.1405 33.9273 22.5546 34.2044 22.8877C34.2844 23.6877 32.1444 29.0877 27.7844 39.0877C17.9844 62.1944 9.73108 79.301 3.02441 90.4077C3.08596 90.7347 3.22292 91.0429 3.42441 91.3077C4.54183 91.1255 5.6103 90.7172 6.56441 90.1077H6.92441V90.7477H7.54441L8.18441 90.3877C8.18441 90.5677 8.40441 90.6677 8.84441 90.6277V91.2677C8.76469 92.2421 8.43395 93.1791 7.88441 93.9877C6.88187 95.4449 6.15018 97.0709 5.72441 98.7877V99.0877H6.34441C8.78043 96.4432 10.8399 93.4752 12.4644 90.2677C18.6722 88.6121 24.7014 86.3477 30.4644 83.5077C33.8828 83.4124 37.1904 82.275 39.9444 80.2477V79.9077L38.3844 80.3677H38.0244V80.0277C40.2667 79.8744 42.4401 79.1887 44.3644 78.0277C50.3111 73.441 54.8044 70.1944 57.8444 68.2877C64.0844 63.701 68.1311 59.2344 69.9844 54.8877L71.0244 54.6477C71.524 54.6752 72.0248 54.6752 72.5244 54.6477C72.5244 54.4877 72.5244 54.3877 72.7244 54.3477C74.1244 54.2077 73.4444 54.3477 74.3444 54.2277L76.6844 53.6877C76.5444 53.6877 76.4844 53.8077 76.5244 53.9477L76.8844 53.7277H76.7044H77.1044L76.9244 53.8477C77.2085 53.9018 77.5003 53.9018 77.7844 53.8477L77.9444 54.5277L67.1044 71.1877L64.7444 74.1477L63.5844 77.9877H63.8044L64.9644 77.5077L64.5844 79.0077L64.7044 79.4477L65.0244 79.8477C64.8844 79.8477 64.8244 79.9877 64.8644 80.1477V80.3877L65.3444 80.2677C66.0511 79.6544 66.3511 79.0944 66.2444 78.5877C66.7403 78.7154 67.2546 78.756 67.7644 78.7077V78.9477C67.3044 79.0677 67.0644 79.4277 67.0244 80.0677V80.3077H67.2844C71.1644 76.0677 80.6644 61.6077 88.2844 51.7677C88.0444 50.701 92.0444 49.221 100.284 47.3277H100.544C100.838 48.661 100.171 51.7744 98.5444 56.6677C97.9076 58.2423 97.4318 59.8773 97.1244 61.5477C96.3199 63.6351 95.7041 65.7904 95.2844 67.9877L92.3844 77.5077C90.4732 82.5039 89.0271 87.6658 88.0644 92.9277C88.328 92.8703 88.6008 92.8703 88.8644 92.9277L89.2644 92.5677C89.2709 92.6021 89.2849 92.6346 89.3053 92.663C89.3257 92.6914 89.3521 92.715 89.3825 92.7321C89.413 92.7493 89.4469 92.7596 89.4818 92.7622C89.5166 92.7649 89.5517 92.76 89.5844 92.7477L89.6044 91.9877H90.8644C91.2444 91.9877 91.5444 91.4277 91.8244 90.5677C91.8244 89.2877 92.0244 88.5677 92.6044 88.4477C92.8993 86.8496 93.3827 85.292 94.0444 83.8077C94.3516 82.0103 94.8964 80.2616 95.6644 78.6077C96.7644 74.6077 97.6644 72.6077 98.0844 72.4877L98.2044 72.9677L97.4044 74.9677C96.3634 79.9675 94.946 84.8815 93.1644 89.6677L93.5844 91.4477H93.8444C97.3111 83.9944 102.298 69.2344 108.804 47.1677C108.876 46.2505 109.166 45.3637 109.649 44.581C110.133 43.7983 110.796 43.1424 111.584 42.6677L111.204 42.2677V42.0677C111.814 41.9735 112.369 41.6607 112.764 41.1877C112.764 41.0277 112.084 40.7677 110.764 40.4477L114.004 26.4477C114.362 26.0619 114.781 25.7376 115.244 25.4877V26.1877C114.983 26.2372 114.736 26.3467 114.524 26.5077L115.144 27.3877C116.233 26.1972 117.462 25.1429 118.804 24.2477C119.484 24.4277 119.804 24.6677 119.844 24.8877H120.324C123.618 22.3916 127.282 20.4277 131.184 19.0677V19.5277C130.531 20.5144 130.084 21.0144 129.844 21.0277C129.871 21.3474 129.974 21.6561 130.144 21.9277C128.861 26.1535 127.249 30.2727 125.324 34.2477C119.883 47.6757 113.577 60.7365 106.444 73.3477C106.506 73.5967 106.622 73.8289 106.784 74.0277C107.628 73.8925 108.432 73.5788 109.144 73.1077H109.364V73.5677H109.884L110.344 73.3277C110.344 73.461 110.511 73.5144 110.844 73.4877V73.9877C110.776 74.7541 110.499 75.4872 110.044 76.1077C109.251 77.2018 108.674 78.4372 108.344 79.7477V79.9877H108.824C110.674 77.9803 112.236 75.7253 113.464 73.2877C118.153 72.0248 122.707 70.3101 127.064 68.1677C129.674 68.1 132.201 67.2345 134.304 65.6877V65.4477L133.084 65.8077H132.824V65.5677C134.524 65.4432 136.17 64.9153 137.624 64.0277C142.124 60.5677 145.624 58.0277 147.864 56.6277C155.064 51.3877 158.404 46.3677 158.004 41.5277L158.144 41.5677ZM156.924 41.8877L157.084 43.7677C156.864 44.2277 156.624 44.4677 156.404 44.4877L156.124 41.2877C156.644 41.4677 156.904 41.6677 156.924 41.8877ZM15.8044 26.7277H15.4844V26.1477L16.7244 25.9877V26.2877C16.3883 26.3483 16.0682 26.4776 15.7844 26.6677L15.8044 26.7277ZM9.52441 89.5477C8.90536 89.2369 8.2162 89.0922 7.52441 89.1277V88.2077C7.52441 87.8477 7.68441 87.6077 8.14441 87.5277C8.60441 87.4477 8.80441 87.7877 8.82441 88.3877C9.35042 87.664 9.94665 86.9941 10.6044 86.3877L11.2844 86.6677C11.0644 88.5277 10.4844 89.4877 9.56441 89.5477H9.52441ZM76.6244 19.3477C76.3044 19.3477 75.6644 18.3877 74.7644 16.4477V15.8677C75.3644 15.8677 75.9844 16.7877 76.6244 18.7677V19.3477ZM75.7444 12.3877L75.4844 13.0077L66.3444 9.2077C72.4244 9.4077 75.5511 10.4677 75.7244 12.3877H75.7444ZM37.2644 45.4277L35.9844 45.5477V44.9677L37.2644 44.8477V45.4277ZM36.2244 25.5877H36.5444V26.5077C36.2444 26.5077 35.8644 26.9677 35.3644 27.8277V27.1877C35.9444 26.5077 36.2444 25.9677 36.2044 25.6077L36.2244 25.5877ZM33.5044 31.9877L33.6244 33.2077H33.3044L33.1844 31.9877H33.5044ZM32.0844 34.2677H32.7044C32.7044 35.2677 32.3644 35.8077 31.8644 35.8477H31.5444C31.8671 35.3961 32.0544 34.8619 32.0844 34.3077V34.2677ZM31.0244 37.4277H31.3844V37.7277L30.8044 38.6877H30.1844V38.3877C30.3098 38.3973 30.4356 38.3772 30.5518 38.3291C30.6679 38.2809 30.7711 38.2061 30.8529 38.1107C30.9347 38.0152 30.9929 37.9018 31.0227 37.7797C31.0525 37.6575 31.0531 37.5301 31.0244 37.4077V37.4277ZM29.9844 40.2877L29.8044 41.8077H29.4844L29.3444 40.3077H29.9844V40.2877ZM19.5244 69.9877C19.1044 71.9877 18.6644 73.1277 18.2044 73.1677V72.8677C18.1688 72.3159 18.2708 71.7639 18.5012 71.2612C18.7316 70.7586 19.0832 70.321 19.5244 69.9877ZM17.5244 74.1477V74.4477C17.547 74.5309 17.5493 74.6184 17.5312 74.7027C17.513 74.787 17.4749 74.8658 17.4201 74.9324C17.3653 74.999 17.2953 75.0514 17.216 75.0854C17.1367 75.1194 17.0504 75.1339 16.9644 75.1277V74.8277C16.9644 74.4677 17.1511 74.241 17.5244 74.1477ZM16.9644 82.7677H17.9244V83.1077C17.5815 83.1662 17.2545 83.2956 16.9644 83.4877H16.3444C16.3444 83.1677 16.5044 82.9277 16.9044 82.8077L16.9644 82.7677ZM44.5444 74.2477C41.1566 75.7155 37.9378 77.5462 34.9444 79.7077C29.1177 81.7477 26.2511 83.021 26.3444 83.5277C22.7932 84.8088 19.3205 86.2981 15.9444 87.9877C15.3508 87.9788 14.7678 87.8279 14.2444 87.5477C14.207 87.0238 14.321 86.5002 14.5727 86.0392C14.8245 85.5783 15.2034 85.1994 15.6644 84.9477C16.5573 84.8655 17.4567 85.0028 18.2844 85.3477C19.9087 84.6198 21.6046 84.0635 23.3444 83.6877V83.0477L21.3444 83.2077C23.1016 82.1172 24.9812 81.2378 26.9444 80.5877H27.9044V80.8877C26.2444 81.0277 25.3244 81.5277 25.1244 82.3877C25.1244 82.7877 25.3844 82.9477 25.8044 82.9077C27.0444 82.1277 27.6644 81.6677 27.6444 81.5277C30.0177 81.0744 36.5577 77.6544 47.2644 71.2677V71.8477C47.2644 72.1277 46.3644 72.9077 44.5244 74.2477H44.5444ZM28.1044 79.6477C29.6174 79.5265 31.0367 78.8665 32.1044 77.7877C32.5444 77.7877 32.7844 77.9277 32.8044 78.3077C31.242 78.7224 29.7611 79.3986 28.4244 80.3077H28.1044V79.6877V79.6477ZM54.7244 59.2677L46.5044 65.7877C43.3592 68.0114 40.0648 70.0161 36.6444 71.7877C26.9111 77.121 20.8644 79.901 18.5044 80.1277H18.1444C18.4377 79.0344 22.7711 70.161 31.1444 53.5077C37.1483 52.5419 43.0031 50.8076 48.5644 48.3477L50.5644 48.1877C52.1387 47.9065 53.7549 47.9664 55.304 48.3631C56.8532 48.7599 58.2992 49.4844 59.5444 50.4877L59.6644 51.7077C58.1711 55.9877 56.5377 58.4944 54.7644 59.2277L54.7244 59.2677ZM38.7244 50.2277L40.0444 50.1077V50.4077L38.7244 50.5277V50.2277ZM57.3044 47.0877H58.2644C59.1644 47.5077 59.6244 47.8877 59.6644 48.2277V48.5277C59.1848 48.534 58.712 48.4134 58.294 48.1781C57.876 47.9428 57.5277 47.6011 57.2844 47.1877L57.3044 47.0877ZM59.9244 32.1277C57.788 34.1404 55.4256 35.8988 52.8844 37.3677C51.6244 37.4877 46.8844 39.3677 38.7444 42.8877C38.3375 42.703 37.8895 42.6272 37.4444 42.6677V42.0877C37.4887 40.4779 38.0418 38.9236 39.0244 37.6477C39.6644 34.2877 40.3444 32.3677 41.0244 31.9077L47.8244 16.6077C47.7444 15.661 49.1977 14.9344 52.1844 14.4277H53.1444V15.3077C56.0644 14.8677 57.9044 14.6077 58.6044 14.5477C64.0044 14.0877 66.8244 15.1877 67.0444 17.8077H67.6644L67.5244 16.2677L68.3444 15.9877C69.0043 16.2595 69.5848 16.6934 70.0323 17.2493C70.4798 17.8052 70.7798 18.465 70.9044 19.1677C70.8419 20.3592 70.3519 21.4882 69.5244 22.3477C69.1244 22.3477 68.8644 22.0877 68.8444 21.4877H68.1644L68.0244 23.3477C65.2911 27.441 63.2911 29.5477 62.0244 29.6677C60.9044 31.2077 60.2244 31.9877 60.0244 31.9877L59.9244 32.1277ZM64.1044 42.8477C63.7214 42.5415 63.2537 42.3601 62.7644 42.3277V41.4077H63.3844L64.7444 42.2077C64.767 42.2909 64.7693 42.3784 64.7512 42.4627C64.733 42.547 64.6949 42.6258 64.6401 42.6924C64.5853 42.759 64.5153 42.8114 64.436 42.8454C64.3567 42.8794 64.2704 42.8939 64.1844 42.8877L64.1044 42.8477ZM68.3444 47.9877C68.9444 48.2277 69.3044 48.4877 69.3644 48.7277H68.8844L68.4444 49.0877L68.3444 47.9877ZM68.7644 50.5677V50.3277L69.5444 50.1477V50.3877L68.7644 50.5677ZM70.6444 52.6677C71.4444 52.5277 71.8444 52.4877 73.3244 52.1477V52.3877L70.4844 53.0477C70.4911 52.9211 70.4911 52.7943 70.4844 52.6677H70.6444ZM73.4044 53.8477C72.4452 53.8682 71.4919 54.0024 70.5644 54.2477V54.0077L72.9244 53.2477L74.0644 52.9877L74.1844 53.4277C73.6844 53.5477 74.0444 53.5477 73.4644 53.8477H73.4044ZM75.9244 53.2477C75.8574 53.2656 75.7875 53.27 75.7188 53.2605C75.6501 53.2511 75.584 53.228 75.5244 53.1925C75.4647 53.1571 75.4128 53.1101 75.3716 53.0544C75.3304 52.9986 75.3007 52.9351 75.2844 52.8677L76.0044 52.7077C76.0688 52.6824 76.1383 52.6726 76.2071 52.6792C76.276 52.6857 76.3424 52.7084 76.4008 52.7455C76.4593 52.7825 76.5082 52.8328 76.5435 52.8922C76.5789 52.9517 76.5998 53.0187 76.6044 53.0877L75.9244 53.2477ZM82.7444 45.9077V45.6677L83.9244 45.3877L84.0444 45.8277H82.8044L82.7444 45.9077ZM90.0244 90.5877C90.0745 90.3436 90.0745 90.0918 90.0244 89.8477H90.2844C90.3446 89.8224 90.4098 89.8115 90.4749 89.8158C90.54 89.8202 90.6032 89.8396 90.6595 89.8726C90.7158 89.9056 90.7636 89.9512 90.7992 90.0059C90.8347 90.0606 90.8571 90.1229 90.8644 90.1877V90.4277L89.9044 90.6477L90.0244 90.5877ZM95.1444 47.8077H94.6244C93.9364 48.0941 93.2277 48.3281 92.5044 48.5077L92.0244 48.6277C91.9614 48.649 91.8947 48.657 91.8285 48.6512C91.7623 48.6454 91.698 48.6259 91.6397 48.5939C91.5814 48.5619 91.5304 48.5182 91.4899 48.4655C91.4494 48.4128 91.4203 48.3522 91.4044 48.2877L94.8244 47.5077L95.9444 46.9877L96.3244 47.4077C95.903 47.4656 95.5035 47.6309 95.1644 47.8877L95.1444 47.8077ZM97.7644 46.9677V46.7277C98.0122 46.6489 98.2335 46.5036 98.4044 46.3077L100.824 45.7477V45.9877C99.7789 46.2197 98.7551 46.5408 97.7644 46.9477V46.9677ZM98.1444 41.9877C97.8918 42.0805 97.6605 42.2234 97.4644 42.4077C97.4644 42.2477 97.0844 42.2477 96.4644 42.4077C96.3444 41.9477 98.1444 41.2877 101.844 40.4077L102.364 40.2877L102.484 40.7277C99.8844 41.4877 98.4844 41.9277 98.1444 41.9677V41.9877ZM104.664 34.9477C104.344 37.9877 103.364 39.6477 101.504 39.9877V39.7477L99.8644 40.3877L99.1444 40.5477C98.8175 40.64 98.4714 40.64 98.1444 40.5477L97.9244 39.9877C100.094 36.5712 102.472 33.2917 105.044 30.1677H105.604C105.676 31.8153 105.347 33.4556 104.644 34.9477H104.664ZM116.204 25.0677H115.984V24.6077H116.944V24.8477C116.693 24.9174 116.451 25.0182 116.224 25.1477L116.204 25.0677ZM111.444 72.8677C110.982 72.6259 110.465 72.5087 109.944 72.5277V71.8277C109.944 71.5877 110.091 71.421 110.384 71.3277C110.704 71.3277 110.884 71.5077 110.924 72.0077C111.305 71.4403 111.755 70.9229 112.264 70.4677L112.764 70.6677C112.584 72.0877 112.144 72.8277 111.484 72.8877L111.444 72.8677ZM162.344 19.5677C162.104 19.5677 161.644 18.8477 160.904 17.3277V16.8677C161.364 16.8677 161.864 17.5477 162.344 19.0477V19.5677ZM161.664 14.2477L161.444 14.7277L154.544 11.8477C159.144 11.9877 161.524 12.8077 161.664 14.2477ZM132.484 39.3277H131.524V38.8677H132.484V39.3077V39.3277ZM131.684 24.2477H131.944V24.9477C131.704 24.9477 131.404 25.281 131.044 25.9477V25.4877C131.382 25.1537 131.6 24.7179 131.664 24.2477H131.684ZM129.684 29.0877V30.0077H129.424V29.0877H129.684ZM128.584 30.8277H129.064C129.064 31.6144 128.858 32.0277 128.444 32.0677H128.184C128.421 31.7024 128.559 31.2821 128.584 30.8477V30.8277ZM127.804 33.2077H128.024V33.4477L127.604 34.1877H127.124V33.9877C127.624 33.9877 127.844 33.6877 127.804 33.2277V33.2077ZM127.024 35.3677L126.864 36.5677H126.644V35.3877H127.124L127.024 35.3677ZM119.024 57.9677C118.704 59.5277 118.371 60.3277 118.024 60.3677V60.1677C118.008 59.7464 118.092 59.3272 118.269 58.9447C118.446 58.5622 118.712 58.2273 119.044 57.9677H119.024ZM117.544 61.1077V61.3077C117.564 61.3735 117.568 61.4433 117.554 61.5107C117.541 61.5782 117.511 61.6414 117.468 61.6947C117.425 61.748 117.369 61.7899 117.305 61.8166C117.242 61.8432 117.173 61.8539 117.104 61.8477V61.6077C117.104 61.3677 117.251 61.201 117.544 61.1077ZM117.124 67.6677H117.864V67.9077C117.609 67.9566 117.365 68.0515 117.144 68.1877H116.664C116.664 67.921 116.811 67.7544 117.104 67.6877L117.124 67.6677ZM138.044 61.2077C135.484 62.3428 133.039 63.7226 130.744 65.3277C126.264 66.8877 124.064 67.8677 124.084 68.2477C121.437 69.2516 118.852 70.4137 116.344 71.7277C115.896 71.7085 115.457 71.5852 115.064 71.3677C115.02 70.9641 115.1 70.5566 115.293 70.1994C115.486 69.8421 115.783 69.552 116.144 69.3677C116.826 69.3033 117.512 69.4063 118.144 69.6677C119.389 69.1345 120.682 68.7193 122.004 68.4277V67.9677L120.484 68.0877C121.827 67.2543 123.264 66.5829 124.764 66.0877H125.504V66.2877C124.244 66.4077 123.504 66.7677 123.384 67.4477C123.383 67.5124 123.396 67.5766 123.423 67.6354C123.45 67.6942 123.49 67.7459 123.54 67.7866C123.591 67.8272 123.65 67.8557 123.713 67.8698C123.776 67.8838 123.842 67.8831 123.904 67.8677C124.844 67.2477 125.284 66.9077 125.284 66.7877C127.071 66.4677 132.031 63.8677 140.164 58.9877V59.4477C140.164 59.6477 139.484 60.2477 138.164 61.2677L138.044 61.2077ZM125.564 65.2077C126.73 65.1177 127.826 64.6223 128.664 63.8077C128.727 63.7923 128.793 63.7916 128.856 63.8056C128.919 63.8197 128.978 63.8482 129.028 63.8888C129.079 63.9295 129.119 63.9812 129.146 64.04C129.173 64.0988 129.186 64.163 129.184 64.2277C128.012 64.5288 126.892 65.0077 125.864 65.6477H125.604V65.2077H125.564ZM145.744 49.8477L139.544 54.8477C137.147 56.5633 134.627 58.1008 132.004 59.4477C124.631 63.4477 120.038 65.5544 118.224 65.7677H117.964C118.191 64.9277 121.491 58.1944 127.864 45.5677C132.423 44.8002 136.865 43.4561 141.084 41.5677L142.584 41.4277C143.779 41.2156 145.006 41.2649 146.18 41.5722C147.353 41.8795 148.447 42.4375 149.384 43.2077V44.1277C148.244 47.3277 147.024 49.2077 145.684 49.7877L145.744 49.8477ZM133.564 42.9877H134.524V43.2277H133.564V42.9877ZM147.664 40.5877H148.404C149.084 40.9277 149.444 41.2277 149.464 41.4677V41.6677C149.097 41.6816 148.732 41.5938 148.411 41.4138C148.09 41.2338 147.825 40.9687 147.644 40.6477L147.664 40.5877ZM149.664 29.2477C148.053 30.7841 146.268 32.1266 144.344 33.2477C140.658 34.3425 137.066 35.7337 133.604 37.4077C133.291 37.2946 132.957 37.2469 132.624 37.2677V36.8077C132.656 35.5855 133.068 34.4037 133.804 33.4277C134.284 30.8477 134.824 29.4277 135.384 29.0877L140.584 17.4677C140.584 16.7877 141.624 16.2277 143.864 15.7877H144.604V16.4877C146.804 16.1277 148.184 15.921 148.744 15.8677C152.744 15.5077 154.984 16.3277 155.164 18.3477H155.644V17.2277H156.124C156.635 17.4115 157.089 17.7262 157.44 18.1404C157.791 18.5546 158.027 19.0536 158.124 19.5877C158.024 20.5055 157.599 21.3569 156.924 21.9877C156.604 21.9877 156.424 21.8077 156.384 21.3077H155.904L155.764 22.7077C153.764 25.8477 152.184 27.4877 151.244 27.5477C150.404 28.6877 149.884 29.2677 149.644 29.2877L149.664 29.2477ZM151.844 37.0077V36.3077H152.324L153.364 36.9477C153.373 37.0103 153.368 37.074 153.35 37.1345C153.332 37.1951 153.301 37.2509 153.259 37.2984C153.217 37.3458 153.166 37.3837 153.108 37.4095C153.05 37.4353 152.988 37.4483 152.924 37.4477C152.628 37.222 152.275 37.0835 151.904 37.0477L151.844 37.0077ZM65.0644 82.2477L64.5844 82.3677L64.1644 82.7277C64.1717 82.7925 64.1941 82.8548 64.2297 82.9095C64.2652 82.9642 64.3131 83.0098 64.3693 83.0428C64.4256 83.0758 64.4888 83.0952 64.5539 83.0996C64.619 83.1039 64.6843 83.093 64.7444 83.0677C65.0644 83.0677 65.1844 82.8077 65.1244 82.5077V82.2677L65.0644 82.2477ZM63.2244 78.5677V78.8077C63.5444 78.8077 63.6644 78.5477 63.6044 78.2477V78.0077C63.5401 78.014 63.478 78.0343 63.4225 78.0673C63.3669 78.1003 63.3193 78.1451 63.2831 78.1986C63.2468 78.252 63.2227 78.3128 63.2126 78.3766C63.2025 78.4404 63.2065 78.5056 63.2244 78.5677ZM76.3444 47.3677L76.9044 47.2277L76.7844 46.7477L76.2244 46.8877L76.3444 47.3677ZM245.444 61.5677C242.98 62.2536 240.441 62.6365 237.884 62.7077V63.1677H238.684L239.304 62.9277C244.904 62.3077 245.564 62.5277 245.504 61.9077V61.6877L245.444 61.5677ZM211.444 53.2877L210.944 53.1277C210.662 53.7669 210.461 54.4387 210.344 55.1277V55.3277C210.744 55.3277 211.084 54.6477 211.424 53.3277L211.444 53.2877ZM246.604 61.4277V61.8877L247.424 62.0277V61.5677L246.604 61.4277ZM208.024 66.1877L206.764 66.0477L206.544 66.5277V66.7677L214.084 66.1277V65.6677L208.084 66.1877H208.024ZM204.604 49.6677V49.4277H204.344L203.884 49.7277L204.144 50.1677C204.504 50.1677 204.664 49.9677 204.624 49.6477L204.604 49.6677ZM250.164 57.9877H250.524C250.724 57.9877 250.824 57.8077 250.804 57.5077L250.604 57.0677C249.584 57.062 248.579 57.3167 247.684 57.8077V57.5877L246.144 57.7277C246.144 57.2677 245.984 57.0277 245.764 57.0477H244.964C244.024 57.0477 243.584 57.0477 243.124 57.4477C243.124 57.2877 243.124 57.2077 242.964 57.2077H242.064L241.544 57.5077C241.544 57.3477 241.544 57.2677 241.384 57.2677L241.064 57.5477V57.3077H239.524V57.7677L240.164 57.9277H240.764C240.97 58.0479 241.209 58.0971 241.444 58.0677L241.964 57.8077V57.9877C240.347 58.4084 238.703 58.7225 237.044 58.9277C236.904 58.808 236.729 58.7377 236.544 58.7277C236.492 58.7251 236.44 58.7122 236.393 58.6897C236.345 58.6672 236.303 58.6355 236.267 58.5965C236.232 58.5575 236.205 58.5119 236.187 58.4624C236.169 58.4128 236.162 58.3602 236.164 58.3077L237.204 58.1677C237.434 58.2406 237.668 58.3007 237.904 58.3477C238.744 57.9277 238.784 57.7677 239.224 57.7277V57.2677C237.469 57.5906 235.689 57.7579 233.904 57.7677H233.744V57.3077C238.364 56.7477 236.824 57.0677 238.404 56.6277C238.404 56.7877 238.404 56.8677 238.564 56.8677C238.735 56.6914 238.961 56.5785 239.204 56.5477H239.524C241.337 56.6031 243.147 56.3668 244.884 55.8477V56.0477L245.404 55.7877H245.884C245.884 55.3277 246.564 55.2477 246.804 55.2277V54.7277C241.184 55.8677 239.704 55.5477 238.144 55.9877V55.7877C237.489 55.9393 236.815 55.9933 236.144 55.9477C235.966 56.0018 235.806 56.1059 235.684 56.2477C235.684 56.0877 235.684 56.0077 235.504 56.0077L230.724 56.7877C230.724 56.6477 230.724 56.5877 230.544 56.6077C228.876 57.0964 227.159 57.4048 225.424 57.5277C225.201 57.5683 224.99 57.657 224.804 57.7877C224.804 57.6477 224.804 57.5877 224.544 57.6077L222.544 57.7677L221.184 58.1077C221.184 57.9677 221.184 57.9077 220.924 57.9277C220.271 58.1167 219.602 58.2439 218.924 58.3077C218.584 58.3077 219.084 58.3077 218.924 58.1077L218.504 58.3477H216.184C212.584 58.7877 212.984 58.8477 212.584 58.8677H211.244C211.251 58.8962 211.251 58.9259 211.244 58.9543C211.236 58.9827 211.222 59.0088 211.203 59.0305C211.183 59.0522 211.158 59.0687 211.131 59.0787C211.103 59.0887 211.073 59.0918 211.044 59.0877C209.524 58.8877 208.724 58.6477 208.724 58.3677C208.924 56.9144 209.278 56.1677 209.784 56.1277H210.044L209.824 56.6077H210.084C210.564 56.3477 210.784 56.1077 210.764 55.8877V55.3877H210.284V54.9277C210.24 54.6074 210.288 54.281 210.424 53.9877L211.524 52.2077V52.6677H212.044V52.2077L211.744 51.7877C212.002 51.5246 212.327 51.3377 212.684 51.2477V51.0077H211.984V50.3077C212.885 48.695 213.558 46.9652 213.984 45.1677L214.484 45.3677C214.804 45.3677 214.944 45.1677 214.924 44.8277H214.444V44.6277C214.41 44.2906 214.472 43.9506 214.624 43.6477C214.966 43.3424 215.237 42.9654 215.417 42.5437C215.596 42.122 215.681 41.6658 215.664 41.2077C215.804 41.2077 215.884 41.2077 215.904 41.4277C216.564 41.0477 217.064 40.0677 217.424 38.4277C219.229 34.3933 220.746 30.2362 221.964 25.9877C225.964 14.9477 225.964 13.7877 226.464 11.1677H225.984C226.021 11.4985 225.958 11.8326 225.804 12.1277C225.559 12.0157 225.294 11.9545 225.024 11.9477V11.7477C225.044 10.5046 225.473 9.30277 226.244 8.32769H226.344L226.764 9.9277H227.244C227.325 9.25303 227.452 8.58475 227.624 7.9277C227.624 7.6877 227.424 7.52769 227.044 7.50769L226.584 7.80769V5.2077H226.344C226.022 4.95016 225.796 4.59046 225.704 4.18769L223.044 4.44769C222.994 4.15866 222.893 3.88095 222.744 3.62769C222.744 3.38769 223.324 3.14769 224.544 2.90769L225.084 3.1077L225.584 2.80769C225.584 2.96769 225.704 3.04769 225.884 3.02769L226.384 2.72769C226.384 2.88769 226.504 2.96769 226.684 2.94769H226.924V2.40769H224.004L223.504 2.7477V2.3877C210.998 3.41436 203.898 4.00769 202.204 4.16769H199.564C199.564 4.36769 199.404 4.48769 199.024 4.52769L198.484 4.2877L196.664 4.7477C195.946 4.81177 195.223 4.81177 194.504 4.7477C194.212 4.98041 193.857 5.1198 193.484 5.1477L198.824 4.80769C198.44 5.06862 197.989 5.21433 197.524 5.22769C197.161 5.27708 196.791 5.21428 196.464 5.04769C195.154 5.45123 193.817 5.76529 192.464 5.98769L191.924 5.7877L183.204 7.12769C182.835 6.95908 182.427 6.89674 182.024 6.94769C181.239 7.05077 180.463 7.218 179.704 7.44769L175.484 9.2077L175.804 9.72769C176.111 9.67322 176.403 9.55759 176.664 9.3877L178.164 9.52769L177.984 10.9277C177.392 11.1382 176.862 11.4939 176.443 11.962C176.024 12.4302 175.729 12.996 175.584 13.6077C173.584 14.5277 172.484 15.1677 172.484 15.6077V15.8477H172.804L173.364 15.5477L174.024 16.3277V17.4077C174.024 17.741 170.551 25.0744 163.604 39.4077C157.604 53.2077 154.404 60.7477 154.104 62.1077C152.104 62.6877 150.844 63.5277 150.484 64.6477C150.484 65.0077 151.144 65.2477 152.324 65.3277V65.8677L151.784 66.7677V67.8477C151.784 68.4077 153.291 68.8344 156.304 69.1277C156.304 68.9477 156.304 68.8277 156.584 68.8077C156.565 70.1591 156.376 71.5028 156.024 72.8077H156.344C157.404 71.7737 158.104 70.4282 158.344 68.9677H158.604C158.904 68.9677 159.224 69.2877 159.584 70.0077C159.211 70.1544 157.878 73.121 155.584 78.9077L155.904 79.4277H156.344C159.078 72.4944 160.798 68.661 161.504 67.9277C165.104 67.6077 171.324 66.941 180.164 65.9277L180.724 65.5877C180.722 65.6298 180.731 65.6717 180.748 65.7099C180.766 65.7481 180.793 65.7814 180.826 65.8069C180.86 65.8325 180.899 65.8496 180.94 65.8567C180.982 65.8638 181.024 65.8607 181.064 65.8477H181.644L182.204 65.5077C182.202 65.5498 182.211 65.5917 182.228 65.6299C182.246 65.6681 182.273 65.7014 182.306 65.7269C182.34 65.7525 182.379 65.7696 182.42 65.7767C182.462 65.7838 182.504 65.7807 182.544 65.7677L189.244 65.1877C191.024 65.0477 191.844 64.5077 191.784 63.5877C191.784 63.3477 192.804 63.0677 194.924 62.7677C195.238 62.7642 195.55 62.8184 195.844 62.9277C195.844 62.7677 196.884 62.5877 199.004 62.4077C199.004 61.2877 199.424 60.6877 200.044 60.6277V60.0877C199.363 60.1665 198.692 60.3207 198.044 60.5477C197.149 60.5363 196.257 60.4291 195.384 60.2277C195.122 60.3944 194.83 60.5097 194.524 60.5677L189.864 60.7077L189.304 61.0077C189.304 60.8344 189.191 60.761 188.964 60.7877H188.704L188.104 61.0877C188.104 60.9277 187.604 60.7877 186.624 60.6677L186.024 61.0277H184.864V60.7277C190.864 60.0744 193.824 59.261 193.744 58.2877C193.824 58.2687 193.906 58.2686 193.986 58.2874C194.065 58.3062 194.139 58.3434 194.201 58.396C194.263 58.4485 194.312 58.515 194.344 58.59C194.376 58.665 194.39 58.7464 194.384 58.8277L196.144 58.3877V57.8477L181.784 58.2477C181.784 58.4277 181.784 58.5477 181.504 58.5677L179.744 58.4277C179.341 58.4514 178.952 58.5902 178.624 58.8277L177.964 58.5877C176.612 58.6716 175.272 58.8928 173.964 59.2477C172.633 59.1428 171.296 59.1428 169.964 59.2477L166.744 59.5277L165.244 59.3677C165.244 58.4077 167.024 53.7477 170.824 45.3677C171.387 43.3752 172.447 41.5583 173.904 40.0877C174.224 40.0922 174.538 40.1673 174.824 40.3077L177.124 39.5277L178.304 39.7077C180.669 39.4487 182.99 38.877 185.204 38.0077C185.708 37.9351 186.223 37.9831 186.704 38.1477L188.464 37.7277L193.684 37.2877C196.144 37.0542 198.571 36.5581 200.924 35.8077V35.2677C199.964 35.2677 199.444 35.2677 199.424 34.8077C199.424 34.0877 198.664 33.7877 197.304 33.8877V33.3477L198.744 32.9277L202.504 32.6077V32.0677H200.184V31.4877L201.644 31.3477C202.044 31.3477 202.204 31.1277 202.164 30.7477C200.164 30.7477 199.224 30.7477 199.204 30.4477C185.564 31.1144 178.724 31.241 178.684 30.8277C178.375 30.8949 178.082 31.0241 177.824 31.2077L177.464 30.6477C181.078 22.9677 183.198 19.101 183.824 19.0477C183.788 19.5574 183.63 20.051 183.364 20.4877V20.7277H183.944C185.384 17.3077 186.584 15.5277 187.604 15.4477C191.884 15.0677 187.004 14.7877 196.184 13.4477C196.436 13.5854 196.717 13.6608 197.004 13.6677C200.604 12.9477 205.618 12.1877 212.044 11.3877V10.8477L208.624 11.1677V10.6277C208.997 10.5998 209.352 10.4604 209.644 10.2277V10.5277C209.929 10.4596 210.195 10.3299 210.424 10.1477C210.884 10.0701 211.356 10.1256 211.784 10.3077C212.722 10.0444 213.678 9.85056 214.644 9.72769L216.784 9.52769C217.304 9.18769 217.544 8.8877 217.524 8.6077V8.36769C216.895 8.41563 216.262 8.37525 215.644 8.2477C215.636 8.17671 215.642 8.10477 215.662 8.03606C215.681 7.96734 215.714 7.90322 215.759 7.84741C215.804 7.7916 215.859 7.74521 215.922 7.71092C215.984 7.67664 216.053 7.65515 216.124 7.6477L220.124 7.26769L221.944 6.80769C221.944 7.00769 222.064 7.08769 222.204 7.08769C222.489 7.01963 222.755 6.88991 222.984 6.7077H223.284C222.961 7.41235 222.694 8.14125 222.484 8.8877H221.964C221.937 8.54935 221.835 8.22137 221.664 7.9277H221.404C216.564 21.4277 214.404 27.7077 209.924 38.0677C209.104 40.7077 208.424 42.1877 207.824 42.5077C207.823 42.5724 207.836 42.6366 207.863 42.6954C207.89 42.7542 207.93 42.8059 207.98 42.8465C208.031 42.8872 208.09 42.9157 208.153 42.9298C208.216 42.9438 208.282 42.9431 208.344 42.9277C208.448 44.2788 208.126 45.6284 207.424 46.7877C205.424 52.7877 203.984 56.0077 203.264 56.6077L203.724 59.4277C203.733 59.4903 203.728 59.554 203.71 59.6146C203.692 59.6751 203.661 59.7309 203.619 59.7784C203.577 59.8258 203.526 59.8637 203.468 59.8895C203.41 59.9153 203.348 59.9283 203.284 59.9277H202.804C202.804 59.1477 202.444 58.7677 201.944 58.8277H201.684C201.014 59.8848 200.527 61.0479 200.244 62.2677H200.724C201.002 62.13 201.235 61.9155 201.394 61.6496C201.554 61.3837 201.634 61.0776 201.624 60.7677H202.584L203.144 60.9677C202.768 61.457 202.551 62.0507 202.524 62.6677L202.784 63.1077L202.144 64.6077V64.8477C202.791 64.8215 203.429 65.0038 203.964 65.3677C204.5 65.2935 205.008 65.0873 205.444 64.7677H211.684L213.484 64.1477C214.773 64.1536 216.061 64.1002 217.344 63.9877H218.124L218.544 63.7077V63.9477C219.805 63.7628 221.088 63.7763 222.344 63.9877V64.2277H221.244V64.6877C221.566 64.6666 221.873 64.548 222.124 64.3477C222.404 64.3477 222.564 64.4877 222.584 64.8077C222.073 64.8618 221.569 64.9759 221.084 65.1477L220.604 64.9877C219.844 65.1877 220.004 65.2477 219.484 65.2877L218.724 65.1477C218.731 65.1744 218.73 65.2022 218.724 65.2289C218.718 65.2556 218.706 65.2805 218.688 65.3017C218.671 65.323 218.649 65.3399 218.624 65.3514C218.599 65.3628 218.572 65.3684 218.544 65.3677C218.541 65.4273 218.55 65.487 218.573 65.5424C218.595 65.5978 218.63 65.6475 218.674 65.6877C218.718 65.728 218.771 65.7579 218.828 65.7752C218.885 65.7925 218.945 65.7968 219.004 65.7877H219.784L223.784 65.4277L225.324 65.0877C225.324 65.2277 225.324 65.2877 225.524 65.2677L226.264 64.9877L227.664 64.8677C228.744 64.8677 228.724 64.7077 231.064 64.3277C231.064 64.1877 231.064 64.1277 231.204 64.1077V64.3077C232.783 64.1163 234.347 63.8155 235.884 63.4077V63.5277C236.844 63.3077 236.304 63.3677 236.564 63.1677C236.564 63.3277 236.564 63.4077 236.724 63.4077H237.404V62.9077H235.724C235.223 63.0015 234.714 63.0418 234.204 63.0277L230.784 63.2077V62.9677L232.784 62.7077H233.464L233.864 62.4277V62.6677C236.544 62.4477 237.504 63.1077 249.864 60.4677C250.544 60.4677 250.484 59.8477 250.904 58.6877C250.675 58.7074 250.446 58.6587 250.244 58.5477C249.083 58.8297 247.898 59.0038 246.704 59.0677C246.544 59.0677 246.404 58.9277 246.344 58.6477V58.4477H248.344C249.053 58.3724 249.737 58.1401 250.344 57.7677C250.344 57.9277 249.964 58.0277 250.204 58.0077L250.164 57.9877ZM158.344 59.5277H157.464C157.758 58.1398 158.228 56.7955 158.864 55.5277H159.444C159.262 56.9049 158.892 58.2507 158.344 59.5277ZM159.404 55.2877V55.0477C159.404 54.7477 159.564 54.5477 159.984 54.4477V54.6877C159.984 55.0477 159.824 55.2477 159.404 55.2877ZM171.044 64.2877V64.5277L169.584 64.6677V64.4277L171.044 64.2877ZM169.284 64.1477C169.284 64.4477 168.864 64.7877 167.884 65.1077L166.104 64.9677H165.524V64.4277L169.344 64.0677L169.284 64.1477ZM181.144 9.98769H180.344V9.68769C180.344 9.38769 180.484 9.18769 180.864 9.08769H181.184L181.784 9.32769C181.796 9.40408 181.791 9.48219 181.769 9.55632C181.747 9.63045 181.709 9.69874 181.657 9.75622C181.605 9.8137 181.542 9.85892 181.47 9.88858C181.399 9.91824 181.322 9.93161 181.244 9.9277L181.144 9.98769ZM194.464 7.3877H194.744V7.9277H193.944C193.936 7.85671 193.942 7.78477 193.962 7.71606C193.981 7.64734 194.014 7.58322 194.059 7.52741C194.104 7.4716 194.159 7.42521 194.222 7.39092C194.284 7.35664 194.353 7.33514 194.424 7.32769L194.464 7.3877ZM191.104 8.5677L189.784 8.4277V7.98769C190.933 7.91096 192.068 7.69607 193.164 7.34769C193.164 7.54769 193.364 7.62769 193.704 7.58769V8.12769H193.184C192.821 8.17709 192.451 8.11428 192.124 7.94769C191.82 8.15485 191.47 8.28523 191.104 8.32769V8.5677ZM192.764 13.3877V13.1477L194.904 12.9477V13.1877L192.764 13.3877ZM195.064 11.5277V11.2277H196.104V11.5277H195.064ZM195.304 7.86769H195.024L195.264 7.2877L197.644 7.0677V7.36769C196.846 7.46133 196.056 7.62189 195.284 7.84769L195.304 7.86769ZM196.524 13.0077V12.4677H197.564C197.924 12.4677 198.111 12.6344 198.124 12.9677L196.564 13.1077L196.524 13.0077ZM202.844 4.40769L201.504 4.7877H201.264C200.459 4.85908 199.65 4.85908 198.844 4.7877C200.584 4.6677 202.244 4.54769 202.844 4.44769V4.40769ZM201.404 10.4077V10.6477L199.564 10.8077V10.5677L201.404 10.4077ZM204.424 11.8477C204.424 11.6277 204.044 11.4677 203.324 11.4077L201.484 11.9277H200.064C199.744 11.7077 199.584 11.5477 199.564 11.4477H201.204L204.884 10.8477H206.764V11.1477C205.962 11.2173 205.17 11.3784 204.404 11.6277L204.424 11.8477ZM223.404 6.94769H223.824C224.463 6.31246 225.217 5.80355 226.044 5.44769C225.634 7.87982 224.546 10.1468 222.904 11.9877L221.864 11.3477C222.479 9.90482 222.994 8.42131 223.404 6.90769V6.94769ZM220.204 12.4477H220.464C220.104 13.1277 219.784 13.4677 219.524 13.4877V12.7877C219.787 12.7427 220.035 12.6327 220.244 12.4677L220.204 12.4477ZM218.204 17.3877C218.365 16.1319 218.862 14.9431 219.644 13.9477V13.9877C219.384 15.8477 218.964 16.8477 218.424 16.9077V18.0877C218.058 18.5076 217.834 19.0327 217.784 19.5877H217.524L217.384 17.9677C217.684 17.9677 217.924 17.6677 218.084 17.1877L218.204 17.3877ZM217.404 20.0677C217.328 20.758 217.146 21.4325 216.864 22.0677H216.604V21.3677C216.964 20.5477 217.264 20.1277 217.464 20.1277L217.404 20.0677ZM202.344 63.5877V63.3877H202.824V64.0877C202.564 64.0877 202.384 63.9477 202.304 63.6277L202.344 63.5877ZM223.824 64.1477C223.824 63.9877 223.824 63.9077 223.564 63.9277L222.344 63.9877V63.7877L225.204 63.5477V63.7877C224.679 63.7479 224.154 63.8739 223.704 64.1477H223.824ZM222.384 63.5477C222.504 63.5477 222.384 63.6677 222.384 63.6877C222.384 63.7077 222.244 63.6877 222.384 63.5477ZM222.524 60.1877L220.924 60.3277V59.9877H222.344L223.604 59.6677C223.604 59.8077 223.604 59.8677 223.864 59.8477C225.364 59.5877 225.224 59.5077 225.864 59.4477C226.104 59.4477 226.264 59.5877 226.284 59.8677L222.424 60.2077L222.524 60.1877ZM228.124 59.7077C227.605 59.6022 227.074 59.5619 226.544 59.5877V59.3877L227.984 59.2477V59.4477C227.844 59.4477 228.384 59.4477 228.124 59.6877V59.7077ZM228.244 59.4477V59.2477H229.024V59.4477H228.244ZM229.984 59.3077V59.1077C230.192 59.0533 230.384 58.9505 230.544 58.8077C230.621 58.7965 230.699 58.8013 230.774 58.8219C230.849 58.8424 230.918 58.8783 230.979 58.9272C231.039 58.9761 231.088 59.0369 231.124 59.1058C231.159 59.1748 231.18 59.2503 231.184 59.3277L229.984 59.3077ZM232.204 59.0277V58.7877H233.164V59.0277H232.204ZM233.524 58.9077C233.524 58.6277 233.524 58.4677 233.864 58.4277L234.184 58.8477C234.179 58.824 234.178 58.7994 234.181 58.7753C234.185 58.7513 234.194 58.7283 234.207 58.7077C234.22 58.6871 234.237 58.6694 234.258 58.6557C234.278 58.6419 234.3 58.6324 234.324 58.6277L234.564 59.0677L233.524 58.9277V58.9077ZM219.524 64.9077V64.4477H219.384V64.9077H219.524ZM252.264 56.4277C252.404 56.4277 252.484 56.2477 252.124 56.1877C251.764 56.1277 252.304 56.4277 251.944 56.4477V56.6077L252.144 56.4677L251.944 56.6277L251.544 57.1277L252.324 56.8477V56.3877L252.264 56.4277ZM253.624 57.4877H253.484V57.9477H254.584C254.584 57.6477 253.844 57.5477 253.604 57.5477L253.624 57.4877Z" fill="black"/>
    <path d="M180.344 22.2479V22.5479H180.964C180.97 22.2524 181.031 21.9607 181.144 21.6879V21.1479C180.884 21.1479 180.624 21.5679 180.384 22.3079L180.344 22.2479ZM174.344 7.98785V7.44785H173.464V7.98785H174.344ZM157.304 39.9879C156.017 37.784 154.436 35.7655 152.604 33.9879C152.604 33.3479 153.604 32.4079 155.784 31.1479L162.024 25.9879C163.671 23.4176 164.526 20.4201 164.484 17.3679V16.4479C164.244 13.6879 162.244 11.4679 158.484 9.76785C156.244 8.26119 152.244 7.42785 146.484 7.26785C140.004 8.11543 133.671 9.85175 127.664 12.4279C125.331 14.0878 122.907 15.6169 120.404 17.0079V17.4679C120.665 17.4176 120.912 17.3082 121.124 17.1479C121.187 17.1324 121.252 17.1317 121.316 17.1458C121.379 17.1599 121.438 17.1883 121.488 17.229C121.538 17.2697 121.579 17.3214 121.606 17.3802C121.633 17.4389 121.646 17.5032 121.644 17.5679L122.104 17.3279H122.324V17.5279C120.819 19.068 119.126 20.412 117.284 21.5279L117.544 22.0079H117.324L116.764 21.8079C116.764 21.9679 116.544 22.0879 116.084 22.1279V22.3279L116.624 23.0079C116.355 23.001 116.089 22.9398 115.844 22.8279C114.944 22.9536 114.12 23.4012 113.524 24.0879L113.844 22.7079C114.871 18.4237 115.646 14.0829 116.164 9.70786V9.46786C115.301 8.89624 114.537 8.1868 113.904 7.36785C113.926 7.04154 113.926 6.71417 113.904 6.38786V6.18785H113.684C111.217 9.88118 106.477 16.1812 99.4641 25.0879C94.1308 31.4212 91.3707 34.9412 91.1841 35.6479C89.0041 37.9079 87.9641 39.2679 88.0641 39.6479C87.4841 40.0279 87.2441 40.3879 87.3441 40.8079C87.3113 40.8201 87.2763 40.8251 87.2414 40.8224C87.2066 40.8197 87.1727 40.8094 87.1422 40.7923C87.1117 40.7751 87.0854 40.7515 87.065 40.7231C87.0446 40.6947 87.0306 40.6622 87.0241 40.6279C86.5676 41.3715 85.9625 42.0129 85.2467 42.5119C84.5308 43.0109 83.7197 43.3568 82.8641 43.5279L80.8641 43.9679C80.8012 43.9772 80.7409 43.9996 80.6871 44.0334C80.6332 44.0673 80.587 44.1119 80.5513 44.1645C80.5156 44.2172 80.4912 44.2766 80.4796 44.3391C80.468 44.4017 80.4696 44.4659 80.4841 44.5279V44.7679L81.2041 44.6079V44.8079L79.5641 45.4479L76.6641 46.1279H75.1441C74.9241 46.3479 76.3641 46.1279 75.8041 46.2479L73.8041 46.6879C72.6441 46.9479 72.0241 46.8479 71.8041 46.3879H71.5841C71.6201 46.5458 71.6201 46.7099 71.5841 46.8679L71.4641 46.4079L69.9441 46.7679C69.8374 46.0612 67.7774 43.4879 63.7641 39.0479C63.7641 38.1879 65.1041 36.9479 68.0041 35.3279L76.3441 28.2679C78.1708 25.9212 79.2574 22.1545 79.6041 16.9679L79.4841 15.7479C79.1641 12.0879 76.5241 9.14785 71.4841 6.86785C68.5441 4.86785 63.2441 3.80786 55.6041 3.64786C47.0991 4.77559 38.7845 7.0426 30.8841 10.3879C27.8194 12.576 24.6271 14.5795 21.3241 16.3879V17.0279C21.667 16.9694 21.994 16.8399 22.2841 16.6479C22.364 16.6264 22.4477 16.6236 22.5289 16.6397C22.61 16.6557 22.6864 16.6902 22.7521 16.7404C22.8178 16.7907 22.8711 16.8554 22.9079 16.9295C22.9446 17.0036 22.9638 17.0851 22.9641 17.1679L23.6041 16.8079H23.9241V17.1079C21.9021 19.0892 19.661 20.8338 17.2441 22.3079L17.6041 22.8679H17.3241L16.6441 22.6279C16.6441 22.8079 16.3441 22.9479 15.6841 23.0079V23.3479L16.4241 24.1679C16.0811 24.1648 15.7418 24.097 15.4241 23.9679C14.5297 24.1535 13.686 24.5302 12.9508 25.0721C12.2155 25.6141 11.606 26.3085 11.1641 27.1079L11.5241 27.6679C12.1475 27.002 12.8692 26.4354 13.6641 25.9879V26.9079C13.3249 26.9792 13.0002 27.1077 12.7041 27.2879L13.4641 28.4479C14.911 26.9171 16.5436 25.5733 18.3241 24.4479C19.2041 24.6679 19.6641 24.9479 19.6841 25.2479H20.3641C24.6906 21.9428 29.5093 19.3378 34.6441 17.5279V18.1679C33.7641 19.5012 33.1707 20.1679 32.8641 20.1679C32.8855 20.6006 33.047 21.0147 33.3241 21.3479C33.4041 22.1479 31.2641 27.5479 26.9041 37.5479C17.1974 60.6812 8.95742 77.8079 2.18408 88.9279C2.24633 89.2547 2.38322 89.5627 2.58408 89.8279C3.70135 89.6451 4.76971 89.2368 5.72408 88.6279H6.08408V89.2679H6.70408L7.34408 88.9079C7.34408 89.0879 7.56408 89.1879 8.00408 89.1479V89.7879C7.92144 90.8113 7.56194 91.793 6.96408 92.6279C5.96192 94.0853 5.23026 95.7112 4.80408 97.4279V97.7279H5.42408C7.8599 95.0832 9.91931 92.1153 11.5441 88.9079C17.7518 87.2518 23.7809 84.9876 29.5441 82.1479C32.9624 82.0526 36.2701 80.9151 39.0241 78.8878V78.5479L37.4641 79.0079H37.1041V78.6678C39.3463 78.5145 41.5197 77.8289 43.4441 76.6678C49.3907 72.0812 53.8841 68.8345 56.9241 66.9279C63.1641 62.3412 67.2174 57.8745 69.0841 53.5278L70.1241 53.2879C70.6237 53.3154 71.1245 53.3154 71.6241 53.2879C71.6241 53.1279 71.6241 53.0279 71.8241 52.9879C73.2241 52.8479 72.5441 52.9879 73.4441 52.8679L75.7241 51.9879H76.1241L75.9441 52.1078C76.2282 52.1624 76.52 52.1624 76.8041 52.1078L76.9641 52.7879L66.3441 69.6879L63.9841 72.6479L62.8241 76.5278H63.0441L64.2041 76.0479L63.8241 77.5479L63.9441 77.9879L64.2641 78.3878C64.1241 78.3878 64.0641 78.5279 64.1041 78.6879V78.9279L64.5841 78.8079C65.2907 78.1945 65.5907 77.6345 65.4841 77.1279C65.98 77.2556 66.4943 77.2962 67.0041 77.2478V77.4879C66.5441 77.6079 66.3041 77.9678 66.2641 78.6078V78.8479H66.5241C70.4041 74.6079 79.9041 60.1479 87.5241 50.3079C87.2841 49.2412 91.2841 47.7612 99.5241 45.8679H99.7841C100.077 47.2012 99.4108 50.3145 97.7841 55.2079C97.1946 56.7545 96.7591 58.3556 96.4841 59.9879C95.6793 62.0751 95.0635 64.2305 94.6441 66.4279L91.7241 75.9879C89.8127 80.984 88.3665 86.1459 87.4041 91.4079C87.668 91.354 87.9401 91.354 88.2041 91.4079L88.6241 91.0479C88.6306 91.0822 88.6446 91.1147 88.665 91.1431C88.6854 91.1715 88.7117 91.1951 88.7422 91.2123C88.7727 91.2294 88.8066 91.2397 88.8414 91.2424C88.8763 91.2451 88.9113 91.2401 88.9441 91.2279L88.7841 90.5479H90.0441C90.4241 90.5479 90.7241 89.9879 91.0041 89.1279C91.0041 87.8479 91.2041 87.1279 91.7841 87.0079C92.0792 85.4098 92.5626 83.8522 93.2241 82.3679C93.5313 80.5704 94.0761 78.8218 94.8441 77.1678C95.9441 73.1678 96.8441 71.1679 97.2641 71.0479L97.3841 71.5278L96.5841 73.5278C95.5451 78.5412 94.1277 83.4687 92.3441 88.2679L92.7641 90.0479H93.0241C96.4908 82.5945 101.477 67.8345 107.984 45.7679C108.056 44.8507 108.346 43.9639 108.829 43.1812C109.313 42.3985 109.976 41.7426 110.764 41.2679L110.384 40.8679V40.6679C110.994 40.5737 111.548 40.2609 111.944 39.7879C111.944 39.6279 111.264 39.3679 109.944 39.0479L113.184 25.0479C113.542 24.6623 113.961 24.338 114.424 24.0879V24.7879C114.163 24.8381 113.916 24.9475 113.704 25.1079L114.344 25.9879C115.433 24.7974 116.662 23.7431 118.004 22.8479C118.684 23.0279 119.004 23.2679 119.044 23.4879H119.524C122.806 21.0024 126.457 19.0455 130.344 17.6879V18.1479C129.691 19.1345 129.244 19.6345 129.004 19.6479C129.03 19.9676 129.133 20.2763 129.304 20.5479C128.02 24.7735 126.408 28.8927 124.484 32.8679C119.064 46.3012 112.777 59.3687 105.664 71.9879C105.726 72.2368 105.842 72.469 106.004 72.6678C106.84 72.5299 107.638 72.2163 108.344 71.7478H108.564V72.2079H109.084L109.544 71.9678C109.544 72.1012 109.711 72.1545 110.044 72.1279V72.6279C109.975 73.394 109.698 74.1268 109.244 74.7478C108.451 75.842 107.874 77.0774 107.544 78.3878V78.6279H108.024C109.874 76.6204 111.436 74.3655 112.664 71.9279C117.383 70.6376 121.965 68.8893 126.344 66.7079C128.954 66.6401 131.481 65.7747 133.584 64.2279V63.9879L132.364 64.3479H132.144V64.1078C133.844 63.9834 135.489 63.4554 136.944 62.5679C141.444 59.1079 144.944 56.5678 147.184 55.1678C154.344 49.9878 157.704 44.9079 157.304 39.9879ZM156.064 40.3079L156.224 42.1879C156.004 42.6479 155.764 42.8879 155.544 42.9079L155.264 39.7079C155.784 39.8879 156.044 40.0879 156.064 40.3079ZM14.9641 25.2279H14.6441V24.6479L15.9241 24.5279V24.8279C15.5879 24.8884 15.2679 25.0178 14.9841 25.2079L14.9641 25.2279ZM8.68408 87.9879C8.06503 87.677 7.37587 87.5323 6.68408 87.5679V86.6479C6.68408 86.2879 6.84408 86.0478 7.30408 85.9678C7.76408 85.8878 7.96408 86.2279 7.98408 86.8279C8.50999 86.1041 9.10622 85.4342 9.76408 84.8279L10.4441 85.1078C10.2241 86.9678 9.64408 87.9279 8.72408 87.9879H8.68408ZM75.7841 17.7879C75.4641 17.7879 74.8241 16.8279 73.9241 14.8879V14.3079C74.5241 14.3079 75.1441 15.2279 75.7841 17.2079V17.7879ZM74.8841 10.8279L74.6241 11.4479L65.5041 7.64786C71.5841 7.84786 74.7108 8.90785 74.8841 10.8279ZM36.3441 43.9879L35.0641 44.1079V43.5279L36.3441 43.4079V43.9879ZM35.3041 24.1479H35.6241V25.0679C35.3241 25.0679 34.9441 25.5279 34.4441 26.3879V25.7479C35.0241 25.0679 35.3241 24.5279 35.2841 24.1679L35.3041 24.1479ZM32.6041 30.5279L32.7241 31.7479H32.4041L32.3441 30.4879L32.6041 30.5279ZM31.1841 32.8079H31.8041C31.8041 33.8079 31.4641 34.3479 30.9641 34.3879H30.6441C30.9668 33.9363 31.1541 33.4021 31.1841 32.8479V32.8079ZM30.1841 35.9879H30.5441V36.2879L29.9641 37.2479H29.3441V36.9479C29.4694 36.9574 29.5953 36.9374 29.7114 36.8892C29.8276 36.8411 29.9307 36.7663 30.0125 36.6708C30.0944 36.5754 30.1525 36.462 30.1823 36.3398C30.2121 36.2177 30.2127 36.0903 30.1841 35.9679V35.9879ZM29.1441 38.8479L28.9641 40.3679H28.6441L28.5041 38.8679H29.1441V38.8479ZM18.6841 68.4879C18.2641 70.4879 17.8241 71.6278 17.3641 71.6678V71.3679C17.3308 70.8143 17.4359 70.2612 17.6698 69.7584C17.9037 69.2556 18.2592 68.8189 18.7041 68.4879H18.6841ZM16.6841 72.6479V72.9479C16.7067 73.0311 16.709 73.1186 16.6908 73.2029C16.6727 73.2872 16.6346 73.366 16.5798 73.4325C16.5249 73.4991 16.4549 73.5516 16.3757 73.5856C16.2964 73.6196 16.2101 73.6341 16.1241 73.6279V73.3279C16.1241 72.9679 16.3107 72.7412 16.6841 72.6479ZM16.1241 81.2679H17.0841V81.6078C16.7411 81.6663 16.4142 81.7958 16.1241 81.9879H15.5041C15.5041 81.6679 15.6641 81.4279 16.0641 81.3079L16.1241 81.2679ZM43.7041 72.7478C40.3163 74.2158 37.0975 76.0465 34.1041 78.2079C28.2774 80.2612 25.3907 81.5212 25.4441 81.9879C21.91 83.3165 18.4573 84.8525 15.1041 86.5879C14.5104 86.579 13.9275 86.4281 13.4041 86.1479C13.3667 85.624 13.4806 85.1004 13.7324 84.6394C13.9842 84.1784 14.3631 83.7995 14.8241 83.5479C15.7202 83.4782 16.6198 83.6293 17.4441 83.9879C19.0683 83.2598 20.7642 82.7035 22.5041 82.3279V81.6879L20.5041 81.8479C22.2614 80.7577 24.141 79.8783 26.1041 79.2279H27.0641V79.5278C25.4041 79.6678 24.4841 80.1678 24.2841 81.0278C24.2841 81.4278 24.5441 81.5879 24.9641 81.5479C26.2041 80.7679 26.8241 80.3078 26.8041 80.1678C29.1641 79.7145 35.7041 76.2945 46.4241 69.9079V70.4879C46.4241 70.7679 45.5241 71.5478 43.6841 72.8878L43.7041 72.7478ZM27.2641 78.1479C28.7771 78.0267 30.1964 77.3667 31.2641 76.2879C31.7041 76.2879 31.9441 76.4279 31.9641 76.8079C30.4018 77.2229 28.9209 77.8991 27.5841 78.8079H27.2641V78.1879V78.1479ZM53.8841 57.7879L45.6641 64.3079C42.5172 66.5396 39.2155 68.5446 35.7841 70.3079C26.0507 75.6412 20.0041 78.4212 17.6441 78.6479H17.2841C17.5774 77.5545 21.9107 68.6812 30.2841 52.0278C36.2879 51.0616 42.1426 49.3274 47.7041 46.8679L49.7041 46.7079C51.2783 46.4267 52.8945 46.4865 54.4437 46.8833C55.9928 47.2801 57.4388 48.0045 58.6841 49.0079L58.8041 50.2279C57.3241 54.4879 55.6841 56.9879 53.9241 57.7279L53.8841 57.7879ZM37.8841 48.7479L39.2041 48.6279V48.9279L37.8841 49.0479V48.7479ZM56.3441 45.6079H57.3041C58.2041 46.0279 58.6641 46.4079 58.7041 46.7479V47.0479C58.2179 47.0407 57.7425 46.9033 57.3275 46.65C56.9124 46.3968 56.5728 46.0369 56.3441 45.6079ZM58.9641 30.6479C56.8277 32.6606 54.4652 34.4189 51.9241 35.8879C50.6641 36.0079 45.9241 37.8879 37.7841 41.4079C37.3771 41.2232 36.9292 41.1474 36.4841 41.1879V40.6079C36.5284 38.9981 37.0815 37.4437 38.0641 36.1679C38.7041 32.8079 39.3841 30.8879 40.0641 30.4279L46.8641 15.1279C46.7841 14.1812 48.2374 13.4545 51.2241 12.9479H52.1841V13.8279C55.1041 13.3879 56.9441 13.1279 57.6441 13.0679C63.0441 12.6079 65.8641 13.7079 66.0841 16.3279H66.7041L66.5641 14.7879H67.2441C67.9039 15.0596 68.4845 15.4936 68.932 16.0495C69.3795 16.6054 69.6795 17.2652 69.8041 17.9679C69.7415 19.1593 69.2516 20.2883 68.4241 21.1479C68.0041 21.1479 67.7641 20.8879 67.7441 20.2879H67.0641L66.9241 22.1479C64.1908 26.2412 62.1908 28.3479 60.9241 28.4679C59.8041 30.0079 59.1241 30.7879 58.9241 30.7879L58.9641 30.6479ZM63.1441 41.3679C62.761 41.0617 62.2934 40.8802 61.8041 40.8479V39.9279H62.4241L63.7841 40.7279C63.8067 40.8111 63.809 40.8985 63.7908 40.9829C63.7727 41.0672 63.7346 41.1459 63.6798 41.2125C63.6249 41.2791 63.5549 41.3316 63.4757 41.3656C63.3964 41.3996 63.3101 41.4141 63.2241 41.4079L63.1441 41.3679ZM67.4641 46.4879C68.0641 46.7279 68.4241 46.9879 68.4841 47.2279H68.0041L67.5641 47.5879L67.4441 46.3479L67.4641 46.4879ZM67.8641 49.0679V48.8279L68.6441 48.6479V48.8879L67.8641 49.0679ZM69.7441 51.1678C70.5441 51.0278 70.9441 50.9879 72.4241 50.6479V50.8878L69.5841 51.5479C69.5905 51.4213 69.5905 51.2944 69.5841 51.1678H69.7441ZM72.5041 52.3479C71.5449 52.3683 70.5916 52.5026 69.6641 52.7478V52.5079L72.0441 51.7478L73.1841 51.4879L73.3041 51.9279C72.7841 52.0479 73.1641 52.0479 72.5641 52.3479H72.5041ZM75.0241 51.7478C74.9571 51.7658 74.8872 51.7702 74.8185 51.7607C74.7498 51.7512 74.6837 51.7281 74.624 51.6927C74.5644 51.6573 74.5124 51.6103 74.4712 51.5545C74.43 51.4987 74.4004 51.4353 74.3841 51.3679L75.1041 51.2079C75.1685 51.1825 75.2379 51.1728 75.3068 51.1793C75.3757 51.1859 75.442 51.2086 75.5005 51.2456C75.5589 51.2826 75.6078 51.3329 75.6432 51.3924C75.6786 51.4519 75.6994 51.5188 75.7041 51.5879L75.0241 51.7478ZM81.8441 44.4079V44.1679L83.0241 43.8879L83.1441 44.3279H81.9041L81.8441 44.4079ZM89.1241 89.0879C89.1742 88.8437 89.1742 88.592 89.1241 88.3479H89.3841C89.4442 88.3226 89.5095 88.3117 89.5746 88.316C89.6397 88.3203 89.7029 88.3397 89.7591 88.3727C89.8154 88.4057 89.8633 88.4514 89.8988 88.5061C89.9344 88.5608 89.9568 88.623 89.9641 88.6879V88.9279L89.0041 89.1479L89.1241 89.0879ZM94.3441 46.3079H93.8241C93.1361 46.5944 92.4274 46.8284 91.7041 47.0079L91.2241 47.1279C91.1611 47.1492 91.0944 47.1572 91.0282 47.1514C90.962 47.1455 90.8977 47.126 90.8394 47.0941C90.7811 47.0621 90.7301 47.0184 90.6896 46.9657C90.6491 46.913 90.62 46.8524 90.6041 46.7879L93.9641 45.9879L95.0841 45.4679L95.4641 45.8879C95.0429 45.9466 94.6436 46.1118 94.3041 46.3679L94.3441 46.3079ZM96.9641 45.4679V45.2279C97.2118 45.1491 97.4332 45.0038 97.6041 44.8079L100.024 44.2479V44.4879C98.9785 44.7197 97.9547 45.0409 96.9641 45.4479V45.4679ZM97.3441 40.5679C97.0915 40.6607 96.8602 40.8035 96.6641 40.9879C96.6641 40.8279 96.2841 40.8279 95.6641 40.9879C95.5441 40.5279 97.3441 39.8679 101.044 38.9879L101.564 38.8679L101.684 39.3079C99.0841 40.0679 97.6841 40.5079 97.3441 40.5479V40.5679ZM103.864 33.5279C103.604 36.4879 102.564 38.1679 100.724 38.5879V38.3479L99.0841 38.9879L98.3641 39.1479C98.0373 39.2412 97.6909 39.2412 97.3641 39.1479L97.2241 38.4879C99.3937 35.0716 101.772 31.792 104.344 28.6679H104.904C104.976 30.3154 104.647 31.9558 103.944 33.4479L103.864 33.5279ZM115.404 23.6479H115.184V23.1879H116.144V23.4279C115.893 23.4975 115.651 23.5983 115.424 23.7279L115.404 23.6479ZM110.604 71.3679C110.142 71.1252 109.625 71.008 109.104 71.0278V70.3279C109.104 70.0879 109.251 69.9212 109.544 69.8279C109.864 69.8279 110.044 70.0079 110.084 70.5079C110.465 69.9406 110.915 69.4232 111.424 68.9678L111.924 69.1678C111.744 70.5878 111.304 71.3278 110.644 71.3878L110.604 71.3679ZM161.544 17.9879C161.304 17.9879 160.844 17.2679 160.104 15.7479V15.2879C160.564 15.2879 161.064 15.9679 161.544 17.4679V17.9879ZM160.864 12.6679L160.644 13.1479L153.744 10.2679C158.344 10.4079 160.724 11.2279 160.864 12.6679ZM131.644 37.8479H130.684V37.3879H131.644V37.8479ZM130.844 22.7679H131.104V23.4679C130.864 23.4679 130.564 23.8012 130.204 24.4679V24.0079C130.541 23.6739 130.759 23.2381 130.824 22.7679H130.844ZM128.844 27.6079V28.5279H128.584V27.6079H128.844ZM127.744 29.3479H128.224C128.224 30.1345 128.017 30.5412 127.604 30.5679H127.344C127.581 30.2025 127.718 29.7822 127.744 29.3479ZM126.964 31.7279H127.184V31.9879L126.764 32.7279H126.284V32.4879C126.784 32.4879 127.004 32.1879 126.964 31.7279ZM126.144 33.9879L125.984 35.1879H125.744V34.0079H126.224L126.144 33.9879ZM118.144 56.5879C117.824 58.1479 117.491 58.9479 117.144 58.9879V58.7879C117.128 58.3666 117.211 57.9474 117.389 57.5649C117.566 57.1824 117.832 56.8475 118.164 56.5879H118.144ZM116.664 59.7279V59.9279C116.684 59.9937 116.687 60.0634 116.674 60.1309C116.661 60.1984 116.631 60.2616 116.588 60.3149C116.544 60.3682 116.488 60.41 116.425 60.4367C116.362 60.4634 116.293 60.4741 116.224 60.4678V60.2279C116.224 59.9879 116.371 59.8212 116.664 59.7279ZM116.344 66.2079H117.084V66.4479C116.829 66.4967 116.585 66.5916 116.364 66.7279H115.884C115.884 66.4612 116.031 66.2945 116.324 66.2279L116.344 66.2079ZM137.264 59.7478C134.704 60.883 132.259 62.2627 129.964 63.8679C125.484 65.4279 123.284 66.4079 123.304 66.7879C120.637 67.7765 118.032 68.9253 115.504 70.2279C115.055 70.2086 114.617 70.0854 114.224 69.8679C114.18 69.4643 114.259 69.0568 114.452 68.6995C114.645 68.3423 114.942 68.0522 115.304 67.8679C115.985 67.8035 116.672 67.9064 117.304 68.1678C118.549 67.6347 119.841 67.2196 121.164 66.9279V66.4678L119.664 66.6078C121.007 65.7744 122.443 65.1031 123.944 64.6078H124.684V64.8079C123.424 64.9279 122.684 65.2878 122.564 65.9678C122.562 66.0325 122.575 66.0968 122.602 66.1555C122.629 66.2143 122.67 66.2661 122.72 66.3067C122.77 66.3474 122.829 66.3758 122.893 66.3899C122.956 66.404 123.021 66.4033 123.084 66.3878C124.024 65.7678 124.464 65.4279 124.464 65.3079C126.251 64.9879 131.211 62.3879 139.344 57.5079V57.9678C139.344 58.1478 138.664 58.7479 137.344 59.7679L137.264 59.7478ZM124.784 63.7478C125.949 63.6578 127.046 63.1625 127.884 62.3479C128.204 62.3479 128.384 62.4679 128.404 62.7679C127.231 63.0687 126.112 63.5476 125.084 64.1879H124.824V63.7478H124.784ZM144.944 48.2679L138.744 53.2679C136.337 55.0263 133.804 56.604 131.164 57.9879C123.791 61.9879 119.197 64.0945 117.384 64.3079H117.124C117.351 63.4679 120.651 56.7345 127.024 44.1079C131.583 43.3404 136.025 41.9962 140.244 40.1079L141.744 39.9879C142.939 39.7758 144.165 39.8251 145.339 40.1324C146.513 40.4397 147.606 40.9976 148.544 41.7679V42.6879C147.484 45.9879 146.344 47.7879 144.904 48.3479L144.944 48.2679ZM132.764 41.4079H133.724V41.6479H132.764V41.4079ZM146.864 39.0079H147.604C148.284 39.3479 148.644 39.6479 148.664 39.8879V40.0879C148.296 40.1018 147.932 40.0139 147.611 39.834C147.289 39.654 147.024 39.3889 146.844 39.0679L146.864 39.0079ZM148.864 27.6679C147.253 29.2043 145.467 30.5467 143.544 31.6679C139.832 32.8114 136.22 34.2562 132.744 35.9879C132.43 35.8753 132.097 35.8276 131.764 35.8479V35.3879C131.772 34.1652 132.164 32.976 132.884 31.9879C133.364 29.4079 133.904 27.9879 134.464 27.6479L139.684 15.9879C139.684 15.3079 140.724 14.7479 142.964 14.3079H143.704V15.0079C145.904 14.6479 147.284 14.4412 147.844 14.3879C151.844 14.0279 154.084 14.8479 154.264 16.8679H154.744V15.7479H155.224C155.735 15.9317 156.189 16.2464 156.54 16.6606C156.89 17.0747 157.127 17.5738 157.224 18.1079C157.193 19.0108 156.846 19.8743 156.244 20.5479C155.924 20.5479 155.744 20.3679 155.704 19.8679H155.224L155.084 21.2679C152.844 24.3079 151.344 25.9879 150.344 25.9879C149.504 27.1279 148.984 27.7079 148.744 27.7279L148.864 27.6679ZM151.044 35.4279V34.7279H151.524L152.564 35.3679C152.573 35.4305 152.568 35.4942 152.55 35.5547C152.531 35.6152 152.5 35.6711 152.459 35.7186C152.417 35.766 152.365 35.8039 152.308 35.8297C152.25 35.8554 152.187 35.8684 152.124 35.8679C151.828 35.6422 151.475 35.5036 151.104 35.4679L151.044 35.4279ZM64.2241 80.7679L63.7441 80.8878L63.3241 81.2478C63.3314 81.3127 63.3538 81.3749 63.3893 81.4296C63.4249 81.4843 63.4727 81.53 63.529 81.563C63.5853 81.596 63.6485 81.6154 63.7136 81.6197C63.7787 81.624 63.8439 81.6131 63.9041 81.5879C64.2241 81.5879 64.3441 81.3278 64.2841 81.0278V80.7879L64.2241 80.7679ZM62.3441 77.0879V77.3279C62.6641 77.3279 62.7841 77.0679 62.7241 76.7679V76.5278C62.6598 76.5341 62.5977 76.5545 62.5421 76.5875C62.4866 76.6204 62.439 76.6653 62.4027 76.7187C62.3664 76.7722 62.3424 76.8329 62.3323 76.8967C62.3221 76.9605 62.3262 77.0258 62.3441 77.0879ZM75.5441 52.3079L75.9041 52.0879H75.7241C75.669 52.1021 75.6215 52.1371 75.5917 52.1856C75.5618 52.2341 75.5519 52.2922 75.5641 52.3479L75.5441 52.3079ZM75.5441 45.8879L76.1041 45.7479L75.9841 45.2679L75.4241 45.4079L75.5441 45.8879ZM207.244 64.7079L205.984 64.5679L205.764 65.0479V65.2879L213.304 64.6479V64.1879L207.304 64.7079H207.244ZM245.744 59.9879V60.4479L246.564 60.5879V60.1279L245.744 59.9879ZM244.584 59.9879C242.12 60.674 239.581 61.0568 237.024 61.1279V61.5879H237.824L238.444 61.3479C244.044 60.7279 244.704 60.9479 244.644 60.3279V59.9879H244.584ZM210.584 51.7478L210.084 51.5879C209.802 52.227 209.6 52.8988 209.484 53.5879V53.7879C209.884 53.7879 210.224 53.1079 210.564 51.7879L210.584 51.7478ZM203.764 48.0679V47.9879H203.504L203.044 48.2879L203.304 48.7279C203.664 48.7279 203.824 48.5279 203.784 48.2079L203.764 48.0679ZM218.584 63.3878V62.9279H218.344V63.3878H218.584ZM249.324 56.4479H249.684C249.884 56.4479 249.984 56.2678 249.964 55.9678L249.764 55.5278C248.744 55.5222 247.739 55.7769 246.844 56.2679V56.0278L245.304 56.1678C245.304 55.7078 245.144 55.4679 244.924 55.4879H244.124C243.184 55.4879 242.744 55.4878 242.284 55.8878C242.284 55.7278 242.284 55.6479 242.124 55.6479H241.224L240.704 55.9479C240.704 55.7879 240.704 55.7079 240.544 55.7079L240.224 55.9879H238.684V56.4479L239.324 56.6078H239.924C240.129 56.7281 240.368 56.7773 240.604 56.7478L241.124 56.4879V56.6879C239.506 57.1086 237.863 57.4226 236.204 57.6279C236.063 57.5094 235.888 57.4393 235.704 57.4279C235.652 57.4253 235.6 57.4124 235.552 57.3899C235.505 57.3674 235.462 57.3357 235.427 57.2967C235.392 57.2577 235.364 57.2121 235.347 57.1625C235.329 57.113 235.321 57.0604 235.324 57.0079L236.364 56.8679C236.594 56.941 236.828 57.0011 237.064 57.0479C237.904 56.6279 237.944 56.4679 238.384 56.4279V55.9678C236.629 56.2904 234.849 56.4578 233.064 56.4678H232.904V56.0079C237.524 55.4479 235.984 55.7679 237.564 55.3279C237.564 55.4879 237.564 55.5679 237.724 55.5679C237.895 55.3916 238.121 55.2787 238.364 55.2478H238.684C240.497 55.3033 242.306 55.0669 244.044 54.5479V54.7478L244.564 54.4879H245.044C245.044 54.0279 245.724 53.9479 245.964 53.9279V53.4279C240.344 54.5679 238.864 54.2479 237.304 54.6879V54.4879C236.649 54.6395 235.975 54.6934 235.304 54.6479C235.125 54.702 234.966 54.8061 234.844 54.9479C234.844 54.7879 234.844 54.7079 234.664 54.7079L229.884 55.4879C229.884 55.3479 229.884 55.2879 229.704 55.3079C228.035 55.7965 226.319 56.105 224.584 56.2279C224.361 56.2684 224.149 56.3572 223.964 56.4879C223.964 56.3479 223.964 56.2879 223.704 56.3079L221.704 56.4678L220.344 56.8079C220.344 56.6679 220.344 56.6079 220.084 56.6279C219.431 56.8171 218.761 56.9443 218.084 57.0079C217.744 57.0079 218.244 57.0079 218.084 56.8079L217.664 57.0479H215.344C211.744 57.4879 212.144 57.5479 211.744 57.5679H210.404C210.411 57.5964 210.411 57.6261 210.403 57.6544C210.396 57.6828 210.382 57.709 210.362 57.7307C210.342 57.7523 210.318 57.7689 210.29 57.7789C210.263 57.7888 210.233 57.7919 210.204 57.7879C208.684 57.5879 207.884 57.3479 207.884 57.0679C208.084 55.6145 208.437 54.8679 208.944 54.8279H209.204L208.984 55.3079H209.244C209.724 55.0479 209.944 54.8079 209.924 54.5879V54.0879H209.444V53.6279C209.399 53.3076 209.448 52.9812 209.584 52.6879L210.684 50.9079V51.3679H211.204V50.9079L210.904 50.4879C211.162 50.2247 211.487 50.0379 211.844 49.9479V49.7079H211.144V49.0079C212.045 47.3951 212.718 45.6653 213.144 43.8679L213.644 44.0679C213.964 44.0679 214.104 43.8679 214.084 43.5279H213.604V43.3279C213.57 42.9907 213.632 42.6507 213.784 42.3479C214.126 42.0425 214.397 41.6656 214.576 41.2439C214.756 40.8221 214.841 40.366 214.824 39.9079C214.964 39.9079 215.044 39.9079 215.064 40.1279C215.724 39.7479 216.224 38.7679 216.584 37.1279C218.528 33.0848 220.179 28.9074 221.524 24.6279C225.624 13.5879 225.524 12.4279 226.024 9.80785H225.544C225.58 10.1386 225.518 10.4727 225.364 10.7679C225.119 10.6559 224.854 10.5947 224.584 10.5879V10.3879C224.604 9.14481 225.033 7.94293 225.804 6.96786H226.024L226.444 8.56786H226.924C227.004 7.89316 227.131 7.22487 227.304 6.56786C227.304 6.32786 227.104 6.16786 226.724 6.14786L226.264 6.44785V3.84785H226.024C225.701 3.59032 225.475 3.23062 225.384 2.82785L222.724 3.08785C222.674 2.7987 222.573 2.52092 222.424 2.26785C222.424 2.02785 223.004 1.78785 224.224 1.54785L224.764 1.74786L225.264 1.44785C225.264 1.60785 225.384 1.68785 225.564 1.66785L226.064 1.36785C226.064 1.52785 226.184 1.60785 226.364 1.58785H226.604V1.04785H223.684L223.184 1.38786V1.08785C210.677 2.11452 203.577 2.70785 201.884 2.86785H199.244C199.244 3.06785 199.084 3.18785 198.704 3.22785L198.164 2.98785L196.344 3.44785C195.626 3.51214 194.903 3.51214 194.184 3.44785C193.892 3.68057 193.537 3.81995 193.164 3.84785L198.504 3.50785C198.12 3.76878 197.669 3.9145 197.204 3.92786C196.841 3.97725 196.471 3.91445 196.144 3.74786C194.834 4.15134 193.497 4.46539 192.144 4.68785L191.604 4.48785L182.884 5.82785C182.515 5.65924 182.107 5.59691 181.704 5.64786C180.918 5.75076 180.142 5.91799 179.384 6.14786L175.164 7.90785L175.484 8.42786C175.791 8.37286 176.083 8.25727 176.344 8.08785L177.844 8.22785L177.664 9.62785C177.028 9.74371 176.432 10.0218 175.934 10.4352C175.437 10.8486 175.054 11.3834 174.824 11.9879C172.824 12.9079 171.724 13.5479 171.724 13.9879V14.2279H172.044L172.604 13.9279L173.264 14.7079V15.7879C173.264 16.1212 169.791 23.4545 162.844 37.7879C156.844 51.5879 153.644 59.1279 153.344 60.4879C151.344 61.0679 150.084 61.9078 149.724 63.0278C149.724 63.3878 150.384 63.6279 151.564 63.7079V64.2478L151.024 65.1479V66.2279C151.024 66.7879 152.531 67.2145 155.544 67.5079C155.544 67.3279 155.544 67.2079 155.824 67.1879C155.804 68.5392 155.616 69.8828 155.264 71.1879H155.584C156.488 70.2254 157.098 69.0251 157.344 67.7279H157.604C157.904 67.7279 158.224 68.0479 158.584 68.7679C158.211 68.9145 156.877 71.8812 154.584 77.6678L154.904 78.1879H155.224C157.957 71.2545 159.677 67.4212 160.384 66.6879C163.984 66.3679 170.204 65.7012 179.044 64.6879L179.604 64.3479C179.602 64.3899 179.61 64.4318 179.628 64.47C179.646 64.5082 179.672 64.5415 179.706 64.5671C179.739 64.5927 179.778 64.6098 179.82 64.6169C179.861 64.624 179.904 64.6209 179.944 64.6078H180.524L181.084 64.2679C181.082 64.3099 181.09 64.3518 181.108 64.39C181.126 64.4282 181.152 64.4615 181.186 64.4871C181.219 64.5127 181.258 64.5298 181.3 64.5368C181.341 64.5439 181.384 64.5409 181.424 64.5278L188.344 63.7279C190.124 63.5879 190.944 63.0479 190.884 62.1279C190.884 61.8879 191.904 61.6079 194.024 61.3079C194.338 61.3043 194.65 61.3586 194.944 61.4678C194.944 61.3078 195.984 61.1279 198.104 60.9479C198.104 59.8279 198.504 59.2278 199.144 59.1678V58.6279C198.462 58.7066 197.792 58.8609 197.144 59.0879C196.249 59.0766 195.357 58.9694 194.484 58.7679C194.221 58.9345 193.93 59.0499 193.624 59.1078L188.964 59.2478L188.404 59.5479C188.404 59.3745 188.291 59.3012 188.064 59.3279H187.804L187.204 59.6279C187.204 59.4679 186.704 59.3279 185.724 59.2079L185.124 59.5679H183.964V59.3878C189.964 58.7345 192.924 57.9212 192.844 56.9479C192.923 56.9289 193.006 56.9288 193.085 56.9476C193.165 56.9664 193.238 57.0036 193.301 57.0561C193.363 57.1087 193.412 57.1751 193.444 57.2501C193.476 57.3251 193.489 57.4065 193.484 57.4879L195.244 57.0479V56.5079L180.884 56.9079C180.884 57.0879 180.884 57.2079 180.604 57.2279L178.844 57.0879C178.44 57.1116 178.052 57.2504 177.724 57.4879L177.064 57.2478C175.712 57.3318 174.372 57.5529 173.064 57.9079C171.733 57.803 170.395 57.803 169.064 57.9079L165.844 58.1879L164.144 57.9879C164.144 57.0279 165.924 52.3679 169.724 43.9879C170.287 41.9953 171.347 40.1785 172.804 38.7079C173.123 38.7123 173.437 38.7874 173.724 38.9279L176.024 38.1479L177.204 38.3279C179.569 38.0688 181.889 37.4972 184.104 36.6279C184.608 36.556 185.122 36.604 185.604 36.7679L187.364 36.3479L192.524 35.9879C194.983 35.7544 197.411 35.2582 199.764 34.5079V33.9679C198.804 33.9679 198.284 33.9679 198.264 33.5079C198.264 32.7879 197.504 32.4879 196.144 32.5879V32.0479L197.584 31.6279L201.344 31.3079V30.7679H199.024V30.1879L200.484 30.0479C200.884 30.0479 201.044 29.8279 201.004 29.4479C199.004 29.4479 198.064 29.4479 198.044 29.1479C184.404 29.8145 177.564 29.9412 177.524 29.5279C177.215 29.595 176.922 29.7243 176.664 29.9079L176.304 29.3479C179.917 21.6679 182.037 17.8012 182.664 17.7479C182.628 18.2548 182.477 18.747 182.224 19.1879V19.4279H182.804C184.244 16.0079 185.444 14.2279 186.464 14.1479C190.744 13.7679 185.864 13.4879 195.044 12.1479C195.296 12.2863 195.577 12.3617 195.864 12.3679C199.464 11.6345 204.477 10.8745 210.904 10.0879V9.54785L207.484 9.86785V9.32785C207.857 9.29995 208.212 9.16057 208.504 8.92786V9.22785C208.789 9.15979 209.055 9.03007 209.284 8.84785C209.743 8.77139 210.215 8.82687 210.644 9.00785C211.588 8.74361 212.551 8.54975 213.524 8.42786L215.664 8.22785C216.184 7.88785 216.424 7.58785 216.404 7.30785V7.06786C215.775 7.1158 215.142 7.0754 214.524 6.94785C214.516 6.87687 214.522 6.80493 214.541 6.73622C214.561 6.66751 214.594 6.60339 214.639 6.54758C214.683 6.49176 214.739 6.44537 214.801 6.41109C214.864 6.3768 214.933 6.35531 215.004 6.34785L219.004 5.96786L220.824 5.50785C220.824 5.70785 220.944 5.78786 221.084 5.78786C221.369 5.71979 221.635 5.59007 221.864 5.40785H222.164C221.841 6.1126 221.574 6.84148 221.364 7.58785H220.844C220.817 7.24951 220.714 6.92153 220.544 6.62785H220.284C215.444 20.1279 213.284 26.4079 208.804 36.7679C207.984 39.4079 207.304 40.8879 206.704 41.2079C206.702 41.2725 206.715 41.3368 206.742 41.3955C206.769 41.4543 206.81 41.5061 206.86 41.5467C206.91 41.5874 206.969 41.6158 207.033 41.6299C207.096 41.644 207.161 41.6433 207.224 41.6279C207.327 42.979 207.006 44.3285 206.304 45.4879C204.304 51.4879 202.864 54.7079 202.144 55.3079L202.344 57.9879C202.353 58.0505 202.348 58.1142 202.33 58.1747C202.311 58.2352 202.28 58.2911 202.239 58.3385C202.197 58.386 202.145 58.4239 202.088 58.4496C202.03 58.4754 201.967 58.4884 201.904 58.4879H201.424C201.424 57.7079 201.064 57.3278 200.564 57.3878H200.304C199.633 58.4449 199.146 59.6081 198.864 60.8279H199.344C199.622 60.6902 199.854 60.4757 200.014 60.2098C200.173 59.9439 200.253 59.6378 200.244 59.3279H201.204L201.764 59.5278C201.386 60.0166 201.17 60.6106 201.144 61.2279L201.404 61.6678L200.764 63.1678V63.4079C201.411 63.3817 202.049 63.564 202.584 63.9279C203.12 63.8537 203.628 63.6475 204.064 63.3279H210.304L212.104 62.7079C213.592 62.7406 215.081 62.6939 216.564 62.5679H217.344L217.764 62.2879V62.5278C218.991 62.3883 220.232 62.4356 221.444 62.6678V62.9079H220.344V63.3679C220.665 63.3468 220.972 63.2282 221.224 63.0278C221.504 63.0278 221.664 63.1679 221.684 63.4879C221.172 63.542 220.669 63.6561 220.184 63.8279L219.704 63.6678C218.944 63.8678 219.104 63.9278 218.584 63.9678L217.824 63.8279C217.83 63.8546 217.83 63.8824 217.824 63.9091C217.818 63.9358 217.805 63.9607 217.788 63.9819C217.771 64.0031 217.749 64.0201 217.724 64.0315C217.699 64.043 217.672 64.0485 217.644 64.0479C217.64 64.1075 217.65 64.1672 217.673 64.2226C217.695 64.2779 217.729 64.3276 217.774 64.3679C217.818 64.4082 217.87 64.4381 217.928 64.4554C217.985 64.4727 218.045 64.4769 218.104 64.4678H218.884L222.884 64.1078L224.424 63.7679C224.424 63.9079 224.424 63.9679 224.624 63.9479L225.364 63.6678L226.764 63.5479C227.844 63.5479 227.824 63.3879 230.184 63.0079C230.184 62.8679 230.184 62.8079 230.324 62.7879V62.9879C231.953 62.7701 233.563 62.4359 235.144 61.9879V62.1078C236.104 61.8878 235.564 61.9478 235.824 61.7478C235.824 61.9078 235.824 61.9879 235.984 61.9879H236.664V61.4879H234.984C234.483 61.5817 233.974 61.6219 233.464 61.6078L230.044 61.7879V61.5479L232.044 61.2879H232.724L233.124 61.0079V61.2478C235.804 61.0278 236.764 61.6879 249.124 59.0479C249.804 59.0479 249.744 58.4279 250.164 57.2679C249.935 57.2876 249.705 57.2389 249.504 57.1279C248.343 57.4099 247.158 57.5839 245.964 57.6479C245.804 57.6479 245.664 57.5079 245.604 57.2279V57.0278H247.604C248.313 56.9525 248.996 56.7202 249.604 56.3479C249.604 56.5079 249.204 56.6079 249.444 56.5879L249.324 56.4479ZM157.564 57.9879H156.684C156.977 56.5999 157.448 55.2556 158.084 53.9879H158.664C158.481 55.3651 158.111 56.7109 157.564 57.9879ZM158.624 53.7478V53.5079C158.624 53.2079 158.784 53.0079 159.204 52.9079V53.1479C159.204 53.5079 159.044 53.7078 158.624 53.7478ZM170.344 62.7879V63.0278L168.884 63.1678V62.9279L170.344 62.7879ZM168.584 62.6479C168.584 62.9479 168.164 63.2878 167.184 63.6078L165.404 63.4678H164.824V62.9279L168.644 62.5679L168.584 62.6479ZM180.344 8.42786H179.464V8.12785C179.464 7.82785 179.604 7.62785 179.984 7.52785H180.304L180.904 7.76785C180.916 7.84424 180.911 7.92235 180.889 7.99648C180.867 8.07061 180.829 8.1389 180.777 8.19638C180.725 8.25386 180.661 8.29907 180.59 8.32874C180.518 8.3584 180.441 8.37176 180.364 8.36785L180.344 8.42786ZM193.664 5.82785H193.944V6.36785H193.144C193.136 6.29686 193.142 6.22493 193.161 6.15622C193.181 6.08751 193.214 6.02339 193.259 5.96758C193.303 5.91176 193.359 5.86537 193.421 5.83109C193.484 5.7968 193.553 5.77531 193.624 5.76785L193.664 5.82785ZM190.344 6.98785L189.024 6.84785V6.58785C190.151 6.51956 191.265 6.31816 192.344 5.98785C192.344 6.18785 192.544 6.26785 192.884 6.22785V6.76785H192.364C192.001 6.81724 191.631 6.75444 191.304 6.58785C191 6.79501 190.65 6.9254 190.284 6.96786L190.344 6.98785ZM192.004 11.8079V11.5679L194.144 11.3679V11.6079L192.004 11.8079ZM194.224 9.98785V9.68785H195.264V9.98785H194.224ZM194.464 6.32785H194.184L194.424 5.74786L196.804 5.52785V5.82785C196.005 5.92167 195.216 6.08224 194.444 6.30785L194.464 6.32785ZM195.684 11.4679V10.9279H196.724C197.084 10.9279 197.271 11.0945 197.284 11.4279L195.724 11.5679L195.684 11.4679ZM202.004 2.86785L200.664 3.24786H200.344C199.539 3.31924 198.729 3.31924 197.924 3.24786C199.664 3.12786 201.324 3.00785 201.924 2.90785L202.004 2.86785ZM200.564 8.86785V9.10786L198.724 9.26785V9.02785L200.564 8.86785ZM203.584 10.3079C203.584 10.0879 203.204 9.92785 202.484 9.86785L200.644 10.3879H199.224C198.904 10.1679 198.744 10.0079 198.724 9.90785H200.364L204.044 9.30785H205.924V9.60786C205.122 9.67734 204.33 9.83838 203.564 10.0879L203.584 10.3079ZM222.564 5.40785H222.984C223.623 4.77225 224.376 4.26329 225.204 3.90785C224.794 6.33998 223.706 8.60692 222.064 10.4479L221.024 9.80785C221.639 8.36514 222.154 6.8816 222.564 5.36785V5.40785ZM219.364 10.9079H219.624C219.264 11.5879 218.944 11.9279 218.684 11.9479V11.2479C218.947 11.2037 219.195 11.0936 219.404 10.9279L219.364 10.9079ZM217.364 15.8479C217.524 14.5921 218.022 13.4032 218.804 12.4079V12.6479C218.544 14.5079 218.124 15.5079 217.584 15.5679V16.7479C217.218 17.1678 216.994 17.6928 216.944 18.2479H216.684L216.544 16.6279C216.844 16.6279 217.084 16.3279 217.244 15.8479H217.364ZM216.564 18.5279C216.487 19.2181 216.305 19.8926 216.024 20.5279H215.764V19.8279C216.124 19.0079 216.424 18.5879 216.624 18.5879L216.564 18.5279ZM201.524 62.1678V61.9678H202.004V62.6678C201.744 62.6678 201.564 62.5279 201.484 62.2079L201.524 62.1678ZM223.004 62.7279C223.004 62.5679 223.004 62.4879 222.744 62.5079L221.524 62.6279V62.3878H221.644L224.344 61.9879V62.2279C223.819 62.1881 223.294 62.314 222.844 62.5879L223.004 62.7279ZM221.564 62.1279C221.684 62.1279 221.564 62.2479 221.564 62.2679C221.564 62.2879 221.424 62.2679 221.564 62.1279ZM221.704 58.7679L220.104 58.9079V58.5879L221.564 58.4479L222.824 58.1279C222.824 58.2679 222.824 58.3279 223.084 58.3079C224.584 58.0479 224.444 57.9679 225.084 57.9079C225.324 57.9079 225.484 58.0479 225.504 58.3279L221.644 58.6678L221.704 58.7679ZM227.304 58.2879C226.784 58.1824 226.254 58.142 225.724 58.1678V57.9879L227.164 57.8479V57.9879C227.024 57.9879 227.564 57.9879 227.304 58.2279V58.2879ZM227.424 58.0278V57.8279H228.204V58.0278H227.424ZM229.164 57.8878V57.6879C229.372 57.6335 229.564 57.5307 229.724 57.3878C229.801 57.3766 229.879 57.3815 229.954 57.402C230.028 57.4226 230.098 57.4585 230.158 57.5073C230.218 57.5562 230.268 57.617 230.303 57.686C230.339 57.7549 230.359 57.8305 230.364 57.9079L229.164 57.8878ZM231.384 57.6078V57.3679H232.344V57.6078H231.384ZM232.704 57.4879C232.704 57.2079 232.704 57.0479 233.044 57.0079L233.364 57.4279C233.358 57.4042 233.357 57.3796 233.361 57.3555C233.365 57.3314 233.374 57.3084 233.387 57.2878C233.4 57.2673 233.417 57.2496 233.437 57.2358C233.457 57.2221 233.48 57.2126 233.504 57.2079L233.744 57.6479L232.704 57.5079V57.4879ZM251.384 55.0879C251.524 55.0879 251.604 54.9079 251.244 54.8479C250.884 54.7879 251.424 55.0878 251.064 55.1078V55.2679L251.264 55.1279L251.064 55.2879L250.664 55.7879L251.444 55.5079V55.0479L251.384 55.0879ZM252.744 56.1479H252.604V56.6078H253.704C253.704 56.3078 252.964 56.2079 252.724 56.2079L252.744 56.1479Z" fill="#F9DC3E"/>
  </g>
  <defs>
    <clipPath id="clip0_20_1086">
      <rect width="256" height="100" fill="#EBEBEB" transform="translate(0.344238 -0.00488281)"/>
    </clipPath>
  </defs>
</svg>
