<svg xmlns="http://www.w3.org/2000/svg" width="232" height="256" fill="none" viewBox="0 0 232 256">
  <g clip-path="url(#a)">
    <path fill="#99425b" d="M216.698 125.702c0-13.125-10.639-23.764-23.764-23.764q-1.266.001-2.498.131l32.64-96.266H84.369l32.594 96.183a24 24 0 0 0-1.444-.048c-13.125 0-23.764 10.639-23.764 23.764 0 10.609 6.952 19.59 16.548 22.645-5.068 8.779-11.445 16.686-18.686 23.517-9.845 9.288-21.113 16.331-33.3 20.671-14.509-7.454-21.361-24.031-15.178-38.565.697-1.642 1.41-3.305 2.091-4.962 10.513-2.453 18.345-11.876 18.345-23.136 0-13.124-10.64-23.763-23.764-23.763-13.125 0-23.764 10.639-23.764 23.763 0 8.049 4.004 15.157 10.125 19.456-5.881 13.392-14.528 27.407-17.221 43.651-3.228 19.468-.01 40.132 16.827 51.802 39.212 27.177 81.777-16.848 126.655-27.915 16.265-4.011 34.119-3.365 48.449-11.664 10.761-6.233 17.855-16.562 19.868-28.158 1.989-11.456-.911-22.861-7.579-32.11a23.66 23.66 0 0 0 5.527-15.232"/>
    <path fill="#ebebeb" d="M213.032 172.052c-1.748 10.067-7.966 18.861-17.059 24.128-8.477 4.91-18.635 6.375-29.39 7.926-5.761.831-11.719 1.69-17.539 3.125-15.389 3.795-30.295 11.199-44.709 18.359-28.847 14.329-53.76 26.701-77.251 10.421-17.207-11.926-16.412-33.99-14.408-46.082 1.858-11.202 6.88-21.518 11.738-31.496.84-1.725 1.662-3.418 2.462-5.096a29.3 29.3 0 0 0 7.638 1.916c-4.945 16.318 2.83 34.061 19.151 42.445l2.234 1.147 2.365-.842c12.902-4.595 24.791-11.968 35.336-21.917 6.816-6.431 12.677-13.545 17.494-21.147 1.444.217 2.921.332 4.425.332 14.978 0 27.383-11.198 29.302-25.661a263 263 0 0 1 18.81-.002c1.919 14.464 14.323 25.663 29.303 25.663a29.4 29.4 0 0 0 16.858-5.297c3.323 6.801 4.563 14.454 3.24 22.078M37.811 107.913c9.904 0 17.96 8.057 17.96 17.96 0 3.558-1.044 6.875-2.836 9.668-2.986 4.656-8.06 7.847-13.89 8.246-.408.027-.82.047-1.234.047-2.207 0-4.321-.403-6.276-1.134a18.06 18.06 0 0 1-9.322-7.94 17.84 17.84 0 0 1-2.362-8.887c0-9.903 8.057-17.96 17.96-17.96m59.748 17.79c0-8.998 6.651-16.469 15.294-17.761q1.306-.198 2.666-.199c5.757 0 10.883 2.727 14.171 6.954a18 18 0 0 1 2.097 3.406 17.9 17.9 0 0 1 1.198 11.77c-1.75 7.328-7.998 12.928-15.654 13.699q-.894.09-1.812.091c-3.586 0-6.927-1.06-9.734-2.878-4.945-3.203-8.226-8.765-8.226-15.082m74.959-21.357a29.6 29.6 0 0 0-8.134 13.674 276 276 0 0 0-20.315 0 29.6 29.6 0 0 0-8.907-14.388l18.584-37.579zM92.464 11.608h122.515l-28.936 85.344q-1.883.452-3.666 1.136l-28.585-58.313-28.666 57.965a29 29 0 0 0-3.823-1.031zm118.43 114.095c0 1.801-.269 3.539-.765 5.18a18.03 18.03 0 0 1-6.922 9.539 17.85 17.85 0 0 1-10.273 3.241c-8.293 0-15.288-5.651-17.345-13.304a17.93 17.93 0 0 1 .776-11.585 18 18 0 0 1 1.698-3.114c3.233-4.771 8.687-7.917 14.871-7.917q.85.001 1.68.081c9.118.85 16.28 8.542 16.28 17.879m11.608 0c0-14.436-10.401-26.48-24.1-29.053L231.172 0H76.274l32.819 96.846c-13.223 2.943-23.142 14.76-23.142 28.857 0 10.585 5.594 19.883 13.978 25.108-4.033 6.008-8.815 11.662-14.295 16.832-8.69 8.199-18.373 14.417-28.811 18.508-10.514-6.604-14.959-19.059-10.343-29.909l.362-.85.678-1.596c11.548-4.028 19.859-15.019 19.859-27.923 0-16.304-13.264-29.568-29.568-29.568S8.243 109.57 8.243 125.873c0 8.23 3.382 15.682 8.826 21.048a506 506 0 0 1-3.091 6.431C9 163.576 3.358 175.163 1.225 188.03c-4.237 25.555 2.598 45.983 19.247 57.522 10.103 7.002 20.362 9.754 30.686 9.754 19.44 0 39.106-9.766 58.34-19.32 13.853-6.88 28.177-13.995 42.325-17.484 5.265-1.299 10.682-2.08 16.417-2.907 11.373-1.641 23.134-3.337 33.55-9.37 12.075-6.994 20.341-18.726 22.679-32.187 2.006-11.556-.408-23.131-6.298-32.947a29.4 29.4 0 0 0 4.331-15.388"/>
  </g>
  <defs>
    <clipPath id="a">
      <path fill="#ebebeb" d="M0 0h231.576v256H0z"/>
    </clipPath>
  </defs>
</svg>
