<svg xmlns="http://www.w3.org/2000/svg" width="224" height="256" fill="none" viewBox="0 0 224 256">
  <g fill="#ebebeb" clip-path="url(#a)">
    <path fill-rule="evenodd" d="M213.588 197.422c2.306 29.578 2.306 43.444 2.306 58.578h-68.487c0-3.296.059-6.313.119-9.37.185-9.507.379-19.42-1.163-39.439-2.037-29.308-14.667-35.82-37.891-35.82H.759v-53.325h110.973c29.335 0 44.002-8.917 44.002-32.526 0-20.76-14.667-33.34-44.002-33.34H.759V0h123.196c66.41 0 99.412 31.343 99.412 81.411 0 37.449-23.223 61.873-54.595 65.943 26.483 5.292 41.965 20.353 44.816 50.068" clip-rule="evenodd"/>
    <path d="M.759 256v-39.751h72.414c12.095 0 14.721 8.964 14.721 14.31V256z"/>
  </g>
  <defs>
    <clipPath id="a">
      <path fill="#ebebeb" d="M.759 0h223v256h-223z"/>
    </clipPath>
  </defs>
</svg>
