<svg width="197" height="256" viewBox="0 0 197 256" fill="none"
  xmlns="http://www.w3.org/2000/svg">
  <g clip-path="url(#clip0_20_1000)">
    <path d="M195.998 84.294C195.998 69.2519 192.059 55.1505 185.12 42.929C166.721 23.9926 126.7 19.6063 116.761 42.8396C106.555 66.656 133.907 93.1577 145.86 91.0532C161.081 88.3679 143.174 53.4495 143.174 53.4495C166.452 97.321 161.081 83.8905 119 124.181C76.9195 164.471 33.9436 249.482 27.6765 253.064C27.4075 253.243 27.1393 253.377 26.826 253.512H191.88C194.789 253.512 196.669 250.423 195.371 247.826L152.216 162.411C151.276 160.576 151.947 158.293 153.738 157.263C178.988 142.759 195.998 115.541 195.998 84.294Z" fill="url(#paint0_linear_20_1000)"/>
    <path d="M195.998 84.294C195.998 69.2519 192.059 55.1505 185.12 42.929C166.721 23.9926 126.7 19.6063 116.761 42.8396C106.555 66.656 133.907 93.1577 145.86 91.0532C161.081 88.3679 143.174 53.4495 143.174 53.4495C166.452 97.321 161.081 83.8905 119 124.181C76.9195 164.471 33.9436 249.482 27.6765 253.064C27.4075 253.243 27.1393 253.377 26.826 253.512H191.88C194.789 253.512 196.669 250.423 195.371 247.826L152.216 162.411C151.276 160.576 151.947 158.293 153.738 157.263C178.988 142.759 195.998 115.541 195.998 84.294Z" fill="url(#paint1_linear_20_1000)"/>
    <path d="M27.6765 253.064C33.9428 249.482 76.9194 164.427 119 124.136C161.081 83.8464 166.452 97.276 143.174 53.4053C143.174 53.4053 54.0881 178.303 21.8565 240.081" fill="url(#paint2_linear_20_1000)"/>
    <path d="M40.2106 141.147C100.377 30.5302 108.256 19.3823 139.592 19.3823C156.067 19.3823 172.675 26.8132 183.419 40.0197C168.781 16.428 142.86 0.624779 113.181 0.177734H10.9784C9.94572 0.178342 8.95548 0.588799 8.22517 1.31896C7.49487 2.04912 7.08421 3.03929 7.0834 4.07199V210.088C13.1716 194.375 23.5133 171.902 40.2106 141.147V141.147Z" fill="url(#paint3_linear_20_1000)"/>
    <path d="M119 124.136C76.9194 164.426 33.9435 249.482 27.6765 253.064C21.4087 256.645 10.889 257.093 5.29291 250.825C-0.660812 244.155 -9.92801 233.367 40.2105 141.148C100.377 30.5299 108.256 19.3828 139.592 19.3828C156.067 19.3828 172.675 26.8137 183.419 40.0202C184.001 40.9602 184.583 41.9452 185.165 42.9302C166.765 23.9939 126.745 19.6067 116.807 42.8401C106.599 66.6565 133.952 93.1582 145.905 91.0536C161.125 88.3683 143.219 53.4499 143.219 53.4499C166.452 97.2764 161.081 83.8467 119 124.136Z" fill="url(#paint4_linear_20_1000)"/>
    <path opacity="0.3" d="M45.135 146.072C105.301 35.4535 113.181 24.3072 144.516 24.3072C158.081 24.3072 171.735 29.366 182.121 38.498C171.377 26.2321 155.44 19.3828 139.593 19.3828C108.256 19.3828 100.377 30.5299 40.2114 141.147C-9.92873 233.367 -0.661527 244.156 5.29219 250.827C6.14272 251.767 7.12775 252.573 8.15786 253.244C2.91942 245.633 0.592492 227.95 45.135 146.072Z" fill="url(#paint5_linear_20_1000)"/>
  </g>
  <defs>
    <linearGradient id="paint0_linear_20_1000" x1="72.205" y1="136.247" x2="142.059" y2="145.357" gradientUnits="userSpaceOnUse">
      <stop stop-color="#FF6533"/>
      <stop offset="0.157" stop-color="#FF5633"/>
      <stop offset="0.434" stop-color="#FF4333"/>
      <stop offset="0.714" stop-color="#FF3733"/>
      <stop offset="1" stop-color="#FF3333"/>
    </linearGradient>
    <linearGradient id="paint1_linear_20_1000" x1="61.4218" y1="113.394" x2="200.41" y2="173.519" gradientUnits="userSpaceOnUse">
      <stop stop-color="#BF3338"/>
      <stop offset="1" stop-color="#FF3333"/>
    </linearGradient>
    <linearGradient id="paint2_linear_20_1000" x1="65.4528" y1="132.263" x2="87.3416" y2="142.771" gradientUnits="userSpaceOnUse">
      <stop stop-color="#FF6533"/>
      <stop offset="0.157" stop-color="#FF5633"/>
      <stop offset="0.434" stop-color="#FF4333"/>
      <stop offset="0.714" stop-color="#FF3733"/>
      <stop offset="1" stop-color="#FF3333"/>
    </linearGradient>
    <linearGradient id="paint3_linear_20_1000" x1="98.0093" y1="164.631" x2="90.4184" y2="87.8515" gradientUnits="userSpaceOnUse">
      <stop stop-color="#FF6533"/>
      <stop offset="0.157" stop-color="#FF5633"/>
      <stop offset="0.434" stop-color="#FF4333"/>
      <stop offset="0.714" stop-color="#FF3733"/>
      <stop offset="1" stop-color="#FF3333"/>
    </linearGradient>
    <linearGradient id="paint4_linear_20_1000" x1="74.7367" y1="130.945" x2="102.557" y2="142.501" gradientUnits="userSpaceOnUse">
      <stop stop-color="#FBB040"/>
      <stop offset="1" stop-color="#FB8840"/>
    </linearGradient>
    <linearGradient id="paint5_linear_20_1000" x1="100.795" y1="33.1523" x2="58.1251" y2="316.246" gradientUnits="userSpaceOnUse">
      <stop stop-color="white"/>
      <stop offset="1" stop-color="white" stop-opacity="0"/>
    </linearGradient>
    <clipPath id="clip0_20_1000">
      <rect width="196.394" height="256" fill="#EBEBEB" transform="translate(0.0812988 -0.00488281)"/>
    </clipPath>
  </defs>
</svg>
