<svg width="170" height="256" viewBox="0 0 170 256" fill="none"
  xmlns="http://www.w3.org/2000/svg">
  <g clip-path="url(#clip0_81_1373)">
    <path d="M167.913 153.048L167.913 153.048C163.165 129.315 148.681 109.096 128.788 96.7525C128.787 96.7525 128.782 96.7486 128.781 96.7479L128.759 96.7347C128.752 96.7301 128.746 96.7259 128.739 96.7221L128.726 96.7142C126.882 95.5722 124.995 94.5001 123.07 93.5003L69.7726 66.7848L66.9077 65.3478C66.7404 65.267 66.5738 65.1845 66.408 65.1006C66.3967 65.0945 66.3846 65.0888 66.373 65.0834C66.3617 65.0768 66.3498 65.0721 66.3393 65.0662C66.3383 65.0655 66.3372 65.065 66.3359 65.0649L66.3049 65.049L66.3003 65.0464L66.2712 65.0318C66.2689 65.0302 66.2665 65.0289 66.2639 65.0279L66.2375 65.0146C66.2342 65.013 66.2309 65.0114 66.2275 65.01C66.2209 65.006 66.2143 65.0021 66.2064 64.9988C66.2019 64.9965 66.1975 64.9941 66.1932 64.9915L66.178 64.9842C66.1697 64.98 66.1615 64.9756 66.1535 64.971C60.6225 62.128 55.9024 57.9294 52.4342 52.7674C48.5177 46.9372 46.2339 39.9199 46.2339 32.3685C46.2332 18.3365 54.1264 6.14941 65.7146 0L48.5124 8.7895C20.1992 22.9193 0.758789 52.1665 0.758789 85.9562L2.03587 100.781V100.778C2.05768 100.784 2.08015 100.793 2.10197 100.8L2.03653 100.781C6.67552 127.547 23.6543 150.081 46.9101 162.3L46.9127 162.301L46.9425 162.317L46.9491 162.32C46.9583 162.325 46.9689 162.332 46.9775 162.336C46.9911 162.345 47.0052 162.352 47.0198 162.359L47.1084 162.405L47.1196 162.411L47.1421 162.423C47.1474 162.426 47.1527 162.428 47.158 162.432C47.1646 162.435 47.1718 162.439 47.1791 162.443L47.1956 162.452L47.2155 162.462L47.2373 162.474L47.2518 162.482C47.2647 162.488 47.2772 162.494 47.2895 162.502L52.6338 165.181C52.6272 165.165 52.6226 165.15 52.616 165.134L52.6358 165.181H52.6338L52.6345 165.182L58.9934 168.368L103.451 190.653C115.685 196.584 124.126 209.119 124.126 223.628V223.712L124.126 223.748V223.88L124.125 223.913V223.965L124.124 223.984V224.049L124.124 224.066V224.112L124.123 224.132V224.145L124.122 224.22V224.226C123.972 233.676 120.24 242.257 114.225 248.671C111.457 251.625 108.22 254.101 104.644 255.999L115.691 250.357L121.848 247.214C150.158 233.081 169.601 203.832 169.601 170.04L167.914 153.047" fill="#7CBA3D"/>
    <path d="M0.758789 85.9555C0.758789 52.1672 20.1992 22.9193 48.5124 8.78883L65.7153 0C54.1277 6.15007 46.2332 18.3365 46.2332 32.3678C46.2332 39.9199 48.5177 46.9372 52.4342 52.7674C46.6054 67.3559 43.213 82.3246 42.0708 97.2205C34.4921 101.051 26.1178 103.044 17.6259 103.037C16.7844 103.037 15.9403 103.017 15.0915 102.977C10.6666 102.778 6.28246 102.041 2.03587 100.781L0.758789 85.9555ZM124.125 223.986V223.966V223.986V223.986Z" fill="#C5D83E"/>
    <path d="M52.6354 165.182L47.2898 162.502C47.2775 162.495 47.2649 162.488 47.2521 162.482L47.2369 162.475L47.2151 162.463L47.1952 162.452L47.1794 162.443C47.1725 162.44 47.1654 162.436 47.1582 162.433L47.1424 162.424L47.1199 162.412L47.1087 162.406C47.0789 162.39 47.0505 162.376 47.0201 162.359C47.0085 162.354 46.9972 162.348 46.9864 162.342L46.9778 162.336L46.95 162.321L46.9427 162.318L46.913 162.302L46.9104 162.301C23.6539 150.081 6.67513 127.546 2.03613 100.778C6.2827 102.038 10.6669 102.775 15.0918 102.975C15.9412 103.014 16.7847 103.034 17.6261 103.034C26.1181 103.041 34.4924 101.048 42.0711 97.2173C40.2751 120.649 44.0409 143.896 52.6354 165.182Z" fill="url(#paint0_linear_81_1373)"/>
    <path d="M69.7732 66.7844L66.9077 65.348C66.7404 65.2674 66.5738 65.1852 66.408 65.1014C66.3967 65.0952 66.3846 65.0892 66.373 65.0836C66.3617 65.077 66.3498 65.0723 66.3392 65.0664C66.3383 65.0657 66.3371 65.0652 66.3359 65.0651L66.3049 65.0492L66.3002 65.0466L66.2712 65.032C66.2691 65.0304 66.2669 65.0291 66.2646 65.0281L66.2381 65.0148C66.2349 65.0131 66.2316 65.0116 66.2282 65.0102L66.207 64.999C66.2021 64.9967 66.1973 64.9943 66.1925 64.9917L66.178 64.9844C66.1697 64.9805 66.1615 64.9763 66.1535 64.9719C60.6224 62.1287 55.9023 57.9298 52.4342 52.7676C46.6054 67.3561 43.213 82.3248 42.0708 97.2207C51.9802 92.2096 60.1279 84.2986 65.429 74.5414L69.7732 66.7844ZM167.913 153.048C147.631 166.464 123.376 174.24 97.4644 174.24C95.4913 174.24 93.5082 174.195 91.5179 174.103C80.4748 173.601 69.5429 171.674 58.9941 168.369L103.451 190.653C115.685 196.585 124.126 209.119 124.126 223.629V223.881C124.124 223.891 124.124 223.903 124.124 223.914V224.049L124.123 224.067V224.146L124.122 224.221V224.227C123.972 233.677 120.24 242.258 114.225 248.671C111.457 251.626 108.22 254.102 104.644 256L115.691 250.358L121.848 247.215C150.158 233.081 169.601 203.833 169.601 170.041L167.913 153.048Z" fill="url(#paint1_linear_81_1373)"/>
    <path d="M97.4653 174.24C95.4915 174.24 93.5084 174.195 91.5181 174.103C80.475 173.601 69.5432 171.674 58.9943 168.369L52.6354 165.183C44.0409 143.897 40.2744 120.65 42.0704 97.2213C51.9795 92.2101 60.1269 84.2992 65.4279 74.542L69.7721 66.7856L123.07 93.5012C124.995 94.5007 126.882 95.5725 128.727 96.7143L128.739 96.7223L128.759 96.7355C128.766 96.7388 128.774 96.7434 128.781 96.7487L128.789 96.7527C148.681 109.096 163.165 129.315 167.913 153.049C147.632 166.464 123.378 174.24 97.4646 174.24" fill="url(#paint2_linear_81_1373)"/>
  </g>
  <defs>
    <linearGradient id="paint0_linear_81_1373" x1="10.9582" y1="112.364" x2="-4.03051" y2="147.443" gradientUnits="userSpaceOnUse">
      <stop stop-color="#AACE36"/>
      <stop offset="1" stop-color="#2FA042"/>
    </linearGradient>
    <linearGradient id="paint1_linear_81_1373" x1="42.0715" y1="114.372" x2="171.353" y2="126.634" gradientUnits="userSpaceOnUse">
      <stop stop-color="#79A933"/>
      <stop offset="0.13" stop-color="#70A333"/>
      <stop offset="0.34" stop-color="#559332"/>
      <stop offset="0.58" stop-color="#277B2F"/>
      <stop offset="0.86" stop-color="#005F27"/>
      <stop offset="1" stop-color="#005020"/>
    </linearGradient>
    <linearGradient id="paint2_linear_81_1373" x1="59.0553" y1="66.7851" x2="108.184" y2="180.665" gradientUnits="userSpaceOnUse">
      <stop stop-color="#79AB35"/>
      <stop offset="0.53" stop-color="#7CBA3D"/>
      <stop offset="1" stop-color="#00AA4B"/>
    </linearGradient>
    <clipPath id="clip0_81_1373">
      <rect width="169" height="256" fill="#EBEBEB" transform="translate(0.758789)"/>
    </clipPath>
  </defs>
</svg>
