<svg width="256" height="174" viewBox="0 0 256 174" fill="none"
  xmlns="http://www.w3.org/2000/svg">
  <g clip-path="url(#clip0_18_1006)">
    <path fill-rule="evenodd" clip-rule="evenodd" d="M146.273 118.006V31.2363L140.124 31.2367V118.006H146.273ZM58.8816 60.8635V41.9195H56.9564L52.7952 47.2609V60.8635H37.3915V65.8325H52.7952V106.951C52.7952 110.76 54.0577 113.741 56.5836 115.895C59.1098 118.048 62.2565 119.125 66.0246 119.125C69.8757 119.125 73.8095 118.151 77.826 116.205V110.367C73.8508 112.23 70.3726 113.161 67.3912 113.161C63.4987 113.161 61.1077 112.302 60.2172 110.584C59.3272 108.866 58.882 105.274 58.882 99.8077V65.8325H74.9066V60.8635H58.8816ZM34.0993 71.1743V64.5902L34.0997 64.5898C28.5925 61.36 23.4991 59.7453 18.82 59.7453C13.6857 59.7453 9.3273 61.267 5.74569 64.3104C2.16368 67.3538 0.372869 71.0495 0.372869 75.3971C0.372869 78.4615 1.33565 81.2461 3.26042 83.7521C5.18599 86.2568 9.38892 88.793 15.8696 91.3605C22.3499 93.9277 26.3251 96.05 27.7951 97.7267C29.2647 99.4038 29.9997 101.236 29.9997 103.224C29.9997 106.122 28.8716 108.503 26.6149 110.367C24.3582 112.23 21.4698 113.162 17.9502 113.162C12.7324 113.162 6.74942 111.423 0 107.944V113.907C5.67255 117.385 11.3868 119.125 17.1429 119.125C22.4429 119.125 26.8943 117.603 30.4966 114.559C34.0993 111.516 35.9004 107.779 35.9004 103.348C35.9004 100.035 34.9066 97.0335 32.9191 94.3415C30.9315 91.6503 26.6975 89.0625 20.2172 86.578C13.7369 84.0935 9.78246 82.0332 8.35379 80.3978C6.92512 78.7621 6.21118 76.9712 6.21118 75.025C6.21118 72.2921 7.39101 69.9941 9.75145 68.1305C12.1115 66.2673 15.0102 65.3356 18.4471 65.3356C23.0849 65.3356 28.3023 67.2814 34.0993 71.1743ZM131.987 60.8635L89.2546 147.261H83.0434L102.982 106.951L78.9438 60.8635H85.3418L106.087 100.864L125.776 60.8635H131.987ZM207.764 87.3233H162.733C162.608 88.3171 162.546 89.3109 162.546 90.3047C162.546 96.6813 164.823 102.085 169.378 106.515C173.933 110.946 179.316 113.162 185.527 113.162C192.774 113.162 199.855 110.325 206.77 104.652V111.547C200.227 116.598 192.898 119.125 184.782 119.125C176.542 119.125 169.73 116.267 164.347 110.553C158.964 104.839 156.273 97.5717 156.273 88.7516C156.273 80.3875 158.757 73.462 163.726 67.9755C168.695 62.489 174.948 59.7457 182.484 59.7457C189.565 59.7457 195.548 62.2194 200.434 67.1677C205.32 72.116 207.763 78.8348 207.763 87.3229L207.764 87.3233ZM200.559 82.4164H163.54H163.54C164.658 77.1159 166.925 73.0064 170.341 70.0871C173.758 67.1677 177.806 65.7084 182.484 65.7084C192.381 65.7084 198.406 71.2776 200.559 82.4164Z" fill="#EBEBEB"/>
    <path fill-rule="evenodd" clip-rule="evenodd" d="M244.464 88.8321C260.303 57.0643 259.614 29.5185 242.897 15.1503C232.751 6.23481 217.744 6.74323 200.27 13.1094L200.078 13.1794V13.1953L208.786 11.4709L209.156 11.4005L209.893 11.2646L210.624 11.1342L210.988 11.0718L211.711 10.9513C222.754 9.15496 231.855 9.74527 240.022 17.1212C254.22 29.943 253.384 54.9304 241.432 81.723C242.475 84.0786 243.485 86.4486 244.464 88.8321ZM238.271 100.063C237.383 97.8565 236.472 95.6591 235.537 93.4719L235.375 93.7637C229.872 103.595 222.982 113.46 214.893 122.867C179.169 162.45 144.423 182.454 118.045 158.575L117.836 158.357L117.427 157.926L117.227 157.714L116.837 157.293L116.646 157.086L116.273 156.676L115.913 156.273L115.565 155.877L115.228 155.488L114.904 155.106L114.592 154.731L114.292 154.363L114.005 154.001L113.866 153.823L113.596 153.472C112.85 152.487 112.249 151.586 111.795 150.767C113.408 154.335 115.258 157.233 117.344 159.461C138.698 181.309 173.545 173.752 218.71 126.986C226.444 117.897 232.962 108.864 238.271 100.063Z" fill="url(#paint0_linear_18_1006)"/>
    <path fill-rule="evenodd" clip-rule="evenodd" d="M249.109 106.247C245.44 93.3676 239.326 78.9227 230.318 63.1182C196.037 2.97298 159.687 -5.12918 135.666 2.97299C132.501 4.04071 129.429 6.36061 126.467 9.33204L126.054 9.75102C125.985 9.82138 125.917 9.89214 125.848 9.9633L125.438 10.3942L125.233 10.6124C127.146 8.85979 129.369 7.44464 131.92 6.40871C158.483 -4.37788 193.908 10.0412 224.707 67.2504C232.726 82.1461 238.788 95.7193 242.825 107.797C244.147 106.686 245.82 106.078 247.546 106.081C248.072 106.081 248.596 106.136 249.109 106.247ZM236.694 170.573C243.212 166.675 245.211 165.008 248.898 157.259C253.363 147.873 254.792 135.026 252.089 119.219C250.795 120.238 249.195 120.791 247.547 120.789C247.193 120.789 246.844 120.764 246.505 120.717C252.71 147.688 246.46 165.171 226.78 170.573C217.45 173.134 200.143 169.788 192.18 167.227L194.555 168.238C210.403 172.881 228.273 175.608 236.694 170.573Z" fill="url(#paint1_linear_18_1006)"/>
    <path d="M110.404 149.41C112.05 149.41 113.385 148.075 113.385 146.429C113.385 144.782 112.05 143.447 110.404 143.447C108.757 143.447 107.422 144.782 107.422 146.429C107.422 148.075 108.757 149.41 110.404 149.41Z" fill="url(#paint2_radial_18_1006)"/>
    <path d="M247.546 119.199C250.73 119.199 253.31 116.618 253.31 113.435C253.31 110.252 250.73 107.671 247.546 107.671C244.363 107.671 241.782 110.252 241.782 113.435C241.782 116.618 244.363 119.199 247.546 119.199Z" fill="url(#paint3_radial_18_1006)"/>
  </g>
  <defs>
    <linearGradient id="paint0_linear_18_1006" x1="146.625" y1="94.8008" x2="212.523" y2="133.264" gradientUnits="userSpaceOnUse">
      <stop stop-color="white" stop-opacity="0.01"/>
      <stop offset="1" stop-color="white"/>
    </linearGradient>
    <linearGradient id="paint1_linear_18_1006" x1="182.421" y1="132.327" x2="237.972" y2="115.344" gradientUnits="userSpaceOnUse">
      <stop stop-color="white" stop-opacity="0.01"/>
      <stop offset="1" stop-color="white"/>
    </linearGradient>
    <radialGradient id="paint2_radial_18_1006" cx="0" cy="0" r="1" gradientUnits="userSpaceOnUse" gradientTransform="translate(111.127 145.872) scale(3.32834)">
      <stop stop-color="#E5F9FF"/>
      <stop offset="0.21605" stop-color="#B2EEFE"/>
      <stop offset="0.57356" stop-color="#5ED9FB"/>
      <stop offset="0.77207" stop-color="#5DD1F1"/>
      <stop offset="1" stop-color="#55C4E3"/>
    </radialGradient>
    <radialGradient id="paint3_radial_18_1006" cx="0" cy="0" r="1" gradientUnits="userSpaceOnUse" gradientTransform="translate(249.802 111.986) scale(7.25629)">
      <stop stop-color="#FCD5FD"/>
      <stop offset="0.19619" stop-color="#FD9EFF"/>
      <stop offset="0.51352" stop-color="#F53BFA"/>
      <stop offset="0.82291" stop-color="#E22FE6"/>
      <stop offset="1" stop-color="#CF28D4"/>
    </radialGradient>
    <clipPath id="clip0_18_1006">
      <rect width="256" height="173.317" fill="#EBEBEB" transform="translate(0 0.341797)"/>
    </clipPath>
  </defs>
</svg>
