<svg xmlns="http://www.w3.org/2000/svg" width="256" height="256" fill="none" viewBox="0 0 256 256"><g clip-path="url(#a)"><mask id="b" width="256" height="256" x="0" y="0" maskUnits="userSpaceOnUse" style="mask-type:luminance"><path fill="#ebebeb" d="M0 0h256v256H0z"/></mask><g mask="url(#b)"><path stroke="#ebebeb" stroke-width="6.44" d="M0 0h256v256H0z"/></g><path fill="#ebebeb" fill-rule="evenodd" d="M35.65 184.687c-3.565 0-5.912 1.913-5.912 4.463 0 2.261 1.39 3.768 4.55 4.637 2.869.812 3.478 1.217 3.478 2.493 0 1.159-1.073 1.854-2.725 1.854-1.565 0-2.985-.608-4.173-1.507l-1.855 2.087c1.42 1.275 3.478 2.174 6.115 2.174 3.507 0 6.463-1.681 6.463-4.869 0-2.724-1.768-4-4.898-4.84-2.608-.725-3.217-1.188-3.217-2.203 0-.927.84-1.536 2.319-1.536 1.362 0 2.58.435 3.854 1.247l1.45-2.174c-1.45-1.13-3.246-1.826-5.449-1.826m16.432 12.665 1.304 2.376c-1.1.783-2.492 1.16-3.854 1.16-3.014-.029-4.608-1.739-4.608-5.014v-8.086h-2.405v-2.666h2.405v-3.391l3.71-.435v3.826h3.564l-.377 2.666h-3.187v7.999c0 1.507.492 2.116 1.623 2.116.58 0 1.159-.174 1.825-.551m15.795-12.23-4.985 15.389c-1.159 3.594-3.42 5.912-7.97 6.26l-.376-2.695c3.043-.464 4.028-1.45 4.898-3.623h-1.276L53.3 185.122h3.94l3.334 12.867 3.478-12.867zm5.883 15.766c.849 0 1.688-.178 2.464-.522l-.783-2.608c-.26.087-.522.145-.87.145-.608 0-.869-.348-.869-1.073v-18.258l-3.71.406v17.968c0 2.522 1.42 3.942 3.768 3.942m17.505-8.463c0 .493-.058 1.101-.087 1.507h-9.622c.26 3.13 1.739 4.144 3.768 4.144 1.362 0 2.492-.434 3.825-1.362l1.536 2.116c-1.507 1.217-3.362 2.058-5.68 2.058-4.753 0-7.303-3.159-7.303-7.999 0-4.666 2.463-8.202 6.81-8.202 4.29 0 6.753 2.898 6.753 7.738m-3.68-.898v-.174c0-2.522-.9-4.029-2.986-4.029-1.739 0-2.84 1.16-3.043 4.203zm16.2-12.955 3.709.406v21.475h-3.275l-.26-1.942c-.928 1.391-2.406 2.377-4.377 2.377-3.825 0-5.825-3.217-5.825-8.086 0-4.724 2.377-8.115 6.173-8.115 1.623 0 2.898.696 3.855 1.652zm-3.159 19.504c1.362 0 2.289-.666 3.159-1.97v-7.014c-.812-.985-1.681-1.623-2.927-1.623-1.913 0-3.188 1.623-3.188 5.304 0 3.941 1.13 5.303 2.956 5.303m-64.85 15.592c-4.406 0-7.159 3.333-7.159 8.231s2.753 7.97 7.188 7.97c1.97 0 3.564-.638 4.955-1.768l-1.652-2.348c-1.13.725-1.941 1.102-3.1 1.102-2.087 0-3.45-1.304-3.45-5.014 0-3.681 1.305-5.246 3.45-5.246 1.159 0 2.086.348 3.1 1.102l1.652-2.232c-1.449-1.246-2.985-1.797-4.984-1.797m13.94 0c4.52 0 7.187 3.072 7.187 8.086 0 4.84-2.695 8.115-7.216 8.115s-7.217-3.072-7.217-8.115c0-4.811 2.696-8.086 7.246-8.086m0 2.811c-2.174 0-3.333 1.652-3.333 5.275 0 3.681 1.13 5.304 3.303 5.304s3.304-1.652 3.304-5.304-1.13-5.275-3.275-5.275m26.923-2.811c-2.029 0-3.449.986-4.608 2.58-.58-1.623-1.913-2.58-3.71-2.58-1.941 0-3.332.899-4.434 2.435l-.29-2h-3.216v15.331h3.71v-10.665c.84-1.42 1.622-2.319 2.926-2.319.899 0 1.681.551 1.681 2.464v10.52h3.71v-10.665c.84-1.42 1.623-2.319 2.898-2.319.927 0 1.68.551 1.68 2.464v10.52h3.71v-11.1c0-2.898-1.623-4.666-4.057-4.666m16.316 0c4 0 5.68 3.159 5.68 8.057 0 4.695-2.173 8.144-6.056 8.144-1.565 0-2.898-.551-3.855-1.681v7.158l-3.71.406v-21.649h3.246l.203 1.884c1.218-1.594 2.84-2.319 4.492-2.319m-1.42 13.361c2.029 0 3.217-1.565 3.217-5.275 0-3.883-1.043-5.304-2.898-5.304-1.304 0-2.405.899-3.13 2.087v6.898c.725 1.072 1.652 1.594 2.811 1.594m17.012-13.361c4.521 0 7.188 3.072 7.188 8.086 0 4.84-2.696 8.115-7.217 8.115s-7.216-3.072-7.216-8.115c0-4.811 2.695-8.086 7.245-8.086m0 2.811c-2.173 0-3.333 1.652-3.333 5.275 0 3.681 1.131 5.304 3.304 5.304s3.304-1.652 3.304-5.304-1.13-5.275-3.275-5.275m18.838-2.811c-1.942 0-3.478.899-4.666 2.435l-.29-2h-3.217v15.331h3.71v-10.665c.898-1.42 1.884-2.319 3.217-2.319 1.159 0 1.884.551 1.884 2.464v10.52h3.709v-11.1c0-2.927-1.594-4.666-4.347-4.666m21.243 7.738c0 .493-.058 1.102-.087 1.507h-9.622c.261 3.13 1.739 4.145 3.768 4.145 1.362 0 2.492-.435 3.825-1.363l1.537 2.116c-1.508 1.217-3.362 2.058-5.681 2.058-4.753 0-7.303-3.159-7.303-7.999 0-4.666 2.463-8.202 6.811-8.202 4.289 0 6.752 2.898 6.752 7.738m-3.68-.898v-.174c0-2.521-.899-4.028-2.986-4.028-1.738 0-2.84 1.159-3.043 4.202zm15.186-6.84c-1.942 0-3.478.899-4.666 2.435l-.29-2h-3.217v15.331h3.71v-10.665c.898-1.42 1.883-2.319 3.216-2.319 1.16 0 1.884.551 1.884 2.464v10.52h3.71v-11.1c0-2.927-1.594-4.666-4.347-4.666m16.142 12.665c-.666.377-1.246.551-1.826.551-1.13 0-1.623-.609-1.623-2.116v-7.999h3.188l.377-2.666h-3.565v-3.826l-3.709.435v3.391h-2.406v2.666h2.406v8.086c0 3.275 1.594 4.985 4.608 5.014 1.362 0 2.753-.377 3.854-1.16zm8.231-12.665c-3.565 0-5.912 1.913-5.912 4.463 0 2.261 1.391 3.768 4.55 4.637 2.869.812 3.477 1.218 3.477 2.493 0 1.159-1.072 1.855-2.724 1.855-1.565 0-2.985-.609-4.173-1.508l-1.855 2.087c1.42 1.275 3.478 2.174 6.115 2.174 3.507 0 6.463-1.681 6.463-4.869 0-2.724-1.768-3.999-4.898-4.84-2.608-.724-3.217-1.188-3.217-2.203 0-.927.841-1.536 2.319-1.536 1.362 0 2.579.435 3.854 1.247l1.449-2.174c-1.449-1.13-3.246-1.826-5.448-1.826M64.242 70.198 35.099 88.313l29.143 18.435-2.98 3.703-30.349-18.998v-6.36l30.672-18.999m152.392 18.274v6.28l-30.349 18.998-2.979-3.944 29.062-18.194-29.062-18.274 2.576-3.945" clip-rule="evenodd"/></g><defs><clipPath id="a"><path fill="#ebebeb" d="M0 0h256v256H0z"/></clipPath></defs></svg>
