<svg xmlns="http://www.w3.org/2000/svg" width="257" height="100" fill="none" viewBox="0 0 257 100"><g clip-path="url(#a)"><mask id="b" width="257" height="100" x="0" y="0" maskUnits="userSpaceOnUse" style="mask-type:luminance"><path fill="#ebebeb" d="M.278 0h256v99.113h-256z"/></mask><g mask="url(#b)"><path fill="#ebebeb" d="M256.278 0H242.14a11.85 11.85 0 0 0-9.796 5.188l-18.91 27.9a1.27 1.27 0 0 1-1.05.556 1.27 1.27 0 0 1-1.049-.555l-18.91-27.897A11.8 11.8 0 0 0 182.632 0h-14.141l33.689 49.698-33.502 49.415h14.142c3.922 0 7.588-1.942 9.789-5.188L211.335 66.3a1.268 1.268 0 0 1 2.102 0l18.722 27.624a11.81 11.81 0 0 0 9.797 5.188h14.138l-33.502-49.415zM139.399 10.138v88.975h6.758a10.136 10.136 0 0 0 10.138-10.138V0h-6.759a10.14 10.14 0 0 0-10.137 10.138M127.001 0h-6.014a14.165 14.165 0 0 0-13.827 11.035L93.704 70.182 81.928 14.97C79.751 4.765 69.278-2.116 58.564.843c-6.823 1.884-11.882 7.65-13.36 14.575L33.548 70.11 20.12 11.039A14.2 14.2 0 0 0 6.286 0H.278L22.82 99.11h8.54a16.42 16.42 0 0 0 16.063-12.998l14.408-67.619a1.844 1.844 0 0 1 1.785-1.447c.853 0 1.608.608 1.785 1.444l14.425 67.625A16.42 16.42 0 0 0 95.889 99.11h8.567z"/></g></g><defs><clipPath id="a"><path fill="#ebebeb" d="M.278 0h256v100h-256z"/></clipPath></defs></svg>
