<svg width="179" height="256" viewBox="0 0 179 256" fill="none"
  xmlns="http://www.w3.org/2000/svg">
  <g>
    <path fill-rule="evenodd" clip-rule="evenodd" d="M126.85 7.70517C128.928 10.2845 129.988 13.7655 132.107 20.7271L178.401 172.808C161.286 163.929 142.678 157.525 123.054 154.07L92.9108 52.2072C92.4176 50.5403 90.8867 49.3969 89.1487 49.3969C87.4062 49.3969 85.8724 50.5463 85.3831 52.2189L55.605 154.018C35.8899 157.458 17.1973 163.873 0.00732422 172.785L46.5298 20.6918C48.6557 13.7423 49.7186 10.2675 51.7968 7.69263C53.6309 5.41955 56.0173 3.65419 58.7273 2.56477C61.7976 1.33081 65.4312 1.33081 72.6985 1.33081H105.927C113.205 1.33081 116.843 1.33081 119.916 2.56738C122.628 3.65902 125.016 5.42791 126.85 7.70517Z" fill="#EBEBEB"/>
    <path fill-rule="evenodd" clip-rule="evenodd" d="M132.39 180.046C124.758 186.572 109.525 191.023 91.9783 191.023C70.4426 191.023 52.3921 184.318 47.6023 175.301C45.8899 180.469 45.5059 186.383 45.5059 190.161C45.5059 190.161 44.3778 208.712 57.2813 221.616C57.2813 214.916 62.7129 209.487 69.413 209.487C80.8971 209.487 80.884 219.504 80.8734 227.634C80.8732 227.877 80.873 228.118 80.873 228.358C80.873 240.697 88.4135 251.272 99.1377 255.732C97.5359 252.438 96.6373 248.737 96.6373 244.828C96.6373 233.061 103.546 228.678 111.574 223.587C117.963 219.535 125.061 215.035 129.952 206.004C132.504 201.292 133.954 195.896 133.954 190.161C133.954 186.635 133.406 183.236 132.39 180.046Z" fill="#FF5D01"/>
    <path fill-rule="evenodd" clip-rule="evenodd" d="M132.39 180.046C124.758 186.572 109.525 191.023 91.9783 191.023C70.4426 191.023 52.3921 184.318 47.6023 175.301C45.8899 180.469 45.5059 186.383 45.5059 190.161C45.5059 190.161 44.3778 208.712 57.2813 221.616C57.2813 214.916 62.7129 209.487 69.413 209.487C80.8971 209.487 80.884 219.504 80.8734 227.634C80.8732 227.877 80.873 228.118 80.873 228.358C80.873 240.697 88.4135 251.272 99.1377 255.732C97.5359 252.438 96.6373 248.737 96.6373 244.828C96.6373 233.061 103.546 228.678 111.574 223.587C117.963 219.535 125.061 215.035 129.952 206.004C132.504 201.292 133.954 195.896 133.954 190.161C133.954 186.635 133.406 183.236 132.39 180.046Z"/>
  </g>
</svg>
