<svg xmlns="http://www.w3.org/2000/svg" width="256" height="221" fill="none" viewBox="0 0 256 221"><g clip-path="url(#a)"><path fill="#007fff" d="M215.771 150.719a7.06 7.06 0 0 0 3.57-6.108l.128-40.912a7.06 7.06 0 0 1 3.57-6.108l22.308-12.739a7.15 7.15 0 0 1 7.104.012A7.06 7.06 0 0 1 256 90.981v74.379a7.06 7.06 0 0 1-3.57 6.129l-84.191 48.073a7.15 7.15 0 0 1-7.068.007L95.1 182.001a7.06 7.06 0 0 1-3.585-6.136v-37.504c0-.042.05-.071.093-.049.035.021.085 0 .085-.05v-.042c0-.028.014-.057.043-.071l54.416-31.077c.049-.029.028-.106-.029-.106a.06.06 0 0 1-.057-.057l.107-36.769a7.06 7.06 0 0 0-3.543-6.143 7.15 7.15 0 0 0-7.124-.007L95.064 87.157a7.15 7.15 0 0 1-7.097 0l-40.57-23.224a7.15 7.15 0 0 0-7.106.005 7.06 7.06 0 0 0-3.554 6.118v66.453a7.06 7.06 0 0 1-3.54 6.118 7.15 7.15 0 0 1-7.099.025L3.585 129.857A7.06 7.06 0 0 1 0 123.706L.2 7.554a7.06 7.06 0 0 1 3.554-6.107 7.15 7.15 0 0 1 7.098-.008l77.122 44.036a7.15 7.15 0 0 0 7.083 0l77.101-44.036a7.15 7.15 0 0 1 7.106.014 7.06 7.06 0 0 1 3.546 6.122v116.181a7.06 7.06 0 0 1-3.562 6.129l-40.378 23.117a7.06 7.06 0 0 0-3.56 6.141 7.06 7.06 0 0 0 3.588 6.125l22.273 12.605a7.15 7.15 0 0 0 7.061-.015zM220.443 46.5a7.06 7.06 0 0 0 3.609 6.147 7.15 7.15 0 0 0 7.158-.088l21.334-12.725a7.06 7.06 0 0 0 3.456-6.06V7.845a7.06 7.06 0 0 0-3.611-6.141 7.15 7.15 0 0 0-7.156.09L223.9 14.517a7.06 7.06 0 0 0-3.457 6.058v25.931z"/></g><defs><clipPath id="a"><path fill="#ebebeb" d="M0 .5h256v220H0z"/></clipPath></defs></svg>
