<svg xmlns="http://www.w3.org/2000/svg" width="256" height="256" fill="none" viewBox="0 0 256 256"><path fill="#3b5bdb" d="M198 128c0 38.66-31.34 70-70 70s-70-31.34-70-70 31.34-70 70-70 70 31.34 70 70m-109.004 0c0 21.541 17.463 39.004 39.004 39.004s39.004-17.463 39.004-39.004S149.541 88.996 128 88.996 88.996 106.459 88.996 128"/><path fill="#3b5bdb" d="M58 128h31v98H58z"/><path fill="#5c7cfa" d="M256 128c0 70.692-57.308 128-128 128S0 198.692 0 128 57.308 0 128 0s128 57.308 128 128m-225.9 0c0 54.069 43.831 97.9 97.9 97.9s97.9-43.831 97.9-97.9-43.831-97.9-97.9-97.9S30.1 73.931 30.1 128"/></svg>