<svg width="257" height="148" viewBox="0 0 257 148" fill="none"
  xmlns="http://www.w3.org/2000/svg">
  <g clip-path="url(#clip0_20_359)">
    <path fill-rule="evenodd" clip-rule="evenodd" d="M148.822 47.1791H171.781V70.5442H183.362C188.644 70.5442 194.13 69.5283 199.209 67.9029C201.647 67.0902 204.492 65.8712 206.93 64.449C203.679 60.1823 202.054 54.8998 201.647 49.6172C201.038 42.5061 202.46 33.1601 207.336 27.6744L209.774 24.8299L212.619 27.0648C219.933 32.9569 225.825 40.8807 227.044 50.2267C235.781 47.5855 245.94 48.195 253.66 52.6648L256.708 54.4934L255.082 57.7442C248.581 70.341 234.968 74.4045 221.762 73.5918C201.851 122.963 158.778 146.328 106.359 146.328C79.3364 146.328 54.5491 136.17 40.3268 112.195L40.1237 111.789L38.0919 107.522C33.2157 96.9569 31.7935 85.376 32.8094 73.795L33.2157 70.341H52.7205V47.1791H75.6792V24.4236H121.393V1.46484H148.822V47.1791Z" fill="#3A4D54"/>
    <path d="M223.184 55.9174C224.809 43.9301 215.869 34.5841 210.181 30.1143C203.882 37.4285 202.866 56.9333 212.822 65.0603C207.133 69.9365 195.552 74.6095 183.362 74.6095H36.6694C35.4504 87.2063 37.6853 98.7873 42.7647 108.743L44.3901 111.79C45.4059 113.619 46.625 115.244 47.844 117.073C53.9393 117.479 59.425 117.683 64.5044 117.479C74.4599 117.276 82.5869 116.057 88.8853 114.025C89.9012 113.619 90.7139 114.229 91.1202 115.041C91.5266 116.057 90.9171 116.87 90.1044 117.276C89.2917 117.479 88.479 117.886 87.4631 118.089C82.5869 119.511 77.3044 120.324 70.5996 120.73H69.3806C66.7393 120.933 63.8948 120.933 60.8472 120.933C57.5964 120.933 54.5488 120.933 50.8917 120.73C63.0821 134.546 82.1806 142.673 106.155 142.673C156.949 142.673 200.022 120.121 218.917 69.7333C232.53 71.1555 245.533 67.7016 251.425 56.1206C242.282 50.6349 230.092 52.4635 223.184 55.9174Z" fill="#00AADA"/>
    <path d="M223.184 55.9174C224.809 43.9301 215.87 34.5841 210.181 30.1143C203.882 37.4285 202.866 56.9333 212.822 65.0603C207.133 69.9365 195.552 74.6095 183.362 74.6095H45.203C44.5934 93.9111 51.7046 108.54 64.5046 117.276C74.4601 117.073 82.5871 115.854 88.8855 113.822C89.9014 113.416 90.7141 114.025 91.1204 114.838C91.5268 115.854 90.9173 116.667 90.1046 117.073C89.2919 117.276 88.4792 117.683 87.4633 117.886C82.5871 119.308 76.8982 120.324 70.1934 120.73L69.9903 120.527C87.2601 129.467 112.251 129.263 141.101 118.292C173.203 105.898 203.273 82.3301 224.2 55.5111C223.793 55.7143 223.387 55.7143 223.184 55.9174Z" fill="#28B8EB"/>
    <path d="M36.8726 89.8467C37.6853 96.5514 39.717 102.85 42.7646 108.742L44.39 111.79C45.4059 113.618 46.6249 115.243 47.844 117.072C53.9392 117.478 59.4249 117.682 64.5043 117.478C74.4599 117.275 82.5868 116.056 88.8853 114.024C89.9011 113.618 90.7138 114.228 91.1202 115.04C91.5265 116.056 90.917 116.869 90.1043 117.275C89.2916 117.478 88.4789 117.885 87.463 118.088C82.5868 119.51 76.8979 120.526 70.1932 120.932H69.3805C66.7392 121.136 63.8948 121.136 61.0503 121.136C57.7995 121.136 54.5487 121.136 51.0948 120.932C63.2853 134.748 82.5868 142.875 106.561 142.875C150.041 142.875 187.831 126.418 209.774 90.0499H36.8726V89.8467Z" fill="#028BB8"/>
    <path d="M46.6251 89.8467C49.2663 101.631 55.3616 110.977 64.5044 117.275C74.46 117.072 82.587 115.853 88.8854 113.821C89.9013 113.415 90.714 114.024 91.1203 114.837C91.5267 115.853 90.9171 116.666 90.1044 117.072C89.2917 117.275 88.479 117.682 87.4632 117.885C82.587 119.307 76.8981 120.323 69.9901 120.729C87.26 129.669 112.25 129.466 140.898 118.494C158.168 111.79 175.031 101.834 190.066 89.8467H46.6251Z" fill="#019BC6"/>
    <path fill-rule="evenodd" clip-rule="evenodd" d="M56.5804 51.0407H76.4915V70.9518H56.5804V51.0407ZM58.2058 52.6661H59.8312V69.1233H58.2058V52.6661ZM61.0502 52.6661H62.6756V69.1233H61.0502V52.6661ZM64.0978 52.6661H65.7232V69.1233H64.0978V52.6661ZM67.1455 52.6661H68.7709V69.1233H67.1455V52.6661ZM70.1931 52.6661H71.8185V69.1233H70.1931V52.6661ZM73.2407 52.6661H74.8661V69.1233H73.2407V52.6661ZM79.3359 28.2852H99.2471V48.1963H79.3359V28.2852ZM81.1645 29.9106H82.7899V46.3677H81.1645V29.9106ZM84.009 29.9106H85.6344V46.3677H84.009V29.9106ZM87.0566 29.9106H88.682V46.3677H87.0566V29.9106ZM90.1042 29.9106H91.7296V46.3677H90.1042V29.9106ZM92.9486 29.9106H94.574V46.3677H92.9486V29.9106ZM95.9963 29.9106H97.6217V46.3677H95.9963V29.9106Z" fill="#00ACD3"/>
    <path fill-rule="evenodd" clip-rule="evenodd" d="M79.3364 51.041H99.2475V70.9521H79.3364V51.041ZM81.1649 52.6664H82.7903V69.1236H81.1649V52.6664ZM84.0094 52.6664H85.6348V69.1236H84.0094V52.6664ZM87.057 52.6664H88.6824V69.1236H87.057V52.6664ZM90.1046 52.6664H91.73V69.1236H90.1046V52.6664ZM92.9491 52.6664H94.5745V69.1236H92.9491V52.6664ZM95.9967 52.6664H97.6221V69.1236H95.9967V52.6664Z" fill="#23C2EE"/>
    <path fill-rule="evenodd" clip-rule="evenodd" d="M102.295 51.041H122.206V70.9521H102.295V51.041ZM103.92 52.6664H105.545V69.1236H103.92V52.6664ZM106.968 52.6664H108.593V69.1236H106.968V52.6664ZM110.015 52.6664H111.641V69.1236H110.015V52.6664ZM112.86 52.6664H114.485V69.1236H112.86V52.6664ZM115.907 52.6664H117.533V69.1236H115.907V52.6664ZM118.955 52.6664H120.58V69.1236H118.955V52.6664Z" fill="#00ACD3"/>
    <path fill-rule="evenodd" clip-rule="evenodd" d="M102.295 28.2852H122.206V48.1963H102.295V28.2852ZM103.92 29.9106H105.545V46.3677H103.92V29.9106ZM106.968 29.9106H108.593V46.3677H106.968V29.9106ZM110.015 29.9106H111.641V46.3677H110.015V29.9106ZM112.86 29.9106H114.485V46.3677H112.86V29.9106ZM115.907 29.9106H117.533V46.3677H115.907V29.9106ZM118.955 29.9106H120.58V46.3677H118.955V29.9106ZM125.253 51.0407H145.165V70.9518H125.253V51.0407ZM126.879 52.6661H128.504V69.1233H126.879V52.6661ZM129.926 52.6661H131.552V69.1233H129.926V52.6661ZM132.771 52.6661H134.396V69.1233H132.771V52.6661ZM135.818 52.6661H137.444V69.1233H135.818V52.6661ZM138.866 52.6661H140.491V69.1233H138.866V52.6661ZM141.914 52.6661H143.539V69.1233H141.914V52.6661Z" fill="#23C2EE"/>
    <path fill-rule="evenodd" clip-rule="evenodd" d="M125.254 28.2852H145.165V48.1963H125.254V28.2852ZM126.879 29.9106H128.504V46.3677H126.879V29.9106ZM129.927 29.9106H131.552V46.3677H129.927V29.9106ZM132.771 29.9106H134.396V46.3677H132.771V29.9106ZM135.819 29.9106H137.444V46.3677H135.819V29.9106ZM138.866 29.9106H140.492V46.3677H138.866V29.9106ZM141.914 29.9106H143.539V46.3677H141.914V29.9106Z" fill="#00ACD3"/>
    <path fill-rule="evenodd" clip-rule="evenodd" d="M125.254 5.32617H145.165V25.2373H125.254V5.32617ZM126.879 6.95157H128.504V23.4087H126.879V6.95157ZM129.927 6.95157H131.552V23.4087H129.927V6.95157ZM132.771 6.95157H134.396V23.4087H132.771V6.95157ZM135.819 6.95157H137.444V23.4087H135.819V6.95157ZM138.866 6.95157H140.492V23.4087H138.866V6.95157ZM141.914 6.95157H143.539V23.4087H141.914V6.95157Z" fill="#23C2EE"/>
    <path fill-rule="evenodd" clip-rule="evenodd" d="M148.212 51.041H168.123V70.9521H148.212V51.041ZM149.838 52.6664H151.463V69.1236H149.838V52.6664ZM152.682 52.6664H154.308V69.1236H152.682V52.6664ZM155.73 52.6664H157.355V69.1236H155.73V52.6664ZM158.777 52.6664H160.403V69.1236H158.777V52.6664ZM161.825 52.6664H163.45V69.1236H161.825V52.6664ZM164.873 52.6664H166.498V69.1236H164.873V52.6664Z" fill="#00ACD3"/>
    <path fill-rule="evenodd" clip-rule="evenodd" d="M98.0284 103.053C101.076 103.053 103.514 105.491 103.514 108.538C103.514 111.586 101.076 114.024 98.0284 114.024C94.9808 114.024 92.5427 111.586 92.5427 108.538C92.5427 105.491 94.9808 103.053 98.0284 103.053Z" fill="#D4EEF1"/>
    <path fill-rule="evenodd" clip-rule="evenodd" d="M98.0284 104.678C98.4348 104.678 99.0443 104.678 99.4507 104.881C99.0443 105.084 98.638 105.693 98.638 106.303C98.638 107.116 99.4507 107.928 100.263 107.928C100.873 107.928 101.482 107.522 101.686 107.116C101.889 107.522 101.889 108.132 101.889 108.538C101.889 110.773 100.06 112.398 98.0284 112.398C95.7935 112.398 94.1681 110.57 94.1681 108.538C94.1681 106.506 95.7935 104.678 98.0284 104.678ZM1.11414 91.8776H255.895C250.409 90.4554 238.422 88.6268 240.251 81.3125C230.092 92.8935 205.914 89.4395 199.616 83.7506C192.708 93.7062 152.886 89.8458 150.244 82.1252C141.711 92.2839 115.095 92.2839 106.562 82.1252C103.717 89.8458 63.8951 93.7062 57.1903 83.7506C51.0951 89.4395 26.7141 92.8935 16.5554 81.3125C18.7903 88.4236 6.59985 90.4554 1.11414 91.8776Z" fill="#3A4D54"/>
    <path d="M112.657 142.671C99.0439 136.17 91.7296 127.433 87.4629 117.884C82.3836 119.306 76.2883 120.322 69.3804 120.728C66.7391 120.931 63.8947 120.931 61.0502 120.931C57.5963 120.931 54.1423 120.931 50.4852 120.728C62.6756 132.919 78.1169 142.468 106.358 142.671H112.657Z" fill="#BFDBE0"/>
    <path d="M92.5424 126.62C90.7138 123.979 88.8852 120.931 87.463 117.884C82.3837 119.306 76.2884 120.322 69.3805 120.728C74.0535 123.166 80.9614 125.604 92.5424 126.62Z" fill="#D4EEF1"/>
  </g>
  <defs>
    <clipPath id="clip0_20_359">
      <rect width="256" height="146.286" fill="#EBEBEB" transform="translate(0.910767 0.856445)"/>
    </clipPath>
  </defs>
</svg>
