<svg width="256" height="256" viewBox="0 0 256 256" fill="none"
  xmlns="http://www.w3.org/2000/svg">
  <path d="M255.078 0.449219H1.74475V253.783H255.078V0.449219Z" fill="#35BDB2"/>
  <path fill-rule="evenodd" clip-rule="evenodd" d="M166.181 88.1086L186.886 62.8419C176.28 54.1054 167.782 48.4763 161.392 45.9544C155.002 43.4326 144.585 41.5975 130.143 40.4492C110.34 41.7672 96.6016 45.8814 88.9276 52.7919C77.7053 62.8977 71.3431 75.688 69.8412 91.1629C71.037 107.636 75.8457 118.576 84.2674 123.982C92.689 129.388 102.982 134.909 115.147 140.544L146.866 155.007C151.034 158.325 152.746 162.348 152.001 167.076C151.256 171.803 148.28 175.149 143.072 177.113C136.939 179.474 132.036 180.654 128.364 180.654C124.692 180.654 117.136 179.474 105.697 177.113L84.2674 163.033L63.0781 189.493C70.9633 196.484 77.3994 201.332 82.3864 204.037C87.3735 206.742 96.9236 209.866 111.037 213.409C121.774 213.907 129.728 213.907 134.9 213.409C140.071 212.911 147.888 211.129 158.351 208.065C167.358 203.441 173.706 199.357 177.396 195.813C181.086 192.269 184.249 187.216 186.886 180.654C189.942 173.691 191.327 166.794 191.041 159.964C190.756 153.135 188.536 145.596 184.382 137.349C178.414 130.175 172.346 124.862 166.181 121.412C160.015 117.962 147.409 112.28 128.364 104.366C120.894 101.966 115.958 99.7664 113.556 97.7667C111.153 95.767 109.579 92.5476 108.833 88.1086C109.568 81.8214 111.673 77.8393 115.147 76.162C118.622 74.4847 125.206 73.6461 134.9 73.6461C141.211 74.0045 146.095 74.8431 149.551 76.162C153.006 77.4809 158.55 81.4631 166.181 88.1086Z" fill="#EBEBEB"/>
</svg>
