<svg width="256" height="256" viewBox="0 0 256 256" fill="none" xmlns="http://www.w3.org/2000/svg">
<g clip-path="url(#clip0_83_2310)">
<path d="M128 0C74.55 0 58.95 0.05 55.9 0.3C44.9 1.2 38.1 2.95 30.65 6.65C24.95 9.5 20.4 12.75 15.95 17.4C7.85 25.85 2.9 36.2 1.15 48.55C0.3 54.55 0.05 55.75 0 86.35V127.95C0 181.35 0.05 196.95 0.3 200C1.2 210.65 2.85 217.4 6.4 224.75C13.15 238.8 26.1 249.35 41.35 253.3C46.65 254.65 52.45 255.4 59.95 255.75C63.1 255.9 95.45 256 127.75 256C160.05 256 192.4 255.95 195.5 255.8C204.15 255.4 209.2 254.7 214.75 253.3C230.1 249.35 242.8 238.95 249.7 224.7C253.2 217.55 254.95 210.55 255.75 200.45C255.9 198.25 256 163.1 256 128C256 92.9 255.9 57.8 255.75 55.6C254.95 45.3 253.2 38.4 249.6 31.1C246.65 25.1 243.4 20.65 238.65 16.1C230.2 8 219.85 3.1 207.5 1.3C201.5 0.45 200.35 0.2 169.75 0.15H128V0Z" fill="url(#paint0_radial_83_2310)"/>
<path d="M128 0C74.55 0 58.95 0.05 55.9 0.3C44.9 1.2 38.1 2.95 30.65 6.65C24.95 9.5 20.4 12.75 15.95 17.4C7.85 25.85 2.9 36.2 1.15 48.55C0.3 54.55 0.05 55.75 0 86.35V127.95C0 181.35 0.05 196.95 0.3 200C1.2 210.65 2.85 217.4 6.4 224.75C13.15 238.8 26.1 249.35 41.35 253.3C46.65 254.65 52.45 255.4 59.95 255.75C63.1 255.9 95.45 256 127.75 256C160.05 256 192.4 255.95 195.5 255.8C204.15 255.4 209.2 254.7 214.75 253.3C230.1 249.35 242.8 238.95 249.7 224.7C253.2 217.55 254.95 210.55 255.75 200.45C255.9 198.25 256 163.1 256 128C256 92.9 255.9 57.8 255.75 55.6C254.95 45.3 253.2 38.4 249.6 31.1C246.65 25.1 243.4 20.65 238.65 16.1C230.2 8 219.85 3.1 207.5 1.3C201.5 0.45 200.35 0.2 169.75 0.15H128V0Z" fill="url(#paint1_radial_83_2310)"/>
<path d="M127.95 33.45C102.3 33.45 99.05 33.55 89 34C78.95 34.45 72.05 36.05 66.05 38.4C59.85 40.8 54.55 44.05 49.3 49.3C44.05 54.55 40.8 59.85 38.4 66.05C36.05 72.05 34.45 78.95 34 89C33.55 99.1 33.45 102.3 33.45 127.95C33.45 153.6 33.55 156.85 34 166.9C34.45 176.95 36.05 183.85 38.4 189.85C40.8 196.05 44.05 201.35 49.3 206.6C54.55 211.85 59.8 215.1 66.05 217.5C72.05 219.85 78.95 221.45 89 221.9C99.1 222.35 102.3 222.45 127.95 222.45C153.6 222.45 156.85 222.35 166.9 221.9C176.95 221.45 183.85 219.85 189.85 217.5C196.05 215.1 201.35 211.85 206.6 206.6C211.85 201.35 215.1 196.05 217.5 189.85C219.8 183.85 221.4 176.95 221.9 166.9C222.35 156.8 222.45 153.6 222.45 127.95C222.45 102.3 222.35 99.05 221.9 89C221.45 78.95 219.85 72.05 217.5 66.05C215.1 59.85 211.85 54.55 206.6 49.3C201.35 44.05 196.1 40.8 189.85 38.4C183.85 36.05 176.95 34.45 166.9 34C156.8 33.55 153.6 33.45 127.95 33.45ZM119.45 50.5H127.95C153.2 50.5 156.15 50.6 166.15 51.05C175.35 51.45 180.35 53 183.7 54.3C188.1 56 191.25 58.05 194.55 61.35C197.85 64.65 199.9 67.8 201.6 72.2C202.9 75.55 204.45 80.55 204.85 89.75C205.3 99.7 205.4 102.7 205.4 127.95C205.4 153.2 205.3 156.15 204.85 166.15C204.45 175.35 202.9 180.35 201.6 183.7C199.9 188.1 197.85 191.25 194.55 194.55C191.25 197.85 188.1 199.9 183.7 201.6C180.35 202.9 175.35 204.45 166.15 204.85C156.2 205.3 153.2 205.4 127.95 205.4C102.7 205.4 99.7 205.3 89.75 204.85C80.55 204.4 75.55 202.9 72.2 201.6C67.8 199.9 64.65 197.85 61.35 194.55C58.05 191.25 56 188.1 54.3 183.7C53 180.35 51.45 175.35 51.05 166.15C50.6 156.2 50.5 153.2 50.5 127.95C50.5 102.7 50.6 99.75 51.05 89.75C51.45 80.55 53 75.55 54.3 72.2C56 67.8 58.05 64.65 61.35 61.35C64.65 58.05 67.8 56 72.2 54.3C75.55 53 80.55 51.45 89.75 51.05C98.45 50.6 101.85 50.5 119.45 50.5ZM178.4 66.2C172.15 66.2 167.05 71.25 167.05 77.55C167.05 83.8 172.15 88.9 178.4 88.9C184.65 88.9 189.75 83.8 189.75 77.55C189.75 71.3 184.65 66.15 178.4 66.2ZM127.95 79.45C101.15 79.45 79.4 101.2 79.4 128C79.4 154.8 101.15 176.5 127.95 176.5C154.75 176.5 176.45 154.8 176.45 128C176.45 101.2 154.75 79.45 127.95 79.45ZM127.95 96.45C145.35 96.45 159.45 110.55 159.45 127.95C159.45 145.35 145.35 159.45 127.95 159.45C110.55 159.45 96.45 145.35 96.45 127.95C96.45 110.55 110.55 96.45 127.95 96.45Z" fill="white"/>
</g>
<defs>
<radialGradient id="paint0_radial_83_2310" cx="0" cy="0" r="1" gradientUnits="userSpaceOnUse" gradientTransform="translate(67.9507 275.629) rotate(-90) scale(253.648 235.975)">
<stop stop-color="#FFDD55"/>
<stop offset="0.1" stop-color="#FFDD55"/>
<stop offset="0.5" stop-color="#FF543E"/>
<stop offset="1" stop-color="#C837AB"/>
</radialGradient>
<radialGradient id="paint1_radial_83_2310" cx="0" cy="0" r="1" gradientTransform="matrix(22.255 111.173 458.384 -91.7844 -42.9367 18.4175)" gradientUnits="userSpaceOnUse">
<stop stop-color="#3771C8"/>
<stop offset="0.128" stop-color="#3771C8"/>
<stop offset="1" stop-color="#6600FF" stop-opacity="0"/>
</radialGradient>
<clipPath id="clip0_83_2310">
<rect width="256" height="256" fill="white"/>
</clipPath>
</defs>
</svg>
