<svg width="256" height="256" viewBox="0 0 256 256" fill="none"
  xmlns="http://www.w3.org/2000/svg">
  <g clip-path="url(#clip0_83_2305)">
    <path d="M179.736 0H76.2638C34.2118 0 0 34.2118 0 76.2638V179.736C0 221.788 34.2118 256 76.2638 256H179.736C221.788 256 256 221.788 256 179.736V76.2638C256 34.2118 221.788 0 179.736 0ZM230.246 179.736C230.246 207.632 207.632 230.246 179.736 230.246H76.2638C48.368 230.246 25.7536 207.632 25.7536 179.736V76.2638C25.7536 48.3675 48.368 25.7536 76.2638 25.7536H179.736C207.632 25.7536 230.246 48.3675 230.246 76.2638V179.736Z" fill="url(#paint0_linear_83_2305)"/>
    <path d="M128 61.7893C91.4914 61.7893 61.7893 91.4914 61.7893 128C61.7893 164.508 91.4914 194.21 128 194.21C164.509 194.21 194.211 164.508 194.211 128C194.211 91.4909 164.509 61.7893 128 61.7893ZM128 168.457C105.656 168.457 87.5429 150.344 87.5429 128C87.5429 105.656 105.656 87.5429 128 87.5429C150.344 87.5429 168.457 105.656 168.457 128C168.457 150.344 150.344 168.457 128 168.457Z" fill="url(#paint1_linear_83_2305)"/>
    <path d="M194.339 78.1518C203.101 78.1518 210.204 71.0486 210.204 62.2864C210.204 53.5241 203.101 46.4209 194.339 46.4209C185.577 46.4209 178.474 53.5241 178.474 62.2864C178.474 71.0486 185.577 78.1518 194.339 78.1518Z" fill="url(#paint2_linear_83_2305)"/>
  </g>
  <defs>
    <linearGradient id="paint0_linear_83_2305" x1="128" y1="255.255" x2="128" y2="1.9884" gradientUnits="userSpaceOnUse">
      <stop stop-color="#E09B3D"/>
      <stop offset="0.3" stop-color="#C74C4D"/>
      <stop offset="0.6" stop-color="#C21975"/>
      <stop offset="1" stop-color="#7024C4"/>
    </linearGradient>
    <linearGradient id="paint1_linear_83_2305" x1="128" y1="255.255" x2="128" y2="1.98843" gradientUnits="userSpaceOnUse">
      <stop stop-color="#E09B3D"/>
      <stop offset="0.3" stop-color="#C74C4D"/>
      <stop offset="0.6" stop-color="#C21975"/>
      <stop offset="1" stop-color="#7024C4"/>
    </linearGradient>
    <linearGradient id="paint2_linear_83_2305" x1="194.339" y1="255.255" x2="194.339" y2="1.9884" gradientUnits="userSpaceOnUse">
      <stop stop-color="#E09B3D"/>
      <stop offset="0.3" stop-color="#C74C4D"/>
      <stop offset="0.6" stop-color="#C21975"/>
      <stop offset="1" stop-color="#7024C4"/>
    </linearGradient>
    <clipPath id="clip0_83_2305">
      <rect width="256" height="256" fill="#EBEBEB"/>
    </clipPath>
  </defs>
</svg>
