<svg width="256" height="256" viewBox="0 0 256 256" fill="none" xmlns="http://www.w3.org/2000/svg">
<path d="M57.6902 256H3.60565V94.3077H57.6902V256ZM30.6479 62.8675C24.4495 62.691 18.4407 60.6981 13.3724 57.1378C8.3041 53.5775 4.40095 48.6078 2.15069 42.8496C-0.0995785 37.0913 -0.597185 30.8 0.720048 24.7615C2.03728 18.7231 5.11094 13.2053 9.55698 8.89774C14.003 4.59016 19.6243 1.68375 25.7184 0.541656C31.8125 -0.600437 38.1092 0.0724374 43.8217 2.4762C49.5343 4.87997 54.4093 8.90804 57.8378 14.0571C61.2663 19.2062 63.0961 25.2479 63.0986 31.4274C62.9562 39.8776 59.463 47.928 53.3823 53.8193C47.3017 59.7106 39.1281 62.9637 30.6479 62.8675ZM256 256H201.915V170.842C201.915 145.331 191.099 136.168 177.037 136.168C172.914 136.442 168.886 137.524 165.184 139.354C161.482 141.183 158.179 143.723 155.466 146.828C152.752 149.933 150.68 153.542 149.37 157.447C148.06 161.352 147.537 165.477 147.831 169.584C147.742 170.42 147.742 171.264 147.831 172.1V256H93.7465V94.3077H146.028V117.663C151.302 109.668 158.547 103.157 167.07 98.7531C175.594 94.349 185.109 92.1997 194.704 92.5111C222.648 92.5111 255.279 107.962 255.279 158.266L256 256Z" fill="black"/>
</svg>
