<svg width="256" height="256" viewBox="0 0 256 256" fill="none" xmlns="http://www.w3.org/2000/svg">
<g clip-path="url(#clip0_71_838)">
<path d="M0 32C0 20.7989 0 15.1984 2.17987 10.9202C4.09734 7.15695 7.15695 4.09734 10.9202 2.17987C15.1984 0 20.7989 0 32 0H224C235.201 0 240.802 0 245.08 2.17987C248.843 4.09734 251.903 7.15695 253.82 10.9202C256 15.1984 256 20.7989 256 32V224C256 235.201 256 240.802 253.82 245.08C251.903 248.843 248.843 251.903 245.08 253.82C240.802 256 235.201 256 224 256H32C20.7989 256 15.1984 256 10.9202 253.82C7.15695 251.903 4.09734 248.843 2.17987 245.08C0 240.802 0 235.201 0 224V32Z" fill="black"/>
<path fill-rule="evenodd" clip-rule="evenodd" d="M96.017 49.0001H41.5L106.137 134.379L45.635 206H73.589L119.35 151.83L159.983 205.502H214.5L147.984 117.642L148.102 117.794L205.373 49.9971H177.419L134.888 100.344L96.017 49.0001ZM71.5925 63.9526H88.5645L184.408 190.549H167.436L71.5925 63.9526Z" fill="white"/>
</g>
<defs>
<clipPath id="clip0_71_838">
<rect width="256" height="256" fill="white"/>
</clipPath>
</defs>
</svg>
