<svg width="256" height="256" viewBox="0 0 256 256" fill="none"
  xmlns="http://www.w3.org/2000/svg">
  <g clip-path="url(#clip0_71_757)">
    <path d="M0 32C0 20.7989 0 15.1984 2.17987 10.9202C4.09734 7.15695 7.15695 4.09734 10.9202 2.17987C15.1984 0 20.7989 0 32 0H224C235.201 0 240.802 0 245.08 2.17987C248.843 4.09734 251.903 7.15695 253.82 10.9202C256 15.1984 256 20.7989 256 32V224C256 235.201 256 240.802 253.82 245.08C251.903 248.843 248.843 251.903 245.08 253.82C240.802 256 235.201 256 224 256H32C20.7989 256 15.1984 256 10.9202 253.82C7.15695 251.903 4.09734 248.843 2.17987 245.08C0 240.802 0 235.201 0 224V32Z" fill="#0A66C2"/>
    <path d="M76.8 217.6H38.4V102.4H76.8V217.6ZM57.6 80C53.1991 79.8742 48.9329 78.4543 45.3344 75.9178C41.7359 73.3812 38.9647 69.8405 37.367 65.7379C35.7693 61.6354 35.416 57.153 36.3512 52.8508C37.2865 48.5487 39.4688 44.6175 42.6254 41.5485C45.7821 38.4795 49.7732 36.4087 54.1 35.595C58.4268 34.7813 62.8975 35.2607 66.9534 36.9733C71.0093 38.6859 74.4706 41.5558 76.9048 45.2243C79.339 48.8928 80.6382 53.1973 80.64 57.6C80.5389 63.6205 78.0587 69.3562 73.7414 73.5535C69.4242 77.7508 63.6209 80.0685 57.6 80ZM217.6 217.6H179.2V156.928C179.2 138.752 171.52 132.224 161.536 132.224C158.609 132.419 155.749 133.19 153.121 134.494C150.492 135.797 148.147 137.607 146.221 139.819C144.294 142.031 142.823 144.602 141.893 147.385C140.963 150.167 140.591 153.106 140.8 156.032C140.736 156.628 140.736 157.228 140.8 157.824V217.6H102.4V102.4H139.52V119.04C143.264 113.344 148.409 108.705 154.46 105.567C160.511 102.429 167.267 100.898 174.08 101.12C193.92 101.12 217.088 112.128 217.088 147.968L217.6 217.6Z" fill="#EBEBEB"/>
  </g>
  <defs>
    <clipPath id="clip0_71_757">
      <rect width="256" height="256" fill="#EBEBEB"/>
    </clipPath>
  </defs>
</svg>
