<svg width="256" height="256" viewBox="0 0 256 256" fill="none"
  xmlns="http://www.w3.org/2000/svg">
  <g clip-path="url(#clip0_81_1396)">
    <path d="M179.736 0H76.2638C34.2118 0 0 34.2118 0 76.2638V179.736C0 221.788 34.2118 256 76.2638 256H179.736C221.788 256 256 221.788 256 179.736V76.2638C256 34.2118 221.788 0 179.736 0ZM230.246 179.736C230.246 207.632 207.632 230.246 179.736 230.246H76.2638C48.368 230.246 25.7536 207.632 25.7536 179.736V76.2638C25.7536 48.3675 48.368 25.7536 76.2638 25.7536H179.736C207.632 25.7536 230.246 48.3675 230.246 76.2638V179.736Z" fill="#EBEBEB"/>
    <path d="M128 61.7893C91.4914 61.7893 61.7893 91.4914 61.7893 128C61.7893 164.508 91.4914 194.21 128 194.21C164.509 194.21 194.211 164.508 194.211 128C194.211 91.4909 164.509 61.7893 128 61.7893ZM128 168.457C105.656 168.457 87.5429 150.344 87.5429 128C87.5429 105.656 105.656 87.5429 128 87.5429C150.344 87.5429 168.457 105.656 168.457 128C168.457 150.344 150.344 168.457 128 168.457Z" fill="#EBEBEB"/>
    <path d="M194.339 78.1519C203.101 78.1519 210.204 71.0487 210.204 62.2864C210.204 53.5242 203.101 46.421 194.339 46.421C185.577 46.421 178.474 53.5242 178.474 62.2864C178.474 71.0487 185.577 78.1519 194.339 78.1519Z" fill="#EBEBEB"/>
  </g>
  <defs>
    <clipPath id="clip0_81_1396">
      <rect width="256" height="256" fill="#EBEBEB"/>
    </clipPath>
  </defs>
</svg>
