<svg width="256" height="206" viewBox="0 0 256 206" fill="none" xmlns="http://www.w3.org/2000/svg">
<path d="M224 0.600037H32C23.5131 0.600037 15.3737 3.97146 9.37258 9.97262C3.37142 15.9738 7.95649e-08 24.1131 0 32.6V173.4C7.95649e-08 181.887 3.37142 190.026 9.37258 196.027C15.3737 202.029 23.5131 205.4 32 205.4H224C232.487 205.4 240.626 202.029 246.627 196.027C252.629 190.026 256 181.887 256 173.4V32.6C256 24.1131 252.629 15.9738 246.627 9.97262C240.626 3.97146 232.487 0.600037 224 0.600037ZM211.904 62.424L135.104 113.624C133.001 115.027 130.529 115.776 128 115.776C125.471 115.776 122.999 115.027 120.896 113.624L44.096 62.424C41.4812 60.4573 39.7188 57.5639 39.1708 54.3382C38.6229 51.1125 39.331 47.7995 41.1497 45.0796C42.9684 42.3598 45.7596 40.4396 48.9499 39.7136C52.1402 38.9877 55.4875 39.511 58.304 41.176L128 87.64L197.696 41.176C200.513 39.511 203.86 38.9877 207.05 39.7136C210.24 40.4396 213.032 42.3598 214.85 45.0796C216.669 47.7995 217.377 51.1125 216.829 54.3382C216.281 57.5639 214.519 60.4573 211.904 62.424Z" fill="white"/>
</svg>
