<svg xmlns="http://www.w3.org/2000/svg" width="512" height="148" fill="none" viewBox="0 0 512 148"><radialGradient id="c" cx="4.207" cy="29.024" r="140.98" gradientUnits="userSpaceOnUse"><stop offset="0" stop-color="#20c4f4"/><stop offset=".305" stop-color="#09b4f0"/><stop offset=".5" stop-color="#00aeef"/><stop offset=".8" stop-color="#0092c8"/><stop offset="1" stop-color="#006e98"/></radialGradient><clipPath id="a"><path d="M.004.857h512v146.286h-512z"/></clipPath><g clip-path="url(#a)"><path fill="#00aeef" d="M166.523 101.945h-19.959c2.583-2.35 3.292-10.802 4.229-26.066l.229-3.52.937-19.959c0-3.99-.471-6.574-1.646-7.515h22.309c5.394 0 15.968.228 15.968 11.273 0 7.515-6.858 11.977-13.152 13.623 8.923.704 15.542 5.165 15.542 14.322.229 9.86-9.156 17.847-24.42 17.847m-.704-27.703h-3.991l-.704 8.457-.471 10.57c0 .47 1.646 1.645 5.394 1.645 7.987 0 13.152-3.99 13.152-10.57.229-7.277-6.107-10.056-13.385-10.056m1.646-22.538c-1.175 0-2.583 0-3.991.23-.704 3.99-.937 7.748-1.175 12.205l-.228 3.291h1.408c7.277 0 13.851-2.583 13.851-9.156.229-3.758-3.054-6.574-9.86-6.574m70.4 50.72c-4.938 0-5.395-.229-9.157-13.623l-1.408-4.937c-2.35 1.175-6.574 1.646-13.152 1.646h-6.857l-1.175 2.582c-1.175 2.583-3.991 7.987-3.991 11.274-.02.867.059 1.733.233 2.583h-13.623c3.758-3.758 8.924-12.915 15.735-27.43l3.991-8.456 7.516-17.614c0-1.175-.229-2.112-.704-3.291h12.443l6.107 22.537 2.35 8.923c4.229 15.269 7.04 22.537 10.332 25.363l-8.686.47m-17.847-44.146-9.394 19.959h15.031zm71.863 46.025c-4.229 0-5.166-.704-6.574-2.583l-16.201-22.08c-1.175-1.828-2.35-3.053-4.229-3.053h-.228l-.229 4.461-.704 14.09c0 3.757.471 6.107 1.646 7.04H249.81c2.35-1.829 3.054-8.458 4.462-26.067l.228-3.52.938-19.959c0-3.99-.471-6.573-1.646-7.515h20.9c7.04 0 16.202 1.175 16.202 12.206 0 9.156-6.108 14.089-13.623 16.439a40 40 0 0 1 2.816 3.29l11.506 15.27c7.278 9.627 7.749 10.057 10.331 11.273a75 75 0 0 1-10.057.704m-20.663-52.366c-1.408 0-3.053 0-4.461.228-.471 2.35-.704 6.574-1.175 13.386l-.229 3.99c.704.23 1.829.23 2.583.23 7.04 0 11.977-4.463 11.977-10.803-.228-4.462-3.291-7.04-8.685-7.04m50.998 51.122c-14.793 0-23.245-12.206-23.245-25.6 0-18.743 10.331-33.582 29.824-33.582 6.107 0 8.923 1.175 14.089 1.175l-1.408 14.56c-2.816-5.166-7.516-8.457-13.623-8.457-12.206 0-17.143 13.152-17.143 24.42 0 12.206 7.04 19.018 15.968 19.018 4.937 0 9.394-1.175 16.672-6.34-3.054 8.923-9.86 14.792-21.134 14.792m100.503-.704c-4.937 0-5.165-.228-9.156-13.623l-1.408-4.937c-2.35 1.175-6.574 1.646-13.152 1.646h-7.04l-1.175 2.583c-1.829 3.758-3.991 8.22-3.991 11.273 0 .704.229 1.646.229 2.583h-40.389c2.35-2.583 3.054-11.036 4.229-26.066l.228-3.52.937-19.96c0-3.757-.471-6.34-1.408-7.515h15.735c-2.35 1.646-3.054 10.803-3.991 26.067l-.228 3.52-1.175 16.905c0 2.583.937 3.291 3.758 3.291 9.627 0 11.739-.228 16.201-3.054 2.816-4.937 5.636-11.035 8.685-17.37l3.991-8.458 7.516-17.614c0-1.175-.229-2.112-.704-3.291h12.397l6.108 22.537 2.35 8.923c4.228 15.269 6.857 22.537 10.569 25.363-3.037.4-6.094.635-9.157.704m-17.847-44.147-9.156 19.96h14.793zm53.541 12.915-3.991 7.515c-.937 4.229-1.175 9.86-1.175 15.968 0 2.583.471 6.107 1.646 7.278h-15.543c2.816-2.583 3.758-18.318 3.758-23.484-2.112-7.04-4.937-14.089-9.157-22.537-2.816-5.166-5.87-10.057-7.986-11.035l10.057-.471c3.758 0 4.937.47 7.278 5.637l7.986 19.254 10.057-16.2c.704-1.409 1.646-3.292 1.646-4.938 0-1.175-.229-2.816-.704-3.291h15.268c-3.291.704-16.438 21.604-19.254 26.3m51.657-12.915c-2.35-4.229-7.516-7.516-13.152-7.516-4.937 0-9.157 1.829-9.157 7.04 0 4.462 5.394 7.278 11.036 11.036 6.107 3.757 12.443 8.457 12.443 16.672 0 10.569-10.331 17.371-22.537 17.371-4.937 0-10.057-.937-15.968-3.053l.937-14.09c2.816 5.637 7.986 10.057 15.735 10.057 5.87 0 10.569-2.816 10.569-7.986 0-4.228-3.52-7.04-7.986-9.627-9.395-5.637-15.269-10.057-15.269-18.318 0-12.206 10.057-16.201 20.901-16.201 6.107 0 10.057 1.175 13.851 1.175z"/><path fill="url(#c)" d="M123.972 34.558c-1.252-2.926-3.337-6.263-7.095-8.764-1.668-1.252-3.757-2.505-5.842-3.337-1.668-.457-3.337-.836-5.426-.836h-.457c-2.505 0-7.095.457-9.6 4.173-1.253 1.253-1.669 3.758-1.253 5.843.457 1.668 1.669 3.337 3.337 3.757.351.29.798.438 1.253.416 0 .457-.457 1.253-.457 1.253-1.253 1.252-3.337 3.337-9.6 3.337h-.457c-3.338-.457-5.843-1.252-9.6-5.01-2.09-2.505-3.338-7.095-3.338-14.19 0-3.758-.457-6.674-1.252-9.143-.457-1.668-2.09-3.337-3.337-4.174-1.248-.836-2.09-1.252-4.174-2.089l-7.095-.836c-2.505 0-4.174.457-5.01 1.668h-2.505c-1.253 0-2.926.457-4.174.457-2.505.458-4.174 1.669-5.842 2.926-.457.457-2.09 2.09-2.505 3.758 0 1.253.457 2.505.457 2.926l.457.457c.836-.837 2.505-1.253 4.59-1.253 2.925 0 7.094 1.253 7.931 3.337 2.09 3.337 1.253 5.843 1.253 8.764-1.253 7.931-4.174 11.689-10.437 12.526-1.253.457-2.505.457-3.337.457-4.59 0-7.932-1.253-9.6-4.174v-.837s.457 0 .836-.457c1.669-.836 2.926-2.089 3.337-3.757.458-2.09 0-4.174-1.252-5.843-2.505-2.505-5.842-4.173-9.6-4.173-2.505 0-4.174.457-5.842.836-5.01 1.253-9.6 5.426-12.937 12.105-2.506 5.01-4.174 10.853-4.59 17.532s-.457 12.105 0 17.11c.457 8.348 2.089 13.358 4.174 18.743 2.084 5.386 4.57 10.437 7.497 15.04.836 1.253 1.252 2.505 2.089 3.337l.457-.457c.457-.457.836-.836 1.252-1.668 1.67-1.253 4.59-5.426 5.427-6.674s2.089-3.338 2.926-5.427l.457-.836.836.457c.837.836 1.253 2.089 1.253 3.337s-.457 2.505-1.253 5.01c-.836 2.926-2.505 6.263-4.174 9.6.458.457.458 1.253 0 1.253-1.252 2.089-1.252 2.925-1.252 3.757h.457c.457 0 2.09-.457 3.337-1.668 1.253-.837 4.59-3.758 8.764-9.6 3.337-4.174 5.426-8.763 7.931-13.774l.457-.836.837.457c.457.457.836.457 1.252.836.457.837.457 2.09.457 3.338-.457 3.337-2.505 7.931-3.757 11.268-2.505 5.842-7.095 12.105-10.437 16.695a1.92 1.92 0 0 1-1.252 1.252c.457.458.836.837 1.668 1.253l1.253 1.253a84.7 84.7 0 0 0 14.19 9.6c4.173 2.505 12.525 6.674 18.363 8.347 5.842-1.253 14.19-5.842 18.363-8.347a84.7 84.7 0 0 0 14.19-9.6l1.253-1.253c.836-.457 1.252-1.253 1.668-1.253.457-.836.457-1.252.457-1.668l-.457-.457c-3.337-4.174-7.931-10.853-10.436-16.695-1.253-3.337-3.337-7.931-3.758-11.269-.457-1.252 0-2.505.457-3.337l.837-.836c.457-.457 1.252-.457 1.252-.457l.457.836c2.505 5.01 5.01 9.6 7.932 13.774 4.174 5.842 7.511 8.763 8.763 9.6 1.253 1.252 2.505 1.668 3.337 1.668h.458c.457-.457 0-1.252-1.253-3.337-.457-.457-.457-.836-.457-1.252-1.669-3.338-3.337-6.675-4.174-9.6q-1.253-3.757-1.252-5.01c0-1.253.457-2.506 1.252-3.338l.837-.457.457.837c.836 2.089 2.505 4.59 3.337 5.842s4.174 5.01 5.01 6.263c.837.836 1.253 1.252 1.253 1.668l.457.457c.457-.457.837-1.252 1.669-2.925l.457-.457c2.505-4.174 5.01-9.6 7.095-15.027 2.089-5.01 3.337-10.436 4.173-18.742.457-5.01.837-10.437 0-17.111.457-6.263-1.252-12.526-3.337-17.111z"/></g></svg>