<svg xmlns="http://www.w3.org/2000/svg" width="386" height="134" fill="none" viewBox="0 0 386 134"><clipPath id="a"><path d="M.82 0h385v134H.82z"/></clipPath><g clip-path="url(#a)"><path fill="#a6ce39" d="M282.093 39.642h19.742v19.82h-19.742zM282.093 0h19.742v19.82h-19.742z"/><g fill="#006452"><path fill-rule="evenodd" d="M.82 85.765c0-26.759 20.37-46.123 45.355-46.123h46.642v92.246h-22.07l-2.888-11.83S58.147 134 41.522 134C14.87 134 .82 112.523.82 85.765m24.899 0c0 14.963 8.767 26.23 22.62 26.23h19.52V59.534H50.661c-13.852 0-24.942 11.267-24.942 26.23" clip-rule="evenodd"/><path d="M262.351 39.642v19.716h-19.417v72.53h-24.898v-72.53h-14.699V39.642h25.171c-8.4-5.815-11.262-17.117-6.307-26.071C227.298 4.36 236.807 0 249.246 0h13.105v19.888H242.76v19.754zM161.158 37.529c-19.184 0-27.748 13.943-27.748 13.943l-2.887-11.83h-22.011v92.245h24.898V59.534h21.085c11.046 0 15.606 7.643 15.606 18.382v53.971h24.898V74.322c0-22.005-11.748-36.793-33.841-36.793"/><path fill-rule="evenodd" d="M286.302 83.499c-2.553 0-4.635 1.98-4.635 4.714s1.436 4.93 4.16 4.93c1.699 0 2.691-1.425 2.691-1.425l.159 1.209h2.392v-9.428zm.221 7.395c-1.415 0-2.312-1.152-2.312-2.68 0-1.53 1.134-2.682 2.549-2.682h1.758v5.362z" clip-rule="evenodd"/><path d="M337.578 130.014c.94 0 1.846-.484 2.306-1.355l1.739 1.584c-.843 1.216-2.248 2.018-4.045 2.018-3.008 0-4.924-2.247-4.924-4.924s1.916-4.925 4.924-4.925c1.614 0 2.914.649 3.772 1.664l-1.651 1.641c-.493-.683-1.294-1.058-2.121-1.058-1.343 0-2.381.989-2.381 2.678s1.038 2.677 2.381 2.677M361.441 132.227a5.44 5.44 0 0 1-2.989-.866 4.7 4.7 0 0 1-.963-.785l1.411-1.486c.148.161.349.32.611.482.384.25 1.029.55 1.93.55.865 0 1.304-.275 1.304-.817 0-.493-.706-.73-1.599-1.031h-.001c-1.393-.469-3.3-1.11-3.3-3.004 0-1.36 1.155-2.823 3.694-2.823.991 0 1.905.246 2.718.73.3.174.582.386.838.631l-1.415 1.49a2.7 2.7 0 0 0-.492-.337c-.32-.186-.868-.409-1.649-.409-.818 0-1.108.387-1.108.718 0 .493.706.731 1.6 1.032 1.393.468 3.3 1.111 3.3 3.003 0 .803-.344 1.53-.97 2.046-.694.573-1.704.876-2.92.876"/><path fill-rule="evenodd" d="M346.963 127.243c0-2.736 2.082-4.715 4.635-4.715h4.767v9.428h-2.392l-.159-1.209s-.992 1.425-2.692 1.425c-2.724 0-4.159-2.195-4.159-4.929m2.545 0c0 1.529.895 2.68 2.311 2.68h1.995v-5.362h-1.757c-1.416 0-2.549 1.152-2.549 2.682M288.877 127.242c0-2.735 2.082-4.715 4.635-4.715h4.767v9.429h-2.392l-.159-1.209s-.992 1.425-2.692 1.425c-2.723 0-4.159-2.196-4.159-4.93m2.545 0c0 1.529.896 2.681 2.311 2.681h1.995v-5.363h-1.757c-1.416 0-2.549 1.152-2.549 2.682" clip-rule="evenodd"/><path d="M314.41 123.62c.552-.469 1.717-1.309 2.977-1.309 2.259 0 3.459 1.512 3.459 3.761v5.884h-2.544v-5.517c0-1.097-.466-1.878-1.595-1.878h-1.863c.136.452.204.959.204 1.511v5.884h-2.545v-5.517c0-1.097-.387-1.878-1.516-1.878h-1.706v7.395h-2.545v-9.428h2.387l.158 1.208s.849-1.425 2.387-1.425c1.276 0 2.189.484 2.742 1.309M345.358 122.537h-2.542v9.413h2.542zM342.548 119.958c0-.899.644-1.546 1.539-1.546s1.539.647 1.539 1.546-.644 1.528-1.539 1.528-1.539-.629-1.539-1.528"/><path fill-rule="evenodd" d="M367.61 107.541c0-2.735 2.082-4.714 4.636-4.714h4.767v9.427h-2.393l-.157-1.209s-.994 1.425-2.692 1.425c-2.724 0-4.161-2.195-4.161-4.929m2.545 0c0 1.529.897 2.681 2.312 2.681h1.996v-5.362h-1.758c-1.416 0-2.55 1.152-2.55 2.681" clip-rule="evenodd"/><path d="M330.494 83.51h2.542v9.413h-2.542zM331.765 79.385c-.894 0-1.539.647-1.539 1.546s.645 1.527 1.539 1.527c.895 0 1.54-.628 1.54-1.527 0-.9-.645-1.546-1.54-1.546"/><path fill-rule="evenodd" d="M334.389 88.213c0-2.735 2.082-4.714 4.636-4.714h4.766v9.428h-2.392l-.158-1.209s-.993 1.425-2.692 1.425c-2.724 0-4.16-2.195-4.16-4.93m2.544 0c0 1.53.896 2.681 2.312 2.681h1.996v-5.362h-1.758c-1.416 0-2.55 1.151-2.55 2.681M355.002 88.213c0-2.735 2.082-4.714 4.635-4.714h4.767v9.428h-2.392l-.159-1.209s-.992 1.425-2.691 1.425c-2.724 0-4.16-2.195-4.16-4.93m2.545 0c0 1.53.896 2.681 2.311 2.681h1.995v-5.362h-1.757c-1.416 0-2.549 1.151-2.549 2.681M309.63 88.311l-.001.01v-.04l.001.01v.004c.01-2.723 2.111-4.904 4.827-4.904 2.717 0 4.82 2.185 4.827 4.91v-.02.04-.02c-.007 2.726-2.11 4.91-4.827 4.91s-4.817-2.181-4.827-4.904zm4.827 2.65c1.392-.016 2.274-1.151 2.282-2.66-.008-1.508-.89-2.644-2.282-2.66-1.393.016-2.274 1.152-2.283 2.66.009 1.509.89 2.644 2.283 2.66m0 0h-.013l-.009.001h-.008.059-.017zm-2.283-2.66v-.02.04-.02m2.283-2.66h.025l.004-.001h-.059.015l.009.001zm2.282 2.66.001.02v-.04l-.001.007v.006zM375.067 88.305c-.009 2.724-2.111 4.906-4.828 4.906s-4.818-2.183-4.827-4.906v.016-.04.017c.009-2.724 2.111-4.907 4.827-4.907 2.717 0 4.819 2.183 4.828 4.907v-.016.04-.014zm-2.546-.004c-.007 1.509-.889 2.644-2.282 2.66h.013l.009.001h.007-.057.009l.013-.001h.006c-1.392-.016-2.274-1.151-2.281-2.66l-.001.01v.01-.04l.001.02c.007-1.508.889-2.644 2.281-2.66h-.024l-.004-.001h.057-.014l-.006.001h-.009c1.393.016 2.275 1.152 2.282 2.66m0 0 .001-.004v-.016.04-.011z" clip-rule="evenodd"/><path d="M296.262 93.191a5.45 5.45 0 0 1-2.989-.865 4.6 4.6 0 0 1-.962-.786l1.41-1.486c.149.162.349.32.612.482.383.25 1.029.55 1.929.55.865 0 1.304-.275 1.304-.817 0-.492-.706-.73-1.598-1.03l-.002-.001c-1.393-.469-3.3-1.11-3.3-3.003 0-1.36 1.156-2.824 3.694-2.824a5.23 5.23 0 0 1 2.718.73q.453.264.838.632l-1.415 1.49a2.7 2.7 0 0 0-.492-.338c-.32-.186-.867-.41-1.649-.41-.818 0-1.108.388-1.108.72 0 .493.707.73 1.6 1.031 1.393.469 3.3 1.11 3.3 3.003 0 .804-.343 1.53-.969 2.046-.695.573-1.705.876-2.921.876M304.91 93.191a5.45 5.45 0 0 1-2.989-.865 4.7 4.7 0 0 1-.963-.786l1.41-1.486c.149.162.35.32.613.482.382.25 1.028.55 1.929.55.865 0 1.304-.275 1.304-.817 0-.492-.705-.73-1.599-1.03l-.001-.001c-1.393-.469-3.301-1.11-3.301-3.003 0-1.36 1.156-2.824 3.695-2.824.991 0 1.906.246 2.718.73q.452.264.837.632l-1.415 1.49a2.7 2.7 0 0 0-.491-.338c-.32-.186-.868-.41-1.649-.41-.818 0-1.108.388-1.108.72 0 .493.706.73 1.6 1.031 1.393.469 3.301 1.11 3.301 3.003 0 .804-.345 1.53-.971 2.046-.694.573-1.704.876-2.92.876M381.93 112.411a5.45 5.45 0 0 1-2.99-.866 4.7 4.7 0 0 1-.962-.785l1.411-1.486c.148.161.349.32.611.482.383.25 1.029.551 1.93.551.865 0 1.303-.276 1.303-.818 0-.493-.706-.73-1.599-1.031l-.001-.001c-1.393-.468-3.3-1.11-3.3-3.003 0-1.36 1.156-2.823 3.694-2.823.992 0 1.906.245 2.719.73q.452.262.837.631l-1.415 1.49a2.7 2.7 0 0 0-.492-.337c-.32-.187-.867-.409-1.649-.409-.817 0-1.107.387-1.107.718 0 .493.706.731 1.6 1.032 1.393.468 3.3 1.11 3.3 3.003 0 .803-.345 1.53-.97 2.046-.695.572-1.704.876-2.92.876M327.362 89.644c-.46.87-1.367 1.355-2.307 1.355-1.342 0-2.38-.988-2.38-2.678s1.038-2.678 2.38-2.678c.828 0 1.629.376 2.122 1.059l1.651-1.643c-.858-1.014-2.158-1.663-3.773-1.663-3.007 0-4.922 2.247-4.922 4.924 0 2.679 1.915 4.926 4.922 4.926 1.797 0 3.203-.803 4.046-2.02zM332.941 102.616c-1.959 0-2.833 1.424-2.833 1.424l-.295-1.208h-2.249v9.42h2.544v-7.389h2.153c1.128 0 1.593.781 1.593 1.878v5.511h2.543v-5.879c0-2.247-1.2-3.757-3.456-3.757M287.47 102.493c-1.959 0-2.834 1.424-2.834 1.424l-.295-1.208h-2.247v9.421h2.542v-7.389h2.153c1.129 0 1.594.781 1.594 1.877v5.512h2.543v-5.879c0-2.247-1.2-3.758-3.456-3.758M312.811 102.839h2.542v9.412h-2.542zM314.081 98.714c-.895 0-1.539.647-1.539 1.546 0 .898.644 1.527 1.539 1.527.896 0 1.54-.629 1.54-1.527 0-.9-.644-1.546-1.54-1.546M351.456 98.773h-2.542v13.479h2.542z"/><path fill-rule="evenodd" d="M292.079 107.541c0-2.735 2.082-4.714 4.636-4.714h4.766v9.427h-2.392l-.158-1.209s-.993 1.425-2.692 1.425c-2.724 0-4.16-2.195-4.16-4.929m2.545 0c0 1.529.896 2.681 2.312 2.681h1.995v-5.362h-1.758c-1.415 0-2.549 1.152-2.549 2.681M337.605 107.541c0-2.735 2.083-4.714 4.636-4.714h4.767v9.427h-2.392l-.158-1.209s-.994 1.425-2.692 1.425c-2.724 0-4.161-2.195-4.161-4.929m2.545 0c0 1.529.896 2.681 2.313 2.681h1.995v-5.362H342.7c-1.416 0-2.55 1.152-2.55 2.681M316.688 107.558v-.037l.001.01v.004c.01-2.723 2.112-4.905 4.828-4.905s4.819 2.185 4.826 4.911v-.02.04-.02c-.007 2.725-2.109 4.91-4.826 4.91s-4.818-2.181-4.828-4.904zm4.829-2.677c1.392.016 2.274 1.151 2.281 2.66v-.012l.001-.008v.04l-.001-.006v-.014c-.007 1.508-.889 2.643-2.281 2.659h.006l.006.001.01.001h.007-.059l.013-.001h.004l.013-.001c-1.393-.016-2.275-1.151-2.283-2.659l-.001.02v-.038.004l.001.004v.01c.008-1.509.89-2.644 2.283-2.66m0 0 .013-.001h.016-.059z" clip-rule="evenodd"/><path d="M309.946 108.863c-.459.871-1.366 1.355-2.306 1.355-1.342 0-2.38-.988-2.38-2.677s1.038-2.678 2.38-2.678c.828 0 1.628.375 2.122 1.058l1.65-1.641c-.858-1.016-2.157-1.664-3.772-1.664-3.007 0-4.922 2.247-4.922 4.925s1.915 4.924 4.922 4.924c1.797 0 3.203-.802 4.045-2.019z"/><path fill-rule="evenodd" d="M364.095 99.14v3.687h-2.217c-2.554 0-4.635 1.979-4.635 4.714 0 2.734 1.436 4.929 4.16 4.929 1.699 0 2.692-1.425 2.692-1.425l.157 1.21h2.394V99.14zm0 11.082h-1.996c-1.415 0-2.312-1.152-2.312-2.681s1.134-2.681 2.55-2.681h1.758z" clip-rule="evenodd"/><path d="m354.204 91.226-1.739-1.582c-.46.87-1.366 1.355-2.306 1.355-1.343 0-2.381-.988-2.381-2.678s1.038-2.677 2.381-2.677c.827 0 1.628.375 2.122 1.058l1.65-1.642c-.857-1.015-2.157-1.664-3.772-1.664-3.007 0-4.923 2.248-4.923 4.925 0 2.284 1.402 4.242 3.678 4.771l-.579 1.163.565.662.132-.037.038-.01c.074-.02.174-.047.301-.047.434 0 .661.15.661.473s-.227.473-.661.473c-.376 0-.715-.094-.942-.227a1.6 1.6 0 0 1-.376-.246l-.566 1.136c.151.132.339.265.546.378.359.208.867.378 1.528.378 1.337 0 2.072-.738 2.072-1.798 0-.813-.414-1.23-.81-1.457a1.8 1.8 0 0 0-.791-.246l.255-.448c1.734-.039 3.096-.826 3.917-2.013M357.308 82.356c0-1.987.829-2.838 2.017-2.838.725 0 1.16.333 1.538.622.291.223.547.419.874.419.377 0 .659-.284.659-1.041h1.603c0 1.987-.849 2.838-1.979 2.838-.733 0-1.145-.291-1.513-.55-.295-.208-.56-.396-.937-.396-.378 0-.661.284-.661.946zM305.605 122.536a5 5 0 0 0-.261-.008c-1.961 0-2.598 1.425-2.598 1.425l-.261-1.425h-2.284v9.428h2.545v-7.179h2.598zM329.776 118.489l-1.432 3.073h-2.291l1.091-3.073z"/><path fill-rule="evenodd" d="M326.539 122.528c-2.554 0-4.636 1.979-4.636 4.715 0 2.734 1.437 4.929 4.161 4.929 1.698 0 2.692-1.425 2.692-1.425l.157 1.209h2.393v-9.428zm.221 7.395c-1.415 0-2.312-1.151-2.312-2.68s1.134-2.682 2.549-2.682h1.759v5.362z" clip-rule="evenodd"/><path d="M288.152 122.487v2.024h-1.994v7.445h-2.556v-7.445h-1.508v-2.024h2.583c-.862-.597-1.155-1.758-.647-2.676.523-.946 1.499-1.393 2.776-1.393h1.346v2.041h-2.012v2.028z"/></g></g></svg>