<svg xmlns="http://www.w3.org/2000/svg" width="441" height="126" fill="none" viewBox="0 0 441 126">
  <clipPath id="a">
    <path d="M.51.404h440v125.191H.51z"/>
  </clipPath>
  <g clip-path="url(#a)">
    <path fill="#ebebeb" fill-rule="evenodd" d="m127.02 124.644-30.31-53.81v53.81H56.59V1.356h47.075l26.942 48.246V1.356h40.047v123.288zM279.372 88.99h-53.078V37.01h53.078V.624h-62.01c-31.334 0-37.411 17.131-37.411 39.534v45.977c0 27.234 10.323 39.168 39.754 39.168h59.667zm161.065 35.654V1.356H375.06l-10.909 44.732-13.398-44.732h-62.156v123.288h40.413V61.755l16.912 62.889h33.823l16.912-63.401v63.401zm-439.268-.293h46.197V52.238c-3.88 2.855-8.64 4.539-13.764 4.539-12.739 0-23.135-10.323-23.135-23.135s10.396-23.135 23.135-23.135c5.198 0 9.957 1.684 13.764 4.54V1.21H1.096V124.35z" clip-rule="evenodd"/>
  </g>
</svg>
