<svg xmlns="http://www.w3.org/2000/svg" width="501" height="94" fill="none" viewBox="0 0 501 94">
  <clipPath id="a">
    <path d="M.82.5h500v93H.82z"/>
  </clipPath>
  <mask id="b" width="501" height="91" x="0" y="1" maskUnits="userSpaceOnUse">
    <path fill="#ebebeb" d="M.82 1.46V91.27h499.186V1.46z"/>
  </mask>
  <g clip-path="url(#a)" mask="url(#b)">
    <path fill="#038895" d="M.82 90.304V25.686h14.95v51.435H43.65v13.186zm102.994-9.457c-4.613 6.603-13.095 10.396-23.276 10.396-10.273 0-18.787-3.857-23.354-10.58-3.303-4.92-4.84-11.711-4.84-21.369V25.686h14.95V58.76c0 14.165 3.43 18.948 13.61 18.948 9.716 0 13.498-5.29 13.498-18.855V25.686h14.439v33.248c0 10.244-1.553 17.001-5.029 21.913zm12.216 9.46 30.372-51.444h-27.093V25.69h51.831l-30.378 51.435h29.122V90.31zm130.008-19.394c0 12.37-9.261 20.359-23.593 20.359-6.7 0-14.36-1.735-19.988-4.528l-.262-.134V71.352l.742.474c6.738 4.36 14.738 6.26 19.68 6.26 3.134 0 8.395-.814 8.395-6.286 0-4.505-3.889-5.647-9.779-7.373a136 136 0 0 1-4.023-1.221c-8.425-2.778-17.041-7.178-17.041-18.751 0-11.994 8.954-19.745 22.811-19.745 6.82 0 14.352 1.784 19.657 4.644l.253.145v14.938l-.741-.459c-6.739-4.2-14.541-6.08-19.282-6.08-3.5 0-7.675.96-7.675 5.502 0 4.214 3.614 5.28 9.082 6.888l4.134 1.279c9.156 3.016 17.633 7.451 17.633 19.35zm55.864 19.394-5.093-13.369h-25.012l-5.203 13.369H251.21l26.25-64.62h14.186l26.25 64.62zm-9.681-25.285-2.395-6.48a990 990 0 0 1-5.442-15.145l-5.622 15.502-2.305 6.123zm81.207 15.854c-4.616 6.603-13.099 10.396-23.268 10.396-10.267 0-18.779-3.857-23.343-10.58-3.302-4.92-4.843-11.711-4.843-21.369V25.715h14.951V58.79c0 14.165 3.43 18.948 13.584 18.948 9.727 0 13.518-5.29 13.518-18.855V25.715h14.427v33.248c0 10.224-1.549 16.987-5.029 21.913zm85.32 9.46v-64.62h41.261v13.173h-26.293v12.852h21.811v12.57h-21.811v12.84h26.293v13.185zm-66.852-.012V65.9h14.418v13.328h15.774v-13.32h13.933V50.138h-13.933V36.82h-15.744v13.317h-14.419V25.715h25.75c16.89 0 31.163 14.787 31.163 32.289 0 17.815-14.492 32.317-32.297 32.317zm-48.823-72.656 7.878-16.15h14.201l-7.849 16.15z"/>
  </g>
</svg>
