<svg xmlns="http://www.w3.org/2000/svg" width="513" height="162" fill="none" viewBox="0 0 513 162"><clipPath id="a"><path d="M.423.697h512v160.606h-512z"/></clipPath><g clip-path="url(#a)"><path fill="#e61d2b" d="M359.092 13.025s-9.597 3.821-20.76 16.124-17.664 26.138-12.852 29.817c1.848 1.399 6.11 1.665 13.843-5.327a61.1 61.1 0 0 0 16.365-22.692c4.994-12.178 3.404-17.772 3.404-17.905m61.091 22.117c-12.403-6.36-21.468-14.15-30.899-18.97-8.998-4.62-14.817-6.552-22.092-5.578q-1.524.272-2.997.75s3.746 12.794-11.163 34.287c-15.1 21.792-28.801 21.642-32.697 15.657-4.079-6.318 1.191-19.195 9.989-30.657 9.215-11.987 25.397-21.926 25.397-21.926s-5.161-3.155-17.83 4.029c-12.361 6.975-33.638 23.624-53.383 51.7-19.745 28.078-23.657 43.528-26.487 55.689s-.258 25.189 13.227 25.189 29.184-20.569 33.613-27.719c8.232-13.319 13.601-33.746 2.397-30.941-5.519 1.382-9.989 7.491-12.811 13.377a57.3 57.3 0 0 0-4.062 11.82 46.6 46.6 0 0 0-10.929 6.36 81 81 0 0 0-10.372 9.156s.05-9.722 7.799-25.455 21.976-22.916 30.034-23.59c7.258-.583 16.706 5.576 8.699 28.301s-31.632 50.353-56.446 50.694c-22.9.317-37.883-28.909-6.01-79.911 35.277-56.346 76.656-73.635 90.092-75.558s17.805 4.004 17.805 4.004a57.8 57.8 0 0 1 25.547-4.212c16.406 1.107 29.092 12.719 45.841 20.876-4.354 4.162-8.508 8.533-12.254 12.628m73.702-18.97c-11.371 7.291-27.103 13.9-42.22 12.486-3.829 3.954-7.924 8.532-12.028 13.526 26.213 5.186 49.179-11.054 61.39-24.88A81.5 81.5 0 0 0 512.423.947a102.3 102.3 0 0 1-18.538 15.242M458.982 90.04a5.8 5.8 0 0 0 .483-1.09 2.65 2.65 0 0 0-2.406-2.298c-2.497-.116-5.902.358-14.834 10.247a134.5 134.5 0 0 0-18.987 26.937c-5.111 9.34-7.184 16.299-4.245 18.097a4.24 4.24 0 0 0 3.096.316c1.99-.474 4.246-2.339 7.675-6.31 1.607-1.864 3.388-4.503 5.519-7.425 5.91-8.041 20.76-33.355 23.699-38.474m-92.781 10.755c1.49-3.896 3.388-11.546-.558-14.55-4.237-3.189-15.041 4.294-15.1 11.97-.074 7.857 7.609 11.412 9.448 11.911 1.049.283 1.415.242 1.923-.599a70 70 0 0 0 4.287-8.732m-8.174 14.292a32.6 32.6 0 0 1-7.425-4.736 23.8 23.8 0 0 1-5.561-6.768c-.15-.249-.299-.058-.466.167-.166.225-.832.832-6.593 9.273-5.76 8.441-14.608 25.93-6.601 28.91 5.128 1.906 13.66-7.076 18.313-13.028a111 111 0 0 0 8.599-13.085c.242-.508 0-.624-.258-.733m90.833 20.203c-2.173 3.479-4.653 10.155 2.497 6.002 8.749-5.053 21.21-23.957 21.21-23.957h5.652a189.5 189.5 0 0 1-17.131 22.475c-8.865 9.822-19.678 18.746-27.295 17.864-8.898-1.041-6.11-12.72-6.11-12.72s-12.727 13.552-21.534 12.578c-11.895-1.315-8.266-16.016-8.266-16.016s-13.452 16.507-22.617 15.999c-14.367-.832-10.754-18.313-6.759-30.624 2.14-6.584 4.121-11.754 4.121-11.754s-1.424.375-4.487.833c-1.598.224-4.512.391-4.512.391s-5.985 10.555-10.771 16.898-25.131 28.21-37.101 23.832c-11.071-4.046-7.408-20.994-.965-34.462 9.406-19.637 35.86-47.847 51.118-44.118 15.816 3.838.358 32.697.358 32.697s0 .109.167.183c.316.117 1.14.209 3.046-.166a34 34 0 0 0 5.785-1.723s15.9-33.297 33.463-55.08c17.564-21.785 52.601-59.302 66.352-50.229 3.33 2.231 1.831 9.915-2.697 19.238a62 62 0 0 1-6.21 1.664c3.03-5.502 5.036-10.138 5.636-13.377C473.89.464 447.611 24.205 428.832 49.71a354 354 0 0 0-30.05 48.638 82.4 82.4 0 0 0 9.689-6.918 277 277 0 0 0 23.84-22.259 260 260 0 0 0 20.295-23.424 55 55 0 0 0 5.968-.616 257 257 0 0 1-22.392 26.454c-7.492 7.576-15.599 15.725-22.642 21.643a189 189 0 0 1-19.861 14.759s-16.423 33.122-7.492 35.244c5.253 1.265 15.625-14.709 15.625-14.709s13.535-20.652 21.692-29.966c11.13-12.653 20.711-19.978 30.284-20.111 5.577-.1 8.865 5.826 8.865 5.826l2.622-4.062h16.149s-30.159 51.177-32.573 55.031m45.034-119.052c-11.371 7.292-27.103 13.902-42.22 12.487-3.829 3.954-7.925 8.532-12.028 13.526 26.212 5.186 49.179-11.054 61.39-24.88A81.5 81.5 0 0 0 512.423.947a102.3 102.3 0 0 1-18.538 15.241M267.094 41.294h-15.358l-8.682 14.026h15.358zm-72.719 48.571c6.534-8.957 24.564-40.347 24.564-40.347a2.635 2.635 0 0 0-2.397-2.297c-2.497-.117-6.659.724-14.925 11.07s-14.684 18.58-19.362 27.146c-5.128 9.348-7.367 15.941-4.42 17.73a4.38 4.38 0 0 0 3.088.317c1.914-.483 4.42-2.406 7.858-6.36 1.615-1.848 3.446-4.337 5.594-7.259m-82.409-42.453c-4.245-3.205-15.042 4.295-15.1 11.954-.067 7.866 9.714 10.272 10.979 10.33a1.9 1.9 0 0 0 1.074-.225c.226-.132.406-.329.516-.566a74 74 0 0 0 3.097-6.942c1.49-3.896 3.38-11.546-.566-14.55m-6.401 27.079a35.8 35.8 0 0 1-8.325-3.83 17.33 17.33 0 0 1-5.943-6.584c-.15-.25-.316-.058-.466.167-.15.224-1.016 1.306-6.793 9.78-5.776 8.474-14.334 25.805-6.318 28.785 5.111 1.94 13.744-7.117 18.43-13.044a154 154 0 0 0 9.706-14.534c.191-.507 0-.624-.283-.715m125.428 5.194h5.627s-28.194 40.788-44.118 38.89c-8.89-1.04-6.251-12.012-6.251-12.012s-12.486 14.618-23.957 11.654c-10.405-2.672-3.688-19.978-3.688-19.978-1.182.475-23.698 25.855-39.523 19.77-16.556-6.393-7.957-27.644-4.811-34.037 2.672-5.386 5.627-10.63 5.627-10.63s-2.539.716-4.162 1.082-3.971.832-3.971.832-7.833 12.728-12.619 19.08-25.13 28.176-37.117 23.831-9.015-21.118-2.281-34.437c10.921-21.6 36.834-48.146 52.442-44.118 15.766 4.021 2.714 29.593 2.714 29.593s3.138.408 10.655-4.72c10.821-7.384 25.105-27.245 40.571-24.914 7.292 1.099 14.085 8.549 4.795 22.7-2.963 4.545-7.933 8.607-11.737 4.586-2.372-2.497-.3-7.05 2.189-10.163a9.75 9.75 0 0 1 8.324-3.813s2.556-5.827-3.945-5.744c-5.261.1-18.58 12.362-26.096 24.748-6.893 11.37-17.34 30.741-6.851 34.961 9.614 3.879 27.911-17.838 36.385-29.217s27.785-37.167 43.984-38.2c5.577-.366 8.899 4.72 8.899 4.72l1.873-2.963h16.198s-30.508 50.91-32.888 54.764c-1.873 3.013-4.362 9.789 2.497 5.994s21.235-22.26 21.235-22.26m-8.815 81.576a67.1 67.1 0 0 0-40.705-11.878 24.97 24.97 0 0 0-19.862 10.763c-6.176-10.78-18.388-17.398-37.267-17.248-30.508.35-60.766 14.418-84.74 14.401-22.974 0-39.73-14.442-39.19-40.089C1.43 72.226 39.463 31.696 67.849 13.458 84.213 2.978 97.898-.135 106.847.872c6.526.724 14.375 8.266 9.422 19.379-7.275 16.24-17.322 14.908-16.947 7.142.208-5.053 3.571-8.233 6.101-9.99 1.607-1.106 4.445-1.423 5.927-1.456 1.44-1.215 2.497-10.105-9.157-7.184s-25.804 14.41-39.24 29.251S28.6 80.908 23.431 110.368c-2.414 13.659-.833 38.574 31.556 38.291 27.47-.225 67.958-18.314 105.167-17.939 14.443.142 27.012 4.037 36.81 10.081 9.622 5.926 21.159 14.583 25.255 20.494"/></g></svg>