<svg xmlns="http://www.w3.org/2000/svg" width="421" height="202" fill="none" viewBox="0 0 421 202">
  <clipPath id="a">
    <path d="M0 .115h420.423v201.77H0z"/>
  </clipPath>
  <g clip-path="url(#a)">
    <path fill="#b3db18" d="M.13.34v40.196h30.008V141.03h40.146l7.538-25.121h45.163l7.53 25.121V.34zm100.268 40.196 10.541 35.169H89.862z"/>
    <g fill-rule="evenodd" clip-rule="evenodd">
      <path fill="#ed1c24" d="M170.665 40.537h30.109c5.546 0 10.039 4.5 10.039 10.05 0 5.553-4.493 10.041-10.039 10.041h-30.109zM130.514.34h70.26c27.722 0 50.194 22.492 50.194 50.247 0 27.747-22.472 50.25-50.194 50.25h-30.109v40.189h-40.151z"/>
      <path fill="#66c430" d="M30.137 141.026h40.149V40.537H100.4V.34H70.286z"/>
      <path fill="#ba151b" d="M130.514 141.026h40.153L130.514.34z"/>
      <path fill="#cbd5e1" d="M245.239 170.681c-8.974 0-15.65 6.575-15.65 15.975 0 8.757 6.289 15.236 15.261 15.236h.046c8.566 0 15.674-5.907 15.674-15.933 0-8.731-6.096-15.278-15.331-15.278m114.262.23c-11.688 0-17.924 7.437-17.924 15.508 0 4.414 1.652 8.368 4.382 10.923 3.231 3.036 7.423 4.334 12.64 4.334 4.781 0 8.659-1.171 10.564-1.87v-14.293h-10.854v3.197h6.829v8.699c-1.108.556-3.172.96-6.185.96-8.168 0-13.103-5.032-13.103-12.124 0-6.949 5.024-12.01 13.506-12.01 3.525 0 5.845.631 7.713 1.47l1.047-3.24c-1.422-.662-4.61-1.554-8.615-1.554m-175.089.038c-2.936 0-6.174.264-8.453.68l-.654.119v29.608h5.62v-11.448h3.639c3.356.145 4.791 1.481 5.687 5.29.785 3.329 1.308 5.13 1.673 6.158h5.91c-.549-1.298-1.211-3.852-2.087-7.248l-.166-.652c-.679-2.586-1.884-4.503-3.523-5.644 2.617-1.3 4.976-3.85 4.976-7.8 0-2.521-.999-4.81-2.723-6.27-2.166-1.932-5.218-2.793-9.899-2.793m30.56 0c-3.547 0-6.273.273-8.325.609v29.798h4.046v-11.992c1.045.288 2.305.351 3.688.351 4.177 0 7.672-1.102 9.896-3.29 1.656-1.568 2.511-3.827 2.511-6.539 0-2.71-1.09-4.888-2.773-6.338-1.902-1.646-4.881-2.599-9.043-2.599m56.993 0c-2.986 0-6.166.272-8.314.666v29.741h4.031v-13.04h4.467c3.716.161 5.456 1.779 6.426 5.902.896 3.793 1.611 6.28 2.101 7.138h4.202c-.664-1.252-1.419-4.247-2.515-8.494-.746-2.84-2.21-5.029-4.53-5.877v-.109c3.196-.991 5.955-3.656 5.955-7.659 0-2.354-.962-4.414-2.454-5.675-1.965-1.753-4.849-2.593-9.369-2.593m-130.909.258-10.645 30.149h6.04l2.883-8.742h10.751l3.102 8.742h6.32l-10.967-30.149zm22.189 0v30.149h5.754v-30.149zm122.563 0v3.36h10.394v26.789h4.074v-26.789h10.44v-3.36zm27.292 0v16.992c0 9.997 5.215 13.692 11.897 13.692 7.224 0 12.63-4.028 12.63-13.784v-16.9h-4.071v17.099c0 7.05-3.3 10.349-8.353 10.349-4.663 0-8.025-3.202-8.025-10.349v-17.099zm69.955 0-11.36 30.149h4.269l3.484-9.616h12.007l3.642 9.616h4.407l-11.48-30.149zm18.819 0v30.149h18.419v-3.395h-14.356v-26.754zm-156.801 2.681c7.334 0 11.165 6.132 11.165 12.265 0 7.154-4.29 12.53-11.236 12.53h-.05c-6.852 0-11.115-5.635-11.115-12.159 0-6.755 3.891-12.636 11.236-12.636m27.143.17c4.235 0 7.519 1.535 7.519 5.591 0 3.415-2.775 5.637-7.239 5.637h-4.814v-10.835c.737-.184 2.25-.393 4.534-.393m-57.251.049c4.411 0 7.774 1.694 7.774 5.977 0 4.07-3.038 6.419-8.202 6.419-1.511 0-2.816-.109-3.844-.411v-11.641c.768-.151 2.251-.344 4.272-.344m170.393.446h.084c.481 1.554.943 3.121 1.663 5.035l3.444 9.015h-10.217l3.441-9.096c.638-1.775 1.119-3.368 1.585-4.954m-240.825.885h.088c.497 1.644 1.029 3.45 1.676 5.28l2.745 7.598h-8.697l2.67-7.634c.585-1.752 1.056-3.583 1.518-5.244m40.134.213c3.066 0 6.723.829 6.723 4.79 0 2.985-2.471 4.844-6.448 4.844h-4.017v-9.386c.683-.111 1.892-.248 3.742-.248"/>
    </g>
  </g>
</svg>
