<svg xmlns="http://www.w3.org/2000/svg" width="373" height="176" fill="none" viewBox="0 0 373 176">
  <clipPath id="a">
    <path d="M.51.17h372.31v175.66H.51z"/>
  </clipPath>
  <g clip-path="url(#a)">
    <path fill="#9a906b" fill-rule="evenodd" d="M86.639 129.902v28.999l20.71 16.651v.01H26.106v-.01l20.71-16.651v-28.999c3.292 3.985 7.038 7.315 11.131 9.835.494.224 1.031.338 1.574.334 1.006 0 1.897-.371 2.429-.934.674-1.021 1.68-1.602 2.634-1.401 1.227.258 1.966 1.721 1.803 3.399h.682c-.163-1.678.576-3.14 1.803-3.399.954-.201 1.96.38 2.635 1.399.53.565 1.423.936 2.428.936.578 0 1.117-.123 1.573-.334 4.093-2.52 7.838-5.85 11.13-9.835m0-90.042V17.117L107.349.465V.457H26.106v.009l20.71 16.652V39.86a49 49 0 0 0 7.843-3.934q1.517-.933 2.966-1.97c1.037 1.791 3.178 2.932 5.187 2.634 1.892-.28 3.1-1.752 3.093-3.523L65.904 33a4 4 0 0 0-.031-.423h1.71a4 4 0 0 0-.032.423v.066c-.007 1.772 1.202 3.244 3.092 3.523 2.008.298 4.15-.843 5.188-2.633q1.448 1.036 2.965 1.969a49 49 0 0 0 7.843 3.934M22.928 53.143h-4.881L1.395 32.433h-.009v81.243h.009l16.652-20.71h14.937c-1.099-14.881-4.687-28.54-10.056-39.823m87.597 0h5.633l16.651-20.71h.008v81.243h-.008l-16.651-20.71h-15.689c1.101-14.881 4.688-28.54 10.056-39.823" clip-rule="evenodd"/>
    <path fill="#cd3529" fill-rule="evenodd" d="M81.539 135.22v25.992l12.302 9.891H39.613l12.303-9.891V135.22a42.4 42.4 0 0 0 6.031 4.515c.494.225 1.03.339 1.573.335 1.006 0 1.897-.371 2.43-.934.674-1.021 1.68-1.602 2.634-1.401 1.227.258 1.965 1.721 1.802 3.399h.683c-.163-1.678.575-3.14 1.802-3.399.955-.201 1.96.38 2.636 1.399.53.565 1.423.936 2.428.936.577 0 1.116-.123 1.572-.335a42 42 0 0 0 6.031-4.515m0-97.717V14.808L93.84 4.916H39.613l12.303 9.891v22.696a51 51 0 0 0 2.743-1.577q1.517-.933 2.966-1.97c1.036 1.791 3.178 2.932 5.187 2.634 1.892-.28 3.099-1.752 3.092-3.524v-.065a4 4 0 0 0-.031-.423h1.71a4 4 0 0 0-.032.423v.065c-.008 1.773 1.202 3.244 3.091 3.524 2.009.298 4.15-.843 5.188-2.633a52 52 0 0 0 5.708 3.546M25.167 58.242h-9.43L5.845 45.94v54.228l9.89-12.303h16.77c-1.23-10.767-3.769-20.797-7.338-29.623m83.119 0h10.182l9.891-12.302v54.228l-9.891-12.302h-17.52c1.229-10.768 3.769-20.798 7.338-29.624" clip-rule="evenodd"/>
    <path fill="#9a906b" fill-rule="evenodd" d="M74.047 140.069v23.44h-14.64v-23.44q.055.002.112.002c1.007 0 1.898-.371 2.43-.935.674-1.02 1.68-1.601 2.634-1.4 1.227.258 1.965 1.721 1.803 3.399h.682c-.163-1.678.575-3.14 1.802-3.399.955-.201 1.96.38 2.636 1.399.53.565 1.423.936 2.428.936zm0-104.27v-23.29h-14.64v23.289c1.015.65 2.231.965 3.404.791 1.892-.28 3.099-1.752 3.092-3.523V33a4 4 0 0 0-.031-.423h1.71a4 4 0 0 0-.032.423v.066c-.008 1.772 1.201 3.244 3.091 3.523 1.172.174 2.39-.142 3.406-.79M27.855 65.732H13.438v14.642h17.981a115 115 0 0 0-3.564-14.642m77.742 0h15.169v14.642h-18.732a115 115 0 0 1 3.563-14.642" clip-rule="evenodd"/>
    <path fill="#ebebeb" fill-rule="evenodd" d="M69.193 137.698v20.365h-4.935v-20.365q.162.006.324.039c1.228.257 1.966 1.72 1.803 3.398h.682c-.162-1.678.576-3.14 1.803-3.398q.162-.035.323-.039m0-101.623V17.957h-4.935v18.118c1.037-.635 1.65-1.746 1.645-3.01V33a4 4 0 0 0-.032-.423h1.71a4 4 0 0 0-.032.423v.066c-.005 1.263.608 2.373 1.644 3.009M29.265 70.587h-10.38v4.935h11.576q-.542-2.48-1.196-4.935m74.922 0h11.129v4.935h-12.324q.548-2.507 1.195-4.935" clip-rule="evenodd"/>
    <path fill="#cd3529" fill-rule="evenodd" d="M67.581 32.578h-1.71q.028.213.031.423l.001.065c.007 1.773-1.2 3.244-3.092 3.524-2.009.298-4.151-.843-5.187-2.634a52 52 0 0 1-2.966 1.97c-9.513 5.857-19.406 7.773-23.71 4.923l-2.163-1.162-8.23 8.833c7.938 14.356 12.785 33.37 12.785 54.179 0 4.86-.265 9.624-.771 14.253a31.3 31.3 0 0 1 11.834 9.816h.012c3.827 5.391 8.406 9.815 13.53 12.968.495.224 1.032.338 1.574.334 1.006 0 1.897-.371 2.429-.934.675-1.02 1.68-1.601 2.635-1.4 1.227.257 1.965 1.72 1.802 3.398h.683c-.163-1.678.575-3.14 1.802-3.398.955-.201 1.96.38 2.636 1.398.53.565 1.422.936 2.428.936.577 0 1.116-.122 1.572-.334 5.126-3.153 9.703-7.577 13.531-12.968h.013a31.3 31.3 0 0 1 11.835-9.816 131 131 0 0 1-.773-14.253c0-20.808 4.846-39.823 12.785-54.18l-8.23-8.832-2.163 1.162c-4.303 2.85-14.196.934-23.71-4.924q-1.516-.933-2.964-1.969c-1.038 1.79-3.179 2.932-5.188 2.634-1.89-.28-3.099-1.752-3.091-3.524v-.065q.004-.21.03-.423" clip-rule="evenodd"/>
    <path fill="#9a906b" fill-rule="evenodd" d="M78.307 52.737c3.537 1.577 7.734 1.98 11.563 2.002 1.552-.002 3.088-.114 4.638-.21l4.43 5.033-1.483 4.695c-2.503 8.44-4.125 16.951-5.016 25.708-.53 5.68-.74 11.386-.627 17.09.046 1.885.134 3.764.215 5.649l-2.69 1.756c-3.547 2.494-6.27 5.785-8.557 9.44-1.317 2.166-3.245 3.88-5.394 5.196-2.668 1.526-5.574 2.349-8.658 2.301-5.074.079-9.698-2.153-12.98-5.981l-1.875-2.764c-2.21-3.27-4.789-6.182-8.073-8.405l-2.373-1.542.168-4.03-1.03-22.747c-.965-7.37-2.455-14.545-4.568-21.67l-1.481-4.696 4.428-5.033c1.445.09 2.875.192 4.32.209 3.962.02 8.496-.395 12.122-2.116.473-.238.906-.5 1.399-.7 3.205-1.215 6.97-1.075 9.941.739 2.97-1.814 6.736-1.954 9.943-.74.57.233 1.082.553 1.638.816" clip-rule="evenodd"/>
    <path fill="#ebebeb" fill-rule="evenodd" d="M66.727 58.16a7.26 7.26 0 0 1 8.56-2.239c3.065 1.827 8.456 3.043 14.574 3.043.967 0 1.918-.03 2.843-.09l1.482 1.684c-4.254 13.114-6.638 27.778-6.638 43.237q.001 3.368.15 6.682c-4.09 2.61-7.763 6.623-10.802 11.676-2.253 3.042-5.87 5.019-9.938 5.019q-.118 0-.232-.002-.116.002-.232.002c-4.066 0-7.685-1.977-9.939-5.019-3.037-5.052-6.711-9.066-10.801-11.676q.148-3.313.15-6.682c0-15.46-2.384-30.123-6.636-43.237l1.481-1.684q1.389.09 2.843.09c6.118 0 11.508-1.216 14.575-3.043a7.27 7.27 0 0 1 8.56 2.24" clip-rule="evenodd"/>
    <path fill="#335da3" fill-rule="evenodd" d="M61.48 83.389h10.494v12.608c0 2.175-2.359 3.949-5.247 3.949-2.89 0-5.247-1.774-5.247-3.95z" clip-rule="evenodd"/>
    <path fill="#ebebeb" fill-rule="evenodd" d="M69.766 97.505a1.64 1.64 0 0 1-1.638-1.638 1.64 1.64 0 0 1 1.638-1.636 1.64 1.64 0 0 1 1.638 1.636 1.64 1.64 0 0 1-1.638 1.638m-6.079 0a1.64 1.64 0 0 1-1.638-1.636 1.64 1.64 0 0 1 1.638-1.638 1.64 1.64 0 0 1 1.638 1.638 1.64 1.64 0 0 1-1.638 1.636m3.04-8.146a1.64 1.64 0 0 1 1.637 1.636 1.64 1.64 0 0 1-1.637 1.638 1.64 1.64 0 0 1-1.638-1.638 1.64 1.64 0 0 1 1.638-1.636m3.04-4.871a1.64 1.64 0 0 1 1.637 1.637 1.64 1.64 0 0 1-1.638 1.638 1.64 1.64 0 0 1-1.638-1.638c0-.902.737-1.637 1.638-1.637m-6.08 3.275a1.64 1.64 0 0 1-1.638-1.638c0-.902.736-1.638 1.638-1.638s1.638.736 1.638 1.638a1.64 1.64 0 0 1-1.638 1.638" clip-rule="evenodd"/>
    <path fill="#335da3" fill-rule="evenodd" d="M74.114 83.39H84.61V96c0 2.173-2.359 3.949-5.246 3.949-2.89 0-5.248-1.775-5.248-3.95z" clip-rule="evenodd"/>
    <path fill="#ebebeb" fill-rule="evenodd" d="M82.401 97.507c-.9 0-1.636-.737-1.636-1.638s.735-1.638 1.636-1.638c.904 0 1.638.736 1.638 1.638s-.735 1.638-1.638 1.638m-6.079 0a1.64 1.64 0 0 1-1.637-1.638 1.64 1.64 0 0 1 1.637-1.636 1.639 1.639 0 0 1 1.157 2.793c-.306.307-.722.48-1.157.48m3.041-8.148c.902 0 1.636.737 1.636 1.638s-.734 1.638-1.636 1.638c-.903 0-1.638-.737-1.638-1.638s.735-1.638 1.638-1.638m3.038-4.87c.904 0 1.638.736 1.638 1.637a1.64 1.64 0 0 1-1.638 1.637 1.64 1.64 0 0 1-1.636-1.637 1.64 1.64 0 0 1 1.636-1.638m-6.079 3.274a1.64 1.64 0 0 1-1.637-1.637 1.64 1.64 0 0 1 1.637-1.638 1.64 1.64 0 0 1 1.636 1.638 1.64 1.64 0 0 1-1.636 1.637" clip-rule="evenodd"/>
    <path fill="#335da3" fill-rule="evenodd" d="M48.846 83.39h10.493V96c0 2.173-2.357 3.949-5.246 3.949s-5.247-1.775-5.247-3.95z" clip-rule="evenodd"/>
    <path fill="#ebebeb" fill-rule="evenodd" d="M57.132 97.507c-.901 0-1.637-.737-1.637-1.638s.736-1.638 1.637-1.638c.902 0 1.638.736 1.638 1.638s-.736 1.638-1.638 1.638m-6.08 0a1.64 1.64 0 0 1-1.638-1.638 1.64 1.64 0 0 1 1.638-1.636 1.64 1.64 0 0 1 1.638 1.636 1.64 1.64 0 0 1-1.638 1.638m3.04-8.148c.902 0 1.638.737 1.638 1.638s-.736 1.638-1.638 1.638-1.638-.737-1.638-1.638.737-1.638 1.638-1.638m3.04-4.87c.902 0 1.638.736 1.638 1.637a1.64 1.64 0 0 1-1.638 1.637 1.64 1.64 0 0 1-1.637-1.637c0-.9.736-1.638 1.637-1.638m-6.08 3.274a1.64 1.64 0 0 1-1.638-1.637c0-.9.737-1.638 1.638-1.638.902 0 1.638.737 1.638 1.638a1.64 1.64 0 0 1-1.638 1.637" clip-rule="evenodd"/>
    <path fill="#335da3" fill-rule="evenodd" d="M61.48 63.126h10.494v12.608c0 2.175-2.359 3.949-5.247 3.949-2.89 0-5.247-1.775-5.247-3.949z" clip-rule="evenodd"/>
    <path fill="#ebebeb" fill-rule="evenodd" d="M69.766 77.242c-.901 0-1.638-.736-1.638-1.638s.737-1.637 1.638-1.637c.903 0 1.638.736 1.638 1.637s-.736 1.638-1.638 1.638m-6.079 0a1.64 1.64 0 0 1-1.638-1.638c0-.9.736-1.638 1.638-1.638s1.638.736 1.638 1.638a1.64 1.64 0 0 1-1.638 1.638m3.04-8.147a1.64 1.64 0 0 1 1.637 1.638 1.64 1.64 0 0 1-1.637 1.638 1.64 1.64 0 0 1-1.638-1.638 1.64 1.64 0 0 1 1.638-1.638m3.04-4.87a1.64 1.64 0 0 1 1.637 1.637 1.64 1.64 0 0 1-1.638 1.638 1.64 1.64 0 0 1-1.638-1.638 1.64 1.64 0 0 1 1.638-1.638m-6.08 3.274a1.64 1.64 0 0 1-1.638-1.638 1.64 1.64 0 0 1 1.638-1.638c.901 0 1.638.736 1.638 1.638a1.64 1.64 0 0 1-1.638 1.638" clip-rule="evenodd"/>
    <path fill="#335da3" fill-rule="evenodd" d="M61.48 103.655h10.494v12.608c0 2.175-2.359 3.951-5.247 3.951-2.89 0-5.247-1.775-5.247-3.951z" clip-rule="evenodd"/>
    <path fill="#ebebeb" fill-rule="evenodd" d="M69.766 117.773c-.901 0-1.638-.737-1.638-1.638s.737-1.638 1.638-1.638c.903 0 1.638.737 1.638 1.638s-.736 1.638-1.638 1.638m-6.079 0c-.902 0-1.638-.737-1.638-1.638s.736-1.638 1.638-1.638 1.638.737 1.638 1.638-.737 1.638-1.638 1.638m3.04-8.148a1.64 1.64 0 0 1 1.637 1.636c0 .904-.736 1.64-1.637 1.64a1.64 1.64 0 0 1-1.638-1.64 1.64 1.64 0 0 1 1.638-1.636m3.04-4.871a1.64 1.64 0 0 1 1.637 1.638c0 .901-.735 1.638-1.638 1.638a1.64 1.64 0 0 1-1.638-1.638c0-.903.737-1.638 1.638-1.638m-6.08 3.276a1.64 1.64 0 0 1-1.638-1.638 1.64 1.64 0 0 1 1.638-1.638c.901 0 1.638.735 1.638 1.638a1.64 1.64 0 0 1-1.638 1.638" clip-rule="evenodd"/>
    <path fill="#9a906b" fill-rule="evenodd" d="M79.087 30.283q.533.345 1.08.683c9.799 6.033 20 7.886 24.082 4.652l2.139-1.445 12.224 13.116c-8.32 14.482-13.427 33.953-13.427 55.315 0 5.701.364 11.269 1.057 16.644a31.27 31.27 0 0 0-14.012 12.114c-3.85 5.335-8.443 9.704-13.575 12.805v-.029c-1.309.825-3.12 1.337-5.115 1.337-1.192 0-2.319-.183-3.31-.505v-.009c-1.17-.376-2.128-1.132-2.667-2.089a5 5 0 0 1-.402-1.145c-.423-1.916.339-3.703 1.708-3.991.955-.201 1.96.38 2.636 1.399.53.565 1.423.936 2.428.936.577 0 1.116-.123 1.572-.335 5.126-3.153 9.703-7.577 13.531-12.967h.013a31.3 31.3 0 0 1 11.835-9.816 131 131 0 0 1-.773-14.254c0-20.808 4.847-39.823 12.785-54.18l-8.23-8.832-2.162 1.162c-4.304 2.85-14.197.934-23.71-4.923q-1.516-.933-2.965-1.97c-1.038 1.791-3.179 2.932-5.188 2.634-1.89-.28-3.099-1.752-3.091-3.524v-.065a4.2 4.2 0 0 1 .212-1.222c.738-2.274 3.197-3.86 5.504-3.57 2.221.413 4.21 1.133 5.821 2.074m-24.722.001q-.535.348-1.078.682c-9.8 6.033-20.002 7.887-24.083 4.653l-2.14-1.446L14.84 47.289c8.319 14.482 13.427 33.953 13.427 55.315 0 5.703-.364 11.269-1.057 16.644a31.3 31.3 0 0 1 14.012 12.114c3.85 5.335 8.443 9.706 13.575 12.807v-.029c1.31.823 3.12 1.335 5.116 1.335 1.19 0 2.317-.183 3.309-.505v-.009c1.17-.376 2.129-1.132 2.667-2.089.169-.336.303-.708.394-1.105l.008-.04c.423-1.914-.34-3.703-1.708-3.991-.955-.201-1.961.38-2.635 1.4-.53.564-1.423.935-2.429.935a3.8 3.8 0 0 1-1.573-.335c-5.125-3.153-9.703-7.577-13.531-12.967h-.012a31.3 31.3 0 0 0-11.835-9.816c.508-4.629.772-9.393.772-14.254 0-20.808-4.847-39.823-12.785-54.18l8.23-8.832 2.162 1.162c4.305 2.85 14.198.934 23.71-4.923q1.518-.933 2.967-1.97c1.036 1.791 3.177 2.932 5.187 2.634 1.891-.28 3.099-1.752 3.092-3.523V33a4.2 4.2 0 0 0-.212-1.222c-.739-2.274-3.197-3.86-5.506-3.57-2.221.413-4.211 1.133-5.821 2.075" clip-rule="evenodd"/>
    <path fill="#9a906b" fill-rule="evenodd" d="m53.74 50.012-1.393-9.82 4.978-.707.244 1.726-3.512.498.32 2.26 3.074-.436.245 1.726-3.074.436.582 4.11zm5.838-.828-.28-1.972 1.436-.203.279 1.972zm16.136-.167 1.657-9.78 4.958.839-.292 1.72-3.499-.594-.38 2.25 3.06.52-.29 1.718-3.06-.519-.695 4.092zm5.814.985.332-1.964 1.43.242-.333 1.964zM68.54 42.07c0-1.019-.443-1.448-1.166-1.448h-1.447v2.952h1.447c.723 0 1.166-.484 1.166-1.503m1.528 0c0 2.309-.925 3.167-2.573 3.167h-1.568v3.596H64.36v-9.929h3.256c1.487 0 2.452 1.02 2.452 3.166m1.022 6.763v-1.986h1.527v1.986z" clip-rule="evenodd"/>
    <g fill="#818282">
      <path d="M185.925 38.366v4.166h-8.994v5.84h8.468v4.167h-8.468v10.922h-5.081V38.366zM204.088 42.532h-9.052v5.84h8.468v4.167h-8.468v6.756h9.345v4.166h-14.426V38.366h14.075zM217.387 38.366a9.27 9.27 0 0 1 4.263.857 6.15 6.15 0 0 1 2.589 2.472 11 11 0 0 1 1.227 3.894c.221 1.671.325 3.356.311 5.042a35.7 35.7 0 0 1-.408 5.84 10.9 10.9 0 0 1-1.383 4.03 6.07 6.07 0 0 1-2.647 2.356 9.8 9.8 0 0 1-4.206.779h-8.079v-25.27zm-.935 21.415a4.44 4.44 0 0 0 2.142-.448 3.27 3.27 0 0 0 1.304-1.518 8.8 8.8 0 0 0 .623-2.784c.117-1.149.156-2.59.156-4.303s0-2.706-.137-3.777a9.5 9.5 0 0 0-.584-2.706 3.4 3.4 0 0 0-1.304-1.615 4.2 4.2 0 0 0-2.297-.546h-2.161v17.697zM244.952 42.532h-9.033v5.84h8.469v4.167h-8.469v6.756h9.345v4.166h-14.426V38.366h14.075zM259.069 38.366a7.05 7.05 0 0 1 4.925 1.596 6.25 6.25 0 0 1 1.772 4.887 7.6 7.6 0 0 1-1.032 4.146 4.73 4.73 0 0 1-3.173 2.064 4.48 4.48 0 0 1 2.784 1.227 5.12 5.12 0 0 1 1.09 3.076q0 .7.117 1.518v1.947c0 1.324.116 2.356.194 3.056a1.95 1.95 0 0 0 .915 1.441v.214h-5.431a2.64 2.64 0 0 1-.487-1.207c0-.467-.117-.934-.156-1.44l-.136-4.829a3.9 3.9 0 0 0-.74-2.316 2.72 2.72 0 0 0-2.258-.857h-2.706v10.65h-5.081V38.365zm-2.2 11a4.23 4.23 0 0 0 2.823-.857 3.72 3.72 0 0 0 .993-2.92 3.102 3.102 0 0 0-2.106-3.366 3.1 3.1 0 0 0-1.418-.12h-2.395v7.262zM282.293 38.366l6.677 25.173h-5.295l-1.168-5.315h-6.697l-1.168 5.315h-5.276l6.658-25.173zm-.662 15.692-2.434-11.311-2.433 11.31zM295.764 62.857a6.15 6.15 0 0 1-2.414-2.706 12.3 12.3 0 0 1-.973-4.069c-.18-1.7-.264-3.41-.254-5.12a49 49 0 0 1 .273-5.276c.126-1.443.522-2.85 1.168-4.146a6.54 6.54 0 0 1 2.589-2.707 9.2 9.2 0 0 1 4.536-.953 8.8 8.8 0 0 1 4.283.876 5.95 5.95 0 0 1 2.356 2.238c.508.903.839 1.894.973 2.92q.178 1.465.195 2.94h-5.081a8.9 8.9 0 0 0-.662-3.99 2.41 2.41 0 0 0-2.375-1.247 2.36 2.36 0 0 0-1.577.507 3.35 3.35 0 0 0-.954 1.654 14.4 14.4 0 0 0-.506 2.999c-.097 1.226-.136 2.745-.136 4.536q-.03 2.311.194 4.614a10.4 10.4 0 0 0 .604 2.725c.173.54.532 1.002 1.012 1.304.441.242.938.363 1.441.35.426.005.85-.075 1.246-.233a2.24 2.24 0 0 0 1.012-.915 6.1 6.1 0 0 0 .662-1.947c.183-1.086.268-2.188.253-3.29h5.081a24 24 0 0 1-.272 3.621 9.2 9.2 0 0 1-1.013 3.096 6 6 0 0 1-2.044 2.2 7.4 7.4 0 0 1-3.387 1.051l-1.051 1.694.584-.117q.292-.032.584 0c.357.001.712.06 1.051.175.349.113.672.291.954.526.282.213.515.486.681.798.182.342.275.723.273 1.11a2.89 2.89 0 0 1-1.149 2.453 5.33 5.33 0 0 1-3.29.876 10.4 10.4 0 0 1-2.141-.214 5 5 0 0 1-1.383-.468l.662-1.616c.342.163.702.287 1.071.37q.673.15 1.363.156c.441.015.876-.108 1.246-.35a1.03 1.03 0 0 0 .525-.857 1.047 1.047 0 0 0-.428-.857 1.95 1.95 0 0 0-1.129-.33 3.2 3.2 0 0 0-.662 0q-.283.042-.545.155l-.779-.72 1.674-2.745a8.7 8.7 0 0 1-4.341-1.07M324.501 38.366l6.677 25.172h-5.295l-1.168-5.315h-6.697l-1.168 5.315h-5.276l6.658-25.172zm-7.554-5.042a2.53 2.53 0 0 1 2.161-1.13 3.5 3.5 0 0 1 1.518.254l1.694.74a2.9 2.9 0 0 0 1.051.214.78.78 0 0 0 .74-.468c.153-.246.24-.528.253-.817h2.551a6.4 6.4 0 0 1-1.071 3.153 2.63 2.63 0 0 1-2.219 1.227 3.3 3.3 0 0 1-1.13-.195l-1.109-.409-1.032-.408a2.9 2.9 0 0 0-.915-.195c-.565 0-.954.428-1.129 1.285h-2.473a6.8 6.8 0 0 1 1.11-3.251m6.892 20.733-2.434-11.31-2.433 11.31zM334.507 45.686c.126-1.443.522-2.85 1.168-4.147a6.54 6.54 0 0 1 2.59-2.706 11.3 11.3 0 0 1 9.091 0 6.66 6.66 0 0 1 2.589 2.706 11.5 11.5 0 0 1 1.169 4.147 49 49 0 0 1 .272 5.276 49 49 0 0 1-.272 5.276 11.6 11.6 0 0 1-1.169 4.127 6.2 6.2 0 0 1-2.589 2.648 11.68 11.68 0 0 1-9.091 0 6.08 6.08 0 0 1-2.59-2.648 11.5 11.5 0 0 1-1.168-4.127 48 48 0 0 1-.272-5.276 49 49 0 0 1 .272-5.276m4.926 9.578c.053.984.223 1.958.506 2.901.195.64.582 1.204 1.109 1.616a3.41 3.41 0 0 0 3.641 0 3.25 3.25 0 0 0 1.051-1.616c.284-.943.448-1.917.487-2.9.097-1.169.136-2.61.136-4.303s0-3.135-.136-4.303a11.7 11.7 0 0 0-.487-2.9 3.23 3.23 0 0 0-1.051-1.636 3.52 3.52 0 0 0-3.641 0 3.23 3.23 0 0 0-1.051 1.636 12.6 12.6 0 0 0-.506 2.9c0 1.168-.117 2.61-.117 4.303s-.019 3.134.059 4.302M180.747 73.623a7.1 7.1 0 0 1 3.251.662 5.7 5.7 0 0 1 2.141 1.713 6.5 6.5 0 0 1 1.168 2.414c.236.909.354 1.845.351 2.784a9.1 9.1 0 0 1-.584 3.387c-.35.9-.903 1.706-1.616 2.356a6.8 6.8 0 0 1-2.531 1.382 11.6 11.6 0 0 1-3.271.448h-2.725v10.065h-5.081V73.623zm-1.558 11.466a3.3 3.3 0 0 0 2.453-.915 3.9 3.9 0 0 0 .935-2.978 4.42 4.42 0 0 0-.818-2.882 3.3 3.3 0 0 0-2.706-1.012h-2.122v7.787zM191.727 80.943c.126-1.443.522-2.85 1.168-4.147a6.5 6.5 0 0 1 2.589-2.687 11.1 11.1 0 0 1 9.092 0 6.5 6.5 0 0 1 2.589 2.687 11.5 11.5 0 0 1 1.168 4.147 51.3 51.3 0 0 1 0 10.571 11.7 11.7 0 0 1-1.168 4.127 6.13 6.13 0 0 1-2.589 2.629 11.68 11.68 0 0 1-9.092 0 6.14 6.14 0 0 1-2.589-2.629 11.7 11.7 0 0 1-1.168-4.127 51.5 51.5 0 0 1 0-10.571m4.945 9.598c.038.977.202 1.945.487 2.88a3.4 3.4 0 0 0 1.051 1.636 3.52 3.52 0 0 0 3.641 0c.501-.431.867-1 1.051-1.635a12.3 12.3 0 0 0 .506-2.881q.117-1.772.117-4.322c0-1.694 0-3.135-.117-4.303a13 13 0 0 0-.506-2.9 3.4 3.4 0 0 0-1.051-1.636 3.53 3.53 0 0 0-3.641 0c-.502.432-.867 1-1.051 1.635a12 12 0 0 0-.487 2.901c0 1.168-.136 2.609-.136 4.303s.039 3.134.136 4.322M222.817 73.623a7.05 7.05 0 0 1 4.926 1.616 6.24 6.24 0 0 1 1.42 2.25 6.2 6.2 0 0 1 .351 2.636 7.6 7.6 0 0 1-1.031 4.128 4.67 4.67 0 0 1-3.174 2.063 4.7 4.7 0 0 1 2.784 1.227 5.23 5.23 0 0 1 1.09 3.076c0 .467 0 .973.117 1.538s0 1.168 0 1.85c0 1.342.117 2.355.195 3.056a2.04 2.04 0 0 0 .915 1.46v.214h-5.49a2.74 2.74 0 0 1-.487-1.226q-.125-.706-.156-1.422l-.039-4.75a3.9 3.9 0 0 0-.739-2.336 2.72 2.72 0 0 0-2.259-.837h-2.706v10.649h-5.081V73.623zm-2.2 11a4.1 4.1 0 0 0 2.823-.857 3.666 3.666 0 0 0 .993-2.9 3.097 3.097 0 0 0-3.524-3.505h-2.394v7.261zM248.984 77.789h-5.51v21.026h-5.081V77.789h-5.49v-4.166h16.081zM257.764 91.183q-.006.88.117 1.752c.063.487.222.957.467 1.382.217.383.533.699.915.916a3.43 3.43 0 0 0 2.94 0c.372-.224.68-.539.895-.916.237-.429.395-.897.467-1.382q.123-.871.117-1.752V73.662h5.081v17.521c.03 1.33-.201 2.653-.681 3.894a5.96 5.96 0 0 1-4.361 3.718c-.985.213-1.99.317-2.998.312-1.006.01-2.01-.082-2.998-.273a5.94 5.94 0 0 1-2.57-1.149 5.7 5.7 0 0 1-1.81-2.453 10.7 10.7 0 0 1-.662-4.127V73.584h5.081zM284.825 79.658a5.2 5.2 0 0 0-.506-1.363 3.25 3.25 0 0 0-.915-1.012 2.1 2.1 0 0 0-1.324-.409 2.745 2.745 0 0 0-2.628 1.947 19.9 19.9 0 0 0-.818 6.775c0 1.499 0 2.861.136 4.088.068 1.054.244 2.097.526 3.115.178.728.54 1.398 1.051 1.947a2.42 2.42 0 0 0 1.772.681 2.35 2.35 0 0 0 1.012-.253c.386-.173.73-.425 1.012-.74.344-.36.615-.783.799-1.246a4.6 4.6 0 0 0 .331-1.79v-2.415h-3.369v-3.757h8.216v13.627h-3.738v-2.336a5.37 5.37 0 0 1-2.2 2.103 7.14 7.14 0 0 1-3.095.603 7.8 7.8 0 0 1-3.796-.798 5.52 5.52 0 0 1-2.278-2.511 12.1 12.1 0 0 1-1.11-4.166c-.21-1.94-.308-3.89-.292-5.84a33.5 33.5 0 0 1 .409-5.569 11.1 11.1 0 0 1 1.402-3.893 6.1 6.1 0 0 1 2.608-2.414 8.94 8.94 0 0 1 4.05-.818 7.65 7.65 0 0 1 5.996 2.064 8.57 8.57 0 0 1 1.83 5.84h-4.867a7.5 7.5 0 0 0-.214-1.46M300.009 91.183q-.006.88.117 1.752c.063.487.222.957.467 1.382.217.383.533.699.915.916a3.43 3.43 0 0 0 2.94 0c.372-.224.68-.539.896-.916.236-.429.394-.897.467-1.382q.122-.871.117-1.752V73.662h5.081v17.521c.03 1.33-.202 2.653-.682 3.894a5.95 5.95 0 0 1-4.322 3.796c-.985.213-1.99.317-2.998.312-1.006.009-2.01-.082-2.998-.273a5.94 5.94 0 0 1-2.57-1.149 5.7 5.7 0 0 1-1.81-2.453 10.7 10.7 0 0 1-.662-4.127V73.662h5.081zM330.107 77.789h-8.975v5.84h8.449v4.167h-8.449v6.775h9.345v4.166h-14.426V73.623h14.056zM338.926 91.69c-.001.535.051 1.07.156 1.596.061.449.243.872.525 1.226.275.336.63.597 1.032.76.519.21 1.076.309 1.636.291a3.25 3.25 0 0 0 2.102-.759 2.84 2.84 0 0 0 .935-2.336 4.2 4.2 0 0 0-.234-1.48 3 3 0 0 0-.759-1.11 5.5 5.5 0 0 0-1.324-.895 18 18 0 0 0-2.142-.817 19 19 0 0 1-2.92-1.246 8.2 8.2 0 0 1-2.063-1.558 6.1 6.1 0 0 1-1.227-2.083 9.1 9.1 0 0 1-.37-2.745 7.04 7.04 0 0 1 2.064-5.568 8.35 8.35 0 0 1 5.723-1.83c1.05-.012 2.097.112 3.115.37a6.5 6.5 0 0 1 2.473 1.207 5.46 5.46 0 0 1 1.616 2.103c.413.978.612 2.033.584 3.095v.7h-4.906a5.15 5.15 0 0 0-.623-2.764 2.36 2.36 0 0 0-2.122-.973 3.45 3.45 0 0 0-1.422.253 2.35 2.35 0 0 0-.895.643 2.3 2.3 0 0 0-.448.934q-.142.536-.136 1.09a3.64 3.64 0 0 0 .506 1.947 4.5 4.5 0 0 0 2.103 1.46l3.893 1.694c.84.35 1.636.794 2.375 1.324a6.5 6.5 0 0 1 1.461 1.48c.37.525.628 1.122.759 1.752.147.69.218 1.396.214 2.102a6.92 6.92 0 0 1-2.317 5.84 10.16 10.16 0 0 1-6.424 1.811 8.4 8.4 0 0 1-6.152-1.947 7.22 7.22 0 0 1-1.947-5.353v-.974h5.081zM366.163 73.623l6.658 25.192h-5.295l-1.168-5.335h-6.697l-1.09 5.335h-5.296l6.659-25.192zm-.681 15.691-2.434-11.31-2.53 11.31zM180.415 108.899a9.05 9.05 0 0 1 4.283.857 6.27 6.27 0 0 1 2.551 2.472 11 11 0 0 1 1.226 3.894 39 39 0 0 1 .312 5.042 35.5 35.5 0 0 1-.409 5.84 11.5 11.5 0 0 1-1.382 4.05 6.3 6.3 0 0 1-2.648 2.356 9.8 9.8 0 0 1-4.205.778h-8.04v-25.289zm-.973 21.415a4.26 4.26 0 0 0 2.142-.467 2.98 2.98 0 0 0 1.284-1.519 8.6 8.6 0 0 0 .643-2.784c0-1.148.156-2.569.156-4.302 0-1.421 0-2.687-.137-3.757a9.5 9.5 0 0 0-.584-2.707 3.2 3.2 0 0 0-1.304-1.615 4.24 4.24 0 0 0-2.317-.545h-2.141v17.696zM208.002 113.046h-9.073v5.841h8.469v4.146h-8.469v6.834h9.345v4.166h-14.426v-25.134h14.076zM237.087 108.899v4.147h-8.955v5.841h8.469v4.146h-8.469v10.941h-5.081v-25.075zM245.946 126.46q-.004.87.117 1.732c.063.487.222.957.467 1.383.211.386.528.704.915.915a3.43 3.43 0 0 0 2.939 0 2.4 2.4 0 0 0 .896-.915c.245-.426.404-.896.467-1.383q.121-.862.117-1.732v-17.522h5.081v17.522a10 10 0 0 1-.662 3.893 6.2 6.2 0 0 1-1.81 2.492 5.84 5.84 0 0 1-2.57 1.227c-.984.219-1.99.33-2.998.331a15.2 15.2 0 0 1-2.998-.292 5.84 5.84 0 0 1-4.381-3.583 10.8 10.8 0 0 1-.661-4.127V108.88h5.081zM276.804 113.046h-5.49v21.026h-5.082v-21.026h-5.587v-4.147h16.159zM294.811 113.046h-8.994v5.841h8.508v4.146h-8.469v6.834h9.345v4.166h-14.504v-25.134h14.056zM308.049 108.899c.963-.011 1.924.094 2.862.312a6.1 6.1 0 0 1 2.278 1.051 4.8 4.8 0 0 1 1.479 1.947c.374.961.552 1.987.526 3.017a6.26 6.26 0 0 1-.954 3.524 4.7 4.7 0 0 1-2.842 1.947 4.97 4.97 0 0 1 3.348 1.791 6.25 6.25 0 0 1 1.227 4.049c.001.955-.13 1.905-.39 2.823a5.8 5.8 0 0 1-1.324 2.356 6.46 6.46 0 0 1-2.433 1.596 9.8 9.8 0 0 1-3.718.604h-8.566v-25.017zm-1.947 10.318a5.06 5.06 0 0 0 3.096-.759 3.04 3.04 0 0 0 .954-2.55 3.14 3.14 0 0 0-.876-2.531 4.2 4.2 0 0 0-2.784-.74h-1.83v6.58zm.526 11.117a4.9 4.9 0 0 0 2.959-.818 3.44 3.44 0 0 0 1.129-2.998 4.9 4.9 0 0 0-.292-1.811 2.9 2.9 0 0 0-.817-1.168 3.1 3.1 0 0 0-1.207-.623 6.5 6.5 0 0 0-1.558-.175h-2.18v7.593zM320.723 116.239a12 12 0 0 1 1.148-4.127 6.5 6.5 0 0 1 2.609-2.707 11.11 11.11 0 0 1 9.092 0 6.43 6.43 0 0 1 2.589 2.707 11.5 11.5 0 0 1 1.168 4.127 55.4 55.4 0 0 1 0 10.571 11.5 11.5 0 0 1-1.168 4.127 6.3 6.3 0 0 1-2.589 2.648 11.68 11.68 0 0 1-9.092 0 6.33 6.33 0 0 1-2.609-2.648 12 12 0 0 1-1.148-4.127 51.3 51.3 0 0 1 0-10.571m4.925 9.598c.053.983.223 1.957.506 2.9a3.157 3.157 0 0 0 4.692 1.616 3.35 3.35 0 0 0 1.051-1.616 11.7 11.7 0 0 0 .487-2.9c0-1.188.136-2.629.136-4.322s0-3.115-.136-4.303a11.7 11.7 0 0 0-.487-2.92 3.4 3.4 0 0 0-1.051-1.655 3.53 3.53 0 0 0-3.64 0 3.14 3.14 0 0 0-1.052 1.655 12.5 12.5 0 0 0-.506 2.881c0 1.188-.117 2.609-.117 4.303q0 2.54.117 4.322zM342.43 108.899h5.062v20.968h8.994v4.166H342.43z"/>
    </g>
  </g>
</svg>
