<svg xmlns="http://www.w3.org/2000/svg" width="492" height="138" fill="none" viewBox="0 0 492 138">
  <clipPath id="a">
    <path d="M.51 0h491v138H.51z"/>
  </clipPath>
  <g fill="#ebebeb" clip-path="url(#a)">
    <path d="M391.312 57.766h-18.395V15.789h18.275c7.513 0 12.159 4.48 12.159 11.288a9.583 9.583 0 0 1-5.313 8.537c4.577 1.572 6.471 5.503 6.471 9.858 0 6.89-5.07 12.28-13.193 12.28zm-13.201-24.373h13.259c3.18 0 6.78-1.695 6.78-6.352 0-4.472-2.751-6.352-6.987-6.352h-13.052zm13.259 4.9h-13.259v14.519h13.44c4.527 0 7.761-2.723 7.761-7.26 0-5.212-3.234-7.259-7.942-7.259"/>
    <path d="M426.258 54.198c-2.261 2.722-5.924 4.298-10.816 4.298-6.483 0-12.279-2.904-12.279-9.619 0-6.413 4.707-9.314 12.83-9.742 7.695-.363 10.2-1.735 10.2-4.232s-2.381-4.34-7.699-4.34c-3.285-.016-7.651.997-8.185 5.552h-5.379c.363-6.235 5.564-10.282 13.629-10.282 8.432 0 12.704 3.869 12.704 9.673v17.182c.036 1.732.345 3.448.922 5.082h-5.136a9.4 9.4 0 0 1-.791-3.572m-.065-13.186c-2.073 1.815-5.804 2.236-9.528 2.479-6.846.435-8.374 2.784-8.374 5.39 0 3.383 3.303 4.835 7.332 4.835 5.379 0 10.453-2.302 10.57-7.924zm34.024 16.754h-5.125V38.834c0-4.777-2.697-8.28-7.706-8.28-4.762 0-8.243 3.503-8.243 8.16V57.77h-5.19V26.617h5.009v3.386a11.64 11.64 0 0 1 9.168-4.174c7.695 0 12.094 5.445 12.094 13.187l-.007 18.747zm30.982 0h-6.297L474.151 41.92l-6.051 5.808v10.04h-5.19V12.765h5.19v27.825l14.359-13.974h7.64l-12.162 11.676zm-398.16 6.86c8.567-6.112 13.539-15.382 13.539-26.82C106.586 14.934 92.64.735 64.961.735H7.31C3.487.734 1.2 3.274 1.2 6.142v125.552c0 3.565 1.525 5.877 6.08 5.902h61.257c26.692 0 43.425-15.778 43.425-40.23 0-15.579-7.169-26.624-18.921-32.74M81.085 39.375c0 9.074-7.172 15.197-16.138 15.197H30.381q-.172.014-.344 0c-1.68-.025-2.541-.987-2.541-3.012V28q.01-.135 0-.269v-.265c0-1.97.875-3.07 2.559-3.07H64.96c9.96 0 16.137 5.916 16.137 14.99M64.961 113.73H30.018c-1.651 0-2.46-1.157-2.537-2.707v-29.06a.7.7 0 0 0 0-.235v-.294c0-1.8 1.01-3.009 2.541-3.009h34.315c13.346 0 20.718 6.512 20.718 17.949 0 13.407-9.967 17.367-20.123 17.367m185.666-42.216c-12.754-1.97-20.322-3.746-20.322-9.074 0-3.742 4.98-8.08 17.132-8.08 8.014 0 13.339 2.53 15.872 6.051l.171.28s1.368 2.148 2.824 2.148h22.634c2.671 0 2.348-2.566 2.312-2.751-4.515-17.578-21.44-29-43.809-29-29.702 0-43.828 16.568-43.828 32.542 0 22.678 24.5 27.604 42.829 30.391 17.905 2.759 21.513 5.125 21.513 10.853 0 5.92-7.967 9.074-18.525 9.074-7.198 0-16.777-2.036-20.998-9.237-.508-.654-1.481-1.826-2.679-1.812h-24.942c3.194 21.894 22.514 34.736 48.611 34.736 26.293 0 45.019-14.203 45.019-34.3 0-22.09-18.341-27.614-43.825-31.756"/>
    <path d="M381.425 87.809s0-2.868-2.875-3.267h-20.631a3.11 3.11 0 0 0-2.736 2.396v7.27c0 9.27-5.782 18.736-18.729 18.736-13.139 0-18.921-9.466-18.921-18.737v-34.02c0-1.114.707-2.065 1.851-2.069h33.236a3.09 3.09 0 0 0 2.563-2.287V36.435a3.19 3.19 0 0 0-2.723-2.773h-33.189a1.76 1.76 0 0 1-1.626-1.114 1.8 1.8 0 0 1-.12-.683V10.933c0-1.303-.755-3.085-3.096-3.1H294.27a3.005 3.005 0 0 0-3.06 2.842v82.157c0 25.614 17.731 44.764 45.226 44.764 27.49 0 45.025-19.128 45.025-44.764V87.79zM157.76 31.124c-28.885 0-52.593 24.031-52.593 53.406 0 29.371 23.708 53.051 52.593 53.051 25.498 0 43.628-14.007 49.606-34.736h-26.551a3.18 3.18 0 0 0-2.482 1.579c-4.603 7.023-12.599 10.294-20.787 10.294-11.223 0-20.457-6.367-24.591-16.853a2.383 2.383 0 0 1 .279-2.25 2.424 2.424 0 0 1 2.04-1.016h67.341c.189-.04.392-.073.624-.11 4.163-.562 5.808-3.132 6.454-5.08 1.212-37.009-22.983-58.285-51.933-58.285m-.218 22.852c11.702 0 21.146 6.533 24.957 17.008.273.806.436 2.316-1.11 2.316h-47.033a2 2 0 0 1-.203 0c-1.231 0-1.536-1.11-1.046-2.316 4.24-10.482 13.307-17.008 24.457-17.008"/>
  </g>
</svg>
