<svg xmlns="http://www.w3.org/2000/svg" width="190" height="202" fill="none" viewBox="0 0 190 202">
  <clipPath id="a">
    <path d="M.423 0h188.893v202H.423z"/>
  </clipPath>
  <g clip-path="url(#a)">
    <path fill="#b69451" d="M.423 10.374v96.182c0 22.356 13.743 45.03 39.362 65.569C57.998 186.728 87.194 202 94.87 202s36.872-15.272 55.084-29.875c25.619-20.539 39.363-43.213 39.363-65.569V10.374z"/>
    <path fill="#ebebeb" d="M181.388 106.556c0 19.777-12.624 40.324-36.409 59.448-18.019 14.452-44.513 27.631-50.11 28.125-5.596-.477-32.082-13.673-50.11-28.125-23.817-19.099-36.408-39.654-36.408-59.448V18.262h173.037z"/>
    <path fill="#b69451" d="M138.482 166.909c-14.089 10.282-34.313 20.932-43.604 23.201-9.258-2.252-29.516-12.919-43.605-23.201-23.077-16.839-31.198-28.963-39.11-46.998 4.208 15.331 18.516 36.004 45.179 53.177 22.63 14.544 36.08 19.3 37.527 19.3s14.897-4.756 37.528-19.3c26.696-17.148 40.987-37.846 45.178-53.177-7.911 18.035-15.991 30.143-39.101 46.998M52.056 105.819h7.726l-.278-1.248h-8.416l-1.17 5.309c-.614 2.821.295 3.449.295 3.449h-9.94a6.4 6.4 0 0 1-1.683 1.248h13.373s-1.683-.628-1.077-3.458l1.17-5.317M55.92 87.683l-.607-2.763L52.3 98.509h1.254z"/>
    <path fill="#b69451" d="m70.168 111.203-9.78-37.73h-1.145l9.46 36.482c.707 2.554 1.625 3.349 1.625 3.349h-9.923q-.694.683-1.49 1.248h13.912a5.177 5.177 0 0 1-2.651-3.349M25.284 81.956c-.05-3.057 2.382-4.882 5.16-4.882a6.9 6.9 0 0 1 3.776 1.156 6.87 6.87 0 0 1 2.519 3.03l2.272-8.85a9 9 0 0 0-.732-.762l-1.995 7.737a6.66 6.66 0 0 0-2.597-2.681 6.7 6.7 0 0 0-3.64-.87c-2.785 0-5.546 1.818-5.495 4.882a6.34 6.34 0 0 0 1.414 3.793 5.6 5.6 0 0 1-.716-2.562M38.001 97.019a13.34 13.34 0 0 1 1.793 6.698c0 9.118-7.003 14.46-13.988 14.46-7.272 0-10.874-4.454-10.874-4.454s4.335 5.71 11.606 5.71c6.986 0 13.988-5.342 13.988-14.477A13.5 13.5 0 0 0 38 97.01M93.624 111.579s-2.971 2.512-9.536 2.512c-4.317 0-8.046-2.26-10.613-6.229 2.525 4.739 6.599 7.477 11.345 7.477 6.565 0 10.024-3.006 10.024-3.006V92.204h-1.22z"/>
    <path fill="#b69451" d="M78.576 94.64c0-8.372 2.878-13.614 6.834-13.614s5.958 4.12 5.958 4.12l2.315-8.8a8 8 0 0 0-.716-.712l-1.994 7.745s-1.81-3.575-5.707-3.575c-4.36 0-7.423 5.25-7.423 13.598 0 5.5 1.06 8.791 2.441 10.759-1.002-2.026-1.683-5.024-1.683-9.52M159.556 81.956c-.05-3.057 2.382-4.882 5.159-4.882a6.93 6.93 0 0 1 3.782 1.155 6.88 6.88 0 0 1 2.522 3.031l2.272-8.85a9 9 0 0 0-.732-.77l-1.994 7.745a6.66 6.66 0 0 0-2.597-2.681 6.7 6.7 0 0 0-3.64-.87c-2.786 0-5.546 1.826-5.496 4.882a6.34 6.34 0 0 0 1.448 3.785 5.6 5.6 0 0 1-.715-2.562M172.273 97.019a13.35 13.35 0 0 1 1.793 6.698c0 9.118-7.003 14.46-13.988 14.46-7.272 0-10.874-4.454-10.874-4.454s4.335 5.71 11.606 5.71c6.986 0 13.988-5.342 13.988-14.477a13.5 13.5 0 0 0-2.525-7.954M137.321 81.034h4.788a7.43 7.43 0 0 1 3.981 1.055l2.23-8.615h-.993l-1.851 7.167a7.85 7.85 0 0 0-3.754-.837h-5.378v10.223h.977zM137.321 97.337h2.365a5.9 5.9 0 0 1 3.888 1.197V88.42c-.29.298-.618.557-.976.77v7.737a8.55 8.55 0 0 0-3.569-.838h-2.693v10.885h.976z"/>
    <path fill="#b69451" d="m147.327 106.162-1.851 7.176h-18.011q-.241.327-.555.586a12.1 12.1 0 0 1-3.131-4.137c-1.229-2.377-4.73-10.047-5.698-12.082 2.853-1.767 5.37-5.024 5.37-10.24v-.971a12.12 12.12 0 0 0-2.441-7.846 13.1 13.1 0 0 1 1.683 6.858v.97c0 5.762-2.685 9.069-5.891 10.71l5.95 12.601c1.414 3.006 2.525 3.551 2.525 3.551h-10.495c-.126.458-.35.884-.657 1.247H146.2l2.423-9.352a3.6 3.6 0 0 1-1.296.929M110.128 79.795h-2.525v12.41h.976V81.025h2.281a4.06 4.06 0 0 1 3.223 1.214c-.715-1.792-2.087-2.445-3.964-2.445M108.596 111.044V99.74h.842l-.581-1.24h-1.254v11.288a6.97 6.97 0 0 0 .842 3.541h-9.721c-.32.501-.744.927-1.246 1.248h12.877c-.526-.437-.954-.979-1.257-1.59s-.474-1.279-.502-1.96"/>
    <path fill="#e21e26" d="M60.405 113.338h9.914s-.917-.838-1.624-3.35l-9.46-36.48h-9.047s.934.635.277 3.533l-8.508 32.906c-.707 2.562-1.625 3.349-1.625 3.349h9.915s-.91-.628-.295-3.45l1.17-5.308h8.416l1.17 5.317c.614 2.821-.295 3.441-.295 3.441m-8.096-14.829 3.004-13.59 3.005 13.59zM30.89 89.215c-3.923-3.266-6.296-5.484-6.347-8.482-.05-2.998 2.71-4.881 5.496-4.881 1.272-.062 2.535.24 3.64.868s2.006 1.56 2.597 2.682l1.994-7.745s-3.097-3.04-9.03-3.04c-7.112 0-12.801 5.468-12.801 13.573 0 5.216 2.718 8.607 7.574 12.727 5.05 4.32 6.826 6.255 6.826 9.83a5.5 5.5 0 0 1-1.675 3.956 5.56 5.56 0 0 1-4.015 1.57 8.84 8.84 0 0 1-4.733-1.353 8.77 8.77 0 0 1-3.262-3.671l-2.188 8.507s3.568 4.405 10.84 4.405c6.985 0 13.988-5.342 13.988-14.461 0-5.718-3.367-9.93-8.905-14.519M85.57 95.738v11.253c-2.357 0-7.727-1.197-7.727-13.59 0-8.373 3.064-13.597 7.423-13.597 3.905 0 5.715 3.575 5.715 3.575l1.995-7.745s-2.778-2.93-8.568-2.93c-8.82 0-14.61 8.163-14.61 20.697 0 12.535 6.093 20.699 14.307 20.699 6.564 0 9.535-2.512 9.535-2.512V92.204h-8.904a7.25 7.25 0 0 1 .842 3.55M165.161 89.215c-3.922-3.266-6.295-5.484-6.345-8.482-.051-2.998 2.71-4.881 5.495-4.881 1.272-.062 2.535.24 3.64.868s2.006 1.56 2.597 2.682l1.994-7.745s-3.097-3.04-9.03-3.04c-7.112 0-12.801 5.468-12.801 13.573 0 5.216 2.718 8.607 7.574 12.727 5.05 4.32 6.826 6.255 6.826 9.83a5.51 5.51 0 0 1-1.674 3.956 5.58 5.58 0 0 1-4.015 1.57c-1.676.006-3.318-.463-4.734-1.353s-2.548-2.163-3.262-3.671l-2.188 8.507s3.602 4.455 10.874 4.455c6.985 0 13.987-5.342 13.987-14.46 0-5.72-3.366-9.93-8.904-14.52M141.714 79.812a7.8 7.8 0 0 1 3.753.837l1.86-7.167h-19.879a7.3 7.3 0 0 1 .842 3.55v32.756a7.37 7.37 0 0 1-.842 3.55h18.028l1.86-7.176a9 9 0 0 1-3.569.837h-7.414V96.114h2.693a8.5 8.5 0 0 1 3.568.838v-7.737a8.5 8.5 0 0 1-3.568.837h-2.693v-10.24zM125.277 113.338s-1.111-.545-2.525-3.551l-5.891-12.56c3.173-1.674 5.891-4.948 5.891-10.708v-1.013c0-8.993-6.522-12.032-11.278-12.032h-12.75a7.6 7.6 0 0 1 .841 3.55v32.763a7.5 7.5 0 0 1-.841 3.551h9.721a6.97 6.97 0 0 1-.842-3.542V98.509h1.212l5.336 11.345c1.027 2.186.623 3.484.623 3.484zm-15.149-21.134h-2.525V79.812h2.525c2.845 0 4.528 1.49 4.528 6.196s-1.684 6.196-4.52 6.196"/>
    <path fill="#b69451" d="M66.869 0v34.773c0 6.774 3.997 13.565 11.555 19.627a61.6 61.6 0 0 0 9.03 5.86c2.424 1.299 5.673 2.848 7.415 2.848s4.991-1.55 7.415-2.847a61.5 61.5 0 0 0 9.03-5.861c7.575-6.062 11.556-12.844 11.556-19.627V0z"/>
    <path fill="#078c45" d="M94.87 1.775H68.694v32.998c0 6.213 3.762 12.51 10.874 18.212 5.05 4.06 13.17 8.297 15.3 8.297z"/>
    <path fill="#e21e26" d="M94.87 61.283c2.129 0 10.242-4.246 15.3-8.298 7.12-5.71 10.899-12.007 10.899-18.212V1.775H94.895v59.449z"/>
    <path fill="#ebebeb" d="M116.364 34.773c0 11.162-17.186 20.498-21.495 21.678-4.309-1.172-21.495-10.516-21.495-21.678v-28.3h42.982z"/>
    <path fill="#b69451" d="M89.003 52.44C82.7 48.732 74.52 42.042 74.52 34.766V7.636h1.447v27.137c0 7.276 13.037 17.676 13.037 17.676m11.741 0c6.304-3.71 14.484-10.4 14.484-17.676V7.636h-1.456v27.137c0 7.276-13.037 17.676-13.037 17.676M98.74 14.234v4.848a3.6 3.6 0 0 1-1.598 2.68c-.665.55-1.431.964-2.256 1.222a6.4 6.4 0 0 0 3.097-1.223 3.62 3.62 0 0 0 1.6-2.679v-4.848z"/>
    <path fill="#078c45" d="M94.886 22.992a6.7 6.7 0 0 0 2.256-1.222 3.62 3.62 0 0 0 1.599-2.68v-4.856h-7.71v4.857a3.6 3.6 0 0 0 1.6 2.679c.664.55 1.43.965 2.255 1.222"/>
    <path fill="#b69451" d="M98.74 36.364v4.848a3.6 3.6 0 0 1-1.598 2.68c-.665.55-1.431.964-2.256 1.222a6.4 6.4 0 0 0 3.097-1.222 3.62 3.62 0 0 0 1.6-2.68v-4.848z"/>
    <path fill="#078c45" d="M94.886 45.122a6.7 6.7 0 0 0 2.256-1.222c.45-.3.828-.696 1.105-1.16s.445-.982.494-1.52v-4.856h-7.71v4.857a3.6 3.6 0 0 0 1.6 2.679c.664.55 1.43.965 2.255 1.222"/>
    <path fill="#b69451" d="M98.74 25.303v4.857a3.6 3.6 0 0 1-1.598 2.68c-.665.549-1.431.964-2.256 1.222a6.4 6.4 0 0 0 3.097-1.223 3.595 3.595 0 0 0 1.599-2.68v-4.856z"/>
    <path fill="#e21e26" d="M94.886 34.062a6.7 6.7 0 0 0 2.256-1.223 3.597 3.597 0 0 0 1.599-2.68v-4.856h-7.71v4.857a3.6 3.6 0 0 0 1.6 2.68c.664.549 1.43.964 2.255 1.222"/>
    <path fill="#b69451" d="M109.21 25.303v4.857a3.6 3.6 0 0 1-1.599 2.68 6.7 6.7 0 0 1-2.255 1.222 6.4 6.4 0 0 0 3.089-1.223 3.601 3.601 0 0 0 1.599-2.68v-4.856z"/>
    <path fill="#078c45" d="M105.356 34.062a6.7 6.7 0 0 0 2.247-1.223 3.62 3.62 0 0 0 1.599-2.68v-4.856h-7.709v4.857a3.607 3.607 0 0 0 1.599 2.68c.665.549 1.431.964 2.255 1.222"/>
    <path fill="#b69451" d="M88.246 25.303v4.857a3.6 3.6 0 0 1-1.6 2.68c-.664.549-1.43.964-2.255 1.222a6.4 6.4 0 0 0 3.097-1.223 3.597 3.597 0 0 0 1.6-2.68v-4.856z"/>
    <path fill="#078c45" d="M84.416 34.062a6.7 6.7 0 0 0 2.256-1.223 3.62 3.62 0 0 0 1.599-2.68v-4.856h-7.71v4.857a3.6 3.6 0 0 0 1.6 2.68c.665.549 1.43.964 2.255 1.222"/>
    <g fill="#b69451">
      <path d="M68.047 147.793h-1.263v-5.861h1.263c2.087 0 3.518 1.222 3.518 2.93s-1.43 2.931-3.518 2.931m.202-4.865h-.387v3.877h.387a1.96 1.96 0 0 0 2.217-1.934 1.945 1.945 0 0 0-1.392-1.867 2 2 0 0 0-.825-.068M73.543 147.793v-5.861h4.014v.963H74.62v1.381h2.76v.971h-2.76v1.575h2.937v.971zM81.757 147.893a6 6 0 0 1-2.323-.485l.236-.838a6.2 6.2 0 0 0 2.07.402c.791 0 1.254-.243 1.254-.711 0-.469-.303-.536-1.43-.98-1.347-.528-1.911-.888-1.911-1.867 0-.98.724-1.541 2.239-1.541a8 8 0 0 1 2.02.285l-.16.904a9 9 0 0 0-1.844-.218c-.841 0-1.186.134-1.186.545 0 .41.353.577 1.565 1.071s1.776.771 1.776 1.759-.943 1.674-2.298 1.674M87.404 147.793h-1.262v-5.861h1.262c2.087 0 3.518 1.222 3.518 2.93s-1.43 2.931-3.518 2.931m.202-4.865h-.387v3.877h.387a1.96 1.96 0 0 0 2.217-1.934 1.945 1.945 0 0 0-1.392-1.867 2 2 0 0 0-.825-.068M92.95 147.793v-5.861h4.023v.963h-2.945v1.381h2.768v.971h-2.768v1.575h2.945v.971zM103.134 147.793l-.009-4.857-1.439.268-.143-.854 1.591-.335h1.027v5.778zM107.704 147.893a3.9 3.9 0 0 1-1.119-.159l.134-.837q.414.11.842.109c1.271 0 1.776-.745 1.902-1.909a1.7 1.7 0 0 1-.616.441 1.7 1.7 0 0 1-.747.128 1.69 1.69 0 0 1-1.674-1.087 1.7 1.7 0 0 1-.102-.696 1.917 1.917 0 0 1 2.011-1.909c1.422 0 2.197.979 2.197 2.57 0 2.035-1.086 3.349-2.853 3.349m.723-5.023a.97.97 0 0 0-.739.256.97.97 0 0 0-.313.715.91.91 0 0 0 1.027.921 1 1 0 0 0 .742-.238.984.984 0 0 0 .336-.7.96.96 0 0 0-.313-.71.97.97 0 0 0-.74-.244M116.078 146.453v1.34h-.993v-1.34h-2.836v-.938l2.726-3.491h1.103v3.55h.842v.888zm-.993-3.24-1.843 2.353h1.843zM120.892 147.893c-1.481 0-2.23-1.356-2.23-2.98 0-1.625.757-2.973 2.23-2.973s2.239 1.348 2.239 2.973-.758 2.98-2.239 2.98m0-5.024c-.9 0-1.22.98-1.22 2.035s.32 2.043 1.22 2.043c.901 0 1.212-.988 1.212-2.043s-.311-2.035-1.212-2.035"/>
      <path d="M68.047 147.793h-1.263v-5.861h1.263c2.087 0 3.518 1.222 3.518 2.93s-1.43 2.931-3.518 2.931m.202-4.865h-.387v3.877h.387a1.96 1.96 0 0 0 2.217-1.934 1.945 1.945 0 0 0-1.392-1.867 2 2 0 0 0-.825-.068M73.543 147.793v-5.861h4.014v.963H74.62v1.381h2.76v.971h-2.76v1.575h2.937v.971zM81.757 147.893a6 6 0 0 1-2.323-.485l.236-.838a6.2 6.2 0 0 0 2.07.402c.791 0 1.254-.243 1.254-.711 0-.469-.303-.536-1.43-.98-1.347-.528-1.911-.888-1.911-1.867 0-.98.724-1.541 2.239-1.541a8 8 0 0 1 2.02.285l-.16.904a9 9 0 0 0-1.844-.218c-.841 0-1.186.134-1.186.545 0 .41.353.577 1.565 1.071s1.776.771 1.776 1.759-.943 1.674-2.298 1.674M87.404 147.793h-1.262v-5.861h1.262c2.087 0 3.518 1.222 3.518 2.93s-1.43 2.931-3.518 2.931m.202-4.865h-.387v3.877h.387a1.96 1.96 0 0 0 2.217-1.934 1.945 1.945 0 0 0-1.392-1.867 2 2 0 0 0-.825-.068M92.95 147.793v-5.861h4.023v.963h-2.945v1.381h2.768v.971h-2.768v1.575h2.945v.971zM103.134 147.793l-.009-4.857-1.439.268-.143-.854 1.591-.335h1.027v5.778zM107.704 147.893a3.9 3.9 0 0 1-1.119-.159l.134-.837q.414.11.842.109c1.271 0 1.776-.745 1.902-1.909a1.7 1.7 0 0 1-.616.441 1.7 1.7 0 0 1-.747.128 1.69 1.69 0 0 1-1.674-1.087 1.7 1.7 0 0 1-.102-.696 1.917 1.917 0 0 1 2.011-1.909c1.422 0 2.197.979 2.197 2.57 0 2.035-1.086 3.349-2.853 3.349m.723-5.023a.97.97 0 0 0-.739.256.97.97 0 0 0-.313.715.91.91 0 0 0 1.027.921 1 1 0 0 0 .742-.238.984.984 0 0 0 .336-.7.96.96 0 0 0-.313-.71.97.97 0 0 0-.74-.244M116.078 146.453v1.34h-.993v-1.34h-2.836v-.938l2.726-3.491h1.103v3.55h.842v.888zm-.993-3.24-1.843 2.353h1.843zM120.892 147.893c-1.481 0-2.23-1.356-2.23-2.98 0-1.625.757-2.973 2.23-2.973s2.239 1.348 2.239 2.973-.758 2.98-2.239 2.98m0-5.024c-.9 0-1.22.98-1.22 2.035s.32 2.043 1.22 2.043c.901 0 1.212-.988 1.212-2.043s-.311-2.035-1.212-2.035M111.517 133.751H78.55a9.4 9.4 0 0 0-3.568.628 9.4 9.4 0 0 0 3.568.628h32.967a9.4 9.4 0 0 0 3.568-.628 9.4 9.4 0 0 0-3.568-.628M111.517 155.002H78.55a9.4 9.4 0 0 0-3.568.628 9.5 9.5 0 0 0 3.568.628h32.967a9.4 9.4 0 0 0 3.568-.628 9.4 9.4 0 0 0-3.568-.628"/>
    </g>
  </g>
</svg>
