<svg xmlns="http://www.w3.org/2000/svg" width="603" height="172" fill="none" viewBox="0 0 603 172">
  <path fill="#ebebeb" d="M303.414 68.701q-.001 2.974.87 5.464.873 2.49 3.07 4.312 2.2 1.821 5.952 2.826 3.753 1.003 9.589 1.002h17.969q5.762 0 9.552-1.002 3.79-1.005 5.989-2.826t3.07-4.312q.87-2.49.872-5.464v-28.03h12.51V68.7q-.001 5.353-1.595 9.924-1.59 4.575-5.343 7.846-3.751 3.27-9.855 5.128-6.102 1.86-15.126 1.859h-18.117q-9.023 0-15.124-1.859-6.103-1.857-9.856-5.128-3.752-3.27-5.345-7.846-1.592-4.571-1.592-9.924v-28.03h12.51zm264.68-28.772q9.249 0 15.807 2.117t10.69 5.725c2.751 2.403 4.762 5.229 6.024 8.477 1.266 3.246 1.895 6.727 1.895 10.446 0 3.717-.629 7.2-1.895 10.444-1.262 3.248-3.273 6.071-6.024 8.476q-4.132 3.607-10.69 5.727-6.558 2.117-15.807 2.117h-22.745q-9.25 0-15.805-2.117-6.557-2.12-10.69-5.727-4.132-3.606-6.027-8.476-1.895-4.867-1.896-10.444.001-5.578 1.896-10.446 1.895-4.872 6.027-8.477 4.133-3.606 10.69-5.725 6.555-2.117 15.805-2.117zM284.839 92.718h-15.465C253.286 72.604 253.595 72.9 236.316 51.15c-18.863 23.742-15.1 18.961-32.982 41.567h-15.466l41.776-52.051h13.345zM436.625 40.67q9.022 0 15.351 2.043c4.219 1.363 7.672 3.222 10.349 5.578q4.02 3.53 5.875 8.29 1.858 4.758 1.858 10.112 0 5.353-1.858 10.11-1.856 4.76-5.875 8.29c-2.677 2.355-6.13 4.214-10.349 5.577q-6.33 2.046-15.351 2.045h-47.532V40.67zm60.13 52.045h-12.509V40.67h12.509zm48.747-41.635q-6.218-.002-10.311 1.225c-4.093 1.227-4.914 1.934-6.556 3.345q-2.463 2.119-3.452 4.982-.983 2.862-.983 6.061 0 3.27.983 6.096.989 2.824 3.413 4.945 2.427 2.117 6.521 3.345 4.093 1.225 10.311 1.225h22.589q6.217 0 10.273-1.225 4.056-1.229 6.483-3.345 2.426-2.12 3.411-4.945.985-2.827.985-6.096 0-3.2-.985-6.061c-.985-2.861-1.794-3.568-3.411-4.982q-2.427-2.116-6.483-3.345-4.056-1.227-10.273-1.225zm-143.9 30.482h34.947q5.912 0 9.818-1.188 3.904-1.19 6.216-3.198 2.31-2.007 3.223-4.723.907-2.713.909-5.76-.002-3.05-.909-5.764-.912-2.712-3.223-4.72-2.312-2.009-6.216-3.197-3.906-1.19-9.818-1.19h-34.947z"/>
  <g fill="red">
    <ellipse cx="237.314" cy="82.182" rx="7.758" ry="7.633"/>
    <path fill-rule="evenodd" d="M193.863 116.235h-5.995v-3.019h15.336v3.019h-5.992v15.519h-3.349zm33.016-3.019h13.986v2.94h-10.691v4.767h9.476v2.939h-9.476v4.953h10.825v2.939h-14.12zm44.896 18.803c-1.455 0-2.854-.243-4.184-.728q-1.998-.727-3.699-2.239l1.998-2.33c.916.779 1.846 1.373 2.78 1.788q1.406.622 3.186.623 1.54-.001 2.446-.635.902-.636.903-1.697v-.051q0-.506-.175-.888-.177-.384-.648-.73c-.32-.228-.751-.441-1.301-.633q-.831-.293-2.151-.582a22 22 0 0 1-2.695-.781c-.784-.293-1.446-.647-1.976-1.062a4.1 4.1 0 0 1-1.219-1.523q-.42-.897-.42-2.17v-.054q.001-1.19.48-2.185a5.1 5.1 0 0 1 1.33-1.695q.84-.7 2.029-1.098a8.1 8.1 0 0 1 2.586-.398q2.083.001 3.741.596a11.3 11.3 0 0 1 3.12 1.734l-1.783 2.465q-1.294-.929-2.566-1.418a7.1 7.1 0 0 0-2.565-.489q-1.456-.001-2.267.635t-.81 1.563v.053q0 .53.19.938.188.412.686.743.508.332 1.382.621c.592.196 1.332.4 2.238.61q1.486.371 2.635.821c.765.3 1.407.666 1.91 1.099a4.3 4.3 0 0 1 1.151 1.51q.392.86.393 2.001v.052q-.001 1.296-.497 2.33a5 5 0 0 1-1.381 1.748c-.584.475-1.295.837-2.12 1.084q-1.241.372-2.727.372m35.448-15.784h-5.995v-3.019h15.337v3.019h-5.993v15.519h-3.349zm49.217-3.019h3.296v9.321l8.991-9.321h4.077l-7.857 7.972 8.207 10.566h-4.021l-6.455-8.343-2.942 2.967v5.376h-3.296zm39.929 18.538h3.295v-18.538h-3.295zm33.181-15.519h-5.995v-3.019h15.337v3.019h-5.995v15.519h-3.347zm41.818 15.836q-2.08 0-3.836-.74a9.6 9.6 0 0 1-3.046-2.026 9.4 9.4 0 0 1-2.023-3.034 9.5 9.5 0 0 1-.734-3.734v-.052q0-1.987.72-3.722a9.4 9.4 0 0 1 2.023-3.043 9.5 9.5 0 0 1 3.089-2.067q1.78-.754 3.941-.755 1.297 0 2.361.213a9.5 9.5 0 0 1 1.959.596 9 9 0 0 1 1.648.914q.755.53 1.429 1.165l-2.13 2.411a10.7 10.7 0 0 0-2.405-1.67q-1.268-.635-2.889-.636-1.349 0-2.497.516c-1.148.516-1.427.813-1.986 1.404q-.838.887-1.295 2.079c-.457 1.192-.46 1.642-.46 2.542v.053c0 .902.155 1.751.46 2.556a6.4 6.4 0 0 0 1.295 2.104 6.1 6.1 0 0 0 1.986 1.417 6 6 0 0 0 2.497.518q1.729 0 2.972-.651 1.24-.646 2.456-1.76l2.132 2.118c-.486.514-.994.967-1.526 1.367q-.795.593-1.714 1.032a9 9 0 0 1-2.012.661q-1.094.226-2.415.224m31.286-18.855h3.295v7.707h9.072v-7.707h3.295v18.538h-3.295v-7.813h-9.072v7.813h-3.295zm40.685 0h13.989v2.94h-10.693v4.767h9.478v2.939h-9.478v4.953h10.827v2.939h-14.123zm38.257 0h3.073l10.102 12.818v-12.818h3.296v18.538h-2.776l-10.402-13.189v13.189h-3.293z" clip-rule="evenodd"/>
    <path d="M86.512 0c23.746 0 45.246 9.626 60.809 25.19 15.563 15.56 25.19 37.064 25.19 60.81s-9.627 45.249-25.19 60.811C131.758 162.374 110.258 172 86.511 172s-45.248-9.626-60.81-25.189C10.136 131.249.51 109.746.51 86s9.626-45.25 25.19-60.81C41.262 9.626 62.763 0 86.51 0m0 5.716C64.34 5.716 44.269 14.7 29.74 29.23 15.214 43.756 6.227 63.828 6.227 86c0 22.17 8.987 42.244 23.513 56.771 14.529 14.528 34.6 23.513 56.772 23.513 22.169 0 42.243-8.985 56.769-23.513 14.527-14.527 23.515-34.601 23.515-56.771 0-22.172-8.988-42.244-23.515-56.77-14.526-14.53-34.6-23.514-56.77-23.514m0 5.271c41.428 0 75.011 33.585 75.011 75.013s-33.583 75.013-75.011 75.013S11.5 127.428 11.5 86s33.584-75.013 75.012-75.013m-.019 14.823c-5.978 0-10.888 4.912-10.888 10.89v96.503c0 1.398-.571 2.671-1.489 3.591-3.213 3.213-8.676.882-8.676-3.591V70.098c0-2.841-1.1-5.438-2.896-7.382a10.87 10.87 0 0 0-7.99-3.509c-5.98 0-10.889 4.913-10.889 10.89v26.279h.033v.723a5.06 5.06 0 0 1-1.495 3.584c-3.213 3.216-8.666.901-8.667-3.584v-8.495H27.73v8.495c0 2.84 1.108 5.441 2.917 7.387 1.993 2.148 4.834 3.501 7.971 3.501 5.995 0 10.889-4.894 10.889-10.888v-26.28h-.035v-.721c0-4.486 5.455-6.8 8.668-3.586a5.06 5.06 0 0 1 1.496 3.586v63.105c0 2.995 1.223 5.722 3.196 7.693a11.2 11.2 0 0 0 2.548 1.921c6.885 3.759 16.033-1.154 16.033-9.614V36.7c0-4.485 5.455-6.8 8.668-3.588a5.07 5.07 0 0 1 1.496 3.588v96.503c0 2.995 1.224 5.722 3.195 7.693 4.752 4.75 11.771 3.845 15.68-.302 1.77-1.875 2.903-4.414 2.903-7.391V70.098c0-4.486 5.453-6.8 8.667-3.586a5.06 5.06 0 0 1 1.493 3.586v26.278h.004v.723c0 5.994 4.894 10.888 10.888 10.888 3.135 0 5.979-1.353 7.972-3.501a10.84 10.84 0 0 0 2.915-7.387v-8.495h-5.806v8.495c0 4.485-5.455 6.8-8.67 3.584a5.07 5.07 0 0 1-1.492-3.584v-26.28h-.002v-.721c0-5.995-4.894-10.891-10.888-10.891-3.137 0-5.981 1.353-7.974 3.502a10.84 10.84 0 0 0-2.915 7.389v63.105a5.08 5.08 0 0 1-1.488 3.591c-3.211 3.213-8.676.882-8.676-3.591V36.7c0-5.994-4.894-10.89-10.889-10.89"/>
  </g>
</svg>
