<svg xmlns="http://www.w3.org/2000/svg" width="684" height="146" fill="none" viewBox="0 0 684 146">
  <clipPath id="a">
    <path d="M.316 0h683.688v146H.316z"/>
  </clipPath>
  <g clip-path="url(#a)">
    <path fill="#ebebeb" d="M664.103 47.026c-12.457 0-20.87 5.79-20.87 14.447 0 8.685 8.768 12.18 16.499 15.321 5.955 2.404 12.211 4.97 12.211 9.095 0 1.256-.383 2.212-1.066 3.004-1.42 1.693-4.37 2.485-8.987 2.24-4.535-.22-9.67-1.721-15.434-4.398l-2.349-1.065v10.706l1.502.437.956.218c2.868.683 8.359 1.94 13.932 1.94 14.478 0 23.137-5.736 23.137-15.322 0-8.903-8.932-12.48-16.8-15.621-5.791-2.322-11.773-4.67-11.773-8.466 0-1.12-.055-4.397 7.403-4.397 5.572 0 11.063 2.212 14.04 3.413l2.787 1.175V48.938l-2.787-.546c-2.868-.52-7.539-1.366-12.401-1.366M175.131 48.72v.547c.383 5.189.656 18.243.656 23.022 0 4.37-.055 18.926-.738 25.262v.546h22.919c11.227 0 23.138-3.496 23.138-13.491 0-6.281-4.48-10.924-12.949-13.491 6.201-1.639 10.49-5.954 10.49-10.924 0-8.139-9.424-11.28-18.193-11.443h-25.323zm55.59 0v.547c.382 5.189.656 18.106.656 22.913 0 4.342-.055 19.035-.738 25.371v.546h11.446v-.437c-.656-12.098-.656-24.224-.656-35.967.383 1.365 1.011 2.73 2.787 5.353.163.3 19.968 29.112 20.979 30.833v.218h9.315l-.109-.546c-.656-6.336-.656-21.029-.656-25.371 0-4.807.301-17.724.656-22.913v-.546h-11.555l.546 12.426c.219 6.199.328 12.508.738 18.625-.765-1.884-1.366-2.895-4.699-7.81-.082-.164-11.61-18.08-15.625-23.132l-.109-.11zm56.655 0 .109.437c.383 5.217.656 18.216.656 23.023 0 4.342-.055 19.035-.738 25.371l-.109.546h13.823l-.11-.546c-.464-4.506-.601-13.136-.655-19.8.546.027 2.458.11 2.458.11l1.94.109c18.111 0 26.879-4.862 26.879-14.884 0-11.416-12.265-14.12-22.591-14.338zm70.45 0v.437c.383 5.217.738 18.216.738 23.023 0 4.342-.164 19.035-.847 25.371v.546h13.713v-.546c-.464-4.506-.656-13.136-.738-19.8.601.027 2.568.11 2.568.11l1.94.109c18.111 0 26.88-4.862 26.88-14.884 0-11.416-12.375-14.12-22.701-14.338zm62.447 0-.11.328c-2.54 7.019-18.958 42.877-21.525 48.394l-.328.655h11.773l.11-.218c1.038-3.36 2.267-7.21 3.851-11.361l9.752-.219 8.032.11s1.365.109 1.721.109c2.13 5.325 3.715 9.367 4.398 11.36l.109.22h13.604l-21.963-49.35zm36.823 0v.547c.382 5.189.655 18.106.655 22.913 0 4.342-.027 19.035-.737 25.371v.546h13.713v-.546c-.683-6.363-.738-21.029-.738-25.371 0-3.441.164-11.115.437-17.233 1.12-.136 2.623-.191 3.633-.218 6.42-.11 10.982 1.201 13.167 3.85.984 1.202 1.503 2.759 1.503 4.507 0 5.707-5.409 8.52-10.381 8.766-1.639.082-2.895-.11-2.895-.11l-.957-.218.656.956c4.808 7.128 12.129 19.472 15.216 25.371l.109.219h14.669l-.437-.738c-.519-.791-10.162-14.938-14.232-20.974 0 0-.137-.136-.219-.327 7.458-2.267 11.146-6.473 11.146-12.945 0-11.416-12.375-14.12-22.701-14.338h-21.607zm54.415 0v.437c.382 5.217.655 18.244.655 23.023 0 4.342-.054 19.035-.737 25.371v.546h13.713l-.109-.546c-.683-6.336-.656-21.029-.656-25.371 0-4.78.3-17.806.656-23.023v-.437zm25.923 0v.547c.383 5.189.656 18.243.656 23.022 0 4.37.055 18.926-.656 25.262l-.109.546h23.028c11.173 0 23.138-3.496 23.138-13.491 0-6.281-4.535-10.924-13.058-13.491 6.256-1.639 10.49-5.954 10.49-10.924 0-8.139-9.424-11.28-18.193-11.443h-25.296zm70.56 0-.109.219c-2.705 7.456-20.078 45.39-21.526 48.503l-.328.655h11.774l.109-.328c1.038-3.359 2.267-7.182 3.852-11.36.382 0 9.752-.11 9.752-.11l8.031.11h1.721c2.131 5.298 3.715 9.34 4.398 11.36l.109.328h13.604l-21.963-49.35zm-417.647 5.572c.792-.055 1.721 0 2.568 0 9.56.027 13.057 1.939 13.057 7.182 0 1.393-.355 2.595-1.175 3.633-1.83 2.184-5.572 3.331-10.08 3.113h-.218l-2.677 6.964h2.677c5.272-.164 9.861 1.502 12.211 4.397 1.12 1.338 1.611 2.867 1.611 4.506 0 5.49-4.808 8.248-14.232 8.248-1.584 0-4.152 0-5.791-.11-.355-7.237-.328-17.014-.328-19.909 0-3.44.109-11.115.328-17.67.546-.109 1.257-.3 2.049-.354m362.385 0c.792-.055 1.639 0 2.458 0 9.589.027 13.167 1.939 13.167 7.182 0 1.393-.437 2.595-1.284 3.633-1.83 2.184-5.518 3.331-10.08 3.113h-.218l-2.65 6.964h2.786c5.272-.164 9.752 1.502 12.102 4.397 1.12 1.338 1.721 2.867 1.721 4.506 0 5.49-4.808 8.248-14.232 8.248-1.639 0-4.153 0-5.792-.11-.355-7.237-.437-17.014-.437-19.909 0-3.44.164-11.142.437-17.67.519-.109 1.257-.3 2.022-.354m-248.447.437c6.42-.11 10.872 1.174 13.058 3.85.983 1.23 1.502 2.731 1.502 4.507 0 7.155-7.949 8.684-14.669 8.684l-2.786-.109s-.656-.164-1.066-.218c-.054-1.64 0-3.77 0-6.2 0-3.14-.027-6.718.11-10.16.819-.19 2.349-.327 3.851-.354m70.368 0c6.42-.11 10.982 1.174 13.167 3.85.984 1.23 1.503 2.731 1.503 4.507 0 7.155-7.95 8.684-14.67 8.684l-2.786-.109s-.683-.164-1.065-.218c-.055-1.64-.11-3.742-.11-6.2 0-3.14.082-6.718.219-10.16.847-.19 2.267-.327 3.742-.354m49.143 8.548c1.12 2.321 3.961 8.93 7.185 16.714h-1.066l-6.091.109s-6.201-.082-7.185-.11c2.568-6.28 4.972-11.907 7.157-16.713m187.749 0c1.12 2.321 3.961 8.93 7.184 16.714h-1.065l-6.092.109s-6.201-.11-7.184-.11c2.54-6.253 4.972-11.907 7.157-16.713"/>
    <path fill="#00925c" d="M.686 146h146.036V0H.686z"/>
    <path fill="#ebebeb" d="M83.565 16.168c3.989 1.666 20.051 10.432 22.072 13.163-8.523 1.12-24.749 5.954-32.971 10.269 9.424-2.076 22.563-3.168 31.578-3.632-3.524 5.189-5.436 7.838-11.145 14.037 9.779-5.872 12.484-6.281 21.525-11.552 3.388 5.025 4.262 16.686 4.399 25.917 2.95-5.872 6.528-27.91 5.026-31.898 5.436-3.55 5.436-4.97 6.856-7.401-5.49.491-8.577.573-11.555 1.502-7.539-4.643-23.11-9.422-35.785-10.405M62.15 44.106c-2.431.355-9.342 3.441-13.932 7.073 0 0-3.032-.382-8.14-.218-5.108.218-11.774 1.502-14.341 2.567 4.971.219 11.746 1.475 14.34 4.07 0 0-7.593 6.827-14.996 21.738 0 0 13.631-12.672 19.477-15.84 0 0 3.005 10.323 5.135 15.43 0 0 1.913-11.88 5.027-18.734 0 0 .874-.547 5.245-.956 4.316-.382 10.435-.656 22.18 1.393 0 0-10.762-6.828-24.093-8.685.547-1.83 2.432-5.762 4.098-7.838M23.823 84.58c-.846 7.319-1.147 12.672-.109 18.516-3.333.901-5.71 1.666-8.468 2.895 3.852 2.376 7.02 4.233 11.364 6.199 2.267 4.943 4.616 8.221 8.468 11.989-.902-3.222-1.093-5.817-.738-9.203 4.835 1.42 8.878 2.185 14.342 2.348-5.218-1.939-8.96-4.178-13.058-8.029 1.23-3.359 2.65-6.063 4.917-9.422-4.207.601-7.293 1.12-10.926 1.83-2.978-5.161-4.29-10.187-5.792-17.123m64.031 22.804c-3.688 2.594-6.884 4.615-11.145 6.636a76 76 0 0 1-.437-5.899c-2.404 3.195-4.426 5.626-7.075 8.575-4.508 1.229-8.059 1.694-12.43 1.721 2.65 1.393 5.354 2.212 8.14 2.786-2.785 2.539-5.217 4.369-7.921 6.09 4.59-1.093 10.544-3.059 14.997-5.681 2.322.082 4.616-.027 6.2-.328-.382-1.365-.682-2.403-1.065-4.178 4.262-3.25 7.267-6.172 10.736-9.722"/>
  </g>
</svg>
