<svg xmlns="http://www.w3.org/2000/svg" width="302" height="182" fill="none" viewBox="0 0 302 182">
  <clipPath id="a">
    <path d="M.004.367H301.51v181.266H.004z"/>
  </clipPath>
  <g clip-path="url(#a)">
    <path fill="#7bb51c" d="M31.202 181.567h237.661l-118.2-118.199z"/>
    <path fill="#ebebeb" d="m26.66 175.755 18.517-18.063-6.168-6.326-11.63 11.351-20.487-21.006-6.888 6.72zm22.58-22.177 18.973-18.515-5.21-5.337-12.047 11.752-5.785-5.931 9.654-9.418-5.452-5.584-9.654 9.413-4.956-5.08 11.65-11.369-5.206-5.335-18.913 18.452zm62.099-87.77c-7.652-7.844-20.925-6.905-27.317-.667-6.394 6.237-9.657 18.675-.628 27.93 9.918 10.165 21.717 6.474 28.111.24 9.427-9.198 6.072-21.11-.166-27.503m-5.624 22.13c-4.232 4.13-9.406 3.01-15.318-3.051-4.968-5.092-4.67-10.208-1.057-13.733 2.484-2.424 7.53-4.593 13.533 1.56 6.848 7.02 7.075 11.095 2.842 15.225m26.964-15.616 6.999-6.831-10.53-10.793-6.303-26.224-8.024 7.83 4.174 14.877-14.101-5.193-7.566 7.38 24.042 7.72zm-37.32 36.452s-17.036-5.812-17.846-5.671c-.262.042 3.66-10.393-5.152-15.018 0 0-6.538-3.54-13.08 2.405l-13.947 13.743 26.885 27.075 7.113-6.939-14.548-14.909 23.517 6.2zm-26.386-3.717c-3.952 3.849-4.486 4.153-4.486 4.153l-6.416-6.576c-.22-.225 4.431-4.211 5.164-4.927.31-.304 3.206-2.192 5.603.263 0 0 4.086 3.23.135 7.087m61.534-71.416-6.221-6.272L151.444.433l8.888 8.96-9.784 19.256 19.947-9.008 8.552 8.624L151.89 55.2l-6.556-6.609 14.336-14.216-19.611 8.896-4.054-4.088 9.115-19.591zm47.154 47.542L158.831 62.2l27.159-26.936 18.883 19.04-5.486 5.441-11.831-11.926-4.424 4.386 9.331 9.408-5.713 5.665-9.275-9.351-5.935 5.886 11.719 11.815zm62.091 8.286 6.998 7.058-20.551 20.381 11.496 11.587-6.608 6.558-18.494-18.646zm-3.778 50.513 27.159-26.936 6.832 6.886-27.159 26.934zm19.216 19.377-6.388-6.442 27.16-26.934 9.276 9.346-7.926 27.967 17.978-17.831 6.22 6.272-27.157 26.934-8.111-8.173 6.984-29.36zm-27.711-82.264-16.495-16.633-27.216 26.881 6.998 7.055 14.838-14.716-5.341 24.292 7.164 7.224s5.648-17.377 5.821-18.1c0 0 6.12 3.37 12.834-2.402 0 0 6.441-6.276 1.397-13.601m-10.072 7.878s-3.467 2.328-6.523-.752l-4.772-5.04 6.493-6.442 4.999 5.04c.554.56 4.057 3.195-.197 7.194"/>
  </g>
</svg>
