<svg xmlns="http://www.w3.org/2000/svg" width="693" height="172" fill="none" viewBox="0 0 693 172"><path fill="#8e00ed" d="M55.658 48.614h16.82v74.719h-16.82zm94.454-23.527a10.72 10.72 0 0 0-7.443-2.981 10.72 10.72 0 0 0-7.442 2.98l-5.056 4.916-48.24 46.906c-2.478 2.413-3.87 5.684-3.87 9.095 0 3.41 1.392 6.68 3.87 9.095l29.043 28.227h23.785L96.357 86.003l46.172-44.88c8.834 10.038 14.524 22.327 16.395 35.411s-.155 26.416-5.839 38.416c-5.683 11.999-14.786 22.164-26.229 29.289s-24.747 10.913-38.337 10.914c-39.248.029-71.19-31.005-71.19-69.15 0-11.297 2.846-22.422 8.292-32.402S38.945 35.09 48.566 28.754 69.26 18.47 80.813 17.256a73 73 0 0 1 34.031 4.532l12.711-12.36C114.888 3.29 100.879.233 86.729.517 40.11 1.395 2.03 37.923.556 83.237c-1.574 48.29 38.274 88.08 87.568 88.262 47.805.178 87.942-38.393 88.291-84.864.094-11.45-2.187-22.802-6.706-33.377s-11.184-20.156-19.597-28.171m222.933 66.368 20.039-.058a6.67 6.67 0 0 0 4.636-1.878 6.3 6.3 0 0 0 1.917-4.513v-4.502h-26.592v-9.827h29.373v-10.95h-43.492v52.581h44.262v-10.951h-30.143zm116.176-31.729h-14.119v52.582h32.104a6.67 6.67 0 0 0 4.649-1.872 6.3 6.3 0 0 0 1.926-4.52v-5.312h-24.56zm35.298 52.582h14.119V59.726h-14.119zm67.618-20.927-23.42-29.195a6.5 6.5 0 0 0-2.299-1.812 6.7 6.7 0 0 0-2.885-.648h-9.607v52.582h13.609v-31.42l23.339 28.981a6.55 6.55 0 0 0 2.298 1.805c.896.425 1.88.646 2.878.646h9.539V59.726h-13.537zm-360.59 20.956h12.674V59.685h-12.674zm38.224-52.652-19.286 19.93c-1.648 1.75-2.562 4.036-2.562 6.408s.914 4.659 2.562 6.408l19.248 19.893h16.9l-25.452-26.305 25.49-26.346zm69.634 32.932q5.712-5.134 5.712-14.44 0-8.773-5.712-13.614-5.71-4.841-16.049-4.837h-26.227v52.582h14.119v-41.63h11.414q4.317 0 6.677 2.067 2.361 2.067 2.352 5.886 0 3.974-2.352 6.078c-2.352 2.104-3.793 2.102-6.677 2.1h-1.654a6.16 6.16 0 0 0-3.311.963 5.9 5.9 0 0 0-2.222 2.572 5.7 5.7 0 0 0-.406 3.336 5.8 5.8 0 0 0 1.546 3.005l15.148 15.656h16.901l-15.557-16.082a18.3 18.3 0 0 0 6.298-3.642m118.907-28.054q-5.715-4.837-16.05-4.837h-25.41v52.582h14.119v-41.63h10.594q4.325 0 6.677 2.067 2.35 2.067 2.351 5.886 0 3.974-2.351 6.078t-6.677 2.1h-1.208a5.8 5.8 0 0 0-2.203.372 5.7 5.7 0 0 0-1.881 1.177c-.54.51-.969 1.121-1.262 1.795a5.35 5.35 0 0 0 0 4.262 5.5 5.5 0 0 0 1.262 1.795c.54.51 1.179.911 1.881 1.177.701.266 1.45.393 2.203.373h1.905q10.342 0 16.05-5.139c5.708-5.139 5.707-8.239 5.707-14.44q0-8.773-5.707-13.614zm207.742 17.553h-16.615a5.8 5.8 0 0 0-2.204.373 5.65 5.65 0 0 0-1.88 1.177c-.54.51-.969 1.12-1.262 1.795a5.35 5.35 0 0 0 0 4.262 5.5 5.5 0 0 0 1.262 1.795c.539.51 1.179.91 1.88 1.177a5.8 5.8 0 0 0 2.204.373h9.951v5.965q-5.418 2.555-9.632 2.551a16.5 16.5 0 0 1-8.123-2.026 14.8 14.8 0 0 1-5.733-5.585 15.64 15.64 0 0 1-2.067-7.991 15.3 15.3 0 0 1 2.067-7.876 15.06 15.06 0 0 1 5.652-5.552 16.1 16.1 0 0 1 8.042-2.021c2.668.024 5.306.56 7.761 1.575a23.3 23.3 0 0 1 6.966 4.275l8.28-9.604a32.9 32.9 0 0 0-10.508-5.738 38 38 0 0 0-12.418-2.137 34.65 34.65 0 0 0-15.735 3.526c-4.525 2.202-8.347 5.561-11.057 9.715a24.8 24.8 0 0 0-4.023 13.837 25.7 25.7 0 0 0 3.904 13.952c2.591 4.144 6.291 7.528 10.704 9.79a32.4 32.4 0 0 0 15.246 3.563 43.6 43.6 0 0 0 12.299-1.914q6.49-1.918 10.946-4.989V87.59c-.07-1.474-.721-2.865-1.819-3.885s-2.557-1.588-4.075-1.589zm13.23-17.838h1.982v5.139h1.204v-5.143h1.982v-1.05h-5.193zm6.239 5.139h1.11v-4.444l1.99 3.803h.783l1.986-3.804v4.44h1.118v-6.2h-1.394l-2.088 3.985-2.127-3.986h-1.391z"/></svg>