<svg xmlns="http://www.w3.org/2000/svg" width="783" height="110" fill="none" viewBox="0 0 783 110">
  <clipPath id="a">
    <path d="M.51 0h782v110H.51z"/>
  </clipPath>
  <g fill="#bebebe" fill-rule="evenodd" clip-path="url(#a)" clip-rule="evenodd">
    <path d="M18.26 83.348q.002 7.611 7.364 7.613H46.84V45.965H27.2c-5.969 0-8.941 3.524-8.941 10.562zm8.415 25.745c-17.443 0-26.164-8.755-26.164-26.274V55.665c0-18.558 8.487-27.833 25.45-27.833H46.84V.194h17.944v108.899zM138.42 90.962V77.475h-24.445c-3.868 0-5.805 2.31-5.805 6.92 0 4.383 1.937 6.567 5.805 6.567zm-23.702 18.132q-23.904-.001-23.903-25.216v-.524c0-16.004 8.353-24.011 25.043-24.011h22.562V55.52c0-6.367-3.051-9.557-9.163-9.557H95.033V27.832l33.918.188c18.267.123 27.414 9.222 27.414 27.311v53.763zM219.614 109.093h-5.443c-19.433 0-29.162-9.568-29.162-28.693V.386h17.939v27.446h16.666v18.132h-16.666v34.784c0 6.805 5.558 10.213 16.666 10.213zM290.167 90.962V77.475h-24.451c-3.873 0-5.797 2.31-5.797 6.92 0 4.383 1.924 6.567 5.797 6.567zm-23.705 18.132q-23.904-.001-23.905-25.216v-.524c0-16.004 8.349-24.011 25.039-24.011h22.571V55.52c0-6.367-3.057-9.557-9.174-9.557h-34.219V27.832l33.918.188c18.272.123 27.414 9.222 27.414 27.311v53.763zM404.572 109.094h-17.739V55.478c0-6.345-2.99-9.514-8.951-9.514H365.61c-7.017 0-10.521 3.866-10.521 11.59v51.54h-17.937V0h17.937v30.799c3.042-1.98 6.788-2.966 11.233-2.966h14.56c15.8 0 23.69 8.645 23.69 25.928zM479.851 56.867c0-7.267-2.988-10.904-8.945-10.904h-13.654c-5.966 0-8.94 3.637-8.94 10.904v23.366c0 7.146 2.974 10.728 8.94 10.728h13.654c5.957 0 8.945-3.752 8.945-11.25zm17.94 25.425c0 17.865-8.201 26.801-24.582 26.801h-18.442c-16.263 0-24.404-8.936-24.404-26.801v-28.18c0-17.52 8.141-26.28 24.404-26.28h18.442c16.381 0 24.582 8.76 24.582 26.28zM593.429 108.897h-18.137v-2.435c-3.047 1.626-6.893 2.435-11.578 2.435h-11.755c-17.299 0-25.958-10.072-25.958-30.22V27.732h17.95v51.463c0 7.712 3.363 11.566 10.103 11.566h10.267q10.97.001 10.971-13.124V27.73h18.137zM624.036 109.094V90.962h39.019c5.74 0 8.669-2.321 8.792-6.937-.35-4.169-3.111-6.257-8.254-6.257h-17.239c-16.643 0-24.882-8.34-24.784-25.014.123-16.679 8.319-25.023 24.596-25.023h38.98V46.06h-40.242c-3.979 0-5.971 2.17-5.971 6.536 0 4.697 2.564 7.045 7.731 7.045h16.51c17.347 0 26.016 7.724 26.016 23.162v.875c0 16.939-8.615 25.416-25.814 25.416zM735.296 59.344h29.675v-6.08c0-4.87-2.056-7.302-6.154-7.302H742.49c-4.793 0-7.194 2.264-7.194 6.779zm47.215 18.132h-47.215v5.53q-.002 7.754 6.957 7.754h37.6v18.334h-37.861c-16.559 0-24.828-8.349-24.828-25.052V53.813c0-8.625 2.16-15.17 6.499-19.606 4.33-4.428 10.775-6.59 19.325-6.478l15.632.101c15.927.229 23.891 8.71 23.891 25.435z"/>
  </g>
</svg>
