<svg xmlns="http://www.w3.org/2000/svg" width="601" height="146" fill="none" viewBox="0 0 601 146"><clipPath id="a"><path d="M.51.4h600V145.6H.51z"/></clipPath><g clip-path="url(#a)"><path fill="#b3bbc7" d="M600.511 145.6h-17.114l-32.891-43.17 9.374-12.222zm-582.887-.001H.511L62.5.401h17.113zm164.817 0h-17.113V.401h17.113zm120.873 0h-17.113V.401h17.113zm37.481 0h-17.114L385.672.401h17.113zm151.025 0h-17.114L582.541.401h17.113zm-351.936-.628h-17.113l-42.48-100.1 8.235-20.613zm323.35 0h-17.113l-42.479-100.1 8.235-20.613zM216.395.401c25.348 0 45.895 20.655 45.904 46.13 0 25.492-20.555 46.147-45.904 46.147h-15.136V76.31h16.265c15.821-.594 28.508-13.719 28.508-29.77 0-16.05-12.687-29.175-28.508-29.77h-16.265V.402zm308.702 43.763-8.724 11.318L475.562.4h17.114z"/></g></svg>